<?xml version="1.0" encoding="UTF-8"?>
<svg xmlns="http://www.w3.org/2000/svg" viewBox="0 0 46.27 44.76">
  <defs>
    <style>
      .cls-1 {
        mix-blend-mode: multiply;
      }

      .cls-2 {
        isolation: isolate;
      }

      .cls-3 {
        fill: #f4d591;
      }

      .cls-3, .cls-4, .cls-5, .cls-6, .cls-7, .cls-8, .cls-9, .cls-10, .cls-11, .cls-12, .cls-13, .cls-14, .cls-15, .cls-16, .cls-17, .cls-18, .cls-19 {
        stroke-width: 0px;
      }

      .cls-4 {
        fill: #f2e38f;
      }

      .cls-5 {
        fill: #f2e18b;
      }

      .cls-6 {
        fill: #f7d34b;
      }

      .cls-7 {
        fill: #de9a34;
      }

      .cls-8 {
        fill: #cb7f2d;
      }

      .cls-9 {
        fill: #dc932e;
      }

      .cls-10 {
        fill: #e39b43;
      }

      .cls-11 {
        fill: #a76132;
      }

      .cls-12 {
        fill: #f5c140;
      }

      .cls-13 {
        fill: #eec277;
      }

      .cls-14 {
        fill: #efbb5d;
      }

      .cls-15 {
        fill: #ecb357;
      }

      .cls-16 {
        fill: #eca536;
      }

      .cls-17 {
        fill: #f5e17a;
      }

      .cls-18 {
        fill: #eab25e;
      }

      .cls-19 {
        fill: #f5ebbe;
      }
    </style>
  </defs>
  <g class="cls-2">
    <g id="Layer_2" data-name="Layer 2">
      <g id="graphic_top">
        <g class="cls-1">
          <path class="cls-11" d="M23.29,24.42c1.62.54,3.29.83,4.99.82,2.34-.01,4.65-.1,6.9-.97,1.62-.63,3.47-.51,5.1-1.22.22-.09.58-.03.68-.18,1.27-1.77,2.89-.66,4.34-.48.87.11,1.18.74.81,1.47-.54,1.06-.78,2.28-1.67,3.16-.79.78-1.17,1.84-1.2,2.91-.04,1.29-.47,2.2-1.69,2.72-.33.14-.59.42-.89.63-.26.04-.46.24-.73.24-.24,0-.53-.13-.72-.03-1.49.73-2.9,1.79-4.7.88-.88.92-1.49-.44-2.42-.25.64.98.74,1.84-.64,2.16-.46.11-1.03.04-1.09-.39-.23-1.63-1.69-1.25-2.7-1.84.43.88,1.23.6,1.79.88.42.21.71.52.68.99-.04.63-.57.53-.97.53-.55,0-1.1-.08-1.65-.01-1.17.15-2.06-.09-2.25-1.46-.03-.22-.28-.38-.54-.45-.17,0-.33,0-.49,0-1.91-.14-2.89-1.92-4.48-2.43.25.27.79.38,1.07.79.35.5.23.83-.39.82-.86-.01-1.71.16-2.56.13-.82-.03-1.54-.47-1.91-1.24-.37-.76.05-1.27.84-1.69-1.58-.48-2.13-1.99-3.25-2.91-.67-.55-1.9-.47-2.07-1.59-.17-1.08,1.14-1.19,1.39-2,.2-.64.21-1.45,1.27-.97.02.01-.09-.14-.14-.17-.5-.37.14-1.13-.6-1.54-.43-.24-.14-.9.31-1.22.9-.64,1.85-.97,2.91-.34,1.85.83,3.32,2.21,4.98,3.33.54.36.91.99,1.68.92Z"/>
          <path class="cls-8" d="M16.27,20.4c-.96-.58-1.71.07-2.45.49-.53.3-.33.71.08,1.01.14.1.34.12.51.15.37.05,1.06-.27.98.37-.12.89-.86.16-1.32.26.1.49.68.72.67,1.25-.49.16-.76-.4-1.23-.31-.3.41-.02.91-.13,1.36-.08.31-.14.67-.54.54-.88-.28-.99.49-.98.89,0,.25.75.75,1.05.68.42-.1.59-.28.68.28.08.42.24.9.76.87.75-.04.92.42,1.07.98.12.47.25.87.88.98.82.14.83.55.23,1.21-.37.4-.69.96,0,1.38.62.39,1.12.92,2.08.53.55-.23,1.4-.34,2.12.05-.61-.77-1.56-1.14-2.25-2.24,1.24.4,2.11.81,2.91,1.42.72.55,1.47,1.08,2.25,1.54.21.12.58-.02.87-.05.02.1.04.2.07.3l.06.14-.07-.14c0-.1-.03-.2-.07-.29,1.01-.3,1.61.84,1.5,1.1-.5,1.27.66.94.91.89.99-.22,1.93-.07,2.94.12.08-.7-.29-1.06-.8-.96-1.38.29-1.71-.79-2.64-1.71,1.5,0,2.48.62,3.56.77.24.04.5.22.59.59.31,1.23.34,1.22,1.39.67.11-.06.22-.09.34-.14-.22-.63-.93-.93-1.05-1.6,1.24-1.08,1.91.48,2.92.65-.04-.34-.08-.63-.14-1.07.8.11,1.29.76,1.95.92.46.11,1.12.7,1.34-.45.1-.55.99-.56,1.49-.87.51-.3.9.18,1.33.37.04,1.1-1.15,1.43-1.25,2.34.42-.18,1.01-.19,1.6.06h.12c.63-.02,1.05.36,1.47.76.19.42-.13.57-.39.75-.86.88-1.55,1.82-3.03,2-1.07.14-1.87,1.33-2.93,1.84-.82-.23-1.57-.68-2.41-.82-.67-.11-1.3-.11-1.78.57-1.44,2.05-3.41,2.75-5.76,2.02-.67-.21-1.31-.19-1.98-.13-.27-.02-.5-.12-.72-.27-.92-.85-3.19-.75-4.39.2-.27.02-.51-.06-.74-.2-1.85-.97-3.36-2.59-5.59-2.88-.82-.1-1.72-.31-1.77-1.44.07-.1.17-.18.28-.21.1-.02.14.04.12.16-.14-.41-.43.05-.62-.1-1.37-1.15-2.53-2.53-3.75-3.82-.58-.61-1.16-1.78.09-2.59.17.05.32.14.45.25.69.95,1.27,2,2.4,2.52.23.11.45.25.64.41.51.57,1.23.73,1.91.99.62.24,1.35.49,1.55,1.16.51,1.67,2.08,1.6,3.28,2.1.76.32,1.14-.49,1.63-.9.77-.34,1.52-.3,2.03-.03-2.75-1.23-6.39-1.58-7.93-5.16-.1-.21.37-.49-.16-.69-.93-.35-1.93-.23-2.86-.55-.74-.66-1.02-1.63-1.48-2.46-.35-.62-.06-1.86.83-1.36.89.51.94-.46,1.43-.32.29-.06.51.12.86.29-.34-.22-.57-.35-.86-.29-2.49-.08-2.9-2.2-3.78-3.86.04-.17.13-.3.28-.39.44-.21,1.14.36,1.36-.47,0-.62.11-1.11.57-1.64.57-.65.9-1.54,1-2.46.24-2.18.28-2.21,2.42-2.09.36.02.73-.04,1.09.06.65.27,1.09.73,1.29,1.41-.26.57.17.38.44.37.34.06.65.21.92.42.4.43.81.86.26,1.46Z"/>
          <path class="cls-6" d="M14.48,18.46c-.27-.66-.82-1.11-1.26-1.64-.58-.18-1.19-.38-1.78-.36-.77.02-1.63.14-1.59,1.27.01.4.27.93-.26,1.14-.62.25-.77-.42-1.08-.72,0,.6.7.79.82,1.31.1.42.04,1.1-.48.93-2.1-.7-1.9.88-2.18,2.04-.04.18-.17.32-.32.43-.44.42-.09.78.1,1.13.37.67.57,1.54.28,2.1-.57,1.11-.92,1.99.04,3.09.4.46-.12.89-.7.89-.95,0-1.78-.32-2.4-1.08-.33-.41-.45-1.03-1.1-1.13-.38-.2-.73-.36-1.12.06-.54.58-.94.22-1.29-.27-.05-.17-.2-.41-.14-.51,1.12-1.85.37-3.83.42-5.75.46-2.43,1.14-4.81,1.67-7.22.26-1.18.79-1.15,1.47-.46,1.05,1.06,1.93,2.23,1.8,3.86.35-2.01-.02-4.08.67-6.04.33-.94.72-1.64,1.75-.65.17.33.21.69.45,1.07-.21-1.84.24-3.55.89-5.22.12-.13.27-.2.44-.22.49-.01.92.31,1.53.22.3-.51-.5-1.52.54-1.75,1.26-.29,1.57.8,2.08,1.58v.02c-.22.71-.56,1.43-.02,2.14h0c.05.28.39.38.4.68l.02.04c.07.14.12.29.14.45v.04c.11.26-.13.53,0,.79h0c.02.17.04.33.06.5.77,1.52,1.02,3.16,1.06,4.84.06.28.39.4.45.68h0c.57.64,1.35,1.18,1.05,2.23-.32.54-.8.16-1.2.22-.33-.18-.65-.35-.98-.53-.16.03-.24-.04-.25-.2Z"/>
          <path class="cls-17" d="M7.63,11.14c-.85-.58-1-.55-1.14.25-.4,2.29-.6,4.6-.54,6.92,0,.29.13.6-.27.86-.67-.48-.86-1.32-.76-1.91.29-1.7-1.32-2.32-1.82-3.55-.13-.31-.6-.21-.67.16-.2,1.01-.71,1.97-.81,2.96-.15,1.6-.7,3.05-1.18,4.54-.3-.54-.12-1.09.05-1.6.83-2.52,1.09-5.17,1.73-7.74.08-.34-.01-.73-.03-1.09.12-.46.47-.58.84-.42,1.04.45,2.13-.06,2.81-1.36.1-.32.21-.63.31-.95.04-.08.08-.15.11-.22.06-.06.12-.11.18-.17.07-.04.15-.07.22-.11.52-.09.94-.01,1.02.61-.26.5.39.19.41.46-.12.79.54,1.73-.47,2.34Z"/>
          <path class="cls-18" d="M25.06,44.16c-1.93.58-3.82.76-5.89.43-3.4-.55-6.41-1.9-9.15-3.8-2.59-1.79-5.05-3.82-6.68-6.63-.21-.36-.54-.65-.82-.98.04-.2.16-.33.36-.39,1.67-.11,2.46,1.02,3.19,2.25,1.38,2.31,3.19,4.2,5.54,5.54.89.89,2.32.66,3.2,1.55.05.1.1.2.12.31.04.21.19.35.28.53-.09-.21-.26-.37-.29-.6.39-.51.82-.47,1.21-.04.34.37.69.67,1.19.76.51.15,1.03.22,1.56.25.15.01.29.04.43.08.13.04.27.09.4.14.25.1.5.18.77.21.26.02.51.05.77.05.13,0,.25,0,.38,0,.18,0,.37,0,.55-.03.12-.03.24-.05.36-.07.12-.03.24-.05.36-.08,0,0,.18-.04.18-.04.12-.03.24-.05.36-.07.12-.02.25-.02.37-.01.19,0,.38.02.57.04.13.01.26.05.38.1.18.11.3.25.31.47Z"/>
          <path class="cls-10" d="M35.74,40.95c.21-.44.83-.53.9-1.09.03-.25.18-.6.4-.49.91.45,1.33-.82,2.2-.55.31.09.57-.27.84-.54.43-.44,1.06-.69,1.6-1.01-.08.29-.14.57-.09.89.12.92-.31,1.51-1.2,1.77-2.58.75-4.89,2.1-7.3,3.24-1.92.91-4.05,1.26-6.22.8-.02-.08-.04-.16-.06-.25.31-.78,1.12-.6,1.68-.8,1.62-.58,3.41-.65,4.79-1.92.68-.62,1.63-.13,2.46-.03Z"/>
          <path class="cls-5" d="M13.72,6.56c-.34-.12-1.05.16-.91-.51.16-.8-.54-.37-.74-.65-.22-.31-.53-.17-.69.15-.14.27,0,.48.27.55.43.12.61.41.47.8-.14.39-.56.41-.91.45-.72.1-1.22-.4-1.8-.71.43-1.29.65-2.66,1.41-3.82h0c.46-.16.9-.39,1.13-.81.31-.55.43-1.41,1.26-1.21.81.19-.15,1.09.39,1.5l.13,4.26Z"/>
          <path class="cls-7" d="M15.71,19.18c.33-.07.67-.13,1-.2.44-.28.72.37,1.14.19h0c1.64.33,2.27,1.86,3.39,2.82.44,1.01.97,1.95,2.05,2.41-.45.21-.82,0-1.18-.23-1.35-.89-2.87-1.51-4.05-2.69-.48-.48-1.19-.74-1.79-1.1.1-.54-.14-.92-.56-1.21Z"/>
          <path class="cls-19" d="M6.27,9.08q-.22,1.55-2.07,1.9c-.44.62.66.83.36,1.47-.86.09-1.13-.47-1.29-1.16-.16-.75-.6-.63-1.08-.34-.19-.77.49-1.28.29-2.3,1.24,1.33,1.64,1.44,2.42.91.84-.58.14-1.01-.22-1.6.55.01,1.05-.02,1.51-.24.04.05.09.1.13.14,0,.13,0,.26.02.39h0c.08.29-.15.55-.07.83Z"/>
          <path class="cls-3" d="M2.71,32.87c-.07.11-.14.21-.2.32-1.22-.84-1.27-2.31-1.76-3.51-.25-.6-.65-1.29-.59-2.04.35.06.65.58,1.05-.04.76-1.17.79-1.14,1.43.19.94.64.66,1.34-.03,1.89-.42.34-.5.59-.25,1.02.15.64.31,1.27.4,1.93-.02.08-.04.16-.05.24Z"/>
          <path class="cls-19" d="M10.82,2.82c.11,1.49-.36,2.76-1.41,3.82h0c-.92.51-2.13.39-2.86,1.31h-.01c-.14.04-.23,0-.29-.14,0,0-.04-.1-.04-.1q.37-1.71,1.95-1.88c.61-.07.97-.26.93-1.01-.07-1.54.05-1.63,1.74-2.01Z"/>
          <path class="cls-14" d="M40.47,35.76c-.75.45-1.65.06-2.67.8.88-1.36,1.28-2.52,2.32-3.2.18-.02.36-.04.54-.06-.06.82-.13,1.65-.19,2.47Z"/>
          <path class="cls-19" d="M13.6,2.3c-.59-.25-.18-.87-.49-1.32-.92.44-.81,2.2-2.29,1.84.78-.61.83-1.7,1.58-2.38.29-.26.47-.53.86-.41.38.12.61.43.58.83-.04.48-.15.96-.23,1.43Z"/>
          <path class="cls-13" d="M21.23,22c-1.44-.57-2.38-1.74-3.39-2.83,1.1-.46,1.87-.05,2.39.93.34.63.87,1.15.99,1.9Z"/>
          <path class="cls-13" d="M17.84,19.18c-.44.31-.77-.05-1.14-.19.19-.93-.58-1.49-.85-2.24.58.24,1.07.57,1.22,1.24.11.5.37.89.77,1.2Z"/>
          <path class="cls-5" d="M13.71,8.71c-.98-.72-.45-1.43,0-2.14,0,.71,0,1.43,0,2.14Z"/>
          <path class="cls-14" d="M42.06,36.52c-.49-.25-.98-.51-1.47-.76.78-.32,1.22.04,1.47.76Z"/>
          <path class="cls-10" d="M25.06,44.16l-.65-.41c.27-.65.65-.32,1.01-.1.11.14.16.29.13.47-.16.01-.33.03-.49.04Z"/>
          <path class="cls-10" d="M26.34,44.03c-.25.18-.52.18-.8.09,0-.06-.02-.13-.03-.19.19-.38.45-.31.73-.11.03.07.06.14.09.21Z"/>
          <path class="cls-5" d="M14.28,10.72c-.2-.26-.15-.53,0-.79.22.27.16.53,0,.79Z"/>
          <path class="cls-13" d="M15.85,16.74c-.28-.14-.47-.34-.45-.68.26.16.44.36.45.68Z"/>
          <path class="cls-5" d="M14.12,9.4c-.25-.16-.42-.36-.4-.68.26.15.46.34.4.68Z"/>
          <path class="cls-10" d="M26.86,43.96c-.17.02-.35.05-.52.07v-.1c.13-.14.29-.18.47-.11l.04.14Z"/>
          <path class="cls-5" d="M14.34,11.22c-.13-.15-.16-.32-.06-.5.12.16.14.32.06.5Z"/>
          <path class="cls-5" d="M14.28,9.88c-.05-.15-.1-.3-.14-.45.16.11.22.26.14.45Z"/>
          <path class="cls-16" d="M2.12,30.88c-.2-.31-.4-.61-.69-1.07.39-.2.97-.13,1.27-.63.31-.53,0-.94-.06-1.4.42-.58.75-.28.91.17.49,1.4,1.58,1.72,2.88,1.73.31-.51-.17-.6-.41-.83-.72-.72-.79-1.49-.19-2.16.23-.25.87-.52.57-.76-.68-.56.23-1.26-.34-1.77-.36-.32-.68-.74-.71-1.24-.04-.59.35-.51.73-.35.19.36.79.34.81.85-.01.37,0,.75.37.95.26.14.65.17.66.54.01,1.43.98,1.93,2.13,2.29.15.05.24.26.36.39h0c-.11.19-.68.29-.16.62.25.16.91.01.55.59-.21.35-.7.49-1.13.22-.13-.09-.19-.3-.27-.47-.18-.36-.46-.67-.84-.4-.31.22-.32.86-.11.99.91.56.86,1.61,1.37,2.36.68.8,1.04,1.79,1.53,2.69.24.43.11.87-.25,1.15-.53.42-.87.04-1.16-.39-.21-.12-.42-.25-.63-.37-.7-.93-1.59-1.7-2.31-2.6h0c-.27-.5-.73-.64-1.25-.65.26.52-.38.96.24,1.75.78,1,1.81,1.98,2.32,3.03.83,1.7,2.27,2.76,3.29,4.21.15.21.18.44-.04.65-1.3-.4-2.35-1.12-3.05-2.32-.09-.15-.19-.35-.33-.42-1.51-.76-2.14-2.18-2.86-3.59-.51-.99-1.6-1.39-2.62-1.78h0c-.14-.68.41-1.56-.58-1.99Z"/>
          <path class="cls-9" d="M11.57,40.98c-.98-.84-1.51-2.11-2.64-2.81-.34-.21-.3-.25-.42-1.33-.02-.21-.21-.49-.4-.56-1.21-.5-1.88-1.4-2.08-2.66-.09-.61-.46-.36-.8-.34-.53.04-.8-.27-.81-.76-.01-.44.31-.37.63-.4.82-.07.33-.6.23-.9-.14-.39-.25-.69.21-.9.56-.25.57.22.69.54.17.45.84.55.84,1.13-.21-.08-.57-.24-.56.1.04.97.09,2.06,1.03,2.59,1.18.66,1.94,1.62,2.57,2.75.13.24.47.37.71.55h0c.06.96.84,1.07,1.53,1.21,1.19.25,2.51.16,3.21,1.5.11.21.55.42.78.36,1.04-.23,1.35.53,1.78,1.17-.41.32-.94.56-.75,1.24-.61-.01-1.2-.03-1.43-.78-.2-.64-.6-.4-.98-.17h.01c-.56-.39-1.21-.54-1.87-.67-.59-.11-1.22-.2-1.49-.87Z"/>
          <path class="cls-9" d="M9.96,34.97c.31.09.6.56.94.13.22-.27.31-.52.01-.94-.55-.78-1.14-1.6-1.08-2.66,1.24-.33,2.34.39,3.53.49.08.45-.41.54-.53.86-.31,1.42.84,3.25,2.49,3.89.78.3,1.66.37,2.28,1,.2.1.15.55.55.39.21-.05.39-.04.48.19-.48,1.3-1.19,1.65-2.43,1.07-.98-.46-1.91-1.02-2.95-1.34-.14-.04-.3-.22-.33-.36-.25-1.29-.25-1.34-1.26-1.62-.7-.2-1.46-.25-1.71-1.12Z"/>
          <path class="cls-15" d="M6.89,23.43c-.35-.21-.75-.37-.81-.85.48-.09.32-.41.25-.7-.11-.52-.91-1.34.51-1.2.04,0,.1-.06.12-.11q.84-1.31,2.04-.34c-.03-1.12-1.82-1.7-.55-2.98.46.21.27,1.19,1.02,1.38.54-.9-.61-1.5-.45-2.37.43-.23,1.42,1.2,1.35-.41.57.21,1.24-.04,1.73.19.36.17,1.02.16,1.11.78-.49.25-.99.4-1.55.32-1.18-.17-1.69.15-1.39,1.18.39,1.33-.81,2.02-.91,3.11-1.17.27-.55,1.15-.6,1.79-.54.81-1.28-.13-1.87.21h0Z"/>
          <path class="cls-9" d="M26.82,43.82c-.16.04-.32.07-.49.11-.27,0-.54,0-.81,0-.36-.12-.69-.43-1.11-.18h-.04c-.26.09-.51-.15-.78-.03h-.03c-.08,0-.15,0-.23,0-.06-.04-.13-.09-.19-.13-.17-.16-.3-.35-.38-.57-.04-.15-.03-.29.03-.43.09-.12.21-.17.36-.16.23-.01.39.41.66.11.52-.31,1-.73,1.66-.29,1.39.94,2.74.55,4.1-.13.71-.35,1.68-.36,1.51-1.6-.06-.46.42-.7.89-.73,1.4-.08,2.76,0,3.79,1.15-.29.26-.62.37-1,.27-.75-.2-1.23-.11-1.83.62-.44.54-1.35.96-2.31,1-1.31.05-2.61.35-3.79.98Z"/>
          <path class="cls-12" d="M17.83,38.29c-1.12-.97-2.7-.89-3.9-1.72-.36-.25-.67-.34-.73-.85-.09-.82-.78-1.36-1.15-2.05-.16-.3-.5-.63-.07-.93.26-.18.59-.04.86.12.13.47.65.55.91.99.64,1.07,1.54,1.91,2.9,2.23,1.33.31,2.47,1.22,3.87,1.45.27.04.46.35.42.77-.75.21-1.53-.04-2.3.03-.17.04-.34.08-.51.11-.14.03-.24-.02-.3-.15Z"/>
          <path class="cls-9" d="M21.57,44.19c-.11-.04-.22-.08-.33-.13-.26.06-.33-.13-.39-.31-.04-.37-.36-.24-.58-.31-.56-.23-1.22-.29-1.57-.88.19-.38.37-.75.61-1.23,1.1.74,2.09.41,2.88-.48.72.26.65.94.99,1.34.06.13.06.22-.02.27-.08.05-.13.06-.17.04h0c-.22.06-.45.1-.67.11.24.38.77.43.93.88v.03c.03.1.02.18-.04.24-.06.06-.1.08-.12.07h-.03c-.16.04-.32.08-.48.12h-.03c-.34,0-.67.11-.99.22Z"/>
          <path class="cls-10" d="M18.69,42.56c.81-.02,1.45.43,2.11.81.16-.04.26.02.31.17.04.17.09.34.13.52-.28.17-.55.09-.81-.05-.28.09-.52-.16-.8-.07-.11-.06-.23-.12-.34-.19-.06-.18-.17-.22-.34-.14-.56.19-1.11.12-1.63-.15.05-.56-.69-.6-.75-1.1.46-.51,1.03.18,1.5-.14l.62.34Z"/>
          <path class="cls-9" d="M7.01,31.99c1.07.61,2.29,1.07,2.31,2.6-1.15-.44-1.87-1.24-2.31-2.6Z"/>
          <path class="cls-16" d="M6.89,23.43c.22-.31.49-.49.88-.32.32.15.64.29.99.1.1.33.05.6-.36.62-.55.04-1.06-.09-1.51-.41Z"/>
          <path class="cls-16" d="M10.42,27.6c.63-.27.99.15,1.58.67-.76-.09-1.14-.45-1.58-.68h0Z"/>
          <path class="cls-11" d="M14.48,18.46c.1.05.18.12.25.2-.08.09-.14.21-.23.27-.29.19-.68.18-.71-.17-.03-.38.41-.28.69-.3Z"/>
          <path class="cls-11" d="M11.3,25c-.03-.12-.12-.3-.08-.43.06-.2.26-.15.4-.05.15.1.24.26.15.43-.09.18-.26.18-.47.05Z"/>
          <path class="cls-10" d="M22.98,42.52c.06-.11.12-.21.19-.32.21.12.42.23.63.35-.3.69-.54-.07-.82-.03Z"/>
          <path class="cls-11" d="M24.62,34.56c.11.12.23.23.34.35-.4.15-.29-.17-.33-.35h0Z"/>
          <path class="cls-9" d="M10.76,37.98c.15-.1.46-.13.44-.05-.07.44-.29.02-.45.04h0Z"/>
          <path class="cls-11" d="M24.63,34.56c-.04-.17-.09-.34-.13-.5h-.01c.04.17.09.34.13.51h0Z"/>
          <path class="cls-4" d="M6.54,7.95c.2-.49.39-.98.63-1.56.72.22,1.47.37,2.24.24-.1.29-.21.58.06.84.42.4.38.7-.18.94-.63.27-1.09,1-.71,1.41.81.85.02,1.61.17,2.39.06.35,0,.61-.37.68-.38.07-.57-.22-.64-.5-.1-.4-.08-.83-.11-1.25.26-.8.22-1.62.11-2.44-.15,0-.24-.07-.25-.22-.04-.68-.58-.44-.95-.53Z"/>
          <path class="cls-6" d="M7.49,8.48c.09.07.17.14.25.22-.03.05-.05.11-.08.16-.16.23-.24.59-.64.43-.08-.03-.15-.19-.14-.28.04-.35.29-.49.61-.53Z"/>
          <path class="cls-4" d="M6.27,9.08c-.17-.29-.09-.56.07-.82.18.29.09.56-.07.82Z"/>
          <path class="cls-4" d="M6.24,7.82c.1.04.2.08.29.14-.06.1-.12.2-.18.3-.04-.15-.07-.29-.11-.44Z"/>
          <path class="cls-10" d="M21.57,44.19c.26-.37.59-.46.99-.22-.3.22-.62.32-.99.22Z"/>
          <path class="cls-10" d="M23.59,43.72c.27-.19.53-.12.78.03-.27.18-.52.1-.78-.03Z"/>
          <path class="cls-9" d="M19.63,43.94c.28-.18.54-.08.8.07-.28.18-.54.09-.8-.07Z"/>
          <path class="cls-9" d="M14.92,42.51c.12.12.24.24.36.36-.41.16-.33-.15-.35-.36h-.01Z"/>
          <path class="cls-10" d="M22.58,43.97c.16-.04.32-.08.48-.12-.16.04-.32.08-.48.12Z"/>
          <path class="cls-9" d="M18.95,43.61c.2-.17.34-.17.34.14-.11-.05-.22-.1-.34-.14Z"/>
          <path class="cls-10" d="M23.09,43.84c.05-.11.1-.21.17-.31l.15.09.15.1c-.16.04-.31.08-.47.12Z"/>
          <path class="cls-18" d="M2.12,30.88c1.28-.2,1.51,0,1.11,1.03-.13.34-.35.64-.53.95-.51-.57-.69-1.23-.58-1.98Z"/>
          <path class="cls-8" d="M10.77,32.57c.11-.02.24-.1.32-.06.12.05.1.19-.03.28-.04.03-.12.04-.17.03-.15-.03-.19-.13-.13-.25Z"/>
          <path class="cls-8" d="M17.83,38.29c.11.04.21.09.3.15-.18.1-.3.09-.3-.15Z"/>
          <path class="cls-8" d="M23.25,43.51c-.48-.28-.95-.53-1.52-.61-.34-.04-.6-.39-.37-.65.21-.24.54.11.82.22.3-.05.52.05.62.35.25.17.47.35.45.69Z"/>
          <path class="cls-10" d="M22.79,42.82c-.21-.12-.41-.23-.62-.35.28-.18.55-.09.81.05-.06.1-.13.2-.19.3Z"/>
          <path class="cls-8" d="M21.11,43.54c-.11-.05-.21-.11-.31-.17.21-.13.31-.07.31.17Z"/>
        </g>
      </g>
    </g>
  </g>
</svg>