<?xml version="1.0" encoding="UTF-8"?>
<svg xmlns="http://www.w3.org/2000/svg" viewBox="0 0 16.9 17.5">
  <defs>
    <style>
      .cls-1 {
        mix-blend-mode: multiply;
      }

      .cls-2 {
        isolation: isolate;
      }

      .cls-3 {
        fill: #f4d591;
      }

      .cls-3, .cls-4, .cls-5, .cls-6, .cls-7, .cls-8, .cls-9, .cls-10, .cls-11, .cls-12, .cls-13, .cls-14, .cls-15, .cls-16, .cls-17, .cls-18, .cls-19 {
        stroke-width: 0px;
      }

      .cls-4 {
        fill: #f2e38f;
      }

      .cls-5 {
        fill: #f2e18b;
      }

      .cls-6 {
        fill: #f7d34b;
      }

      .cls-7 {
        fill: #de9a34;
      }

      .cls-8 {
        fill: #cb7f2d;
      }

      .cls-9 {
        fill: #dc932e;
      }

      .cls-10 {
        fill: #e39b43;
      }

      .cls-11 {
        fill: #a76132;
      }

      .cls-12 {
        fill: #f5c140;
      }

      .cls-13 {
        fill: #eec277;
      }

      .cls-14 {
        fill: #efbb5d;
      }

      .cls-15 {
        fill: #ecb357;
      }

      .cls-16 {
        fill: #eca536;
      }

      .cls-17 {
        fill: #f5e17a;
      }

      .cls-18 {
        fill: #eab25e;
      }

      .cls-19 {
        fill: #f5ebbe;
      }
    </style>
  </defs>
  <g class="cls-2">
    <g id="Layer_2" data-name="Layer 2">
      <g id="graphic_top">
        <g class="cls-1">
          <path class="cls-11" d="M9.18,8.7c.2-.62.29-1.25.28-1.9-.02-.89-.07-1.76-.41-2.61-.25-.61-.21-1.31-.5-1.92-.04-.08-.02-.22-.07-.26-.68-.47-.27-1.09-.21-1.64.04-.33.27-.45.55-.32.4.2.87.28,1.21.61.3.29.7.43,1.11.44.49,0,.84.16,1.04.62.06.12.16.22.25.33.02.1.1.17.1.27,0,.09-.04.2,0,.27.29.56.7,1.09.36,1.77.36.33-.16.57-.08.92.37-.25.69-.29.82.23.04.17.02.39-.14.42-.62.1-.46.65-.68,1.03.33-.17.22-.47.32-.69.08-.16.19-.27.37-.26.24.01.2.21.21.37,0,.21-.02.42,0,.62.07.44-.02.78-.54.86-.08.01-.14.11-.17.21,0,.06,0,.12,0,.19-.04.72-.71,1.11-.89,1.71.1-.1.14-.3.29-.41.19-.13.31-.09.31.14,0,.33.07.65.07.97,0,.31-.17.59-.46.73-.29.14-.48-.01-.65-.31-.17.6-.74.82-1.08,1.25-.21.26-.16.72-.59.79-.41.07-.46-.42-.77-.51-.24-.07-.55-.07-.38-.47,0,0-.05.03-.06.05-.14.19-.43-.04-.58.24-.09.17-.34.06-.46-.11-.25-.34-.38-.69-.15-1.1.3-.71.82-1.27,1.23-1.91.13-.21.37-.35.34-.64Z"/>
          <path class="cls-8" d="M7.7,11.38c-.21.37.04.65.2.93.12.2.27.12.38-.04.04-.05.04-.13.05-.2.02-.14-.11-.4.14-.37.34.04.07.32.11.5.18-.04.27-.26.47-.26.06.18-.14.29-.11.47.16.11.34,0,.52.04.12.03.25.05.21.2-.1.34.19.37.34.37.1,0,.28-.29.25-.4-.04-.16-.11-.22.1-.26.16-.03.34-.1.33-.29-.02-.28.15-.35.36-.41.18-.05.33-.1.37-.34.05-.31.2-.32.46-.1.15.14.37.25.52,0,.14-.24.34-.43.19-.79-.09-.21-.14-.53,0-.8-.29.24-.42.6-.83.87.14-.47.29-.81.52-1.11.2-.28.4-.56.57-.86.05-.08-.01-.22-.02-.33.04,0,.07-.02.11-.03,0,0,.05-.02.05-.02,0,0-.05.03-.05.03-.04,0-.08.01-.11.03-.12-.38.31-.61.41-.58.48.18.35-.26.33-.35-.09-.37-.04-.73.03-1.11-.27-.03-.4.12-.36.31.12.52-.29.65-.63,1.01-.01-.57.22-.94.27-1.35.01-.09.08-.19.22-.23.46-.12.46-.13.25-.53-.02-.04-.04-.08-.06-.13-.24.09-.34.36-.6.41-.42-.46.17-.73.23-1.11-.13.02-.24.04-.4.06.04-.3.28-.49.33-.74.04-.18.26-.43-.18-.5-.21-.04-.22-.37-.34-.56-.12-.19.06-.34.13-.51.42-.02.55.43.9.46-.07-.16-.08-.38.01-.61v-.04c-.01-.24.13-.4.28-.56.16-.08.22.04.29.14.34.32.7.58.78,1.13.06.41.52.7.72,1.1-.08.31-.25.6-.29.92-.04.26-.03.49.23.67.78.53,1.06,1.27.8,2.17-.07.26-.06.5-.04.75,0,.1-.04.19-.1.28-.32.36-.26,1.21.11,1.66,0,.1-.02.19-.07.28-.36.71-.96,1.29-1.05,2.14-.03.31-.1.65-.53.68-.04-.03-.07-.06-.08-.11,0-.04.01-.05.06-.05-.15.06.02.16-.04.24-.43.53-.94.98-1.42,1.45-.23.22-.66.45-.98-.02.02-.06.05-.12.09-.17.35-.27.75-.49.94-.93.04-.09.09-.17.15-.25.21-.2.27-.47.36-.73.09-.24.18-.51.43-.59.63-.2.59-.8.77-1.26.11-.29-.19-.43-.35-.61-.14-.29-.12-.58-.02-.77-.45,1.05-.56,2.43-1.9,3.04-.08.04-.19-.14-.26.06-.13.35-.08.73-.19,1.09-.25.29-.61.4-.92.58-.23.14-.71.04-.52-.3.19-.34-.18-.35-.13-.54-.03-.11.04-.19.11-.33-.08.13-.13.22-.11.33-.01.94-.81,1.11-1.44,1.46-.06-.01-.11-.05-.15-.1-.08-.16.13-.43-.19-.51-.23,0-.42-.03-.63-.21-.25-.21-.59-.33-.94-.36-.83-.08-.84-.09-.81-.9,0-.14-.02-.28.02-.41.1-.25.27-.42.53-.5.22.09.14-.07.14-.17.02-.13.07-.25.15-.35.16-.15.32-.31.55-.11Z"/>
          <path class="cls-6" d="M6.98,12.07c-.25.11-.41.32-.61.49-.06.22-.14.45-.13.68.01.29.06.62.49.6.15,0,.35-.11.43.09.1.24-.15.29-.26.42.23,0,.3-.27.49-.32.16-.04.42-.02.36.18-.25.8.35.72.79.81.07.01.12.06.16.12.16.17.29.03.43-.05.25-.14.58-.22.79-.12.42.21.76.34,1.17-.04.17-.16.34.04.34.26,0,.36-.11.68-.39.92-.15.13-.39.18-.42.42-.07.15-.13.28.03.42.22.2.09.36-.09.49-.07.02-.15.08-.19.06-.71-.41-1.45-.12-2.18-.12-.92-.16-1.83-.4-2.74-.58-.45-.09-.44-.29-.18-.55.39-.4.83-.75,1.45-.71-.76-.12-1.54.03-2.29-.21-.36-.12-.62-.26-.26-.66.12-.07.26-.08.4-.18-.7.09-1.35-.07-1.98-.3-.05-.05-.08-.1-.09-.17,0-.18.11-.35.07-.58-.19-.11-.57.2-.67-.19-.12-.47.29-.6.58-.8h0c.27.08.54.2.81,0h0c.1-.02.14-.15.25-.16h.01c.05-.04.11-.06.17-.06h.02c.1-.05.2.05.3,0h0c.06,0,.13-.02.19-.03.57-.3,1.19-.41,1.83-.43.11-.03.15-.15.25-.18h0c.24-.22.44-.52.84-.41.21.12.07.3.09.45-.06.12-.13.25-.19.37.01.06-.01.09-.07.1Z"/>
          <path class="cls-17" d="M4.26,14.71c-.21.33-.2.38.1.43.87.13,1.74.2,2.62.16.11,0,.23-.05.33.1-.18.26-.49.34-.72.3-.65-.1-.87.52-1.33.71-.12.05-.07.23.07.25.38.07.75.26,1.13.29.61.05,1.16.24,1.73.42-.2.12-.41.05-.61,0-.96-.3-1.97-.38-2.94-.6-.13-.03-.27,0-.41.02-.17-.04-.22-.18-.16-.32.16-.4-.04-.81-.53-1.05-.12-.04-.24-.07-.36-.11-.03-.01-.06-.03-.08-.04-.02-.02-.04-.05-.06-.07-.01-.03-.03-.05-.04-.08-.04-.19-.01-.36.23-.39.19.1.07-.15.17-.16.3.04.65-.21.89.16Z"/>
          <path class="cls-18" d="M16.65,7.9c.23.73.31,1.44.2,2.23-.18,1.29-.68,2.44-1.38,3.49-.66.99-1.41,1.94-2.47,2.57-.14.08-.24.21-.36.32-.08-.01-.13-.06-.15-.13-.05-.63.37-.94.83-1.22.87-.54,1.57-1.24,2.06-2.13.33-.34.23-.88.57-1.22.04-.02.08-.04.12-.05.08-.02.13-.08.2-.11-.08.03-.14.1-.23.11-.19-.14-.18-.31-.02-.46.14-.13.25-.26.28-.46.05-.19.08-.39.09-.59,0-.06.01-.11.03-.16.01-.05.03-.1.05-.15.04-.09.07-.19.08-.29,0-.1.01-.19.02-.29,0-.05,0-.1,0-.14,0-.07,0-.14-.02-.21-.01-.04-.02-.09-.03-.14-.01-.04-.02-.09-.03-.13,0,0-.02-.07-.02-.07-.01-.04-.02-.09-.03-.14,0-.05,0-.09,0-.14,0-.07,0-.14.01-.22,0-.05.02-.1.04-.14.04-.07.09-.12.18-.12Z"/>
          <path class="cls-10" d="M15.36,3.87c-.17-.08-.21-.31-.42-.33-.09,0-.23-.06-.19-.15.16-.35-.32-.5-.22-.83.03-.12-.1-.22-.21-.31-.17-.16-.27-.4-.39-.6.11.03.22.05.34.03.35-.05.57.11.68.44.3.97.83,1.84,1.28,2.74.36.72.5,1.53.34,2.35-.03,0-.06.01-.09.02-.3-.11-.23-.42-.31-.63-.23-.61-.27-1.29-.76-1.8-.24-.25-.06-.62-.03-.93Z"/>
          <path class="cls-5" d="M2.48,12.43c-.04.13.07.4-.19.35-.3-.06-.14.21-.24.29-.12.09-.06.2.06.26.1.05.18,0,.21-.1.04-.16.15-.23.3-.18.15.05.16.21.18.34.04.27-.14.47-.26.68-.49-.15-1.01-.23-1.46-.51h0c-.06-.17-.15-.34-.31-.42-.21-.11-.54-.16-.47-.47.07-.31.41.05.57-.16.54-.03,1.07-.05,1.61-.08Z"/>
          <path class="cls-7" d="M7.25,11.6c-.03-.13-.05-.25-.08-.38-.11-.16.13-.27.07-.43h0c.11-.62.69-.87,1.05-1.3.38-.17.73-.38.9-.79.08.17,0,.31-.08.45-.33.52-.55,1.1-.99,1.55-.18.19-.27.46-.41.69-.2-.04-.35.06-.46.22Z"/>
          <path class="cls-19" d="M3.48,15.24q.59.07.73.77c.24.16.31-.26.56-.15.04.33-.17.43-.43.49-.28.07-.23.23-.12.41-.29.08-.49-.18-.87-.09.49-.48.53-.63.33-.92-.22-.31-.38-.05-.6.09,0-.21-.02-.4-.1-.57.02-.02.04-.03.05-.05.05,0,.1,0,.15,0h0c.11-.03.21.05.31.02Z"/>
          <path class="cls-3" d="M12.52,16.43s.08.05.12.07c-.31.47-.87.5-1.32.69-.23.1-.49.25-.77.24.02-.13.21-.25-.02-.4-.45-.28-.44-.29.06-.54.24-.36.5-.26.72,0,.13.16.23.18.39.09.24-.06.48-.13.73-.16.03,0,.06.01.09.02Z"/>
          <path class="cls-19" d="M1.08,13.56c.56-.05,1.05.12,1.46.51h0c.2.35.16.81.52,1.08h0c.01.06,0,.09-.05.12,0,0-.04.02-.04.02q-.65-.13-.72-.73c-.03-.23-.11-.36-.39-.35-.58.04-.62,0-.77-.65Z"/>
          <path class="cls-14" d="M13.36,2.11c.17.28.03.62.32,1-.52-.33-.96-.47-1.23-.86,0-.07-.02-.14-.03-.2.31.02.62.04.94.06Z"/>
          <path class="cls-19" d="M.87,12.51c-.09.22-.33.07-.5.2.17.34.84.29.71.86-.24-.29-.65-.3-.91-.58-.1-.11-.2-.17-.16-.32.04-.15.16-.23.31-.23.18.01.36.05.54.08Z"/>
          <path class="cls-13" d="M8.28,9.49c-.21.55-.64.91-1.05,1.3-.18-.41-.03-.71.34-.91.24-.13.43-.34.71-.39Z"/>
          <path class="cls-13" d="M7.23,10.79c.12.17-.01.29-.07.43-.35-.07-.56.23-.84.34.09-.22.21-.41.46-.47.19-.05.33-.14.45-.3Z"/>
          <path class="cls-5" d="M3.29,12.43c-.27.38-.54.18-.81.01.27,0,.54,0,.81-.01Z"/>
          <path class="cls-14" d="M13.64,1.51c-.09.19-.18.37-.28.56-.12-.29,0-.46.28-.56Z"/>
          <path class="cls-10" d="M16.65,7.9c-.05.08-.1.16-.15.25-.25-.1-.12-.24-.04-.38.05-.04.11-.06.18-.05,0,.06.01.12.02.19Z"/>
          <path class="cls-10" d="M16.59,7.41c.07.09.07.19.04.3-.02,0-.05,0-.07.01-.15-.07-.12-.17-.05-.28.03-.01.05-.02.08-.04Z"/>
          <path class="cls-5" d="M4.05,12.19c-.1.08-.2.06-.3,0,.1-.09.2-.06.3,0Z"/>
          <path class="cls-13" d="M6.32,11.56c-.05.11-.13.18-.25.18.06-.1.13-.17.25-.18Z"/>
          <path class="cls-5" d="M3.55,12.27c-.06.09-.13.16-.25.16.05-.1.12-.18.25-.16Z"/>
          <path class="cls-10" d="M16.56,7.21c0,.07.02.13.03.2h-.04c-.05-.05-.07-.11-.04-.18l.05-.02Z"/>
          <path class="cls-5" d="M4.24,12.17c-.06.05-.12.06-.19.03.06-.05.12-.06.19-.03Z"/>
          <path class="cls-5" d="M3.73,12.2c-.06.02-.11.04-.17.06.04-.06.1-.08.17-.06Z"/>
          <path class="cls-16" d="M11.77,16.67c-.11.08-.23.15-.4.27-.08-.15-.06-.37-.25-.48-.2-.12-.35,0-.53.03-.22-.15-.11-.28.06-.34.53-.2.64-.61.63-1.1-.19-.11-.23.07-.31.16-.27.28-.56.31-.82.09-.1-.08-.2-.33-.29-.21-.21.26-.48-.08-.67.14-.12.14-.28.26-.47.28-.22.02-.19-.13-.14-.27.14-.07.12-.3.32-.31.14,0,.28,0,.36-.15.05-.1.06-.25.2-.25.54-.01.73-.38.85-.82.02-.06.1-.09.15-.14h0c.08.04.12.26.24.06.06-.1,0-.34.22-.21.13.08.19.26.09.43-.03.05-.11.07-.17.11-.13.07-.25.18-.14.32.09.12.33.12.38.03.2-.35.6-.34.88-.53.3-.26.67-.4,1.01-.6.16-.09.33-.05.44.09.16.2.02.33-.14.44-.05.08-.09.16-.14.24-.35.27-.63.61-.97.89h0c-.19.11-.24.28-.24.48.2-.1.37.14.66-.1.37-.3.74-.7,1.13-.9.64-.33,1.03-.88,1.57-1.27.08-.06.17-.07.25,0-.14.49-.41.9-.86,1.17-.06.03-.13.07-.16.13-.28.58-.81.82-1.34,1.11-.37.2-.52.62-.66,1,0,0,0,0,0,0-.26.06-.59-.15-.75.23Z"/>
          <path class="cls-9" d="M15.53,13.02c-.31.38-.79.58-1.05,1.02-.08.13-.09.11-.5.17-.08.01-.18.08-.21.15-.18.46-.52.72-1,.8-.23.04-.13.18-.12.31.02.2-.1.3-.28.31-.17,0-.14-.11-.15-.24-.03-.31-.23-.12-.34-.08-.14.05-.26.1-.34-.07-.1-.21.08-.22.2-.27.17-.07.2-.32.42-.32-.03.08-.09.22.04.21.37-.02.78-.05.97-.41.24-.45.6-.74,1.03-.99.09-.05.14-.18.2-.27h0c.37-.03.4-.33.45-.59.09-.45.04-.95.55-1.23.08-.04.15-.21.13-.3-.09-.39.19-.52.43-.68.12.15.22.35.47.27,0,.23,0,.45-.28.55-.24.08-.15.23-.06.37h0c-.14.21-.2.46-.24.71-.04.22-.07.46-.32.57Z"/>
          <path class="cls-9" d="M13.26,13.68c.03-.12.21-.23.04-.36-.1-.08-.2-.11-.36,0-.29.21-.6.44-1,.42-.13-.47.13-.89.16-1.34.17-.03.21.15.33.2.54.11,1.23-.34,1.46-.97.11-.3.13-.63.37-.87.04-.08.21-.06.15-.21-.02-.08-.02-.15.07-.18.49.17.63.44.42.91-.17.37-.38.73-.49,1.13-.01.05-.08.12-.13.13-.49.1-.5.1-.61.49-.07.27-.09.56-.41.66Z"/>
          <path class="cls-15" d="M8.91,14.91c-.08.13-.14.29-.32.31-.04-.18-.16-.12-.27-.09-.2.05-.5.35-.46-.19,0-.01-.02-.04-.04-.05q-.5-.31-.14-.77c-.42.02-.63.7-1.12.23.07-.17.45-.11.51-.4-.34-.2-.57.24-.89.19-.09-.16.44-.55-.17-.51.07-.22-.02-.47.06-.65.06-.14.05-.39.29-.43.1.18.16.37.13.58-.06.45.07.64.45.52.5-.16.77.29,1.18.33.11.44.44.2.68.22.31.2-.04.48.09.71h0Z"/>
          <path class="cls-9" d="M16.51,7.23c.01.06.03.12.04.18,0,.1,0,.2,0,.31-.04.14-.16.26-.06.42,0,0,0,.02,0,.02.03.1-.06.2,0,.29h0s0,.07,0,.1c-.02.02-.03.05-.05.07-.06.07-.13.11-.21.15-.06.02-.11.01-.16,0-.05-.03-.07-.08-.06-.14,0-.09.15-.15.04-.25-.12-.19-.28-.38-.12-.63.35-.53.19-1.04-.08-1.55-.14-.27-.15-.63-.62-.56-.17.03-.27-.15-.28-.33-.04-.53-.02-1.05.41-1.44.1.11.14.23.11.38-.07.29-.04.47.25.69.21.16.37.51.39.87.03.5.15.98.4,1.43Z"/>
          <path class="cls-12" d="M14.47,10.67c-.36.43-.32,1.03-.62,1.49-.09.14-.12.26-.32.28-.31.04-.51.3-.77.45-.11.06-.23.19-.35.03-.07-.1-.02-.22.04-.33.18-.05.2-.25.37-.35.4-.25.71-.6.82-1.11.11-.51.45-.94.52-1.47.02-.1.13-.18.29-.16.08.28,0,.58.03.87.02.06.03.13.05.19.01.05,0,.09-.06.11Z"/>
          <path class="cls-9" d="M16.68,9.22s-.03.08-.05.13c.02.1-.05.13-.12.15-.14.02-.09.14-.11.22-.08.22-.1.46-.32.6-.14-.07-.29-.14-.47-.22.27-.42.14-.79-.2-1.09.09-.27.35-.25.5-.38.05-.02.08-.02.1,0,.02.03.03.05.02.06h0c.02.08.04.17.05.25.14-.09.16-.29.33-.36h.01s.07,0,.09.01c.02.02.03.04.03.04h0c.01.07.03.13.05.19h0c0,.14.04.26.09.38Z"/>
          <path class="cls-10" d="M16.08,10.32c-.01-.31.15-.55.29-.8-.02-.06,0-.1.06-.12.06-.02.13-.03.19-.05.07.11.04.21-.01.31.04.1-.06.2-.02.3-.02.04-.05.09-.07.13-.07.02-.08.07-.05.13.07.21.05.42-.05.62-.21-.01-.22.27-.41.29-.19-.17.06-.39-.06-.57.04-.08.08-.16.13-.24Z"/>
          <path class="cls-9" d="M12.15,14.81c.22-.41.39-.87.97-.89-.16.44-.46.72-.97.89Z"/>
          <path class="cls-16" d="M8.91,14.91c-.12-.08-.19-.18-.13-.33.05-.12.11-.24.03-.38.13-.04.23-.02.24.13.02.21-.03.4-.14.58Z"/>
          <path class="cls-16" d="M10.47,13.55c-.11-.24.05-.38.24-.6-.03.29-.16.44-.25.6h0Z"/>
          <path class="cls-11" d="M6.98,12.07s.04-.07.07-.1c.03.03.08.05.1.09.07.11.07.26-.06.27-.14.01-.11-.15-.12-.26Z"/>
          <path class="cls-11" d="M9.48,13.23s-.11.05-.16.03c-.08-.02-.06-.1-.02-.15.04-.06.1-.09.16-.06.07.03.07.1.02.18Z"/>
          <path class="cls-10" d="M16.04,8.69s-.08-.05-.12-.07c.04-.08.08-.16.13-.24.26.11-.02.21,0,.31Z"/>
          <path class="cls-11" d="M13.01,8.12s.09-.09.13-.13c.06.15-.06.11-.13.13h0Z"/>
          <path class="cls-9" d="M14.4,13.35c-.04-.06-.05-.17-.02-.17.17.02,0,.11.02.17h0Z"/>
          <path class="cls-11" d="M13.01,8.12c-.06.02-.13.04-.19.05h0c.06-.01.13-.03.19-.05h0Z"/>
          <path class="cls-4" d="M3.05,15.15c-.19-.07-.37-.14-.59-.23.08-.28.13-.56.08-.85.11.04.22.08.32-.03.15-.16.26-.15.36.06.11.24.39.41.54.26.32-.31.61-.02.9-.08.13-.03.23,0,.26.13.03.14-.08.22-.18.25-.15.04-.31.03-.47.05-.31-.09-.62-.07-.93-.03,0,.06-.03.09-.08.1-.26.02-.16.22-.19.36Z"/>
          <path class="cls-6" d="M3.25,14.78s.05-.07.08-.1c.02,0,.04.02.06.03.09.06.22.09.17.24-.01.03-.07.06-.11.05-.13-.01-.19-.1-.2-.23Z"/>
          <path class="cls-4" d="M3.48,15.24c-.11.07-.21.04-.31-.02.11-.07.21-.04.31.02Z"/>
          <path class="cls-4" d="M3,15.26s.03-.08.05-.11c.04.02.08.04.11.07-.06.01-.11.03-.17.04Z"/>
          <path class="cls-10" d="M16.68,9.22c-.14-.1-.18-.22-.09-.37.08.11.12.23.09.37Z"/>
          <path class="cls-10" d="M16.49,8.45c-.08-.1-.05-.2,0-.3.07.1.04.2,0,.3Z"/>
          <path class="cls-9" d="M16.6,9.95c-.07-.11-.03-.21.02-.3.07.11.04.21-.02.3Z"/>
          <path class="cls-9" d="M16.09,11.75s.09-.09.13-.14c.06.15-.05.13-.13.14h0Z"/>
          <path class="cls-10" d="M16.59,8.84c-.02-.06-.03-.12-.05-.18.02.06.03.12.05.18Z"/>
          <path class="cls-9" d="M16.48,10.21c-.07-.08-.07-.13.05-.13-.02.04-.03.09-.05.13Z"/>
          <path class="cls-10" d="M16.54,8.64s-.08-.04-.12-.06l.03-.06.04-.06c.02.06.03.12.05.18Z"/>
          <path class="cls-18" d="M11.77,16.67c-.08-.48,0-.57.38-.43.13.05.24.13.36.19-.21.2-.46.27-.75.23Z"/>
          <path class="cls-8" d="M12.35,13.38s-.04-.09-.02-.12c.02-.05.07-.04.11,0,.01.02.02.05.01.07-.01.06-.05.07-.09.05Z"/>
          <path class="cls-8" d="M14.47,10.67s.03-.08.06-.11c.04.07.04.11-.06.11Z"/>
          <path class="cls-8" d="M16.41,8.59c-.1.18-.2.36-.22.58-.01.13-.14.23-.24.14-.09-.08.04-.21.08-.31-.02-.11.02-.2.13-.24.06-.09.13-.18.26-.18Z"/>
          <path class="cls-10" d="M16.15,8.76c-.04.08-.09.16-.13.24-.07-.11-.04-.21.01-.31.04.02.08.05.12.07Z"/>
          <path class="cls-8" d="M16.44,9.39s-.04.08-.06.12c-.05-.08-.03-.12.06-.12Z"/>
        </g>
      </g>
    </g>
  </g>
</svg>