<?xml version="1.0" encoding="UTF-8"?>
<svg xmlns="http://www.w3.org/2000/svg" viewBox="0 0 18.11 15.64">
  <defs>
    <style>
      .cls-1 {
        mix-blend-mode: multiply;
      }

      .cls-2 {
        isolation: isolate;
      }

      .cls-3 {
        fill: #f3df83;
      }

      .cls-3, .cls-4, .cls-5, .cls-6, .cls-7, .cls-8, .cls-9, .cls-10, .cls-11 {
        stroke-width: 0px;
      }

      .cls-4 {
        fill: #f2e7ae;
      }

      .cls-5 {
        fill: #f1e8a7;
      }

      .cls-6 {
        fill: #ea952c;
      }

      .cls-7 {
        fill: #ffc540;
      }

      .cls-8 {
        fill: #fcb330;
      }

      .cls-9 {
        fill: #f6d058;
      }

      .cls-10 {
        fill: #f6d161;
      }

      .cls-11 {
        fill: #f5eaba;
      }
    </style>
  </defs>
  <g class="cls-2">
    <g id="Layer_2" data-name="Layer 2">
      <g id="graphic_top">
        <g class="cls-1">
          <path class="cls-7" d="M11.79.57c.03-.14.14-.23.23-.33.35-.35.64-.31.93.11.05.07.05.18.2.21.25-.05.47-.44.83-.22.07.02.14.06.15.12.22.81.59,1.51,1.33,1.96.09.06.14.19.15.3.02.58.17.95.88,1.06.49.07.21.6.17.94h0c-.09.1-.09.24-.11.37h0c.1.02-.2.29.13.17.48-.17.62-.04.58.46-.02.19-.04.38-.18.51-.8.77-1.41,1.7-2.06,2.58-.58.79-1.44,1.25-1.98,2.04-.79.81-1.58,1.61-2.56,2.18-.11.07-.18.2-.27.3-.44.4-.99.62-1.49.93-.24.04-.52.2-.64-.15-.13-.4.23-.52.37-.63-.46.45-1.14.33-1.8.31-.15,0-.36-.01-.37-.22-.01-.15.14-.22.26-.29.17-.1.39-.11.51-.22-.49.13-1.03.22-1.55.39-.07.02-.17.06-.2.03-.34-.47-.6-.08-.91.06-.41.18-.73-.07-.72-.52.02-.61-.18-.75-.87-.61-.42,0-.68-.1-.67-.63,0-.29-.23-.57-.35-.85-.49-1.12-.5-1.23.38-2.02.76-.39,1.33-1.14,2.26-1.21.11-.03.28-.02.32-.09.49-.72,1.34-.94,2-1.42.17.18.01.3-.1.4-.3.25-.55.57-.89.76-.49.27-.73.62-.67,1.22.05.46-.19.83-.68,1-.21.07-.46.1-.58.33.08-.04,0,.04.02.02.46-.37.79-.24.92.29.1.39.21.64.69.67.69.04.31.46.19.76.2.19.48.2.58.06.55-.75,1.5-.83,2.18-1.34.05-.03.07-.06.07-.06-.35.21-.65.49-1.1.06-.37-.35-.4-.54.06-.77.55-.27,1.06-.6,1.67-.74-.38.12-.57.16-.61.07-.12-.26.06-.44.23-.59.21-.2.4-.32.76-.34.69-.04,1.2-.57,1.61-1.08.42-.53,1.03-.74,1.51-1.15.32-.27.74-.44,1.07-.73.24-.21.54-.23.84-.26.36-.04.74.1,1.08-.12.03-.04.06-.09.08-.14-.4-.16-.69-.6-1.21-.43-.07.02-.14-.09-.15-.19.34-.33.33-.57-.09-.87-.62-.44-1.13-.94-1.31-1.78-.06-.3-.71-.48-1.11-.67Z"/>
          <path class="cls-8" d="M15.76,4.63c-.08.39-.42.31-.66.31-.12,0-.25,0-.36,0-.52-.06-.9.08-1.27.47-.17.17-.41.47-.78.42-.12-.02-.23.14-.29.27-.12.24-.27.43-.59.36-.07-.01-.22.05-.23.11-.13.47-.61.6-.88.94-.19.25-.35.53-.76.47-.26-.04-.27.36-.52.39-.11-.08-.02-.24-.19-.32-.18.29-.53.43-.73.84.4-.06.71-.38,1.17-.11-.49.13-.87.27-.95.72-.17,0-.18-.1-.22-.18-.07-.19-.26-.2-.29-.05-.08.39-.34.44-.65.47-.09,0-.18.04-.25.09-.1.07-.16.18-.11.3.08.18.17.02.27,0,.29-.08.3-.05.21.36.41,0,.71-.26,1.06-.4-.41.54-.9.99-1.61,1.08-.34.04-.45.31-.57.54-.08.16-.12.3-.32.26-.26-.06-.55.15-.79-.09-.19-.19-.16-.34.11-.49.08-.05.16-.08.19-.22-.23-.33-.63,0-.93-.21-.14-.1-.26-.06-.17-.26.05-.11.02-.21-.02-.33-.17-.59-.28-.62-.75-.21-.07.06-.14.11-.22.16-.06.04-.13.02-.19-.03-.08-.07-.1-.18-.04-.24.2-.21.39-.42.69-.53.71-.26.89-.55.79-1.28-.05-.37.05-.58.33-.72.52-.27.86-.76,1.35-1.06.08-.05.11-.14.12-.23.57-.75,1.12-1.52,1.71-2.25.65-.79,1.34-1.55,2.11-2.22.36-.31.59-.76,1.05-.96.11.59-.35,1-.52,1.49-.12.35-.4.62-.34,1.07.06.43-.39.39-.7.42-.08,0,.04.12.05.03,0-.01.02,0,.07,0,.07.01.13.03.19.07.05.04.09.09.12.15.07.11.15.29.25.04.1-.26.24-.46.54-.42.21.02.47.09.31.38-.18.33-.03.5.22.68.32.23.4.48.11.65.51-.8,1.51-1.02,2.42-1.39.27.15.48.06.65-.16.07-.09.14-.2.27-.12.15.1.08.23,0,.35-.04.05-.07.12.04.21.06.04.17,0,.28,0,.13,0,.28-.14.37.02.09.17-.03.3-.16.4-.04,0-.07-.01-.11-.02.04.01.07.02.11.03Z"/>
          <path class="cls-6" d="M14.32,3.92c-.22.03-.16.63-.58.29-.01,0-.06.32-.34.33-.67.04-1.1.49-1.48.99-.07.09-.14.18-.26.21-.09.02-.2,0-.25-.07-.06-.08-.02-.17.06-.24.15-.14.37-.19.48-.38-.03-.15-.15-.24-.26-.31-.58-.4-.59-.4-.17-.96-.29-.08-.53-.2-.62.24-.05.26-.08.26-.44.44-.13-.15-.12-.32-.06-.5h0c-.23-.2-.48.03-.74-.02q.27-.32.7-.38c.29-.04.31-.08.12-.38-.06-.09-.09-.16-.03-.24.55-.65.76-1.47,1.15-2.2.06-.06.13-.12.19-.18.17-.04.36-.24.49-.02.2.35.54.39.94.49-.21.36.02.6.15.92.23.56.86.62,1.08,1.12,0,.02.03.03.05.05.13.14.42-.14.46.14.05.31-.27.38-.46.53-.05.04-.11.08-.17.12Z"/>
          <path class="cls-10" d="M13.04,10.85c0-.27.27-.36.39-.54.16-.22.41-.37.46-.67.02-.13.1-.21.24-.15.41.16.47-.11.5-.41.01-.11,0-.24.1-.32.68-.51,1.06-1.28,1.58-1.93.13-.16.23-.37.39-.48.43-.27.41-.66.4-1.07-.33-.12-.51.18-.83.25.11-.18.19-.31.27-.45.29.1.41-.11.55-.29.18-.23.39-.41.7-.24.29.15.38.48.21.84-.39.8-.75,1.63-1.45,2.23-.51.44-.79,1.15-1.52,1.35-.06.02-.1.15-.12.23-.04.13-.07.31-.2.34-.74.21-1.02,1-1.69,1.29Z"/>
          <path class="cls-3" d="M2.01,9.07c-.17.31-.47.55-.46.95,0,.09-.02.18-.02.27.02.3.4.31.46.53.06.22-.1.54.18.67.19.09.16.14.11.28-.15.43.12.47.44.46.35.14.29.36.1.58-.16.19-.37.34-.47.58-.03.06-.07.11-.11.16-.1,0-.2,0-.3-.01-.29-.2-.32-.66-.72-.76-.06-.01-.1-.12-.07-.18.32-.72-.16-.45-.47-.39-.14.03-.28.04-.37-.09-.09-.14-.02-.27.06-.38.26-.34.45-.78,1.01-.68.02-.21-.12-.38-.26-.43-.61-.22-.45-.54-.16-.9.04-.03.08-.05.12-.06.17,0,.28-.09.36-.22.03-.03.06-.06.09-.09.12-.17.27-.29.48-.3Z"/>
          <path class="cls-4" d="M.96,9.75c.05.22-.09.38-.23.54.41.14.76.27.89.69.01.04.17.06.13.17-.03.1-.14.16-.22.13-.74-.27-.82.41-1.28.86.57-.11,1.01-.36,1.36.08-.05.18-.31.19-.36.45.5.06.55.51.7.88-.1,0-.18-.03-.24-.11-.13-.21-.27-.36-.55-.25-.15.05-.35.03-.43-.12-.11-.2.06-.33.17-.47.04-.05.1-.09.21-.19-.25,0-.41.15-.6.09-.18-.06-.32-.12-.39-.33-.19-.63-.1-1.26,0-1.89.02-.13.11-.19.24-.21.24-.04.4-.21.6-.32Z"/>
          <path class="cls-5" d="M5.06,15.33c-.39.02-.69.34-1.1.3-.1,0-.29.05-.27-.1.07-.46-.36-.37-.57-.53.24-.33.65-.54.43-1.01.02-.1.08-.18.17-.24.6-.23,1.26-.19,1.87-.38.27-.08.32.11.25.32-.08.23-.29.35-.49.46-.73.4-.75.57-.15,1.08-.02.07-.07.1-.14.09Z"/>
          <path class="cls-10" d="M16.66,4.72c-.02-.25-.04-.5-.07-.77-.1-.15-.28-.07-.43-.09-.47-.07-.75-.34-.7-.8.04-.34-.05-.56-.32-.76-.66-.49-.93-1.21-1.15-1.96.34.03.35.32.41.54.16.58.52.98.98,1.33.5.38.91.88,1.43,1.26.15.11.21.31.15.5-.08.25-.07.55-.29.75Z"/>
          <path class="cls-11" d="M5.06,15.33s.09-.07.13-.11c.14-.28.44-.39.69-.36,1.01.13,1.79-.58,2.73-.69.54-.27,1.02-.64,1.59-.85-.04.24-.23.34-.41.43-.62.32-1.09.92-1.87.91-.08,0-.21.08-.22.14-.1.45-.51.32-.78.47-.64.35-1.24.11-1.86.05Z"/>
          <path class="cls-4" d="M2.01,9.07c-.16.1-.32.2-.48.3.06-.26.29-.34.47-.47.46-.34.97-.59,1.4-.99.22-.2.61-.45,1-.22-.88.32-1.61.89-2.39,1.38Z"/>
          <path class="cls-3" d="M3.78,13.85c-.08.05-.15.1-.23.15-.45-.1-.98.02-1.31-.44,0-.02.01-.05.02-.07.47-.36.95-.24,1.52.35Z"/>
          <path class="cls-10" d="M16.56,5.09c-.1-.16-.06-.29.11-.37.02.14-.03.26-.11.37Z"/>
          <path class="cls-4" d="M1.44,9.46c-.03.21-.15.29-.36.22.12-.07.24-.15.36-.22Z"/>
          <path class="cls-9" d="M3.78,13.85c-.29-.12-.6-.22-.88-.38-.24-.13-.43-.09-.64.02-.16-.38.13-.54.37-.7.25-.16.28-.33.1-.56.21-.03.4-.09.58-.2.09-.06.22-.05.22.05.04.73.27.04.4.06.04,0,.09,0,.18,0-.04.3-.28.52-.29.81,0,.17-.13.4.12.47.22.06.47.08.62-.16.14-.23.29-.45.5-.61.31.22-.07.45.12.7.73-.17,1.48-.4,2.4-.51-.43.39-.8.58-1.21.72.92.21,1.77.15,2.51-.52.1.21.03.3-.06.37-.13.1-.26.19-.4.27-.17.1-.31.23-.22.45.09.22.3-.04.42.08-.54.27-1.08.54-1.63.79-.14.06-.32.1-.47.07-.47-.1-.89.05-1.32.18-.19-.13-.4,0-.61-.02-.03-.34.23-.67-.07-1.04.59-.05,1.04-.15,1.31-.68-.73.08-1.36.33-2.04.35Z"/>
          <path class="cls-7" d="M15.76,4.63c-.06.02-.12.06-.18.07-.08,0-.19.02-.17-.11,0-.04.1-.11.14-.1.08.02.14.08.22.13h0Z"/>
          <path class="cls-7" d="M13.46,4.91s-.09,0-.11-.03c-.03-.04,0-.08.05-.09.02,0,.05,0,.06.02.05.03.04.07,0,.1Z"/>
          <path class="cls-8" d="M10.4,3.97c.06-.02.12-.04.18-.06-.02.16-.11.07-.18.05h0Z"/>
        </g>
      </g>
    </g>
  </g>
</svg>