<?xml version="1.0" encoding="UTF-8"?>
<svg xmlns="http://www.w3.org/2000/svg" viewBox="0 0 33.31 26.58">
  <defs>
    <style>
      .cls-1 {
        mix-blend-mode: multiply;
      }

      .cls-2 {
        isolation: isolate;
      }

      .cls-3 {
        fill: #f8b82f;
      }

      .cls-3, .cls-4, .cls-5, .cls-6, .cls-7, .cls-8, .cls-9, .cls-10, .cls-11, .cls-12, .cls-13, .cls-14, .cls-15, .cls-16, .cls-17, .cls-18, .cls-19, .cls-20 {
        stroke-width: 0px;
      }

      .cls-4 {
        fill: #774328;
      }

      .cls-5 {
        fill: #d28e2e;
      }

      .cls-6 {
        fill: #e0972a;
      }

      .cls-7 {
        fill: #b17133;
      }

      .cls-8 {
        fill: #b97332;
      }

      .cls-9 {
        fill: #b96d32;
      }

      .cls-10 {
        fill: #b47233;
      }

      .cls-11 {
        fill: #c2752f;
      }

      .cls-12 {
        fill: #975430;
      }

      .cls-13 {
        fill: #edb43f;
      }

      .cls-14 {
        fill: #f2d882;
      }

      .cls-15 {
        fill: #f1eac6;
      }

      .cls-16 {
        fill: #eec049;
      }

      .cls-17 {
        fill: #fccb3a;
      }

      .cls-18 {
        fill: #f1aa2d;
      }

      .cls-19 {
        fill: #f4e079;
      }

      .cls-20 {
        fill: #f5da85;
      }
    </style>
  </defs>
  <g class="cls-2">
    <g id="Layer_2" data-name="Layer 2">
      <g id="graphic_top">
        <g class="cls-1">
          <path class="cls-17" d="M10.47,1.79c.9-.49,1.86-.91,2.66-1.57.38-.31.69-.31,1.03.13.38.49.64,1.01.72,1.62.25,1.87.82,3.66,1.57,5.38.72,1.64,1.89,2.96,3,4.35,1.19,1.49,2.96,1.96,4.51,2.84.24.13.5.16.77.14.65-.04,1.21,0,1.75.52.38.36,1.02.24,1.47-.1.4-.3.8-.34,1.27-.25.41.08.82,0,1.23-.06.93-.15,1.86-.22,2.85-.07-.11.47-.29.79-.77.87-.42.07-.73.41-1.09.54-.92.33-1.68.93-2.54,1.37-.2.1-.5.07-.6.28-.27.56-.78.67-1.29.79-.27.06-.49.2-.63.43-.17.29.02.4.27.45.25.11.46.28.31.57-.17.31-.51.17-.78.2-1,.28-1.95.63-2.89,1.12-.66.34-1.52.35-2.09.99-.07.08-.23.11-.27.2-.85,1.89-2.73,1.43-4.22,1.86-1-.3-.25-.86-.2-1.32.69-.84.64-1.96,1.04-2.92.27-.63-.45-1.15-.92-1.54-1.1-.92-1.99-2.02-2.86-3.15-.17-.32-.49-.64-.16-1,.3-.32.74-.27,1.01-.02.84.78,1.85,1.26,2.82,1.82.5.75,1.07,1.04,1.81.29.58-.59,1.08.38,1.77.05-1.36-.81-2.63-1.61-3.71-2.67-.71-1.07-1.39-2.16-2.16-3.19-.11-.15-.14-.41-.31-.45-.82-.19-.86-.63-.72-1.39.13-.74-1.01-.65-1.16-1.2-.14-.52.42-1.26-.28-1.61-.78-.38-1.01-1.06-1.33-1.73-.17-.35-.32-.71-.26-1.08.1-.63-.16-1.08-.61-1.47Z"/>
          <path class="cls-6" d="M17.21,16.48c-.03-.24-.14-.42-.41-.43-.64-.03-1.14-.21-1.51-.82-.19-.32-.62-.51-.96-.71-.18-.11-.46-.13-.6.08-.13.18.05.34.15.49.06.09.11.19.16.29-1.03.26-.84-.8-1.28-1.18-.78-1.15-1.72-2.19-2.29-3.48-.04-.09-.07-.18-.1-.27-.04-.08-.07-.17-.11-.25-.07-.11-.15-.22-.24-.33-.06-.07-.1-.15-.13-.24,0-.1,0-.19.02-.29-.25-1.35-1.04-2.51-1.27-3.86-.05-.27-.11-.51.18-.68.36-.25.9-.31.71-1.03-.12-.47.44-.54.82-.68-.34-.3-.74-.3-1.03-.54-.14-.63.39-.31.61-.43.16-.14.32-.29.54-.33.92.24.99.25.86,1.06-.15.97.54,1.66.73,2.51.03.15.29.37.41.35,1.07-.22.66.83,1.01,1.21.22.24-.23.46-.58.75.65.07,1.05.33,1.42.67.59.54-.21.93-.09,1.49.49-.13.9-.11,1.09.55.16.54.32,1.16,1.04,1.35.24.06.37.36.39.64.04.56.4.96.7,1.38.07.09.08.19.02.29-1.08.67-1.59-.47-1.79-.92-.45-.97-1.41-1.4-1.9-2.27-.17-.3-.68-.43-1.22-.33.62,2.26,2.57,3.31,4.1,4.88.26-.55.09-1.37.98-1.09.73.44.47,1.42,1.1,1.96.25.21-.16.51-.48.5-.37-.01-.74-.07-1.05-.3Z"/>
          <path class="cls-8" d="M9.97,9.49c0,.07,0,.15,0,.22-.2.81-.8.99-1.48.8-.72-.2-1.38-.22-2.09,0-.69.22-1.26.03-1.53-.72-.16-.25-.44-.45-.38-.8.04-.18.15-.46-.06-.49-1.26-.21-1.22-1.18-1.28-2.11,0-.11-.01-.22-.01-.33.13-.15.25-.31.38-.46.23-.17.59.1.77-.23,0-.05.02-.1.05-.15.72-.54,1.36-1.21,2.27-1.46.76.33,1.13.82.7,1.65-.16.3-.11.58.09.83.5.63,0,1.48.31,2.02.33.59,1.35.15,1.9.69.16.16.33.3.35.54Z"/>
          <path class="cls-19" d="M16.76,24.17c.94-.22,1.85-.61,2.84-.51.29.03.29-.11.4-.34.26-.54.47-1.16,1.21-1.32.25-.05.45-.38.64-.61.13-.15.22-.33.44-.2.59.33,1,0,1.38-.37.66-.66,1.51-.63,2.34-.7.07.05.1.1.07.14-.03.04-.05.07-.08.07h0c-.44.42-.94.71-1.24,1.35-.23.5-1.09.55-1.7.72-.42.12-.79.17-.67.78.11.52-.39.6-.73.66-.75.13-1.04.53-1.1,1.29-.09,1.25-.34,1.3-1.63,1.39-.83.06-1.63.16-2.43-.07-1.1-.46-2.25-.8-3.2-1.57.42-.34,1.1-.16,1.4-.73.09-.04.19-.05.3-.04.57.25,1.13.64,1.74.08Z"/>
          <path class="cls-16" d="M14.93,24.16q-.43.81-1.61.7c-.27-.35-.47-.75-1.04-.72-.51.03-.79-.5-1.19-.73-1.14-.68-2.27-1.47-3.23-2.39-1.64-1.58-3.19-3.26-4.44-5.17-1.06-1.64-1.85-3.42-2.52-5.25-.23-.63-.48-1.26-.69-1.9-.36-1.09-.35-1.09.68-1.63.57.75.33,1.72.69,2.54.21.47.27,1.01.44,1.5.82,1.5,1.59,3.04,2.55,4.46.07.08.13.16.19.24.91.97,1.37,2.32,2.54,3.08,1.27,1.34,2.51,2.72,4.24,3.5.15.07.28.04.43.04,1.12.36,2.05,1.03,2.96,1.74Z"/>
          <path class="cls-3" d="M9.97,9.49c-.59-.5-1.25-.73-2.05-.69-.71.03-.64-.07-.54-.82.07-.55.37-1.24-.34-1.7-.33-.21-.27-.61-.15-.92.34-.83.36-.82-.3-1.52-.06-.1-.08-.21-.04-.32.78-.6,1.68-1.05,2.08-2.05.09-.23.4-.34.67-.11h0c.14.12.1.32.2.46.09.17.27.22.43.29-.16.2-.51.08-.62.37.17.48-.19.84-.27,1.27-.11.26-.11.54-.04.81.01.15-.03.28-.13.39-.23.17-.07.35.03.48.17.24.45.41.14.75-.1.11-.02.33.08.41.82.62.48,1.74,1.09,2.45.18.21.07.42-.24.44Z"/>
          <path class="cls-4" d="M1.84,11.29c-.55-1.36-1-2.74-.95-4.23.03-.07.05-.13.08-.2q.4-.77,1.27-.59c.1-.06.19-.06.29,0-.46.99.48,1.83.31,2.78-.03.69-.58,1.26-.46,2.01.04.27-.24.44-.55.22Z"/>
          <path class="cls-12" d="M2.53,9.03c-.02-.48.18-.93-.31-1.39-.45-.42-.05-.93.31-1.32-.02-.47.28-.31.52-.26.03-.04.06-.04.1,0,.33.25.37.6.37.98-.02.92-.01.93.93,1.09.25.05.58,0,.63.31.05.32-.16.55-.51.6-.68.45-1.36.28-2.04-.01Z"/>
          <path class="cls-20" d="M9.3,1.36c-.18.03-.43.03-.48.21-.37,1.1-1.24,1.62-2.22,2.04-.38.39-.79.65-1.33.25.65-.41,1.28-.86,2.01-1.13.59-.22.67-.83.91-1.31.33-.67.68-.7,1.12-.06Z"/>
          <path class="cls-13" d="M5.26,3.86c.47.06.88-.18,1.33-.25,0,.08,0,.16,0,.24-.76.45-1.23,1.35-2.24,1.37q-.27-.91.91-1.36Z"/>
          <path class="cls-15" d="M26,20.31c0-.07,0-.14,0-.21.11-.01.22-.03.33-.03.56.01.65-.21.32-.64.26-.02.52-.09.77.1-.1.95-.81.77-1.42.78Z"/>
          <path class="cls-8" d="M3.05,6.06c-.19.05-.4.06-.52.26-.09-.02-.19-.03-.28-.05.18-.41.42-.57.8-.21Z"/>
          <path class="cls-13" d="M4.3,5.37c-.16.42-.48.26-.78.23.2-.29.53-.12.78-.23Z"/>
          <path class="cls-20" d="M9.5,1.82c-.19-.1-.23-.27-.2-.46.21.09.23.27.2.46Z"/>
          <path class="cls-9" d="M14.93,24.16c-1.23-.17-1.99-1.27-3.15-1.6-.39-.42-1.26-.56-.85-1.45.69-.32,1.3-.98,2.05-.56-.79-.04-1.42-.48-1.91-1.31-.48-.8-.23-.99.55-1.19.54-.14,1.12.17,1.61-.2-.22-.18-.48,0-.72-.07-.61-.2-.71-.53-.24-.97.71-.66.45-1.07-.3-1.41-.2-.09-.42-.18-.58-.34-.27-.26-.35-.58-.18-.92.15-.31.42-.27.68-.17.33.13.67.04,1,.04.28.17.37.46.44.74.09.37.3.58.68.62.98,1.42,2.3,2.52,3.48,3.75.47.49.66.98.14,1.56-.27.29-.34.75-.31,1.04.06.61-.32.91-.58,1.31-.14.23-.45.39-.48.6-.16.93-.72.77-1.32.54h-.01Z"/>
          <path class="cls-18" d="M17.43,13.99c0-.08.01-.16.02-.24.94.64,1.77,1.42,2.74,2.02.39.24.79.41,1.2.58.14.06.24.18.21.35-.03.2-.2.21-.34.21-.33.02-.67,0-.99.14-.18.08-.28-.05-.29-.22-.04-.59-.36-.33-.57-.16-1.09.89-1.13.89-2.21-.21.26,0,.52.01.79.01.2,0,.42.23.61-.04.03-.3-.29-.28-.42-.45-.23-.3-.72-.51-.25-1.01.05-.05-.19-.37-.3-.56-.13-.12-.37-.19-.21-.44Z"/>
          <path class="cls-16" d="M14.95,24.17c.43-.1,1.11.26,1.09-.67,0-.25.48-.3.72-.47.02.3-.09.52-.28.76-.22.29.09.32.28.38-.56.84-.59.85-1.4.33-.15-.1-.28-.22-.41-.33Z"/>
          <path class="cls-14" d="M24.15,18.52c-.26-.03-.55-.13-.53-.51,0-.25.22-.37.46-.38.32-.01.71.35.66.59-.03.17-.28.31-.59.29Z"/>
          <path class="cls-12" d="M12.91,14.01c-.4.76-.91.35-1.45.07-.13.46-.25.85.38.93.29.04.41.31.64.43.82.42.88.69.26,1.34-.18.19-.39.35-.58.51.1.28.31.33.55.29.18-.03.39-.15.53-.09.25.11.72.03.69.43-.03.37-.37.37-.71.31-.76-.15-1.46.24-2.25.28.55,1.13,1.29,1.98,2.69,2-.2.41-.48.31-.62.26-.52-.19-.94-.13-1.31.3-.23.26-.56.15-.85.19-.75.07-1.1-.48-1.49-.96-.28-.34-.57-.68-.84-1.03-.74-1.31-1.98-2.06-3.17-2.86-.28-.19-.56-.37-.84-.56h0c.75-1.81.27-3.48-.57-5.11-.17-.33-.4-.74-.03-1.02.3-.23.73-.48,1.07.02.82.75.66.81,1.84.4.32-.11.65-.29.96-.1.82.5,1.52.36,2.17-.3.07,0,.14.02.2.03.17.09.12.3.23.43h.01c.09.07.15.14.21.23.48,1.38,1.53,2.4,2.28,3.61Z"/>
          <path class="cls-11" d="M17.43,13.99c.07.15.14.3.21.44-.5.02-.85.14-.49.73.1.16.25.29.15.5-.11.13-.3.15-.4.06-.69-.55-1.61-.83-2.1-1.62-.34-.54-.84-1.04-1.3-1.33-.98-.59-.86-1.63-1.33-2.41-.14-.24.19-.47.37-.35.61.39,1.65.13,1.8,1.2.03.23.21.11.35.1.14-.01.26-.06.33.16.24.79.25.79,1.03.73.07,0,.15.02.22.03.03,0,.06.04.09.07.09.28-.12.28-.29.32-.14.03-.31.04-.34.23-.03.23.13.35.31.41.33.1.57.17.64.62.07.47.5.02.75.1Z"/>
          <path class="cls-10" d="M8.81,3.83c.03-.5.23-.93.5-1.34.71-.16,1.14.38,1.82.64-.43.35-.84.19-1.16.3-.18.06-.33.15-.28.4.04.19.53.23.23.46-.32.25-.46.85-1.05.67,0-.15-.01-.3-.02-.45-.16-.22-.12-.45-.04-.69Z"/>
          <path class="cls-8" d="M10.41,10.17c-.17-.09-.2-.26-.23-.43.22.07.23.24.23.43Z"/>
          <path class="cls-8" d="M10.63,10.4c-.07-.07-.14-.15-.21-.22.12.03.19.1.21.22Z"/>
          <path class="cls-7" d="M5.01,9.71c-.38-.25-.67.19-1.09.13.12.37.06.8.48.97.34.13.22.32.15.53-.02.07-.04.14-.06.22.9.17.16,1.08.67,1.48.3.23.28.54-.03.95-.33.44-.07,1.01.6,1.34-.45.28-1.07-.13-1.19.5-.58-.24-.67-.86-.94-1.32-.63-1.04-1.17-2.14-1.75-3.21.17-.04.45-.05.37-.29-.2-.62-.2-1.14.38-1.56.05-.04-.04-.27-.07-.41.68-.16,1.36.08,2.04.01.14.23.48.32.44.66Z"/>
          <path class="cls-7" d="M4.54,15.83c.22-.01.47-.04.63.14.42.46,1.01.62,1.53.89.22.12.54.12.56.46.02.38.28.46.57.58.52.23.96.56.83,1.24-.56.76-.96.06-1.42-.14-.9-.53-1.67-1.18-1.89-2.26-.05-.26-.24-.24-.39-.31-.27-.12-.41-.31-.41-.61Z"/>
          <path class="cls-5" d="M7.23,19c.48-.03.91.51,1.42.14.46.1.62.53.85.84.38.52.83.93,1.38,1.25.3.45.61.89.91,1.34-.35.6-.3-.38-.71-.18-.28.13-.81-.2-1.12-.52-.5-.5-.87-1.08-1.63-1.37-.48-.19-.76-.91-1.13-1.4-.01-.02.02-.07.02-.11Z"/>
          <path class="cls-6" d="M8.81,3.83c.01.23.02.46.04.69-.28-.21-.29-.44-.04-.69Z"/>
          <path class="cls-12" d="M4.18,9.38s-.05.05-.07.04c-.08,0-.11-.05-.06-.1.02-.02.06-.02.08-.01.02,0,.03.04.04.07Z"/>
        </g>
      </g>
    </g>
  </g>
</svg>