<?xml version="1.0" encoding="UTF-8"?>
<svg xmlns="http://www.w3.org/2000/svg" viewBox="0 0 45.11 32.73">
  <defs>
    <style>
      .cls-1 {
        mix-blend-mode: multiply;
      }

      .cls-2 {
        isolation: isolate;
      }

      .cls-3 {
        fill: #f8b82f;
      }

      .cls-3, .cls-4, .cls-5, .cls-6, .cls-7, .cls-8, .cls-9, .cls-10, .cls-11, .cls-12, .cls-13, .cls-14, .cls-15, .cls-16, .cls-17, .cls-18, .cls-19, .cls-20 {
        stroke-width: 0px;
      }

      .cls-4 {
        fill: #774328;
      }

      .cls-5 {
        fill: #d28e2e;
      }

      .cls-6 {
        fill: #e0972a;
      }

      .cls-7 {
        fill: #b17133;
      }

      .cls-8 {
        fill: #b97332;
      }

      .cls-9 {
        fill: #b96d32;
      }

      .cls-10 {
        fill: #b47233;
      }

      .cls-11 {
        fill: #c2752f;
      }

      .cls-12 {
        fill: #975430;
      }

      .cls-13 {
        fill: #edb43f;
      }

      .cls-14 {
        fill: #f2d882;
      }

      .cls-15 {
        fill: #f1eac6;
      }

      .cls-16 {
        fill: #eec049;
      }

      .cls-17 {
        fill: #fccb3a;
      }

      .cls-18 {
        fill: #f1aa2d;
      }

      .cls-19 {
        fill: #f4e079;
      }

      .cls-20 {
        fill: #f5da85;
      }
    </style>
  </defs>
  <g class="cls-2">
    <g id="Layer_2" data-name="Layer 2">
      <g id="graphic_top">
        <g class="cls-1">
          <path class="cls-17" d="M33.93,29.27c-.97.96-2.04,1.84-2.83,2.98-.37.54-.76.65-1.37.21-.67-.49-1.19-1.06-1.52-1.81-1.01-2.3-2.39-4.37-3.98-6.29-1.52-1.83-3.5-3.09-5.43-4.45-2.07-1.46-4.51-1.42-6.8-1.97-.35-.08-.7-.02-1.03.1-.81.29-1.55.44-2.43-.01-.62-.32-1.39.07-1.84.67-.4.53-.89.73-1.53.79-.55.05-1.05.29-1.55.53-1.13.53-2.3.96-3.62,1.14-.03-.64.08-1.12.67-1.4.52-.24.78-.79,1.19-1.09,1.06-.76,1.81-1.81,2.74-2.68.21-.2.61-.27.66-.58.13-.81.75-1.14,1.36-1.48.33-.18.56-.44.65-.79.12-.44-.17-.5-.51-.48-.36-.05-.7-.19-.6-.61.1-.45.6-.4.93-.54,1.17-.73,2.26-1.52,3.29-2.5.72-.68,1.81-1.01,2.31-2.03.06-.13.25-.22.27-.35.4-2.72,2.96-2.83,4.71-3.92,1.39.02.64,1,.73,1.61-.58,1.33-.09,2.74-.26,4.12-.11.9,1,1.3,1.74,1.63,1.74.78,3.29,1.85,4.81,2.97.33.35.87.64.58,1.22-.26.52-.85.62-1.29.4-1.36-.69-2.83-.93-4.27-1.29-.91-.78-1.75-.93-2.42.3-.53.97-1.52-.08-2.28.58,2.03.53,3.95,1.1,5.72,2.05,1.3,1.11,2.57,2.25,3.94,3.29.2.15.34.47.57.46,1.11-.06,1.33.49,1.44,1.51.1,1,1.53.46,1.92,1.1.37.61-.07,1.77.95,1.95,1.13.2,1.68.99,2.34,1.73.34.38.66.79.73,1.29.1.85.61,1.32,1.32,1.65Z"/>
          <path class="cls-6" d="M19.93,12.97c.13.3.33.49.69.4.82-.19,1.54-.15,2.23.5.36.34.97.42,1.49.55.27.07.63,0,.74-.32.1-.28-.19-.41-.37-.57-.11-.09-.21-.21-.31-.31,1.22-.71,1.37.71,2.07,1.04,1.42,1.17,3.01,2.16,4.2,3.61.08.1.15.2.22.3.08.09.15.19.23.28.13.12.27.23.43.33.11.07.19.16.26.26.04.12.07.25.08.38.81,1.63,2.26,2.82,3.05,4.46.16.33.33.61.02.93-.37.45-1.04.73-.53,1.58.33.55-.36.86-.8,1.17.54.26,1.06.11,1.52.31.41.75-.38.54-.62.77-.15.24-.3.49-.57.62-1.26.03-1.35.04-1.49-1.03-.17-1.3-1.3-1.92-1.86-2.93-.1-.18-.51-.37-.65-.3-1.29.67-1.15-.81-1.74-1.18-.37-.23.13-.68.47-1.18-.85.15-1.46-.04-2.06-.34-.95-.47-.08-1.26-.43-1.94-.57.35-1.11.47-1.6-.31-.4-.63-.84-1.36-1.82-1.34-.33,0-.6-.32-.73-.68-.26-.7-.86-1.08-1.41-1.51-.13-.09-.17-.21-.13-.37,1.13-1.25,2.2.02,2.63.51.93,1.07,2.31,1.28,3.27,2.21.33.32,1.02.31,1.68-.02-1.63-2.66-4.5-3.29-7.04-4.72-.12.8.38,1.78-.85,1.75-1.09-.29-1.13-1.64-2.13-2.1-.39-.18.02-.71.44-.81.47-.12.97-.18,1.45,0Z"/>
          <path class="cls-8" d="M31.74,19.24c-.03-.09-.06-.19-.09-.28-.04-1.1.66-1.56,1.59-1.56.99,0,1.84-.23,2.66-.78.8-.53,1.6-.51,2.22.36.29.27.73.41.78.89,0,.24-.02.64.26.6,1.69-.19,2,1.06,2.41,2.22.05.14.1.28.14.42-.11.24-.21.48-.32.72-.23.3-.79.09-.9.58,0,.07,0,.14,0,.21-.72.96-1.3,2.05-2.36,2.71-1.09-.14-1.74-.64-1.5-1.85.09-.44-.08-.78-.42-1.03-.87-.63-.55-1.88-1.14-2.47-.64-.64-1.79.3-2.69-.18-.26-.14-.53-.26-.65-.57Z"/>
          <path class="cls-19" d="M17.67,2.98c-1.12.62-2.14,1.46-3.45,1.7-.38.07-.33.25-.39.58-.13.78-.17,1.66-1.06,2.14-.3.16-.43.65-.59,1.02-.1.24-.16.5-.49.42-.88-.21-1.28.36-1.62.99-.6,1.08-1.7,1.36-2.73,1.75-.11-.04-.16-.09-.14-.16.02-.07.04-.1.08-.11h0c.41-.7.94-1.25,1.08-2.18.11-.72,1.19-1.1,1.9-1.54.49-.31.95-.51.56-1.24-.33-.63.27-.91.69-1.11.92-.44,1.14-1.06.93-2.05-.34-1.64-.05-1.78,1.57-2.38C15.04.42,16.02,0,17.14,0c1.57.18,3.17.19,4.66.83-.4.59-1.35.61-1.52,1.45-.11.09-.23.14-.36.16-.82-.12-1.68-.4-2.25.54Z"/>
          <path class="cls-16" d="M20.01,2.31q.26-1.19,1.8-1.48c.47.35.87.78,1.59.53.65-.22,1.19.34,1.79.5,1.71.45,3.44,1.04,5,1.87,2.67,1.41,5.28,2.99,7.58,4.98,1.96,1.7,3.63,3.69,5.15,5.78.53.73,1.08,1.43,1.59,2.17.86,1.26.85,1.26-.27,2.33-1.01-.75-1.05-2.08-1.81-2.99-.44-.52-.71-1.19-1.12-1.76-1.61-1.61-3.15-3.29-4.9-4.76-.12-.07-.23-.16-.34-.24-1.52-.9-2.6-2.45-4.37-3-2.12-1.25-4.2-2.55-6.71-2.91-.22-.03-.38.05-.56.11-1.56-.05-3-.56-4.42-1.14Z"/>
          <path class="cls-3" d="M31.74,19.24c.94.42,1.87.47,2.88.13.89-.3.84-.15.99.84.11.74-.02,1.72,1.05,2.05.5.15.57.68.52,1.12-.13,1.18-.16,1.18.95,1.83.12.1.17.24.17.39-.77,1.05-1.77,1.96-1.9,3.39-.03.33-.38.59-.81.39h0c-.22-.11-.25-.37-.43-.52-.18-.19-.43-.18-.66-.22.13-.32.63-.29.65-.7-.39-.55-.06-1.15-.12-1.72.05-.38-.06-.73-.24-1.06-.07-.19-.07-.37.02-.55.23-.31-.04-.47-.22-.6-.31-.24-.73-.36-.45-.91.09-.18-.09-.43-.25-.49-1.27-.49-1.25-2.04-2.3-2.72-.31-.2-.24-.51.15-.65Z"/>
          <path class="cls-4" d="M41.47,13.95c1.21,1.53,2.28,3.13,2.77,5.05-.01.09-.02.19-.04.28q-.22,1.13-1.41,1.22c-.1.11-.22.14-.37.1.23-1.44-1.29-2.15-1.42-3.44-.22-.9.27-1.82-.16-2.74-.15-.32.15-.65.62-.48Z"/>
          <path class="cls-12" d="M41.42,17.09c.19.6.11,1.25.91,1.66.73.37.4,1.18.09,1.81.2.6-.25.5-.57.53-.03.06-.07.08-.13.04-.52-.19-.7-.63-.83-1.12-.32-1.18-.33-1.19-1.59-1.06-.34.04-.75.21-.92-.17-.18-.39,0-.77.43-.96.71-.82,1.64-.85,2.61-.73Z"/>
          <path class="cls-20" d="M35.6,29.38c.22-.1.53-.2.54-.44.07-1.54.99-2.53,2.09-3.42.35-.64.78-1.12,1.6-.81-.68.77-1.32,1.56-2.15,2.18-.67.5-.55,1.3-.68,2-.18.98-.61,1.14-1.42.49Z"/>
          <path class="cls-13" d="M39.84,24.71c-.63.09-1.06.55-1.6.81-.03-.1-.06-.2-.1-.3.8-.85,1.08-2.17,2.36-2.58q.68,1.07-.66,2.07Z"/>
          <path class="cls-15" d="M7.28,11.3c.02.09.04.18.06.27-.13.05-.27.12-.41.16-.72.19-.75.5-.17.93-.32.11-.63.3-1.02.16-.22-1.24.75-1.29,1.53-1.52Z"/>
          <path class="cls-8" d="M41.85,21.08c.23-.14.5-.23.57-.53.12-.01.25-.03.37-.04-.08.58-.32.88-.94.57Z"/>
          <path class="cls-13" d="M40.5,22.42c.05-.59.52-.52.91-.58-.15.44-.63.35-.91.58Z"/>
          <path class="cls-20" d="M35.17,28.86c.29.06.39.26.43.52-.31-.04-.39-.26-.43-.52Z"/>
          <path class="cls-9" d="M20.01,2.31c1.64-.23,3.01.89,4.61.89.66.39,1.82.26,1.62,1.55-.77.66-1.3,1.73-2.41,1.47,1.03-.24,1.99.1,2.92.97.91.85.66,1.18-.26,1.72-.64.38-1.49.19-1.99.85.35.15.62-.19.95-.18.85.03,1.1.42.66,1.15-.67,1.1-.18,1.54.9,1.69.29.04.6.08.87.22.44.24.65.61.57,1.11-.08.45-.44.5-.81.47-.47-.04-.87.19-1.29.32-.42-.11-.64-.45-.83-.79-.25-.44-.6-.63-1.1-.54-1.77-1.46-3.87-2.38-5.83-3.52-.78-.45-1.2-1.01-.75-1.94.23-.47.16-1.09.02-1.44-.3-.76.08-1.28.26-1.89.09-.34.43-.67.4-.94-.13-1.25.63-1.25,1.49-1.18h.02Z"/>
          <path class="cls-18" d="M20.55,16.23c.02.1.04.21.06.31-1.43-.48-2.79-1.17-4.25-1.57-.58-.16-1.16-.23-1.75-.3-.2-.02-.37-.14-.4-.37-.03-.26.18-.34.36-.4.42-.14.85-.26,1.21-.55.2-.16.37-.04.45.17.27.74.58.29.79,0,1.07-1.53,1.12-1.55,2.9-.55-.34.09-.67.18-1.01.28-.26.07-.62-.14-.77.27.08.39.48.25.7.42.41.3,1.11.38.68,1.19-.04.08.38.4.59.61.21.1.54.1.43.49Z"/>
          <path class="cls-16" d="M19.99,2.31c-.52.28-1.51.07-1.14,1.26.1.32-.5.56-.75.87-.14-.37-.08-.7.07-1.08.18-.45-.24-.37-.5-.37.4-1.28.45-1.31,1.67-.94.22.07.43.18.65.27Z"/>
          <path class="cls-14" d="M10.31,12.91c.34-.05.75-.03.87.45.08.32-.14.55-.45.66-.41.14-1.04-.18-1.06-.52-.02-.23.25-.5.65-.59Z"/>
          <path class="cls-12" d="M26.33,14.55c.24-1.12,1.04-.79,1.83-.62,0-.64,0-1.18-.83-1.05-.39.06-.64-.25-.98-.31-1.21-.24-1.37-.55-.82-1.62.16-.3.37-.58.55-.87-.24-.32-.51-.31-.81-.16-.22.11-.45.34-.65.32-.36-.04-.93.22-1.03-.29-.1-.48.34-.61.79-.65,1.02-.09,1.77-.84,2.77-1.18-1.12-1.24-2.38-2.05-4.18-1.56.1-.6.49-.57.7-.56.74.05,1.25-.18,1.57-.86.19-.41.66-.4,1.02-.55.93-.37,1.58.2,2.25.67.48.34.98.66,1.45,1,1.42,1.4,3.29,1.9,5.11,2.48.42.14.85.26,1.28.41h0c-.3,2.59.93,4.55,2.61,6.32.34.36.78.8.41,1.3-.3.41-.76.88-1.38.37-1.32-.66-1.15-.79-2.5.16-.37.26-.73.61-1.19.48-1.23-.33-2.08.1-2.66,1.18-.09.01-.18.02-.27.03-.25-.06-.26-.34-.45-.46h-.02c-.13-.05-.25-.12-.35-.21-1.12-1.59-2.83-2.5-4.24-3.77Z"/>
          <path class="cls-11" d="M20.55,16.23c-.14-.16-.29-.33-.43-.49.63-.21,1.04-.49.36-1.12-.18-.16-.42-.28-.38-.59.1-.21.33-.3.49-.23,1.09.45,2.36.47,3.28,1.3.64.57,1.45,1.02,2.15,1.22,1.47.4,1.7,1.77,2.59,2.59.27.26-.07.67-.35.58-.92-.27-2.15.44-2.74-.87-.13-.29-.31-.07-.48,0-.17.06-.32.17-.48-.09-.59-.93-.61-.92-1.59-.55-.09.03-.2.04-.29.04-.05,0-.09-.03-.14-.05-.22-.32.05-.41.26-.52.17-.1.38-.17.35-.42-.04-.3-.29-.41-.54-.41-.46,0-.79,0-1.05-.56-.27-.57-.64.16-1,.16Z"/>
          <path class="cls-10" d="M35.31,26.05c.15.65.05,1.27-.15,1.89-.85.46-1.59-.07-2.56-.15.42-.6,1-.55,1.38-.82.21-.15.37-.31.21-.61-.12-.22-.77-.09-.47-.5.32-.44.27-1.25,1.1-1.25.06.19.13.38.19.57.29.22.32.53.3.86Z"/>
          <path class="cls-8" d="M30.94,18.53c.25.06.36.25.45.46-.3,0-.38-.23-.45-.46Z"/>
          <path class="cls-8" d="M30.57,18.32c.12.07.23.13.35.2-.16,0-.28-.05-.35-.2Z"/>
          <path class="cls-7" d="M38,17.13c.58.18.78-.49,1.35-.56-.29-.43-.38-1-.97-1.06-.48-.05-.39-.33-.39-.62,0-.1,0-.2,0-.3-1.22.11-.6-1.33-1.4-1.65-.47-.19-.55-.59-.31-1.23.26-.68-.28-1.31-1.26-1.49.47-.52,1.41-.23,1.34-1.07.83.1,1.17.86,1.69,1.33,1.19,1.1,2.28,2.3,3.41,3.47-.2.12-.56.23-.37.51.49.71.67,1.38.09,2.13-.05.06.15.33.24.5-.81.46-1.77.4-2.61.73-.26-.24-.73-.23-.81-.69Z"/>
          <path class="cls-7" d="M36.36,9.14c-.28.1-.58.23-.86.05-.7-.44-1.51-.42-2.28-.58-.33-.07-.74.04-.88-.39-.16-.48-.53-.48-.94-.54-.75-.1-1.43-.36-1.52-1.28.43-1.18,1.21-.43,1.87-.34,1.34.34,2.56.89,3.25,2.19.17.32.4.22.61.25.38.06.64.25.74.63Z"/>
          <path class="cls-5" d="M31.76,6.08c-.61.21-1.34-.31-1.87.34-.62.05-.99-.45-1.39-.76-.68-.53-1.41-.88-2.23-1.08-.55-.46-1.1-.92-1.65-1.37.22-.89.52.37.97-.03.3-.27,1.11-.04,1.63.25.83.45,1.51,1.06,2.58,1.15.69.06,1.31.89,1.96,1.37.02.02,0,.09,0,.14Z"/>
          <path class="cls-6" d="M35.31,26.05c-.1-.29-.2-.58-.3-.86.44.17.53.46.3.86Z"/>
          <path class="cls-12" d="M39.18,17.25s.04-.08.07-.08c.11-.02.15.02.11.11-.01.03-.07.05-.1.04-.03,0-.05-.05-.08-.07Z"/>
        </g>
      </g>
    </g>
  </g>
</svg>