<svg id="241652fb-f083-4d21-8c63-49d57ca8d877" data-name="6374f623-f1c0-4430-a731-8ce2e626bf22" xmlns="http://www.w3.org/2000/svg" width="121.89" height="104.78" viewBox="0 0 121.89 104.78"><title>03</title><g id="ce7d8cdb-d13c-4974-ad18-c89fae7ac610" data-name="e61e2eac-c3b4-4265-8a83-31a639d34d07"><g id="a20f488c-beb8-440e-affc-ce7ad98c6d56" data-name="36b920c5-6aa0-4ad1-874c-ab1c70b6ae63"><path d="M51,82.74c-1-.28-1.92-.51-2.89-.75a10.28,10.28,0,0,1-3.79.79A.33.33,0,0,1,44,82.5v0h0a.37.37,0,0,1,.37-.36h0A11,11,0,0,0,47,81.73l-.8-.21c-.44-.12-.73-.2-.71-.4s.14-.24.32-.38.31-.17.4-.26H44.3A.31.31,0,0,1,44,80.2a.06.06,0,0,1,0-.06.3.3,0,0,1,.26-.33h2.61c.16-.18.3-.35.44-.53a.4.4,0,0,1,.51-.15c.26.12.21.37.07.55l-.11.13h3.41a.28.28,0,0,1,.3.27s0,0,0,0h0a.31.31,0,0,1-.29.33H50a5.6,5.6,0,0,1-1.06,1.06c.8.19,1.6.35,2.4.57a.34.34,0,0,1,.27.39h0a.31.31,0,0,1-.39.22h0S51.07,82.75,51,82.74Zm.38-3.34a.34.34,0,0,1-.38.29h0a.29.29,0,0,1-.32-.27.25.25,0,0,1,0-.12c.06-.21,0-.3-.12-.3H45c-.16,0-.21,0-.21.16v.14c0,.19-.17.29-.36.29s-.36-.1-.36-.29v-.46c0-.37.21-.52.65-.52h2.59v-.47H45.21c-.43,0-.61-.22-.61-.68V75.91c0-.43.2-.61.68-.61h5c.47,0,.63.21.63.67v1.17a.82.82,0,0,1-.13.55.62.62,0,0,1-.49.16H48.12v.46h2.62c.5,0,.73.14.73.66A2.1,2.1,0,0,1,51.42,79.4Zm-1.15-3.32c0-.09,0-.14-.19-.14H45.47c-.12,0-.17,0-.17.15v.22h5Zm0,.79h-5v.2c0,.09,0,.14.17.14h4.61c.13,0,.19,0,.19-.16Zm-3.06,3.57c-.09.09-.43.36-.62.52.32.09,1.2.29,1.41.35a4.74,4.74,0,0,0,1.07-.87Z" style="fill:#1d1d1b"/><path d="M56.59,77.79a23.57,23.57,0,0,1-3.72.75.3.3,0,0,1-.33-.26v0a.32.32,0,0,1,.22-.4h0l.5-.06v-1.9a.34.34,0,0,1,.34-.34h0a.32.32,0,0,1,.35.29h0v1.81h0c.21,0,.43-.07.64-.12V75.4c0-.2.14-.31.36-.32a.3.3,0,0,1,.35.24v.58h.91a.36.36,0,0,1,.39.32h0a.35.35,0,0,1-.35.35h-.93v.8c.47-.09.79-.18,1.07-.24a.32.32,0,0,1,.41.21h0a.34.34,0,0,1-.2.44Zm-1.23,3.86a10.72,10.72,0,0,1-2.18.92.32.32,0,0,1-.42-.16h0A.34.34,0,0,1,53,82h0A11.54,11.54,0,0,0,55,81.13a.32.32,0,0,1,.45,0l0,0h0a.36.36,0,0,1-.14.48h0Zm5-.46a.31.31,0,0,1-.45,0h0l-.1-.11a4.57,4.57,0,0,0-.43-.45,18.63,18.63,0,0,1-2.36.1v1.65a.54.54,0,0,1-.57.5,1.89,1.89,0,0,1-1.35-.32c-.36-.31,0-.75.46-.49.1,0,.79.25.79,0V80.73H53.19a.32.32,0,0,1-.35-.29h0v-.07a.36.36,0,0,1,.34-.36h2.19l.25-.16h.09a.46.46,0,0,1-.19-.08,8.49,8.49,0,0,0-1.36-.65.29.29,0,0,1-.19-.36h0a.09.09,0,0,1,0-.07.35.35,0,0,1,.44-.16,3.55,3.55,0,0,1,.69.31,10.15,10.15,0,0,0,1.06-.8l.09-.07a.39.39,0,0,1,.53,0,.36.36,0,0,1,0,.49h0a9.83,9.83,0,0,1-1,.73l.13.1c.17.13.21.23.18.35.6-.38,1.13-.79,1.6-1.14.2-.17.41-.19.56,0a.37.37,0,0,1,0,.29.57.57,0,0,1-.2.29c-.49.38-1,.73-1.52,1.06h.19a19.81,19.81,0,0,0,2-.11c-.22-.19-.5-.33-.27-.68a.3.3,0,0,1,.43,0h0a14.66,14.66,0,0,1,1.35,1.38A.36.36,0,0,1,60.34,81.19Zm-.91-3h-1.7a.7.7,0,0,1-.79-.6v0a.54.54,0,0,1,0-.18v-2c0-.19.15-.29.35-.31a.31.31,0,0,1,.35.27V76a7.84,7.84,0,0,0,1.76-.5.31.31,0,0,1,.42.14h0a.36.36,0,0,1-.2.48h0a12.27,12.27,0,0,1-2,.52v.43c0,.24.11.36.34.36h1.42c.15,0,.25-.14.28-.52,0-.21.19-.28.4-.3a.34.34,0,0,1,.32.34h0C60.38,77.82,60.06,78.2,59.43,78.2Zm.51,4.57a12.62,12.62,0,0,0-2-1.06.3.3,0,0,1-.15-.45.35.35,0,0,1,.45-.18h0a14.42,14.42,0,0,1,2.13,1.12.36.36,0,0,1,.09.5.3.3,0,0,1-.41.1Z" style="fill:#1d1d1b"/><path d="M64.07,79.66a.27.27,0,0,1-.36-.14h0l-.09-.22h-.38v3.33A.3.3,0,0,1,63,83h0a.3.3,0,0,1-.34-.27V79.37h-.88a.3.3,0,0,1-.33-.28h0c0-.21.08-.34.27-.37h.21a4.91,4.91,0,0,0,.48-.71c-.16-.19-.45-.48-.85-.87a.34.34,0,0,1,0-.48h0a.36.36,0,0,1,.46,0c.22-.41.39-.8.61-1.23a.37.37,0,0,1,.47-.18.31.31,0,0,1,.18.4h0a8.36,8.36,0,0,1-.66,1.3,1.4,1.4,0,0,1-.1.16,4,4,0,0,0,.29.29,8.81,8.81,0,0,0,.57-1.06.34.34,0,0,1,.44-.2h.07a.39.39,0,0,1,.07.53,13.94,13.94,0,0,1-1.25,2l.79-.07a1.23,1.23,0,0,0-.12-.26.27.27,0,0,1,.14-.36h0a.3.3,0,0,1,.4.13,8.25,8.25,0,0,1,.35,1.2A.29.29,0,0,1,64.07,79.66Zm-1.93,2.51a.39.39,0,0,1-.4.36.34.34,0,0,1-.28-.38v0h0a17.23,17.23,0,0,0,.17-1.89.34.34,0,0,1,.33-.35h0c.2,0,.29.15.28.38a12.38,12.38,0,0,1-.12,1.92ZM64,81.64a.3.3,0,0,1-.36-.23h0a3.86,3.86,0,0,0-.11-.68c0-.26,0-.25-.07-.34a.33.33,0,0,1,.23-.39.3.3,0,0,1,.37.17h0a6.46,6.46,0,0,1,.18,1.07.33.33,0,0,1-.22.41h0Zm.69.72a.35.35,0,0,1-.44.22A.32.32,0,0,1,64,82.2h0a11.47,11.47,0,0,0,.44-1.84.32.32,0,0,1,.33-.31h0a.29.29,0,0,1,.3.29v0h0a7.57,7.57,0,0,1-.46,2Zm3.41-2.7h-3.2c-.4,0-.6-.25-.6-.72V76.25a.53.53,0,0,1,.16-.44A.73.73,0,0,1,65,75.7h1c.09-.16.17-.35.23-.44a.43.43,0,0,1,.48-.22.29.29,0,0,1,.23.32.11.11,0,0,1,0,.08.47.47,0,0,1-.11.26h1.41a1,1,0,0,1,.6.12.58.58,0,0,1,.14.46V79C68.89,79.46,68.62,79.66,68.09,79.66Zm.13-3.08c0-.16-.07-.23-.24-.23H65.17c-.16,0-.24.07-.24.18v2.32c0,.1.06.15.26.15h2.86c.12,0,.17,0,.17-.15ZM67.31,78a2,2,0,0,1,.52.4.32.32,0,0,1,0,.41.3.3,0,0,1-.4,0l-.62-.4a3.92,3.92,0,0,1-1.22.54.34.34,0,0,1-.42-.2h0a.27.27,0,0,1,.14-.35h.08a4.31,4.31,0,0,0,.93-.34c-.08-.06-.32-.2-.51-.31a1.87,1.87,0,0,1-.34.29.27.27,0,0,1-.39,0h0c-.17-.24,0-.37.17-.5a6,6,0,0,0,.75-.67.44.44,0,0,1,.38-.22h1.19c.34,0,.52.14.43.43a2.65,2.65,0,0,1-.68.91Zm0,4.77h-1c-.55,0-.87-.18-.87-.59V80.07c0-.2.15-.27.33-.29a.26.26,0,0,1,.31.2.28.28,0,0,1,0,.09v1.72a.27.27,0,0,0,.08.24,1,1,0,0,0,.43,0,2.68,2.68,0,0,0,.8,0c.08,0,.14-.16.14-.43a.3.3,0,0,1,.29-.32h0a.29.29,0,0,1,.31.29h0c0,.69-.29,1.06-.82,1.06Zm-.2-5.66h-.69l-.2.18c.22.11.46.26.57.32a1.12,1.12,0,0,0,.38-.4v-.06Zm0,4.4c-.21,0-.41,0-.43-.26a8.38,8.38,0,0,0-.27-1.07.28.28,0,0,1,.15-.36h0A.33.33,0,0,1,67,80a5,5,0,0,1,.4,1.12.33.33,0,0,1-.16.41h0ZM69,82.54a.35.35,0,0,1-.41-.26h0a13.44,13.44,0,0,0-.66-1.94.3.3,0,0,1,.1-.41h.08a.37.37,0,0,1,.48.18h0a8.74,8.74,0,0,1,.68,2,.36.36,0,0,1-.27.4Z" style="fill:#1d1d1b"/><path d="M72.72,81.48a7.91,7.91,0,0,1-2.3,1.07.36.36,0,0,1-.46-.17h0c-.1-.39.16-.49.45-.59a4.42,4.42,0,0,0,.57-.23V79.07h-.63c-.22,0-.32-.14-.33-.37a.29.29,0,0,1,.25-.34H71V76.23h-.69c-.2,0-.29-.13-.3-.34a.29.29,0,0,1,.22-.34h2a.33.33,0,0,1,.35.31h0a.32.32,0,0,1-.3.34h-.62v2.13h.65c.21,0,.3.14.33.34a.32.32,0,0,1-.28.36h-.7v2.23l.6-.36a.32.32,0,0,1,.45,0h0a.36.36,0,0,1,0,.49A.14.14,0,0,1,72.72,81.48Zm5.06,1.17H72.86c-.2,0-.3-.15-.3-.36a.33.33,0,0,1,.33-.31h2v-.91H73.27c-.2,0-.28-.14-.29-.34a.29.29,0,0,1,.25-.34s0,0,0,0h1.66V79.5H73.49a.6.6,0,0,1-.67-.51v0a.43.43,0,0,1,0-.16V76.05a.6.6,0,0,1,.51-.69h3.79c.44,0,.63.21.63.68v2.79a.6.6,0,0,1-.5.67h0a.33.33,0,0,1-.14,0H75.64v.89H77.5c.19,0,.29.13.3.34a.28.28,0,0,1-.23.33H75.64V82h2.13c.2,0,.3.13.32.34a.3.3,0,0,1-.27.33ZM74.94,76H73.79c-.16,0-.22,0-.22.22v.85H75Zm0,1.74H73.53v.82c0,.16.06.23.23.23h1.18Zm2.13-1.46c0-.22,0-.28-.2-.28H75.64v1.07H77Zm0,1.46H75.64v1.06h1.23c.13,0,.17-.06.17-.28Z" style="fill:#1d1d1b"/><path d="M22,92.88V86.6h1.26l1.52,4.45c.14.41.23.72.3.92.06-.22.18-.56.33-1.06l1.5-4.31H28v6.28H27.2V87.63l-1.82,5.25h-.75l-1.82-5.33v5.33Z" style="fill:#1d1d1b"/><path d="M28.94,91.52l.79-.11a1.09,1.09,0,0,0,.36.69,1.53,1.53,0,0,0,1.6,0,.64.64,0,0,0,.26-.51.49.49,0,0,0-.23-.41,3.12,3.12,0,0,0-.8-.26,7.91,7.91,0,0,1-1.17-.36,1.22,1.22,0,0,1-.49-.44,1.09,1.09,0,0,1-.18-.61,1.13,1.13,0,0,1,.15-.57,1.28,1.28,0,0,1,.37-.43,1.94,1.94,0,0,1,.49-.22,2.76,2.76,0,0,1,1.6.06,1.27,1.27,0,0,1,.6.42,1.6,1.6,0,0,1,.26.71l-.74.1a.78.78,0,0,0-.3-.55,1,1,0,0,0-.7-.2,1.33,1.33,0,0,0-.76.17.54.54,0,0,0-.22.42.44.44,0,0,0,.09.27.54.54,0,0,0,.3.19c.07,0,.3.1.68.21a7.55,7.55,0,0,1,1.14.36,1.09,1.09,0,0,1,.5.4,1.17,1.17,0,0,1,.19.65,1.36,1.36,0,0,1-.22.73,1.43,1.43,0,0,1-.66.53,2.37,2.37,0,0,1-1,.19,2.16,2.16,0,0,1-1.35-.37A1.72,1.72,0,0,1,28.94,91.52Z" style="fill:#1d1d1b"/><path d="M33.84,92.88V92h.86v.88Z" style="fill:#1d1d1b"/><path d="M40.2,92.88V90.21L37.81,86.6h1.07l1.23,1.9c.23.34.44.7.64,1.06a9.75,9.75,0,0,1,.68-1.06l1.22-1.84h1l-2.5,3.61v2.66Z" style="fill:#1d1d1b"/><path d="M42.9,92.88l2.4-6.28h.89l2.56,6.28h-.92L47.16,91H44.51l-.69,1.9Zm1.85-2.57h2.13l-.65-1.74a10.86,10.86,0,0,1-.45-1.31,8.35,8.35,0,0,1-.34,1.21Z" style="fill:#1d1d1b"/><path d="M49.46,92.88V86.6h.9l3.3,4.93V86.6h.79v6.28h-.9l-3.29-5v4.94Z" style="fill:#1d1d1b"/><path d="M57.73,92.88v-.8l3.19-4q.31-.39.66-.75H58.07v-.73h4.51v.73l-3.52,4.36-.39.43h4v.75Z" style="fill:#1d1d1b"/><path d="M63.49,87.49V86.6h.8v.89Zm0,5.39V88.34h.8v4.54Z" style="fill:#1d1d1b"/><path d="M65.64,92.88V92h.87v.88a1.51,1.51,0,0,1-.17.8,1.19,1.19,0,0,1-.54.45l-.21-.33a.75.75,0,0,0,.35-.31,1.12,1.12,0,0,0,.12-.6Z" style="fill:#1d1d1b"/><path d="M70.4,92.88V86.6h2.13a5.3,5.3,0,0,1,1.12.1,2.09,2.09,0,0,1,.91.44,2.59,2.59,0,0,1,.73,1.06,4,4,0,0,1,.25,1.49A4.52,4.52,0,0,1,75.37,91a3.07,3.07,0,0,1-.42.92,2.21,2.21,0,0,1-.58.56,2.31,2.31,0,0,1-.74.32,5.05,5.05,0,0,1-1,.11Zm.8-.75h1.34a3.18,3.18,0,0,0,1-.11,1.28,1.28,0,0,0,.56-.33,1.85,1.85,0,0,0,.46-.79,3.8,3.8,0,0,0,.16-1.21,2.94,2.94,0,0,0-.32-1.51,1.5,1.5,0,0,0-.79-.7,3.16,3.16,0,0,0-1.06-.14H71.23Z" style="fill:#1d1d1b"/><path d="M76.63,87.49V86.6h.8v.89Zm0,5.39V88.34h.8v4.54Z" style="fill:#1d1d1b"/><path d="M78.57,92.88V88.34h.69V89a2,2,0,0,1,.49-.64,1,1,0,0,1,.5-.15,1.4,1.4,0,0,1,.79.25l-.26.71a1.07,1.07,0,0,0-.61-.16.62.62,0,0,0-.45.15.85.85,0,0,0-.29.43,2.89,2.89,0,0,0-.13.88v2.4Z" style="fill:#1d1d1b"/><path d="M84.6,91.38l.8.1a2.08,2.08,0,0,1-.7,1.07,2.13,2.13,0,0,1-3.46-1.91,2.57,2.57,0,0,1,.6-1.78,2.14,2.14,0,0,1,3,0,2.52,2.52,0,0,1,.58,1.75v.2H82a1.76,1.76,0,0,0,.42,1.14,1.26,1.26,0,0,0,1,.4,1.16,1.16,0,0,0,.72-.22A1.39,1.39,0,0,0,84.6,91.38Zm-2.52-1.24h2.54a1.56,1.56,0,0,0-.29-.86,1.28,1.28,0,0,0-1.79-.1l-.07.07a1.35,1.35,0,0,0-.39.92Z" style="fill:#1d1d1b"/><path d="M89.33,91.22l.8.09a2,2,0,0,1-.64,1.23,1.89,1.89,0,0,1-1.25.44,2,2,0,0,1-1.51-.61,2.52,2.52,0,0,1-.56-1.75,3.19,3.19,0,0,1,.25-1.29,1.69,1.69,0,0,1,.74-.8,2.09,2.09,0,0,1,1.07-.26A1.69,1.69,0,0,1,90,89.7l-.75.13a1.22,1.22,0,0,0-.38-.69,1,1,0,0,0-.65-.24,1.19,1.19,0,0,0-1,.43,1.92,1.92,0,0,0-.37,1.31,2.06,2.06,0,0,0,.31,1.28,1.13,1.13,0,0,0,.91.41,1.07,1.07,0,0,0,.76-.28A1.34,1.34,0,0,0,89.33,91.22Z" style="fill:#1d1d1b"/><path d="M92.42,92.18l.12.69a2.88,2.88,0,0,1-.59.07,1.2,1.2,0,0,1-.64-.14.75.75,0,0,1-.33-.35,2.73,2.73,0,0,1-.09-.9V88.94h-.57v-.6h.57V87.2l.8-.46v1.6h.78v.6h-.78v2.65a1,1,0,0,0,0,.42.26.26,0,0,0,.12.15.66.66,0,0,0,.27.06A1.32,1.32,0,0,0,92.42,92.18Z" style="fill:#1d1d1b"/><path d="M92.89,90.61a2.36,2.36,0,0,1,.7-1.88,2.19,2.19,0,0,1,1.43-.5,2,2,0,0,1,1.53.61,2.33,2.33,0,0,1,.6,1.7,3,3,0,0,1-.27,1.38,1.82,1.82,0,0,1-.8.8A2.29,2.29,0,0,1,95,93a2,2,0,0,1-1.57-.55A2.48,2.48,0,0,1,92.89,90.61Zm.8,0a2,2,0,0,0,.38,1.3,1.28,1.28,0,0,0,1.79.13v0l.12-.11a2,2,0,0,0,.37-1.32A1.87,1.87,0,0,0,96,89.3a1.28,1.28,0,0,0-1.8-.11.63.63,0,0,0-.12.11,1.87,1.87,0,0,0-.39,1.31Z" style="fill:#1d1d1b"/><path d="M98,92.88V88.34h.7V89a2,2,0,0,1,.49-.64,1,1,0,0,1,.49-.15,1.4,1.4,0,0,1,.79.25l-.26.71a1.14,1.14,0,0,0-.57-.16.62.62,0,0,0-.45.15.85.85,0,0,0-.29.43,2.89,2.89,0,0,0-.13.88v2.4Z" style="fill:#1d1d1b"/><path d="M57.09,59.36c0-.38-.06-.57-.16-.57a8.64,8.64,0,0,1-.41,1.31c0,.07-.14.11-.24.2H55.15a3.11,3.11,0,0,1-.23-.28V58.51c.24-.2.53-.42.79-.66a12.34,12.34,0,0,0,1.07-1.16c.33-.1.49-.2.49-.29a5.66,5.66,0,0,0-.94-.89q-.55.9-1,1.47a5.62,5.62,0,0,1-.48.64V55.49c.2-.17.32-.31.32-.42A11.4,11.4,0,0,0,54,54.66v3.77a14.72,14.72,0,0,1-1.17,1.06.29.29,0,0,1,0,.13c.39-.19.78-.4,1.16-.63V60.4a1.66,1.66,0,0,0,.17.47,1.56,1.56,0,0,0,.34.23h2.29a.74.74,0,0,0,.27-.19,1.16,1.16,0,0,0,.33-.4.84.84,0,0,0,.08-.27,1.15,1.15,0,0,1-.41-.91" style="fill:#b19470"/><path d="M57.09,59.36c0-.38-.06-.57-.16-.57a7.64,7.64,0,0,1-.41,1.31,1.21,1.21,0,0,1-.24.21H55.15L54.92,60V58.51c.24-.2.53-.42.79-.66a12.34,12.34,0,0,0,1.07-1.16c.33-.1.49-.2.49-.29a6.67,6.67,0,0,0-.94-.9c-.37.61-.69,1.06-1,1.48a5.62,5.62,0,0,1-.48.64V55.49c.2-.16.32-.3.32-.41A8.7,8.7,0,0,0,54,54.67v3.77a13,13,0,0,1-1.17,1.06.29.29,0,0,1,0,.13c.39-.19.77-.4,1.15-.63v1.41a2.07,2.07,0,0,0,.18.47.89.89,0,0,0,.34.23h2.29a.74.74,0,0,0,.27-.19,1.23,1.23,0,0,0,.33-.39.57.57,0,0,0,.08-.28,1.13,1.13,0,0,1-.41-.91" style="fill:#b19470"/><path d="M56.75,52.24a6.51,6.51,0,0,0-.63.76H55.2v-.71c.22-.16.25-.25.25-.28h0a11.51,11.51,0,0,0-1.16-.32l.1.65V53h-1.7v-.63c.12-.15.27-.29.27-.4a6.79,6.79,0,0,0-1.15-.32l.06.65V53H50.71l-1-.16.41.57.32-.18h1.41v.32l0,.8a1.41,1.41,0,0,0,.41,0,1,1,0,0,0,.34-.12l.16-.08v-.9h1.71v1.18h.39l.51-.12-.09-.7v-.28h2.2l.09-.16a5.49,5.49,0,0,0-.76-.9" style="fill:#b19470"/><path d="M56.75,52.24a6.51,6.51,0,0,0-.63.76H55.2v-.71c.22-.16.25-.25.25-.28h0c-.8-.23-1.07-.33-1.16-.33l.1.66V53H52.68v-.63c.12-.15.27-.29.27-.4a6.72,6.72,0,0,0-1.14-.33l.06.66V53H50.71l-1-.16.41.57.31-.18h1.42v.32l0,.8a1.41,1.41,0,0,0,.41,0,1,1,0,0,0,.34-.12l.15-.08v-.9h1.72v1.18h.39l.51-.12-.09-.7v-.28h2.2l.09-.16a5.49,5.49,0,0,0-.76-.9" style="fill:#b19470"/><path d="M51.84,54.68a15.32,15.32,0,0,1-.8,1.81,11.5,11.5,0,0,1-1.2,1.72.28.28,0,0,1,0,.13,10,10,0,0,0,1.58-1.24v4.16a1.65,1.65,0,0,0,.32-.06,3.06,3.06,0,0,0,.58-.27V57.39c.11-.17.24-.26.24-.33V57l-.72-.28c.25-.33.56-.72.88-1.19.19-.12.29-.22.29-.34a11.33,11.33,0,0,0-1.13-.49" style="fill:#b19470"/><path d="M51.84,54.68a15.32,15.32,0,0,1-.8,1.81,11.5,11.5,0,0,1-1.2,1.72.28.28,0,0,1,0,.13,10,10,0,0,0,1.58-1.24v4.16a1.65,1.65,0,0,0,.32-.06,3.06,3.06,0,0,0,.58-.27V57.39c.11-.17.24-.26.24-.33V57l-.72-.28c.25-.33.56-.72.88-1.2.19-.11.29-.21.29-.33a11.33,11.33,0,0,0-1.13-.49" style="fill:#b19470"/><path d="M66.44,58.79c0,.24.14.38.23.41a.44.44,0,0,0,.37-.12.51.51,0,0,0,.2-.44.7.7,0,0,0-.2-.49,1.39,1.39,0,0,0-.44-.36.64.64,0,0,0-.32-.13V58a1.31,1.31,0,0,1,.13.55v.25" style="fill:#b19470"/><path d="M66.44,58.79c0,.24.14.38.23.41a.44.44,0,0,0,.37-.12.51.51,0,0,0,.2-.44.7.7,0,0,0-.2-.49,1.39,1.39,0,0,0-.44-.36.64.64,0,0,0-.32-.13V58a1.31,1.31,0,0,1,.13.55v.25" style="fill:#b19470"/><path d="M69.19,57.3a3.33,3.33,0,0,0,.07.54.29.29,0,0,0,.24.26.44.44,0,0,0,.37-.16,1.06,1.06,0,0,0,.22-.42.4.4,0,0,1,.06-.22,2.64,2.64,0,0,0-.56-.68,4.57,4.57,0,0,0-.47-.29c-.15-.06-.23-.08-.27,0s0,.18.12.39a1.89,1.89,0,0,1,.22.6" style="fill:#b19470"/><path d="M69.19,57.3a3.33,3.33,0,0,0,.07.54.24.24,0,0,0,.24.26.43.43,0,0,0,.37-.16,1.06,1.06,0,0,0,.22-.42.4.4,0,0,1,.06-.22,2.64,2.64,0,0,0-.56-.68,4.57,4.57,0,0,0-.47-.29c-.15-.06-.23-.08-.27,0s0,.18.12.39a1.89,1.89,0,0,1,.22.6" style="fill:#b19470"/><path d="M72,55c-.16-.23-.27-.32-.31-.32s-.18.17-.42.56H71V53.53c.22-.17.26-.3.26-.42a10.8,10.8,0,0,0-1.13-.4l.08.74v1.77h-.61a7.28,7.28,0,0,1-.8-.1l.37.47.37-.1h.68V60.1a.51.51,0,0,1-.34.17,6,6,0,0,1-.84-.09c0,.11.12.24.35.38a1.32,1.32,0,0,1,.54.73,1.4,1.4,0,0,0,.41-.06,2.35,2.35,0,0,0,.37-.14.49.49,0,0,0,.22-.25.42.42,0,0,0,.09-.16V55.49h1.06c.07,0,0-.27-.16-.51" style="fill:#b19470"/><path d="M72,55c-.16-.23-.27-.32-.31-.32s-.18.17-.42.56H71V53.53c.22-.17.26-.3.26-.42-.37-.15-.74-.28-1.13-.4l.08.74v1.77h-.61a7.28,7.28,0,0,1-.8-.1l.37.47.36-.1h.69V60.1a.51.51,0,0,1-.34.17,6,6,0,0,1-.84-.09c0,.12.12.24.35.38a1.32,1.32,0,0,1,.54.73,1,1,0,0,0,.41-.06,1.78,1.78,0,0,0,.36-.14.47.47,0,0,0,.23-.25.42.42,0,0,0,.09-.16V55.49h1.06c.07,0,0-.27-.16-.51" style="fill:#b19470"/><path d="M69.63,59l-1.71.26.2-.35a5.21,5.21,0,0,1,.5-.88c.16-.1.23-.19.23-.24l-.92-.33-.46,1.87-1.64.27a5.1,5.1,0,0,0,.49,1.06.27.27,0,0,0,.22-.16l.1-.11c1.06-.44,2.06-.8,3-1.21Z" style="fill:#b19470"/><path d="M69.63,59l-1.71.26.2-.35a5.21,5.21,0,0,1,.5-.88c.16-.1.23-.19.23-.24l-.92-.33-.46,1.87-1.64.27a5.1,5.1,0,0,0,.49,1.06.27.27,0,0,0,.22-.16l.1-.11c1.06-.44,2.06-.8,3-1.21Z" style="fill:#b19470"/><path d="M68.78,55.26a2.06,2.06,0,0,0-.31-.28,1.21,1.21,0,0,0-.35-.24l-.28.3h-.72a8.65,8.65,0,0,0-1-.35l.07.57v1.2l-.06.86a2.63,2.63,0,0,0,.79-.09V57h.85v.31a1.77,1.77,0,0,0,.46,0,2,2,0,0,0,.34-.12l-.09-.74v-.91c.17-.15.27-.22.25-.24M67,56.73V55.41a.11.11,0,0,1,.07-.06h.8v1.36Z" style="fill:#b19470"/><path d="M68.78,55.26a2.06,2.06,0,0,0-.31-.28,1.48,1.48,0,0,0-.35-.25l-.27.31h-.73a8.65,8.65,0,0,0-1-.35l.07.57v1.2l-.06.86a2.63,2.63,0,0,0,.79-.09V57h.85v.31a1.77,1.77,0,0,0,.46,0,2,2,0,0,0,.34-.13l-.09-.73v-1c.17-.14.27-.22.25-.24M67,56.69V55.41a.11.11,0,0,1,.07-.06h.8v1.36Z" style="fill:#b19470"/><path d="M69,53.55a2.58,2.58,0,0,0-.32-.34,1.61,1.61,0,0,0-.24.28,2.65,2.65,0,0,0-.21.26H66.8l-.8-.1.26.5.39,0h2.51a.69.69,0,0,0-.21-.52" style="fill:#b19470"/><path d="M69,53.55a2.65,2.65,0,0,0-.33-.34,1.61,1.61,0,0,0-.24.28l-.23.26H66.8l-.8-.1.25.5.4,0h2.51a.71.71,0,0,0-.2-.52" style="fill:#b19470"/><path d="M72,52.34a8.26,8.26,0,0,0-.88-.8,6.55,6.55,0,0,0-.58.6H65.91c-.79-.26-1.15-.41-1.21-.41l.08.69v5.63a4.59,4.59,0,0,1-.08,1.15,11.42,11.42,0,0,1-.5,1.73c.09.07.25-.06.47-.44a5.21,5.21,0,0,0,.52-1.06A6.8,6.8,0,0,0,65.48,58c.06-.62.1-2.4.1-5.33h6.3a.5.5,0,0,1,.08-.2" style="fill:#b19470"/><path d="M72,52.34a8.26,8.26,0,0,0-.88-.8,6.55,6.55,0,0,0-.58.6H65.91c-.79-.26-1.15-.41-1.21-.41l.08.69v5.63a4.59,4.59,0,0,1-.08,1.15,11.42,11.42,0,0,1-.5,1.73c.09.07.25-.06.47-.43a5.21,5.21,0,0,0,.52-1.06A8.42,8.42,0,0,0,65.48,58c.06-.62.1-2.4.1-5.33h6.3a1.19,1.19,0,0,1,.08-.2" style="fill:#b19470"/><path d="M109.19,23.75c-.32-.28-.7-.52-1.06-.78a.63.63,0,0,0-.79-.16c-.1.21-.13.44-.24.53a7.59,7.59,0,0,1-1.45.86c-.8.34-1.72.57-2.56.87a1.5,1.5,0,0,1-1.78-.45,2.22,2.22,0,0,0-2.38-.9c-.64.51-.1,1.07.26,1.55.66.8,1.07,1.23.25,2.13-.44.46-.9.75-1.32.11A2.21,2.21,0,0,1,98.05,26a.42.42,0,0,0-.29-.51h0a.4.4,0,0,0-.39.1c-.15.21-.25.22-.36.39A6.93,6.93,0,0,1,95.34,28a6.23,6.23,0,0,1-1.33.42.5.5,0,0,1-.29-.24c-.06-.36-.16-.41-.1-.76.23-1.24.49-2.46.79-3.67a29.05,29.05,0,0,0,1-2.76c.06-.4.09-.54-.28-.8-.16-.11-1.06-.38-1.06,0a8.84,8.84,0,0,1-.25.88c-.4,1.07-.86,2.13-1.18,3.2-.09.29-.28,1.06-.31,1.06a7,7,0,0,1-.79,1.42c-.1.16-.58.52-.88.85a4,4,0,0,1-.68.61,9.62,9.62,0,0,1-1.07.73.92.92,0,0,1-.61.07c-.07,0-.12-.3-.1-.46.11-.76.37-1.5,1.51-1.55.19,0,.63,0,.55-.19A1.71,1.71,0,0,0,88.14,26a7.79,7.79,0,0,0-1.51.8,13.32,13.32,0,0,0-1.89,1.63c-.33.35-.67.9-1.06,1.06s-.39-.05-.37-.28a3.6,3.6,0,0,1,.11-1c.43-1.22-2.18-1.33-2.81-1.36a5,5,0,0,0-4,1.26c-1.07,1.07-2.07,1.9-2.94,2.82a1.86,1.86,0,0,1-1.14.36,1.05,1.05,0,0,1-1.06-1.06v-.11c.1-.8.6-.59,1.16-.75,2-.56-.4-1.93-1.77-1.22a6.92,6.92,0,0,0-2,1.31h0c-.41.44-1.3,1.77-2,1.53s0-1.44-.7-1.93a7.18,7.18,0,0,0-2.53-.62,5.29,5.29,0,0,0-3.73,1.6c-.72.69-1.86,2.78-2.92,1.73-.65-.62-.53-1.82-1.13-2.46a6.49,6.49,0,0,0-1.4-.62,8.09,8.09,0,0,1-.5.79c-.22.22-.45.43-.68.62l-.45-.32-1.07-.46a1.1,1.1,0,0,0-1,0c-.29.13-.55.3-.84.46-.15-.22-.2-.45-.35-.53A15.91,15.91,0,0,0,48,28.57c-.34-.13-.52.08-.63.39a.68.68,0,0,1-.24.36c-.69.51-1.41,1-2.13,1.51s-.79.56-1.52,0-1-.42-1.3.41c-.06.13-.07.27-.12.39a4.23,4.23,0,0,1-.29.8c-.11.25-.34.45-.45.71a4.56,4.56,0,0,1-1,1.19.63.63,0,0,1-.54.21c-.32-.09-.33-.42-.26-.7a5.15,5.15,0,0,1,1.56-3L42,30c.32-.29.36-.58,0-.79a4.15,4.15,0,0,0-1.07-.49.17.17,0,0,0-.14,0A3.39,3.39,0,0,0,39.5,29.9c-.16.19-.32.56-.47.79a4.93,4.93,0,0,0-.8,2.13c-.34,1.66-.13,2.25,1.17,3.19a2.54,2.54,0,0,0,3.12-.73c.37-.64.67-1.36,1.06-2s.36-.76,1.07-.5a1.07,1.07,0,0,0,.8-.1,8,8,0,0,0,1.15-.86c.24-.2.42-.51.91-.44l-.68,2.13c0,.15-.09.37,0,.47a6.7,6.7,0,0,0,.85,1.06c.39.36.76.23,1-.28a11.48,11.48,0,0,1,2.13-3.07c.13-.13.32-.46.57-.32s0,.48,0,.65a2.14,2.14,0,0,0,1.06,2.13A.73.73,0,0,0,53,34a9.75,9.75,0,0,0,.49-.9l1-1.58a.29.29,0,0,1,.4-.13.24.24,0,0,1,.13.13c.36.56.65,1.18,1.07,1.71.84,1.07,2.38-.24,3.11-.86l.09-.09h0l.16-.15c.28-.25.51-.7.84-.86.84-.41.44-.06.61.56A2.28,2.28,0,0,0,62,33.26a1.15,1.15,0,0,0,1.39-.15c.44-.4,1-1.34,1.66-1.34s1.07.58,1.59.8c.88.33,1.2-.08,1.85-.65.36-.33.71-.65,1.07-1s.42-.12.6.11.55.69.85,1a1.94,1.94,0,0,0,1.6.44,1.65,1.65,0,0,0,.89-.26A2.65,2.65,0,0,0,74,32c.74-.66,1.39-1.06,2.13-1.73l.29-.35a3.47,3.47,0,0,1,1.36-1.07,5.51,5.51,0,0,0-.16.6,1.29,1.29,0,0,0,0,.48,2.25,2.25,0,0,0,1.12,1.47,1.2,1.2,0,0,0,1.36-.14c.59-.55,1.16-1.12,1.8-1.73l.65.73a1,1,0,0,0,1,.35,3.91,3.91,0,0,0,2.13-1.73,1.68,1.68,0,0,1,1.06-.67c-.06.39-.25.8-.15,1.07.6,1.51,1.73,2.19,3.2,1.06a6.85,6.85,0,0,0,1-1.06c.28-.36.78-.79,1.06-1.17.14-.19.25-.34.43-.31s.16.19.24.33a10.55,10.55,0,0,0,.74,1.36,1.38,1.38,0,0,0,1.52.58,4.06,4.06,0,0,0,1.06-.48c.4-.27.61-1,.9-.63a1.65,1.65,0,0,0,2.21.73.77.77,0,0,0,.18-.1,5.8,5.8,0,0,0,2.65-2.46.49.49,0,0,1,.47-.3,13.7,13.7,0,0,0,2.13-.16A27.88,27.88,0,0,0,108.91,25a.65.65,0,0,0,.42-.8h0a.65.65,0,0,0-.26-.35M62.75,31.42a.35.35,0,0,1-.2-.26h0c-.23-.76,1-2,1.74-1.52.53.35-.93,2-1.54,1.78m16.66-1.73a.4.4,0,0,1-.11-.49c.2-1,.38-1.6,1.33-1.56a1,1,0,0,1,.57.14l.11.06a4.46,4.46,0,0,1-1.9,1.85" style="fill:#b19470"/><path d="M39.71,16.7c0-.12.19-.28.31-.29,1.13-.11,2.23-.42,3.37-.47a2,2,0,0,0,.65-.07h0L46,15.63h0l3.94-.5h0a3.86,3.86,0,0,0,.76-.1h.53l3.91-.5,15.58-1.6L73,12.86v-.19l-.73-.47h0a2.44,2.44,0,0,0-.43-.28h0a7.31,7.31,0,0,0-.52-.61l-.86-.54a.59.59,0,0,0-.34-.1,8.54,8.54,0,0,0-1.06.2c-.6.09-1.2.18-1.79.24l-6.08.8c-1.13.16-2.27.22-3.41.33a19.17,19.17,0,0,1-2.4.28c-.56,0-3.06.26-3.64.29h0c-.09,0-8.61.8-8.81.85L41,13.89l-6.18.65-4.69.5c-.57.06-1.17,0-1.73.07-1.49.2-3,.44-4.47.69-1.87.31-3.72.65-5.58,1-1.23.2-2.45.36-3.67.59-.36.06-.71.12-1.06.21a9.6,9.6,0,0,0-1.17.26h0a9.48,9.48,0,0,0,.8.88,2.67,2.67,0,0,0,2.31,1.06h.35a5,5,0,0,0,.8-.12c.87-.12,1.75-.21,2.64-.35L25,18.39c.8-.12,1.59-.21,2.39-.35,1.18-.2,2.35-.46,3.53-.65,1-.16,2-.26,3-.39l3.26-.37h0a3.56,3.56,0,0,1-.09.73c-.07.26-.21.49-.3.74l-1.59,4.78c-.12.38-1.24,3.81-1.3,4-.32,1.13-.59,2.26-.92,3.38-.25.88-.61,1.72-.88,2.59-.48,1.51-.93,3-1.39,4.55s-.8,3-1.23,4.48a6,6,0,0,1-.44.92,11.65,11.65,0,0,1-.62,1.06h0a4,4,0,0,0,.6.63c.43.23.89.4,1.34.63.68.34,1.07.15,1.22-.6.28-1.2.62-2.39.94-3.6a21,21,0,0,1,.88-3.19c.39-.91,1.06-4.26,1.27-5,.42-1.51.87-3,1.31-4.52.22-.75.45-1.49.71-2.22.18-.55.42-1.07.6-1.64.36-1.13.67-2.27,1.07-3.4.22-.73.46-1.49.69-2.22s.42-1.31.64-1.95" style="fill:#b19470"/></g></g></svg>