<svg id="c886287d-bec7-43f4-bbb7-875f6e85720a" data-name="gold" xmlns="http://www.w3.org/2000/svg" width="163.33" height="80" viewBox="0 0 163.33 80"><title>05</title><g id="ed69570d-94c1-461e-a21f-ab60e15127a5" data-name="05"><g id="fc1eacb5-8c56-4a7d-b77a-e460ffae8914" data-name="54a1115c-6acc-469b-a096-330f71960951"><path d="M45.38,22.82v7.35c0,.3-.23.44-.54.47a.47.47,0,0,1-.55-.47v-5a3.58,3.58,0,0,1-.38.55.6.6,0,0,1-.85.09h0c-.26-.22-.16-.65,0-.89a10,10,0,0,0,1.78-5,.53.53,0,0,1,.54-.51h.12a.62.62,0,0,1,.44.74A27.37,27.37,0,0,1,45.38,22.82ZM54.8,21H54v7.5c0,1.08-.3,1.73-.91,2a5.64,5.64,0,0,1-3.25-.28.61.61,0,0,1-.35-.79.62.62,0,0,1,.72-.37,5.21,5.21,0,0,0,2.18.36c.33-.06.51-.33.51-.87V21H46.75a.53.53,0,0,1-.61-.46.55.55,0,0,1,.46-.61h8.2c.27,0,.41.23.41.53S55.07,21,54.8,21Zm-3.19,6.65a1.32,1.32,0,0,1-.88.23H47.87c-.84,0-1.13-.22-1.13-1.07V23.39a1,1,0,0,1,.85-1.13h3.22c.75,0,1.08.34,1.08,1.14v3.42A1.16,1.16,0,0,1,51.61,27.65Zm-.81-3.87c0-.44-.13-.49-.55-.49H48.38c-.45,0-.58.1-.58.56v2.52c0,.39,0,.5.44.5h2.14c.27,0,.38-.13.38-.5Z" style="fill:#1d1d1b"/><path d="M67.64,22.85H65.77a21.8,21.8,0,0,0,2.19,7,.53.53,0,0,1-.25.71h0a.47.47,0,0,1-.64-.22.05.05,0,0,1,0,0,14.42,14.42,0,0,1-1.65-4.9A11.94,11.94,0,0,1,63.6,30.3a.68.68,0,0,1-.38.31.53.53,0,0,1-.47-.08.46.46,0,0,1-.16-.18,1.15,1.15,0,0,1-.65.17H57.53a.84.84,0,0,1-.93-.74.48.48,0,0,1,0-.17V23.82a.88.88,0,0,1,1-1h.92V21.68H56.58a.42.42,0,0,1-.42-.42v0a.42.42,0,0,1,.4-.44H58.1c-.22-.3-.52-.67-.74-.91a.43.43,0,0,1,0-.62s0,0,0,0a.49.49,0,0,1,.69,0l0,0A7.75,7.75,0,0,1,59,20.39a.6.6,0,0,1,.08.39h1.58a.49.49,0,0,1,.12-.32,6.47,6.47,0,0,0,.79-1.19.43.43,0,0,1,.57-.2.41.41,0,0,1,.11.07.48.48,0,0,1,.18.64l0,0a6.18,6.18,0,0,1-.66,1h1.35a.45.45,0,0,1,.39.44.47.47,0,0,1-.37.45h-2v1.16h.77c.71,0,1.06.29,1.06.94v5.39a12.9,12.9,0,0,0,1.63-6.34H63.31c-.3,0-.44-.17-.48-.47a.46.46,0,0,1,.42-.51H64.6V19.74a.52.52,0,0,1,.45-.59.53.53,0,0,1,.6.45.33.33,0,0,1,0,.14v2.12h2a.46.46,0,0,1,.48.42v.07C68.09,22.67,67.94,22.85,67.64,22.85ZM62,26.48h-.84c-.62,0-1-.23-1-.91V23.75h-.76a3.54,3.54,0,0,1-.92,2.76.55.55,0,0,1-.78,0l0,0c-.23-.27,0-.52.17-.71a2.55,2.55,0,0,0,.64-2.08h-.65a.28.28,0,0,0-.3.24v3.52H62Zm0,1.89H57.55v.89c0,.23.09.31.33.31H61.7c.21,0,.28-.14.28-.31Zm-1.8-6.7h-.8v1.19h.76ZM62,24.08c0-.23-.11-.33-.29-.33H61.1v1.5c0,.25.12.33.31.33H62Zm5.53-2.52a.41.41,0,0,1-.59,0l0,0-.34-.39a7.37,7.37,0,0,1-.65-.9c-.18-.26-.18-.43,0-.62a.52.52,0,0,1,.71.1,7.44,7.44,0,0,1,1,1.24A.52.52,0,0,1,67.51,21.56Z" style="fill:#1d1d1b"/><path d="M75.17,20.13c-1.46.22-3.06.43-3.92.49-.11,0-.26.12-.26.21v.8h3.44a.66.66,0,0,1,.57.24,1.12,1.12,0,0,1,.14.59v1.92a.86.86,0,0,1-.16.56.8.8,0,0,1-.62.22H71a13.94,13.94,0,0,1-.69,4.71.54.54,0,0,1-.46.36.56.56,0,0,1-.48-.23.47.47,0,0,1-.06-.47A15.53,15.53,0,0,0,70,24.19V20.55a1,1,0,0,1,.17-.6.87.87,0,0,1,.53-.24c1.41-.14,2.9-.32,4.35-.57a.56.56,0,0,1,.43.12.54.54,0,0,1,.14.51A.49.49,0,0,1,75.17,20.13Zm-1,2.63A.21.21,0,0,0,74,22.6H71v1.6H74a.19.19,0,0,0,.18-.2h0ZM75,30a.74.74,0,0,1-.6.18h-2.3a.87.87,0,0,1-.69-.21.89.89,0,0,1-.18-.65V26.79a.85.85,0,0,1,.16-.61A1,1,0,0,1,72,26h2.3a.86.86,0,0,1,.63.2.91.91,0,0,1,.18.64v2.58A.72.72,0,0,1,75,30Zm-.82-2.8A.22.22,0,0,0,74,27H72.38a.21.21,0,0,0-.18.2V29c0,.07.09.19.17.19H74a.26.26,0,0,0,.2-.19Zm6.45,3.54a.55.55,0,0,1-.46-.12,8.45,8.45,0,0,1-2-2.49,13.59,13.59,0,0,1-2.36,2.66.41.41,0,0,1-.46.05.54.54,0,0,1-.35-.42.43.43,0,0,1,.16-.39,13,13,0,0,0,2.47-3,17.06,17.06,0,0,1-.91-3.61,4.3,4.3,0,0,1-.38.81.52.52,0,0,1-.44.27.55.55,0,0,1-.51-.25.51.51,0,0,1,0-.53,13.18,13.18,0,0,0,1.28-4.21.52.52,0,0,1,.27-.4.59.59,0,0,1,.45,0,.56.56,0,0,1,.23.5,3.4,3.4,0,0,1-.08.64h2.85a.51.51,0,0,1,.43.2.59.59,0,0,1,0,.52.47.47,0,0,1-.46.29h-.3a16.78,16.78,0,0,1-1.32,5.8,11.92,11.92,0,0,0,2.12,2.82.55.55,0,0,1,.14.44.52.52,0,0,1-.4.39Zm-3.24-9.45a17.88,17.88,0,0,0,.76,4.42A16.56,16.56,0,0,0,79,21.25Z" style="fill:#1d1d1b"/><path d="M89.06,20.56H83.12a.51.51,0,0,1-.57-.44v-.05a.51.51,0,0,1,.52-.5h6a.51.51,0,0,1,.5.5.5.5,0,0,1-.5.5Zm.12,9.66a1.25,1.25,0,0,1-.86.21H83.79c-.73,0-1.08-.28-1.08-.93V25.6a.87.87,0,0,1,1-1h4.67a.87.87,0,0,1,1,1v3.87A1,1,0,0,1,89.18,30.22Zm-.32-6.5a1,1,0,0,1-.71.19H83.84a.81.81,0,0,1-.91-.91V21.87c0-.62.39-.74.93-.74h4.32a1,1,0,0,1,.68.18A1,1,0,0,1,89,22v1A1,1,0,0,1,88.86,23.72Zm-3.31,1.81H84c-.19,0-.28.09-.28.27V27h1.82Zm0,2.51H83.73v1.18c0,.17.09.27.3.27h1.52ZM88,22.26c0-.13,0-.18-.19-.18H84.18c-.19,0-.24.07-.24.21v.45c0,.17,0,.22.24.22h3.66c.13,0,.17,0,.17-.19Zm.37,3.54c0-.18-.08-.27-.26-.27H86.57V27h1.81Zm0,2.2H86.57v1.45h1.58c.17,0,.24-.08.24-.27Zm2.32,0a.5.5,0,0,1-.5-.51v-7.2c0-.3.18-.46.49-.48a.44.44,0,0,1,.52.45v7.23a.52.52,0,0,1-.45.57h-.05ZM91,30.21c-.29-.1-.37-.36-.28-.69a.51.51,0,0,1,.64-.33h0a3.48,3.48,0,0,0,1,.24c.1,0,.15,0,.15-.2V19.83a.56.56,0,0,1,.48-.62h.08c.34,0,.52.23.52.61v9.82c0,1.08-.92,1.25-2.61.64Z" style="fill:#1d1d1b"/><path d="M106.38,30.14H95.93a.53.53,0,0,1-.6-.47v-.11a.55.55,0,0,1,.53-.56h4.76V25.94H97.06a.57.57,0,0,1-.67-.47.37.37,0,0,1,0-.11c0-.38.24-.59.65-.59h3.57V22.94a.59.59,0,0,1,.59-.59.6.6,0,0,1,.59.59v1.83h3.66a.59.59,0,0,1,.66.51.59.59,0,0,1-.51.66H101.8V29h4.58c.4,0,.66.21.66.57S106.82,30.14,106.38,30.14Zm-.31-8.08H96.38a.62.62,0,0,1-.71-.52v-.06a.6.6,0,0,1,.68-.6h4.25V19.81c0-.42.21-.67.59-.68s.59.25.59.65v1.1h4.27a.55.55,0,0,1,.57.51v.07a.54.54,0,0,1-.46.6h-.09Z" style="fill:#1d1d1b"/><path d="M119.63,23.2h-1.84V24c0,.92-.27,1.1-1.17,1.1h-1V26h2.85c.75,0,1.11.25,1.11.79v2.7c0,.91-.93,1.19-2.75.93a.55.55,0,0,1-.51-.58.22.22,0,0,1,0-.08c.07-.34.34-.44.69-.4a3.34,3.34,0,0,0,1.26,0,.29.29,0,0,0,.19-.15,2.41,2.41,0,0,0,0-.38v-1.5c0-.26-.09-.33-.36-.33h-2.52v3.28a.55.55,0,1,1-1.09.15.38.38,0,0,1,0-.15V27h-2.11c-.25,0-.38.12-.38.46v2.59a.51.51,0,0,1-.46.56h-.06a.49.49,0,0,1-.54-.43V27a1,1,0,0,1,.26-.78,1.65,1.65,0,0,1,.92-.22h2.37v-.9h-1.12a1.37,1.37,0,0,1-1-.24,1.23,1.23,0,0,1-.26-.93V23.2h-1.74v3.05a9.11,9.11,0,0,1-.82,3.75.59.59,0,0,1-.75.34.52.52,0,0,1-.3-.67l0-.06a.36.36,0,0,1,.1-.23,6.85,6.85,0,0,0,.68-3.18V21.13c0-.78.35-1.12,1.13-1.12h3.44v-.52c0-.31.21-.49.55-.49s.55.18.55.49V20h4.53c.3,0,.46.2.46.51s-.16.51-.46.51h-1.73v1.17h1.84a.52.52,0,0,1,.6.4.51.51,0,0,1-.4.6.34.34,0,0,1-.2,0ZM112.19,21h-1.55c-.26,0-.26.15-.26.37v.82h1.86Zm4.54,0h-3.49v1.19h3.49Zm0,2.17h-3.49v.68c0,.19.06.26.32.26h2.88c.18,0,.29-.07.29-.32Z" style="fill:#1d1d1b"/><path d="M11.38,45.93v-9.3h1.85l2.21,6.59c.2.61.35,1.07.44,1.37.11-.33.27-.83.5-1.49l2.22-6.47h1.66v9.3H19.07V38.14l-2.69,7.79H15.26L12.57,38v7.92Z" style="fill:#1d1d1b"/><path d="M22.09,45.93V39.19h1v1a2.75,2.75,0,0,1,.72-.94,1.31,1.31,0,0,1,.77-.25,2.22,2.22,0,0,1,1.17.37l-.37,1.1a1.65,1.65,0,0,0-.84-.25,1.09,1.09,0,0,0-.67.23,1.21,1.21,0,0,0-.43.62,4.28,4.28,0,0,0-.19,1.33v3.53Z" style="fill:#1d1d1b"/><path d="M26,45.93v-1.3h1.34v1.3Z" style="fill:#1d1d1b"/><path d="M33.12,45.93v-9.3h1.26v3.82h4.84V36.63h1.16v9.3H39.19V41.55H34.38v4.38Z" style="fill:#1d1d1b"/><path d="M42.1,41.4a5.06,5.06,0,0,1,1.28-3.63,4.25,4.25,0,0,1,3.21-1.31,4.54,4.54,0,0,1,2.33.62,4.07,4.07,0,0,1,1.57,1.72,5.91,5.91,0,0,1,0,5,4,4,0,0,1-1.61,1.69,4.57,4.57,0,0,1-2.26.57,4.32,4.32,0,0,1-2.35-.63,4.07,4.07,0,0,1-1.57-1.74A5.07,5.07,0,0,1,42.1,41.4Zm1.27,0a3.76,3.76,0,0,0,.9,2.65,3.15,3.15,0,0,0,4.45.11l.11-.11a4,4,0,0,0,.9-2.77,4.76,4.76,0,0,0-.39-2A3,3,0,0,0,48.22,38a3.22,3.22,0,0,0-3.91.43,4,4,0,0,0-.93,3Z" style="fill:#1d1d1b"/><path d="M58.58,45.93V42L55,36.64h1.5l1.89,2.79c.34.53.65,1,.94,1.58.28-.49.61-1,1-1.65l1.8-2.73h1.44L59.81,42v3.94Z" style="fill:#1d1d1b"/><path d="M67.92,45.1a3.79,3.79,0,0,1-1.22.76,3.39,3.39,0,0,1-1.26.23,2.42,2.42,0,0,1-1.71-.55,1.74,1.74,0,0,1-.6-1.38A1.91,1.91,0,0,1,64,42.59a2.76,2.76,0,0,1,.82-.37,8.35,8.35,0,0,1,1-.17,9.69,9.69,0,0,0,2-.39v-.3a1.32,1.32,0,0,0-.32-1A2.49,2.49,0,0,0,65,40.28a1.74,1.74,0,0,0-.56,1l-1.07-.16a2.67,2.67,0,0,1,.5-1.16,2.24,2.24,0,0,1,1-.68,4.53,4.53,0,0,1,1.5-.28,4.43,4.43,0,0,1,1.4.2,2.11,2.11,0,0,1,.8.51,2,2,0,0,1,.35.78A6.28,6.28,0,0,1,69,41.55v1.52a14.8,14.8,0,0,0,.07,2,2.53,2.53,0,0,0,.29.81h-1.2A2.34,2.34,0,0,1,67.92,45.1Zm-.1-2.55A8,8,0,0,1,66,43a4.84,4.84,0,0,0-1,.23,1.08,1.08,0,0,0-.45.37,1,1,0,0,0-.16.54,1,1,0,0,0,.35.77,1.43,1.43,0,0,0,1,.3,2.28,2.28,0,0,0,1.17-.29,1.71,1.71,0,0,0,.76-.79A2.79,2.79,0,0,0,67.82,43Z" style="fill:#1d1d1b"/><path d="M75.17,45.93v-1A2.47,2.47,0,0,1,73,46.08a2.68,2.68,0,0,1-1.12-.23,1.74,1.74,0,0,1-.76-.58,2.1,2.1,0,0,1-.36-.84,6.34,6.34,0,0,1-.07-1.07V39.19h1.15v3.74a6.1,6.1,0,0,0,.07,1.21,1.18,1.18,0,0,0,.45.7,1.3,1.3,0,0,0,.87.26,1.85,1.85,0,0,0,1-.26,1.5,1.5,0,0,0,.64-.72,3.68,3.68,0,0,0,.19-1.32V39.19h1.14v6.74Z" style="fill:#1d1d1b"/><path d="M81.69,45.93v-9.3h1.23v4.61l4.62-4.61h1.67L85.3,40.4l4.08,5.53H87.76l-3.32-4.71-1.52,1.49v3.22Z" style="fill:#1d1d1b"/><path d="M94.66,45.1a3.79,3.79,0,0,1-1.22.76,3.39,3.39,0,0,1-1.26.23,2.42,2.42,0,0,1-1.71-.55,1.76,1.76,0,0,1-.59-1.38,1.83,1.83,0,0,1,.22-.91,2.07,2.07,0,0,1,.59-.66,3,3,0,0,1,.82-.37,8.35,8.35,0,0,1,1-.17,9.69,9.69,0,0,0,2-.39v-.3a1.32,1.32,0,0,0-.32-1,2,2,0,0,0-1.3-.38,2.06,2.06,0,0,0-1.19.28,1.72,1.72,0,0,0-.57,1L90,41.11a2.67,2.67,0,0,1,.5-1.16,2.24,2.24,0,0,1,1-.68,4.56,4.56,0,0,1,1.6-.27,4.43,4.43,0,0,1,1.4.2,2,2,0,0,1,.8.51,1.78,1.78,0,0,1,.35.78,6.28,6.28,0,0,1,.06,1.06v1.52a19,19,0,0,0,.07,2,2.53,2.53,0,0,0,.29.81H94.89A2.34,2.34,0,0,1,94.66,45.1Zm-.09-2.55A8.05,8.05,0,0,1,92.7,43a4.84,4.84,0,0,0-1,.23,1.08,1.08,0,0,0-.45.37,1.06,1.06,0,0,0-.16.54,1,1,0,0,0,.35.77,1.45,1.45,0,0,0,1,.3,2.32,2.32,0,0,0,1.18-.29,1.69,1.69,0,0,0,.75-.79,2.8,2.8,0,0,0,.2-1.11Z" style="fill:#1d1d1b"/><path d="M97.5,37.94V36.63h1.14v1.31Zm0,8V39.19h1.14v6.74Z" style="fill:#1d1d1b"/><path d="M100.68,45.93v-1.3H102v1.3a2.34,2.34,0,0,1-.25,1.16,1.64,1.64,0,0,1-.81.68l-.32-.48a1.17,1.17,0,0,0,.54-.47,2.26,2.26,0,0,0,.19-.89Z" style="fill:#1d1d1b"/><path d="M107.38,41.4a5.08,5.08,0,0,1,1.24-3.63,4.25,4.25,0,0,1,3.21-1.31,4.51,4.51,0,0,1,2.32.62,4.16,4.16,0,0,1,1.58,1.72,6,6,0,0,1,0,5,4,4,0,0,1-1.61,1.69,4.57,4.57,0,0,1-2.26.57,4.32,4.32,0,0,1-2.35-.63,4.07,4.07,0,0,1-1.57-1.74A5.19,5.19,0,0,1,107.38,41.4Zm1.26,0a3.72,3.72,0,0,0,.91,2.65,3.15,3.15,0,0,0,4.45.11l.11-.11a3.91,3.91,0,0,0,.89-2.77,4.75,4.75,0,0,0-.38-2A3,3,0,0,0,113.5,38a3.22,3.22,0,0,0-3.91.43,4,4,0,0,0-1,3Z" style="fill:#1d1d1b"/><path d="M117.7,45.93V39.19h1v1a2.78,2.78,0,0,1,.73-.94,1.26,1.26,0,0,1,.73-.23,2.25,2.25,0,0,1,1.18.37l-.4,1.06a1.65,1.65,0,0,0-.84-.25,1.09,1.09,0,0,0-.67.23,1.19,1.19,0,0,0-.42.62,4.28,4.28,0,0,0-.19,1.33v3.53Z" style="fill:#1d1d1b"/><path d="M122,45.93v-9.3h1.14v9.3Z" style="fill:#1d1d1b"/><path d="M129.38,45.1a3.79,3.79,0,0,1-1.22.76,3.39,3.39,0,0,1-1.26.23,2.42,2.42,0,0,1-1.71-.55,1.76,1.76,0,0,1-.59-1.38,1.83,1.83,0,0,1,.22-.91,2.07,2.07,0,0,1,.59-.66,3,3,0,0,1,.82-.37,8.35,8.35,0,0,1,1-.17,9.69,9.69,0,0,0,2-.39v-.3a1.32,1.32,0,0,0-.32-1,2,2,0,0,0-1.3-.38,2.06,2.06,0,0,0-1.19.28,1.72,1.72,0,0,0-.57,1l-1.12-.15a2.67,2.67,0,0,1,.5-1.16,2.24,2.24,0,0,1,1-.68,4.56,4.56,0,0,1,1.55-.27,4.5,4.5,0,0,1,1.41.2,2.07,2.07,0,0,1,.79.51,1.92,1.92,0,0,1,.36.78,7.53,7.53,0,0,1,0,1.06v1.52a19,19,0,0,0,.07,2,2.53,2.53,0,0,0,.29.81h-1.19A2.61,2.61,0,0,1,129.38,45.1Zm-.09-2.55a7.92,7.92,0,0,1-1.91.45,4.84,4.84,0,0,0-1,.23,1.08,1.08,0,0,0-.45.37,1.06,1.06,0,0,0-.16.54,1,1,0,0,0,.35.77,1.45,1.45,0,0,0,1,.3,2.32,2.32,0,0,0,1.18-.29,1.69,1.69,0,0,0,.75-.79,2.77,2.77,0,0,0,.19-1.14Z" style="fill:#1d1d1b"/><path d="M132.16,45.93V39.19h1v1A2.44,2.44,0,0,1,135.38,39a2.9,2.9,0,0,1,1.12.22,1.87,1.87,0,0,1,.76.57,2.28,2.28,0,0,1,.36.85,6.89,6.89,0,0,1,.06,1.11v4.14h-1.14v-4.1a3.39,3.39,0,0,0-.13-1,1.08,1.08,0,0,0-.48-.55,1.56,1.56,0,0,0-.79-.21,1.88,1.88,0,0,0-1.26.46,2.27,2.27,0,0,0-.53,1.76v3.68Z" style="fill:#1d1d1b"/><path d="M143.77,45.93v-.85a2.1,2.1,0,0,1-1.89,1,2.53,2.53,0,0,1-1.48-.45,2.85,2.85,0,0,1-1-1.23,4.11,4.11,0,0,1-.37-1.83,4.61,4.61,0,0,1,.34-1.83,2.63,2.63,0,0,1,1-1.26,2.74,2.74,0,0,1,1.5-.44,2.27,2.27,0,0,1,1.86.93V36.63h1.14v9.3Zm-3.62-3.36a3,3,0,0,0,.55,1.94,1.62,1.62,0,0,0,2.56,0,2.83,2.83,0,0,0,.53-1.87,3.16,3.16,0,0,0-.54-2,1.64,1.64,0,0,0-1.31-.64,1.57,1.57,0,0,0-1.27.62A3,3,0,0,0,140.15,42.57Z" style="fill:#1d1d1b"/><path d="M146.2,42.56a3.49,3.49,0,0,1,1-2.77,3.17,3.17,0,0,1,2.18-.79,3,3,0,0,1,2.27.91,3.49,3.49,0,0,1,.88,2.52,4.42,4.42,0,0,1-.39,2A2.75,2.75,0,0,1,151,45.59a3.22,3.22,0,0,1-1.63.42,3.06,3.06,0,0,1-2.29-.91A3.63,3.63,0,0,1,146.2,42.56Zm1.17,0a2.86,2.86,0,0,0,.57,1.94,1.87,1.87,0,0,0,2.83,0,2.91,2.91,0,0,0,.57-2,2.77,2.77,0,0,0-.57-1.9,1.87,1.87,0,0,0-2.65-.17,1,1,0,0,0-.18.17,2.76,2.76,0,0,0-.56,2Z" style="fill:#1d1d1b"/><path d="M42.5,61.93l-3.61-9.3h1.34l2.42,6.76c.19.54.35,1,.48,1.52.15-.51.32-1,.51-1.52l2.51-6.76h1.23l-3.65,9.3Z" style="fill:#1d1d1b"/><path d="M48.14,53.94V52.63h1.14v1.31Zm0,8V55.19h1.14v6.74Z" style="fill:#1d1d1b"/><path d="M55.38,59.46l1.12.15a3,3,0,0,1-.94,1.82,2.73,2.73,0,0,1-1.87.66,2.89,2.89,0,0,1-2.22-.91,3.68,3.68,0,0,1-.84-2.59A4.67,4.67,0,0,1,51,56.68a2.53,2.53,0,0,1,1.1-1.23A3.4,3.4,0,0,1,53.74,55a2.9,2.9,0,0,1,1.8.56,2.58,2.58,0,0,1,.89,1.57l-1.11.17a1.83,1.83,0,0,0-.56-1,1.52,1.52,0,0,0-1-.34,1.79,1.79,0,0,0-1.38.64,2.92,2.92,0,0,0-.54,2,3.07,3.07,0,0,0,.52,2,1.66,1.66,0,0,0,1.36.62,1.58,1.58,0,0,0,1.13-.42A2,2,0,0,0,55.38,59.46Z" style="fill:#1d1d1b"/><path d="M62.13,59.76l1.18.15a2.86,2.86,0,0,1-1,1.6A3.47,3.47,0,0,1,58,61.17a3.54,3.54,0,0,1-.86-2.55A3.77,3.77,0,0,1,58,56a3,3,0,0,1,2.28-1,2.91,2.91,0,0,1,2.2.92,3.67,3.67,0,0,1,.89,2.63v.31h-5a2.57,2.57,0,0,0,.63,1.7,1.84,1.84,0,0,0,1.41.59,1.72,1.72,0,0,0,1.07-.33A2.19,2.19,0,0,0,62.13,59.76Zm-3.75-1.84h3.77a2.38,2.38,0,0,0-.44-1.28A1.74,1.74,0,0,0,60.3,56a1.83,1.83,0,0,0-1.33.53A2.14,2.14,0,0,0,58.38,57.92Z" style="fill:#1d1d1b"/><path d="M64.3,59.14V58h3.51v1.15Z" style="fill:#1d1d1b"/><path d="M75.86,58.67l1.23.31A4.11,4.11,0,0,1,75.7,61.3a3.83,3.83,0,0,1-2.46.79,4.39,4.39,0,0,1-2.45-.61,3.78,3.78,0,0,1-1.41-1.77,6.3,6.3,0,0,1-.49-2.5,5.57,5.57,0,0,1,.49-2.54A3.84,3.84,0,0,1,71,53a4.79,4.79,0,0,1,2.26-.56,4,4,0,0,1,2.35.71,3.75,3.75,0,0,1,1.33,2l-1.22.28A2.88,2.88,0,0,0,74.78,54a2.53,2.53,0,0,0-1.55-.47,3,3,0,0,0-1.79.52,2.66,2.66,0,0,0-1,1.38,5.21,5.21,0,0,0-.29,1.79,5.59,5.59,0,0,0,.34,2.07,2.56,2.56,0,0,0,1.08,1.32,2.92,2.92,0,0,0,1.58.44,2.59,2.59,0,0,0,1.75-.6A3,3,0,0,0,75.86,58.67Z" style="fill:#1d1d1b"/><path d="M78.46,61.93v-9.3h1.15V56a2.54,2.54,0,0,1,2-.93,2.78,2.78,0,0,1,1.3.29,1.79,1.79,0,0,1,.79.82,3.89,3.89,0,0,1,.24,1.51V62H82.81v-4.3a1.77,1.77,0,0,0-.37-1.25A1.41,1.41,0,0,0,81.38,56a1.86,1.86,0,0,0-1,.27,1.43,1.43,0,0,0-.64.71,3.15,3.15,0,0,0-.19,1.25v3.68Z" style="fill:#1d1d1b"/><path d="M90.09,61.1a3.79,3.79,0,0,1-1.22.76,3.39,3.39,0,0,1-1.26.23,2.42,2.42,0,0,1-1.71-.55,1.79,1.79,0,0,1-.59-1.38,1.83,1.83,0,0,1,.22-.91,2.07,2.07,0,0,1,.59-.66,3,3,0,0,1,.83-.37,8.35,8.35,0,0,1,1-.17,9.69,9.69,0,0,0,2-.39v-.3a1.27,1.27,0,0,0-.32-1A2,2,0,0,0,88.38,56a2.06,2.06,0,0,0-1.19.28,1.72,1.72,0,0,0-.57,1l-1.12-.15A2.82,2.82,0,0,1,86,56a2.24,2.24,0,0,1,1-.68A4.76,4.76,0,0,1,88.55,55a4.43,4.43,0,0,1,1.4.2,2.07,2.07,0,0,1,.79.51,1.92,1.92,0,0,1,.36.78,9.37,9.37,0,0,1,0,1.06v1.52a14.8,14.8,0,0,0,.08,2,2.13,2.13,0,0,0,.29.81h-1.2A2.61,2.61,0,0,1,90.09,61.1ZM90,58.55a8.05,8.05,0,0,1-1.87.43,4.84,4.84,0,0,0-1,.23.91.91,0,0,0-.45.37,1,1,0,0,0-.16.54,1,1,0,0,0,.34.77,1.45,1.45,0,0,0,1,.3A2.32,2.32,0,0,0,89,60.9a1.69,1.69,0,0,0,.75-.79A2.64,2.64,0,0,0,90,59Z" style="fill:#1d1d1b"/><path d="M92.93,53.94V52.63h1.14v1.31Zm0,8V55.19h1.14v6.74Z" style="fill:#1d1d1b"/><path d="M95.8,61.93V55.19h1v1a2.78,2.78,0,0,1,.73-.94,1.26,1.26,0,0,1,.73-.23,2.22,2.22,0,0,1,1.17.37L99,56.45a1.65,1.65,0,0,0-.84-.25,1.09,1.09,0,0,0-.67.23,1.21,1.21,0,0,0-.43.62,4.6,4.6,0,0,0-.19,1.33v3.53Z" style="fill:#1d1d1b"/><path d="M100.14,61.93V55.19h1v1a2.6,2.6,0,0,1,.85-.8,2.51,2.51,0,0,1,1.2-.3,2.21,2.21,0,0,1,1.23.31,1.75,1.75,0,0,1,.67.87,2.43,2.43,0,0,1,2.1-1.27,2.11,2.11,0,0,1,1.55.56,2.36,2.36,0,0,1,.54,1.71v4.62h-1.14v-4.2a3.41,3.41,0,0,0-.11-1,1.07,1.07,0,0,0-.4-.49,1.39,1.39,0,0,0-.69-.18,1.62,1.62,0,0,0-1.18.47,2.09,2.09,0,0,0-.47,1.51v3.91h-1.14V57.55a2.08,2.08,0,0,0-.28-1.14A1.08,1.08,0,0,0,103,56a1.86,1.86,0,0,0-.89.25,1.41,1.41,0,0,0-.59.75,4.24,4.24,0,0,0-.18,1.41v3.49Z" style="fill:#1d1d1b"/><path d="M115.38,61.1a3.79,3.79,0,0,1-1.22.76,3.39,3.39,0,0,1-1.26.23,2.42,2.42,0,0,1-1.71-.55,1.74,1.74,0,0,1-.6-1.38,1.92,1.92,0,0,1,.23-.91,2.07,2.07,0,0,1,.59-.66,3,3,0,0,1,.82-.37,8.35,8.35,0,0,1,1-.17,9.69,9.69,0,0,0,2-.39v-.3a1.32,1.32,0,0,0-.32-1,2,2,0,0,0-1.3-.38,2.06,2.06,0,0,0-1.19.28,1.72,1.72,0,0,0-.57,1l-1.12-.15a2.82,2.82,0,0,1,.55-1.11,2.24,2.24,0,0,1,1-.68,5,5,0,0,1,2.93,0,2.11,2.11,0,0,1,.8.51,1.78,1.78,0,0,1,.35.78,6.28,6.28,0,0,1,.06,1.06v1.52a19,19,0,0,0,.07,2,2.53,2.53,0,0,0,.29.81h-1.19A2.14,2.14,0,0,1,115.38,61.1Zm-.09-2.55a7.92,7.92,0,0,1-1.91.45,4.84,4.84,0,0,0-1,.23,1.08,1.08,0,0,0-.45.37,1.06,1.06,0,0,0-.16.54,1,1,0,0,0,.35.77,1.45,1.45,0,0,0,1,.3,2.34,2.34,0,0,0,1.26-.31,1.69,1.69,0,0,0,.75-.79,3,3,0,0,0,.15-1.11Z" style="fill:#1d1d1b"/><path d="M118.2,61.93V55.19h1v1A2.44,2.44,0,0,1,121.38,55a2.9,2.9,0,0,1,1.12.22,1.87,1.87,0,0,1,.76.57,2.28,2.28,0,0,1,.36.85,6.89,6.89,0,0,1,.06,1.11v4.14h-1.14v-4.1a3.1,3.1,0,0,0-.14-1,1,1,0,0,0-.47-.55,1.59,1.59,0,0,0-.8-.21,1.94,1.94,0,0,0-1.26.46,2.31,2.31,0,0,0-.53,1.76v3.68Z" style="fill:#1d1d1b"/></g></g></svg>