<svg id="586bdbda-f3d0-4760-a7b4-35a496d58f01" data-name="gold" xmlns="http://www.w3.org/2000/svg" width="163.33" height="80" viewBox="0 0 163.33 80"><title>04</title><g id="fad4f697-a533-4f0a-8520-22be487289dc" data-name="04"><g id="167e5b90-9f7b-4c78-a8b7-5733272aac0c" data-name="817eaa20-dc26-40c5-9b88-fbb892970c6f"><path d="M66.62,54.15H60.83a.58.58,0,0,1-.65-.5.29.29,0,0,1,0-.13V51.76c0-.39.21-.57.67-.57h1.4c-.06-.09-.09-.17-.19-.34l-.21-.28a.35.35,0,0,1,.12-.49l0,0a.36.36,0,0,1,.51.12h0a5.36,5.36,0,0,1,.54,1h1.21c.07-.12.16-.26.28-.48l.31-.51a.38.38,0,0,1,.51-.17h0a.34.34,0,0,1,.14.46l0,0c-.14.25-.24.43-.39.65h1.44c.47,0,.69.2.69.63v1.7a.56.56,0,0,1-.46.63ZM66.12,58H61.33a.55.55,0,0,1-.63-.63v-2.1c0-.43.21-.62.63-.62h4.79c.49,0,.64.13.64.62v2.1a.56.56,0,0,1-.48.63Zm-2.77-6.14H61.11a.21.21,0,0,0-.23.19v1.17c0,.15.09.22.26.22h2.21ZM66,55.52c0-.15-.07-.2-.22-.2H61.59c-.14,0-.21,0-.21.2V56H66Zm0,1.12H61.38v.44c0,.13.07.19.21.19h4.25c.15,0,.22-.06.22-.19Zm-3.47-3.3a.39.39,0,0,1-.53-.15h0c-.07-.13-.25-.35-.49-.69a.35.35,0,0,1,.05-.5l0,0a.38.38,0,0,1,.52.12h0c.18.24.35.49.51.74a.35.35,0,0,1,0,.49l0,0Zm4-1.27c0-.16-.06-.22-.22-.22H64.09v1.61h2.24a.19.19,0,0,0,.22-.15v-.07Zm-1.24,1.14a.39.39,0,0,1-.53.12h0a.42.42,0,0,1-.06-.56,3.27,3.27,0,0,0,.49-.72.35.35,0,0,1,.47-.15l0,0a.42.42,0,0,1,.07.55A5.21,5.21,0,0,1,65.33,53.21Z" style="fill:#1d1d1b"/><path d="M76.61,51.21H74.26v.39h1.68a.67.67,0,0,1,.45.14.69.69,0,0,1,.13.44v.55c0,.32-.17.44-.54.44h-6v.34h6.19c.38,0,.62.06.73.24a1.32,1.32,0,0,1,0,.92c0,.19-.21.25-.41.23a.29.29,0,0,1-.28-.3.09.09,0,0,1,0-.05.06.06,0,0,1,0-.06,1,1,0,0,0,0-.35c0-.07,0-.07-.07-.06H73.34a2.53,2.53,0,0,1,.38.42.28.28,0,0,1-.06.38h0a.31.31,0,0,1-.42,0l-.37-.38a.26.26,0,0,1,0-.38h-.78v.57c0,.2.1.29.32.29H73.8c.16,0,.26,0,.3-.08s0-.64.5-.6a.35.35,0,0,1,.31.33.85.85,0,0,1-.77.91H72.65a.7.7,0,0,1-.25.33h3.12a.33.33,0,0,1,.36.27.44.44,0,0,1-.23.43,8.28,8.28,0,0,1-1.39.71c.74.08,1.51.13,2.29.17a.34.34,0,0,1,.36.31v0c0,.21-.15.3-.37.33a14.67,14.67,0,0,1-3.31-.37,13.61,13.61,0,0,1-3.42.34.32.32,0,0,1-.35-.31v0a.36.36,0,0,1,.38-.32,19,19,0,0,0,2.5-.11,7.05,7.05,0,0,1-1.16-.68,3.52,3.52,0,0,1-.88.3.31.31,0,0,1-.4-.18.09.09,0,0,1,0-.05.32.32,0,0,1,.11-.44l.13,0a3.93,3.93,0,0,0,1.68-.78.58.58,0,0,1-.45-.61v-.77H69.94a5.91,5.91,0,0,1-.69,3.43c-.12.16-.35.32-.55.18a.38.38,0,0,1-.15-.53l0,0a3.92,3.92,0,0,0,.49-1.24,11.44,11.44,0,0,0,.14-1.94V51.06c0-.38.25-.59.68-.59h2.54v-.19c0-.22.13-.33.35-.35a.32.32,0,0,1,.38.33v.21h3.47c.21,0,.32.14.34.35a.34.34,0,0,1-.27.39Zm-5.24,0H70.08c-.12,0-.18.06-.18.2v.19h1.47Zm0,1H69.94v.44h1.47Zm-.83,3.38a.35.35,0,0,1-.48.1v0a.3.3,0,0,1,0-.43l0-.05a4.33,4.33,0,0,0,.44-.72.33.33,0,0,1,.37-.28l.08,0a.36.36,0,0,1,.09.5h0a5.14,5.14,0,0,1-.49.78Zm1.47.83a6.82,6.82,0,0,0,1.25.59,10.16,10.16,0,0,0,1.36-.59Zm1.59-5.21H72v.39H73.6Zm0,1H72v.44H73.6Zm2.17.18c0-.14,0-.18-.09-.18H74.26v.44h1.41c.08,0,.1,0,.1-.11ZM76,55.76a11.51,11.51,0,0,0-1-.85.29.29,0,0,1-.09-.41l0,0a.34.34,0,0,1,.48,0,5.58,5.58,0,0,1,1,.88.36.36,0,0,1,0,.5h0a.32.32,0,0,1-.42-.17Z" style="fill:#1d1d1b"/><path d="M85.32,57.89A9.77,9.77,0,0,1,82,56.27v1.52c0,.21-.14.32-.35.34a.31.31,0,0,1-.35-.34V56.36a13.41,13.41,0,0,1-3.1,1.49.36.36,0,0,1-.49-.15.14.14,0,0,1,0-.06.44.44,0,0,1,.28-.55,9.86,9.86,0,0,0,3.09-1.42h-3c-.2,0-.3-.12-.32-.32A.3.3,0,0,1,78.1,55h3.24v-.46H78.51c-.21,0-.31-.12-.33-.33a.3.3,0,0,1,.3-.32h2.86v-.45h-3a.32.32,0,0,1-.34-.3v0a.32.32,0,0,1,.31-.33h1.77c-.06-.16-.17-.39-.32-.69H77.94c-.2,0-.28-.13-.3-.34a.28.28,0,0,1,.3-.33h1.4L79,50.94l-.06-.13a.32.32,0,1,1,.45-.45l0,0c.07.1.17.24.29.44l.2.31a.39.39,0,0,1,0,.3h.64V50.35c0-.21.15-.3.36-.31a.31.31,0,0,1,.37.31v1.08H82v-1a.36.36,0,0,1,.35-.37h0a.37.37,0,0,1,.37.35v1h.51c.17-.32.32-.66.46-1a.33.33,0,0,1,.41-.22l0,0a.37.37,0,0,1,.18.48v0c-.1.23-.21.45-.32.66H85.3c.19,0,.29.13.31.33a.3.3,0,0,1-.31.34H83.53c-.07.2-.16.42-.27.69H85.1c.18,0,.27.14.29.32a.28.28,0,0,1-.25.34H82v.45h2.79a.33.33,0,1,1,.11.65.2.2,0,0,1-.11,0H82V55h3.29a.34.34,0,0,1,.34.32v0a.32.32,0,0,1-.32.32h-3a10,10,0,0,0,3.12,1.48.4.4,0,0,1,.32.45h0a.39.39,0,0,1-.42.34ZM80.58,52.1c.12.24.24.47.33.69h1.58c.13-.29.22-.52.28-.69Z" style="fill:#1d1d1b"/><path d="M89.49,54.74a.28.28,0,0,1-.38-.13s0,0,0,0a1.17,1.17,0,0,0-.09-.24h-.38v3.42a.33.33,0,0,1-.33.33h0a.32.32,0,0,1-.35-.31V54.44H87a.31.31,0,0,1-.33-.29h0c0-.21.09-.35.28-.37h.21a6.39,6.39,0,0,0,.5-.74c-.17-.19-.47-.49-.87-.9a.32.32,0,0,1,0-.46l0,0a.38.38,0,0,1,.47,0c.22-.42.4-.85.63-1.26a.36.36,0,0,1,.47-.19.34.34,0,0,1,.19.43v0c-.21.46-.44.9-.69,1.33l-.09.17.29.3c.21-.33.4-.69.58-1a.35.35,0,0,1,.47-.19l0,0a.42.42,0,0,1,.08.55,15.3,15.3,0,0,1-1.26,2l.83-.07-.12-.26a.28.28,0,0,1,.14-.38h0a.33.33,0,0,1,.42.14,9.15,9.15,0,0,1,.42,1.14A.32.32,0,0,1,89.49,54.74Zm-2,2.59a.4.4,0,0,1-.41.36.35.35,0,0,1-.29-.4.14.14,0,0,1,0-.06c.09-.66.15-1.33.18-2a.36.36,0,0,1,.36-.36h0c.21,0,.31.16.3.39a12.94,12.94,0,0,1-.17,2.07Zm1.91-.55a.31.31,0,0,1-.38-.23v0c0-.23,0-.46-.08-.69s0-.23-.07-.35a.35.35,0,0,1,.24-.4.31.31,0,0,1,.38.19,0,0,0,0,0,0,0,6.72,6.72,0,0,1,.19,1.09.35.35,0,0,1-.28.41h0Zm.71.74a.34.34,0,0,1-.43.22h0a.3.3,0,0,1-.23-.37.14.14,0,0,1,0-.06,12.08,12.08,0,0,0,.49-1.88.32.32,0,0,1,.33-.32h0a.33.33,0,0,1,.31.35v0a7.52,7.52,0,0,1-.5,2Zm3.5-2.8h-3.3c-.42,0-.62-.26-.62-.75V51.21a.56.56,0,0,1,.15-.46.91.91,0,0,1,.54-.11h1c.1-.16.18-.35.25-.45a.43.43,0,0,1,.49-.22.28.28,0,0,1,.24.32l0,.09a.61.61,0,0,1-.12.26h1.5a1.27,1.27,0,0,1,.6.12.62.62,0,0,1,.15.47v2.82c0,.47-.29.67-.84.67Zm.12-3.16c0-.16-.06-.24-.23-.24H90.62c-.17,0-.25.08-.25.18v2.39c0,.1.06.15.27.15h2.93c.13,0,.17,0,.17-.15ZM92.81,53a2.65,2.65,0,0,1,.53.42.32.32,0,0,1,0,.41.31.31,0,0,1-.42,0l-.62-.45a4,4,0,0,1-1.26.54.31.31,0,0,1-.41-.16v0a.27.27,0,0,1,.16-.36l.07,0a5.16,5.16,0,0,0,1-.35c-.1-.07-.34-.21-.54-.32a1.31,1.31,0,0,1-.34.29.3.3,0,0,1-.41,0c-.17-.26,0-.39.18-.52a6.24,6.24,0,0,0,.76-.7.5.5,0,0,1,.39-.23h1.22c.36,0,.54.16.45.45a2.83,2.83,0,0,1-.74,1Zm0,4.94h-1c-.58,0-.91-.19-.91-.61V55.15c0-.2.15-.28.34-.3a.28.28,0,0,1,.33.29V57c0,.14,0,.22.09.24a.83.83,0,0,0,.44.06,1.84,1.84,0,0,0,.84,0c.09,0,.13-.16.13-.44a.32.32,0,0,1,.32-.31h0a.31.31,0,0,1,.32.28v0c0,.72-.33,1.12-.9,1.12Zm-.2-5.81h-.67l-.19.18.58.33a1.78,1.78,0,0,0,.4-.42s0-.09-.09-.09Zm0,4.52c-.22,0-.41,0-.44-.28s-.14-.76-.23-1.13a.28.28,0,0,1,.17-.37h0a.34.34,0,0,1,.44.19,5.4,5.4,0,0,1,.34,1.19.34.34,0,0,1-.24.41h-.09ZM94.4,57.7a.35.35,0,0,1-.42-.27,13.09,13.09,0,0,0-.68-2,.3.3,0,0,1,.11-.42l.07,0a.39.39,0,0,1,.49.19,8.64,8.64,0,0,1,.7,2.1.37.37,0,0,1-.21.43Z" style="fill:#1d1d1b"/><path d="M98.37,56.61A8,8,0,0,1,96,57.73a.33.33,0,0,1-.45-.13.14.14,0,0,1,0-.06c-.12-.39.16-.5.45-.6a5.27,5.27,0,0,0,.59-.24V54.12h-.64c-.22,0-.33-.15-.35-.37a.34.34,0,0,1,.33-.35h.67V51.21h-.71c-.21,0-.3-.13-.31-.35s.1-.36.31-.36h2a.36.36,0,0,1,.36.34v0a.33.33,0,0,1-.31.35h-.61v2.17h.62c.22,0,.32.14.34.35a.32.32,0,0,1-.34.37h-.67v2.31l.62-.38a.34.34,0,0,1,.49,0h0a.37.37,0,0,1,.06.51Zm5.2,1.2h-5c-.21,0-.31-.16-.31-.37a.34.34,0,0,1,.35-.33h2.09v-.9H98.94c-.21,0-.3-.15-.3-.36a.32.32,0,0,1,.3-.34h1.71V54.6H99.17a.63.63,0,0,1-.7-.54,1,1,0,0,1,0-.17V51a.63.63,0,0,1,.52-.72h3.94c.45,0,.65.22.65.7v2.87a.62.62,0,0,1-.54.69h-1.67v.91h1.91c.2,0,.29.14.31.34a.31.31,0,0,1-.31.36h-1.91v.93h2.19c.21,0,.31.15.33.35A.31.31,0,0,1,103.57,57.81ZM100.65,51H99.43c-.16,0-.22.06-.22.23v.87h1.44Zm0,1.78H99.21v.86c0,.17.06.24.24.24h1.2Zm2.17-1.49c0-.22,0-.29-.2-.29h-1.24v1.1h1.44Zm0,1.49h-1.44v1.1h1.26c.14,0,.18-.06.18-.29Z" style="fill:#1d1d1b"/><path d="M11.94,68.31V61.87h1.28l1.53,4.56.31,1c.07-.23.18-.58.34-1l1.54-4.56h1.15v6.44h-.82V62.92l-1.88,5.39h-.76l-1.87-5.49v5.49Z" style="fill:#1d1d1b"/><path d="M19.35,68.31V63.64h.72v.71a1.78,1.78,0,0,1,.5-.66.9.9,0,0,1,.51-.15,1.71,1.71,0,0,1,.81.25l-.27.73a1.34,1.34,0,0,0-.58-.17.8.8,0,0,0-.76.59,2.64,2.64,0,0,0-.14.92v2.45Z" style="fill:#1d1d1b"/><path d="M22.09,68.31v-.9H23v.9Z" style="fill:#1d1d1b"/><path d="M28.44,68.31V62.63H26.32v-.76h5.11v.76H29.29v5.68Z" style="fill:#1d1d1b"/><path d="M32,66.21l.8-.07a1.73,1.73,0,0,0,.27.79,1.4,1.4,0,0,0,.65.5,2.26,2.26,0,0,0,1,.19,2.32,2.32,0,0,0,.86-.14,1.14,1.14,0,0,0,.55-.4.89.89,0,0,0,.19-.55.85.85,0,0,0-.18-.53,1.4,1.4,0,0,0-.58-.38,11.48,11.48,0,0,0-1.15-.31,5.82,5.82,0,0,1-1.24-.41,1.67,1.67,0,0,1-.69-.6,1.42,1.42,0,0,1-.22-.8,1.64,1.64,0,0,1,.27-.91,1.71,1.71,0,0,1,.81-.64,3.13,3.13,0,0,1,1.18-.22A3.28,3.28,0,0,1,35.8,62a1.93,1.93,0,0,1,.84.68,2,2,0,0,1,.31,1l-.81.06a1.42,1.42,0,0,0-.45-.92,1.74,1.74,0,0,0-1.12-.31,1.86,1.86,0,0,0-1.13.28.84.84,0,0,0-.35.68.71.71,0,0,0,.25.58,3.22,3.22,0,0,0,1.28.45,9.32,9.32,0,0,1,1.43.42,2.11,2.11,0,0,1,.83.65,1.68,1.68,0,0,1,.27.92,1.84,1.84,0,0,1-.3,1,1.93,1.93,0,0,1-.84.71,3,3,0,0,1-1.24.25,3.52,3.52,0,0,1-1.48-.2,2.1,2.1,0,0,1-.93-.76A2.18,2.18,0,0,1,32,66.21Z" style="fill:#1d1d1b"/><path d="M38.32,68.31V61.87h4.62v.76H39.17v2h3.57v.75H39.17v2.2h4v.76Z" style="fill:#1d1d1b"/><path d="M44.3,68.31V61.87h.87l3.39,5.05V61.87h.81v6.44H48.5l-3.39-5.1v5.1Z" style="fill:#1d1d1b"/><path d="M53.82,65.78V65h2.73v2.38a4.72,4.72,0,0,1-1.3.76,3.82,3.82,0,0,1-1.37.25A3.55,3.55,0,0,1,52.16,68,2.55,2.55,0,0,1,51,66.84a3.54,3.54,0,0,1-.4-1.72,4,4,0,0,1,.35-1.76,2.7,2.7,0,0,1,1.13-1.21A3.85,3.85,0,0,1,55,62a2.13,2.13,0,0,1,.88.63,2.85,2.85,0,0,1,.49,1.06l-.77.21a2.31,2.31,0,0,0-.36-.78,1.79,1.79,0,0,0-.61-.45,2.5,2.5,0,0,0-.89-.16,2.57,2.57,0,0,0-1,.17,2.06,2.06,0,0,0-.69.47,2.41,2.41,0,0,0-.41.64,3.18,3.18,0,0,0-.24,1.29,3,3,0,0,0,.3,1.45,1.8,1.8,0,0,0,.86.86,2.49,2.49,0,0,0,1.2.28A3.08,3.08,0,0,0,55.68,67v-1.2Z" style="fill:#1d1d1b"/><path d="M60.33,68.31V61.87h.86v2.64h3.34V61.87h.86v6.44h-.86v-3H61.19v3Z" style="fill:#1d1d1b"/><path d="M66.71,62.78v-.91h.79v.91Zm0,5.53V63.64h.79v4.67Z" style="fill:#1d1d1b"/><path d="M68.7,68.31V63.64h.72v.66a1.67,1.67,0,0,1,1.52-.76,2.12,2.12,0,0,1,.78.15,1.36,1.36,0,0,1,.53.39,1.6,1.6,0,0,1,.24.59,5,5,0,0,1,.05.77v2.87h-.79V65.47a2.55,2.55,0,0,0-.1-.72.94.94,0,0,0-.32-.39,1.25,1.25,0,0,0-.56-.14,1.32,1.32,0,0,0-.87.32,1.55,1.55,0,0,0-.36,1.22v2.55Z" style="fill:#1d1d1b"/><path d="M73.56,68.69l.77.12a.76.76,0,0,0,.27.52,1.36,1.36,0,0,0,.81.22,1.42,1.42,0,0,0,.84-.22,1.1,1.1,0,0,0,.41-.62,5.54,5.54,0,0,0,.06-1,1.65,1.65,0,0,1-1.3.61,1.75,1.75,0,0,1-1.48-.71A2.61,2.61,0,0,1,73.42,66a2.9,2.9,0,0,1,.24-1.23,1.82,1.82,0,0,1,1.78-1.18,1.7,1.7,0,0,1,1.36.66v-.56h.73v4a4,4,0,0,1-.23,1.57,1.7,1.7,0,0,1-.71.72,2.45,2.45,0,0,1-1.18.26,2.14,2.14,0,0,1-1.35-.37A1.27,1.27,0,0,1,73.56,68.69Zm.66-2.8a1.94,1.94,0,0,0,.36,1.32,1.21,1.21,0,0,0,1.83,0,2.44,2.44,0,0,0,0-2.6,1.2,1.2,0,0,0-.92-.44,1.13,1.13,0,0,0-.89.43A1.83,1.83,0,0,0,74.22,65.89Z" style="fill:#1d1d1b"/><path d="M82.94,68.31V65.58l-2.48-3.71h1l1.27,1.94c.24.36.46.72.66,1.09.19-.34.43-.72.7-1.14l1.25-1.89h1l-2.57,3.71v2.73Z" style="fill:#1d1d1b"/><path d="M86.73,62.78v-.91h.79v.91Zm0,5.53V63.64h.79v4.67Z" style="fill:#1d1d1b"/><path d="M88.72,70.1V63.64h.72v.57a1.77,1.77,0,0,1,.58-.54,1.74,1.74,0,0,1,.78-.17,2,2,0,0,1,1,.3,2.11,2.11,0,0,1,.69.87,3.85,3.85,0,0,1,0,2.54,2,2,0,0,1-.75.88,2,2,0,0,1-1,.3,1.45,1.45,0,0,1-.71-.16,1.54,1.54,0,0,1-.52-.43v2.28Zm.72-4.1a1.91,1.91,0,0,0,.36,1.33,1.13,1.13,0,0,0,.89.43,1.14,1.14,0,0,0,.9-.44,2.15,2.15,0,0,0,.35-1.38,2.21,2.21,0,0,0-.36-1.34,1.1,1.1,0,0,0-1.53-.25,1.13,1.13,0,0,0-.24.25A2.07,2.07,0,0,0,89.44,66Z" style="fill:#1d1d1b"/><path d="M93.94,68.31v-.9h.9v.9a1.67,1.67,0,0,1-.17.8,1.12,1.12,0,0,1-.56.47l-.23-.37a.76.76,0,0,0,.37-.32,1.42,1.42,0,0,0,.13-.61Z" style="fill:#1d1d1b"/><path d="M100.48,68.31V65.58L98,61.87h1l1.27,1.94c.23.36.45.72.65,1.09.19-.34.43-.72.7-1.14l1.32-1.89h1l-2.57,3.71v2.73Z" style="fill:#1d1d1b"/><path d="M103.45,66a2.39,2.39,0,0,1,.72-1.92,2.23,2.23,0,0,1,1.47-.51,2.13,2.13,0,0,1,1.57.63,2.46,2.46,0,0,1,.61,1.74,3.13,3.13,0,0,1-.27,1.42,2,2,0,0,1-.79.8,2.22,2.22,0,0,1-1.12.28,2.09,2.09,0,0,1-1.59-.62A2.51,2.51,0,0,1,103.45,66Zm.81,0a2,2,0,0,0,.39,1.35,1.35,1.35,0,0,0,2,0A2,2,0,0,0,107,66a1.93,1.93,0,0,0-.4-1.31,1.35,1.35,0,0,0-2,0A2,2,0,0,0,104.26,66Z" style="fill:#1d1d1b"/><path d="M108.74,68.31V63.64h.71v.71a2.14,2.14,0,0,1,.5-.66,1.12,1.12,0,0,1,.51-.15,1.57,1.57,0,0,1,.81.25l-.27.73a1.34,1.34,0,0,0-.58-.17.76.76,0,0,0-.46.16.81.81,0,0,0-.3.43,2.88,2.88,0,0,0-.13.92v2.45Z" style="fill:#1d1d1b"/><path d="M111.75,68.31V61.87h.79v3.67l1.87-1.9h1l-1.79,1.73,2,2.94h-1l-1.54-2.39-.56.54v1.85Z" style="fill:#1d1d1b"/><path d="M116.45,68.31v-.9h.9v.9a1.7,1.7,0,0,1-.17.8,1.22,1.22,0,0,1-.56.47l-.22-.34a.76.76,0,0,0,.37-.32,1.42,1.42,0,0,0,.13-.61Z" style="fill:#1d1d1b"/><path d="M121.35,68.31V61.87h2.22a5.48,5.48,0,0,1,1.14.09,2.35,2.35,0,0,1,1,.46,2.8,2.8,0,0,1,.76,1.1,5,5,0,0,1,.08,2.83,3.12,3.12,0,0,1-.44.94,2.5,2.5,0,0,1-.58.59,2.47,2.47,0,0,1-.77.32,4.26,4.26,0,0,1-1,.11Zm.85-.76h1.37a3.42,3.42,0,0,0,1-.12,1.41,1.41,0,0,0,.58-.33,2.23,2.23,0,0,0,.47-.82,4,4,0,0,0,.17-1.24,3.12,3.12,0,0,0-.33-1.56,1.7,1.7,0,0,0-.8-.72,3.48,3.48,0,0,0-1.11-.13H122.2Z" style="fill:#1d1d1b"/><path d="M127.75,62.78v-.91h.79v.91Zm0,5.53V63.64h.79v4.67Z" style="fill:#1d1d1b"/><path d="M129.74,68.31V63.64h.71v.71a2.14,2.14,0,0,1,.5-.66.9.9,0,0,1,.51-.15,1.57,1.57,0,0,1,.81.25l-.27.73a1.34,1.34,0,0,0-.58-.17.8.8,0,0,0-.76.59,2.88,2.88,0,0,0-.13.92v2.45Z" style="fill:#1d1d1b"/><path d="M135.94,66.81l.81.1A2.06,2.06,0,0,1,136,68a2.17,2.17,0,0,1-1.34.39,2.12,2.12,0,0,1-1.62-.63,2.44,2.44,0,0,1-.6-1.77,2.53,2.53,0,0,1,.6-1.82,2,2,0,0,1,1.58-.65,2,2,0,0,1,1.53.63,2.68,2.68,0,0,1,.59,1.8v.24H133.3a1.68,1.68,0,0,0,.43,1.17,1.25,1.25,0,0,0,1,.41,1.18,1.18,0,0,0,.74-.23A1.6,1.6,0,0,0,135.94,66.81Zm-2.6-1.28h2.6a1.65,1.65,0,0,0-.29-.89,1.26,1.26,0,0,0-1-.45,1.24,1.24,0,0,0-.92.36A1.45,1.45,0,0,0,133.34,65.53Z" style="fill:#1d1d1b"/><path d="M140.79,66.6l.78.1a2,2,0,0,1-.65,1.26,1.85,1.85,0,0,1-1.29.45,2,2,0,0,1-1.54-.62,2.51,2.51,0,0,1-.58-1.8,3.17,3.17,0,0,1,.25-1.32,1.66,1.66,0,0,1,.76-.85,2.26,2.26,0,0,1,1.11-.28,2,2,0,0,1,1.25.38A1.94,1.94,0,0,1,141.5,65l-.77.12a1.51,1.51,0,0,0-.39-.71,1.14,1.14,0,0,0-.68-.23,1.26,1.26,0,0,0-1,.42,2,2,0,0,0-.37,1.36,2.07,2.07,0,0,0,.36,1.37,1.25,1.25,0,0,0,1.72.14A1.38,1.38,0,0,0,140.79,66.6Z" style="fill:#1d1d1b"/><path d="M143.94,67.6l.12.7a2.46,2.46,0,0,1-.6.07,1.27,1.27,0,0,1-.67-.14.66.66,0,0,1-.33-.35,2.48,2.48,0,0,1-.1-.94V64.26h-.58v-.62h.58V62.49l.79-.48v1.63h.79v.62h-.79V67a1,1,0,0,0,0,.43.23.23,0,0,0,.14.15.42.42,0,0,0,.27.06Z" style="fill:#1d1d1b"/><path d="M144.45,66a2.39,2.39,0,0,1,.72-1.92,2.23,2.23,0,0,1,1.47-.51,2.11,2.11,0,0,1,1.57.63,2.43,2.43,0,0,1,.62,1.74,3.42,3.42,0,0,1-.27,1.42,2,2,0,0,1-.79.8,2.26,2.26,0,0,1-1.13.28,2.11,2.11,0,0,1-1.58-.62A2.47,2.47,0,0,1,144.45,66Zm.82,0a2,2,0,0,0,.39,1.35,1.35,1.35,0,0,0,2,0,2.48,2.48,0,0,0,0-2.67,1.29,1.29,0,0,0-1-.45,1.26,1.26,0,0,0-1,.44A2,2,0,0,0,145.27,66Z" style="fill:#1d1d1b"/><path d="M149.74,68.31V63.64h.72v.71a2.14,2.14,0,0,1,.5-.66.9.9,0,0,1,.51-.15,1.71,1.71,0,0,1,.81.25l-.27.73a1.34,1.34,0,0,0-.58-.17.8.8,0,0,0-.76.59,2.64,2.64,0,0,0-.14.92v2.45Z" style="fill:#1d1d1b"/><path d="M30.8,6.75A20.95,20.95,0,1,0,51.74,27.69h0A21,21,0,0,0,30.8,6.75" style="fill:#fff"/><path d="M50.63,27.68A19.84,19.84,0,1,1,30.81,7.83,19.84,19.84,0,0,1,50.63,27.68h0" style="fill:#7b2216"/><polygon points="13.99 28.78 13.82 28.79 13.79 27.8 13.96 27.79 13.97 28.2 15.61 28.13 15.62 28.32 13.98 28.38 13.99 28.78" style="fill:#fff"/><path d="M14.44,26.52l.11.12a.38.38,0,0,0-.14.26.2.2,0,0,0,0,.15.16.16,0,0,0,.13.06.15.15,0,0,0,.13,0,1,1,0,0,0,.15-.2.82.82,0,0,1,.2-.25.38.38,0,0,1,.26-.11.46.46,0,0,1,.28.13.37.37,0,0,1,.1.3.81.81,0,0,1,0,.22.8.8,0,0,1-.15.17l-.23-.12a.34.34,0,0,0,.16-.27.24.24,0,0,0,0-.18.23.23,0,0,0-.11-.08h-.13s-.08.1-.15.21a.88.88,0,0,1-.19.24.41.41,0,0,1-.22,0,.31.31,0,0,1-.25,0,.33.33,0,0,1-.13-.29.52.52,0,0,1,.19-.37" style="fill:#fff"/><path d="M15.06,24.79a.48.48,0,0,0-.24.06.46.46,0,0,0-.16.15.58.58,0,0,0-.08.22.48.48,0,0,0,.07.35.57.57,0,0,0,.26.2Zm.35,0,.1-.14a.61.61,0,0,1,.19.2.43.43,0,0,1,.1.23.61.61,0,0,1,0,.27.64.64,0,0,1-.29.47.82.82,0,0,1-.51.11.68.68,0,0,1-.43-.23.63.63,0,0,1-.17-.56.69.69,0,0,1,.34-.5.78.78,0,0,1,.54,0l-.18,1.19a.56.56,0,0,0,.4-.08.5.5,0,0,0,.2-.34.67.67,0,0,0,0-.2.51.51,0,0,0-.13-.16.69.69,0,0,0-.16-.18" style="fill:#fff"/><path d="M14.71,23.8v-.17l.24.06a.57.57,0,0,1-.14-.28.45.45,0,0,1,0-.28.59.59,0,0,1,.44-.36,1.1,1.1,0,0,1,.4.05l.66.2v.16L15.7,23a1.08,1.08,0,0,0-.31-.07.34.34,0,0,0-.22,0,.32.32,0,0,0-.12.2.39.39,0,0,0,0,.3.61.61,0,0,0,.23.25,1.42,1.42,0,0,0,.35.11l.47.14v.17Z" style="fill:#fff"/><path d="M15.66,21.38a.45.45,0,0,0,0,.28.41.41,0,0,0,.11.26.58.58,0,0,0,.21.17.47.47,0,0,0,.4,0,.58.58,0,0,0,.24-.7.55.55,0,0,0-.26-.28.61.61,0,0,0-.27,0,.55.55,0,0,0-.25.1.54.54,0,0,0-.16.21m.08-.51,0-.18,1,.4a1.65,1.65,0,0,1,.36.22.46.46,0,0,1,.17.32,1,1,0,0,1-.06.41.92.92,0,0,1-.16.27.86.86,0,0,1-.22.15.66.66,0,0,1-.28,0l.08-.17a.54.54,0,0,0,.26-.11A.74.74,0,0,0,17.1,22a.76.76,0,0,0,0-.3.43.43,0,0,0-.09-.22.75.75,0,0,0-.28-.18h-.05a.74.74,0,0,1,.08.29.81.81,0,0,1,0,.31.67.67,0,0,1-.22.28.54.54,0,0,1-.32.13.64.64,0,0,1-.36-.05.71.71,0,0,1-.28-.21.85.85,0,0,1-.14-.34.69.69,0,0,1,0-.35.55.55,0,0,1,.17-.23.9.9,0,0,1,.29-.16Z" style="fill:#fff"/><polygon points="16.28 18.81 16.38 18.66 17.01 19.08 17.52 18.32 16.88 17.9 16.98 17.75 18.5 18.75 18.39 18.9 17.67 18.41 17.16 19.18 17.88 19.66 17.79 19.81 16.28 18.81" style="fill:#fff"/><path d="M17.84,17.41l.11-.13,1.07.83-.1.13ZM17.43,17a.17.17,0,0,1,.1,0,.11.11,0,0,1,.11,0,.14.14,0,0,1,0,.09.21.21,0,0,1,0,.11.14.14,0,0,1-.1.05.2.2,0,0,1-.11,0,.14.14,0,0,1,0-.09.2.2,0,0,1,0-.11" style="fill:#fff"/><path d="M18.41,16.72l.1-.13.17.17a.81.81,0,0,1,0-.31.62.62,0,0,1,.14-.25.53.53,0,0,1,.24-.14.39.39,0,0,1,.26,0,1.16,1.16,0,0,1,.34.24l.49.47-.12.12-.45-.41-.23-.2a.3.3,0,0,0-.23,0,.29.29,0,0,0-.19.11.36.36,0,0,0-.12.27.51.51,0,0,0,.06.3,2.16,2.16,0,0,0,.25.27l.36.34-.12.12Z" style="fill:#fff"/><path d="M20.57,14.28l.37.49.24-.18a.72.72,0,0,0,.2-.19.18.18,0,0,0,.05-.12.49.49,0,0,0-.06-.17.29.29,0,0,0-.3-.11.47.47,0,0,0-.24.13Zm-.25,0,.34-.21a1.15,1.15,0,0,1,.35-.22.37.37,0,0,1,.29,0,.44.44,0,0,1,.26.18.41.41,0,0,1,.1.3.5.5,0,0,1-.12.28,2.6,2.6,0,0,1-.36.3l-.09.08.49.67-.15.11Z" style="fill:#fff"/><path d="M23.38,13.5a.48.48,0,0,0-.2-.14.37.37,0,0,0-.21,0,.5.5,0,0,0-.45.35.55.55,0,0,0,0,.31Zm.18.31h.16a1.22,1.22,0,0,1,0,.27.51.51,0,0,1-.12.23.64.64,0,0,1-.2.16.65.65,0,0,1-.56.06.71.71,0,0,1-.48-.8.65.65,0,0,1,.34-.48.64.64,0,0,1,.6,0,.75.75,0,0,1,.35.33l-1.08.59a.5.5,0,0,0,.31.26.44.44,0,0,0,.39,0,.7.7,0,0,0,.16-.13,1.4,1.4,0,0,0,.1-.16,1,1,0,0,0,0-.24" style="fill:#fff"/><path d="M23.88,12.66,24,12.6l.56,1.21-.16.08Zm-.14-.53h.14a.11.11,0,0,1,.08.07.11.11,0,0,1,0,.11.1.1,0,0,1-.07.07.09.09,0,0,1-.1,0,.16.16,0,0,1-.09-.07V12.2a.08.08,0,0,1,0-.07" style="fill:#fff"/><path d="M27.31,11.36l-.1.14a.87.87,0,0,0-.34-.15.73.73,0,0,0-.36,0,.76.76,0,0,0-.37.21.79.79,0,0,0,0,1.12l.13.1a.86.86,0,0,0,.61.07.78.78,0,0,0,.54-.46l.16.07a.92.92,0,0,1-.24.34A1.19,1.19,0,0,1,27,13a.93.93,0,0,1-.81-.11,1,1,0,0,1-.39-.56.94.94,0,0,1,.7-1.16,1,1,0,0,1,.48,0,.79.79,0,0,1,.38.18" style="fill:#fff"/><path d="M28,10.85h.18l.09.75a.61.61,0,0,1,.21-.24.45.45,0,0,1,.25-.09.42.42,0,0,1,.27,0,.46.46,0,0,1,.21.18,1.82,1.82,0,0,1,.11.4l.08.67-.18,0-.09-.63a1.67,1.67,0,0,0-.05-.31.42.42,0,0,0-.14-.18.45.45,0,0,0-.5.1.42.42,0,0,0-.12.27,1.15,1.15,0,0,0,0,.37l.06.48h-.17Z" style="fill:#fff"/><path d="M30.7,11.28a.6.6,0,0,0-.27.07.76.76,0,0,0-.19.21.55.55,0,0,0,0,.53.58.58,0,0,0,.2.21.58.58,0,0,0,.26.06.52.52,0,0,0,.27-.07.49.49,0,0,0,.19-.16.54.54,0,0,0-.46-.82m.71-.16v1.33h-.16v-.23a1.27,1.27,0,0,1-.25.21.72.72,0,0,1-.29.06.63.63,0,0,1-.49-.2.75.75,0,0,1-.21-.51.72.72,0,0,1,.69-.7.63.63,0,0,1,.3.07,1,1,0,0,1,.24.21v-.24Z" style="fill:#fff"/><path d="M32.09,11.19h.17v.19a.64.64,0,0,1,.22-.14.31.31,0,0,1,.19,0h.15l-.11.14h-.09a.25.25,0,0,0-.17,0,.6.6,0,0,0-.14.21,1.77,1.77,0,0,0-.07.46v.45h-.18Z" style="fill:#fff"/><path d="M33.38,10.79a.18.18,0,0,1,.09.06.09.09,0,0,1,0,.1.19.19,0,0,1,0,.1.11.11,0,0,1-.11,0h-.1a.2.2,0,0,1,0-.11.15.15,0,0,1,.06-.09.11.11,0,0,1,.11,0m-.18.52h.18l-.2,1.33H33Z" style="fill:#fff"/><polygon points="34.31 11.02 34.48 11.05 34.38 11.53 34.65 11.6 34.61 11.74 34.34 11.69 34.1 12.85 33.92 12.8 34.17 11.64 33.95 11.6 33.98 11.45 34.2 11.5 34.31 11.02" style="fill:#fff"/><polygon points="35.12 11.71 35.29 11.76 35.42 12.88 36.15 12.03 36.33 12.08 35.02 13.59 34.85 13.53 35.27 13.05 35.12 11.71" style="fill:#fff"/><polygon points="38.09 12.31 38.89 12.72 38.82 12.88 38.16 12.54 37.91 13.05 38.56 13.38 38.48 13.54 37.83 13.21 37.43 14.01 37.27 13.92 38.09 12.31" style="fill:#fff"/><path d="M39.26,13.46l.14.1-.34.52a1.51,1.51,0,0,0-.15.28.49.49,0,0,0,0,.24.52.52,0,0,0,.17.19.46.46,0,0,0,.25.08.47.47,0,0,0,.22-.09,1,1,0,0,0,.19-.26l.34-.52.14.09-.35.55a.87.87,0,0,1-.28.32.46.46,0,0,1-.28.08.51.51,0,0,1-.31-.11.64.64,0,0,1-.24-.25.48.48,0,0,1,0-.29,1,1,0,0,1,.17-.38Z" style="fill:#fff"/><path d="M40.88,14.56l.13.1-.15.2a.81.81,0,0,1,.31,0,.5.5,0,0,1,.25.13.4.4,0,0,1,.16.22.42.42,0,0,1,0,.27,1,1,0,0,1-.22.34l-.43.53-.13-.11.4-.49a2.35,2.35,0,0,0,.19-.25.41.41,0,0,0,0-.22.46.46,0,0,0-.13-.2A.45.45,0,0,0,41,15a.38.38,0,0,0-.28.09,1.28,1.28,0,0,0-.26.26l-.31.39L40,15.59Z" style="fill:#fff"/><path d="M42.71,16.43a.53.53,0,0,0-.55-.19.77.77,0,0,0-.25.14.61.61,0,0,0-.15.24.66.66,0,0,0,0,.28.56.56,0,0,0,.13.24.56.56,0,0,0,.52.16.59.59,0,0,0,.23-.14.56.56,0,0,0,.19-.38.55.55,0,0,0-.12-.35m.94,0-1.34,1.28-.15-.11.17-.15a1.61,1.61,0,0,1-.31,0,.78.78,0,0,1-.26-.17.69.69,0,0,1,0-1h0a.69.69,0,0,1,1,0h0a.64.64,0,0,1,.15.25.62.62,0,0,1,0,.33l.55-.53Z" style="fill:#fff"/><polygon points="44.8 18.02 44.9 18.17 43.54 19.07 43.92 19.64 43.77 19.74 43.29 19.01 44.8 18.02" style="fill:#fff"/><path d="M45.71,19.32a.2.2,0,0,1,0,.11.18.18,0,0,1-.07.08.09.09,0,0,1-.1,0,.15.15,0,0,1-.09-.06.11.11,0,0,1,0-.11.15.15,0,0,1,.06-.09.2.2,0,0,1,.11,0,.13.13,0,0,1,.09.07m-.53.19.09.15-1.16.66L44,20.17Z" style="fill:#fff"/><path d="M45.64,20.32l.07.16-.21.08a.64.64,0,0,1,.24.1.46.46,0,0,1,.18.23.54.54,0,0,1,0,.18.48.48,0,0,1,0,.17.37.37,0,0,1-.13.15,1,1,0,0,1,.3.11.48.48,0,0,1,.19.23.36.36,0,0,1,0,.25.43.43,0,0,1-.12.22,1.18,1.18,0,0,1-.32.19l-.68.29-.07-.16.67-.29a.87.87,0,0,0,.27-.14.36.36,0,0,0,.08-.15.54.54,0,0,0,0-.18.37.37,0,0,0-.17-.18.39.39,0,0,0-.23-.07,1.42,1.42,0,0,0-.4.12l-.48.2-.07-.15.62-.27a.75.75,0,0,0,.29-.16.25.25,0,0,0,.1-.15.28.28,0,0,0,0-.18.35.35,0,0,0-.17-.19.41.41,0,0,0-.22,0,.92.92,0,0,0-.36.1l-.52.22-.06-.15Z" style="fill:#fff"/><path d="M47.18,22.79a.13.13,0,0,1,0,.12.15.15,0,0,1-.09.06.09.09,0,0,1-.1,0,.11.11,0,0,1-.07-.08.2.2,0,0,1,0-.11.14.14,0,0,1,.08-.07.24.24,0,0,1,.12,0,.16.16,0,0,1,.06.08m-.55.08V23l-1.25.37v-.16Z" style="fill:#fff"/><polygon points="47.37 23.74 47.42 23.9 46.93 24.02 47 24.29 46.85 24.32 46.79 24.05 45.63 24.32 45.59 24.16 46.75 23.88 46.7 23.65 46.84 23.62 46.89 23.84 47.37 23.74" style="fill:#fff"/><path d="M46.74,26.1a.39.39,0,0,0,.2-.13.29.29,0,0,0,.11-.18.49.49,0,0,0,0-.24.44.44,0,0,0-.17-.31.5.5,0,0,0-.29-.12Zm-.36.06v.15a.7.7,0,0,1-.24-.13A.62.62,0,0,1,46,26a.69.69,0,0,1,.52-1A.71.71,0,0,1,47,25a.62.62,0,0,1,.32.49.64.64,0,0,1-.19.57.69.69,0,0,1-.43.22l-.21-1.21a.52.52,0,0,0-.35.2.46.46,0,0,0-.11.37.76.76,0,0,0,.06.2.79.79,0,0,0,.12.15l.2.11" style="fill:#fff"/><path d="M47.21,27.61a.6.6,0,0,0-.06-.27.8.8,0,0,0-.21-.2.62.62,0,0,0-.53,0,.7.7,0,0,0-.21.21.58.58,0,0,0-.06.26.66.66,0,0,0,.06.27.73.73,0,0,0,.2.19.51.51,0,0,0,.27.06.54.54,0,0,0,.39-.15.48.48,0,0,0,.15-.37m.66.68H46v-.16h.23a.74.74,0,0,1-.2-.23.58.58,0,0,1-.06-.29.66.66,0,0,1,.2-.5.76.76,0,0,1,.49-.2.7.7,0,0,1,.5.2.69.69,0,0,1,.21.49.53.53,0,0,1-.07.3.66.66,0,0,1-.21.23h.77Z" style="fill:#fff"/><path d="M19.26,37h0a3.24,3.24,0,0,0,.12.62,1.11,1.11,0,0,0,.18.34V38a.17.17,0,0,1-.17,0,.5.5,0,0,1-.24-.09.29.29,0,0,1,0-.13v-.75a.09.09,0,0,1,0-.07m-.75-.06-.4.29.14.19h0l.37-.14a.09.09,0,0,1,.12,0h0v.16l-.3.07h0a1,1,0,0,1,.11.17h.09l.33-.24v-.06a2.45,2.45,0,0,0-.34-.48M18,37l.4-.3-.33-.45a.08.08,0,0,0-.11,0h0l-.3.21a.07.07,0,0,0,0,.1h0l.12.15v-.07l.13-.23h.15a.11.11,0,0,1,0,.14,0,0,0,0,1,0,0l-.27.25h0l.17.23m.64-1v.08h-.11a2.18,2.18,0,0,1-.44-.11.09.09,0,0,0,0,.07.42.42,0,0,0,.09.16l.43.59c.1.13.22.29.34.48a.32.32,0,0,0,.13.1.14.14,0,0,1,0,.19h0a.24.24,0,0,0-.14,0,1.14,1.14,0,0,0-.23.15l-.17.14a.1.1,0,0,1-.15,0,0,0,0,0,1,0,0c-.18-.28-.35-.53-.5-.73l-.42-.48-.19-.21a.1.1,0,0,1,0-.15h0a2,2,0,0,0,.32-.18,1.42,1.42,0,0,0,.25-.24h0l-.19-.09a.21.21,0,0,1-.06-.1.36.36,0,0,1-.06-.2V35.4a.06.06,0,0,1,.09,0h0a2.18,2.18,0,0,0,.21.22,1.77,1.77,0,0,0,.32.21,2,2,0,0,0,.36.16h0M17,37.07h0l.57.76v.1h.35c-.12-.2-.32-.46-.59-.82a0,0,0,0,0-.07,0h0l-.17.13m0,.67.3.43s0,0,.07,0h0l.17-.13a6.56,6.56,0,0,0-.7-.86h0l-.12.07a.08.08,0,0,0,0,.11h0a3.58,3.58,0,0,1,.28.37m.3-1.08.07,0,.09.13.33.44c.08.1.15.22.25.37a.34.34,0,0,0,.09.08.09.09,0,0,1,0,.12v0h0l-.16.08-.25.18-.35.24h-.14a4.86,4.86,0,0,1-.37-.56l-.28-.37-.15-.14a.09.09,0,0,1,0-.13l0,0a2.56,2.56,0,0,0,.35-.22,2.69,2.69,0,0,0,.32-.27.08.08,0,0,1,.12,0l0,0" style="fill:#fff"/><path d="M21.73,41.68a.07.07,0,0,1,0,.1l0,0a.12.12,0,0,1-.06.06h-.31V41.8l.25-.09a.13.13,0,0,1,.12,0M21.46,41l-.11.14.22.17h.08l.08-.16h0L21.5,41m-.41-.09.15.12.11-.15-.28-.21-.12.15Zm.13.39s.06.09,0,.13a.13.13,0,0,1-.07.06h-.27V41.4a.94.94,0,0,1,.22-.12.11.11,0,0,1,.11,0m.88-1.76a.1.1,0,0,1,0,.16v0l-.11.09c.3.22.56.43.76.61l.13.06s.07.08,0,.11h-.05a.92.92,0,0,0-.28.24.09.09,0,0,1-.12,0,.08.08,0,0,1,0-.1,2.11,2.11,0,0,1,.19-.23,6.33,6.33,0,0,0-.75-.62c-.37-.27-.69-.48-1-.64a.7.7,0,0,1-.2.22.08.08,0,0,1-.11,0v-.06a1.76,1.76,0,0,0,.24-.42.07.07,0,0,1,.1,0l0,0a.16.16,0,0,1,.07.09l.06.07.72.52h0v-.12a.11.11,0,0,1,.16,0l0,0m-1.3,1.17.11-.15-.12-.18a.05.05,0,0,0-.08,0h0s0,0-.07.06v.09l.24.17m.46-1.08.11.09.33.24h0a.08.08,0,0,1,.12,0l0,0c.06,0,.06.09,0,.16h0l.39.31a.09.09,0,0,1,.07.12s-.1,0-.17,0l-.34-.38-.08.11.36.28s.07.08,0,.12-.08,0-.17,0l-.33-.27-.07.08c.36.27.63.46.79.57s0,0,0,.08,0,0-.08,0a.11.11,0,0,1-.11,0c-.26-.23-.7-.56-1.33-1a1.34,1.34,0,0,0-.31-.17s-.06-.09,0-.13,0,0,.09,0h.08l.1.08.65.49.08-.11A3.35,3.35,0,0,0,21,40s-.07-.09,0-.12h.16l.12.09.28.21.08-.11a2.94,2.94,0,0,0-.47-.31c-.05,0-.06-.07,0-.11a.09.09,0,0,1,.15,0m-.63.54a.2.2,0,0,1,.07.06l.11.08.59.44.45.36.1,0a.08.08,0,0,1,0,.12l0,0H21.9a.48.48,0,0,0-.09.11.14.14,0,0,0,0,.09h-.13A7.89,7.89,0,0,0,21,41l-.47-.34-.22-.13a.08.08,0,0,1,0-.11h0a.93.93,0,0,0,.14-.14v-.12s.08-.06.14,0m.07.74c.07,0,.07.11,0,.18l-.26.09c.24.19.47.37.66.55s.36.32.47.41a2.7,2.7,0,0,0,.44.24v.07a.57.57,0,0,1-.22.11.39.39,0,0,1-.26,0l-.1-.1a9.1,9.1,0,0,0-1-1.07,1,1,0,0,0-.29-.14c-.06,0-.07-.1,0-.15h.2a.78.78,0,0,0,.2-.11s.09-.05.13,0m-1.08-.43.09.08a.93.93,0,0,0,.4.12v.06c0,.05-.11.05-.26.08a.44.44,0,0,1-.32,0,.21.21,0,0,1-.06-.12.49.49,0,0,1,.07-.19" style="fill:#fff"/><path d="M26,43.07h0l-.07.19.41.15h.05l0-.11a0,0,0,0,0,0-.07L26,43.07m-.13.36-.07.24.4.15h0l.09-.24-.46-.16m-.11-1.07.21.06.28.1.07-.24-.13,0-.31-.11Zm-.46.71h.07l.38.14V43l-.44-.13a.59.59,0,0,1-.07.2m-.16.37h0l.44.16.06-.16v-.06a2.42,2.42,0,0,0-.46-.13h0a.82.82,0,0,1-.09.19m.33-1.64.13.06h.12v-.18a.1.1,0,0,1,.13-.06h0a.11.11,0,0,1,.08.12v.18l.46.18.06-.2a.09.09,0,0,1,.1-.07h0a.11.11,0,0,1,.09.13s0,0,0,0l-.08.17.14,0h.19v.09s0,0-.07,0h.08l-.26-.08-.11.23h0l.34.13a3.28,3.28,0,0,0,.41.08v0c0,.06-.09.13-.22.17a.41.41,0,0,1-.22,0,.45.45,0,0,1-.14-.1,1.94,1.94,0,0,0-.29-.21,4.08,4.08,0,0,0-.42-.17l-.2-.06h0l-.22.16c.44.16.8.29,1.08.41h.13c.08,0,.12.08.08.17a2.84,2.84,0,0,0-.29.61,2.42,2.42,0,0,0-.1.36.15.15,0,0,1-.17.15c-.06,0-.08-.08-.06-.15a.77.77,0,0,1,.08-.27l-.45-.15v.13c0,.16-.11.23-.19.2s-.08-.1,0-.23,0-.11.08-.17l-.51-.14a.61.61,0,0,1-.24.21.25.25,0,0,1-.17,0,.49.49,0,0,1-.16-.16.25.25,0,0,1-.06-.18,0,0,0,0,1,.07,0,.48.48,0,0,0,.29,0,.42.42,0,0,0,.22-.15,1.87,1.87,0,0,0,.15-.32.74.74,0,0,0,0-.21l-.15.06a.25.25,0,0,1-.17,0,.36.36,0,0,1-.16-.14.14.14,0,0,1,0-.09h0a.72.72,0,0,0,.41,0,1.43,1.43,0,0,0,.45-.21l-.19-.07H25c-.07,0-.1,0-.08-.09a.15.15,0,0,1,.08.14.22.22,0,0,1,.16,0l.53.15.06-.24-.31-.08a.08.08,0,0,1-.07-.12c0-.06,0,0,.07-.07h.11m-.21-.35h0a.16.16,0,0,1-.07.09,2.26,2.26,0,0,1-.37.26l-.1.06a.11.11,0,0,1,0,.08,6,6,0,0,0-.27.7c-.07.19-.14.44-.24.75s-.12.23-.21.2-.1-.1-.06-.22a7.21,7.21,0,0,0,.3-.77c.09-.23.15-.43.21-.61H24.3a.34.34,0,0,1-.2-.19.15.15,0,0,1,0-.13h0a1,1,0,0,0,.49,0,2.81,2.81,0,0,0,.62-.26,0,0,0,0,1,.06,0" style="fill:#fff"/><path d="M31.27,44.28a.1.1,0,0,1,.11.09v0a.17.17,0,0,1,0,.1l-.33.16a.05.05,0,0,1-.06,0v0l.18-.25a.17.17,0,0,1,.12,0m-.77-.06c.06,0,.09,0,.09.08v.1l-.25.15s-.07,0-.07-.06l.13-.23a.11.11,0,0,1,.11,0m-.76,0c.08,0,.11,0,.11.13a1.18,1.18,0,0,1-.17.24,6.55,6.55,0,0,1,.89.1c.21,0,.42.07.64.09a1.79,1.79,0,0,0,.56-.07v.07a.72.72,0,0,1-.14.24.46.46,0,0,1-.26.15h-.14a7.35,7.35,0,0,0-1.45-.37,2,2,0,0,0-.35,0,.1.1,0,0,1-.11-.1h0a.5.5,0,0,0,.14-.15.63.63,0,0,0,.13-.2c0-.07,0-.1.09-.1m-.1-1.79c.09,0,.14,0,.13.12v.2h.82l.05-.23a.1.1,0,0,1,.12-.09h0a.11.11,0,0,1,.13.1v0l-.12.19h1a.18.18,0,0,1-.11.15.44.44,0,0,1-.23.1l-.56-.1h0a.14.14,0,0,1-.06.12,2.66,2.66,0,0,0-.35.32h0l.17.1.26-.27h.06a.11.11,0,0,1,.08,0v.09l-.06.07-.36.33h.22a.74.74,0,0,0,.21,0h0v-.16h0A.08.08,0,0,1,31,43.5c.06,0,.08,0,.09.09a1.92,1.92,0,0,1,0,.24v.07c0,.08,0,.1-.08.1h-.72c-.08,0-.13,0-.13-.1v-.07l.2-.19h-.26a.12.12,0,0,1-.1-.12h0l.07-.11a2.27,2.27,0,0,1,.31-.31l.14-.13H29.8a.19.19,0,0,1-.07.11,3.62,3.62,0,0,0-.42.36h0l.13.1.28-.28h.14a.17.17,0,0,1,0,.1l-.06.07-.38.34h.21a.31.31,0,0,0,.19,0h0v-.17h0a.07.07,0,0,1,.08-.07c.09,0,.08,0,.09.09a1.92,1.92,0,0,1,0,.24.11.11,0,0,1,0,.08c0,.07,0,.1-.08.09h-.65c-.09,0-.13,0-.13-.09a.11.11,0,0,1,0-.08l.19-.18h-.07a.13.13,0,0,0-.12,0,.13.13,0,0,1-.11-.14.28.28,0,0,1,.08-.11,2.73,2.73,0,0,1,.34-.34.64.64,0,0,0,.15-.13h-.77c-.09,0-.13,0-.13-.12a.47.47,0,0,1,.06-.09.24.24,0,0,1,.12,0h.72v-.06l-.06-.17c0-.08,0-.11.14-.11m-1.08,2.15a.48.48,0,0,0,.17,0c.12,0,.26-.09.44-.27v.07a.68.68,0,0,1-.18.32c-.12.17-.22.26-.31.26a.19.19,0,0,1-.14-.09.34.34,0,0,1-.06-.24v-.07" style="fill:#fff"/><path d="M35.17,44.27l.5-.13a0,0,0,0,0,0-.06c0-.07,0-.22,0-.27s0,0-.07,0a5.15,5.15,0,0,0-1,.25c-.06,0-.09,0-.07.08a.53.53,0,0,0,0,.25c0,.07,0,0,.11,0a3.94,3.94,0,0,1,.49-.14m.17-1V43h0l-.36.1-.54.15v.27l.46-.14.4-.1m-1.07.6h.29l.55-.16.46-.09.13-.07c.08,0,.12,0,.15.08h0a.24.24,0,0,0,0,.12.81.81,0,0,0,0,.22.44.44,0,0,0,.06.16.11.11,0,0,1,0,.15h0l-.69.14-.5.14-.22.09c-.08,0-.13,0-.13-.06a1.07,1.07,0,0,0-.06-.31.54.54,0,0,0-.09-.24.1.1,0,0,1,0-.14h0m-.3-1.77c.09,0,.14,0,.16.09v.21h0l.85-.22h0V42c0-.07,0-.11.09-.13a.12.12,0,0,1,.15.07v.27l.47-.13.06.05a.09.09,0,0,1,0,.1.16.16,0,0,1-.09.07l-.84.21v.15l.54-.14.18-.07a.11.11,0,0,1,.08,0,.14.14,0,0,1,0,.09h-.06l-.67.18v.17l.75-.19.2-.06a.07.07,0,0,1,.07.06.09.09,0,0,1,0,.1h-.06l-.33.07v.43h.18l.52-.13a1.58,1.58,0,0,0,.35-.16h0a.42.42,0,0,1-.07.29.16.16,0,0,1-.14.14.88.88,0,0,1-.23,0,2.26,2.26,0,0,0-.52,0,4.4,4.4,0,0,0-.63.13l-.8.24a4.07,4.07,0,0,0-.66.33h-.14a.29.29,0,0,1,0-.13.21.21,0,0,1,.16-.11l.77-.27h0l-.11-.17h0l-.35.14c-.08,0-.12,0-.14-.07a.13.13,0,0,1,0-.12s0-.06.08-.06h.18l.69-.21V43l-.32.1-.39.13c-.06,0-.09,0-.1-.06a.11.11,0,0,1,0-.11h.24l.52-.14v-.15l-.56.15a3.82,3.82,0,0,0-.36.13h-.13a.13.13,0,0,1,0-.12.11.11,0,0,1,.07-.06h.15l.27-.06h0l-.12-.55c0-.08,0-.12.1-.14" style="fill:#fff"/><path d="M39.07,42,39.2,42l.27-.16-.06-.1a.1.1,0,0,1,0-.15s0,0,0,0a.13.13,0,0,1,.18,0h0l0,.1.44-.28h.08a.11.11,0,0,1,0,.08c0,.06,0,.09-.06.1l-.38.21.17.31.54-.35.18-.15h.1a.22.22,0,0,1,0,.16.34.34,0,0,1-.13.2,1.43,1.43,0,0,0-.34.14l-.42.23a4.43,4.43,0,0,0-.42.29l-.25.23a.1.1,0,0,1-.14,0h0v-.13a.24.24,0,0,1,.07-.12l.13-.05.24-.13.27-.18-.2-.29h-.09a1.76,1.76,0,0,0-.3.24H39A.2.2,0,0,1,39,42,.16.16,0,0,1,39,42m-.1-.48.71-.45-.09-.18a5.7,5.7,0,0,0-.7.47Zm-.23-.33h0l.63-.38h.06l-.09-.16c-.24.15-.47.31-.7.48Zm-.17-.29.65-.4h.06l-.08-.12-.71.43Zm-.62,0L38,40.8l.11-.06v-.05a.1.1,0,0,1,0-.15l0,0a.13.13,0,0,1,.18,0h0v0l.69-.43v-.21s.13,0,.17,0V40l.25-.17a.06.06,0,0,1,.09,0h0a.2.2,0,0,1,0,.11.14.14,0,0,1-.07.1l-.19.11.4.73.57-.35h.08a.14.14,0,0,1,0,.09.17.17,0,0,1-.06.12l-.44.26a3.29,3.29,0,0,0,.54-.05,1.51,1.51,0,0,0,.45-.2h0c.05,0,0,.15,0,.26a.67.67,0,0,1-.19.22.19.19,0,0,1-.15,0c-.32,0-.61-.1-.88-.12h0l-.63.39a.06.06,0,0,1,0,.06,3.38,3.38,0,0,1-.18.62,3.18,3.18,0,0,1-.16.32.32.32,0,0,1-.1.1.45.45,0,0,1-.23,0c-.11,0-.19,0-.21-.06a.07.07,0,0,1,0-.09,1.71,1.71,0,0,0,.26-.21,1.81,1.81,0,0,0,.24-.37c0-.09.1-.19.14-.29l-.15.1a3.75,3.75,0,0,0-.33.26h-.14a.13.13,0,0,1,0-.12.12.12,0,0,1,.05-.1l.13-.06.35-.22-.45-.71a1.22,1.22,0,0,0-.25.2h-.14s0-.07,0-.12a.12.12,0,0,1,0-.1" style="fill:#fff"/><path d="M43.52,38.15h0l.26-.13.14-.12m.07,0a.19.19,0,0,1,0,.15.49.49,0,0,1-.08.23h0l-.34-.05h0v-.07m-.85,1.13.1-.08a1.47,1.47,0,0,0,.14-.28m.06,0a.37.37,0,0,1,0,.21.39.39,0,0,1,0,.26.15.15,0,0,1-.13,0,.3.3,0,0,1-.18-.08v-.07m-.63-.76.11-.11,1-1.08c.15-.17,0,0,.08,0a.14.14,0,0,1,0,.09.11.11,0,0,1,0,.11l-.4.46.26.25.43-.5.13-.16h.12a.17.17,0,0,1,0,.1.11.11,0,0,1,0,.08l-.55.6.51.45c.26-.32.48-.58.68-.8l.12-.19a.08.08,0,0,1,.1,0h0a.26.26,0,0,1,.07.15.37.37,0,0,1,0,.21,5.3,5.3,0,0,0-.43.38l-.51.55a5,5,0,0,0-.45.56A4.2,4.2,0,0,0,43,40c-.1.17-.1.06-.16,0a.24.24,0,0,1,0-.12.28.28,0,0,1,0-.13l.15-.15.28-.31.33-.4-.5-.43-.24.29a2.42,2.42,0,0,0-.27.36c-.06.07-.11.08-.16,0a.2.2,0,0,1,0-.11.17.17,0,0,1,0-.1l.14-.13.39-.46-.29-.25-.2.22a1.81,1.81,0,0,0-.22.32c0,.06-.1.07-.13,0a.21.21,0,0,1-.06-.1.17.17,0,0,1,0-.1M42,37.28h.06a7,7,0,0,0,.89-.37,2.16,2.16,0,0,0,.6-.44h.07s.07.13,0,.3a.53.53,0,0,1-.13.26.14.14,0,0,1-.1.07l-1.29.34h0a3.29,3.29,0,0,1-.07.83,1.65,1.65,0,0,1-.28.67.39.39,0,0,1-.22.11.21.21,0,0,1-.19,0v-.11a2.2,2.2,0,0,0,.44-.79,2.27,2.27,0,0,0,.13-.77.17.17,0,0,1,0-.1" style="fill:#fff"/><path d="M43.05,27.68A12.26,12.26,0,1,1,30.79,15.44h0A12.24,12.24,0,0,1,43.05,27.68" style="fill:#fff"/><path d="M30.81,8.08a19.6,19.6,0,1,0,19.6,19.6h0a19.63,19.63,0,0,0-19.6-19.6m0,39.67A20.07,20.07,0,1,1,50.87,27.68,20.08,20.08,0,0,1,30.81,47.75" style="fill:#fdc70d"/><path d="M30.81,15.66a12,12,0,1,0,12,12h0a12,12,0,0,0-12-12m0,24.51a12.49,12.49,0,1,1,12.48-12.5h0A12.5,12.5,0,0,1,30.81,40.17" style="fill:#fdc70d"/><path d="M26.82,23.33H27v-.15l.12-.09V23h.06l.06-.09h.22a.77.77,0,0,0,.14-.21h.21c0-.06.09-.12.14-.2V22.4h0a.5.5,0,0,0-.12-.37v-.09l-.26-.09v-.06H26.7a.14.14,0,0,1-.15,0h-.17v.11h-.15l-.06.08h0V22h0v.22h0v.07h0v.08h-.05v.11h-.05v.14h0v.12H26v.06l-.09.06h-.06l-.09.12h-.12l-.08.06c0,.18-.19.28-.31.4v.08h-.07a.26.26,0,0,1-.05.09h0a1.15,1.15,0,0,0-.14.17H24.9v.06h-.15a2.09,2.09,0,0,1-.14.17h0a.36.36,0,0,0-.08.12h-.06l-.29,0H22.29c-.06,0-.07,0-.12.09h0c0,.08.07.07-.05.1v.33h0v.11c.08,0,.16.1.29.06h0a.39.39,0,0,1,.26,0h.49a.53.53,0,0,0,.25,0H24l.43-.06h.32a.82.82,0,0,1,.11.57h0a.17.17,0,0,1,0,.18h0v.51a1.25,1.25,0,0,1,.07.26v.81h0V28A5,5,0,0,1,25,29v.28A2.17,2.17,0,0,1,25,30h0l.06.9h0v.75h0v.86h0v1.56h0v.36h0v.07h0v.1a.64.64,0,0,0,.34.19c0-.15-.08-.14-.09-.29a1.42,1.42,0,0,0,.29.1v-.08h0V34.4a.56.56,0,0,0,.17.09V34.4c.08,0,.09,0,.12.09s.12-.1.19-.15v-.23c0-.06-.08-.15-.05-.26h0v-.2a1,1,0,0,1,0-.43h0v-.06h0c0-.14-.12-.18-.06-.34h0v-.06h0v-.21h0v-.19h0V32h0v-.2h0a1.5,1.5,0,0,1,.08-.63v-.66h0V30.4h0v-.14h0v-.32h0V29.8h0v-.15h0v-.48h0v-.12h0V29h0v-.14h0v-.2h0V28.5h0v-.43a2,2,0,0,1,0-.6h0V27h0v-.11h0V26h0v-.08h0v-.14h0v-.21h0V25h0v-.09h0c0-.19,0-.41-.14-.52v-.34l.2-.15.11-.31.18-.12v-.09h0v-.08Zm4.45,2.27a.81.81,0,0,1,.31-.06h.26a6.94,6.94,0,0,0,1.07-.11h0v.12h0v.55h0v.15h0v.14h0c0,.08,0,.07-.06.12a1.7,1.7,0,0,1-.45,0H30.92c-.08.06,0,.08-.17.09a3.15,3.15,0,0,0-.12-.67h0v-.17h0v-.29h0l.51-.07h0Zm1.68,3a2.68,2.68,0,0,0-.8,0H31c-.08,0-.12.07-.23.09a2.8,2.8,0,0,1,.09-1.08.37.37,0,0,1,.05-.24v-.08h.26l.23.06h.39a1.58,1.58,0,0,0,.52.12h.62v.11h0v.92l-.08.12M33.9,27.6v-.09h1.24a1.29,1.29,0,0,1,.48,0h.31v.06H36v.21h0v.15h0v.22h0v.37h0v.18a5.61,5.61,0,0,1-.82,0h-.55a1.76,1.76,0,0,1-.6-.06h0v-.06h0v-.22h0v-.14h0a.69.69,0,0,1,.06-.4c0-.1-.07-.13,0-.2m0-1.73v-.33h0l.08-.1c.75,0,1.38-.1,2.15-.09a1.22,1.22,0,0,1,0,.57v.38h0v.08h-.91a.36.36,0,0,1-.25,0h-1a2.53,2.53,0,0,0,0-.55m3.53-3.67-.4.28H34.14c0-.19.18-.2.26-.31h.06c0-.16.06-.07.17-.12h.06l.14-.18H35l.09-.1h.11l.06-.09h0v-.05a1.18,1.18,0,0,0,.23-.35h0V21h0v-.08c-.07-.26-.27-.07-.49-.15h-.4v.08h-.05v.07h0v.05h0l-.09.07v0l-.17.15v.05l-.22.21v.05H34l-.08.07v.05h-.09v.16l-.14.11V22l-.2.14-.11.15h-.12a.54.54,0,0,1-.09.12h-.39l-.07.09H32.4c-.15,0-.35-.15-.49,0a.8.8,0,0,1-.25-.11v-.09h0v-.06h0v-.05h0v-.09h0V22h0v-.09H31.6V21.8h-.06v-.12h-.07V21.6h0l-.06-.18h0v-.05h-.06v-.06H31.3l-.08-.11c-.31,0-.28.12-.47.22a2.67,2.67,0,0,0,0,.4v.12h0l.17.1v.05h0v.09h0v.08h0v.12h0v.14h0a.5.5,0,0,1,.09.23l-1.45-.09h-.62l-.49.12H28.4c-.07,0-.09.09-.17.11a.49.49,0,0,1-.14.23H28v.09h-.17v.12h.55c.12,0,.19,0,.26-.07h.59l1-.08h.87a1.06,1.06,0,0,1,.39-.09v.09H31.1l-.06.08h-.5v.06h-.21l0,.06h-.06v.07H30.1v.06H30v0H30l-.07.06h-.17v.05l-.26.06v.06h-.37l-.26.06h0l-.28.07h-.48a.72.72,0,0,1-.46.06h-.15v-.06h-.08L27.11,25v.08h0v.17l-.11.09v.09H27v.08h0v.12h0v.09H27v.08l.43.06h.38v.05h.72c.17,0,.29-.18.45-.23h.43a.62.62,0,0,0,.09.26h0v.14h0l.06.17h0v.23h0v.09h0v.18h0v.08h0v.32h0v.37h0v.15h0v.37h0v.12h0v.14h0v.12h0v.11h0v.23h0v.63h0v.24h0v.14h0V30h0v.11h0v.09h0v.12h0v.11h-.06v.08h0v.15h0v.07H29.4v.06l-.15.11V31l-.11.09v.05l-.15.12h-.27s-.07.1-.16.12h-.12v.05h-.22a.23.23,0,0,1,.14-.18h.11a.21.21,0,0,0,0-.11.83.83,0,0,0-.51.09H27.7v.06l-.09.06h0l-.1.08c0,.19,0,.22.14.26a2.81,2.81,0,0,1,0,.58h0c0,.07,0,.13-.06.17h-.08v.11a.24.24,0,0,0,.14,0h0a.92.92,0,0,0,.37,0h.31l.06-.09h.06v-.06h.06l.25-.1h0v-.06h.07v-.06H29v-.06H29V32h.22l.17-.2h0v.12h.09v-.26h.08l.07-.12h.1l.07-.12H30v-.2h0v.07H30v-.12h0v-.08h0V31h0v-.08h0v-.09h.06v-.06l.09-.06v-.08h0v-.07h0v-.1h0v-.18l.09-.06.05-.26c.1,0,.17,0,.23.07a.37.37,0,0,0,.2-.12H33l.11.08v.92a1.88,1.88,0,0,0,0,.58h0v.74h0V33h0v.09h0v0h0v.18c.13,0,.14-.08.18-.18h0v-.08h.09a.14.14,0,0,0,.06.11h.09a.26.26,0,0,0,0-.21.17.17,0,0,1,0-.14h.17a.2.2,0,0,1,0-.11h0v-.26h0V32.4h0a.71.71,0,0,0,0-.29v-.74a2.37,2.37,0,0,1,0-.84V30.1a.59.59,0,0,0,0-.23l.55-.06h1.54v.34h0v.35h0V31h0v.21h0v.11h0v.18h0v.35h0v.35h0v.17h0v.31c.06.25.14.6.37.67h.57l.09-.12H37A.56.56,0,0,1,37.1,33v-.08l.15-.12v0h0v0h0v-.12h0v-.72h0v-.38h0v-.31h0V31h0v-.46h0v-.28h0l-.07-.46h0v-.17h0v-.15h0a.48.48,0,0,1,0-.17h0v-.37a2.81,2.81,0,0,0,0-.58v-.55h0c0-.06-.06-.15,0-.26h0v-.17h0v-.09h0v-.54h0c0-.09-.08-.13-.06-.23h0V26.4h0V26a2.47,2.47,0,0,0,.07-.66V25h0v-.11c0-.11,0-.21-.07-.32a.37.37,0,0,1-.24-.17.75.75,0,0,0-.33.06h-1.4c-.43,0-.78-.06-1.15-.09a2.38,2.38,0,0,0,0-.26L33.86,24h-.3c0,.07-.1.12-.14.17h0l-.09.06a1.55,1.55,0,0,0-.08.23h-1.8a.49.49,0,0,1-.17,0,.45.45,0,0,1,.14-.32h0V24l.09-.06h0v0l.14-.12a1.63,1.63,0,0,0,.17-.2H32v-.06h.34l.05-.08h.13a2.19,2.19,0,0,1,1.08,0h2.5l.4-.07h.44l.17-.05v-.09h.06l.06-.08a1.09,1.09,0,0,1,.4-.27.34.34,0,0,1,.09-.14h0a5.78,5.78,0,0,1,.08-.6c-.19,0-.16.09-.26.2" style="fill:#1d1d1b"/><path d="M56.63,28.84h3.72v1.25h-.18a1.05,1.05,0,0,0-.5-.9A1.37,1.37,0,0,0,59,29v3.22a.61.61,0,0,0,.12.45.73.73,0,0,0,.5.11V33H57.45v-.16a.73.73,0,0,0,.48-.11.61.61,0,0,0,.12-.45V29a1.55,1.55,0,0,0-.7.15,1,1,0,0,0-.49.9h-.19Z" style="fill:#1d1d1b"/><path d="M60.2,32.08h.17a.91.91,0,0,0,.35.62.84.84,0,0,0,.5.19.45.45,0,0,0,.34-.11.34.34,0,0,0,.12-.28.36.36,0,0,0-.12-.28.77.77,0,0,0-.21-.14l-.46-.23a1.52,1.52,0,0,1-.52-.38.78.78,0,0,1-.16-.49.85.85,0,0,1,.23-.58.93.93,0,0,1,.69-.26,1.84,1.84,0,0,1,.42.07l.27.06a.11.11,0,0,0,.11,0,.22.22,0,0,0,0-.08h.14v.89H62a1,1,0,0,0-.28-.51.66.66,0,0,0-.46-.19.39.39,0,0,0-.31.12.37.37,0,0,0-.1.25.43.43,0,0,0,.09.21,1.09,1.09,0,0,0,.33.23l.33.16a1.79,1.79,0,0,1,.47.3.8.8,0,0,1,.23.59.94.94,0,0,1-1,.94H61l-.31-.1h-.26l-.09.14h-.15Z" style="fill:#1d1d1b"/><path d="M63,30.49a1.27,1.27,0,0,1,.92-.39,1.14,1.14,0,0,1,.57.16,1.18,1.18,0,0,1,.42.44,2.21,2.21,0,0,1,.15.56v.24H63.49a2.27,2.27,0,0,0,.12.64.64.64,0,0,0,.63.51.77.77,0,0,0,.42-.13,1.92,1.92,0,0,0,.29-.28l.14.09a1.56,1.56,0,0,1-.67.65,1.3,1.3,0,0,1-.55.12,1.26,1.26,0,0,1-.85-.35,1.47,1.47,0,0,1-.43-1.15A1.55,1.55,0,0,1,63,30.49Zm1.32.78a2.47,2.47,0,0,0-.09-.76.32.32,0,0,0-.31-.22.33.33,0,0,0-.33.25,2,2,0,0,0-.1.73Z" style="fill:#1d1d1b"/><path d="M65.35,32.86a.46.46,0,0,0,.25-.08.43.43,0,0,0,.08-.29V30.68a.44.44,0,0,0-.07-.27.51.51,0,0,0-.26-.09v-.14h1.17v.44a1.37,1.37,0,0,1,.38-.38.88.88,0,0,1,.5-.14.91.91,0,0,1,.62.2,1,1,0,0,1,.21.73v1.52c0,.14,0,.23.08.27a.49.49,0,0,0,.23.08v.15H67.09V32.9a.92.92,0,0,0,.23-.09.4.4,0,0,0,.06-.26V31a.91.91,0,0,0,0-.33.28.28,0,0,0-.29-.18.44.44,0,0,0-.29.11.74.74,0,0,0-.2.23v1.69c0,.13,0,.22.05.26a.92.92,0,0,0,.23.09v.15H65.35Z" style="fill:#1d1d1b"/><path d="M69,33.45a.62.62,0,0,1,.39-.18h0a.87.87,0,0,1-.31-.18.41.41,0,0,1-.14-.34.56.56,0,0,1,.22-.45,1.29,1.29,0,0,1,.44-.25h0a1.31,1.31,0,0,1-.5-.37.87.87,0,0,1,.19-1.28,1.44,1.44,0,0,1,.92-.27h.39a1.31,1.31,0,0,1,.28.09h.81v.32h-.46a1,1,0,0,1,.18.28.83.83,0,0,1,.06.35.77.77,0,0,1-.54.78,2.27,2.27,0,0,1-.72.12H70a.27.27,0,0,0-.19.08.26.26,0,0,0-.11.21.27.27,0,0,0,0,.15.25.25,0,0,0,.14.06h.83a1.56,1.56,0,0,1,.57.1.64.64,0,0,1,.44.65.83.83,0,0,1-.65.82,2.7,2.7,0,0,1-.89.12,3.82,3.82,0,0,1-.75-.08c-.34-.1-.51-.26-.51-.49A.42.42,0,0,1,69,33.45Zm.64.53a1.18,1.18,0,0,0,.59.12,2.76,2.76,0,0,0,.57-.06c.28-.07.42-.2.42-.38a.3.3,0,0,0-.12-.24.92.92,0,0,0-.43-.08h-1a.47.47,0,0,0-.14.14.32.32,0,0,0-.08.21A.34.34,0,0,0,69.6,34Zm.21-2.36a.38.38,0,0,0,.36.28.34.34,0,0,0,.31-.21,2.29,2.29,0,0,0,0-1.2.36.36,0,0,0-.65,0,1.68,1.68,0,0,0-.07.59A1.91,1.91,0,0,0,69.81,31.62Z" style="fill:#1d1d1b"/><path d="M73.51,32.85a.7.7,0,0,0,.35-.06.39.39,0,0,0,.18-.37v-3a.42.42,0,0,0-.15-.35,1.23,1.23,0,0,0-.38-.08v-.16h2.15V29a1.22,1.22,0,0,0-.38.07.37.37,0,0,0-.18.36v1.28h1.46V29.43a.34.34,0,0,0-.16-.35A1,1,0,0,0,76,29v-.16h2.15V29a.9.9,0,0,0-.36.08.36.36,0,0,0-.16.35v3a.36.36,0,0,0,.18.37.68.68,0,0,0,.34.06V33H76v-.16a.82.82,0,0,0,.38-.06.38.38,0,0,0,.17-.37V31H75.05v1.42a.37.37,0,0,0,.19.37.76.76,0,0,0,.37.06V33H73.46Z" style="fill:#1d1d1b"/><path d="M78.34,32.86a.3.3,0,0,0,.31-.37V30.68a.36.36,0,0,0-.07-.26.43.43,0,0,0-.24-.1v-.14h1.18v2.37a.39.39,0,0,0,0,.26.85.85,0,0,0,.22.09v.15h-1.4Zm.4-4a.48.48,0,0,1,.82.34.45.45,0,0,1-.14.33.41.41,0,0,1-.34.14.48.48,0,0,1-.34-.14.44.44,0,0,1-.14-.33.47.47,0,0,1,.11-.34Z" style="fill:#1d1d1b"/><path d="M80.08,32.86a.41.41,0,0,0,.24-.08.39.39,0,0,0,.09-.29V30.68a.43.43,0,0,0-.06-.27.54.54,0,0,0-.27-.09v-.14h1.17v.44a1.37,1.37,0,0,1,.38-.38.88.88,0,0,1,.5-.14.9.9,0,0,1,.61.2A1,1,0,0,1,83,31v1.52c0,.14,0,.23.07.27a.57.57,0,0,0,.24.08v.15H81.82V32.9a.73.73,0,0,0,.22-.09.36.36,0,0,0,.07-.26V31a1.82,1.82,0,0,0,0-.33.28.28,0,0,0-.29-.18.44.44,0,0,0-.29.11.93.93,0,0,0-.21.23v2a.92.92,0,0,0,.23.09v.15H80.08Z" style="fill:#1d1d1b"/><path d="M85.16,32.85a.57.57,0,0,0,.4-.13.59.59,0,0,0,.11-.43V29.56c0-.23,0-.37-.11-.44a.72.72,0,0,0-.4-.12v-.16H87.1a2.37,2.37,0,0,1,1.2.26,1,1,0,0,1,.41.88,1,1,0,0,1-.16.57A1.06,1.06,0,0,1,88,31a2.19,2.19,0,0,1-.56.14h-.84v1.15a.47.47,0,0,0,.32.56.45.45,0,0,0,.23,0V33h-2Zm2.25-2.05c.19-.12.29-.38.29-.81a1.42,1.42,0,0,0-.14-.67.56.56,0,0,0-.55-.26.57.57,0,0,0-.26,0,.16.16,0,0,0-.08.17v1.66a1.88,1.88,0,0,0,.7-.09Z" style="fill:#1d1d1b"/><path d="M89.33,30.49a1.25,1.25,0,0,1,.91-.39,1.1,1.1,0,0,1,.58.16,1.24,1.24,0,0,1,.41.44,1.86,1.86,0,0,1,.15.56,1,1,0,0,1,0,.24H89.83a2.27,2.27,0,0,0,.12.64.64.64,0,0,0,.63.51.74.74,0,0,0,.41-.13,1.58,1.58,0,0,0,.3-.28l.14.09a1.74,1.74,0,0,1-.67.65,1.28,1.28,0,0,1-1.42-.23,1.83,1.83,0,0,1,0-2.26Zm1.32.78a2.79,2.79,0,0,0-.11-.76.34.34,0,0,0-.65,0,2.26,2.26,0,0,0-.1.73Z" style="fill:#1d1d1b"/><path d="M91.69,32.86a.38.38,0,0,0,.21-.07.37.37,0,0,0,.1-.3V30.68a.39.39,0,0,0-.06-.28.57.57,0,0,0-.25-.11v-.14h1.18v2.4a.57.57,0,0,0,0,.26.92.92,0,0,0,.23.09v.15H91.69Zm.41-4a.47.47,0,0,1,.33-.14.48.48,0,0,1,.48.48.45.45,0,0,1-.14.33.41.41,0,0,1-.34.14.44.44,0,0,1-.33-.14.38.38,0,0,1-.14-.33A.44.44,0,0,1,92.1,28.89Z" style="fill:#1d1d1b"/><path d="M98.06,28.91a3.73,3.73,0,0,0,.44.14.22.22,0,0,0,.19-.09.41.41,0,0,0,.08-.19H99v1.45h-.16a2.67,2.67,0,0,0-.45-.74,1.28,1.28,0,0,0-1-.51,1,1,0,0,0-.88.54,3.33,3.33,0,0,0-.26,1.43A3.84,3.84,0,0,0,96.36,32a1.07,1.07,0,0,0,1.08.8,1.63,1.63,0,0,0,.89-.26,4.28,4.28,0,0,0,.55-.49l.18.15a3.17,3.17,0,0,1-.63.58,2,2,0,0,1-1.08.32,2.19,2.19,0,0,1-1.52-.54A2,2,0,0,1,95.14,31a2.09,2.09,0,0,1,2.15-2.21A2,2,0,0,1,98.06,28.91Z" style="fill:#1d1d1b"/><path d="M99.49,32.86a.44.44,0,0,0,.25-.08.44.44,0,0,0,.08-.29V29.33a.48.48,0,0,0-.07-.26.35.35,0,0,0-.26-.1v-.15h1.2v1.73a1.41,1.41,0,0,1,.39-.34.91.91,0,0,1,.48-.13.82.82,0,0,1,.58.2.87.87,0,0,1,.23.7v1.49c0,.14,0,.23.08.28a.5.5,0,0,0,.24.09V33h-1.4v-.15a.53.53,0,0,0,.22-.08V31a.91.91,0,0,0,0-.33.24.24,0,0,0-.27-.18.58.58,0,0,0-.34.14c-.11.1-.17.17-.17.2v1.69a.4.4,0,0,0,.06.26.92.92,0,0,0,.23.09v.15H99.49Z" style="fill:#1d1d1b"/><path d="M103.44,31.78a5,5,0,0,1,1.25-.5v-.45a.6.6,0,0,0-.18-.43.66.66,0,0,0-.64,0,.19.19,0,0,0-.11.16.06.06,0,0,0,0,.06v.05h0a.41.41,0,0,1,.07.11.33.33,0,0,1,0,.14.4.4,0,0,1-.12.27.38.38,0,0,1-.27.08.45.45,0,0,1-.3-.09.39.39,0,0,1-.13-.32.63.63,0,0,1,.33-.56,1.59,1.59,0,0,1,.83-.2,1.77,1.77,0,0,1,.87.2.82.82,0,0,1,.36.76v1.49a.11.11,0,0,0,0,.11h.14l.08-.08.1.14a1,1,0,0,1-.4.29.8.8,0,0,1-.3.06.5.5,0,0,1-.4-.16.9.9,0,0,1-.11-.27,1.42,1.42,0,0,1-.57.36,1.22,1.22,0,0,1-.38.07.84.84,0,0,1-.48-.16.58.58,0,0,1-.22-.51A.72.72,0,0,1,103.44,31.78Zm1.07.77.18-.17v-.9a1.16,1.16,0,0,0-.44.19.65.65,0,0,0-.32.56.53.53,0,0,0,.09.3.24.24,0,0,0,.2.11A.48.48,0,0,0,104.51,32.55Z" style="fill:#1d1d1b"/><path d="M106.08,32.86a.44.44,0,0,0,.25-.08.35.35,0,0,0,.08-.24V30.68a.4.4,0,0,0-.07-.28.55.55,0,0,0-.26-.1v-.13h1.18v.48a2.46,2.46,0,0,1,.38-.41.71.71,0,0,1,.44-.15.55.55,0,0,1,.35.12.46.46,0,0,1,0,.65.33.33,0,0,1-.28.12.42.42,0,0,1-.34-.18c-.1-.12-.16-.18-.21-.18a.33.33,0,0,0-.24.15.62.62,0,0,0-.13.44v1.16q0,.32.09.39a.57.57,0,0,0,.36.09V33h-1.65Z" style="fill:#1d1d1b"/><path d="M108.81,32.86a.62.62,0,0,0,.23-.07.41.41,0,0,0,.1-.3V30.68a.41.41,0,0,0-.07-.26.46.46,0,0,0-.26-.1v-.14H110v2.37c0,.13,0,.22,0,.26a.92.92,0,0,0,.23.09v.15h-1.48Zm.42-4a.47.47,0,0,1,.66,0v0a.49.49,0,0,1,.15.34.41.41,0,0,1-.15.33.47.47,0,0,1-.67,0,.47.47,0,0,1-.14-.33.49.49,0,0,1,.17-.34Z" style="fill:#1d1d1b"/><path d="M110.59,30.4v-.17l.2-.18.3-.3a5.29,5.29,0,0,0,.51-.66h.16v1.08h.58v.23h-.58v1.86a.81.81,0,0,0,0,.22.23.23,0,0,0,.2.13.25.25,0,0,0,.2-.09.81.81,0,0,0,.17-.24l.14.08a1.06,1.06,0,0,1-.26.41.83.83,0,0,1-.64.28.84.84,0,0,1-.38-.08.59.59,0,0,1-.32-.57v-2Z" style="fill:#1d1d1b"/><path d="M112.71,33.5a.45.45,0,0,1,.3-.1.33.33,0,0,1,.26.09.25.25,0,0,1,.1.2v.14a.11.11,0,0,0,0,.08.14.14,0,0,0,.09,0c.11,0,.2-.09.3-.26a5.09,5.09,0,0,0,.25-.6l-.73-1.81c0-.13-.11-.25-.15-.37l-.17-.33a.82.82,0,0,0-.12-.2.28.28,0,0,0-.18,0V30.2h1.53v.14H114a.12.12,0,0,0-.08.13.06.06,0,0,0,0,.06.29.29,0,0,0,0,.13l.49,1.21h0l.4-1.07,0-.16a.24.24,0,0,0,0-.12.15.15,0,0,0-.08-.16h-.26v-.14h.93v.14a.7.7,0,0,0-.19.06.74.74,0,0,0-.16.27l-.92,2.46a3.94,3.94,0,0,1-.47.94.74.74,0,0,1-.6.24.64.64,0,0,1-.46-.15.41.41,0,0,1-.15-.33A.36.36,0,0,1,112.71,33.5Z" style="fill:#1d1d1b"/><path d="M117.42,32.85a.8.8,0,0,0,.37-.06.38.38,0,0,0,.17-.37v-3a.34.34,0,0,0-.17-.35,1,1,0,0,0-.37-.08v-.16h3.49v1.25h-.15a1.46,1.46,0,0,0-.38-.81,1.55,1.55,0,0,0-1-.23.56.56,0,0,0-.34.06.31.31,0,0,0-.08.24v1.42a.8.8,0,0,0,.68-.21,1.5,1.5,0,0,0,.27-.71h.16v2.09h-.16a1.42,1.42,0,0,0-.25-.72A.85.85,0,0,0,119,31v1.44a.38.38,0,0,0,.17.37,1.16,1.16,0,0,0,.52.06V33h-2.22Z" style="fill:#1d1d1b"/><path d="M122.33,30.18v2.08a.66.66,0,0,0,0,.28.3.3,0,0,0,.31.15.6.6,0,0,0,.29-.08l.2-.18V30.68a.45.45,0,0,0-.07-.28.65.65,0,0,0-.31-.08v-.14H124v2.21a.38.38,0,0,0,.08.27,1.37,1.37,0,0,0,.28.1v.14l-.72.07-.48.13v-.41a2.42,2.42,0,0,1-.36.27,1.08,1.08,0,0,1-.53.14,1,1,0,0,1-.56-.19.77.77,0,0,1-.25-.67V30.68a.35.35,0,0,0-.07-.26.51.51,0,0,0-.24-.1v-.14Z" style="fill:#1d1d1b"/><path d="M124.63,32.86a.46.46,0,0,0,.25-.08.43.43,0,0,0,.07-.29V30.68a.39.39,0,0,0,0-.28.55.55,0,0,0-.26-.1v-.13h1.16v.44a1.52,1.52,0,0,1,.38-.38.91.91,0,0,1,.51-.14.88.88,0,0,1,.62.2,1,1,0,0,1,.21.72v1.54c0,.14,0,.23.08.27a.45.45,0,0,0,.22.08v.15h-1.44V32.9a.92.92,0,0,0,.23-.09.57.57,0,0,0,0-.26V31a.92.92,0,0,0,0-.33.25.25,0,0,0-.28-.18.46.46,0,0,0-.3.11,1.43,1.43,0,0,0-.2.23v1.69a.35.35,0,0,0,.06.26.79.79,0,0,0,.23.09v.15h-1.49Z" style="fill:#1d1d1b"/><path d="M128.49,30.52a1.07,1.07,0,0,1,.84-.42.88.88,0,0,1,.44.12,2.35,2.35,0,0,1,.29.26V29.33A.38.38,0,0,0,130,29a1,1,0,0,0-.37-.07v-.15h1.33v3.55a.43.43,0,0,0,.06.27.52.52,0,0,0,.29.09v.14l-.67.08a3.16,3.16,0,0,0-.53.13v-.41a2.08,2.08,0,0,1-.32.27,1,1,0,0,1-.5.14,1,1,0,0,1-.78-.39,1.5,1.5,0,0,1-.34-1.07A1.87,1.87,0,0,1,128.49,30.52Zm1.41,2a.54.54,0,0,0,.16-.25V30.8a.32.32,0,0,0-.14-.23.51.51,0,0,0-.36-.14c-.21,0-.36.15-.45.46a2.57,2.57,0,0,0-.06.68,2.84,2.84,0,0,0,.06.72c.08.29.22.44.43.44A.47.47,0,0,0,129.9,32.55Z" style="fill:#1d1d1b"/><path d="M133.13,32.85a.78.78,0,0,0,.37-.06.37.37,0,0,0,.18-.37v-3a.38.38,0,0,0-.17-.36,1.59,1.59,0,0,0-.38-.07v-.16h2.15V29a1.24,1.24,0,0,0-.5.1.63.63,0,0,0-.12.46v2.92a.34.34,0,0,0,.11.28,1,1,0,0,0,.42.06,1.71,1.71,0,0,0,.93-.25,2,2,0,0,0,.65-.95H137L136.7,33h-3.58Z" style="fill:#1d1d1b"/><path d="M137.27,32.86a.62.62,0,0,0,.23-.07.47.47,0,0,0,.08-.3V30.68a.4.4,0,0,0-.06-.26.39.39,0,0,0-.25-.1v-.14h1.18v2.37a.41.41,0,0,0,.07.26.47.47,0,0,0,.22.09v.15h-1.47Zm.41-4a.49.49,0,0,1,.34-.14.48.48,0,0,1,.48.48.44.44,0,0,1-.14.33.48.48,0,0,1-.34.14.41.41,0,0,1-.34-.14.45.45,0,0,1-.14-.33A.48.48,0,0,1,137.68,28.89Z" style="fill:#1d1d1b"/><path d="M139,32.86a.34.34,0,0,0,.24-.07.41.41,0,0,0,.1-.3V30.68a.44.44,0,0,0-.07-.27.51.51,0,0,0-.27-.09v-.14h1.18v.44a1.5,1.5,0,0,1,.3-.32.94.94,0,0,1,.59-.2.92.92,0,0,1,.58.17.81.81,0,0,1,.21.33h0a1.77,1.77,0,0,1,.34-.33,1,1,0,0,1,1.13,0,.86.86,0,0,1,.24.66v1.59a.37.37,0,0,0,.07.27.43.43,0,0,0,.24.08v.15h-1.46V32.9a.5.5,0,0,0,.24-.09.65.65,0,0,0,.06-.26V31a.72.72,0,0,0-.07-.38.29.29,0,0,0-.27-.13.55.55,0,0,0-.33.14c-.12.1-.19.16-.19.2v1.69a.41.41,0,0,0,.07.26.85.85,0,0,0,.22.09v.15h-1.44V32.9a.49.49,0,0,0,.23-.08.65.65,0,0,0,.07-.27V31a.82.82,0,0,0-.06-.38.31.31,0,0,0-.28-.13.51.51,0,0,0-.36.15c-.1.11-.16.17-.16.19v1.69a.41.41,0,0,0,.07.26.43.43,0,0,0,.22.09v.15H139Z" style="fill:#1d1d1b"/><path d="M144.18,32.86a.62.62,0,0,0,.23-.07.41.41,0,0,0,.09-.3V30.68a.57.57,0,0,0,0-.26.52.52,0,0,0-.26-.1v-.14h1.13v2.37a.4.4,0,0,0,.06.26.92.92,0,0,0,.23.09v.15h-1.48Zm.42-4a.46.46,0,0,1,.67,0,.48.48,0,0,1,.14.34.47.47,0,0,1-.47.47.47.47,0,0,1-.34-.81Z" style="fill:#1d1d1b"/><path d="M145.94,30.4v-.17l.19-.18.31-.3a6.45,6.45,0,0,0,.51-.66h.15v1.08h.59v.23h-.59v1.86a.81.81,0,0,0,0,.22.21.21,0,0,0,.2.13.29.29,0,0,0,.22-.06,1.19,1.19,0,0,0,.16-.23l.15.07a1.06,1.06,0,0,1-.26.41.9.9,0,0,1-1,.2.58.58,0,0,1-.32-.57v-2Z" style="fill:#1d1d1b"/><path d="M148.43,30.49a1.26,1.26,0,0,1,.91-.39,1.11,1.11,0,0,1,.59.16,1.13,1.13,0,0,1,.4.44,1.42,1.42,0,0,1,.15.56v.24H148.9a2.28,2.28,0,0,0,.13.64.65.65,0,0,0,.64.51.76.76,0,0,0,.41-.13,2.54,2.54,0,0,0,.29-.28l.14.09a1.65,1.65,0,0,1-.66.65,1.38,1.38,0,0,1-.56.12,1.25,1.25,0,0,1-.86-.35,1.52,1.52,0,0,1-.4-1.15A1.6,1.6,0,0,1,148.43,30.49Zm1.31.78a2.19,2.19,0,0,0-.08-.76.31.31,0,0,0-.32-.22.34.34,0,0,0-.33.25,3.66,3.66,0,0,0-.1.73Z" style="fill:#1d1d1b"/><path d="M151.19,30.52a1.07,1.07,0,0,1,.84-.42.82.82,0,0,1,.43.12,1.87,1.87,0,0,1,.3.26V29.33c0-.15,0-.25-.09-.29a.79.79,0,0,0-.37-.07v-.15h1.32v3.55a.38.38,0,0,0,.08.27,1.06,1.06,0,0,0,.28.09v.14l-.67.08a3,3,0,0,0-.52.13v-.41a2.16,2.16,0,0,1-.33.27,1,1,0,0,1-.49.14,1,1,0,0,1-.79-.39,1.45,1.45,0,0,1-.33-1.07A1.79,1.79,0,0,1,151.19,30.52Zm1.41,2a.47.47,0,0,0,.16-.25V30.8a.32.32,0,0,0-.14-.23.5.5,0,0,0-.35-.14c-.22,0-.37.15-.45.46a3.08,3.08,0,0,0-.07.68,3.38,3.38,0,0,0,.07.72c.07.29.21.44.43.44A.44.44,0,0,0,152.6,32.55Z" style="fill:#1d1d1b"/><path d="M57.75,19.35a3.66,3.66,0,0,1,.73.1h.12a40.46,40.46,0,0,0,5.57-.83A2.51,2.51,0,0,1,65,19c.51.31.77.53.77.67s0,.09-.1.13a2.31,2.31,0,0,0-.57.67,5.52,5.52,0,0,1-.51,1.07,1,1,0,0,1-.4.48.92.92,0,0,1-.4.11.25.25,0,0,1-.19-.14,20.9,20.9,0,0,0-2.74.18l-1.45.17a.34.34,0,0,1-.32.21.51.51,0,0,1-.38-.2.52.52,0,0,1-.16-.3,4.38,4.38,0,0,1-.3-1.17A2.49,2.49,0,0,0,58,20a.83.83,0,0,0-.35-.41C57.58,19.43,57.64,19.35,57.75,19.35Zm1.68,2.39c.38,0,.9-.08,1.52-.15v-.72a7.77,7.77,0,0,0-.06-1c-.78.09-1.41.15-1.91.16Zm0,1a1.4,1.4,0,0,1,.62.19h0a9.5,9.5,0,0,0,1.17-.19,5.82,5.82,0,0,0,1.08-.32h.19a2.1,2.1,0,0,1,.72.31c.45.24.67.4.67.49v.07a1.87,1.87,0,0,0-.34.79,10.38,10.38,0,0,0,.11,1.24v.82a.76.76,0,0,1-.33.52,1.34,1.34,0,0,1-.64.26.52.52,0,0,0-.09-.23c-.1-.15-.25-.51-.36-.7A10.48,10.48,0,0,0,61,26l-.78.05a.83.83,0,0,1-.14.22.53.53,0,0,1-.31.17c-.16,0-.29-.14-.4-.4a1.4,1.4,0,0,1,0-.5h0a1.45,1.45,0,0,0,.12-.42,5.75,5.75,0,0,0,0-.83A3,3,0,0,0,59.25,23v-.12a.2.2,0,0,1,.22-.22Zm0-5.11a2,2,0,0,1,.73.17,1.22,1.22,0,0,1,.56.3.55.55,0,0,1,.14.37c0,.33-.2.5-.6.5-.14,0-.32-.18-.54-.53a2.21,2.21,0,0,1-.38-.73.08.08,0,0,1,0-.1.07.07,0,0,1,.11,0Zm.17,2.64a1.4,1.4,0,0,1,.29,0,1.93,1.93,0,0,1,.62.23.4.4,0,0,1,.17.36.39.39,0,0,1-.18.31.7.7,0,0,1-.41.16s-.08,0-.14-.12a4.64,4.64,0,0,1-.41-.8v-.1a.25.25,0,0,1,.1,0Zm.73,5.18.66-.05a5.87,5.87,0,0,0,1.16-.15h.21a.42.42,0,0,1,.24.05q0-.37,0-.75a8.34,8.34,0,0,0,0-1,.28.28,0,0,0-.19-.24.81.81,0,0,0-.31,0h-.16a11.64,11.64,0,0,0-1.55.25h0v.67c.37-.07.71-.15,1.08-.24h.18c.52,0,.76.18.76.55,0,0,0,.06-.1.09-.41.07-.81.14-1.18.18l-.57.06h-.11a1.32,1.32,0,0,0-.08.58ZM63,17a2.67,2.67,0,0,1,.8.19c.4.2.59.36.59.48s-.06.1-.2.13a2.7,2.7,0,0,0-.55.24,10.66,10.66,0,0,1-1.85.85h0c.19-.17.34-.31.45-.43a2.93,2.93,0,0,0,.51-.65.84.84,0,0,0,.13-.27.21.21,0,0,0,0-.11v-.18A.18.18,0,0,1,63,17h0Zm-1.14,4.47a5.1,5.1,0,0,0,1.08-.17,1.15,1.15,0,0,1,.37,0,.48.48,0,0,1,.26.06,3.08,3.08,0,0,0,.42-.9,2,2,0,0,0,.11-.64c0-.19-.07-.29-.25-.29l-1.91.28c0,.53,0,1.08,0,1.66Zm.81-1.7a1.17,1.17,0,0,1,.53.27c.3.23.44.4.44.48s0,.07-.12.1c-.29.11-.74.27-1.35.46H62a3.53,3.53,0,0,0,.38-.57,1.91,1.91,0,0,0,.26-.56c0-.12,0-.18.08-.18Z" style="fill:#1d1d1b"/><path d="M73.15,24.18s.08,0,.1.12a1.12,1.12,0,0,1,.15.51,2.1,2.1,0,0,1-.19.85,1.44,1.44,0,0,1-.28.48.29.29,0,0,1-.24.13.66.66,0,0,1-.49-.2.86.86,0,0,1-.1-.38.69.69,0,0,1,.09-.31A3.73,3.73,0,0,0,73,24.31.19.19,0,0,1,73.15,24.18Zm.25-6c.11,0,.21.07.3.24h0c1.21-.06,2.84-.22,4.92-.49h.22a1.85,1.85,0,0,1,.82.4c.44.38.65.63.65.74s-.12.2-.4.2a6.22,6.22,0,0,0-1.66.29c-.08,0-.12,0-.12-.07a2.6,2.6,0,0,1,.3-.36,1,1,0,0,0,.24-.36.11.11,0,0,0,0-.08.49.49,0,0,0-.24,0,13.88,13.88,0,0,0-2,.1l-.66.07a1.38,1.38,0,0,1,.49.14c.3.09.44.19.44.27h0a.76.76,0,0,0,.38-.3v-.17a1.11,1.11,0,0,1,.53.24c.23.17.35.31.35.44s0,.11-.18.12a4.08,4.08,0,0,0-.69.09l-.54.1v.45h.37c.45,0,.67.17.67.5,0,0,0,.08-.13.09l-1,.13v.25L77.65,21h.4a.86.86,0,0,1,.43.15.37.37,0,0,1,.2.35c0,.17,0,.25-.13.25a21,21,0,0,0-2.75.17,10.33,10.33,0,0,0-1.24.2l-.3.05a.61.61,0,0,1-.35-.21c-.12-.12-.19-.22-.19-.29h0c.76-.09,1.41-.17,2-.26v-.42h-.6a.66.66,0,0,1-.4-.13.35.35,0,0,1-.14-.25.13.13,0,0,1,.08-.12,7.28,7.28,0,0,0,1.07-.13v-.47a6.36,6.36,0,0,1-1.07.1h-.25a4.44,4.44,0,0,0,.88-.18l.43-.11a.53.53,0,0,0,0-.25.57.57,0,0,0-.12-.23.47.47,0,0,1-.06-.15.17.17,0,0,1,0-.14l-1.25.17h-.46a2.54,2.54,0,0,1-.17.46,2.08,2.08,0,0,1-.4.65.46.46,0,0,1-.25.1.68.68,0,0,1-.42-.19.56.56,0,0,1-.13-.35.38.38,0,0,1,.1-.27,4.24,4.24,0,0,0,.72-1.16A.15.15,0,0,1,73.4,18.14Zm0,4a2.25,2.25,0,0,1,.58.07h.1a31.21,31.21,0,0,0,3.61-.44,2,2,0,0,1,.67.25c.4.22.59.4.59.5s0,0-.07.06a1.08,1.08,0,0,0-.33.31,2.35,2.35,0,0,1-.32.52.69.69,0,0,1-.63.46.2.2,0,0,1-.16-.12h0a11,11,0,0,0-1.81.15,10,10,0,0,1-1.08.13h0a.2.2,0,0,1-.15,0,.39.39,0,0,1-.3-.16.68.68,0,0,1-.12-.26,1.85,1.85,0,0,1-.22-.65,1.19,1.19,0,0,0-.21-.44.48.48,0,0,0-.25-.21C73.28,22.22,73.32,22.17,73.4,22.17Zm.8,2.09c.32,0,.52.09.59.25a1.42,1.42,0,0,0,.29.54,1.3,1.3,0,0,0,.41.32,3,3,0,0,0,.66.23,4.7,4.7,0,0,0,.92.09,6.13,6.13,0,0,0,1.21-.12c.09,0,.12-.05.12-.14l-.17-.95v-.09a.08.08,0,0,1,.08.06,9.05,9.05,0,0,0,1,1l.23.15c.17,0,.26.19.26.41a.28.28,0,0,1-.12.21,1.18,1.18,0,0,1-.46.2,7.18,7.18,0,0,1-1.59.18,5.82,5.82,0,0,1-.93-.07,6.74,6.74,0,0,1-.75-.17,4,4,0,0,1-.75-.37,4.07,4.07,0,0,1-.43-.4,2.32,2.32,0,0,1-.35-.53,1.42,1.42,0,0,0-.29-.65C74.16,24.3,74.18,24.26,74.2,24.26Zm.43-.76.55-.05a1.55,1.55,0,0,1-.06-.31v-.21a2.5,2.5,0,0,0-.07-.26h-.61Zm1-.12h0l.52-.06a2.25,2.25,0,0,1,.07-.52,1.13,1.13,0,0,0,0-.26l-.82.09a.77.77,0,0,1,.14.25.48.48,0,0,1,.09.29A.74.74,0,0,1,75.64,23.38Zm0-6.21H76a2.61,2.61,0,0,1,.74.2.34.34,0,0,1,.21.31.44.44,0,0,1-.18.32.76.76,0,0,1-.4.15.36.36,0,0,1-.21-.11,3.83,3.83,0,0,1-.54-.73v-.09s0,0,.06,0ZM76,24.05a.92.92,0,0,1,.33,0,2.31,2.31,0,0,1,.7.23.39.39,0,0,1,.2.36A.42.42,0,0,1,77,25a.65.65,0,0,1-.4.14.25.25,0,0,1-.18-.11,4.4,4.4,0,0,1-.49-.8.17.17,0,0,1,0-.1.06.06,0,0,1,.06,0Zm.52-.79.45-.09h.26a.28.28,0,0,1,.22,0,1.48,1.48,0,0,0,.22-.29.86.86,0,0,0,0-.27c0-.17,0-.26-.17-.26l-.52.07a.06.06,0,0,1,0,.06.2.2,0,0,1,0,.11l-.22.29c-.07.13-.14.26-.22.38Zm2.34.16h.27c.22.07.45.14.68.23a1.76,1.76,0,0,1,.58.36.42.42,0,0,1,.1.31.87.87,0,0,1-.11.41.46.46,0,0,1-.35.17.39.39,0,0,1-.37-.21,2.64,2.64,0,0,1-.32-.41,4.12,4.12,0,0,0-.39-.63.39.39,0,0,1-.13-.21Z" style="fill:#1d1d1b"/><path d="M88.3,17.72a1.8,1.8,0,0,1,.82.23c.28.13.41.26.41.39a.39.39,0,0,1-.15.26.43.43,0,0,0-.21.21,16.35,16.35,0,0,1-1.27,1.92c.44.22.66.4.66.52a.66.66,0,0,1-.09.28.63.63,0,0,1-.08.3V25.4a1.11,1.11,0,0,1-.17.53c-.13.24-.24.35-.34.35s-.36-.23-.55-.69a1.08,1.08,0,0,1-.07-.31c0-.2.07-.81.21-1.8a13.63,13.63,0,0,0,.08-1.81,2.56,2.56,0,0,0,0-.55,7.07,7.07,0,0,1-1.24,1.08,1.28,1.28,0,0,1-.47.26v-.09a16.5,16.5,0,0,0,1.52-2.1,8,8,0,0,0,.7-1.55,3.05,3.05,0,0,0,.13-.67v-.26A.2.2,0,0,1,88.3,17.72ZM92,19v-.48a3.2,3.2,0,0,0-.09-.75v-.17a.31.31,0,0,1,.22-.09,1.88,1.88,0,0,1,.74.15c.38.13.56.27.56.4l-.08.08a.64.64,0,0,0-.11.3v.17a.86.86,0,0,1,.3.09q.27.16.27.33a.88.88,0,0,1,0,.23.37.37,0,0,1-.13.15l-.77.21a2.42,2.42,0,0,1-.17.68l1.17-.24a4.86,4.86,0,0,1,.54,0,.9.9,0,0,1,.48.17.48.48,0,0,1,.23.41c0,.17,0,.26-.13.26a24.77,24.77,0,0,0-3.65.24H91c.15.08.22.17.22.25s0,0-.07.07a.22.22,0,0,0-.1.09c-.19.2-.36.38-.53.54h.18l1.78-.32a3.58,3.58,0,0,0,.64-.18h.15a1.8,1.8,0,0,1,.64.18c.36.18.54.36.54.5v.06a4.1,4.1,0,0,0-.14,1.26v2a1.38,1.38,0,0,1-.31.71c-.25.28-.45.43-.61.43a12.79,12.79,0,0,1-1-1.23v-.07a3.1,3.1,0,0,0,.51.11.22.22,0,0,0,.23-.21h0a5.57,5.57,0,0,0,.2-1.4,12.14,12.14,0,0,0-.13-1.48c0-.07-.07-.09-.21-.09h-.58c.09.06.12.1.12.14a.41.41,0,0,1,0,.22h0a.48.48,0,0,1,.44.51s0,.06-.08.07l-.51.08v.33c.4,0,.59.21.59.53,0,0,0,.06-.08.07l-.52.07a3.86,3.86,0,0,1,0,.68,1.23,1.23,0,0,1-.2.62c-.11.15-.22.24-.33.24a.31.31,0,0,1-.29-.27,4.51,4.51,0,0,1-.09-1.16h-.09a.71.71,0,0,1-.44-.15.46.46,0,0,1-.15-.31s0-.07.09-.08l.59-.09v-.37a.67.67,0,0,1-.43-.16.46.46,0,0,1-.15-.3A.08.08,0,0,1,91,23h0l.51-.08a1.59,1.59,0,0,0-.08-.39l-.65.12v.6a17.7,17.7,0,0,1-.22,2.4.68.68,0,0,1-.17.35.43.43,0,0,1-.28.15c-.15,0-.28-.13-.38-.37a1.57,1.57,0,0,1-.13-.47v-.05a1.57,1.57,0,0,0,.27-.57A4.38,4.38,0,0,0,90,23.51a5.16,5.16,0,0,0-.1-.88,4.08,4.08,0,0,1-.57.34,2.38,2.38,0,0,1-.59.25h-.17a4.81,4.81,0,0,0,.62-.47,6.79,6.79,0,0,0,.78-.83,7.31,7.31,0,0,0,.43-.65.09.09,0,0,0,0-.07l-.63.13a1.69,1.69,0,0,1-.39.08.69.69,0,0,1-.42-.22c-.13-.13-.21-.24-.21-.32h0l1.67-.22h0a1,1,0,0,1-.14-.28V20a.74.74,0,0,1-.6-.3,1,1,0,0,1-.14-.28.08.08,0,0,1,.06-.09h0l.65-.05a1.36,1.36,0,0,0-.2-.76.38.38,0,0,1-.06-.16.18.18,0,0,1,.16-.2h0a2.08,2.08,0,0,1,.5.07c.26.06.39.15.39.26v.7l.74-.14Zm-.93,1.52.48-.07h.35v-.62l-.4.07L91,20v.48S91.06,20.54,91.06,20.55Z" style="fill:#1d1d1b"/><path d="M102.29,24.05a.39.39,0,0,1,.13.16,1.37,1.37,0,0,1,.2.64,2.33,2.33,0,0,1-.18.9,1.26,1.26,0,0,1-.27.51.27.27,0,0,1-.23.14.73.73,0,0,1-.59-.27,1.13,1.13,0,0,1-.11-.48.72.72,0,0,1,.08-.32,4.69,4.69,0,0,0,.79-1.08C102.13,24.1,102.19,24.05,102.29,24.05Zm.62-4.07a1.16,1.16,0,0,1,.57.18c.22.11.31.23.31.36s0,0-.06.09a6.64,6.64,0,0,0-.75.75l.64-.09q.19-.27.36-.54a1.31,1.31,0,0,0,0-.28c0-.09,0-.13.16-.13a.87.87,0,0,1,.57.22c.23.14.35.28.35.44s0,0-.06.09a1.8,1.8,0,0,0-.4.33c-.41.4-.82.81-1.23,1.25l.89-.13-.12-.35a.28.28,0,0,1,0-.13.06.06,0,0,1,.08,0,.6.6,0,0,1,.27.06,1.72,1.72,0,0,1,.55.37.91.91,0,0,1,.15.58.34.34,0,0,1-.14.26.52.52,0,0,1-.32.11.32.32,0,0,1-.14-.15l-.13-.24a4,4,0,0,0-.67.22,4.1,4.1,0,0,0-.7.34l-.17.11a.11.11,0,0,1-.08,0,.69.69,0,0,1-.48-.31,1.07,1.07,0,0,1-.23-.48.25.25,0,0,1,0-.17,4.84,4.84,0,0,0,.46-.33,6.86,6.86,0,0,0,.68-.74,2.32,2.32,0,0,0-.94.53A.41.41,0,0,1,102,22a.49.49,0,0,1-.13-.36v-.13a1.8,1.8,0,0,0,.5-.45,3.44,3.44,0,0,0,.35-.58l.06-.19a.48.48,0,0,1,0-.17C102.75,20,102.8,20,102.91,20Zm4.41-1.4a1,1,0,0,1,.34.09c.2.14.29.26.29.37a.53.53,0,0,1,0,.25.31.31,0,0,1-.17.17c-.54.08-1.08.16-1.64.22a1.29,1.29,0,0,1,.41.16c.21.11.31.23.31.37v.08a7.32,7.32,0,0,0-.58.67l.66-.05a4,4,0,0,0,.37-.54.71.71,0,0,0,0-.29c0-.09,0-.12.16-.12a.82.82,0,0,1,.56.22c.25.14.37.29.37.45s0,0-.07.09a1.86,1.86,0,0,0-.41.33c-.42.4-.85.82-1.28,1.27l1.08-.11-.13-.36a.76.76,0,0,1-.08-.21h.22a3.88,3.88,0,0,1,.56.23,1.35,1.35,0,0,1,.47.35.57.57,0,0,1,.1.31,1,1,0,0,1-.14.44.45.45,0,0,1-.37.19.47.47,0,0,1-.42-.25,1.6,1.6,0,0,1-.1-.23,6.09,6.09,0,0,0-.73.21,3.29,3.29,0,0,0-.78.32.42.42,0,0,0-.18.11l-.1.05c-.15,0-.3-.11-.47-.31a1.15,1.15,0,0,1-.24-.48.28.28,0,0,1,0-.18,3,3,0,0,0,.47-.32,6.68,6.68,0,0,0,.68-.73,2.16,2.16,0,0,0-.82.43.41.41,0,0,1-.36-.23.52.52,0,0,1-.14-.36v-.13a1.15,1.15,0,0,0,.35-.41,3.18,3.18,0,0,0,.24-.53.38.38,0,0,0,0-.15.48.48,0,0,1,0-.17.09.09,0,0,1,0-.07l-.53.05a11.91,11.91,0,0,1-1.34.11.92.92,0,0,1-.86-.36.73.73,0,0,1-.15-.32c0-.06,0-.09.09-.09a24.17,24.17,0,0,0,2.69-.21,10.58,10.58,0,0,0,1.36-.28A.65.65,0,0,1,107.32,18.58ZM103,24c.37,0,.59.09.67.3A1.61,1.61,0,0,0,104,25a1.72,1.72,0,0,0,1.14.68,3.33,3.33,0,0,0,.94.13,6.07,6.07,0,0,0,1.35-.14c.08,0,.13-.05.13-.16l-.22-.75v-.09a.12.12,0,0,1,.1.05,9.34,9.34,0,0,0,1.07.91,1.26,1.26,0,0,0,.26.13.34.34,0,0,1,.28.38.27.27,0,0,1-.12.24,1.31,1.31,0,0,1-.5.25,7.18,7.18,0,0,1-1.72.22,5.7,5.7,0,0,1-1.83-.29,3.74,3.74,0,0,1-.84-.44c-.17-.16-.32-.32-.47-.48a3.15,3.15,0,0,1-.32-.7,1.82,1.82,0,0,0-.33-.77c0-.07,0-.11.08-.11Zm.64-6.53a1.21,1.21,0,0,1,.38,0,2.26,2.26,0,0,1,.76.29.54.54,0,0,1,.21.45.52.52,0,0,1-.19.36.86.86,0,0,1-.43.15.26.26,0,0,1-.2-.13,5.28,5.28,0,0,1-.56-1v-.11S103.62,17.5,103.66,17.5Zm1.14,6.34a2.94,2.94,0,0,1,.42,0,3.2,3.2,0,0,1,.9.26.44.44,0,0,1,.23.41.52.52,0,0,1-.19.36.86.86,0,0,1-.43.15.39.39,0,0,1-.25-.12,4.79,4.79,0,0,1-.7-.91.44.44,0,0,1-.06-.1s0-.09.08-.09Zm1.6-6.8a2.37,2.37,0,0,1,.73.18c.36.19.53.35.53.45s0,.1-.17.13a2.11,2.11,0,0,0-.44.24,7.56,7.56,0,0,1-1.49.85h0a4.15,4.15,0,0,0,.3-.43,3.51,3.51,0,0,0,.33-.64.58.58,0,0,0,0-.32.2.2,0,0,0,0-.11v-.14s0-.25.17-.25Zm1.22,6.56a2.16,2.16,0,0,1,.36,0c.3,0,.6.11.9.19a2.3,2.3,0,0,1,.76.31.32.32,0,0,1,.16.27,1.05,1.05,0,0,1-.16.51.54.54,0,0,1-.43.2.48.48,0,0,1-.46-.25,3.81,3.81,0,0,1-.43-.37,3.59,3.59,0,0,0-.56-.61c-.12-.09-.18-.16-.18-.2s0-.1,0-.1Z" style="fill:#1d1d1b"/><path d="M121.6,18.58a.72.72,0,0,1,.32.08c.18.13.27.24.27.34a.81.81,0,0,1,0,.22.2.2,0,0,1-.13.15l-1.86.24v.5l.43-.07H121c.52,0,.77.17.77.54,0,0,0,.08-.19.1l-1.37.15v.43l.92-.09a4.34,4.34,0,0,1,.51,0c.62,0,.92.22.92.67,0,.06-.08.09-.26.1l-.9.08a1.59,1.59,0,0,1,.33.09c.28.08.41.16.41.27s0,.06-.08.11l-.29.21c-.09.08-.19.14-.3.23.54-.05,1.07-.13,1.69-.22a5.42,5.42,0,0,1,.57,0,1,1,0,0,1,.51.25,1,1,0,0,1,.38.64c0,.21-.08.33-.25.33a6.11,6.11,0,0,1-.86-.09,7.79,7.79,0,0,0-1.28-.08,31.22,31.22,0,0,0-3.62.15,24.6,24.6,0,0,0-2.71.41h-.1c-.08,0-.23-.14-.45-.41a1.57,1.57,0,0,1-.3-.47c0-.09,0-.13.16-.13h.42l1-.07,1.69-.11h0a3.75,3.75,0,0,1-.48-.76v-.09c0-.05,0-.08.08-.08h.32a3.16,3.16,0,0,1,.68.21.36.36,0,0,1,.18.34.41.41,0,0,1-.18.32h0a16.4,16.4,0,0,0,1.78-.13,1.43,1.43,0,0,0,.14-.34.53.53,0,0,0,0-.25.8.8,0,0,0-.17-.33h0l-1.29.07c-.74,0-1.22.08-1.44.08a.88.88,0,0,1-.53-.19.54.54,0,0,1-.18-.36c0-.07,0-.12.13-.13l1.9-.14V20.9h-.71a.78.78,0,0,1-.44-.15.51.51,0,0,1-.15-.3.09.09,0,0,1,.07-.09h0l1.2-.13a5.14,5.14,0,0,0-.06-.55h-.77a.85.85,0,0,1-.78-.31.74.74,0,0,1-.14-.28s0-.07.09-.07a16.7,16.7,0,0,0,2.54-.21,10.58,10.58,0,0,0,1.27-.26A.76.76,0,0,1,121.6,18.58Zm-4.3,5.7a3.42,3.42,0,0,1,.63.09l.16.07h.34c.79-.14,1.44-.24,1.93-.28a3.14,3.14,0,0,0,.74-.15h.15a3.82,3.82,0,0,1,.72.31q.66.33.66.48c0,.1,0,.09-.09.15a1.12,1.12,0,0,0-.36.39,4.42,4.42,0,0,0-.34.69.78.78,0,0,1,.21.4.13.13,0,0,1-.12,0,19.74,19.74,0,0,0-2.3.09l-1.08.09c-.17,0-.14.24-.26.24a.41.41,0,0,1-.33-.18.57.57,0,0,1-.14-.28,4.29,4.29,0,0,1-.2-.93,2,2,0,0,0-.2-.65.51.51,0,0,0-.22-.3c0-.18.08-.25.15-.25Zm.55-6.71a.91.91,0,0,1,.33,0,2.26,2.26,0,0,1,.7.25.49.49,0,0,1,.18.41.43.43,0,0,1-.17.32.68.68,0,0,1-.41.14s-.11,0-.17-.11a5.49,5.49,0,0,1-.51-.87v-.1s.06-.11.1-.11Zm.66,8.39,1.08-.1a8.18,8.18,0,0,0,1.28-.13,2,2,0,0,0,.08-.33,2.26,2.26,0,0,0,0-.52c0-.14-.09-.22-.29-.22a7.93,7.93,0,0,0-.84.07,13,13,0,0,0-1.52.25Zm2.49-8.9a3.21,3.21,0,0,1,.8.19c.39.21.58.37.58.49s0,.07-.18.1a2.41,2.41,0,0,0-.5.21,9.19,9.19,0,0,1-1.67.73h0a4.26,4.26,0,0,0,.35-.38,2.8,2.8,0,0,0,.39-.56.67.67,0,0,0,.1-.23v-.29s0-.28.18-.28Z" style="fill:#1d1d1b"/><path d="M136.45,18.05a1,1,0,0,1,.33.09q.27.18.27.33a.81.81,0,0,1,0,.22.22.22,0,0,1-.13.15l-1.08.19-.15,2.66,1.08-.15h.15a1.45,1.45,0,0,1,.7.23.73.73,0,0,1,.35.57c0,.22-.09.34-.26.34a5.49,5.49,0,0,1-.86-.06,4.64,4.64,0,0,0-.64-.07h-.44a9.29,9.29,0,0,0,1.23,1.2,10.38,10.38,0,0,0,2.15,1.16V25a.32.32,0,0,1-.2.07,12.48,12.48,0,0,1-1.73.14.42.42,0,0,1-.29-.07,14.54,14.54,0,0,1-1.34-2,3.12,3.12,0,0,0-.39-.56l-.07-.08a10.16,10.16,0,0,0-1.73.09h-.12a.42.42,0,0,1,.18.17.2.2,0,0,1,.11,0,1.62,1.62,0,0,1,.69.16c.32.11.49.21.49.3v.17a2.13,2.13,0,0,0-.11.57l.34-.11h.15a1.16,1.16,0,0,1,.32.08c.19.13.27.24.27.34a.41.41,0,0,1,0,.22.18.18,0,0,1-.13.15l-1,.15v.83c.64-.07,1.18-.15,1.59-.21h.12a1.37,1.37,0,0,1,.68.22.79.79,0,0,1,.36.58c0,.22-.08.34-.25.34a4.87,4.87,0,0,1-.87-.07,3.47,3.47,0,0,0-.64-.06,18.71,18.71,0,0,0-2,.06c-.43,0-.85.08-1.27.15h-.28a.85.85,0,0,1-.55-.29,1,1,0,0,1-.25-.38c0-.07,0-.09.09-.09.37,0,1.08-.07,2.26-.17h.14v-.83h-.09a.86.86,0,0,1-.78-.31.82.82,0,0,1-.14-.28.08.08,0,0,1,.06-.09h0a3.74,3.74,0,0,0,.93-.07,4,4,0,0,0,0-.69,1.48,1.48,0,0,0-.15-.31l-.09-.12a1,1,0,0,0-.19.21A6.21,6.21,0,0,1,132,24.78a5.71,5.71,0,0,1-1.31.71,2.61,2.61,0,0,1-.87.19h-.08a8.79,8.79,0,0,0,1.69-1.41,3.44,3.44,0,0,0,.73-1,1.63,1.63,0,0,0,.22-.55l-.74.12h-.39a.9.9,0,0,1-.55-.29,1.09,1.09,0,0,1-.25-.39.08.08,0,0,1,.05-.08h0a13.09,13.09,0,0,0,1.94-.13c0-1.16.08-2,.08-2.61h-.33a.88.88,0,0,1-.79-.31.74.74,0,0,1-.14-.28.08.08,0,0,1,.06-.09h0a6.89,6.89,0,0,0,1.14-.06V18.5a1.57,1.57,0,0,0-.22-.45.7.7,0,0,1-.12-.28.14.14,0,0,1,.12-.16h0a1.62,1.62,0,0,1,.69.15c.34.11.5.21.5.31v.23a2.33,2.33,0,0,0-.07.25,4.9,4.9,0,0,0,1.08-.14h.16v-.52a.94.94,0,0,0-.18-.54v-.09c0-.11.09-.17.29-.17a2.47,2.47,0,0,1,.84.17c.31.13.46.26.46.38a.24.24,0,0,1,0,.12,2.62,2.62,0,0,0-.11.4l.26-.08A.91.91,0,0,1,136.45,18.05ZM133.23,22h.16l1.31-.13V19.18l-.9.11-.5.06v.51l.52-.14H134c.51,0,.75.18.75.54a.07.07,0,0,1-.07.07,7.81,7.81,0,0,1-.82.14h-.52v.39a1.61,1.61,0,0,0,.54-.16H134c.51,0,.75.19.75.55l-.07.07-.85.14h-.51Z" style="fill:#1d1d1b"/><path d="M148,17.3a2.13,2.13,0,0,1,1,.27c.27.08.4.2.4.35a.13.13,0,0,1-.09.12,3.79,3.79,0,0,0-.2.34h0a2.79,2.79,0,0,1,.42.35,10.78,10.78,0,0,0,1.62,1.4A11.63,11.63,0,0,0,154,21.49v.13a.55.55,0,0,1-.25.08,13.65,13.65,0,0,1-2,.17.74.74,0,0,1-.41-.08,15.87,15.87,0,0,1-1.83-2.26,6.21,6.21,0,0,0-.52-.63h-.06a11.65,11.65,0,0,1-1.14,1.48,7.94,7.94,0,0,1-1.68,1.54,6.51,6.51,0,0,1-1.43.81,1.56,1.56,0,0,1-.37.1h0a19.51,19.51,0,0,0,1.9-1.85,13.13,13.13,0,0,0,1.08-1.38,5.81,5.81,0,0,0,.71-1.35,1.15,1.15,0,0,0,.08-.41.72.72,0,0,1-.13-.38C147.83,17.32,147.9,17.3,148,17.3Zm1.68,3.31a1.05,1.05,0,0,1,.54.18.52.52,0,0,1,.26.45c0,.22,0,.34-.16.34h-1.08c.09.06.13.11.13.18a.14.14,0,0,1,0,.09,2.42,2.42,0,0,0-.1.45l.74-.13h.4a.91.91,0,0,1,.55.18.51.51,0,0,1,.26.44c0,.23-.06.34-.17.34h-1.83v1.93c.85-.12,1.54-.24,2.07-.35h.14a1.66,1.66,0,0,1,.81.27.92.92,0,0,1,.41.7c0,.25-.1.38-.29.38a5.06,5.06,0,0,1-1-.09,3.84,3.84,0,0,0-.76-.08,20,20,0,0,0-2.56.13,10.33,10.33,0,0,0-1.66.31,1,1,0,0,1-.35.06,1,1,0,0,1-.69-.29,1.13,1.13,0,0,1-.29-.45.08.08,0,0,1,.06-.09h0c.47,0,1.42-.09,2.86-.26h.25V23.23a7.37,7.37,0,0,0-1.17.12h-.29a.72.72,0,0,1-.45-.26.63.63,0,0,1-.23-.38h.09l2-.22a3.09,3.09,0,0,0-.07-.52.34.34,0,0,0,0-.22l-.29.05h-.18a.77.77,0,0,1-.46-.26.6.6,0,0,1-.22-.36c0-.1,0,0,.08,0,.51-.08.95-.16,1.33-.24a9.9,9.9,0,0,0,1.07-.28Zm-3.22,3.1a1.19,1.19,0,0,1,.37.06,2.8,2.8,0,0,1,.8.27.47.47,0,0,1,.21.44.44.44,0,0,1-.18.31.68.68,0,0,1-.41.14.3.3,0,0,1-.21-.12,6.25,6.25,0,0,1-.62-.9.37.37,0,0,1-.05-.11c0-.06,0-.09.12-.09Zm3.9-.5a1.22,1.22,0,0,1,.61.33c.27.2.4.38.4.55s-.07.09-.19.12l-.79.19a5.19,5.19,0,0,1-1,.24h0v-.09A2.24,2.24,0,0,0,150,24a4.12,4.12,0,0,0,.34-.66c.07-.12.1-.15.13-.15Z" style="fill:#1d1d1b"/></g></g></svg>