<svg id="9840c528-57a4-4753-a0f6-7d4cb24a18d4" data-name="Layer 2" xmlns="http://www.w3.org/2000/svg" width="163.33" height="68" viewBox="0 0 163.33 68"><title>14</title><g id="e4ecc02c-171e-4cf7-a7fb-9aed10689ff8" data-name="14"><path d="M63.58,45.29a.31.31,0,0,1-.43-.14c-.47-.76-.84-1.3-1.1-1.65a.31.31,0,0,1,.08-.45.31.31,0,0,1,.45.07,12.37,12.37,0,0,1,1.13,1.73A.33.33,0,0,1,63.58,45.29Zm-1,3.92a.32.32,0,0,1-.47.09.34.34,0,0,1,0-.48,9.21,9.21,0,0,0,1.27-2.5.35.35,0,0,1,.44-.21.32.32,0,0,1,.19.43A9.44,9.44,0,0,1,62.61,49.21Zm1.35.17a.38.38,0,0,1-.48.09.29.29,0,0,1-.08-.42,6.61,6.61,0,0,0,.79-2,.33.33,0,0,1,.61-.1.35.35,0,0,1,0,.25A5.68,5.68,0,0,1,64,49.38Zm4.67.14a1.15,1.15,0,0,1-.6.18,5.8,5.8,0,0,1-1.1-.05.33.33,0,0,1-.3-.38.34.34,0,0,1,.42-.25c.59.11,1,.11,1.14,0s.26-.39.26-.89V46.85c0-.16-.06-.23-.22-.23H65c-.51,0-.75-.19-.75-.64V43.46c0-.51.31-.6.75-.6h3.66c.17,0,.25.1.28.27s-.07.29-.25.29H66.84v.5h1.63a.27.27,0,0,1,.29.29.28.28,0,0,1-.3.28H66.84V45h1.73a.29.29,0,0,1,.3.29.26.26,0,0,1-.28.28H66.84v.51h1.6c.42,0,.61.22.61.69v1.33C69.05,48.83,68.92,49.32,68.63,49.52Zm-2.43-6.1H65.12c-.17,0-.22,0-.22.17v.33h1.3Zm0,1.07H64.92V45H66.2Zm0,1.06H64.94v.34c0,.12,0,.17.22.17h1Zm-.51,3.84c-.18,0-.31-.09-.32-.26a15.64,15.64,0,0,0-.28-2,.28.28,0,0,1,.21-.35.3.3,0,0,1,.35.22A11.8,11.8,0,0,1,66,49.09.27.27,0,0,1,65.69,49.39ZM67,48.94c-.18,0-.32,0-.36-.18A7.34,7.34,0,0,0,66,47.18a.26.26,0,0,1,.14-.38.28.28,0,0,1,.39.14,6.26,6.26,0,0,1,.65,1.67A.26.26,0,0,1,67,48.94Zm1.15-.26a.31.31,0,0,1-.39-.14,6.37,6.37,0,0,0-.79-1.39.25.25,0,0,1,.06-.39.29.29,0,0,1,.42.08,6.1,6.1,0,0,1,.86,1.47A.28.28,0,0,1,68.11,48.68Z" style="fill:#231f20"/><path d="M73.16,49.4a2.24,2.24,0,0,1-2,.13.35.35,0,0,1-.28-.42.34.34,0,0,1,.45-.23c.39.11,1,.25,1.39,0a1.91,1.91,0,0,0,.4-1.46V45.63c0-.17-.08-.25-.24-.25h-2a4.44,4.44,0,0,1-.51.94.32.32,0,0,1-.48.1.3.3,0,0,1-.1-.24.42.42,0,0,1,.1-.28,3.39,3.39,0,0,0,.53-1.44.32.32,0,0,1,.34-.31c.3,0,.31.33.26.56h2.16a.54.54,0,0,1,.62.62v2A2.64,2.64,0,0,1,73.16,49.4Zm-1.75-4.87a.28.28,0,0,1-.31-.29V44h-.89c-.18,0-.27-.14-.28-.33s.1-.33.28-.33h.89v-.43c0-.18.12-.26.31-.28s.31.1.31.28v1.35A.28.28,0,0,1,71.41,44.53Zm.84,4H70.9a.35.35,0,0,1-.39-.4V46.21a.36.36,0,0,1,.39-.4h1.35a.37.37,0,0,1,.4.4V48.1A.35.35,0,0,1,72.25,48.5Zm-.21-2a.11.11,0,0,0-.12-.12h-.69c-.09,0-.13,0-.13.12v1.23c0,.1,0,.13.13.13h.69c.08,0,.12,0,.12-.13ZM73.88,44h-.81v.28a.29.29,0,0,1-.32.3.28.28,0,0,1-.32-.3V42.89c0-.18.13-.26.32-.28s.32.1.32.28v.43h.81c.18,0,.26.14.28.33S74.06,44,73.88,44Zm3.31,5.39a.36.36,0,0,1-.54,0,10.18,10.18,0,0,1-1.19-1.29,7.6,7.6,0,0,1-1.26,1.37.59.59,0,0,1-.32.15.33.33,0,0,1-.36-.39.44.44,0,0,1,.17-.28,7.11,7.11,0,0,0,1.37-1.48,6,6,0,0,1-.58-1.66.38.38,0,0,1-.41.26.34.34,0,0,1-.24-.21.45.45,0,0,1,0-.34A7,7,0,0,0,74.29,43a.33.33,0,0,1,.34-.35c.39,0,.33.35.33.63,0,.05,0,.1,0,.15H76.8c.19,0,.29.13.31.33s-.12.34-.31.34h-.31a6.77,6.77,0,0,1-.69,3.35,7.48,7.48,0,0,0,1.32,1.37.38.38,0,0,1,.16.27A.37.37,0,0,1,77.19,49.37Zm-2.32-5.29a7.54,7.54,0,0,0,.53,2.67,5.84,5.84,0,0,0,.42-2.67Z" style="fill:#231f20"/><path d="M84.82,46.1H83.67a5.16,5.16,0,0,1-1.28,2s.12,0,.2.07c1.3.45,2,.74,2.26.85a.37.37,0,0,1,.22.45.35.35,0,0,1-.47.14l-.41-.16c-1.1-.42-1.88-.72-2.37-.88a8.36,8.36,0,0,1-3.49,1c-.24,0-.39-.08-.44-.28a.34.34,0,0,1,.37-.36A8.39,8.39,0,0,0,81,48.29c-.4-.15-.9-.36-1.79-.69-.45-.17-.4-.53-.12-.82a6.8,6.8,0,0,0,.58-.68H78.21a.31.31,0,0,1-.32-.32c0-.2.12-.32.32-.32h2a8.27,8.27,0,0,0,.7-1.16.39.39,0,0,1,.2-.2.39.39,0,0,1,.28,0,.34.34,0,0,1,.18.5,8.25,8.25,0,0,1-.55.88h3.86c.2,0,.3.12.31.32A.32.32,0,0,1,84.82,46.1Zm-.19-1.19a.35.35,0,0,1-.44.27.29.29,0,0,1-.22-.41c.18-.55.22-.8,0-.8H78.92c-.17,0-.2.11-.2.25v.6c0,.17-.14.26-.32.26s-.33-.09-.33-.26V44c0-.4.26-.62.69-.62H81v-.52c0-.17.13-.26.33-.28s.34.09.34.27v.53h2.43c.46,0,.7.22.69.63A3.93,3.93,0,0,1,84.63,44.91ZM80.56,46.1l-.75.87c-.1.12-.08.17,0,.19.61.21,1.23.45,1.84.69a4.2,4.2,0,0,0,1.29-1.75Z" style="fill:#231f20"/><path d="M88.43,46.74a.25.25,0,0,1-.35-.17.84.84,0,0,0-.08-.2l-.34,0v3a.28.28,0,0,1-.3.29c-.18,0-.31-.1-.31-.28v-3l-.36,0-.45,0a.29.29,0,0,1-.3-.27c0-.19.08-.31.25-.33l.18,0a4.71,4.71,0,0,0,.45-.65c-.15-.17-.41-.44-.77-.8a.29.29,0,0,1,0-.44.32.32,0,0,1,.41,0c.2-.36.36-.75.56-1.11a.32.32,0,0,1,.42-.17.29.29,0,0,1,.16.4A9.73,9.73,0,0,1,87,44.29l-.08.15.26.26c.18-.29.35-.6.51-.92a.32.32,0,0,1,.46-.15.36.36,0,0,1,.07.49,12.67,12.67,0,0,1-1.12,1.78l.74-.07a1.7,1.7,0,0,0-.11-.23.26.26,0,0,1,.14-.34.27.27,0,0,1,.37.12,6.2,6.2,0,0,1,.37,1A.27.27,0,0,1,88.43,46.74ZM86.66,49c0,.21-.17.33-.37.32a.32.32,0,0,1-.24-.41,12.93,12.93,0,0,0,.16-1.73.33.33,0,0,1,.34-.32c.19,0,.28.14.27.35A11.07,11.07,0,0,1,86.66,49Zm1.7-.49A.27.27,0,0,1,88,48.3c0-.17,0-.38-.1-.61s0-.23-.06-.32a.3.3,0,0,1,.21-.35.28.28,0,0,1,.35.2,5.27,5.27,0,0,1,.17,1A.32.32,0,0,1,88.36,48.55Zm.63.66a.32.32,0,0,1-.4.19A.28.28,0,0,1,88.4,49a9.17,9.17,0,0,0,.4-1.67.3.3,0,0,1,.33-.28.29.29,0,0,1,.27.34A6.41,6.41,0,0,1,89,49.21Zm3.11-2.49H89.16c-.38,0-.56-.23-.56-.66V43.62a.48.48,0,0,1,.14-.4.8.8,0,0,1,.48-.11h.87c.09-.13.16-.31.22-.4a.38.38,0,0,1,.44-.19.25.25,0,0,1,.18.36,2.29,2.29,0,0,1-.1.23h1.32a.92.92,0,0,1,.54.12.47.47,0,0,1,.14.41v2.5C92.83,46.54,92.59,46.72,92.1,46.72Zm.1-2.81c0-.14,0-.21-.21-.21H89.43c-.15,0-.22.07-.22.16V46c0,.09.05.14.24.14h2.6c.12,0,.15,0,.15-.14Zm-.81,1.26a2.33,2.33,0,0,1,.47.37.26.26,0,0,1,0,.36.27.27,0,0,1-.37,0l-.55-.4A3.27,3.27,0,0,1,89.8,46a.28.28,0,0,1-.37-.17.25.25,0,0,1,.21-.34,3.76,3.76,0,0,0,.84-.31c-.08-.06-.29-.18-.47-.28a1.52,1.52,0,0,1-.3.26.27.27,0,0,1-.37,0c-.15-.23,0-.35.16-.46a5.61,5.61,0,0,0,.68-.62.42.42,0,0,1,.34-.2H91.6c.32,0,.48.13.41.4A2.59,2.59,0,0,1,91.39,45.17Zm0,4.39h-.92c-.51,0-.8-.17-.8-.55V47.1c0-.17.13-.25.3-.26s.3.08.3.26v1.61c0,.13,0,.19.07.22a1,1,0,0,0,.4,0,2.24,2.24,0,0,0,.69,0c.08,0,.12-.15.12-.4a.3.3,0,0,1,.31-.28.28.28,0,0,1,.28.3C92.15,49.2,91.91,49.56,91.4,49.56Zm-.17-5.17h-.64l-.17.16c.18.11.42.23.51.3a1.33,1.33,0,0,0,.35-.38S91.3,44.39,91.23,44.39Zm0,4c-.19,0-.37,0-.39-.25a8.35,8.35,0,0,0-.26-1,.26.26,0,0,1,.2-.34.3.3,0,0,1,.39.17,4.86,4.86,0,0,1,.28,1.07A.31.31,0,0,1,91.25,48.41Zm1.59,1a.31.31,0,0,1-.37-.24,11,11,0,0,0-.6-1.78A.27.27,0,0,1,92,47a.33.33,0,0,1,.43.17A7.59,7.59,0,0,1,93.08,49,.32.32,0,0,1,92.84,49.37Z" style="fill:#231f20"/><path d="M96.32,48.4a7,7,0,0,1-2.1,1,.3.3,0,0,1-.41-.17c-.11-.35.14-.45.4-.54l.52-.21V46.19h-.58c-.19,0-.29-.13-.3-.33a.29.29,0,0,1,.3-.31h.58V43.62H94.1c-.18,0-.26-.12-.28-.31s.1-.32.28-.32h1.77a.31.31,0,0,1,.32.32.3.3,0,0,1-.32.31h-.5v1.93H96c.2,0,.29.12.31.31s-.11.33-.31.33h-.59v2l.55-.33a.3.3,0,0,1,.44,0A.31.31,0,0,1,96.32,48.4Zm4.62,1.06H96.45c-.18,0-.27-.13-.27-.33a.29.29,0,0,1,.31-.28h1.86V48H96.83c-.19,0-.27-.12-.27-.31a.28.28,0,0,1,.28-.3h1.51v-.81H97a.55.55,0,0,1-.61-.63V43.44a.55.55,0,0,1,.62-.63h3.31c.4,0,.57.19.57.62V46a.55.55,0,0,1-.62.61H99v.81h1.7c.18,0,.26.12.27.3s-.09.31-.27.31H99v.84h2c.18,0,.28.12.29.31A.28.28,0,0,1,100.94,49.46Zm-2.59-6H97.26c-.14,0-.19,0-.19.2v.77h1.28Zm0,1.58H97.07v.76c0,.15.05.21.21.21h1.07Zm1.92-1.33c0-.19,0-.25-.17-.25H99v1h1.28Zm0,1.33H99v1h1.12c.12,0,.16,0,.16-.25Z" style="fill:#231f20"/><path d="M34.11,58.8V53.07h1.14l1.36,4.06.27.84c.07-.2.17-.51.31-.91l1.37-4h1V58.8h-.73V54l-1.67,4.8H36.5l-1.66-4.88V58.8Z" style="fill:#231f20"/><path d="M40.7,58.8V54.65h.63v.63a1.67,1.67,0,0,1,.45-.58.75.75,0,0,1,.45-.14,1.4,1.4,0,0,1,.73.22l-.25.65a1,1,0,0,0-.51-.15.71.71,0,0,0-.42.14.73.73,0,0,0-.26.39,2.66,2.66,0,0,0-.12.82V58.8Z" style="fill:#231f20"/><path d="M43.13,58.8V58h.8v.8Z" style="fill:#231f20"/><path d="M47.47,58.8V53.07h2a5.23,5.23,0,0,1,1,.08,2,2,0,0,1,.84.41,2.37,2.37,0,0,1,.68,1,3.84,3.84,0,0,1,.22,1.36,4.08,4.08,0,0,1-.15,1.16,2.67,2.67,0,0,1-.39.83,2,2,0,0,1-.52.52,2.17,2.17,0,0,1-.69.29,3.6,3.6,0,0,1-.92.1Zm.75-.68h1.23a3,3,0,0,0,.89-.1,1.28,1.28,0,0,0,.51-.3,1.78,1.78,0,0,0,.42-.73,3.52,3.52,0,0,0,.15-1.1,2.73,2.73,0,0,0-.29-1.38,1.53,1.53,0,0,0-.72-.65,3.23,3.23,0,0,0-1-.11H48.22Z" style="fill:#231f20"/><path d="M56,57.46l.73.09a1.72,1.72,0,0,1-.64,1,2.16,2.16,0,0,1-2.63-.21,2.21,2.21,0,0,1-.53-1.57,2.31,2.31,0,0,1,.54-1.63,1.83,1.83,0,0,1,1.4-.57,1.77,1.77,0,0,1,1.36.56,2.27,2.27,0,0,1,.52,1.6v.18H53.65A1.57,1.57,0,0,0,54,58a1.15,1.15,0,0,0,.87.36,1,1,0,0,0,.66-.2A1.33,1.33,0,0,0,56,57.46Zm-2.3-1.14H56a1.44,1.44,0,0,0-.26-.78,1.15,1.15,0,0,0-1.69-.08A1.24,1.24,0,0,0,53.69,56.32Z" style="fill:#231f20"/><path d="M57.6,58.8V54.65h.63v.63a1.56,1.56,0,0,1,.45-.58.71.71,0,0,1,.45-.14,1.39,1.39,0,0,1,.72.22l-.24.65a1,1,0,0,0-.52-.15.68.68,0,0,0-.41.14.73.73,0,0,0-.26.39,2.66,2.66,0,0,0-.12.82V58.8Z" style="fill:#231f20"/><path d="M60.26,58.8V54.65h.63v.63a1.56,1.56,0,0,1,.45-.58.75.75,0,0,1,.45-.14,1.34,1.34,0,0,1,.72.22l-.24.65a1,1,0,0,0-.51-.15.68.68,0,0,0-.42.14.73.73,0,0,0-.26.39,2.66,2.66,0,0,0-.12.82V58.8Z" style="fill:#231f20"/><path d="M62.94,53.88v-.81h.7v.81Zm0,4.92V54.65h.7V58.8Z" style="fill:#231f20"/><path d="M67.42,57.28l.69.09a1.84,1.84,0,0,1-.58,1.12,1.7,1.7,0,0,1-1.15.4A1.76,1.76,0,0,1,65,58.33a2.27,2.27,0,0,1-.52-1.59,2.89,2.89,0,0,1,.23-1.18,1.58,1.58,0,0,1,.67-.75,2,2,0,0,1,1-.25,1.71,1.71,0,0,1,1.11.34,1.52,1.52,0,0,1,.55,1l-.68.1a1.14,1.14,0,0,0-.35-.63.88.88,0,0,0-.6-.21,1.1,1.1,0,0,0-.86.38,1.84,1.84,0,0,0-.33,1.21,1.81,1.81,0,0,0,.32,1.21,1,1,0,0,0,.83.38,1,1,0,0,0,.69-.25A1.24,1.24,0,0,0,67.42,57.28Z" style="fill:#231f20"/><path d="M68.71,58.8V53.07h.71v3.27l1.66-1.69H72L70.4,56.19l1.75,2.61h-.87l-1.37-2.12-.49.47V58.8Z" style="fill:#231f20"/><path d="M75.06,58.8V53.07h3.86v.68h-3.1v1.77h2.69v.68H75.82v2.6Z" style="fill:#231f20"/><path d="M83.67,53.07h.75v3.31a4,4,0,0,1-.19,1.37,1.72,1.72,0,0,1-.71.83,2.49,2.49,0,0,1-1.33.32,2.81,2.81,0,0,1-1.32-.28,1.56,1.56,0,0,1-.73-.81,3.7,3.7,0,0,1-.22-1.43V53.07h.76v3.31a3.08,3.08,0,0,0,.14,1.1,1.07,1.07,0,0,0,.47.54,1.64,1.64,0,0,0,.83.19,1.55,1.55,0,0,0,1.19-.38,2.15,2.15,0,0,0,.36-1.45Z" style="fill:#231f20"/><path d="M85.68,58.8V53.07h.78l3,4.5v-4.5h.73V58.8h-.78l-3-4.5v4.5Z" style="fill:#231f20"/><path d="M94.14,56.55v-.67h2.43V58a4.25,4.25,0,0,1-1.15.67,3.47,3.47,0,0,1-1.22.23,3.27,3.27,0,0,1-1.54-.37,2.43,2.43,0,0,1-1-1A3.38,3.38,0,0,1,91.27,56a3.57,3.57,0,0,1,.35-1.56,2.36,2.36,0,0,1,1-1.08A3.18,3.18,0,0,1,94.14,53a3.06,3.06,0,0,1,1.12.2,2,2,0,0,1,.79.56,2.56,2.56,0,0,1,.43.94l-.68.19a2.22,2.22,0,0,0-.32-.69,1.38,1.38,0,0,0-.55-.4,2,2,0,0,0-.79-.15,2.29,2.29,0,0,0-.9.16,1.7,1.7,0,0,0-.61.42,2.23,2.23,0,0,0-.36.56,3.14,3.14,0,0,0-.22,1.15,2.77,2.77,0,0,0,.27,1.29,1.69,1.69,0,0,0,.76.76,2.37,2.37,0,0,0,1.07.25,2.54,2.54,0,0,0,1-.19,2.42,2.42,0,0,0,.71-.4V56.55Z" style="fill:#231f20"/><path d="M97.78,58.8V58h.8v.8a1.36,1.36,0,0,1-.16.71,1,1,0,0,1-.49.42l-.2-.3a.67.67,0,0,0,.33-.29,1.23,1.23,0,0,0,.12-.54Z" style="fill:#231f20"/><path d="M102.13,58.8V53.07h2a5.09,5.09,0,0,1,1,.08,2,2,0,0,1,.84.41,2.37,2.37,0,0,1,.68,1,3.84,3.84,0,0,1,.23,1.36,4.06,4.06,0,0,1-.16,1.16,2.67,2.67,0,0,1-.39.83,2,2,0,0,1-.52.52,2.22,2.22,0,0,1-.68.29,3.71,3.71,0,0,1-.92.1Zm.76-.68h1.22A3,3,0,0,0,105,58a1.15,1.15,0,0,0,.51-.3,1.78,1.78,0,0,0,.42-.73,3.52,3.52,0,0,0,.15-1.1,2.63,2.63,0,0,0-.29-1.38,1.53,1.53,0,0,0-.72-.65,3.23,3.23,0,0,0-1-.11h-1.2Z" style="fill:#231f20"/><path d="M107.82,53.88v-.81h.71v.81Zm0,4.92V54.65h.71V58.8Z" style="fill:#231f20"/><path d="M109.59,58.8V54.65h.63v.63a1.56,1.56,0,0,1,.45-.58.75.75,0,0,1,.45-.14,1.34,1.34,0,0,1,.72.22l-.24.65a1,1,0,0,0-.52-.15.68.68,0,0,0-.41.14.73.73,0,0,0-.26.39,2.66,2.66,0,0,0-.12.82V58.8Z" style="fill:#231f20"/><path d="M115.1,57.46l.73.09a1.78,1.78,0,0,1-.64,1,2,2,0,0,1-1.19.35,1.91,1.91,0,0,1-1.44-.56,2.16,2.16,0,0,1-.53-1.57,2.31,2.31,0,0,1,.54-1.63,1.81,1.81,0,0,1,1.39-.57,1.75,1.75,0,0,1,1.36.56,2.27,2.27,0,0,1,.53,1.6v.18h-3.1a1.62,1.62,0,0,0,.39,1.05,1.15,1.15,0,0,0,.87.36,1.08,1.08,0,0,0,.66-.2A1.4,1.4,0,0,0,115.1,57.46Zm-2.31-1.14h2.32a1.36,1.36,0,0,0-.27-.78,1.07,1.07,0,0,0-.87-.41,1.1,1.1,0,0,0-.81.33A1.29,1.29,0,0,0,112.79,56.32Z" style="fill:#231f20"/><path d="M119.42,57.28l.69.09a1.84,1.84,0,0,1-.58,1.12,1.7,1.7,0,0,1-1.15.4,1.76,1.76,0,0,1-1.37-.56,2.27,2.27,0,0,1-.52-1.59,2.89,2.89,0,0,1,.23-1.18,1.55,1.55,0,0,1,.68-.75,2,2,0,0,1,1-.25,1.7,1.7,0,0,1,1.1.34,1.52,1.52,0,0,1,.55,1l-.68.1a1.14,1.14,0,0,0-.35-.63.88.88,0,0,0-.6-.21,1.1,1.1,0,0,0-.86.38,1.84,1.84,0,0,0-.33,1.21,1.81,1.81,0,0,0,.32,1.21,1.1,1.1,0,0,0,1.53.13A1.29,1.29,0,0,0,119.42,57.28Z" style="fill:#231f20"/><path d="M122.24,58.17l.11.62a2.77,2.77,0,0,1-.53.06,1.22,1.22,0,0,1-.6-.12.71.71,0,0,1-.3-.32,2.81,2.81,0,0,1-.08-.83V55.2h-.52v-.55h.52v-1l.7-.42v1.45h.7v.55h-.7v2.42a1.55,1.55,0,0,0,0,.39.35.35,0,0,0,.13.14.48.48,0,0,0,.24.05Z" style="fill:#231f20"/><path d="M122.67,56.72a2.11,2.11,0,0,1,.64-1.7,1.92,1.92,0,0,1,1.31-.46,1.82,1.82,0,0,1,1.39.56,2.09,2.09,0,0,1,.55,1.54,2.71,2.71,0,0,1-.24,1.26,1.74,1.74,0,0,1-.7.72,2,2,0,0,1-1,.25,1.87,1.87,0,0,1-1.41-.56A2.22,2.22,0,0,1,122.67,56.72Zm.72,0a1.81,1.81,0,0,0,.35,1.2,1.12,1.12,0,0,0,.88.39,1.1,1.1,0,0,0,.87-.4,1.8,1.8,0,0,0,.34-1.21,1.76,1.76,0,0,0-.34-1.17,1.14,1.14,0,0,0-.87-.39,1.12,1.12,0,0,0-.88.39A1.76,1.76,0,0,0,123.39,56.72Z" style="fill:#231f20"/><path d="M127.37,58.8V54.65H128v.63a1.67,1.67,0,0,1,.44-.58.75.75,0,0,1,.45-.14,1.4,1.4,0,0,1,.73.22l-.24.65a1.06,1.06,0,0,0-.52-.15.68.68,0,0,0-.41.14.75.75,0,0,0-.27.39,3,3,0,0,0-.11.82V58.8Z" style="fill:#231f20"/><path d="M46.67,38.48l-1-3.11h.8l.58,2,.53-2h.8l.51,2,.6-2h.81l-1,3.11h-.79l-.54-2-.52,2Z" style="fill:#59ac48"/><path d="M51.93,38.48l-1-3.11h.8l.58,2,.54-2h.79l.52,2,.59-2h.81l-1,3.11h-.79l-.53-2-.53,2Z" style="fill:#59ac48"/><path d="M57.18,38.48l-1-3.11H57l.58,2,.53-2h.79l.52,2,.59-2h.81l-1,3.11H59l-.54-2-.52,2Z" style="fill:#59ac48"/><path d="M61.63,38.48v-.83h.82v.83Z" style="fill:#59ac48"/><path d="M66.74,38.48H66V38a1.3,1.3,0,0,1-.45.4,1.25,1.25,0,0,1-.52.13,1.19,1.19,0,0,1-.92-.44,2.11,2.11,0,0,1,0-2.4A1.23,1.23,0,0,1,65,35.3a1.18,1.18,0,0,1,.9.43V34.19h.82Zm-2.19-1.62a1.34,1.34,0,0,0,.14.72.61.61,0,0,0,.55.32.6.6,0,0,0,.48-.24,1.1,1.1,0,0,0,.2-.72,1.19,1.19,0,0,0-.19-.77.6.6,0,0,0-.49-.24.62.62,0,0,0-.49.23A1,1,0,0,0,64.55,36.86Z" style="fill:#59ac48"/><path d="M68,36.88a1.72,1.72,0,0,1,.2-.79,1.47,1.47,0,0,1,.57-.59,1.76,1.76,0,0,1,.83-.2,1.52,1.52,0,0,1,1.15.46,1.57,1.57,0,0,1,.45,1.15,1.61,1.61,0,0,1-.45,1.17,1.56,1.56,0,0,1-1.15.47,1.8,1.8,0,0,1-.81-.2,1.33,1.33,0,0,1-.59-.56A1.94,1.94,0,0,1,68,36.88Zm.84,0a1,1,0,0,0,.22.71.72.72,0,0,0,.54.25.71.71,0,0,0,.54-.25,1,1,0,0,0,.22-.71,1,1,0,0,0-.22-.7.68.68,0,0,0-.54-.25.69.69,0,0,0-.54.25A1,1,0,0,0,68.8,36.92Z" style="fill:#59ac48"/><path d="M75.11,36.29l-.81.15a.62.62,0,0,0-.18-.37.6.6,0,0,0-.38-.12.61.61,0,0,0-.49.21,1.1,1.1,0,0,0-.18.71,1.28,1.28,0,0,0,.18.78.63.63,0,0,0,.5.23.54.54,0,0,0,.38-.14.79.79,0,0,0,.21-.45l.81.13a1.41,1.41,0,0,1-.48.84,1.5,1.5,0,0,1-1,.29,1.44,1.44,0,0,1-1.08-.43,1.95,1.95,0,0,1,0-2.39,1.67,1.67,0,0,1,2-.18A1.37,1.37,0,0,1,75.11,36.29Z" style="fill:#59ac48"/><path d="M77.75,35.37V36h-.56v1.25a2.9,2.9,0,0,0,0,.44.14.14,0,0,0,.07.1.23.23,0,0,0,.14,0,1,1,0,0,0,.33-.07l.07.63a1.67,1.67,0,0,1-.65.13,1,1,0,0,1-.4-.08.59.59,0,0,1-.26-.19A.86.86,0,0,1,76.4,38a3.56,3.56,0,0,1,0-.58V36H76v-.66h.38v-.62l.82-.47v1.09Z" style="fill:#59ac48"/><path d="M78.73,36.88a1.72,1.72,0,0,1,.2-.79,1.43,1.43,0,0,1,.58-.59,1.72,1.72,0,0,1,.82-.2,1.54,1.54,0,0,1,1.16.46,1.57,1.57,0,0,1,.45,1.15,1.62,1.62,0,0,1-.46,1.17,1.52,1.52,0,0,1-1.14.47,1.81,1.81,0,0,1-.82-.2,1.39,1.39,0,0,1-.59-.56A1.94,1.94,0,0,1,78.73,36.88Zm.84,0a1.06,1.06,0,0,0,.22.71.72.72,0,0,0,.54.25.69.69,0,0,0,.54-.25,1,1,0,0,0,.22-.71,1,1,0,0,0-.22-.7.66.66,0,0,0-.54-.25.69.69,0,0,0-.54.25A1,1,0,0,0,79.57,36.92Z" style="fill:#59ac48"/><path d="M84,38.48h-.82V35.37h.77v.44a1.26,1.26,0,0,1,.35-.41.6.6,0,0,1,.35-.1,1,1,0,0,1,.54.16l-.25.71a.72.72,0,0,0-.39-.13.48.48,0,0,0-.29.09.71.71,0,0,0-.19.35,5.22,5.22,0,0,0-.07,1Z" style="fill:#59ac48"/><path d="M86.68,38.48l-1-3.11h.8l.58,2,.54-2h.79l.52,2,.59-2h.81l-1,3.11h-.79l-.53-2-.53,2Z" style="fill:#59ac48"/><path d="M91.17,36.88a1.72,1.72,0,0,1,.2-.79,1.47,1.47,0,0,1,.57-.59,1.76,1.76,0,0,1,.83-.2,1.52,1.52,0,0,1,1.15.46,1.57,1.57,0,0,1,.45,1.15,1.61,1.61,0,0,1-.45,1.17,1.55,1.55,0,0,1-1.15.47,1.8,1.8,0,0,1-.81-.2,1.33,1.33,0,0,1-.59-.56A1.94,1.94,0,0,1,91.17,36.88Zm.84,0a1,1,0,0,0,.22.71.72.72,0,0,0,.54.25.69.69,0,0,0,.54-.25,1,1,0,0,0,.22-.71,1,1,0,0,0-.22-.7.66.66,0,0,0-.54-.25.69.69,0,0,0-.54.25A1,1,0,0,0,92,36.92Z" style="fill:#59ac48"/><path d="M96.4,38.48h-.82V35.37h.76v.44a1.39,1.39,0,0,1,.35-.41.65.65,0,0,1,.36-.1,1,1,0,0,1,.54.16l-.25.71A.72.72,0,0,0,97,36a.48.48,0,0,0-.29.09.71.71,0,0,0-.19.35,4.53,4.53,0,0,0-.07,1Z" style="fill:#59ac48"/><path d="M98.51,38.48V34.19h.82v2.27l1-1.09h1l-1.06,1.14,1.13,2h-.88l-.78-1.4-.39.4v1Z" style="fill:#59ac48"/><path d="M102.47,38.48v-.83h.82v.83Z" style="fill:#59ac48"/><path d="M107.44,36.29l-.81.15a.57.57,0,0,0-.19-.37.55.55,0,0,0-.37-.12.61.61,0,0,0-.49.21,1.1,1.1,0,0,0-.19.71,1.27,1.27,0,0,0,.19.78.61.61,0,0,0,.5.23.56.56,0,0,0,.38-.14.79.79,0,0,0,.21-.45l.81.13a1.46,1.46,0,0,1-.48.84,1.5,1.5,0,0,1-1,.29,1.44,1.44,0,0,1-1.08-.43,1.95,1.95,0,0,1,0-2.39,1.42,1.42,0,0,1,1.1-.43,1.48,1.48,0,0,1,.9.25A1.37,1.37,0,0,1,107.44,36.29Z" style="fill:#59ac48"/><path d="M108.47,36.88a1.72,1.72,0,0,1,.2-.79,1.47,1.47,0,0,1,.57-.59,1.76,1.76,0,0,1,.83-.2,1.52,1.52,0,0,1,1.15.46,1.57,1.57,0,0,1,.45,1.15,1.61,1.61,0,0,1-.45,1.17,1.56,1.56,0,0,1-1.15.47,1.8,1.8,0,0,1-.81-.2,1.33,1.33,0,0,1-.59-.56A1.94,1.94,0,0,1,108.47,36.88Zm.84,0a1,1,0,0,0,.22.71.71.71,0,0,0,1.08,0,1.06,1.06,0,0,0,.22-.71,1,1,0,0,0-.22-.7.71.71,0,0,0-1.08,0A1,1,0,0,0,109.31,36.92Z" style="fill:#59ac48"/><path d="M112.85,35.37h.76v.43a1.22,1.22,0,0,1,1-.5,1,1,0,0,1,.51.12.94.94,0,0,1,.36.38,1.69,1.69,0,0,1,.44-.38,1.13,1.13,0,0,1,.51-.12,1.16,1.16,0,0,1,.58.14.83.83,0,0,1,.35.41,1.63,1.63,0,0,1,.09.64v2h-.82V36.7a1.19,1.19,0,0,0-.09-.59.38.38,0,0,0-.35-.18.5.5,0,0,0-.32.11.57.57,0,0,0-.22.3,2,2,0,0,0-.07.64v1.5h-.82V36.77a2.2,2.2,0,0,0,0-.58.35.35,0,0,0-.13-.2.46.46,0,0,0-.25-.06.57.57,0,0,0-.56.4,2.3,2.3,0,0,0-.07.64v1.51h-.82Z" style="fill:#59ac48"/><circle cx="89.38" cy="18.82" r="0.59" style="fill:#59ac48"/><path d="M86.81,17.58A12.51,12.51,0,0,0,86,16.2l-.73.49a11.62,11.62,0,0,1,.8,1.4Z" style="fill:#59ac48"/><path d="M85.42,23.67v-.05a13,13,0,0,0,1.38-2.37L86,20.8a11.54,11.54,0,0,1-.88,1.66l0-.2a11.19,11.19,0,0,1-.19-2.09V20.1h1.68v-.92H84.92V16H84v3.2H82.79V17.5l0,0c.25-.13.49-.29.72-.44l-.41-.79a11,11,0,0,1-2.49,1.27l.3.83.8-.32.11-.05v1.21H80.76v.92h1.11v2.46l-.05,0-1.06.34.29.87.82-.26v2.88h.92V23.29l1-.32a6.81,6.81,0,0,1-.23-.9l-.75.25V20.11H84v.08a11.87,11.87,0,0,0,.43,3.2v.05a10.25,10.25,0,0,1-1.33,1.37c.13.18.42.58.55.74a13.06,13.06,0,0,0,1.11-1.08l0,.1a2.75,2.75,0,0,0,1.94,1.62L87,25.3A2.58,2.58,0,0,1,85.42,23.67Z" style="fill:#59ac48"/><path d="M91.83,21.51h-3.7V17.62H90.6v1.6c0,.6-.23.83-.8.83H89V21H90a1.49,1.49,0,0,0,1.48-1.63V16.69H88.89l.35-.92h-1l-.35.93h-.7v5.73H90.9v2.16c0,.83-.45,1-1.14,1H88.4v.92h1.5c1.3,0,1.93-.58,1.93-1.78V21.51Z" style="fill:#59ac48"/><rect x="86.85" y="23.51" width="3.38" height="0.93" style="fill:#59ac48"/><rect x="114" y="21.56" width="2.87" height="0.93" style="fill:#59ac48"/><path d="M107.42,26.25v-.93h4.86V22.49h-3.42v-.94h3.42V19.18h-3.14l0,0A11,11,0,0,1,108.05,21a2.58,2.58,0,0,0-.91-.31,10.64,10.64,0,0,0,2.06-4.42l.88.28a13.29,13.29,0,0,1-.49,1.65l0,.1h2.73V15.78h.93v2.47h3.89v.93h-3.89v6.14H118v.94Z" style="fill:#59ac48"/><path d="M103.44,25.05l.53-.75a12,12,0,0,0-2.85-1.58l-.42.82A11.44,11.44,0,0,1,103.44,25.05Z" style="fill:#59ac48"/><path d="M104.24,21.11h-3.58V21s0-.48,0-.76v-.69h3v-.93H98.49l.07-.11c.14-.23.27-.45.39-.68l-.88-.23A10.86,10.86,0,0,1,96.35,20l.76.48c.27-.29.44-.49.68-.78l0-.06h1.94v.06s0,.24,0,.68,0,.71,0,.72v.06H96.28V22h3.31l0,.1c-.36,1-1.4,1.61-3.19,2.2a4.68,4.68,0,0,1,.58.74,6.07,6.07,0,0,0,3.33-2.19c.17-.29.31-.54.4-.74l0-.11h3.5Z" style="fill:#59ac48"/><polygon points="95.74 25.31 95.74 17.3 104.76 17.3 104.76 16.36 94.81 16.36 94.81 26.25 105.01 26.25 105.01 25.31 95.74 25.31" style="fill:#59ac48"/><polygon points="73.33 19.2 72.4 19.2 72.4 25.32 67.55 25.32 67.55 26.25 77.97 26.25 77.97 25.32 73.33 25.32 73.33 19.2" style="fill:#59ac48"/><path d="M72.56,17l0-.06,0,.06a11.93,11.93,0,0,0,5.18,3.69c.07-.18.29-.83.29-.83A10.65,10.65,0,0,1,73.18,16H72.05A10.53,10.53,0,0,1,67,19.86l.41.79A11.92,11.92,0,0,0,72.56,17Z" style="fill:#59ac48"/><rect x="69.51" y="21.52" width="0.93" height="3.24" style="fill:#59ac48"/><rect x="74" y="21.51" width="2.74" height="0.93" style="fill:#59ac48"/><path d="M59.15,17.94A5.78,5.78,0,0,0,57,17.2a2.36,2.36,0,0,0-4.51.48h0a.84.84,0,0,1-.25.34,0,0,0,0,0,0,0A5.32,5.32,0,0,0,50,22.37v.55l0,1.61h0v.06c0,.17,0,.39,0,.56a5.81,5.81,0,0,1-1.46,3.9.41.41,0,0,0,0,.57.38.38,0,0,0,.18.09h.34A4.88,4.88,0,0,0,54,24.87h0c0-.38,0-1.64,0-1.68h-.81c0,.05,0,1,0,1.67h0a4.09,4.09,0,0,1-3.46,4,6.6,6.6,0,0,0,1.12-3.73c0-.19,0-.41,0-.59h0l0-1.66v-.53a4.55,4.55,0,0,1,2-3.79.31.31,0,0,0,.09-.07h0a1.16,1.16,0,0,0,.33-.58.19.19,0,0,0,0-.08,1.55,1.55,0,0,1,3-.26.14.14,0,0,0,0,.06.39.39,0,0,0,.36.32,5.37,5.37,0,0,1,.73.13,3.29,3.29,0,0,0-2.06,3,2.26,2.26,0,0,0,0,.26,1.5,1.5,0,1,0,.81-.09.91.91,0,0,1,0-.17,2.44,2.44,0,0,1,.39-1.33A5,5,0,0,1,58,23.43a5,5,0,0,1-4.88,5l0,.81a5.82,5.82,0,0,0,3.87-10,2.46,2.46,0,0,1,1.55-.55h.24a.32.32,0,0,0,.17,0,.38.38,0,0,0,.24-.16A.4.4,0,0,0,59.15,17.94Zm-2.59,4.87a.7.7,0,1,1-.69-.7A.69.69,0,0,1,56.56,22.81Z" style="fill:#59ac48"/><rect x="56.25" y="28.4" width="2.33" height="0.81" style="fill:#59ac48"/><path d="M55.57,11.32l.53-.55-.61-.57a33.17,33.17,0,0,1-10.34,7.47l.35.76A34.16,34.16,0,0,0,55,11.91a33.9,33.9,0,0,0,9.37,6.45l.35-.76A33.1,33.1,0,0,1,55.57,11.32Z" style="fill:#59ac48"/></g></svg>