<svg xmlns="http://www.w3.org/2000/svg" width="199.77" height="131.74" viewBox="0 0 199.77 131.74"><title>Asset 1@2x</title><g id="cda104f2-1a7a-4080-b238-38bf284ed074" data-name="Layer 2"><g id="a11dbe0b-4fbf-41c0-871e-1d9ab4c687a7" data-name="Layer 1"><path d="M71.29,116.59a2.93,2.93,0,0,1-.76-.45c0,.21-.11.33-.31.33H68.63c-.24,0-.36-.1-.37-.31a2.87,2.87,0,0,1-.36.26,2,2,0,0,1-.17.12.29.29,0,0,1-.45,0c-.19-.31,0-.47.26-.62a3.08,3.08,0,0,0,.48-.36c-.1-.1-.23-.17-.35-.27a.28.28,0,0,1-.07-.41.3.3,0,0,1,.4-.08,2.51,2.51,0,0,1,.5.35,2.3,2.3,0,0,0,.44-.52h-.76c-.16,0-.23-.12-.24-.32s.09-.31.26-.31h1c.27,0,.48.16.68.52a1.37,1.37,0,0,0,.08.14,3.65,3.65,0,0,0,.49-.47.29.29,0,0,1,.42-.06.3.3,0,0,1,0,.44,3.29,3.29,0,0,1-.53.51.81.81,0,0,0,.18.19,2,2,0,0,0,.55-.52.28.28,0,0,1,.42-.07.29.29,0,0,1,0,.43,4,4,0,0,1-.55.54,3.54,3.54,0,0,0,.41.23l.22.13a.33.33,0,0,1,.11.45A.31.31,0,0,1,71.29,116.59Zm0,3.91c-1.08.15-2.3.23-3.67.31a.31.31,0,0,1-.37-.28.29.29,0,0,1,.32-.32s.32,0,.94-.07a5.58,5.58,0,0,0-.15-.73c0-.23.06-.35.27-.41s.32,0,.39.28.1.55.17.8l.73,0a5.23,5.23,0,0,0,.2-.81.3.3,0,0,1,.38-.26c.19.07.33.14.3.35,0,0,0,0,0,.09a3.87,3.87,0,0,1-.15.56c.29,0,.49,0,.6-.06a.29.29,0,1,1,.07.58ZM71,118.92H68.25a.48.48,0,0,1-.55-.55v-1a.48.48,0,0,1,.55-.55H71a.48.48,0,0,1,.54.55v1A.49.49,0,0,1,71,118.92Zm-.09-1.35c0-.11-.05-.16-.17-.16H68.5c-.12,0-.17,0-.17.16v.57c0,.12,0,.17.17.17h2.2c.12,0,.17,0,.17-.17ZM69.52,115a7.57,7.57,0,0,1-.8.87h1.52A7.38,7.38,0,0,1,69.52,115ZM73,120.57a.36.36,0,0,1-.38-.36.33.33,0,0,1,.38-.33c.64,0,1-.25.91-.87a2.2,2.2,0,0,0-.79-1.44.83.83,0,0,1-.24-.42,1.08,1.08,0,0,1,0-.52c0-.15.14-.44.29-.88l.31-.92c.05-.19.07-.28,0-.27h-.86a.14.14,0,0,0-.15.16v5.91a.32.32,0,1,1-.64,0v-5.91c0-.53.24-.8.72-.8h1a.76.76,0,0,1,.65.27.7.7,0,0,1,0,.65l-.19.51a9.16,9.16,0,0,0-.55,1.65,1.24,1.24,0,0,0,.18.21,2.7,2.7,0,0,1,.87,1.61C74.58,120,74.05,120.6,73,120.57Z" style="fill:#1d1d1b"/><path d="M77.38,119.34H76.06a.62.62,0,0,1-.6-.69v-4a.58.58,0,0,1,.6-.65h1.32a.6.6,0,0,1,.67.67v4A.65.65,0,0,1,77.38,119.34Zm0-4.51a.14.14,0,0,0-.14-.16h-1a.13.13,0,0,0-.15.15v1.54h1.31Zm0,2.18H76.1v1.54a.13.13,0,0,0,.15.15h1c.1,0,.15,0,.15-.15Zm3.92,4a3.72,3.72,0,0,1-1-.15.36.36,0,0,1-.31-.38.32.32,0,0,1,.32-.32l.11,0a3.07,3.07,0,0,0,.78.15c.19,0,.37-.05.37-.27v-1.58H79.48c-.19,1.46-1.45,2.14-2.81,2.41h-.11a.34.34,0,0,1,0-.68,2.77,2.77,0,0,0,2.18-1.4,1.66,1.66,0,0,0,.14-.54v-3.51a.62.62,0,0,1,.69-.68h2a.68.68,0,0,1,.75.7v5.41C82.27,120.76,81.89,121,81.33,121Zm.27-6.14a.13.13,0,0,0-.15-.14H79.64c-.09,0-.14,0-.14.13v1.09h2.1Zm0,1.73H79.5v1.24h2.1Z" style="fill:#1d1d1b"/><path d="M86.4,114.87h-1v.32h.84c.19,0,.27.11.28.28a.26.26,0,0,1-.29.25h-.83v.22a6.34,6.34,0,0,0,.85-.15.3.3,0,0,1,.38.21.32.32,0,0,1-.3.33l-.93.17v.15c0,.14-.11.2-.28.22s-.32-.05-.32-.19v-.09c-.41,0-.81.07-1.21.08a.28.28,0,0,1-.32-.26.29.29,0,0,1,.29-.3c.21,0,.5,0,.85,0l.39,0v-.3h-1a.26.26,0,0,1-.3-.25.28.28,0,0,1,.3-.28h1v-.32H83.64a.27.27,0,1,1,0-.53h1.17v-.21c0-.17.12-.26.3-.28s.3.09.3.26v.23h1a.24.24,0,0,1,.27.25A.26.26,0,0,1,86.4,114.87Zm3.69,3.34h-.62v.32c0,.3-.14.45-.43.45H84.46a.25.25,0,0,1-.26-.26.24.24,0,0,1,.26-.26h4.3s.09,0,.09-.15v-.1H83.63a.26.26,0,1,1,0-.52h5.22v-.17c0-.08,0-.09-.07-.08H84.5a.27.27,0,0,1-.28-.26.26.26,0,0,1,.28-.26H89c.29,0,.44.18.44.5v.27h.62a.26.26,0,0,1,.28.26A.26.26,0,0,1,90.09,118.21ZM84,120.69a.43.43,0,0,1-.27.11.3.3,0,0,1-.29-.39.43.43,0,0,1,.16-.26,3.52,3.52,0,0,0,.64-.76.34.34,0,0,1,.48-.13c.19.12.16.33.06.5A3.51,3.51,0,0,1,84,120.69Zm4.58,0a1.57,1.57,0,0,1-.87.19H86.57c-.79,0-1.16-.25-1.16-.81v-.66c0-.19.13-.27.33-.28s.32.09.32.28v.56a.29.29,0,0,0,.1.25c.06,0,.18.06.39.06h1.17a.77.77,0,0,0,.4-.06.39.39,0,0,0,.11-.26.3.3,0,0,1,.32-.25c.18,0,.28.09.28.26A.91.91,0,0,1,88.6,120.66Zm-1-.66a.29.29,0,0,1-.41,0s-.13-.14-.33-.39a.31.31,0,0,1,.46-.41l.11.14.21.26A.32.32,0,0,1,87.57,120Zm2.58-3.51h-1.3v.19c0,.15-.14.2-.31.21s-.29-.06-.29-.21v-.19h-1.2a.25.25,0,0,1-.27-.26.25.25,0,0,1,.27-.26h1.2v-.3h-.9a.25.25,0,0,1-.29-.25.27.27,0,0,1,.29-.27h.9v-.28H87.16a.27.27,0,0,1-.26-.28.24.24,0,0,1,.26-.25h1.09v-.23c0-.16.11-.25.29-.26s.31.1.31.26v.23H90a.23.23,0,0,1,.26.25c0,.16-.09.28-.26.28H88.85v.28h.94c.16,0,.24.12.24.28a.26.26,0,0,1-.27.24h-.91v.3h1.3a.25.25,0,0,1,.27.26A.24.24,0,0,1,90.15,116.49Zm-.35,4.08c-.14-.15-.36-.4-.68-.71-.17-.16-.39-.35-.19-.6a.35.35,0,0,1,.48,0,9,9,0,0,1,.84.88.35.35,0,0,1,0,.47A.3.3,0,0,1,89.8,120.57Z" style="fill:#1d1d1b"/><path d="M95.47,114.69H91.82a.31.31,0,1,1,0-.61h3.65a.31.31,0,1,1,0,.61Zm.07,5.94a.77.77,0,0,1-.53.13H92.22c-.44,0-.66-.17-.66-.57v-2.4a.56.56,0,0,1,.64-.63h2.85a.56.56,0,0,1,.64.62v2.38A.58.58,0,0,1,95.54,120.63Zm-.2-4a.6.6,0,0,1-.43.12H92.26a.5.5,0,0,1-.56-.56v-.69c0-.39.24-.46.57-.46h2.66a.56.56,0,0,1,.41.11.6.6,0,0,1,.11.42v.62A.61.61,0,0,1,95.34,116.63Zm-2,1.11h-1a.15.15,0,0,0-.17.17v.76h1.12Zm0,1.55H92.19V120c0,.1.06.16.19.16h.93Zm1.51-3.55c0-.08,0-.11-.12-.11H92.46c-.11,0-.14,0-.14.12V116c0,.11,0,.14.14.14h2.26c.08,0,.1,0,.1-.12Zm.23,2.17c0-.11,0-.17-.16-.17h-1v.93h1.11Zm0,1.38H93.94v.89h1c.1,0,.14,0,.14-.16Zm1.44,0a.32.32,0,0,1-.32-.35v-4.43c0-.18.12-.28.31-.29s.32.09.32.28V119A.31.31,0,0,1,96.49,119.3Zm.16,1.36c-.17-.06-.22-.22-.16-.42a.31.31,0,0,1,.4-.2,2.1,2.1,0,0,0,.64.15c.06,0,.09,0,.09-.13v-5.82a.35.35,0,0,1,.32-.39.33.33,0,0,1,.32.38v6C98.26,120.93,97.69,121,96.65,120.66Z" style="fill:#1d1d1b"/><path d="M106.07,120.58H99.62a.33.33,0,0,1-.37-.36.34.34,0,0,1,.38-.34h2.87V118h-2.19a.36.36,0,0,1-.41-.36.35.35,0,0,1,.4-.36h2.2v-1.13a.37.37,0,0,1,.73,0v1.13h2.25a.36.36,0,1,1,0,.72h-2.25v1.88h2.84c.25,0,.41.13.41.35S106.32,120.58,106.07,120.58Zm-.19-5h-6a.38.38,0,0,1-.43-.35c0-.23.16-.37.42-.37h2.61v-.66c0-.26.13-.41.36-.42s.37.15.37.4v.68h2.62a.34.34,0,0,1,.36.35A.33.33,0,0,1,105.88,115.61Z" style="fill:#1d1d1b"/><path d="M114.12,116.31H113v.48c0,.57-.17.68-.72.68h-.6V118h1.75c.47,0,.69.16.69.49v1.66c0,.56-.58.73-1.7.57a.33.33,0,0,1-.3-.4c0-.21.21-.28.42-.25a2.25,2.25,0,0,0,.78,0c.06,0,.1,0,.11-.09a.56.56,0,0,0,0-.23v-.93c0-.16-.06-.21-.23-.21h-1.55v2a.34.34,0,1,1-.67,0v-2h-1.3c-.15,0-.23.08-.23.29v1.59a.32.32,0,0,1-.32.34.29.29,0,0,1-.33-.31v-1.92a.57.57,0,0,1,.16-.48,1,1,0,0,1,.56-.14H111v-.55h-.71a.91.91,0,0,1-.59-.15.76.76,0,0,1-.16-.57v-.44H108.4v1.88a5.74,5.74,0,0,1-.47,2.31.37.37,0,0,1-.47.2.31.31,0,0,1-.16-.45,1.14,1.14,0,0,1,.06-.14,4.09,4.09,0,0,0,.42-2V115c0-.48.21-.69.69-.69h2.12V114c0-.19.13-.3.34-.3a.29.29,0,0,1,.33.3v.32h2.79c.19,0,.28.12.28.32s-.09.31-.28.31H113v.71h1.13a.31.31,0,1,1,0,.62ZM109.54,115h-1c-.13,0-.19.07-.19.21v.5h1.14Zm2.79,0h-2.14v.71h2.14Zm0,1.33h-2.14v.42c0,.12,0,.16.19.16h1.78c.11,0,.17,0,.17-.19Z" style="fill:#1d1d1b"/><path d="M118.26,118a.31.31,0,0,1-.4-.14c0-.08-.08-.19-.13-.27a2.85,2.85,0,0,1-.41,0v3a.35.35,0,0,1-.69,0v-2.94l-.68,0-.37,0c-.18,0-.29-.11-.32-.31a.31.31,0,0,1,.3-.34,1.31,1.31,0,0,0,.28,0,4.06,4.06,0,0,0,.54-.71,6.26,6.26,0,0,0-.83-.69l-.09-.07c-.13-.09-.13-.24-.06-.4a.29.29,0,0,1,.37-.13l.21.13a9.29,9.29,0,0,0,.53-1,.36.36,0,0,1,.43-.23.31.31,0,0,1,.17.43,6.9,6.9,0,0,1-.62,1.2l.3.24c.13-.2.27-.46.42-.75s.26-.32.46-.21a.27.27,0,0,1,.16.22.46.46,0,0,1,0,.3,2.22,2.22,0,0,0-.14.22,8.86,8.86,0,0,1-1,1.46,5.3,5.3,0,0,0,.84-.08c0-.06,0-.12-.08-.17a.25.25,0,0,1,.09-.37.29.29,0,0,1,.4.12,4.87,4.87,0,0,1,.48,1A.35.35,0,0,1,118.26,118Zm-2.08,2.2a.35.35,0,0,1-.39.28c-.36-.07-.29-.35-.25-.6a10.47,10.47,0,0,0,.17-1.55.31.31,0,0,1,.32-.3.28.28,0,0,1,.29.31A10.67,10.67,0,0,1,116.18,120.2Zm1.93-.39a.35.35,0,0,1-.37-.29c0-.11-.06-.27-.11-.49s-.11-.49-.13-.6a.31.31,0,0,1,.2-.38.32.32,0,0,1,.36.27c0,.08,0,.23.11.45s.12.53.16.66S118.29,119.77,118.11,119.81Zm3.89-5h-3.62a.33.33,0,0,1-.34-.34c0-.21.1-.35.3-.35H122a.32.32,0,0,1,.33.35A.35.35,0,0,1,122,114.86Zm.14,5.84h-3.81c-.19,0-.28-.13-.29-.34s.12-.32.3-.32h1.55V118.7h-1.17c-.2,0-.31-.13-.34-.34s.11-.34.31-.34h3.16a.31.31,0,0,1,.32.35.34.34,0,0,1-.37.33h-1.23V120h1.55a.31.31,0,0,1,.34.32C122.45,120.57,122.35,120.7,122.14,120.7Zm-3-2.88a.34.34,0,0,1-.43-.23,5.07,5.07,0,0,0-.39-.9.81.81,0,0,1-.14-.42,1.74,1.74,0,0,1,.17-.48,4.9,4.9,0,0,0,.27-.58.4.4,0,0,1,.18-.22.34.34,0,0,1,.28,0c.19.09.18.31.11.48s-.1.24-.17.38a.88.88,0,0,0-.15.42,2,2,0,0,0,.2.49,3.71,3.71,0,0,1,.27.61A.33.33,0,0,1,119.13,117.82Zm1.43.06a.32.32,0,0,1-.43-.23,7.27,7.27,0,0,0-.39-.9.81.81,0,0,1-.14-.41,1.41,1.41,0,0,1,.16-.49c.1-.22.19-.4.26-.58a.37.37,0,0,1,.47-.23.35.35,0,0,1,.16.2.55.55,0,0,1,0,.28l-.18.39c-.11.24-.16.36-.14.41a1.88,1.88,0,0,0,.2.51,4.28,4.28,0,0,1,.26.59A.35.35,0,0,1,120.56,117.88Zm1.42,0a.33.33,0,0,1-.43-.23,7.66,7.66,0,0,0-.39-.89.85.85,0,0,1-.15-.42,1.89,1.89,0,0,1,.18-.49c.1-.2.19-.4.26-.57a.4.4,0,0,1,.19-.23.3.3,0,0,1,.43.2.48.48,0,0,1,0,.28c0,.11-.1.24-.18.39a1,1,0,0,0-.15.41c0,.13.41.86.48,1.1A.33.33,0,0,1,122,117.86Z" style="fill:#1d1d1b"/><path d="M130.13,119.42a6.64,6.64,0,0,1-2.71-1.34h-1.16A6.14,6.14,0,0,1,125,119h1.43c.06-.17.08-.3.14-.47a.33.33,0,0,1,.33-.21.31.31,0,0,1,.28.31c0,.16-.09.22-.11.37h1.48a.6.6,0,0,1,.64.58c0,.87-.21,1.37-.78,1.4a4.12,4.12,0,0,1-1.18-.11c-.19,0-.31-.09-.32-.28a.31.31,0,0,1,.33-.31l.94.13c.26,0,.34-.23.36-.64,0-.14-.05-.22-.24-.22h-1.42c-.48.86-1.46,1.2-2.79,1.39a.3.3,0,0,1-.39-.25q0-.28.33-.33a3.48,3.48,0,0,0,2.1-.81H125c-.25,0-.39-.12-.38-.36a5.42,5.42,0,0,1-1,.38.32.32,0,0,1-.42-.2.33.33,0,0,1,.27-.38,6.49,6.49,0,0,0,1.91-.86h-1.87c-.17,0-.25-.1-.26-.27a.26.26,0,0,1,.28-.28H126a1.6,1.6,0,0,0,.27-.29h-1.63c-.34,0-.55-.18-.55-.48v-1.12c0-.38.3-.49.61-.49h.37v-.32h-1.5a.29.29,0,0,1-.32-.28c0-.17.12-.28.32-.28h1.5V114a.31.31,0,0,1,.31-.31.33.33,0,0,1,.33.31v.24h.76a.29.29,0,0,1,.32.28.29.29,0,0,1-.32.28h-.76v.32H128v-.32h-.76a.29.29,0,0,1-.32-.28c0-.17.12-.28.32-.28H128V114a.31.31,0,0,1,.31-.31.32.32,0,0,1,.33.31v.24h1.5a.29.29,0,0,1,.32.28.29.29,0,0,1-.32.28h-1.5v.32h.43a.53.53,0,0,1,.59.56v1c0,.4-.22.53-.56.53h-2.2l-.23.27h3.47a.28.28,0,0,1,.32.28.27.27,0,0,1-.3.27h-1.9a6,6,0,0,0,2,.75.32.32,0,0,1,.26.39C130.43,119.46,130.33,119.47,130.13,119.42Zm-1.08-3H124.7v.25s0,.08.16.08h4c.06,0,.11,0,.13,0s0-.08,0-.17Zm0-.67c0-.06,0-.08,0-.08s-.08,0-.18,0h-3.91c-.19,0-.23.07-.22.15V116h4.34Z" style="fill:#1d1d1b"/><path d="M0,130.05v-5.72H2.54a3.42,3.42,0,0,1,1.16.15,1.31,1.31,0,0,1,.64.55,1.62,1.62,0,0,1,.24.86,1.42,1.42,0,0,1-.4,1,2,2,0,0,1-1.22.53,2,2,0,0,1,.46.28,4.19,4.19,0,0,1,.63.77l1,1.55h-1l-.75-1.19c-.23-.34-.41-.6-.55-.79a1.51,1.51,0,0,0-.39-.38,1.14,1.14,0,0,0-.34-.15,2.12,2.12,0,0,0-.42,0H.76v2.54Zm.76-3.19H2.39a2.51,2.51,0,0,0,.81-.11.86.86,0,0,0,.44-.35.84.84,0,0,0,.16-.51.86.86,0,0,0-.3-.67,1.38,1.38,0,0,0-.93-.26H.76Z" style="fill:#1d1d1b"/><path d="M8.52,128.72l.72.09a1.78,1.78,0,0,1-.63,1,2,2,0,0,1-1.19.35A1.93,1.93,0,0,1,6,129.59,2.23,2.23,0,0,1,5.44,128,2.31,2.31,0,0,1,6,126.39a1.82,1.82,0,0,1,1.4-.58,1.77,1.77,0,0,1,1.36.57A2.26,2.26,0,0,1,9.27,128s0,.11,0,.19H6.17a1.59,1.59,0,0,0,.38,1.05,1.19,1.19,0,0,0,.87.36,1.1,1.1,0,0,0,.66-.2A1.41,1.41,0,0,0,8.52,128.72Zm-2.31-1.14H8.52a1.41,1.41,0,0,0-.26-.78,1.1,1.1,0,0,0-.87-.41,1.14,1.14,0,0,0-.82.32A1.28,1.28,0,0,0,6.21,127.58Z" style="fill:#1d1d1b"/><path d="M10.29,130.05v-3.6H9.67v-.54h.62v-.45a1.94,1.94,0,0,1,.08-.62.84.84,0,0,1,.35-.44,1.34,1.34,0,0,1,.72-.17,3.23,3.23,0,0,1,.66.07l-.11.61-.41,0a.63.63,0,0,0-.46.13.78.78,0,0,0-.13.51v.39h.81v.54H11v3.6Z" style="fill:#1d1d1b"/><path d="M15.19,128.72l.72.09a1.78,1.78,0,0,1-.63,1,2,2,0,0,1-1.19.35,1.89,1.89,0,0,1-1.44-.56,2.19,2.19,0,0,1-.54-1.57,2.31,2.31,0,0,1,.54-1.63,1.82,1.82,0,0,1,1.4-.58,1.76,1.76,0,0,1,1.36.57,2.26,2.26,0,0,1,.53,1.59,1.49,1.49,0,0,1,0,.19H12.84a1.64,1.64,0,0,0,.39,1.05,1.15,1.15,0,0,0,.86.36,1.1,1.1,0,0,0,.66-.2A1.34,1.34,0,0,0,15.19,128.72Zm-2.31-1.14H15.2a1.41,1.41,0,0,0-.27-.78,1.07,1.07,0,0,0-.87-.41,1.16,1.16,0,0,0-.82.32A1.28,1.28,0,0,0,12.88,127.58Z" style="fill:#1d1d1b"/><path d="M16.79,130.05v-4.14h.63v.63a1.71,1.71,0,0,1,.45-.59.82.82,0,0,1,.45-.14A1.36,1.36,0,0,1,19,126l-.24.65a1,1,0,0,0-.51-.15.68.68,0,0,0-.42.14.74.74,0,0,0-.26.38,2.71,2.71,0,0,0-.12.82v2.17Z" style="fill:#1d1d1b"/><path d="M19.45,130.05v-4.14h.64v.63a1.85,1.85,0,0,1,.44-.59.82.82,0,0,1,.45-.14,1.42,1.42,0,0,1,.73.23l-.25.65a1,1,0,0,0-.51-.15.68.68,0,0,0-.41.14.76.76,0,0,0-.27.38,3.07,3.07,0,0,0-.11.82v2.17Z" style="fill:#1d1d1b"/><path d="M25,128.72l.73.09a1.79,1.79,0,0,1-.64,1,1.9,1.9,0,0,1-1.18.35,1.93,1.93,0,0,1-1.45-.56,2.23,2.23,0,0,1-.53-1.57,2.31,2.31,0,0,1,.54-1.63,1.8,1.8,0,0,1,1.4-.58,1.77,1.77,0,0,1,1.36.57,2.26,2.26,0,0,1,.52,1.59v.19H22.62a1.59,1.59,0,0,0,.38,1.05,1.17,1.17,0,0,0,.87.36,1.1,1.1,0,0,0,.66-.2A1.33,1.33,0,0,0,25,128.72Zm-2.3-1.14H25a1.41,1.41,0,0,0-.26-.78,1.1,1.1,0,0,0-.87-.41,1.14,1.14,0,0,0-.82.32A1.28,1.28,0,0,0,22.66,127.58Z" style="fill:#1d1d1b"/><path d="M29.27,130.05v-.52a1.3,1.3,0,0,1-1.16.62,1.65,1.65,0,0,1-.92-.27,1.87,1.87,0,0,1-.64-.77,2.68,2.68,0,0,1-.23-1.13,2.87,2.87,0,0,1,.21-1.12,1.62,1.62,0,0,1,1.54-1,1.44,1.44,0,0,1,.67.16,1.38,1.38,0,0,1,.48.41v-2h.7v5.72ZM27,128a1.85,1.85,0,0,0,.34,1.2,1,1,0,0,0,1.58,0,1.75,1.75,0,0,0,.32-1.15,2,2,0,0,0-.33-1.25,1,1,0,0,0-.81-.4,1,1,0,0,0-.78.39A1.85,1.85,0,0,0,27,128Z" style="fill:#1d1d1b"/><path d="M33.89,130.05h-.65v-5.72H34v2a1.38,1.38,0,0,1,1.13-.56,1.66,1.66,0,0,1,.73.16,1.48,1.48,0,0,1,.56.43,2,2,0,0,1,.34.67,2.65,2.65,0,0,1,.13.85,2.39,2.39,0,0,1-.53,1.65,1.66,1.66,0,0,1-1.26.58,1.35,1.35,0,0,1-1.16-.61Zm0-2.1a2.11,2.11,0,0,0,.2,1.08,1,1,0,0,0,1.7.14,2.36,2.36,0,0,0,0-2.39,1,1,0,0,0-.78-.39,1,1,0,0,0-.8.4A1.78,1.78,0,0,0,33.89,128Z" style="fill:#1d1d1b"/><path d="M37.66,131.65l-.07-.66a1.55,1.55,0,0,0,.4.06.79.79,0,0,0,.37-.07.69.69,0,0,0,.23-.22,3,3,0,0,0,.22-.53l.06-.17-1.57-4.15h.75l.87,2.4q.16.45.3,1c.08-.32.18-.64.29-1l.88-2.41h.71l-1.58,4.22a8.08,8.08,0,0,1-.4.94,1.37,1.37,0,0,1-.42.51,1.12,1.12,0,0,1-.58.16A1.38,1.38,0,0,1,37.66,131.65Z" style="fill:#1d1d1b"/><path d="M44,130.05v-5.72h1.14l1.36,4c.13.38.22.66.27.85l.31-.92,1.37-4h1v5.72h-.73v-4.79l-1.67,4.79h-.68l-1.66-4.87v4.87Z" style="fill:#1d1d1b"/><path d="M50.3,128.82l.7-.11a1,1,0,0,0,.32.64,1.14,1.14,0,0,0,.75.22,1.12,1.12,0,0,0,.72-.2.56.56,0,0,0,.23-.46.43.43,0,0,0-.2-.37,2.58,2.58,0,0,0-.72-.24A6.49,6.49,0,0,1,51,128a1.07,1.07,0,0,1-.46-.4,1,1,0,0,1-.15-.55,1.14,1.14,0,0,1,.12-.52,1.44,1.44,0,0,1,.35-.39,1.35,1.35,0,0,1,.45-.2,2,2,0,0,1,.61-.09,2.44,2.44,0,0,1,.85.14,1.22,1.22,0,0,1,.55.38,1.55,1.55,0,0,1,.24.65l-.69.09a.75.75,0,0,0-.27-.5,1,1,0,0,0-.63-.18,1.15,1.15,0,0,0-.7.16.48.48,0,0,0-.2.38.41.41,0,0,0,.08.24.62.62,0,0,0,.27.19l.62.18a7.49,7.49,0,0,1,1,.33,1,1,0,0,1,.46.36,1.09,1.09,0,0,1,.17.61,1.17,1.17,0,0,1-.21.66A1.29,1.29,0,0,1,53,130a2.23,2.23,0,0,1-.88.17,1.92,1.92,0,0,1-1.23-.34A1.56,1.56,0,0,1,50.3,128.82Z" style="fill:#1d1d1b"/><path d="M54.78,130.05v-.8h.8v.8Z" style="fill:#1d1d1b"/><path d="M60.43,130.05V125H58.54v-.67h4.54V125H61.19v5.05Z" style="fill:#1d1d1b"/><path d="M62.64,130.05l2.2-5.72h.81L68,130.05h-.87l-.67-1.73H64.07l-.63,1.73Zm1.65-2.35h1.94l-.6-1.58c-.18-.48-.31-.88-.4-1.19a8.43,8.43,0,0,1-.31,1.09Z" style="fill:#1d1d1b"/><path d="M68.59,130.05v-5.72h.78l3,4.49v-4.49h.73v5.72h-.78l-3-4.5v4.5Z" style="fill:#1d1d1b"/><path d="M77.06,127.81v-.67h2.42v2.13a4.36,4.36,0,0,1-1.15.67,3.38,3.38,0,0,1-1.22.22,3.26,3.26,0,0,1-1.53-.36,2.38,2.38,0,0,1-1-1,3.25,3.25,0,0,1-.35-1.53,3.43,3.43,0,0,1,.35-1.56,2.34,2.34,0,0,1,1-1.08,3.2,3.2,0,0,1,1.51-.35,3.11,3.11,0,0,1,1.13.2A1.91,1.91,0,0,1,79,125a2.35,2.35,0,0,1,.44.94l-.69.19a2,2,0,0,0-.32-.69,1.26,1.26,0,0,0-.54-.4,2,2,0,0,0-.79-.15,2.23,2.23,0,0,0-.9.16,1.6,1.6,0,0,0-.61.41,1.83,1.83,0,0,0-.36.57,2.91,2.91,0,0,0-.22,1.15,2.86,2.86,0,0,0,.26,1.28,1.69,1.69,0,0,0,.77.77,2.34,2.34,0,0,0,1.07.25,2.45,2.45,0,0,0,1-.19,2.67,2.67,0,0,0,.71-.4v-1.07Z" style="fill:#1d1d1b"/><path d="M82.8,130.05v-5.72h1.14l1.36,4,.27.85.31-.92,1.37-4h1v5.72h-.73v-4.79l-1.67,4.79h-.68l-1.66-4.87v4.87Z" style="fill:#1d1d1b"/><path d="M89.4,125.14v-.81h.71v.81Zm0,4.91v-4.14h.71v4.14Z" style="fill:#1d1d1b"/><path d="M91.18,130.05v-4.14h.63v.59a1.48,1.48,0,0,1,1.32-.69,1.74,1.74,0,0,1,.69.14,1.16,1.16,0,0,1,.47.35,1.43,1.43,0,0,1,.22.52,4.76,4.76,0,0,1,0,.68v2.55h-.71v-2.52a1.78,1.78,0,0,0-.08-.64.64.64,0,0,0-.29-.34.88.88,0,0,0-.49-.13,1.12,1.12,0,0,0-.77.29,1.39,1.39,0,0,0-.33,1.08v2.26Z" style="fill:#1d1d1b"/><path d="M95.5,130.4l.68.1a.67.67,0,0,0,.24.46,1.15,1.15,0,0,0,.71.2,1.27,1.27,0,0,0,.76-.2,1,1,0,0,0,.36-.55,5.29,5.29,0,0,0,0-.9,1.45,1.45,0,0,1-1.15.54,1.58,1.58,0,0,1-1.33-.61,2.39,2.39,0,0,1-.46-1.48,2.84,2.84,0,0,1,.21-1.1,1.7,1.7,0,0,1,.62-.77,1.67,1.67,0,0,1,1-.28,1.47,1.47,0,0,1,1.21.6v-.5H99v3.58a3.27,3.27,0,0,1-.2,1.38,1.45,1.45,0,0,1-.62.63,2.14,2.14,0,0,1-1,.24,1.92,1.92,0,0,1-1.2-.34A1.1,1.1,0,0,1,95.5,130.4Zm.58-2.49a1.84,1.84,0,0,0,.32,1.19,1.08,1.08,0,0,0,1.63,0,2.18,2.18,0,0,0,0-2.32,1.06,1.06,0,0,0-.82-.39,1,1,0,0,0-.79.39A1.68,1.68,0,0,0,96.08,127.91Z" style="fill:#1d1d1b"/><path d="M103.39,130.05l-1.52-5.72h.77l.88,3.75q.14.6.24,1.17c.14-.61.23-1,.26-1.05l1.09-3.87H106l.82,2.9a16.25,16.25,0,0,1,.45,2c.07-.36.16-.77.28-1.24l.9-3.68h.76l-1.57,5.72h-.73l-1.21-4.36c-.1-.36-.16-.59-.18-.67-.06.26-.11.49-.16.67l-1.22,4.36Z" style="fill:#1d1d1b"/><path d="M112.26,129.54a2.63,2.63,0,0,1-.75.47,2.25,2.25,0,0,1-.78.14,1.46,1.46,0,0,1-1-.34,1.07,1.07,0,0,1-.37-.85,1.19,1.19,0,0,1,.14-.56,1.26,1.26,0,0,1,.36-.4,1.69,1.69,0,0,1,.51-.23,5.52,5.52,0,0,1,.63-.11,5.61,5.61,0,0,0,1.25-.24v-.18a.76.76,0,0,0-.2-.61,1.16,1.16,0,0,0-.8-.24,1.21,1.21,0,0,0-.73.18,1.05,1.05,0,0,0-.35.61l-.69-.09a1.86,1.86,0,0,1,.31-.71,1.42,1.42,0,0,1,.62-.42,2.73,2.73,0,0,1,.94-.15,2.35,2.35,0,0,1,.87.13,1.22,1.22,0,0,1,.49.31,1.33,1.33,0,0,1,.22.48,4.68,4.68,0,0,1,0,.65v.94a8,8,0,0,0,0,1.24,1.43,1.43,0,0,0,.17.49h-.73A1.46,1.46,0,0,1,112.26,129.54ZM112.2,128a4.75,4.75,0,0,1-1.15.27,2.64,2.64,0,0,0-.61.14.63.63,0,0,0-.28.23.56.56,0,0,0-.1.33.57.57,0,0,0,.22.47.87.87,0,0,0,.62.19,1.43,1.43,0,0,0,.72-.18,1.11,1.11,0,0,0,.47-.49,1.79,1.79,0,0,0,.11-.7Z" style="fill:#1d1d1b"/><path d="M114,125.14v-.81h.71v.81Zm0,4.91v-4.14h.71v4.14Z" style="fill:#1d1d1b"/><path d="M116,130.05v-.8h.8v.8a1.48,1.48,0,0,1-.15.72,1.05,1.05,0,0,1-.5.42l-.2-.3a.67.67,0,0,0,.33-.29,1.28,1.28,0,0,0,.12-.55Z" style="fill:#1d1d1b"/><path d="M120.29,130.05v-5.72h1.14l1.36,4,.27.85c.06-.21.17-.51.3-.92l1.37-4h1v5.72H125v-4.79l-1.66,4.79h-.68L121,125.18v4.87Z" style="fill:#1d1d1b"/><path d="M129.59,129.54a2.63,2.63,0,0,1-.75.47,2.19,2.19,0,0,1-.77.14,1.46,1.46,0,0,1-1-.34,1.07,1.07,0,0,1-.37-.85,1.08,1.08,0,0,1,.14-.56,1.16,1.16,0,0,1,.36-.4,1.69,1.69,0,0,1,.51-.23,4.89,4.89,0,0,1,.62-.11,5.6,5.6,0,0,0,1.26-.24v-.18a.8.8,0,0,0-.2-.61,1.51,1.51,0,0,0-1.53-.06,1,1,0,0,0-.35.61l-.69-.09a1.6,1.6,0,0,1,.31-.71,1.36,1.36,0,0,1,.62-.42,2.69,2.69,0,0,1,.94-.15,2.29,2.29,0,0,1,.86.13,1.09,1.09,0,0,1,.49.31,1.06,1.06,0,0,1,.22.48,4.27,4.27,0,0,1,0,.65v.94a10.46,10.46,0,0,0,0,1.24,1.45,1.45,0,0,0,.18.49h-.74A1.46,1.46,0,0,1,129.59,129.54Zm-.05-1.57a4.75,4.75,0,0,1-1.15.27,2.76,2.76,0,0,0-.62.14.62.62,0,0,0-.37.56.59.59,0,0,0,.21.47.89.89,0,0,0,.62.19,1.46,1.46,0,0,0,.73-.18,1.09,1.09,0,0,0,.46-.49,1.6,1.6,0,0,0,.12-.7Z" style="fill:#1d1d1b"/><path d="M131.34,130.05v-4.14H132v.59a1.48,1.48,0,0,1,1.32-.69,1.74,1.74,0,0,1,.69.14,1.16,1.16,0,0,1,.47.35,1.43,1.43,0,0,1,.22.52,4.76,4.76,0,0,1,0,.68v2.55H134v-2.52a1.78,1.78,0,0,0-.08-.64.64.64,0,0,0-.29-.34.88.88,0,0,0-.49-.13,1.12,1.12,0,0,0-.77.29,1.39,1.39,0,0,0-.33,1.08v2.26Z" style="fill:#1d1d1b"/><path d="M138.48,130.05v-.52a1.3,1.3,0,0,1-1.16.62,1.68,1.68,0,0,1-.92-.27,1.87,1.87,0,0,1-.64-.77,2.68,2.68,0,0,1-.23-1.13,2.87,2.87,0,0,1,.21-1.12,1.62,1.62,0,0,1,.62-.78,1.66,1.66,0,0,1,.93-.27,1.4,1.4,0,0,1,.66.16,1.38,1.38,0,0,1,.48.41v-2h.7v5.72ZM136.25,128a1.85,1.85,0,0,0,.34,1.2,1,1,0,0,0,1.58,0,1.75,1.75,0,0,0,.32-1.15,2,2,0,0,0-.33-1.25,1,1,0,0,0-.81-.4,1,1,0,0,0-.78.39A1.85,1.85,0,0,0,136.25,128Z" style="fill:#1d1d1b"/><path d="M140.2,131.65l-.08-.66a1.69,1.69,0,0,0,.41.06.79.79,0,0,0,.37-.07.69.69,0,0,0,.23-.22,3,3,0,0,0,.22-.53l.06-.17-1.57-4.15h.75l.87,2.4q.16.45.3,1a8,8,0,0,1,.29-1l.88-2.41h.71l-1.58,4.22a8.08,8.08,0,0,1-.4.94,1.3,1.3,0,0,1-.43.51,1.06,1.06,0,0,1-.57.16A1.38,1.38,0,0,1,140.2,131.65Z" style="fill:#1d1d1b"/><path d="M143.82,130.05v-.8h.8v.8a1.48,1.48,0,0,1-.15.72,1.05,1.05,0,0,1-.5.42l-.19-.3a.67.67,0,0,0,.33-.29,1.3,1.3,0,0,0,.11-.55Z" style="fill:#1d1d1b"/><path d="M149.81,130.05l-2.22-5.72h.82l1.49,4.16c.12.33.22.64.3.94.09-.32.19-.63.31-.94l1.55-4.16h.77l-2.24,5.72Z" style="fill:#1d1d1b"/><path d="M153.28,125.14v-.81h.7v.81Zm0,4.91v-4.14h.7v4.14Z" style="fill:#1d1d1b"/><path d="M157.76,128.54l.69.09a1.77,1.77,0,0,1-.58,1.11,1.68,1.68,0,0,1-1.14.41,1.78,1.78,0,0,1-1.37-.56,2.22,2.22,0,0,1-.52-1.59,2.89,2.89,0,0,1,.22-1.18,1.58,1.58,0,0,1,.68-.76,2.08,2.08,0,0,1,1-.25,1.79,1.79,0,0,1,1.11.34,1.62,1.62,0,0,1,.55,1l-.69.1a1.13,1.13,0,0,0-.34-.63.91.91,0,0,0-.6-.21,1.12,1.12,0,0,0-.87.38,1.84,1.84,0,0,0-.33,1.21,1.88,1.88,0,0,0,.32,1.21,1.07,1.07,0,0,0,.84.38,1,1,0,0,0,.69-.25A1.29,1.29,0,0,0,157.76,128.54Z" style="fill:#1d1d1b"/><path d="M161.89,128.72l.73.09a1.79,1.79,0,0,1-.64,1,2.16,2.16,0,0,1-2.63-.21,2.23,2.23,0,0,1-.53-1.57,2.31,2.31,0,0,1,.54-1.63,1.8,1.8,0,0,1,1.4-.58,1.77,1.77,0,0,1,1.36.57,2.26,2.26,0,0,1,.52,1.59v.19h-3.09a1.59,1.59,0,0,0,.38,1.05,1.17,1.17,0,0,0,.87.36,1.1,1.1,0,0,0,.66-.2A1.33,1.33,0,0,0,161.89,128.72Zm-2.3-1.14h2.31a1.41,1.41,0,0,0-.26-.78,1.1,1.1,0,0,0-.87-.41,1.14,1.14,0,0,0-.82.32A1.28,1.28,0,0,0,159.59,127.58Z" style="fill:#1d1d1b"/><path d="M163.23,128.34v-.71h2.16v.71Z" style="fill:#1d1d1b"/><path d="M170.34,128.05l.76.19a2.5,2.5,0,0,1-.86,1.42,2.32,2.32,0,0,1-1.51.49,2.75,2.75,0,0,1-1.51-.37,2.43,2.43,0,0,1-.88-1.1,3.87,3.87,0,0,1-.3-1.53,3.32,3.32,0,0,1,.34-1.56,2.31,2.31,0,0,1,1-1,2.87,2.87,0,0,1,1.39-.35,2.36,2.36,0,0,1,1.45.44,2.23,2.23,0,0,1,.81,1.23l-.74.17a1.87,1.87,0,0,0-.58-.91,1.53,1.53,0,0,0-1-.28,1.82,1.82,0,0,0-1.11.32,1.69,1.69,0,0,0-.62.84,3.47,3.47,0,0,0-.18,1.1,3.54,3.54,0,0,0,.21,1.28,1.59,1.59,0,0,0,.67.81,1.84,1.84,0,0,0,1,.27,1.68,1.68,0,0,0,1.08-.36A1.9,1.9,0,0,0,170.34,128.05Z" style="fill:#1d1d1b"/><path d="M172,130.05v-5.72h.7v2a1.57,1.57,0,0,1,1.24-.57,1.69,1.69,0,0,1,.8.18,1.1,1.1,0,0,1,.49.51,2.27,2.27,0,0,1,.14.93v2.62h-.7v-2.62a1.09,1.09,0,0,0-.23-.77.84.84,0,0,0-.64-.24,1.11,1.11,0,0,0-.59.16.87.87,0,0,0-.39.44,2,2,0,0,0-.12.77v2.26Z" style="fill:#1d1d1b"/><path d="M179.1,129.54a2.63,2.63,0,0,1-.75.47,2.21,2.21,0,0,1-.78.14,1.49,1.49,0,0,1-1-.34,1.1,1.1,0,0,1-.36-.85,1.18,1.18,0,0,1,.13-.56,1.29,1.29,0,0,1,.37-.4,1.75,1.75,0,0,1,.5-.23,5.52,5.52,0,0,1,.63-.11,5.49,5.49,0,0,0,1.25-.24,1.62,1.62,0,0,0,0-.18.8.8,0,0,0-.2-.61,1.18,1.18,0,0,0-.8-.24,1.24,1.24,0,0,0-.74.18,1.11,1.11,0,0,0-.35.61l-.68-.09a1.6,1.6,0,0,1,.31-.71,1.36,1.36,0,0,1,.62-.42,2.69,2.69,0,0,1,.94-.15,2.32,2.32,0,0,1,.86.13,1.15,1.15,0,0,1,.49.31,1.18,1.18,0,0,1,.22.48,4.68,4.68,0,0,1,0,.65v.94a9.67,9.67,0,0,0,.05,1.24,1.45,1.45,0,0,0,.18.49h-.74A1.46,1.46,0,0,1,179.1,129.54ZM179,128a4.52,4.52,0,0,1-1.15.27,2.78,2.78,0,0,0-.61.14.58.58,0,0,0-.37.56.59.59,0,0,0,.21.47.89.89,0,0,0,.62.19,1.43,1.43,0,0,0,.72-.18,1.06,1.06,0,0,0,.47-.49,1.79,1.79,0,0,0,.11-.7Z" style="fill:#1d1d1b"/><path d="M180.85,125.14v-.81h.7v.81Zm0,4.91v-4.14h.7v4.14Z" style="fill:#1d1d1b"/><path d="M182.61,130.05v-4.14h.64v.63a1.85,1.85,0,0,1,.44-.59.82.82,0,0,1,.45-.14,1.42,1.42,0,0,1,.73.23l-.25.65a1,1,0,0,0-.51-.15.68.68,0,0,0-.41.14.76.76,0,0,0-.27.38,3.07,3.07,0,0,0-.11.82v2.17Z" style="fill:#1d1d1b"/><path d="M185.29,130.05v-4.14h.62v.58a1.53,1.53,0,0,1,.52-.49,1.43,1.43,0,0,1,.74-.19,1.45,1.45,0,0,1,.76.19,1.06,1.06,0,0,1,.41.54,1.49,1.49,0,0,1,1.28-.73,1.28,1.28,0,0,1,.95.34,1.44,1.44,0,0,1,.34,1.06v2.84h-.7v-2.61a2.15,2.15,0,0,0-.07-.61.59.59,0,0,0-.25-.29.74.74,0,0,0-.42-.12,1,1,0,0,0-.73.29,1.31,1.31,0,0,0-.29.93v2.41h-.7v-2.69a1.2,1.2,0,0,0-.17-.7.65.65,0,0,0-.56-.24,1,1,0,0,0-.55.16.9.9,0,0,0-.37.46,2.68,2.68,0,0,0-.11.86v2.15Z" style="fill:#1d1d1b"/><path d="M194.66,129.54a2.54,2.54,0,0,1-.76.47,2.15,2.15,0,0,1-.77.14,1.46,1.46,0,0,1-1-.34,1.07,1.07,0,0,1-.37-.85,1.19,1.19,0,0,1,.14-.56,1.16,1.16,0,0,1,.36-.4,1.69,1.69,0,0,1,.51-.23,5.69,5.69,0,0,1,.62-.11,5.6,5.6,0,0,0,1.26-.24v-.18a.76.76,0,0,0-.2-.61,1.16,1.16,0,0,0-.8-.24,1.21,1.21,0,0,0-.73.18,1,1,0,0,0-.35.61l-.69-.09a1.72,1.72,0,0,1,.31-.71,1.36,1.36,0,0,1,.62-.42,2.73,2.73,0,0,1,.94-.15,2.38,2.38,0,0,1,.87.13,1.11,1.11,0,0,1,.48.31,1.06,1.06,0,0,1,.22.48,3.25,3.25,0,0,1,0,.65v.94a10.46,10.46,0,0,0,0,1.24,1.45,1.45,0,0,0,.18.49h-.73A1.27,1.27,0,0,1,194.66,129.54ZM194.6,128a4.75,4.75,0,0,1-1.15.27,2.64,2.64,0,0,0-.61.14.58.58,0,0,0-.28.23.56.56,0,0,0-.1.33.59.59,0,0,0,.21.47.91.91,0,0,0,.63.19,1.43,1.43,0,0,0,.72-.18,1,1,0,0,0,.46-.49,1.6,1.6,0,0,0,.12-.7Z" style="fill:#1d1d1b"/><path d="M196.4,130.05v-4.14H197v.59a1.5,1.5,0,0,1,1.32-.69,1.74,1.74,0,0,1,.69.14,1.1,1.1,0,0,1,.47.35,1.28,1.28,0,0,1,.22.52,3.61,3.61,0,0,1,0,.68v2.55h-.7v-2.52a1.74,1.74,0,0,0-.09-.64.64.64,0,0,0-.29-.34.88.88,0,0,0-.49-.13,1.13,1.13,0,0,0-.77.29,1.39,1.39,0,0,0-.33,1.08v2.26Z" style="fill:#1d1d1b"/><polygon points="39.54 6.71 39.54 0 28.98 0 28.98 6.71 31.09 6.71 31.09 10.93 28.98 10.93 28.98 23.59 31.09 23.59 31.09 32.02 28.98 32.02 28.98 104.58 39.54 104.58 39.54 32.02 32.15 32.02 32.15 23.59 39.54 23.59 39.54 10.93 32.15 10.93 32.15 6.71 39.54 6.71" style="fill:#583a28"/><path d="M29,100.58H39.54V94.34a2,2,0,0,0-.47-1A3.14,3.14,0,0,0,38,92.48a3.43,3.43,0,0,0-1.5-.33,2.85,2.85,0,0,0-1.76.56,2.88,2.88,0,0,0-.87,1.1,2.49,2.49,0,0,0-.78-.74,2.74,2.74,0,0,0-2.95,0c-.49.3-1.15.84-1.15,1.25Zm5.89-4.11A5.18,5.18,0,0,1,35,95a1.42,1.42,0,0,1,.53-.74,1.52,1.52,0,0,1,.88-.26,1.61,1.61,0,0,1,.78.18,1.32,1.32,0,0,1,.5.46,2.08,2.08,0,0,1,.26.74,6.21,6.21,0,0,1,0,.93v2.44H34.87Zm-4.38.37a6,6,0,0,1,.14-1.54,1,1,0,0,1,.43-.58,1.37,1.37,0,0,1,.78-.22,1.26,1.26,0,0,1,.75.22,1.27,1.27,0,0,1,.43.68,5,5,0,0,1,.11,1.27v2H30.49Z" style="fill:#fff"/><path d="M31.09,85.82H29V83.71h2.11Zm-1.58-.53h1V84.24h-1Zm10,.53H33.2V83.71h6.34Zm-5.81-.53H39V84.24H33.73Z" style="fill:#fff"/><path d="M31.09,63.67H29V61.56h2.11Zm-1.58-.53h1v-1h-1Zm10,.53H33.2V61.56h6.34Zm-5.81-.53H39v-1H33.73Z" style="fill:#fff"/><path d="M39.54,78.44H29V76.33H39.54Zm-10-.53H39V76.85H29.51Z" style="fill:#fff"/><path d="M39.54,71.05H29V68.94H39.54Zm-10-.52H39V69.47H29.51Z" style="fill:#fff"/><path d="M39.54,52.06a4.23,4.23,0,1,1-4.23-4.21,4.24,4.24,0,0,1,4.23,4.21" style="fill:#ffed00"/><path d="M33.88,37.43a3,3,0,0,1,1-.13h4.62V35.19h-5a6.75,6.75,0,0,0-1.34.09,2.61,2.61,0,0,0-1.08.49,2.41,2.41,0,0,0-.74,1.07,4,4,0,0,0-.27,1.49,3.6,3.6,0,0,0,.62,2.13h-.62v2.11h8.45V40.46H35.37A2.23,2.23,0,0,1,33.65,40a1.92,1.92,0,0,1-.45-1.28,1.56,1.56,0,0,1,.2-.8,1,1,0,0,1,.48-.44M33,37.6a2,2,0,0,0-.27,1.07,2.45,2.45,0,0,0,.57,1.62,2.65,2.65,0,0,0,2.12.7H39v1.06H31.62V41h1.11l-.59-.83a3.07,3.07,0,0,1-.52-1.83,3.58,3.58,0,0,1,.23-1.3,1.87,1.87,0,0,1,.58-.84,2,2,0,0,1,.86-.4,6.72,6.72,0,0,1,1.23-.07H39v1.05H34.92a3.57,3.57,0,0,0-1.24.17,1.46,1.46,0,0,0-.73.66" style="fill:#fff"/><path d="M144.3,10.7a.64.64,0,0,0,.41,1.05h25.47c.95,0,.47,1.57-.2,1.57H112.15c-.67,0-1-1.57-.13-1.57h26.62a.62.62,0,0,0,.54-.82,84.56,84.56,0,0,0-4.72-10c-.2-.44.07-1,.54-.89,3.84.52,8.16,1,10.58,4.56a5.14,5.14,0,0,1-1.28,6.13M124.55,44.29,133.32,49a.68.68,0,0,1,.2.9c-1.28,2-3.44,1.5-3.84,2.1-4.05,6.21-9.91,10.17-16,14.13a.6.6,0,0,1-.74-.89c4.11-6.29,8.63-13,10.85-20.57.14-.3.47-.53.74-.38M162.3,18.78v23a.63.63,0,0,1-.48.6,9.79,9.79,0,0,1-7.48-2.17c-.4-.3-.06-1.2-.74-1.2h-6.74a.57.57,0,0,0-.54.6V60.22c-.06,6.74-6.6,8.83-11.66,9.13a.56.56,0,0,1-.54-.6c-.33-4.49-1.82-6.28-5.79-7.78-.74-.3-.61-1.27.07-1.27l6.33.3c2.36.08,3.24-1.5,3.24-4V39.58a.62.62,0,0,0-.54-.6h-8.16c-.74,0-.34.9-.74,1.2a11,11,0,0,1-7.35,2,.57.57,0,0,1-.54-.6V19a.67.67,0,0,1,.21-.45c.33-.37,2.15.22,2.63.37a22.89,22.89,0,0,1,5.25,2.32h25.48c.4,0,6.47-2.62,7.34-3a.56.56,0,0,1,.75.52m-33,4.12a.56.56,0,0,0-.54.6V36.74a.61.61,0,0,0,.54.59H153.6a.61.61,0,0,0,.54-.59V23.5a.56.56,0,0,0-.54-.6ZM162.7,65.39c-2.56-5.46-8.15-13.47-11.86-18.18-.34-.45.07-1.12.54-1a37.78,37.78,0,0,1,5.79,2.09c3.64,1.72,8.5,4.79,10.45,8.15,2.29,4.12-1,7.41-4.18,9.13a.51.51,0,0,1-.74-.22" style="fill:#583a28"/><path d="M60.23,22.74c-.66,0-.66-1.19-.06-1.19H71.53c.3,0,.54-.45.42-.83-.66-2.84-1.56-5.83-2.46-8.6A.64.64,0,0,1,70,11.3c2.28.52,5,1,6.73,2.62,1.92,1.87,1.26,4.71-.24,6.58-.3.37-.12,1.05.3,1.05H87.2a.59.59,0,0,0,.48-.6l.72-9.8a.57.57,0,0,1,.66-.53l7.27,3c1,.37-.18,1.94-1.74,2.09-.36,0-4.56,4.19-5.22,4.71-.37.38-.13,1.13.3,1.13H105.5c.6,0,.6,1.19-.06,1.19Zm0,39.73a33.33,33.33,0,0,0,7-10.93.43.43,0,0,1,.84.08c1.26,4.49,2.59,13.24-1.86,15.34-3.24,1.57-5.46.15-6.06-4a.53.53,0,0,1,.12-.52m4-52.37c-.66,0-.66-1.27-.06-1.27h15.4a.55.55,0,0,0,.42-.75C79.22,5.61,78.38,3.22,77.48.9c-.18-.38.06-.9.42-.9,2.46,0,5.64.3,7.56,2.32C87,4,86.66,6,85.7,7.93c-.24.37,0,.9.36.9h16.38c.66,0,.6,1.27-.06,1.27Zm37.43,16.31v20.5a.58.58,0,0,1-.48.59,10.85,10.85,0,0,1-6.24-1.34c-.54-.38.06-1.72-.78-1.72H71.71c-1,0-.12,1.79-.78,2.17a11.58,11.58,0,0,1-6.24,1.27c-.24,0-.42-.3-.42-.6V26.18a.54.54,0,0,1,.54-.59,15.45,15.45,0,0,1,6.3,2.16c.3.23,21.26.08,23.42.08.42,0,5.64-1.8,6.48-2,.3-.07.6.15.6.6M71.76,49.9a.59.59,0,0,1,.54-.6l8.16,1.42c.78.15.3,1.2-.12,1.65C78.78,54,78.9,51,79,58.35c.06,1.87,1.08,2.4,2.4,2.4h5.33c3.13-.08,4.87-4.79,5.83-7.86a.42.42,0,0,1,.54-.37c.42.07.36.6.42,1,.6,7.85,3.54,7.4,3.36,8.6-.6,4.11-3.42,6.36-6.66,6.36H78.6c-4.56,0-6.84-.6-6.84-6.89Zm-.05-20.72c-.3,0-.48.22-.48.6v5.31c0,.37.18.6.48.6h22.4c.3,0,.48-.23.48-.6V29.78c0-.38-.18-.6-.48-.6Zm0,7.78a.55.55,0,0,0-.48.6v5a.55.55,0,0,0,.48.6h22.4a.55.55,0,0,0,.48-.6v-5a.55.55,0,0,0-.48-.6ZM85,58.28a58,58,0,0,0-4.69-11.52c-.24-.45,0-1,.42-1,3,.45,9,1.72,9.49,6.29.36,3.66-2.28,5.38-4.56,6.51a.47.47,0,0,1-.66-.3m16.42,7.1a90,90,0,0,0-5.41-15c-.24-.45.12-1,.54-.89a21.65,21.65,0,0,1,6.79,3.59c5.7,4.56,3.78,9.42-1.26,12.64a.45.45,0,0,1-.66-.38" style="fill:#583a28"/><path d="M55.36.33,66.18,3.7a.7.7,0,0,1,.32.9C65.4,7,63.41,6.17,63.15,7a58.84,58.84,0,0,1-5.54,13,.61.61,0,0,0,.26.9l3,.74a.74.74,0,0,1,.38.83c-.7,2.31-2.31,2.17-2.31,3L59,66.31a.55.55,0,0,1-.19.45,10.9,10.9,0,0,1-7.47,2.77.61.61,0,0,1-.51-.6V32.65c0-.6-.65-.82-.9-.45-1.68,2.39-3.41,4.71-5.15,6.88-.39.53-1.09-.07-.84-.67C48.67,27,53.11,13.42,54.72.78a.45.45,0,0,1,.64-.45" style="fill:#583a28"/><path d="M53.1,89.17a5.7,5.7,0,0,1-3,2.52l-.87-.84a6.53,6.53,0,0,0,3-2.28ZM57,80.76a4.29,4.29,0,0,0,1.54-1.84l1.07.53a3.51,3.51,0,0,1-.93,1.31h3.62v1.09H58.67l.44.29A4.41,4.41,0,0,1,57.9,84c.35,0,1-.12,1.65-.21a7.9,7.9,0,0,0,.56-1.13l1,.48a8.37,8.37,0,0,1-2.66,3.55c.51,0,1.43-.13,2.13-.25a3.71,3.71,0,0,0-.76-.57l1-.5a5.26,5.26,0,0,1,1.81,2.43l-1.07.49a2.35,2.35,0,0,0-.27-.83c-1.27.09-2.57.27-3.91.48l-.65.1-.48-.72,0,.24-1.06.38A1.69,1.69,0,0,0,55,87.4c-1.23.25-2.74.4-4.15.71l-.6-.89A13.07,13.07,0,0,0,52.94,85c-.83.06-1.81.21-2.42.3L50,84.43a6.11,6.11,0,0,0,2.64-2.56H49.75V80.76h4.3a4.3,4.3,0,0,0-1.54-1.08l1.08-.76a4,4,0,0,1,1.79,1.84Zm-.87,6.33A16.21,16.21,0,0,0,58.69,85c-.8.06-1.6.21-2.36.33l-.51-.87a5.49,5.49,0,0,0,2.08-2.57H53.27l.45.29A4.29,4.29,0,0,1,52.3,84c.46,0,1.1,0,1.53-.1a11.13,11.13,0,0,0,.78-1.37l1,.55c-.15,1.15-1.85,2.69-2.86,3.58.33,0,1.13-.12,1.73-.21a4,4,0,0,0-.69-.56l1-.47a4.08,4.08,0,0,1,1.36,1.65m1.64,4c.3,0,.47-.25.59-.54a5.31,5.31,0,0,0,.2-1.12l1.07.58a6.66,6.66,0,0,1-.29,1.22,1.12,1.12,0,0,1-1.16.9H54.73a1.32,1.32,0,0,1-1.2-.78,3,3,0,0,1-.13-1.28v-1.6h1.2v2.17c.12.33.19.45.63.45Zm-2-3.26a3.74,3.74,0,0,1,2.1,1.8l-.88.6a4.26,4.26,0,0,0-2.11-1.72ZM62,91.71a6.14,6.14,0,0,0-2.41-2.25l-.3-.14.83-.71A7.26,7.26,0,0,1,62.94,91Z" style="fill:#583a28"/><path d="M70.19,85.49V84.4h5.6V83.5H71.44V82.45h4.37v-.8H70.64v-1.1l3.52,0a6.1,6.1,0,0,0-1.33-.94l1-.6a4.82,4.82,0,0,1,1.64,1.52h1.77A4.56,4.56,0,0,0,78.49,79l1.09.51a7.37,7.37,0,0,1-.75,1l3.26,0v1.1H77v.81h4.25v1.06H77v.9h5.58v1.1H79.14l.55.19a9.67,9.67,0,0,1-.67,1l3.74,0v1.1H69.9v-1.1l4.13,0a6,6,0,0,0-1-.82l.51-.33Zm1.66,7.23V88.39h9v4.25H79.76v-.87H73v.93Zm1.15-2h6.75V89.49H73Zm1.34-5.19a5.54,5.54,0,0,1,.94,1.18l2.4,0a2.14,2.14,0,0,0,.8-1.16Z" style="fill:#583a28"/><path d="M100.4,89.93H97.35V91H103v1.1H90.8V91h5.42V89.93H93.38v-.86a10.55,10.55,0,0,1-2.87,1.28,8.5,8.5,0,0,1-.74-1,7.55,7.55,0,0,0,3.85-1.83h-3l0-1.07H93l0-5H90.93V80.4H93V79.16h1.15V80.4h5.24V79.13h1.11V80.4h2.12v1h-2.09v5l2.41,0,0,1.07h-2.84A7.49,7.49,0,0,0,104,89.17l-.68,1a12.57,12.57,0,0,1-2.94-1.27Zm-.11-1a5.33,5.33,0,0,1-1.46-1.42H94.92a4.39,4.39,0,0,1-1.32,1.39l2.62,0V87.78l1.14,0v1.08Zm-6.11-6.54H99.4l0-.92H94.18Zm5.24,2v-1l-5.24,0v1Zm0,2.07,0-1H94.18v1Z" style="fill:#583a28"/><path d="M118,79.78a12.61,12.61,0,0,0,6.16,4.44l-.92.94a11.29,11.29,0,0,1-2.63-1.33v.62l-2.74,0v1.75H122l0,1.09h-4.12v3.63l5.41,0V92h-12v-1.1l5.42,0V87.27h-4.17v-1.1h4.18V84.43l-2.75,0V83.8a22.51,22.51,0,0,1-2.75,1.51l-.77-1a14.63,14.63,0,0,0,6.79-5.6l.94.63Zm-3.2,10.89A6.91,6.91,0,0,0,113,88l1-.48a7.67,7.67,0,0,1,1.81,2.64Zm5.12-7.33a15.73,15.73,0,0,1-2.6-2.62,13.7,13.7,0,0,1-2.67,2.59Zm-1.51,6.78a6.84,6.84,0,0,0,2.18-2.7l.93.66a7.28,7.28,0,0,1-2.09,2.75Z" style="fill:#583a28"/><path d="M49.21,98.27H50.9a4.36,4.36,0,0,1,.75,0,1,1,0,0,1,.45.19,1.12,1.12,0,0,1,.32.39,1.16,1.16,0,0,1,.13.56,1.12,1.12,0,0,1-.16.6,1,1,0,0,1-.43.42,1.11,1.11,0,0,1,.59.42,1.24,1.24,0,0,1,.21.71,1.51,1.51,0,0,1-.13.63,1.41,1.41,0,0,1-.37.49,1.2,1.2,0,0,1-.58.22,10.11,10.11,0,0,1-1,0H49.21Zm.85.78v1.09h1.19a.55.55,0,0,0,.34-.17.51.51,0,0,0,.13-.37.54.54,0,0,0-.11-.35.44.44,0,0,0-.32-.17c-.09,0-.33,0-.73,0Zm0,1.88v1.26h.8a3.23,3.23,0,0,0,.58,0,.59.59,0,0,0,.32-.19.68.68,0,0,0,.12-.4.69.69,0,0,0-.1-.36.54.54,0,0,0-.27-.22,2.82,2.82,0,0,0-.75-.06Z" style="fill:#583a28"/><path d="M54.51,98.27h.81v.84h-.81Zm0,1.3h.81V103h-.81Z" style="fill:#583a28"/><rect x="57.18" y="98.27" width="0.81" height="4.71" style="fill:#583a28"/><rect x="59.86" y="98.27" width="0.81" height="4.71" style="fill:#583a28"/><path d="M62.54,98.27h.81v.84h-.81Zm0,1.3h.81V103h-.81Z" style="fill:#583a28"/><path d="M65,101.23a2,2,0,0,1,.2-.87,1.48,1.48,0,0,1,1.39-.87,1.48,1.48,0,0,1,1.14.5,2.06,2.06,0,0,1,0,2.56,1.43,1.43,0,0,1-1.13.51,1.62,1.62,0,0,1-.8-.21,1.44,1.44,0,0,1-.59-.63,2.27,2.27,0,0,1-.2-1m.84,0a1.25,1.25,0,0,0,.21.78.68.68,0,0,0,.54.27.65.65,0,0,0,.53-.27,1.19,1.19,0,0,0,.22-.78,1.16,1.16,0,0,0-.22-.77.65.65,0,0,0-.53-.27.68.68,0,0,0-.54.27,1.24,1.24,0,0,0-.21.77" style="fill:#583a28"/><path d="M72.36,103h-.81v-1.74a3.37,3.37,0,0,0,0-.72.56.56,0,0,0-.17-.25.45.45,0,0,0-.28-.09.58.58,0,0,0-.38.13.67.67,0,0,0-.23.34,3.38,3.38,0,0,0-.06.79V103h-.82V99.57h.76v.5a1.2,1.2,0,0,1,1-.58,1.1,1.1,0,0,1,.49.11.85.85,0,0,1,.34.27,1.06,1.06,0,0,1,.16.38,3.24,3.24,0,0,1,0,.61Z" style="fill:#583a28"/><path d="M79.79,101.47l.83.29a2.14,2.14,0,0,1-.64,1.15,1.85,1.85,0,0,1-2.51-.27,2.63,2.63,0,0,1-.54-1.75,2.77,2.77,0,0,1,.54-1.83,1.81,1.81,0,0,1,1.44-.65,1.65,1.65,0,0,1,1.26.51,1.88,1.88,0,0,1,.44.87l-.85.22a1,1,0,0,0-.31-.58.86.86,0,0,0-.58-.21.94.94,0,0,0-.77.38,2,2,0,0,0-.29,1.22,2.11,2.11,0,0,0,.29,1.27.9.9,0,0,0,.75.38.82.82,0,0,0,.59-.24,1.5,1.5,0,0,0,.35-.76" style="fill:#583a28"/><path d="M83.19,98.49v1.73a1.15,1.15,0,0,1,.94-.51,1.06,1.06,0,0,1,.5.12.76.76,0,0,1,.34.29,1.09,1.09,0,0,1,.16.4,3.82,3.82,0,0,1,0,.68v2h-.81v-1.8a2.86,2.86,0,0,0,0-.68.39.39,0,0,0-.16-.23.48.48,0,0,0-.29-.09.67.67,0,0,0-.37.11.64.64,0,0,0-.23.33,2.16,2.16,0,0,0-.07.65v1.71h-.81V98.49Z" style="fill:#583a28"/><path d="M87.63,100.83l-.73-.15a1.28,1.28,0,0,1,.42-.73,1.47,1.47,0,0,1,.91-.24,1.87,1.87,0,0,1,.81.14.88.88,0,0,1,.37.37,2,2,0,0,1,.11.8v1.06a3.57,3.57,0,0,0,0,.66,1.89,1.89,0,0,0,.15.46h-.81c0-.06,0-.15-.08-.27a.29.29,0,0,0,0-.1,1.24,1.24,0,0,1-.44.33,1.13,1.13,0,0,1-.51.12,1,1,0,0,1-.89-1.53.91.91,0,0,1,.35-.35,2.38,2.38,0,0,1,.64-.21,4.13,4.13,0,0,0,.79-.22v-.09a.54.54,0,0,0-.11-.37.69.69,0,0,0-.44-.11.49.49,0,0,0-.34.1.64.64,0,0,0-.2.33m1.09.73a3.6,3.6,0,0,1-.49.14,1.15,1.15,0,0,0-.45.16.4.4,0,0,0-.16.31.49.49,0,0,0,.13.33.44.44,0,0,0,.33.14.67.67,0,0,0,.42-.16.6.6,0,0,0,.19-.3,2.08,2.08,0,0,0,0-.44Z" style="fill:#583a28"/><path d="M92.13,103.2h-.81V99.79h.75v.48a1.42,1.42,0,0,1,.35-.45.61.61,0,0,1,.35-.11,1,1,0,0,1,.54.17l-.26.79a.64.64,0,0,0-.38-.15.43.43,0,0,0-.29.1.71.71,0,0,0-.18.38,5.58,5.58,0,0,0-.07,1.15Z" style="fill:#583a28"/><path d="M94.69,98.49h.81v.83h-.81Zm0,1.3h.81v3.41h-.81Z" style="fill:#583a28"/><path d="M98.77,99.79v.72h-.55v1.37a4.78,4.78,0,0,0,0,.49.26.26,0,0,0,.07.11.24.24,0,0,0,.14,0,1,1,0,0,0,.33-.09l.07.7a1.51,1.51,0,0,1-.65.14.86.86,0,0,1-.39-.09.55.55,0,0,1-.26-.21.76.76,0,0,1-.11-.35,4.23,4.23,0,0,1,0-.64v-1.48H97v-.72h.37v-.68l.82-.53v1.21Z" style="fill:#583a28"/><path d="M100,99.79h.87l.73,2.42.72-2.42h.84l-1.09,3.28-.19.59a2.68,2.68,0,0,1-.2.46,1,1,0,0,1-.23.26,1,1,0,0,1-.31.15,1.32,1.32,0,0,1-.41,0,1.75,1.75,0,0,1-.46,0l-.07-.71a1.42,1.42,0,0,0,.34,0,.49.49,0,0,0,.42-.18,1.36,1.36,0,0,0,.21-.47Z" style="fill:#583a28"/><polygon points="107.38 103.2 107.38 98.49 110.28 98.49 110.28 99.29 108.23 99.29 108.23 100.4 110 100.4 110 101.2 108.23 101.2 108.23 103.2 107.38 103.2" style="fill:#583a28"/><path d="M114,103.2v-.51a1.21,1.21,0,0,1-.44.43,1.17,1.17,0,0,1-.57.16,1.07,1.07,0,0,1-.56-.15.92.92,0,0,1-.35-.43A1.91,1.91,0,0,1,112,102V99.79h.81v1.56a5.14,5.14,0,0,0,0,.89.45.45,0,0,0,.17.25.44.44,0,0,0,.3.1.56.56,0,0,0,.37-.13.64.64,0,0,0,.23-.31,4.17,4.17,0,0,0,.06-.92V99.79h.81v3.41Z" style="fill:#583a28"/><path d="M119.46,103.2h-.82v-1.74a2.8,2.8,0,0,0,0-.72.46.46,0,0,0-.45-.34.58.58,0,0,0-.38.13.63.63,0,0,0-.23.34,3.33,3.33,0,0,0-.06.78v1.55h-.81V99.79h.75v.5a1.2,1.2,0,0,1,1-.58,1.1,1.1,0,0,1,.49.11.79.79,0,0,1,.34.27,1,1,0,0,1,.16.38,3,3,0,0,1,0,.61Z" style="fill:#583a28"/><path d="M124.13,103.2h-.76v-.5a1.2,1.2,0,0,1-.44.43,1,1,0,0,1-.52.15,1.11,1.11,0,0,1-.9-.48,2,2,0,0,1-.38-1.32,2.08,2.08,0,0,1,.36-1.32,1.16,1.16,0,0,1,.93-.45,1.11,1.11,0,0,1,.89.47V98.49h.82ZM122,101.42a1.73,1.73,0,0,0,.13.79.61.61,0,0,0,.55.35.59.59,0,0,0,.48-.26,1.33,1.33,0,0,0,.2-.79,1.5,1.5,0,0,0-.19-.85.59.59,0,0,0-1,0,1.23,1.23,0,0,0-.19.76" style="fill:#583a28"/><path d="M157.26,99.12a1.85,1.85,0,0,0,0-2.61l-4.7-4.7a1.85,1.85,0,0,0,2.62-2.62l-6.41-6.41-3-3a9.23,9.23,0,0,0-13.06,13.06h0l10.38,10.38a1.85,1.85,0,0,0,2.61,0,1.85,1.85,0,0,0,0-2.61l.66.65,2.48,2.48a1.84,1.84,0,0,0,2.85-2.31,1.76,1.76,0,0,0-.24-.3l.27.27.49.49.6.6a1.85,1.85,0,0,0,2.61-2.61l-.8-.8a1.85,1.85,0,0,0,2.61,0" style="fill:#fff"/><path d="M165.35,79.63a9.51,9.51,0,0,0-13.43,0l-3,3-3-3a9.5,9.5,0,0,0-13.44,13.43l10.39,10.39a2.1,2.1,0,0,0,3.59-1.63l2.15,2.15a2.12,2.12,0,0,0,3,0,2.14,2.14,0,0,0,.62-1.63l.37.37a2.1,2.1,0,0,0,1.49.62h0a3.13,3.13,0,0,0,.44,0,2.18,2.18,0,0,0,1.13-.59l9.64-9.64a9.5,9.5,0,0,0,0-13.43m-14.06,24a1.6,1.6,0,0,1-2.24,0l-3-3h0l-5.43-5.43a.27.27,0,0,0-.37,0,.25.25,0,0,0,0,.37l5.25,5.25a1.58,1.58,0,0,1-2.24,2.24L132.92,92.69A9,9,0,1,1,145.61,80L155,89.38a1.58,1.58,0,0,1-2.24,2.24l-4.24-4.24a.26.26,0,0,0-.38,0,.27.27,0,0,0,0,.37L152.38,92h0l4.7,4.69a1.57,1.57,0,0,1,.46,1.12,1.56,1.56,0,0,1-.46,1.12,1.62,1.62,0,0,1-2.24,0h0l-8.1-8.09a.26.26,0,0,0-.37.37l8.1,8.09h0l.79.79a1.57,1.57,0,0,1,0,2.24,1.57,1.57,0,0,1-1.12.47h0a1.58,1.58,0,0,1-1.12-.47L151.66,101l-7.53-7.53a.26.26,0,1,0-.37.37l7.53,7.54a1.58,1.58,0,0,1,0,2.24" style="fill:#583a28"/></g></g></svg>