<svg id="c08ce350-8c22-45aa-ac0c-9d871bc46a13" data-name="475c08fe-8320-432a-a48a-13c3c872e9d7" xmlns="http://www.w3.org/2000/svg" width="180.77" height="117.42" viewBox="0 0 180.77 117.42"><title>02</title><g id="73d4a49c-cf6c-4459-8637-902fffe7d8e6" data-name="9138548b-3088-41d7-ba80-a6d114072382"><g id="35d58a0b-44b8-4df1-a0c9-4c8343b3c8e1" data-name="21f846aa-c60c-472e-90f0-037b542bea30"><g id="98daf890-430e-490c-9025-1038b1f149dd" data-name="f73b465d-566f-4a2b-b31b-d5cd227b9d04"><path d="M150.93,66.34a2,2,0,0,0,2.1-2v-.06h0V18.47a2.06,2.06,0,0,1,2.07-2h8.41a5.2,5.2,0,0,0,3.4-1.51l8.41-9.59c.44-.51.49-1,.24-1.25a1.24,1.24,0,0,0-.95-.33h-46.4a5.22,5.22,0,0,0-3.41,1.51l-8.44,9.65c-.45.54-.51,1-.2,1.26h0a1.38,1.38,0,0,0,.9.26h19.38a2.07,2.07,0,0,1,2.07,2.07h0V64.26a2.07,2.07,0,0,0,.51,1.4h0l.14.14a2.06,2.06,0,0,0,1.4.54Z" style="fill:#253773"/><path d="M45.93,66.34H56.47a2,2,0,0,0,2.07-2v0h0V5.76a2.07,2.07,0,0,0-.61-1.43h0a2.1,2.1,0,0,0-1.46-.63H45.94a2.07,2.07,0,0,0-2.09,2V23.87a2,2,0,0,1-2,2.05H26.05a2,2,0,0,1-2.06-2h0V5.76a2,2,0,0,0-.51-1.25,2,2,0,0,0-1.56-.74H11.45A2.06,2.06,0,0,0,9.38,5.82V64.29a2.18,2.18,0,0,0,.56,1.41,2.09,2.09,0,0,0,1.51.64H21.92a2.06,2.06,0,0,0,2.07-2v0h0V42A2.07,2.07,0,0,1,26.05,40H41.8a2.08,2.08,0,0,1,2,2.07V64.29a2.11,2.11,0,0,0,2.07,2" style="fill:#253773"/><path d="M116.66,66.37c1,0,1.41-.6,1.13-1.4a.92.92,0,0,0-.19-.35L98.29,34.8l-2-3.06a2.92,2.92,0,0,1,.28-3.28L116.81,5.27a1.1,1.1,0,0,0,.37-1c-.12-.3-.44-.52-1.07-.52H102.79a5,5,0,0,0-3.38,1.57l-15,17.87-2.51,2.93c-.74.87-1.34.66-1.34-.47V5.77a2,2,0,0,0-.46-1.25,2,2,0,0,0-1.59-.79H68.32a2.07,2.07,0,0,0-2,2.07V64.29a2.08,2.08,0,0,0,2.08,2.08H78.47a2.07,2.07,0,0,0,2-2.08V48.73a6.19,6.19,0,0,1,1.41-3.58l2.13-2.35a1.48,1.48,0,0,1,2.09-.26h0a1.71,1.71,0,0,1,.39.46l2,3.14L100.3,64.63a3.22,3.22,0,0,0,.54.63,4.2,4.2,0,0,0,2.61,1.11Z" style="fill:#253773"/><path d="M150.1,112.23c2.16,0,3.05-.91,3.05-3.12v-7.37a3.67,3.67,0,0,0-.44-1.92,2.63,2.63,0,0,0-2.61-1.14h-6.39c-2.28,0-3.11.8-3.11,3v7.45a2.79,2.79,0,0,0,1.08,2.5,3.56,3.56,0,0,0,2,.53Zm-6.27-4.11v-5.39a.82.82,0,0,1,.72-.9h4.64a.76.76,0,0,1,.85.67h0a.54.54,0,0,1,0,.18v5.46a.82.82,0,0,1-.68.92h-4.63a.86.86,0,0,1-.89-.84h0v-.1" style="fill:#253773"/><path d="M172.15,112.73a2.79,2.79,0,0,0,2.68-2.12,33.5,33.5,0,0,0,.88-8.47,1,1,0,0,0-.21-.57c-.68-.9-2.93-.81-2.93.62v.57a24.89,24.89,0,0,1-.52,6.27,37.8,37.8,0,0,1-.78-7.8v-.8c-.1-3.12-.1-6.44-.1-10V82.84a3.57,3.57,0,0,0-3.7-3.44H154.59a.89.89,0,0,0-.77.54,4.23,4.23,0,0,0-.2,1.06c0,.75.28,1.56.9,1.56h4.21V95h-4.45a.89.89,0,0,0-.78.54h0a2.5,2.5,0,0,0-.21,1,2.36,2.36,0,0,0,.3,1.16,1.14,1.14,0,0,0,.18.25h0a.63.63,0,0,0,.4.14h4.57v14.55a.79.79,0,0,0,.37.62,2,2,0,0,0,1.25.34c.77,0,1.58-.26,1.58-.89V98.14h4.42a.88.88,0,0,0,.77-.57,2.55,2.55,0,0,0,.23-1,2.28,2.28,0,0,0-.34-1.25.72.72,0,0,0-.59-.37h-4.49V82.49h5c.79,0,1.14.31,1.14,1v2.24c0,3.65,0,7.16.07,10.67v5.29c.13,2.81.3,7,1.26,9.34a2.63,2.63,0,0,0,.9,1.08,2.8,2.8,0,0,0,1.66.59" style="fill:#253773"/><path d="M141.38,82.44h10.39a.88.88,0,0,0,.79-.55,2.48,2.48,0,0,0,.22-1,2,2,0,0,0-.46-1.41.63.63,0,0,0-.45-.2H141.5a.84.84,0,0,0-.79.54,2.57,2.57,0,0,0-.22,1,2,2,0,0,0,.42,1.4.61.61,0,0,0,.48.24" style="fill:#253773"/><path d="M151.61,97a.84.84,0,0,0,.75-.56,2.47,2.47,0,0,0,.23-1,2.06,2.06,0,0,0-.39-1.25.64.64,0,0,0-.53-.31h-10a.84.84,0,0,0-.78.55,2.46,2.46,0,0,0-.22,1,2,2,0,0,0,.47,1.39h0a.82.82,0,0,0,.42.15Z" style="fill:#253773"/><path d="M141.54,92h10.58a.89.89,0,0,0,.76-.55,2.47,2.47,0,0,0,.21-1.07,2.14,2.14,0,0,0-.35-1.25.65.65,0,0,0-.54-.34H141.63a.86.86,0,0,0-.78.54,2.55,2.55,0,0,0-.23,1,2,2,0,0,0,.44,1.41.71.71,0,0,0,.48.23" style="fill:#253773"/><path d="M140.49,87.23h13a.81.81,0,0,0,.75-.54,2.28,2.28,0,0,0,.23-1.06,2,2,0,0,0-.42-1.25.58.58,0,0,0-.48-.26H140.57a.88.88,0,0,0-.79.52,2.78,2.78,0,0,0-.21,1.06A2,2,0,0,0,140,87a.65.65,0,0,0,.5.28" style="fill:#253773"/><path d="M61.49,94.83a1,1,0,0,0-.18-1.17h0c-1.86-2-4.2-4.4-5.83-6-.65-.65-2-.1-2.4.87a1,1,0,0,0,.2,1.25c1.39,1.41,3.06,3.19,4.55,4.76l1.25,1.25.1.09a1.2,1.2,0,0,0,.58.21,2.18,2.18,0,0,0,1.73-1.25" style="fill:#253773"/><path d="M86.68,103.45a2.15,2.15,0,0,0-2.51,0,.93.93,0,0,0-.25.63,7.46,7.46,0,0,1-.64,3.84,2,2,0,0,1-1.73.86h-13a1.38,1.38,0,0,1-1.42-1.34,1.43,1.43,0,0,1,0-.29v-2H80c2,0,2.66-.62,2.66-2.66V99a21.22,21.22,0,0,0,3.46,1.84,1.59,1.59,0,0,0,2.08-.85,1.8,1.8,0,0,0,.1-.4,1.37,1.37,0,0,0-.14-1,1.53,1.53,0,0,0-.65-.61,17.49,17.49,0,0,1-6.85-4.82c-.36-.44-.73-.86-1-1.25H87.1c.63,0,.91-.81.91-1.6a2.15,2.15,0,0,0-.36-1.25.66.66,0,0,0-.55-.31H79.57V85h6.67c.63,0,.89-.79.89-1.6a2.15,2.15,0,0,0-.37-1.25.72.72,0,0,0-.52-.28H79.5V79a.9.9,0,0,0-.27-.53c-.74-.66-2.91-.5-2.91.53v2.92H70.05V79a.72.72,0,0,0-.28-.52c-.76-.67-2.89-.49-2.89.52v2.93H62.74a1.38,1.38,0,0,0-1.39.81C60.64,81.84,59.85,81,59,80L57.4,78.17c-.52-.62-2-.16-2.51.82A1.06,1.06,0,0,0,55,80.12c1.08,1.18,2.39,2.81,3.61,4.21l1.62,1.89a1.5,1.5,0,0,0,2.08-.3,1.4,1.4,0,0,0,.41-.86h4.15v3.62h-5.6a1.65,1.65,0,0,0-1.61,1.66h0a1.73,1.73,0,0,0,.39,1,1.89,1.89,0,0,0,.2.2,1.61,1.61,0,0,0,1,.28h5.23a11.23,11.23,0,0,1-1.11,1.26A25.67,25.67,0,0,1,62.74,96c-.46.39-.86.81-1.4,1.25a1.79,1.79,0,0,0-1.52-.69h-.17a1.27,1.27,0,0,0-1.26,1,28.23,28.23,0,0,1-5.34,13.18,1,1,0,0,0-.1,1.12,2.4,2.4,0,0,0,1.74,1.08.93.93,0,0,0,.81-.42c2.4-4,5-8.6,5.71-12.61a1.14,1.14,0,0,0,1.61.13h0l.42-.34.67-.55v8.72a3.84,3.84,0,0,0,1.57,3.48A4.46,4.46,0,0,0,68,112H81.69a4.76,4.76,0,0,0,4.39-2.34,11.59,11.59,0,0,0,1-5.35,1.23,1.23,0,0,0-.29-.76h-.1M79.53,99v2.41c0,.57-.12.71-.69.71H67.17V98.74c0-.48.15-.63.6-.63H78.89c.51,0,.68.21.68.77M70,85h6.27v3.62H70Zm.11,6.8h5.74a13.45,13.45,0,0,0,.92,1.25A14.52,14.52,0,0,0,78,94.91H67.92a17.24,17.24,0,0,0,2.21-3.14" style="fill:#253773"/><path d="M17,112H36.69c2.71,0,3.58-.78,3.58-3.23v-10a2.93,2.93,0,0,0-.36-1.64c.92.41,1.82.78,2.73,1.12a1.46,1.46,0,0,0,.45.1,1.78,1.78,0,0,0,1.51-1.61,1.89,1.89,0,0,0,0-.75,1.21,1.21,0,0,0-.65-.73A55.07,55.07,0,0,1,32.4,89.07c-.63-.44-1.25-.88-1.83-1.25h13a.89.89,0,0,0,.76-.54,2.3,2.3,0,0,0,.22-1A2,2,0,0,0,44.14,85a.63.63,0,0,0-.52-.29H28.5V81.43c4.64-.26,8.41-.62,11.64-1.09.57,0,.91-.7.85-1.54a2.31,2.31,0,0,0-.38-1.13,1.28,1.28,0,0,0-1-.54A219.81,219.81,0,0,1,13.4,78.54a.85.85,0,0,0-.74.54,2.33,2.33,0,0,0-.19,1A2.07,2.07,0,0,0,13,81.63h0a.7.7,0,0,0,.41.14c3.28,0,7.6,0,12.07-.2v3H9.78a.86.86,0,0,0-.78.55,2.32,2.32,0,0,0-.21,1,1.81,1.81,0,0,0,.45,1.39.58.58,0,0,0,.45.22H23.38c-.55.45-1.25.86-1.81,1.25a44,44,0,0,1-12,5.71c-.61.17-.87,1-.74,1.75a1.3,1.3,0,0,0,.41.79,1.14,1.14,0,0,0,1.25.33c1.35-.4,2.67-.87,3.95-1.39a3,3,0,0,0-.6,2v10.86a3,3,0,0,0,.67,2.26A3.69,3.69,0,0,0,17,112M36.41,98.7c.55,0,.78.21.78.72v2.9H16.81V99.53c0-.6.14-.82.87-.82Zm-11-6.59V94.9a1.62,1.62,0,0,0,0,.62H16a41.11,41.11,0,0,0,9.41-5.61Zm-8.64,16v-2.51h20.4V108c0,.64-.26.93-.9.93H17.68c-.64,0-.87-.22-.87-.81M29.82,91a51.12,51.12,0,0,0,7,4.62H28.42a2.15,2.15,0,0,0,0-.62V89.9c.42.36.94.71,1.4,1.08" style="fill:#253773"/><path d="M125.89,112.78q4.08,0,5-3.45a20.07,20.07,0,0,0,.35-2.79,5.57,5.57,0,0,1,.12-1.41.87.87,0,0,0-.22-.61,2,2,0,0,0-1.41-.54c-.6,0-1.25.4-1.25.85a6.59,6.59,0,0,0-.1.88,18.42,18.42,0,0,1-.45,2.57,2.58,2.58,0,0,1-.22.44c-.45.83-1.25,1-2.5,1H115.9c-1-.1-1.39-.5-1.39-1.51v-.46h9.68c2.43,0,2.94-.32,2.94-2.58V97.41c0-1.17-.11-1.86-.5-2.26a3.55,3.55,0,0,0-2.44-.54h-9.53a1.09,1.09,0,0,0,.12-.56V85.27h12.15c.27,0,.47,0,.53.21a1.4,1.4,0,0,1,0,.86c0,.1-.08.16-.1.25-.24.55-.48,1.09-.74,1.64l-.29.64-.14.31a1,1,0,0,0,0,.82,2.38,2.38,0,0,0,.52.58c.72.51,2,.57,2.28-.17.45-1,.9-2,1.4-3.16a3.16,3.16,0,0,0-.1-3.37,3.22,3.22,0,0,0-2.79-1.25H114.87V81.07h12.69a.82.82,0,0,0,.75-.5,1.71,1.71,0,0,0,.19-.83,1.81,1.81,0,0,0-.38-1.25.63.63,0,0,0-.47-.25H99.71a.82.82,0,0,0-.74.51,2.48,2.48,0,0,0-.2,1c0,1,.49,1.25.85,1.25h12v1.48H100.24c-2.39,0-3.3.46-3.3,2.71V90.6c0,.43.39.7.94.85a6.17,6.17,0,0,0,.86,0c.74,0,1.26-.37,1.26-.82V85.94c0-.57.15-.74.79-.74h10.86V94a.82.82,0,0,0,.17.57H101.31c-2.5,0-3,.44-3,2.81v7.85c0,1.11.13,1.76.6,2.13a4,4,0,0,0,2.5.46h10v.62a5.2,5.2,0,0,0,1.5,3.53,5.42,5.42,0,0,0,3.34.93Zm-11.21-10.24h9.61v1.69c0,.5-.09.58-.63.58h-9Zm9-5c.54,0,.63.09.63.59v1.77h-9.68V97.46Zm-22.2.59c0-.49,0-.59.62-.59h9.37v2.36h-10Zm0,6.18v-1.75h10v2.27h-9.41c-.63,0-.7-.12-.7-.58" style="fill:#253773"/><path d="M116.4,87c-.15,0-.23.11-.31.2-.63.45-.53,1.94.25,1.94h8.1c.81,0,.94-1.25.52-1.88a.57.57,0,0,0-.42-.27Z" style="fill:#253773"/><path d="M116.09,92.72s.18.21.3.21h8.06c.81,0,.93-1.33.49-1.89a.53.53,0,0,0-.4-.28h-8.08c-.17,0-.26.14-.37.24a1.24,1.24,0,0,0,0,1.72" style="fill:#253773"/><path d="M109.84,92.93c.82,0,.92-1.25.5-1.88-.11-.15-.22-.29-.41-.29h-8.08a.67.67,0,0,0-.59.43,1.36,1.36,0,0,0-.08,1c0,.3.37.71.59.71Z" style="fill:#253773"/><path d="M101.77,89.13h8.07c.8,0,.92-1.25.5-1.88a.5.5,0,0,0-.41-.27h-8.08a.66.66,0,0,0-.6.44,1.57,1.57,0,0,0,0,1.4.66.66,0,0,0,.52.38" style="fill:#253773"/></g></g></g></svg>