<svg id="b4a20cb9-542d-4c51-8251-8c07b05ec96a" data-name="Layer 2" xmlns="http://www.w3.org/2000/svg" width="163.33" height="80" viewBox="0 0 163.33 80"><title>07</title><g id="7b0d7fba-8c1c-4a23-b402-c75417aaf79a" data-name="Layer 10"><g id="15092a23-800d-4c2a-a3d0-e83162609f55" data-name="07"><g id="37c30854-32f5-4619-82ab-01a6aae06a01" data-name="21f9dd9a-b85a-44fe-90e0-547e989ff4c2"><path d="M67.39,49.91h-.72v.23a.29.29,0,0,1-.29.31h0a.28.28,0,0,1-.31-.26v-.28H64.62a.29.29,0,0,1-.3-.26v0a.27.27,0,0,1,.26-.28H66V49a.28.28,0,0,1,.28-.27h0c.17,0,.32.09.32.27v.36h.72a.27.27,0,0,1,.29.25v0a.29.29,0,0,1-.27.29Zm-.73,5.61a.28.28,0,0,1-.32-.29V53.54h-.63a3.74,3.74,0,0,1-.66,1.74.46.46,0,0,1-.23.16.29.29,0,0,1-.38-.19A.28.28,0,0,1,64.5,55a3.07,3.07,0,0,0,.58-1.42h-.37a.3.3,0,0,1-.33-.28h0a.29.29,0,0,1,.24-.32h1.73v-.58H65.28c-.35,0-.53-.16-.53-.48V51a.32.32,0,1,1,.63,0v.65c0,.11,0,.14.11.14h.85v-.93c0-.19.12-.28.32-.3a.28.28,0,0,1,.32.3v4.42C67,55.44,66.85,55.52,66.66,55.52Zm4.22-3.1H69.52v2.19h1.25a.29.29,0,0,1,.31.28v0a.29.29,0,0,1-.28.31h-3a.33.33,0,0,1-.33-.3v0a.31.31,0,0,1,.3-.29h1.14V52.45H67.6a.32.32,0,0,1-.35-.26.32.32,0,0,1,.26-.36h1.38V51a.36.36,0,0,1,.3-.39.32.32,0,0,1,.34.26v1h1.36c.17,0,.25.14.26.31a.26.26,0,0,1-.27.31Zm0-2.54H69.49v.23a.3.3,0,0,1-.3.31h0a.29.29,0,0,1-.31-.26v-.25h-.7a.29.29,0,0,1-.3-.26v0a.26.26,0,0,1,.26-.28h.74V49a.28.28,0,0,1,.28-.27h0c.17,0,.33.09.33.27v.36h1.42a.27.27,0,0,1,.29.25,0,0,0,0,1,0,0,.29.29,0,0,1-.28.29h0Z" style="fill:#1d1d1b"/><path d="M75.4,51.11a21.81,21.81,0,0,1-3.2.63.28.28,0,0,1-.3-.25.27.27,0,0,1,.22-.34l.43-.07V49.47c0-.18.12-.28.31-.3a.29.29,0,0,1,.31.27V51h0a2,2,0,0,0,.55-.11V49c0-.18.13-.27.31-.28a.26.26,0,0,1,.31.27v.44h.76a.31.31,0,0,1,.34.28v0a.31.31,0,0,1-.32.31h-.71v.68c.4-.08.68-.16.88-.21a.27.27,0,0,1,.35.17v0a.29.29,0,0,1-.22.35Zm-1.06,3.33a9.84,9.84,0,0,1-1.89.8.28.28,0,0,1-.36-.13.09.09,0,0,1,0,0,.28.28,0,0,1,.18-.36h0a9.59,9.59,0,0,0,1.78-.75.28.28,0,0,1,.4,0l0,0a.31.31,0,0,1-.1.41Zm4.29-.4a.26.26,0,0,1-.38,0L78.19,54a.39.39,0,0,0-.08-.1,2.34,2.34,0,0,0-.37-.4,18.78,18.78,0,0,1-2,.12v1.45c0,.32-.31.42-.49.43a1.63,1.63,0,0,1-1.18-.27c-.3-.27,0-.65.41-.43.08,0,.65.22.65,0V53.66H72.47a.27.27,0,0,1-.3-.26,0,0,0,0,1,0,0,.3.3,0,0,1,.29-.32h1.89l.21-.12.09-.05a.36.36,0,0,1-.17-.07,7.54,7.54,0,0,0-1.17-.59.27.27,0,0,1-.17-.33s0,0,0,0a.29.29,0,0,1,.38-.1,2.83,2.83,0,0,1,.59.25c.32-.21.63-.44.93-.68l.06-.07a.35.35,0,0,1,.47,0,.31.31,0,0,1,0,.42l0,0a8.36,8.36,0,0,1-.84.63l.11.08c.15.12.19.21.16.31.51-.33,1-.66,1.39-1,.19-.15.37-.16.5,0a.36.36,0,0,1,0,.25.49.49,0,0,1-.17.25,14.68,14.68,0,0,1-1.29.88h.16c.83,0,1.42-.07,1.78-.1-.19-.16-.43-.29-.23-.59a.27.27,0,0,1,.38,0l0,0a11.84,11.84,0,0,1,1.17,1.18A.31.31,0,0,1,78.63,54Zm-.75-2.58H76.36a.62.62,0,0,1-.68-.53V49.06c0-.17.14-.25.31-.27a.27.27,0,0,1,.31.27v.54a7.4,7.4,0,0,0,1.51-.43.28.28,0,0,1,.37.12s0,0,0,.05a.31.31,0,0,1-.19.41h0a11.37,11.37,0,0,1-1.71.46v.36c0,.22.09.31.29.31h1.24c.13,0,.22-.11.25-.44,0-.18.16-.25.34-.25a.28.28,0,0,1,.28.28h0c0,.67-.29,1-.83,1Zm.41,3.94a10.93,10.93,0,0,0-1.76-.93c-.17-.07-.2-.21-.12-.38a.3.3,0,0,1,.4-.15h0a12.49,12.49,0,0,1,1.8,1,.3.3,0,0,1,.08.42.27.27,0,0,1-.35.12l-.06-.05Z" style="fill:#1d1d1b"/><path d="M80.2,54.47a.35.35,0,0,1-.38.31h0a.34.34,0,0,1-.24-.43v0a11.45,11.45,0,0,0,.32-2.47.35.35,0,0,1,.3-.38h0a.33.33,0,0,1,.3.36v0A12.75,12.75,0,0,1,80.2,54.47ZM82,51h-.61v4.36c0,.19-.12.28-.31.3a.28.28,0,0,1-.31-.3V51H79.9a.3.3,0,0,1-.31-.29v0a.28.28,0,0,1,.29-.32H82c.18,0,.27.12.28.31A.27.27,0,0,1,82,51Zm-.17-1.4H80.15a.33.33,0,0,1-.34-.29v0a.32.32,0,0,1,.31-.32h1.7c.18,0,.27.12.29.31a.3.3,0,0,1-.29.34Zm.11,4.75c-.19,0-.32-.07-.32-.23V51.62c0-.16.13-.24.31-.24s.3.08.3.24v2.46c0,.17-.1.26-.29.27Zm4-.42H84.47v1.51c0,.18-.12.27-.31.28a.27.27,0,0,1-.31-.3V53.92H82.56c-.19,0-.28-.12-.3-.32a.28.28,0,0,1,.3-.31h1.29v-.88h-1c-.19,0-.28-.13-.28-.33a.27.27,0,0,1,.29-.31h1V51H82.73c-.18,0-.28-.13-.28-.33a.29.29,0,0,1,.28-.31h1.6a11.44,11.44,0,0,0,.55-1.41.35.35,0,0,1,.45-.2.34.34,0,0,1,.18.15.36.36,0,0,1,0,.25c-.14.41-.3.81-.46,1.18h.75c.18,0,.26.13.28.32a.27.27,0,0,1-.28.32H84.47v.82H85.6c.18,0,.28.13.29.32a.3.3,0,0,1-.29.32H84.47v.88h1.46a.32.32,0,0,1,0,.63Zm-2.17-3.69a.31.31,0,0,1-.42-.15v0L83,49.47a.86.86,0,0,1-.1-.16.32.32,0,0,1,.11-.44h0c.18-.09.33-.08.43.08a3.75,3.75,0,0,1,.44.81.34.34,0,0,1-.13.46Z" style="fill:#1d1d1b"/><path d="M89.43,52.73a.22.22,0,0,1-.31-.11l0,0a1.18,1.18,0,0,0-.07-.2l-.33,0v2.87a.26.26,0,0,1-.26.28h0a.26.26,0,0,1-.29-.26V52.49h-.77a.26.26,0,0,1-.28-.25h0a.27.27,0,0,1,.22-.31h.18a6.26,6.26,0,0,0,.43-.62c-.15-.16-.4-.41-.76-.76a.29.29,0,0,1,0-.4l0,0a.32.32,0,0,1,.39,0c.19-.35.34-.71.53-1.06a.32.32,0,0,1,.4-.16.27.27,0,0,1,.16.36v0A9.12,9.12,0,0,1,88,50.42l-.07.14.24.25c.17-.28.34-.57.49-.87a.29.29,0,0,1,.38-.16l0,0a.34.34,0,0,1,.07.46,12.18,12.18,0,0,1-1.06,1.68,2.92,2.92,0,0,0,.7-.06.51.51,0,0,1-.06-.23.25.25,0,0,1,.12-.32h0a.27.27,0,0,1,.35.11,7.89,7.89,0,0,1,.36,1,.27.27,0,0,1-.17.33Zm-1.67,2.18a.34.34,0,0,1-.35.3.31.31,0,0,1-.24-.36v0a14.73,14.73,0,0,0,.15-1.63.31.31,0,0,1,.31-.31h0c.18,0,.26.13.26.33A12.06,12.06,0,0,1,87.76,54.91Zm1.6-.47a.25.25,0,0,1-.31-.18s0,0,0,0a2.74,2.74,0,0,0-.09-.58c0-.22,0-.21-.06-.3a.28.28,0,0,1,.2-.33.25.25,0,0,1,.32.16v0a5.71,5.71,0,0,1,.16.92A.29.29,0,0,1,89.36,54.44Zm.6.62a.3.3,0,0,1-.38.19h0a.28.28,0,0,1-.2-.32l0,0a8.46,8.46,0,0,0,.38-1.58.27.27,0,0,1,.3-.26h0a.26.26,0,0,1,.26.28v0A6.18,6.18,0,0,1,90,55.06Zm2.94-2.35H90.12c-.36,0-.53-.22-.53-.63V49.82a.49.49,0,0,1,.13-.39.82.82,0,0,1,.46-.1H91c.08-.13.15-.29.21-.38a.35.35,0,0,1,.41-.24.23.23,0,0,1,.23.24.2.2,0,0,1,0,.13c0,.08-.06.14-.1.22H93a.88.88,0,0,1,.5.11.44.44,0,0,1,.13.39v2.37C93.59,52.55,93.36,52.71,92.9,52.71Zm.1-2.65c0-.14,0-.2-.2-.2H90.37c-.13,0-.2.06-.2.15v2c0,.08,0,.12.23.12h2.45c.12,0,.15,0,.15-.12Zm-.76,1.18a2,2,0,0,1,.45.36.25.25,0,0,1,0,.34.26.26,0,0,1-.35,0l-.53-.34a3.33,3.33,0,0,1-1.06.45.26.26,0,0,1-.35-.15h0a.23.23,0,0,1,.15-.31h0a3.66,3.66,0,0,0,.8-.3L91,51a1.68,1.68,0,0,1-.29.24.26.26,0,0,1-.35,0c-.14-.21,0-.32.15-.43a4.18,4.18,0,0,0,.59-.6.45.45,0,0,1,.33-.19h1c.3,0,.45.13.39.38a2.39,2.39,0,0,1-.56.83Zm0,4.16h-.87c-.48,0-.75-.16-.75-.52v-1.8c0-.17.12-.24.28-.25a.23.23,0,0,1,.27.24v1.51c0,.12,0,.18.08.2a.79.79,0,0,0,.37,0,1.64,1.64,0,0,0,.66,0c.08,0,.11-.13.11-.37a.27.27,0,0,1,.28-.26h0a.25.25,0,0,1,.26.25v0C93,55.06,92.72,55.4,92.24,55.4Zm-.16-4.89h-.61l-.16.15.49.28a1.23,1.23,0,0,0,.33-.35S92.14,50.51,92.08,50.51Zm0,3.78c-.19,0-.35,0-.38-.23a7.77,7.77,0,0,0-.24-1,.26.26,0,0,1,.16-.32h0a.28.28,0,0,1,.37.16A4.34,4.34,0,0,1,92.3,54a.28.28,0,0,1-.2.3Zm1.51.91a.3.3,0,0,1-.36-.22h0a11.42,11.42,0,0,0-.56-1.68.24.24,0,0,1,.09-.35l.06,0a.3.3,0,0,1,.4.16,6.47,6.47,0,0,1,.59,1.77.28.28,0,0,1-.19.36h0Z" style="fill:#1d1d1b"/><path d="M96.89,54.3a6.89,6.89,0,0,1-2,1,.3.3,0,0,1-.38-.14v0c-.1-.34.14-.43.38-.51a4.24,4.24,0,0,0,.5-.2V52.21h-.55c-.19,0-.28-.13-.29-.31s.1-.29.29-.29h.55V49.78h-.6c-.17,0-.25-.11-.26-.29a.25.25,0,0,1,.26-.3h1.67a.28.28,0,0,1,.3.27,0,0,0,0,1,0,0,.29.29,0,0,1-.27.3H96v1.83h.56a.3.3,0,0,1,0,.6H96v1.92l.53-.31a.27.27,0,0,1,.4,0h0a.29.29,0,0,1,0,.42A.2.2,0,0,1,96.89,54.3Zm4.37,1H97c-.17,0-.25-.13-.25-.31a.27.27,0,0,1,.29-.24h1.76V54H97.37c-.17,0-.25-.13-.26-.3a.27.27,0,0,1,.28-.29h1.42v-.75H97.56a.53.53,0,0,1-.58-.46v-2.6a.53.53,0,0,1,.44-.6h3.28c.38,0,.54.18.54.59V52a.51.51,0,0,1-.45.58H99.42v.76H101c.17,0,.25.11.26.28a.25.25,0,0,1-.26.3h-1.6v.83h1.84c.17,0,.26.12.28.3S101.43,55.31,101.26,55.31ZM98.81,49.6h-1c-.14,0-.18,0-.18.19v.76h1.21Zm0,1.51H97.6v.7c0,.15.05.21.19.21h1Zm1.82-1.26c0-.18,0-.24-.17-.24h-1v.91h1.21Zm0,1.26H99.42V52h1.06c.11,0,.15-.06.15-.25Z" style="fill:#1d1d1b"/><path d="M41.45,64.13V58.72h1.86a4.35,4.35,0,0,1,1,.07,1.86,1.86,0,0,1,.76.4,2.05,2.05,0,0,1,.64.92,3.76,3.76,0,0,1,.22,1.29,4,4,0,0,1-.15,1.09,2.68,2.68,0,0,1-.37.76,2.28,2.28,0,0,1-.49.49,2,2,0,0,1-.65.27,3.22,3.22,0,0,1-.87.09Zm.75-.64h1.12a2.65,2.65,0,0,0,.84-.1,1.17,1.17,0,0,0,.48-.31,1.62,1.62,0,0,0,.4-.68,3.35,3.35,0,0,0,.14-1,2.45,2.45,0,0,0-.28-1.3,1.44,1.44,0,0,0-.67-.62,2.92,2.92,0,0,0-.93-.1H42.2Z" style="fill:#1d1d1b"/><path d="M46.82,64.13V60.21h.59v.6a1.64,1.64,0,0,1,.43-.55.74.74,0,0,1,.41-.13,1.2,1.2,0,0,1,.69.21l-.23.61a1.07,1.07,0,0,0-.46-.14.62.62,0,0,0-.39.14.7.7,0,0,0-.25.36,2.79,2.79,0,0,0-.11.76v2.06Z" style="fill:#1d1d1b"/><path d="M49.12,64.13v-.75h.75v.75Z" style="fill:#1d1d1b"/><path d="M64.85,62.24l.72.18a2.35,2.35,0,0,1-.81,1.34,2.17,2.17,0,0,1-1.43.46,2.55,2.55,0,0,1-1.42-.38,2.21,2.21,0,0,1-.84-1,3.74,3.74,0,0,1-.29-1.44,3.27,3.27,0,0,1,.33-1.51,2.21,2.21,0,0,1,.92-1,2.6,2.6,0,0,1,1.31-.32,2.18,2.18,0,0,1,1.37.42,2.06,2.06,0,0,1,.76,1.15l-.71.17a1.65,1.65,0,0,0-.55-.86,1.45,1.45,0,0,0-.9-.27,1.76,1.76,0,0,0-1,.3,1.55,1.55,0,0,0-.59.81,3,3,0,0,0-.17,1,3.27,3.27,0,0,0,.2,1.21,1.48,1.48,0,0,0,.63.76,1.73,1.73,0,0,0,.92.26,1.53,1.53,0,0,0,1-.35A1.74,1.74,0,0,0,64.85,62.24Z" style="fill:#1d1d1b"/><path d="M66.48,64.13V58.72h.71v2.22H70V58.72h.71v5.41H70V61.57H67.19v2.56Z" style="fill:#1d1d1b"/><path d="M75.47,58.72h.72v3.13A3.74,3.74,0,0,1,76,63.14a1.53,1.53,0,0,1-.66.76,2.34,2.34,0,0,1-1.27.3,2.52,2.52,0,0,1-1.24-.26,1.5,1.5,0,0,1-.69-.76,3.57,3.57,0,0,1-.22-1.33V58.72h.76v3.12a3.09,3.09,0,0,0,.13,1,.94.94,0,0,0,.45.51,1.82,1.82,0,0,0,1.88-.18,2,2,0,0,0,.34-1.38Z" style="fill:#1d1d1b"/><path d="M76.79,64.13l2.07-5.41h.76l2.21,5.41H81l-.63-1.64H78.14l-.6,1.64Zm1.56-2.22h1.84l-.57-1.51c-.17-.46-.3-.83-.39-1.13a7.61,7.61,0,0,1-.28,1Z" style="fill:#1d1d1b"/><path d="M82.42,64.13V58.72h.75L86,63V58.72h.69v5.41H86l-2.84-4.25v4.25Z" style="fill:#1d1d1b"/><path d="M90.42,62v-.64h2.27v2a4.14,4.14,0,0,1-1.1.63,3,3,0,0,1-1.15.21A2.89,2.89,0,0,1,89,63.88a2.21,2.21,0,0,1-1-1,3,3,0,0,1-.33-1.44A3.3,3.3,0,0,1,88,60,2.16,2.16,0,0,1,89,59a3,3,0,0,1,1.43-.33,2.76,2.76,0,0,1,1.06.19,1.81,1.81,0,0,1,.76.53,2.35,2.35,0,0,1,.4.88l-.65.18a1.83,1.83,0,0,0-.3-.65,1.2,1.2,0,0,0-.51-.38,1.8,1.8,0,0,0-.76-.14,2.06,2.06,0,0,0-.85.15,1.49,1.49,0,0,0-.57.39,2,2,0,0,0-.35.53,2.78,2.78,0,0,0-.2,1.1,2.53,2.53,0,0,0,.25,1.21,1.59,1.59,0,0,0,.75.72,2.25,2.25,0,0,0,1,.24A2.61,2.61,0,0,0,92,63V62Z" style="fill:#1d1d1b"/><path d="M94.18,63.57v-.76h.75v.76a1.22,1.22,0,0,1-.15.67.87.87,0,0,1-.47.39l-.18-.28a.58.58,0,0,0,.31-.27,1.13,1.13,0,0,0,.12-.51Z" style="fill:#1d1d1b"/><path d="M98.29,63.57V58.15h1.86a4.49,4.49,0,0,1,1,.08,1.87,1.87,0,0,1,.8.39,2.19,2.19,0,0,1,.64.92,4.05,4.05,0,0,1,.21,1.29,4.54,4.54,0,0,1-.14,1.1,2.91,2.91,0,0,1-.37.75,1.92,1.92,0,0,1-1.15.77,4.14,4.14,0,0,1-.87.09Zm.76-.65h1.11a2.71,2.71,0,0,0,.85-.09,1.44,1.44,0,0,0,.48-.28,1.88,1.88,0,0,0,.4-.68,3.37,3.37,0,0,0,.14-1,2.56,2.56,0,0,0-.28-1.33,1.35,1.35,0,0,0-.68-.61,2.61,2.61,0,0,0-.92-.11H99Z" style="fill:#1d1d1b"/><path d="M103.67,58.92v-.76h.67v.76Zm0,4.65V59.64h.67v3.93Z" style="fill:#1d1d1b"/><path d="M105.34,63.57V59.64h.6v.61a1.65,1.65,0,0,1,.42-.56.82.82,0,0,1,.43-.12,1.24,1.24,0,0,1,.69.21l-.24.61a1,1,0,0,0-.5-.14.61.61,0,0,0-.39.13.68.68,0,0,0-.25.37,2.72,2.72,0,0,0-.11.75v2.06Z" style="fill:#1d1d1b"/><path d="M110.52,62.3l.69.09a1.72,1.72,0,0,1-.6.94,2.06,2.06,0,0,1-2.49-.2,2.08,2.08,0,0,1-.5-1.51,2.16,2.16,0,0,1,.51-1.52,1.72,1.72,0,0,1,1.32-.54,1.68,1.68,0,0,1,1.29.53,2.12,2.12,0,0,1,.49,1.51,1,1,0,0,1,0,.16h-3a1.5,1.5,0,0,0,.37,1,1.09,1.09,0,0,0,.82.34,1,1,0,0,0,.63-.19A1.18,1.18,0,0,0,110.52,62.3Zm-2.15-1.07h2.19a1.3,1.3,0,0,0-.25-.76,1,1,0,0,0-.82-.38,1,1,0,0,0-.76.3A1.24,1.24,0,0,0,108.37,61.23Z" style="fill:#1d1d1b"/><path d="M114.63,62.13l.66.08a1.71,1.71,0,0,1-.55,1.06,1.6,1.6,0,0,1-1.08.39,1.72,1.72,0,0,1-1.3-.53,2.14,2.14,0,0,1-.49-1.51,2.86,2.86,0,0,1,.21-1.12,1.56,1.56,0,0,1,.64-.75,2,2,0,0,1,.94-.24,1.72,1.72,0,0,1,1,.32,1.53,1.53,0,0,1,.52.92l-.65.1a1.09,1.09,0,0,0-.33-.6.83.83,0,0,0-.56-.19,1,1,0,0,0-.82.35,1.68,1.68,0,0,0-.31,1.15,1.76,1.76,0,0,0,.3,1.15,1,1,0,0,0,.76.35,1,1,0,0,0,.66-.23A1.23,1.23,0,0,0,114.63,62.13Z" style="fill:#1d1d1b"/><path d="M117.33,63l.1.59a2.22,2.22,0,0,1-.51.06,1.22,1.22,0,0,1-.56-.11.7.7,0,0,1-.28-.31,2.7,2.7,0,0,1-.08-.75V60.18h-.48v-.54H116v-1l.67-.4v1.37h.66v.52h-.66v2.27a1.15,1.15,0,0,0,0,.37.22.22,0,0,0,.11.12A.38.38,0,0,0,117,63,1.74,1.74,0,0,0,117.33,63Z" style="fill:#1d1d1b"/><path d="M117.71,61.61a2,2,0,0,1,.6-1.62,1.88,1.88,0,0,1,1.24-.43,1.73,1.73,0,0,1,1.32.53,2,2,0,0,1,.52,1.46,2.56,2.56,0,0,1-.23,1.19,1.66,1.66,0,0,1-.66.68,2,2,0,0,1-1,.24,1.79,1.79,0,0,1-1.33-.53A2.16,2.16,0,0,1,117.71,61.61Zm.69,0a1.7,1.7,0,0,0,.32,1.13,1.12,1.12,0,0,0,1.56.09l.09-.09a1.72,1.72,0,0,0,.34-1.15,1.69,1.69,0,0,0-.35-1.11,1.1,1.1,0,0,0-1.54-.11l-.11.11A1.64,1.64,0,0,0,118.4,61.61Z" style="fill:#1d1d1b"/><path d="M122.16,63.57V59.64h.6v.61a1.53,1.53,0,0,1,.42-.56.76.76,0,0,1,.42-.12,1.2,1.2,0,0,1,.69.21l-.23.61a.93.93,0,0,0-.49-.14.61.61,0,0,0-.39.13.62.62,0,0,0-.24.37,2.4,2.4,0,0,0-.12.75v2.06Z" style="fill:#1d1d1b"/><path d="M56.21,62.24l.72.18a2.46,2.46,0,0,1-.81,1.34,2.19,2.19,0,0,1-1.43.46,2.56,2.56,0,0,1-1.43-.38,2.21,2.21,0,0,1-.84-1,3.56,3.56,0,0,1-.28-1.44,3.14,3.14,0,0,1,.32-1.51,2.23,2.23,0,0,1,.93-1,2.58,2.58,0,0,1,1.3-.32,2.16,2.16,0,0,1,1.37.42,2.06,2.06,0,0,1,.76,1.15l-.7.17a1.66,1.66,0,0,0-.56-.86,1.43,1.43,0,0,0-.9-.27,1.76,1.76,0,0,0-1,.3,1.55,1.55,0,0,0-.59.81,3.4,3.4,0,0,0,0,2.24,1.41,1.41,0,0,0,.62.76,1.75,1.75,0,0,0,.92.26,1.51,1.51,0,0,0,1-.35A1.81,1.81,0,0,0,56.21,62.24Z" style="fill:#1d1d1b"/><path d="M57.83,64.13v-.75h.76v.75Z" style="fill:#1d1d1b"/></g></g><g id="31f786a4-8c6e-4230-9c94-c5c41daf89cb" data-name="Layer 11"><path d="M78.18,24.28h2.17a.62.62,0,0,0,.39-.15.65.65,0,0,0,.24-.35L81.73,21h1l.75,2.83a.65.65,0,0,0,.24.35.62.62,0,0,0,.39.15h2.17a.38.38,0,0,0,.32-.15.39.39,0,0,0,.05-.35l-1.13-4.29a.7.7,0,0,0-.24-.36.6.6,0,0,0-.39-.14H79.57a.6.6,0,0,0-.39.14.7.7,0,0,0-.24.36l-1.13,4.29a.43.43,0,0,0,0,.35A.38.38,0,0,0,78.18,24.28Z" style="fill:#231f20"/><path d="M86.2,25.12H78.29a.52.52,0,0,0-.35.14.51.51,0,0,0-.15.36v1a.51.51,0,0,0,.5.5h2.37v2.38H78.29a.51.51,0,0,0-.5.5v1a.51.51,0,0,0,.15.36.52.52,0,0,0,.35.14h2.37v5.84H78.29a.49.49,0,0,0-.35.15.47.47,0,0,0-.15.35v1a.47.47,0,0,0,.15.35.49.49,0,0,0,.35.15H86.2a.51.51,0,0,0,.5-.5v-1a.51.51,0,0,0-.5-.5H83.83V31.42H86.2a.5.5,0,0,0,.35-.14.51.51,0,0,0,.15-.36V30a.49.49,0,0,0-.15-.35.47.47,0,0,0-.35-.15H83.83V27.08H86.2a.47.47,0,0,0,.35-.15.49.49,0,0,0,.15-.35v-1a.51.51,0,0,0-.15-.36A.5.5,0,0,0,86.2,25.12Z" style="fill:#231f20"/><path d="M92.88,37.26H90.66v-8h5.12a2.07,2.07,0,0,0,1.5-.62,2.1,2.1,0,0,0,.63-1.5V20a.49.49,0,0,0-.15-.35.5.5,0,0,0-.35-.15H88a.51.51,0,0,0-.36.15.52.52,0,0,0-.14.35V37.09a2.11,2.11,0,0,0,.62,1.51,2.15,2.15,0,0,0,1.5.62h3.27a.49.49,0,0,0,.35-.15.47.47,0,0,0,.15-.35v-1a.47.47,0,0,0-.15-.35A.49.49,0,0,0,92.88,37.26ZM90.66,21.44h4.07v1.94H90.66Zm0,3.9h4.07v1.94H90.66Z" style="fill:#231f20"/><path d="M103.6,22.3h2.18a.5.5,0,0,0,.35-.15.47.47,0,0,0,.15-.35V19.49a.51.51,0,0,0-.15-.36.49.49,0,0,0-.35-.14H103.6a.47.47,0,0,0-.35.14.51.51,0,0,0-.15.36V21.8a.47.47,0,0,0,.15.35A.49.49,0,0,0,103.6,22.3Z" style="fill:#231f20"/><path d="M121.47,37.26H106.28v-13a.49.49,0,0,0-.15-.35.5.5,0,0,0-.35-.15h-3.43a.51.51,0,0,0-.36.15.52.52,0,0,0-.14.35v1a.48.48,0,0,0,.5.5h.75V37.09a2.12,2.12,0,0,0,2.13,2.13h16.24a.5.5,0,0,0,.35-.15.47.47,0,0,0,.15-.35v-1a.47.47,0,0,0-.15-.35A.5.5,0,0,0,121.47,37.26Z" style="fill:#231f20"/><path d="M121.82,34.07a.5.5,0,0,0-.35-.15h-1V21.66a2.12,2.12,0,0,0-2.12-2.12h-10.2a.54.54,0,0,0-.35.14.51.51,0,0,0-.15.36v1a.51.51,0,0,0,.5.5h1.71v5h-1.71a.54.54,0,0,0-.35.14.51.51,0,0,0-.15.36v1a.49.49,0,0,0,.15.35.5.5,0,0,0,.35.15h1.71v6.88a.5.5,0,0,0,.14.36.54.54,0,0,0,.36.14h2.17a.5.5,0,0,0,.35-.14.51.51,0,0,0,.15-.36V28.5h1.92a.47.47,0,0,0,.35-.15.49.49,0,0,0,.15-.35V27a.51.51,0,0,0-.15-.36.5.5,0,0,0-.35-.14H113v-5h4.27V33.76a2.12,2.12,0,0,0,2.12,2.12h2.08a.54.54,0,0,0,.35-.14.51.51,0,0,0,.15-.36v-1A.49.49,0,0,0,121.82,34.07Z" style="fill:#231f20"/><path d="M98.56,31H96.39a.8.8,0,0,0-.43.15,1,1,0,0,0-.32.35l-.3.62-.6-1.2a1,1,0,0,0-.32-.36.78.78,0,0,0-.43-.14H91.82a.3.3,0,0,0-.29.14.46.46,0,0,0,0,.36l3.88,7.79a.82.82,0,0,0,.32.35.77.77,0,0,0,.42.15h2.18a.29.29,0,0,0,.28-.15.4.4,0,0,0,0-.35l-1.69-3.4,1.9-3.81a.44.44,0,0,0,0-.35A.31.31,0,0,0,98.56,31Z" style="fill:#231f20"/><path d="M78.25,36.33a.55.55,0,0,0,.37.15h1.14a.45.45,0,0,0,.34-.15.42.42,0,0,0,.11-.35l-.28-3.28a.59.59,0,0,0-.18-.35.55.55,0,0,0-.37-.15H78.24a.45.45,0,0,0-.45.5L78.08,36A.55.55,0,0,0,78.25,36.33Z" style="fill:#231f20"/><path d="M85.1,32.2a.55.55,0,0,0-.37.15.58.58,0,0,0-.17.35L84.27,36a.46.46,0,0,0,.12.35.45.45,0,0,0,.34.15h1.14a.57.57,0,0,0,.54-.5l.29-3.28a.47.47,0,0,0-.12-.35.45.45,0,0,0-.34-.15Z" style="fill:#231f20"/><path d="M60.09,37.09a4.8,4.8,0,0,0,1.93-.2h0c4.55-1.35,3.88-6.07,3.87-6.13a5.48,5.48,0,0,0-4.13-4.38,5.43,5.43,0,0,0-7.34-6.57,5.42,5.42,0,0,0-3.07,6.55,5.84,5.84,0,0,0-4.11,4.19,5.47,5.47,0,0,0,7.87,6v6a1.6,1.6,0,0,0,.47,1.3,2.13,2.13,0,0,0,1.44.51h.15A15.72,15.72,0,0,0,66,41a15.34,15.34,0,0,0,5.66-11A15.15,15.15,0,0,0,49.89,15.51c-9.61,4.85-8.5,14.91-8.49,15a15.47,15.47,0,0,0,10.36,13,1.82,1.82,0,0,0,1.48,0,1.46,1.46,0,0,0,.67-.83,1.49,1.49,0,0,0-.14-1.16,1.94,1.94,0,0,0-1.11-.8,11.45,11.45,0,0,1-6.43-5,12.49,12.49,0,0,1-1.75-8.59,12.76,12.76,0,0,1,3.36-6.52,12.33,12.33,0,0,1,9.24-3.65,12.59,12.59,0,0,1,10.17,6.31,12.49,12.49,0,0,1,.83,9.89,12.17,12.17,0,0,1-10,8.15v-9.5a1.33,1.33,0,0,0-.23-.81,1.52,1.52,0,0,0-1.53-.7,1.49,1.49,0,0,0-1.19,1.56A2.5,2.5,0,0,1,51,33.61a2.65,2.65,0,0,1-.93-1.85,3,3,0,0,1,.79-1.89,2.57,2.57,0,0,1,2.65-.5,1.6,1.6,0,0,0,1.49.17h0a1.55,1.55,0,0,0,.92-1.23,1.52,1.52,0,0,0-.82-1.47,2.5,2.5,0,0,1,1.42-4.54A2.48,2.48,0,0,1,58.92,24a2.41,2.41,0,0,1-.84,2.76,1.75,1.75,0,0,0-.8,1.16A1.46,1.46,0,0,0,57.55,29a1.51,1.51,0,0,0,2,.36,1.76,1.76,0,0,1,.81-.21h.2a2.56,2.56,0,0,1,2.33,1.52,2.59,2.59,0,0,1-.69,2.89,2.77,2.77,0,0,1-2,.54h-.07a1.47,1.47,0,0,0-1.14.42,1.59,1.59,0,0,0-.38,1.14A1.55,1.55,0,0,0,60,37.07Z" style="fill:#ed1c24"/></g></g></svg>