<svg xmlns="http://www.w3.org/2000/svg" width="163.33" height="80" viewBox="0 0 163.33 80"><title>08</title><g id="18e8c268-50ff-4a49-a8dc-a68f26ae8c39" data-name="Layer 2"><g id="24b96206-13cb-4a2e-9b1a-4365b9ddfd4a" data-name="08"><g id="3ec52775-6e41-4040-867b-ae63d2a735b3" data-name="640b8b06-2584-4de3-b5d6-6c3f4b7dcbca"><path d="M66.09,58.8h-.78A5,5,0,0,1,64,61.4a6.47,6.47,0,0,0,2.17,1.11c.14.06.16.19.1.37a.25.25,0,0,1-.29.18h0a8,8,0,0,1-2.38-1.29A7.65,7.65,0,0,1,61.09,63c-.15,0-.25,0-.31-.19a.27.27,0,0,1,.15-.34h0a7.31,7.31,0,0,0,2.2-1,5.54,5.54,0,0,1-1.27-2.62H61c-.15,0-.23-.1-.24-.26a.23.23,0,0,1,.24-.26h2.24V57.8a.29.29,0,0,1,.58,0v.48h2.26c.15,0,.22.1.23.26A.22.22,0,0,1,66.09,58.8Zm-3.65,0A4.2,4.2,0,0,0,63.57,61a3.93,3.93,0,0,0,1.2-2.23Z" style="fill:#1d1d1b"/><path d="M67.32,62.57a.23.23,0,0,1-.31,0,.19.19,0,0,1-.1-.26.05.05,0,0,1,0,0c.19-.33.35-.63.46-.87a.22.22,0,0,1,.28-.1.24.24,0,0,1,.11.32h0C67.64,62,67.49,62.26,67.32,62.57Zm2.18-1.49h-.91v1.34a.63.63,0,0,1-.12.37.6.6,0,0,1-.4.15,3.23,3.23,0,0,1-.44,0,.23.23,0,0,1-.19-.26h0a.22.22,0,0,1,.25-.18H68c.09,0,.16,0,.16-.11v-1.3h-1a.21.21,0,0,1-.21-.21h0a.2.2,0,0,1,.19-.21h2.39a.2.2,0,0,1,.21.19v0a.22.22,0,0,1-.2.22Zm0-1.94a.55.55,0,0,1-.18.29.68.68,0,0,1-.41.1H67.67a.71.71,0,0,1-.43-.11A.43.43,0,0,1,67.1,59V57.82a.2.2,0,0,1,.2-.2h0a.22.22,0,0,1,.23.19h0v.4a7.34,7.34,0,0,0,1.52-.44.21.21,0,0,1,.28.09v0a.21.21,0,0,1-.09.28l0,0a9.1,9.1,0,0,1-1.68.46v.29c0,.12.08.17.2.17H68.9a.22.22,0,0,0,.22-.16,2,2,0,0,1,.06-.26.2.2,0,0,1,.25-.15h0a.2.2,0,0,1,.19.21v0A2.22,2.22,0,0,1,69.55,59.14Zm-.18,1.1h-2a.21.21,0,0,1-.21-.21h0a.19.19,0,0,1,.21-.19h2a.2.2,0,0,1,.19.19.2.2,0,0,1-.18.22Zm.26,2a.24.24,0,0,1-.33,0l0,0c-.13-.18-.27-.36-.42-.53a.22.22,0,0,1,0-.32l0,0a.22.22,0,0,1,.32,0l0,0c.15.17.32.38.47.58a.23.23,0,0,1,0,.31Zm1,0a3.53,3.53,0,0,1-.83.62.24.24,0,0,1-.32-.08h0a.23.23,0,0,1,0-.33l0,0a3.17,3.17,0,0,0,.69-.53.23.23,0,0,1,.33,0l0,0a.25.25,0,0,1,0,.35l0,0ZM72,58.17h-.88a1.72,1.72,0,0,1-.09.36h.55a.48.48,0,0,1,.32.09.38.38,0,0,1,.11.3v2.35a.45.45,0,0,1-.1.31.55.55,0,0,1-.4.14H70.21a.37.37,0,0,1-.3-.13.37.37,0,0,1-.1-.28V58.94a.35.35,0,0,1,.4-.4h.23a2.45,2.45,0,0,1,.08-.36h-.69a.23.23,0,0,1-.22-.24h0a.21.21,0,0,1,.19-.23h2.13a.23.23,0,0,1,.24.22v0a.22.22,0,0,1-.2.24h0Zm-.42.9c0-.06-.07-.1-.12-.1h-1a.12.12,0,0,0-.11.13h0v.33h1.24Zm0,.8H70.27v.46h1.24Zm0,.91H70.27v.33a.13.13,0,0,0,.13.13h1a.12.12,0,0,0,.13-.11v-.35Zm.34,2a6.53,6.53,0,0,0-.72-.58.23.23,0,0,1-.09-.31l0,0a.25.25,0,0,1,.36,0,4.34,4.34,0,0,1,.78.65.22.22,0,0,1,0,.31h0a.24.24,0,0,1-.34,0l0,0Z" style="fill:#1d1d1b"/><path d="M73.21,61.07a.24.24,0,0,1-.24.22.25.25,0,0,1-.24-.25v0a.21.21,0,0,1,0-.11A7.11,7.11,0,0,0,73,59.32v-.5c0-.17.07-.27.22-.27a.27.27,0,0,1,.23.27A9,9,0,0,1,73.21,61.07Zm.64,1.87a.22.22,0,0,1-.24-.22V57.85a.24.24,0,0,1,.24-.24.24.24,0,0,1,.24.24h0V62.7a.24.24,0,0,1-.22.24Zm.69-2.28a.19.19,0,0,1-.21-.17v-.62a9.76,9.76,0,0,0-.14-1.06.2.2,0,0,1,.15-.24h0a.22.22,0,0,1,.23.19h0a11.41,11.41,0,0,1,.18,1.65.23.23,0,0,1-.19.25Zm3.58-.32c-.1,0-.16-.07-.22-.15l-.29-.52a24.16,24.16,0,0,0-2.54.21H74.9c-.14,0-.18-.19-.18-.31s.06-.17.19-.18c.21-.36.41-.73.61-1.09.1-.19.2-.38.31-.57a.25.25,0,0,1,.22-.14.25.25,0,0,1,.25.23.29.29,0,0,1,0,.13c0,.1-.11.2-.17.3s-.2.36-.31.54-.23.37-.33.57l1.88-.16c-.16-.25-.34-.49-.5-.73a.3.3,0,0,1-.06-.18.27.27,0,0,1,.26-.26.31.31,0,0,1,.19.11,11.54,11.54,0,0,1,.8,1.25c.1.18.2.37.29.56a.38.38,0,0,1,0,.15.22.22,0,0,1-.2.24Zm-.6,2.47H75.41c-.37,0-.47-.24-.47-.57V60.63c0-.39.25-.51.6-.51H77.4c.33,0,.58.14.58.5v1.57C78,62.51,77.9,62.81,77.52,62.81Zm0-2.08c0-.12-.1-.16-.21-.16H75.67c-.16,0-.24,0-.24.22v1.37c0,.12,0,.19.14.19H77.3c.11,0,.18,0,.18-.16Z" style="fill:#1d1d1b"/><path d="M84,62.68H79.11a.23.23,0,0,1-.27-.21.06.06,0,0,1,0-.06.24.24,0,0,1,.23-.26h2.21V60.74H79.67c-.18,0-.3-.09-.3-.27s.11-.27.3-.27h1.65v-.84a.23.23,0,0,1,.21-.26h.06a.26.26,0,0,1,.27.23v.87h1.69a.25.25,0,0,1,.28.22v0a.25.25,0,0,1-.23.27H81.82v1.41H84c.19,0,.31.1.31.27S84.14,62.68,84,62.68ZM83.81,59H79.33a.29.29,0,0,1-.33-.25h0a.26.26,0,0,1,.25-.28h2.06V58a.27.27,0,0,1,.22-.31h0c.17,0,.27.11.27.3v.51h2a.24.24,0,0,1,.26.22v0a.24.24,0,0,1-.19.28Z" style="fill:#1d1d1b"/><path d="M90,59.48h-.85v.36c0,.42-.13.51-.54.51h-.45v.41h1.31c.35,0,.52.11.52.37v1.24c0,.42-.43.55-1.27.43a.25.25,0,0,1-.24-.26.09.09,0,0,1,0,0c0-.15.16-.2.32-.18a1.88,1.88,0,0,0,.58,0,.08.08,0,0,0,.08-.07.49.49,0,0,0,0-.17v-.71c0-.12,0-.15-.17-.15H88.15v1.52a.25.25,0,0,1-.25.25.25.25,0,0,1-.25-.25v-1.5h-1c-.12,0-.18.06-.18.21v1.2a.24.24,0,0,1-.22.26h0a.23.23,0,0,1-.25-.21V61.22a.44.44,0,0,1,.12-.36.72.72,0,0,1,.43-.1h1.12v-.41h-.53a.57.57,0,0,1-.44-.12.54.54,0,0,1-.12-.42v-.33h-.91v1.41a4.24,4.24,0,0,1-.36,1.72.26.26,0,0,1-.33.16h0a.25.25,0,0,1-.14-.33h0a.17.17,0,0,1,0-.1,3.24,3.24,0,0,0,.31-1.47V58.52c0-.36.16-.51.52-.51h1.59v-.24a.21.21,0,0,1,.2-.23h.05c.16,0,.25.08.25.23V58h2.1c.14,0,.21.09.21.23s-.07.24-.21.24h-.8V59h.85a.21.21,0,0,1,.24.19.06.06,0,0,1,0,0A.24.24,0,0,1,90,59.48Zm-3.43-1h-.72c-.1,0-.14.05-.14.15V59h.86Zm2.09,0H87V59h1.63Zm0,1H87v.31c0,.09,0,.12.15.12h1.33c.08,0,.13,0,.13-.14Z" style="fill:#1d1d1b"/><path d="M93.09,60.74c-.11.06-.22,0-.3-.11a.91.91,0,0,1-.1-.2h-.3v2.25c0,.16-.1.24-.26.25a.23.23,0,0,1-.26-.25V60.51h-.78a.22.22,0,0,1-.24-.22v0A.22.22,0,0,1,91,60h.25a5.47,5.47,0,0,0,.41-.54,7.79,7.79,0,0,0-.63-.51L91,58.91c-.1-.07-.1-.18,0-.3a.19.19,0,0,1,.26-.09h0l.16.09a6.72,6.72,0,0,0,.4-.75.28.28,0,0,1,.33-.18.23.23,0,0,1,.12.31v0a5.81,5.81,0,0,1-.47.89c.08.06.15.13.23.18a6.12,6.12,0,0,0,.31-.56c.07-.13.2-.24.35-.16a.24.24,0,0,1,.12.17.41.41,0,0,1,0,.22l-.14.25a7,7,0,0,1-.8,1h.62l-.06-.14a.18.18,0,0,1,0-.25l0,0a.22.22,0,0,1,.3.09h0a3.24,3.24,0,0,1,.36.75A.26.26,0,0,1,93.09,60.74Zm-1.56,1.65a.26.26,0,0,1-.29.21c-.27-.05-.22-.26-.18-.45A10.92,10.92,0,0,0,91.18,61a.22.22,0,0,1,.22-.22h0a.2.2,0,0,1,.24.17.07.07,0,0,1,0,0A8.09,8.09,0,0,1,91.53,62.39ZM93,62.1a.25.25,0,0,1-.27-.22.66.66,0,0,0-.09-.36,1.13,1.13,0,0,1-.09-.45c0-.07,0-.26.15-.29a.23.23,0,0,1,.26.2h0a.71.71,0,0,0,.08.34,1.88,1.88,0,0,1,.12.5A.23.23,0,0,1,93,62.1Zm2.92-3.71H93.18c-.15,0-.23-.1-.25-.26a.21.21,0,0,1,.23-.26h2.77a.23.23,0,0,1,.24.22v0a.26.26,0,0,1-.26.26Zm.1,4.38H93.15c-.15,0-.22-.1-.22-.26a.21.21,0,0,1,.23-.24h1.16v-1h-.88a.23.23,0,0,1-.25-.23v0c0-.15.07-.26.22-.26h2.37A.24.24,0,0,1,96,61v0a.27.27,0,0,1-.28.24h-.93v1H96a.24.24,0,0,1,.25.21v0C96.24,62.67,96.16,62.77,96,62.77Zm-2.25-2.16a.26.26,0,0,1-.33-.17h0a5.65,5.65,0,0,0-.29-.67.58.58,0,0,1-.11-.31.93.93,0,0,1,.14-.36c.07-.16.14-.31.19-.44a.25.25,0,0,1,.14-.16.24.24,0,0,1,.3.35.84.84,0,0,1-.14.29.68.68,0,0,0-.11.31,1.22,1.22,0,0,0,.16.37c.07.15.14.3.2.46A.27.27,0,0,1,93.75,60.61Zm1.07,0a.26.26,0,0,1-.32-.16h0c-.13-.33-.23-.56-.29-.68a.48.48,0,0,1-.11-.3.81.81,0,0,1,.12-.37c.07-.16.14-.3.19-.43a.27.27,0,0,1,.35-.18.23.23,0,0,1,.12.15.37.37,0,0,1,0,.21c0,.08-.08.18-.13.3a1.13,1.13,0,0,0-.11.3,1.14,1.14,0,0,0,.16.38,3.57,3.57,0,0,1,.19.45.24.24,0,0,1-.08.34l-.09,0Zm1.06,0a.26.26,0,0,1-.32-.16h0c-.13-.33-.22-.55-.29-.68a.51.51,0,0,1-.11-.31.92.92,0,0,1,.13-.36c.08-.16.14-.3.2-.43a.26.26,0,0,1,.14-.17.22.22,0,0,1,.3.09.17.17,0,0,0,0,.05.41.41,0,0,1,0,.22l-.13.29a.79.79,0,0,0-.12.3c0,.1.31.65.36.83a.26.26,0,0,1-.1.34.11.11,0,0,1-.08,0Z" style="fill:#1d1d1b"/><path d="M102,61.81a4.84,4.84,0,0,1-2-1h-.87a4.69,4.69,0,0,1-.94.66h1.08a1.21,1.21,0,0,1,.1-.36.24.24,0,0,1,.25-.15.23.23,0,0,1,.21.22c0,.12-.07.17-.08.29h1.11a.44.44,0,0,1,.47.4v0c0,.65-.16,1-.59,1a3.21,3.21,0,0,1-.88-.08c-.15,0-.24-.07-.24-.21a.23.23,0,0,1,.23-.23h0l.7.09c.19,0,.26-.17.27-.48,0-.11,0-.16-.18-.16H99.56a2.6,2.6,0,0,1-2.08,1,.23.23,0,0,1-.29-.15.06.06,0,0,1,0,0c0-.14.08-.22.25-.24A2.63,2.63,0,0,0,99,61.79h-.84c-.19,0-.29-.1-.28-.27a3.75,3.75,0,0,1-.77.28.23.23,0,0,1-.3-.12v0a.23.23,0,0,1,.19-.28h0a4.56,4.56,0,0,0,1.44-.65H97a.17.17,0,0,1-.19-.17v0a.19.19,0,0,1,.2-.21h1.85a1.42,1.42,0,0,0,.2-.22H97.87c-.26,0-.41-.14-.41-.36V59c0-.28.22-.36.45-.36h.28v-.25H97.07c-.15,0-.24-.08-.24-.21s.09-.2.24-.2h1.12v-.19a.23.23,0,0,1,.23-.23h0a.24.24,0,0,1,.25.23h0V58h.58a.21.21,0,0,1,.25.16.22.22,0,0,1-.16.25.14.14,0,0,1-.09,0h-.58v.25h1.75v-.25h-.57c-.15,0-.24-.08-.24-.21s.09-.2.24-.2h.57v-.19a.23.23,0,0,1,.23-.23h0a.24.24,0,0,1,.25.23h0V58H102a.21.21,0,0,1,.25.16.22.22,0,0,1-.16.25.14.14,0,0,1-.09,0H100.9v.25h.32a.39.39,0,0,1,.44.32v.79c0,.3-.16.4-.41.4H99.59l-.17.2H102a.23.23,0,0,1,.24.2h0a.2.2,0,0,1-.2.2h-1.4a4.43,4.43,0,0,0,1.49.57.24.24,0,0,1,.2.27v0C102.22,61.84,102.14,61.85,102,61.81Zm-.82-2.25H97.93v.18s0,.07.11.07h3.1v-.13Zm0-.51V59a.28.28,0,0,0-.13,0h-3c-.13,0-.16,0-.16.11v.13h3.25Z" style="fill:#1d1d1b"/><path d="M30.67,69.58V65.29h1.9a3,3,0,0,1,.88.11.94.94,0,0,1,.47.41,1.25,1.25,0,0,1,.18.65,1.15,1.15,0,0,1-.29.77,1.6,1.6,0,0,1-.92.4,1.41,1.41,0,0,1,.35.21,5.08,5.08,0,0,1,.47.57l.75,1.17h-.72l-.57-.89a6.19,6.19,0,0,0-.41-.59,1.33,1.33,0,0,0-.29-.29.85.85,0,0,0-.26-.11,1.6,1.6,0,0,0-.31,0h-.66v1.9Zm.57-2.4h1.22a1.83,1.83,0,0,0,.61-.08.63.63,0,0,0,.33-.25.67.67,0,0,0,.12-.39.68.68,0,0,0-.22-.5,1,1,0,0,0-.7-.2H31.24Z" style="fill:#1d1d1b"/><path d="M37.06,68.58l.54.07a1.29,1.29,0,0,1-.48.74,1.37,1.37,0,0,1-.89.26,1.39,1.39,0,0,1-1.08-.42,1.59,1.59,0,0,1-.4-1.18,1.67,1.67,0,0,1,.41-1.21,1.35,1.35,0,0,1,1-.44,1.32,1.32,0,0,1,1,.43A1.68,1.68,0,0,1,37.67,68v.14H35.3a1.15,1.15,0,0,0,.29.79.83.83,0,0,0,.65.27.88.88,0,0,0,.49-.15A1.06,1.06,0,0,0,37.06,68.58Zm-1.73-.85h1.73a1.13,1.13,0,0,0-.2-.59.79.79,0,0,0-.65-.3.81.81,0,0,0-.61.24A.85.85,0,0,0,35.33,67.73Z" style="fill:#1d1d1b"/><path d="M38.39,69.58v-2.7h-.47v-.41h.47v-.33a1.19,1.19,0,0,1,.06-.46.69.69,0,0,1,.22-.34,1,1,0,0,1,.54-.12,2.72,2.72,0,0,1,.49,0l0,.46h-.31a.45.45,0,0,0-.34.1.54.54,0,0,0-.1.39v.28h.61v.41h-.62v2.7Z" style="fill:#1d1d1b"/><path d="M42.06,68.58l.55.07a1.47,1.47,0,0,1-.48.74,1.37,1.37,0,0,1-.89.26,1.42,1.42,0,0,1-1.09-.42,1.65,1.65,0,0,1-.4-1.18,1.67,1.67,0,0,1,.41-1.21,1.35,1.35,0,0,1,1-.44,1.32,1.32,0,0,1,1,.43A1.72,1.72,0,0,1,42.67,68v.14H40.3a1.2,1.2,0,0,0,.29.79.83.83,0,0,0,.65.27.89.89,0,0,0,.5-.15A1.19,1.19,0,0,0,42.06,68.58Zm-1.73-.85h1.74a1.13,1.13,0,0,0-.2-.59.82.82,0,0,0-.66-.3.85.85,0,0,0-.61.24A1,1,0,0,0,40.33,67.73Z" style="fill:#1d1d1b"/><path d="M43.26,69.58V66.47h.48v.47a1.16,1.16,0,0,1,.33-.43.58.58,0,0,1,.34-.11,1,1,0,0,1,.54.17l-.18.49a.79.79,0,0,0-.39-.11.5.5,0,0,0-.31.1.61.61,0,0,0-.19.29,1.81,1.81,0,0,0-.09.61v1.63Z" style="fill:#1d1d1b"/><path d="M45.26,69.58V66.47h.47v.47a1.41,1.41,0,0,1,.34-.43.58.58,0,0,1,.34-.11,1,1,0,0,1,.54.17l-.18.49a.79.79,0,0,0-.39-.11.5.5,0,0,0-.31.1.48.48,0,0,0-.19.29,1.81,1.81,0,0,0-.09.61v1.63Z" style="fill:#1d1d1b"/><path d="M49.39,68.58l.55.07a1.47,1.47,0,0,1-.48.74,1.61,1.61,0,0,1-2-.16,1.59,1.59,0,0,1-.4-1.18,1.68,1.68,0,0,1,.4-1.21,1.38,1.38,0,0,1,1-.44,1.32,1.32,0,0,1,1,.43,1.72,1.72,0,0,1,.4,1.19v.14H47.67A1.2,1.2,0,0,0,48,69a.88.88,0,0,0,.65.27.82.82,0,0,0,.5-.15A1,1,0,0,0,49.39,68.58Zm-1.72-.85h1.74a1.13,1.13,0,0,0-.2-.59A.88.88,0,0,0,48,67.05l0,0A1,1,0,0,0,47.67,67.73Z" style="fill:#1d1d1b"/><path d="M52.67,69.58v-.39a1,1,0,0,1-.87.46,1.27,1.27,0,0,1-.69-.2,1.47,1.47,0,0,1-.48-.57,2.25,2.25,0,0,1,0-1.69,1.12,1.12,0,0,1,.46-.59,1.32,1.32,0,0,1,.7-.2,1,1,0,0,1,.85.43V65.29h.53v4.29ZM51,68a1.29,1.29,0,0,0,.25.89.74.74,0,0,0,.6.3.76.76,0,0,0,.59-.28,1.34,1.34,0,0,0,.24-.87,1.46,1.46,0,0,0-.25-.93.75.75,0,0,0-.6-.3.67.67,0,0,0-.59.29A1.31,1.31,0,0,0,51,68Z" style="fill:#1d1d1b"/><path d="M56.09,69.58H55.6V65.29h.53v1.53A1,1,0,0,1,57,66.4a1.29,1.29,0,0,1,.54.12,1.06,1.06,0,0,1,.43.32,1.89,1.89,0,0,1,.26.51,2.23,2.23,0,0,1,.09.63,1.8,1.8,0,0,1-.4,1.24,1.23,1.23,0,0,1-.94.43,1,1,0,0,1-.87-.46Zm0-1.58a1.61,1.61,0,0,0,.15.81.75.75,0,0,0,.67.41.77.77,0,0,0,.6-.3,1.79,1.79,0,0,0,0-1.79.72.72,0,0,0-.59-.29.71.71,0,0,0-.59.3A1.26,1.26,0,0,0,56.09,68Z" style="fill:#1d1d1b"/><path d="M58.92,70.78l-.06-.49h.3a.57.57,0,0,0,.28-.06.55.55,0,0,0,.18-.16c.06-.13.11-.26.16-.39v-.13l-1.11-3.08h.57l.65,1.8c.08.23.16.47.22.72.06-.24.14-.47.22-.7L61,66.47h.52l-1.18,3.17c-.09.24-.19.47-.3.7a1.18,1.18,0,0,1-.32.38.68.68,0,0,1-.43.13A1.16,1.16,0,0,1,58.92,70.78Z" style="fill:#1d1d1b"/><path d="M63.67,69.58V65.29h.85l1,3,.21.64a3.23,3.23,0,0,1,.22-.69l1-3h.77v4.29h-.55V66l-1.25,3.59h-.51l-1.24-3.65v3.65Z" style="fill:#1d1d1b"/><path d="M68.4,68.65l.52-.08a.7.7,0,0,0,.24.48,1,1,0,0,0,1.1,0,.45.45,0,0,0,.18-.34.34.34,0,0,0-.16-.29,2.81,2.81,0,0,0-.54-.17,5.34,5.34,0,0,1-.8-.26.74.74,0,0,1-.34-.29.79.79,0,0,1-.12-.42.67.67,0,0,1,.1-.39.73.73,0,0,1,.26-.29,1.26,1.26,0,0,1,.33-.16,2.07,2.07,0,0,1,.5-.06,1.8,1.8,0,0,1,.64.11.89.89,0,0,1,.41.28,1,1,0,0,1,.18.48l-.51.08a.68.68,0,0,0-.21-.38.73.73,0,0,0-.47-.13.78.78,0,0,0-.52.12.33.33,0,0,0-.16.28.21.21,0,0,0,.07.18.48.48,0,0,0,.2.14l.47.14q.39.1.78.24a.91.91,0,0,1,.34.28.79.79,0,0,1,.13.45,1,1,0,0,1-.15.5,1.13,1.13,0,0,1-.45.36,1.82,1.82,0,0,1-.65.12,1.4,1.4,0,0,1-.93-.25A1.12,1.12,0,0,1,68.4,68.65Z" style="fill:#1d1d1b"/><path d="M71.76,69.58V69h.6v.6Z" style="fill:#1d1d1b"/><path d="M77,67.9v-.5h1.82V69a3.44,3.44,0,0,1-.87.5,2.58,2.58,0,0,1-.91.17,2.41,2.41,0,0,1-1.15-.27,1.71,1.71,0,0,1-.78-.79,2.26,2.26,0,0,1-.27-1.14,2.48,2.48,0,0,1,.27-1.17,1.64,1.64,0,0,1,.75-.81A2.32,2.32,0,0,1,77,65.23a2.24,2.24,0,0,1,.85.15,1.46,1.46,0,0,1,.59.42,2,2,0,0,1,.32.7l-.51.14a1.64,1.64,0,0,0-.24-.52,1.12,1.12,0,0,0-.41-.3,1.81,1.81,0,0,0-1.27,0,1.21,1.21,0,0,0-.46.31,1.73,1.73,0,0,0-.27.43,2.12,2.12,0,0,0-.16.86,2,2,0,0,0,.2,1,1.28,1.28,0,0,0,.57.58,1.88,1.88,0,0,0,.81.18,2,2,0,0,0,.72-.14,1.86,1.86,0,0,0,.53-.3V68Z" style="fill:#1d1d1b"/><path d="M79.61,65.9v-.61h.53v.61Zm0,3.68V66.47h.53v3.11Z" style="fill:#1d1d1b"/><path d="M80.94,69.58V66.47h.48v.44a1.09,1.09,0,0,1,1-.51,1.54,1.54,0,0,1,.51.1,1,1,0,0,1,.36.27,1.34,1.34,0,0,1,.16.39,4.34,4.34,0,0,1,0,.51v1.91h-.53V67.69a2,2,0,0,0-.06-.48.55.55,0,0,0-.19-.21.81.81,0,0,0-.37-.09.86.86,0,0,0-.58.21,1,1,0,0,0-.24.81v1.7Z" style="fill:#1d1d1b"/><path d="M84.28,69.58V66.47h.47v.44a1.11,1.11,0,0,1,1-.51,1.6,1.6,0,0,1,.52.1.85.85,0,0,1,.35.27,1.13,1.13,0,0,1,.17.39,4.34,4.34,0,0,1,0,.51v1.91h-.53V67.69a2,2,0,0,0-.06-.48A.56.56,0,0,0,86,67a.81.81,0,0,0-.37-.09.86.86,0,0,0-.58.21,1.09,1.09,0,0,0-.25.81v1.7Z" style="fill:#1d1d1b"/><path d="M87.59,70.78l-.06-.49h.3a.72.72,0,0,0,.29-.06.44.44,0,0,0,.17-.16,2.66,2.66,0,0,0,.16-.39.29.29,0,0,1,0-.13l-1.18-3.12h.56l.65,1.8c.09.23.16.47.23.72.06-.24.13-.47.21-.7l.75-1.78h.53L89,69.64a6.07,6.07,0,0,1-.29.7,1.1,1.1,0,0,1-.33.38.68.68,0,0,1-.43.13A1.16,1.16,0,0,1,87.59,70.78Z" style="fill:#1d1d1b"/><path d="M92.33,69.58V65.29h.86l1,3c.1.28.17.49.21.64a2.86,2.86,0,0,1,.23-.69l1-3h.76v4.29h-.55V66l-1.17,3.58h-.51l-1.24-3.65v3.65Z" style="fill:#1d1d1b"/><path d="M96.88,69.58l1.64-4.29h.62l1.75,4.29h-.64l-.5-1.3H98l-.47,1.3Zm1.23-1.76h1.46l-.45-1.19c-.13-.36-.24-.66-.3-.89a7.66,7.66,0,0,1-.23.82Z" style="fill:#1d1d1b"/><path d="M101.34,69.58V65.29h.59l2.25,3.37V65.29h.55v4.29h-.59l-2.25-3.37v3.37Z" style="fill:#1d1d1b"/><path d="M105.75,69.58V69h.6v.6a1.41,1.41,0,0,1-.11.54.82.82,0,0,1-.38.31l-.14-.22A.47.47,0,0,0,106,70a.85.85,0,0,0,.09-.41Z" style="fill:#1d1d1b"/><path d="M112.08,68.08l.57.14a2,2,0,0,1-.65,1.07,1.8,1.8,0,0,1-1.13.37,2,2,0,0,1-1.13-.29,1.74,1.74,0,0,1-.66-.81,2.89,2.89,0,0,1-.23-1.16,2.48,2.48,0,0,1,.26-1.17,1.73,1.73,0,0,1,.73-.76,2.15,2.15,0,0,1,1-.25,1.65,1.65,0,0,1,1.7,1.25l-.56.13a1.37,1.37,0,0,0-.44-.68,1.15,1.15,0,0,0-.71-.22,1.35,1.35,0,0,0-.83.24,1.25,1.25,0,0,0-.47.64,2.27,2.27,0,0,0-.13.82,2.44,2.44,0,0,0,.16,1,1.18,1.18,0,0,0,.49.61,1.43,1.43,0,0,0,.73.2,1.23,1.23,0,0,0,.89-.31A1.49,1.49,0,0,0,112.08,68.08Z" style="fill:#1d1d1b"/><path d="M113.28,69.58V65.29h.53v1.54a1.15,1.15,0,0,1,.93-.43,1.26,1.26,0,0,1,.6.14.83.83,0,0,1,.37.37,1.84,1.84,0,0,1,.11.7v2h-.53v-2a.89.89,0,0,0-.17-.57.68.68,0,0,0-.49-.18.83.83,0,0,0-.44.12.63.63,0,0,0-.29.33,1.39,1.39,0,0,0-.09.57v1.7Z" style="fill:#1d1d1b"/><path d="M118.67,69.2a2,2,0,0,1-.57.35,1.69,1.69,0,0,1-.58.1,1.16,1.16,0,0,1-.85-.25.82.82,0,0,1-.27-.64.86.86,0,0,1,.38-.72,1.19,1.19,0,0,1,.38-.17,3.4,3.4,0,0,1,.46-.08,5,5,0,0,0,.94-.18v-.14a.62.62,0,0,0-.15-.45.94.94,0,0,0-.6-.18.87.87,0,0,0-.55.13.77.77,0,0,0-.26.46l-.52-.07a1.19,1.19,0,0,1,.23-.53,1,1,0,0,1,.47-.32,2.05,2.05,0,0,1,.7-.11,1.61,1.61,0,0,1,.65.1.85.85,0,0,1,.37.23,1,1,0,0,1,.16.36,4,4,0,0,1,0,.49v.7a7.22,7.22,0,0,0,0,.93,1,1,0,0,0,.13.37h-.55A.81.81,0,0,1,118.67,69.2Zm0-1.18a3.7,3.7,0,0,1-.86.2,1.72,1.72,0,0,0-.46.11.34.34,0,0,0-.2.17.44.44,0,0,0-.08.25.39.39,0,0,0,.16.35.71.71,0,0,0,.47.14,1.16,1.16,0,0,0,.54-.13.84.84,0,0,0,.35-.37,1.32,1.32,0,0,0,.08-.52Z" style="fill:#1d1d1b"/><path d="M120,65.9v-.61h.53v.61Zm0,3.68V66.47h.53v3.11Z" style="fill:#1d1d1b"/><path d="M121.28,69.58V66.47h.48v.47a1.16,1.16,0,0,1,.33-.43.58.58,0,0,1,.34-.11,1,1,0,0,1,.54.17l-.18.49a.79.79,0,0,0-.39-.11.5.5,0,0,0-.31.1.61.61,0,0,0-.19.29,1.81,1.81,0,0,0-.09.61v1.63Z" style="fill:#1d1d1b"/><path d="M123.29,69.58V66.47h.47v.44a1.15,1.15,0,0,1,.39-.37,1,1,0,0,1,.52-.14,1,1,0,0,1,.57.15.69.69,0,0,1,.31.4,1.12,1.12,0,0,1,1-.55.94.94,0,0,1,.71.26,1.12,1.12,0,0,1,.25.79v2.13H127v-2a1.7,1.7,0,0,0,0-.45.6.6,0,0,0-.19-.23.72.72,0,0,0-.32-.08.68.68,0,0,0-.54.22.9.9,0,0,0-.22.7v1.8h-.53v-2a1.08,1.08,0,0,0-.12-.53.54.54,0,0,0-.43-.17.73.73,0,0,0-.41.12.65.65,0,0,0-.27.34,1.8,1.8,0,0,0-.09.65v1.61Z" style="fill:#1d1d1b"/><path d="M130.31,69.2a2,2,0,0,1-.56.35,1.69,1.69,0,0,1-.58.1,1.12,1.12,0,0,1-.79-.25.82.82,0,0,1-.27-.64.76.76,0,0,1,.1-.41.8.8,0,0,1,.27-.31,1.46,1.46,0,0,1,.38-.17,3.55,3.55,0,0,1,.47-.08,5,5,0,0,0,.94-.18v-.14a.62.62,0,0,0-.15-.45.87.87,0,0,0-.6-.18A.94.94,0,0,0,129,67a.77.77,0,0,0-.26.46l-.51-.07a1.15,1.15,0,0,1,.23-.53,1,1,0,0,1,.46-.32,2.15,2.15,0,0,1,.71-.11,1.61,1.61,0,0,1,.65.1.82.82,0,0,1,.36.23,1,1,0,0,1,.17.36,4,4,0,0,1,0,.49v.7a4.82,4.82,0,0,0,0,.93,1,1,0,0,0,.13.37h-.55A1,1,0,0,1,130.31,69.2Zm0-1.18a3.7,3.7,0,0,1-.86.2,1.72,1.72,0,0,0-.46.11.39.39,0,0,0-.21.17.46.46,0,0,0,.09.6.68.68,0,0,0,.46.14,1.06,1.06,0,0,0,.55-.13.84.84,0,0,0,.35-.37,1.53,1.53,0,0,0,.08-.52Z" style="fill:#1d1d1b"/><path d="M131.67,69.58V66.47h.48v.44a1.09,1.09,0,0,1,1-.51,1.54,1.54,0,0,1,.51.1,1,1,0,0,1,.36.27,1.34,1.34,0,0,1,.16.39,4.34,4.34,0,0,1,0,.51v1.91h-.51V67.69a2,2,0,0,0-.06-.48.51.51,0,0,0-.22-.26.81.81,0,0,0-.37-.09.86.86,0,0,0-.58.21,1,1,0,0,0-.24.81v1.7Z" style="fill:#1d1d1b"/><path d="M47.6,49.23a3.44,3.44,0,0,0,2.58,1.08,3.49,3.49,0,0,0,2.56-1.05,4.56,4.56,0,0,0,1.07-3.36,4.56,4.56,0,0,0-1.08-3.38,3.56,3.56,0,0,0-2.55-1A3.44,3.44,0,0,0,47.6,42.6a4.59,4.59,0,0,0-1,3.34,4.56,4.56,0,0,0,1,3.33M47,42.5a4.64,4.64,0,0,1,3.26-1.22A4.57,4.57,0,0,1,55,45.71V46a4.59,4.59,0,0,1-1.49,3.59,4.68,4.68,0,0,1-3.22,1.19,4.54,4.54,0,0,1-3.35-1.32,5.1,5.1,0,0,1,.09-7m15.61-1.11.86.22s.41.11.52,0a.49.49,0,0,0,.27-.31h.2l0,2.22h-.25c-.18-.62-.1-.55-.38-.93a3.08,3.08,0,0,0-2.54-1.05A3.33,3.33,0,0,0,58.44,43a4.19,4.19,0,0,0-.77,3.14,4.41,4.41,0,0,0,1,3,3.81,3.81,0,0,0,2.75,1.1,3.67,3.67,0,0,0,1.91-.51,3.12,3.12,0,0,0,.81-.59l.25.25a2.6,2.6,0,0,1-.81.74,4.64,4.64,0,0,1-5.91-.72,4.79,4.79,0,0,1-1.17-3.29,4.9,4.9,0,0,1,1.17-3.41,4.46,4.46,0,0,1,3.39-1.56,4.19,4.19,0,0,1,1.49.2m16,5.18-1.44-4.09-1.29,4.09Zm-5.29,4.08v-.25a1.31,1.31,0,0,0,.87-.4c.17-.24.32-.93.72-2l2.3-6.74h.6l2.73,7.67a5,5,0,0,0,.5,1.11,1.41,1.41,0,0,0,.73.31v.25H78.87v-.25a2.68,2.68,0,0,0,.74-.13c.11,0,.16-.18.16-.38a2.25,2.25,0,0,0-.06-.36,4.88,4.88,0,0,0-.18-.54l-.75-2.11H75.67c-.34.91-.66,2.23-.73,2.44a1.86,1.86,0,0,0-.09.47.5.5,0,0,0,.26.49.56.56,0,0,0,.4.12v.25Zm9.2-2.19c.21.63.12.73.41,1.1a2.35,2.35,0,0,0,1.92.9A2.16,2.16,0,0,0,86.11,50a1.76,1.76,0,0,0,.44-1.35A1.67,1.67,0,0,0,86,47.47a7.36,7.36,0,0,1-1.37-.9c-1-.79-2-1.18-2.15-2.45a2.34,2.34,0,0,1,.61-2,2.83,2.83,0,0,1,2.8-.71c.27,0,.41.2.69.15a.25.25,0,0,0,.21-.06.51.51,0,0,0,.09-.26h.26l-.07,2.07H86.9c-.21-.89-.29-1-.81-1.38A1.51,1.51,0,0,0,85,41.64a1.72,1.72,0,0,0-1.64,1.42,2,2,0,0,0,.19,1.28c.6,1.34,2.83,1.44,3.62,2.87a1.65,1.65,0,0,1,.36,1A2.4,2.4,0,0,1,86.8,50a2.61,2.61,0,0,1-1.91.74,3.38,3.38,0,0,1-1.22-.22,4.79,4.79,0,0,0-.73-.24c-.15,0-.31-.12-.36,0a1.93,1.93,0,0,0,0,.48H82.3V48.42Zm6.45,1.94a1.24,1.24,0,0,0,.74-.25,1.91,1.91,0,0,0,.16-1V42.94a2,2,0,0,0-.14-.94,1,1,0,0,0-.74-.27v-.26h2.74v.26a1,1,0,0,0-.73.27,1.82,1.82,0,0,0-.17,1v6.17a1.82,1.82,0,0,0,.17,1,1.17,1.17,0,0,0,.73.25v.25H88.94Zm15.08,0c.58-.06.6-.19.76-.38a2.84,2.84,0,0,0,.19-1.41V42.82l-.56-.59a1.69,1.69,0,0,0-.52-.44,1.06,1.06,0,0,0-.46-.1v-.26h1.75l6.71,7.65V43.47a2.23,2.23,0,0,0-.31-1.47c-.15-.15-.2-.24-.71-.29v-.26h2.38v.26a.85.85,0,0,0-.77.39c-.18.2-.18.71-.18,1.44v7.25H112l-6.79-7.6v5.4a2.23,2.23,0,0,0,.33,1.49,1.68,1.68,0,0,0,1,.3v.25H104Zm-32.45-9,.86.22s.41.11.53,0a.63.63,0,0,0,.27-.31h.2l-.06,2.22h-.25c-.17-.62-.09-.55-.38-.93a3.08,3.08,0,0,0-2.54-1.05A3.34,3.34,0,0,0,67.42,43a4.25,4.25,0,0,0-.81,3.16,4.48,4.48,0,0,0,1,3,3.93,3.93,0,0,0,4.67.59,3.12,3.12,0,0,0,.81-.59l.24.25a2.46,2.46,0,0,1-.8.74,4.43,4.43,0,0,1-2.44.74,4.33,4.33,0,0,1-3.42-1.48,4.73,4.73,0,0,1-1.18-3.29,5,5,0,0,1,1.18-3.41,4.46,4.46,0,0,1,3.39-1.56,4.19,4.19,0,0,1,1.49.2m42.59,7.07c.21.63.13.73.42,1.1a2.31,2.31,0,0,0,1.92.9,2.13,2.13,0,0,0,1.3-.42,1.76,1.76,0,0,0,.44-1.35,1.63,1.63,0,0,0-.55-1.19,7.36,7.36,0,0,1-1.37-.9c-1-.79-2-1.18-2.15-2.45a2.34,2.34,0,0,1,.61-2,2.83,2.83,0,0,1,2.8-.71c.27,0,.42.2.69.15a.28.28,0,0,0,.22-.06c.06-.06,0-.11.08-.26h.26l-.07,2.07h-.17c-.21-.89-.29-1-.81-1.38a1.53,1.53,0,0,0-1.09-.28A1.71,1.71,0,0,0,115,43.06a2,2,0,0,0,.19,1.28c.6,1.34,2.83,1.44,3.62,2.87a1.73,1.73,0,0,1,.35,1,2.43,2.43,0,0,1-.75,1.82,2.65,2.65,0,0,1-1.92.74,3.46,3.46,0,0,1-1.23-.25,4.79,4.79,0,0,0-.73-.24c-.15,0-.31-.12-.36,0a1.93,1.93,0,0,0,0,.48h-.28V48.42Zm-19,.81a3.63,3.63,0,0,0,5.13,0h0a4.56,4.56,0,0,0,1.07-3.36,4.56,4.56,0,0,0-1.08-3.38,3.62,3.62,0,0,0-5.13,0,4.6,4.6,0,0,0-1,3.34,4.59,4.59,0,0,0,1,3.33m-.62-6.77a4.72,4.72,0,0,1,8,3.57,4.64,4.64,0,0,1-1.49,3.59,4.7,4.7,0,0,1-3.23,1.19,4.56,4.56,0,0,1-3.35-1.32A4.7,4.7,0,0,1,93.14,46a4.64,4.64,0,0,1,1.45-3.57" style="fill:#69516b"/><path d="M79,18.85a2.43,2.43,0,0,1-.07-.85c.09-.16.22-.17.44-.17s1.34,0,1.71-.08a7.48,7.48,0,0,1,1.34-.06,3.21,3.21,0,0,0,.82.07,1.78,1.78,0,0,1,.69-.1,3.35,3.35,0,0,0,.89.12,3.75,3.75,0,0,1,.67,0c.12,0,.25.24.27.33a1.29,1.29,0,0,1-.06.48,4.57,4.57,0,0,0,0,.74v6.74c0,.27.08,1.47.1,1.84a10.65,10.65,0,0,1,0,1.13,8.34,8.34,0,0,0,0,1c0,.29.07.57.09.89s-.18,2.07-.18,2.53v1.66c0,.35.1,1.11.11,1.32a.59.59,0,0,1-.16.48,1.41,1.41,0,0,1-.73.11,2.78,2.78,0,0,0-.86-.11c-.25,0-.44.17-.62.17h-1c-.23,0-1.08-.09-1.35-.09a5.68,5.68,0,0,0-.92,0c-.27.05-.84.16-1,0a1.89,1.89,0,0,1-.41-.87v-5c0-.39-.06-1,0-1.29s.12-2.31.13-2.6,0-1.59,0-1.78a4.82,4.82,0,0,0,0-.76,3.75,3.75,0,0,1,0-.67c0-.15,0-2.41,0-3s0-1.67,0-1.85a2.81,2.81,0,0,1,0-.41m2.27-1.47s-.65-.23-1.09-.33-1.32-.06-1.53.31a3.73,3.73,0,0,0-.32,2,7,7,0,0,0,.18,1.93,1.47,1.47,0,0,1,.09.88c-.09.16-.22.18-.22.39v.91a11.21,11.21,0,0,0,0,1.42c0,.27.06.37.06.57v4a5.88,5.88,0,0,0,.06,1,6.42,6.42,0,0,1,.09.87,2.49,2.49,0,0,0,.08.61,1.09,1.09,0,0,1,0,.44.89.89,0,0,0-.12.39c0,.21,0,.37,0,.48V37c0,.24-.07.35.14.48s.24.1.35.17a.5.5,0,0,0,.44.13c.18-.06.08-.09.28-.07s1,.12,1.74.14a9.61,9.61,0,0,0,2-.09,3.66,3.66,0,0,1,1.22-.31c.37,0,1,.41,1.21.41a2.19,2.19,0,0,0,.76-.08c.11-.08.19-.12.21-.23s0-1,0-1.21,0-.83.08-1a5.55,5.55,0,0,0-.13-.71,6.7,6.7,0,0,1,0-1V30.48c0-.28-.09-.52-.09-.69s-.1-1.6-.16-1.9a6.41,6.41,0,0,1-.11-.88c0-.16.13-.33.14-.47s0-.66,0-1-.16-1.05-.13-1.16a3.2,3.2,0,0,0,.14-.75,1.34,1.34,0,0,0-.09-.37,5.33,5.33,0,0,1,.09-.66,4.06,4.06,0,0,0-.09-.7v-.52a10.84,10.84,0,0,0,0-1.14,1.32,1.32,0,0,1-.08-.33v-1.1a7,7,0,0,1,.09-.7.79.79,0,0,0-.38-.65,1.65,1.65,0,0,0-1-.34,5.57,5.57,0,0,0-1,0,1.47,1.47,0,0,0-.92-.12l-.57.07c-.17,0-.16-.13-.57,0a5.69,5.69,0,0,0-.68.26Zm2.3,4h.39c.17,0,.15.06.24.13a.8.8,0,0,0,.22.13s.17.08.1.08a.89.89,0,0,1-.28-.07c-.07,0-.11-.06-.16-.06h-.16l-.18-.1-.13-.06h0m-1.14-.92s0-.39-.14-.47a3.36,3.36,0,0,0-.74-.24,1.15,1.15,0,0,0-.37,0h-.45a.67.67,0,0,1,.53-.17c.25,0,.32.1.43.1h2.22c.29,0,.4,0,.39.06s-.25.11-.4.11a2.67,2.67,0,0,0-.4,0L83,20c-.09,0-.21.15-.3.22a.23.23,0,0,0-.11.2,1.28,1.28,0,0,0,0,.55c.06.13.16.29.27.3a1,1,0,0,1,.29.07.56.56,0,0,1,.21.17,3.08,3.08,0,0,1-.43,0h-.36l-.06.31a2.76,2.76,0,0,0,0,.64.79.79,0,0,0,.13.45,1.27,1.27,0,0,1,.23.41,2.26,2.26,0,0,0,.17.35c.08.16.39.64.44.72s.23.26.28.34L84,25a3.74,3.74,0,0,0,.32.49,2.83,2.83,0,0,1,.2.28c0,.05.14.26.09.27a.35.35,0,0,1-.25-.14.87.87,0,0,0-.17-.21s-.08,0-.11-.16a.48.48,0,0,0-.15-.22,4.38,4.38,0,0,1-.43-.63,2.47,2.47,0,0,0-.1-.29c0-.07-.19-.26-.26-.37a5.6,5.6,0,0,1-.31-.49,1.1,1.1,0,0,0-.14-.21,1.46,1.46,0,0,0-.21-.28c-.1,0-.1-.1-.19,0a.84.84,0,0,0-.21.35,2.11,2.11,0,0,1-.31.36,2.49,2.49,0,0,0-.19.3,2.92,2.92,0,0,1-.14.31c0,.06-.17.23-.21.31a.73.73,0,0,0-.07.29c0,.06-.17.18-.26.3a2.48,2.48,0,0,0-.18.24c-.06.1-.17.12-.24.23l-.21.28a.21.21,0,0,1,0-.26l.25-.27a.25.25,0,0,0,.12-.11c0-.07,0-.07.06-.14s.16-.16.17-.22a.61.61,0,0,0,0-.14s.19-.26.22-.32.16-.25.19-.33.11-.08.14-.15,0-.18.06-.28.28-.48.36-.66a2.26,2.26,0,0,1,.17-.35c0-.07.11-.13.11-.2v-.9c0-.06-.08-.09-.16-.09a.33.33,0,0,0-.24,0s-.07.11-.13.13-.18.12-.26.12a.62.62,0,0,0-.27,0s-.09.12-.14.14a.2.2,0,0,1-.12,0s0-.11.12-.14a.49.49,0,0,0,.19-.07.36.36,0,0,0,.23-.08.55.55,0,0,1,.22-.14,1.63,1.63,0,0,0,.38-.22,2.32,2.32,0,0,0,.31-.44,1.75,1.75,0,0,1,.07-.33m1.1,10.55a.11.11,0,0,0-.12.1h0a2.45,2.45,0,0,1-.15.65,1,1,0,0,1-.35.22,2,2,0,0,0-.42.2c-.08.05-.21.13-.21.19s0,.13.17.13h.47c.13,0,.21.21.25.32s.12.8.15,1a4.91,4.91,0,0,1,0,.86.49.49,0,0,1-.14.34.38.38,0,0,0-.08.27s0,.08.13,0a1.7,1.7,0,0,0,.22-.24.44.44,0,0,0,.1-.19.59.59,0,0,1,.23-.4.23.23,0,0,1,.29.12c.08.13.07.21.16.28s.15.1.17.18a.52.52,0,0,0,.13.28c.07.08.12.18.2.22s.07.16.15.18h.15s-.2-.51-.26-.6a12,12,0,0,1-.66-1.08c0-.17-.12-.2,0-.35s.29-.3.32-.36.07-.17,0-.18a.48.48,0,0,0-.29.06c-.1,0-.24.19-.27.2a.13.13,0,0,1-.13-.07.8.8,0,0,1-.14-.39,1.13,1.13,0,0,1,.17-.69,1,1,0,0,1,.57-.08h.41c.06,0,.11.17.16.16s0-.23,0-.35a.81.81,0,0,1,0-.31c0-.1,0-.16-.08-.13a4.66,4.66,0,0,1-.5.25,1.83,1.83,0,0,1-.4.05c-.1,0,0-.06-.06-.21a1.8,1.8,0,0,0-.1-.4v-.13a.38.38,0,0,0-.09-.15m-1.87,2.61s.17-.17.18-.27a.83.83,0,0,0-.07-.41c-.07-.13-.12-.22-.06-.34s.38.16.48.39a2.27,2.27,0,0,1,0,.9c0,.3-.06.8-.07,1a4.69,4.69,0,0,0,0,.75c0,.14,0,.26-.05.26s-.15,0-.19-.16a8.28,8.28,0,0,1,0-1.22,2.62,2.62,0,0,1,.12-.54c0-.15,0-.24-.08-.27l-.28-.07M81,31.48a.18.18,0,0,0-.19.08c-.09.12-.14.2-.24.21s-.25-.1-.26-.39a6.46,6.46,0,0,0,0-.88c0-.09-.09-.24-.19-.21a.36.36,0,0,0-.23.36,3.9,3.9,0,0,1,.18.67.93.93,0,0,1-.06.43c-.06.1-.07.16-.18.14a1.39,1.39,0,0,1-.43-.28c-.07-.08-.12-.22-.16-.13s.1.33.21.44a3.21,3.21,0,0,1,.49.55,1,1,0,0,1,0,.74,1.9,1.9,0,0,1-.33.65.56.56,0,0,0-.15.34c0,.08-.13.13-.08.14s.08,0,.16-.07.1,0,.19-.13.08-.19.15-.15a1.4,1.4,0,0,1,.24.69,3.11,3.11,0,0,1,0,.61c0,.17-.14.3-.11.37s.11.21.15.14.06-.49.1-.65.07-.91.12-1.07.11-.27.23-.22a.56.56,0,0,1,.26.17c.07.08.1.18.2.24s.11.15.2.17-.06-.29-.13-.38-.42-.46-.53-.63a1.45,1.45,0,0,1-.22-1,2.12,2.12,0,0,1,.33-.56,2.39,2.39,0,0,0,.22-.23c0-.06.07-.07.1-.12a.14.14,0,0,0,0-.09M84,29.59v.49a.6.6,0,0,0,.09.39c.09.13.19.15.18.24s0,.37-.07.38-.22.05-.25-.08-.06-.51-.1-.6a.84.84,0,0,1-.14-.41.57.57,0,0,1,.11-.28.15.15,0,0,1,.09-.06m-.2-1.16c-.16-.19-.29-.37-.17-.62s.31-.58.46-.62a.58.58,0,0,1,.59.31c.11.27.2.34.2.62a.59.59,0,0,1-.12.31c0,.06-.09.11-.06.18s0,.1,0,.17-.17.31-.11.42.16.23.15.33a.9.9,0,0,0,0,.17s.13.11.12.21-.07.15-.11.27a.36.36,0,0,1-.13.22s-.17.06-.17,0-.07-.14,0-.24a.65.65,0,0,0,.16-.32.88.88,0,0,0-.16-.32,1.06,1.06,0,0,0-.3-.26c-.06,0-.13.09-.14,0a1.22,1.22,0,0,0,0-.27c0-.08-.11-.2-.06-.23a1,1,0,0,1,.3,0c.08,0,.09-.13.21-.21s.2-.08.23-.18a2.94,2.94,0,0,0,0-.42.46.46,0,0,0-.08-.19l-.12-.21c-.06-.1-.1-.17-.19-.14s-.21.29-.25.4a2.09,2.09,0,0,0-.17.41,1.55,1.55,0,0,1-.07.23m-2.3,1a1,1,0,0,1-.33-.58,2.35,2.35,0,0,1,0-.53c0-.15.13-.18.15-.25s.11-.12,0-.21a1,1,0,0,0-.25-.26c-.08,0-.21-.12-.24,0a2.32,2.32,0,0,0,0,1.33.19.19,0,0,0,.11.2,3.58,3.58,0,0,1,.47.68,3.75,3.75,0,0,1,0,.82,1.57,1.57,0,0,0,.26.72c.07.09.24.28.31.25a.67.67,0,0,0,.24-.26.43.43,0,0,1,.05-.25,3.9,3.9,0,0,0,.19-.35.77.77,0,0,0-.14-.39c-.07-.07-.12-.13-.14,0s0,.47,0,.7a.22.22,0,0,1-.24.08.49.49,0,0,1-.3-.47v-.58c0-.05.21,0,.23-.09a6.64,6.64,0,0,0,.1-1,.54.54,0,0,0-.11-.42c-.11-.15-.24-.34-.3-.28s0,.3.07.4a2,2,0,0,1,0,.59c0,.09,0,.18-.1.18h-.13" style="fill:#69516b"/></g></g></g></svg>