<svg id="5a0dbb3b-2ba1-4d86-9753-a5c727f78f80" data-name="Layer 2" xmlns="http://www.w3.org/2000/svg" width="163.33" height="80" viewBox="0 0 163.33 80"><title>09</title><g id="543f0f3f-ef72-4cf3-9e99-28426e29536a" data-name="09"><g id="d04a9813-d734-42ab-9bd0-0d728c5dc45a" data-name="82b3b833-9293-4368-911c-15b0e2b249e1"><path d="M61.16,59.6a2.05,2.05,0,0,1-.57-.34c0,.16-.08.25-.23.25H59.17c-.18,0-.27-.08-.28-.23l-.27.2-.13.09a.25.25,0,0,1-.33,0v0c-.14-.23,0-.35.2-.46a1.41,1.41,0,0,0,.36-.27c.07-.07-.18-.13-.26-.21a.19.19,0,0,1-.08-.27l0,0a.22.22,0,0,1,.3-.06,2.26,2.26,0,0,1,.37.26,1.59,1.59,0,0,0,.34-.39h-.57c-.16,0-.16-.14-.16-.28s.07-.24.19-.24h.77c.2,0,.36.13.5.4l.07.1a2.38,2.38,0,0,0,.36-.35.22.22,0,0,1,.31,0h0a.24.24,0,0,1,0,.33h0a4.75,4.75,0,0,1-.4.38.62.62,0,0,0,.14.14,2.16,2.16,0,0,0,.41-.39.19.19,0,0,1,.28,0l0,0a.21.21,0,0,1,0,.3l0,0a2.59,2.59,0,0,1-.41.4,1.49,1.49,0,0,0,.3.18l.17.09a.25.25,0,0,1,.08.34A.23.23,0,0,1,61.16,59.6Zm0,2.93c-.81.11-1.72.17-2.75.24a.23.23,0,0,1-.27-.19v0a.23.23,0,0,1,.22-.24h.72a2.41,2.41,0,0,0-.11-.56c0-.2,0-.25.2-.3s.24,0,.29.21.07.41.13.6h.54a3.1,3.1,0,0,0,.15-.6.23.23,0,0,1,.26-.2h0a.21.21,0,0,1,.22.25v.07a2.17,2.17,0,0,1-.11.42h.45a.22.22,0,0,1,.26.17.22.22,0,0,1-.17.26h-.09Zm-.23-1.18h-2a.37.37,0,0,1-.42-.31.21.21,0,0,1,0-.11v-.76c0-.28.14-.41.42-.41h2a.38.38,0,0,1,.41.33v.84a.37.37,0,0,1-.31.42h-.1Zm-.07-1a.12.12,0,0,0-.1-.12h-1.7c-.09,0-.12,0-.12.12v.44c0,.08,0,.12.12.12h1.66a.11.11,0,0,0,.12-.1v0Zm-1-2a7.45,7.45,0,0,1-.6.65h1.11a5,5,0,0,1-.54-.67Zm2.59,4.2a.27.27,0,0,1-.29-.25h0a.25.25,0,0,1,.26-.25h0c.48,0,.71-.19.68-.66a1.74,1.74,0,0,0-.59-1.08.5.5,0,0,1-.18-.31.65.65,0,0,1,0-.39,3.4,3.4,0,0,1,.22-.66c.12-.33.18-.56.22-.69s.06-.21,0-.2h-.65c-.07,0-.11,0-.11.12v4.43a.24.24,0,0,1-.24.24.24.24,0,0,1-.24-.24h0V58.2q0-.6.54-.6h.78a.56.56,0,0,1,.48.2.53.53,0,0,1,0,.49l-.14.38a6.71,6.71,0,0,0-.42,1.24,1,1,0,0,0,.14.15,2.17,2.17,0,0,1,.66,1.21c.07.88-.37,1.34-1.18,1.31Z" style="fill:#1d1d1b"/><path d="M65.72,61.66h-1a.48.48,0,0,1-.47-.48v-3a.44.44,0,0,1,.38-.49h1.08a.46.46,0,0,1,.51.38v3.12a.49.49,0,0,1-.47.51Zm0-3.38a.12.12,0,0,0-.1-.12h-.77a.11.11,0,0,0-.12.1h0v1.16h1Zm0,1.63h-1v1.16a.12.12,0,0,0,.12.12h.83a.11.11,0,0,0,.12-.1v0Zm2.94,3a2.36,2.36,0,0,1-.75-.12.26.26,0,0,1-.23-.28.24.24,0,0,1,.24-.24H68a2.21,2.21,0,0,0,.58.11c.15,0,.28,0,.28-.2V61H67.3c-.14,1.09-1.09,1.6-2.1,1.81h-.09a.26.26,0,0,1-.21-.31.26.26,0,0,1,.21-.2,2.09,2.09,0,0,0,1.63-1,1.46,1.46,0,0,0,.11-.41V58.2a.46.46,0,0,1,.42-.51h1.59a.5.5,0,0,1,.55.46.17.17,0,0,1,0,.07v4.06c0,.45-.32.61-.75.61Zm.2-4.61c0-.07,0-.1-.11-.1H67.42c-.07,0-.1,0-.1.09v.82h1.57Zm0,1.3H67.32v.93h1.57Z" style="fill:#1d1d1b"/><path d="M72.49,58.31h-.73v.24h.63a.2.2,0,0,1,.21.17v0a.2.2,0,0,1-.21.19h-.63v.16A4.76,4.76,0,0,0,72.4,59a.21.21,0,0,1,.27.14v0c0,.13-.07.21-.22.24l-.7.13v.11c0,.11-.08.15-.21.17s-.23,0-.23-.14V59.6a4.74,4.74,0,0,0-.92.06.2.2,0,0,1-.23-.17v0a.22.22,0,0,1,.22-.22h.93V59H70.6a.21.21,0,0,1-.23-.19h0a.21.21,0,0,1,.23-.21h.72v-.24h-.9c-.12,0-.19-.08-.2-.21a.19.19,0,0,1,.19-.19h.91v-.15c0-.14.09-.2.22-.21a.18.18,0,0,1,.22.19V58h.73a.19.19,0,0,1,.2.16v0C72.67,58.23,72.67,58.31,72.49,58.31Zm2.77,2.5h-.47v.24c0,.23-.1.35-.32.35H71c-.12,0-.18-.08-.19-.2A.18.18,0,0,1,71,61h3.23s.07,0,.07-.11v-.08H70.42a.18.18,0,0,1-.21-.15v0a.2.2,0,0,1,.2-.2h3.92v-.18H71.07a.19.19,0,0,1-.21-.17v0a.17.17,0,0,1,.16-.19h3.44c.22,0,.33.13.33.37v.2h.47a.19.19,0,0,1,.2.18v0a.19.19,0,0,1-.17.19Zm-4.59,1.86a.33.33,0,0,1-.21.09.24.24,0,0,1-.23-.25.09.09,0,0,1,0,0,.39.39,0,0,1,.12-.19,3.35,3.35,0,0,0,.49-.57.25.25,0,0,1,.35-.1h0c.14.09.11.25,0,.38A2.8,2.8,0,0,1,70.67,62.67Zm3.43,0a1.15,1.15,0,0,1-.65.14h-.78c-.59,0-.87-.18-.87-.6v-.5c0-.14.1-.2.24-.21a.2.2,0,0,1,.24.21v.42a.2.2,0,0,0,.08.19.49.49,0,0,0,.29,0h.88a.53.53,0,0,0,.3,0,.3.3,0,0,0,.08-.2.22.22,0,0,1,.24-.18c.14,0,.21.06.21.19a.71.71,0,0,1-.22.52Zm-.77-.49a.21.21,0,0,1-.31,0,2.26,2.26,0,0,1-.25-.29.21.21,0,0,1,0-.3h0a.19.19,0,0,1,.28,0l0,0,.08.1c.07.09.13.15.16.2a.25.25,0,0,1,.05.27Zm1.93-2.64h-1v.15c0,.11-.11.15-.23.15s-.22,0-.22-.15v-.15h-.9a.19.19,0,0,1-.21-.17v0a.2.2,0,0,1,.2-.2h.91v-.22h-.68a.18.18,0,0,1-.21-.15v0a.19.19,0,0,1,.18-.2h.71v-.21H73a.2.2,0,0,1-.19-.21h0a.18.18,0,0,1,.17-.19h.84v-.17c0-.12.08-.19.22-.19s.23.07.23.19v.17h.89c.12,0,.18.07.2.19a.19.19,0,0,1-.2.21h-.89v.21H75c.12,0,.18.09.18.21a.18.18,0,0,1-.18.18h-.7v.22h1a.2.2,0,0,1,.21.19h0a.18.18,0,0,1-.17.17ZM75,62.6c-.1-.11-.27-.3-.51-.52s-.29-.27-.14-.46a.25.25,0,0,1,.36,0,6.6,6.6,0,0,1,.63.66.26.26,0,0,1,0,.35.23.23,0,0,1-.3-.05Z" style="fill:#1d1d1b"/><path d="M79.29,58.18H76.55a.24.24,0,0,1-.26-.22h0a.22.22,0,0,1,.22-.23h2.78a.24.24,0,0,1,.25.21v0a.23.23,0,0,1-.23.23Zm.06,4.45a.63.63,0,0,1-.4.1H76.86c-.34,0-.5-.13-.5-.43V60.5a.42.42,0,0,1,.36-.47H79c.32,0,.48.15.48.46v1.79A.49.49,0,0,1,79.35,62.63Zm-.15-3a.5.5,0,0,1-.33.09h-2a.38.38,0,0,1-.42-.34.11.11,0,0,1,0-.08v-.52c0-.29.18-.34.44-.34h2a.33.33,0,0,1,.39.23.43.43,0,0,1,0,.16v.47C79.28,59.46,79.26,59.58,79.2,59.63Zm-1.53.84H77a.11.11,0,0,0-.12.1v.59h.83Zm0,1.15h-.83v.55c0,.08,0,.12.13.12h.7ZM78.81,59c0-.06,0-.08-.09-.08H77c-.08,0-.11,0-.11.09v.21c0,.08,0,.1.11.1h1.69c.06,0,.08,0,.08-.09ZM79,60.63c0-.08,0-.12-.12-.12h-.72v.69H79Zm0,1h-.84v.67h.73c.08,0,.11,0,.11-.12Zm1.08,0a.25.25,0,0,1-.24-.26h0V58.05c0-.14.09-.21.23-.22a.2.2,0,0,1,.24.21v3.33a.25.25,0,0,1-.21.27h0Zm.12,1c-.13,0-.17-.16-.12-.31a.22.22,0,0,1,.28-.15h0a1.53,1.53,0,0,0,.48.11s.07,0,.07-.1V57.84c0-.18.09-.28.24-.29a.24.24,0,0,1,.24.24v4.57c0,.5-.43.58-1.21.29Z" style="fill:#1d1d1b"/><path d="M87.24,62.59H82.4a.23.23,0,0,1-.27-.21.06.06,0,0,1,0-.06c0-.16.11-.25.29-.25h2.15V60.66H82.92a.26.26,0,0,1-.3-.24v0c0-.18.11-.27.3-.27h1.65v-.85a.27.27,0,0,1,.54,0v.85H86.8a.27.27,0,0,1,.29.23v0a.27.27,0,0,1-.25.27H85.11v1.41h2.13c.19,0,.31.09.31.26S87.43,62.59,87.24,62.59Zm-.14-3.73H82.67c-.19,0-.32-.09-.32-.26a.28.28,0,0,1,.31-.28h2v-.49c0-.19.09-.31.27-.31a.25.25,0,0,1,.27.29v.51h2a.25.25,0,0,1,.26.24v0a.24.24,0,0,1-.12.31A.24.24,0,0,1,87.1,58.86Z" style="fill:#1d1d1b"/><path d="M93.28,59.39h-.85v.36c0,.43-.12.51-.54.51h-.45v.42h1.32c.34,0,.51.11.51.36v1.24c0,.42-.43.55-1.27.43a.25.25,0,0,1-.24-.26s0,0,0,0,.16-.21.32-.19a1.42,1.42,0,0,0,.58,0s.08,0,.09-.07a.49.49,0,0,0,0-.17v-.7c0-.12,0-.16-.17-.16H91.44v1.52a.25.25,0,0,1-.25.25.25.25,0,0,1-.25-.25v-1.5h-1c-.12,0-.18.06-.18.22v1.19a.24.24,0,0,1-.22.26h0a.23.23,0,0,1-.25-.21V61.14a.41.41,0,0,1,.12-.36.72.72,0,0,1,.43-.1h1.09v-.42h-.53a.61.61,0,0,1-.44-.11.52.52,0,0,1-.12-.43v-.33H89V60.8a4.44,4.44,0,0,1-.29,1.73.29.29,0,0,1-.35.15.24.24,0,0,1-.14-.31v0a1.17,1.17,0,0,0,0-.11,3.2,3.2,0,0,0,.31-1.46V58.44c0-.36.17-.52.53-.52h1.59v-.24c0-.14.1-.22.26-.22s.25.08.25.22v.24h2.09c.14,0,.21.09.21.24s-.07.23-.21.23h-.8v.53h.85a.25.25,0,0,1,.26.22v0a.24.24,0,0,1-.22.24Zm-3.43-1h-.72c-.1,0-.14,0-.14.16v.37h.86Zm2.09,0H90.33v.53h1.61Zm0,1H90.33v.31c0,.09,0,.12.15.12h1.33c.08,0,.13,0,.13-.14Z" style="fill:#1d1d1b"/><path d="M96.38,60.66a.23.23,0,0,1-.29-.11,1.24,1.24,0,0,1-.1-.2h-.31V62.6a.28.28,0,0,1-.21.31.26.26,0,0,1-.3-.21.17.17,0,0,1,0-.1V60.42h-.79a.22.22,0,0,1-.24-.22h0c0-.15.08-.25.22-.25h.21a3.56,3.56,0,0,0,.41-.53,4.38,4.38,0,0,0-.62-.52h-.08a.24.24,0,0,1,0-.3.21.21,0,0,1,.28-.1h0l.15.1c.15-.25.28-.5.41-.76a.24.24,0,1,1,.45.15h0a7.69,7.69,0,0,1-.47.9l.23.18c.09-.15.2-.34.31-.56s.19-.24.34-.16a.21.21,0,0,1,.12.17.41.41,0,0,1,0,.22l-.1.16a6.94,6.94,0,0,1-.76,1.1,3.34,3.34,0,0,0,.62-.06l-.06-.13a.19.19,0,0,1,0-.26l0,0a.24.24,0,0,1,.3.09,3.45,3.45,0,0,1,.36.75A.27.27,0,0,1,96.38,60.66Zm-1.56,1.65a.26.26,0,0,1-.29.21c-.26-.06-.22-.27-.18-.45a9.3,9.3,0,0,0,.13-1.17c0-.14.1-.21.24-.22a.21.21,0,0,1,.21.21v0A7.18,7.18,0,0,1,94.82,62.31ZM96.27,62a.23.23,0,0,1-.27-.21h0a2.45,2.45,0,0,1-.08-.37,1.8,1.8,0,0,0-.1-.45.21.21,0,0,1,.13-.28h0a.24.24,0,0,1,.26.21.61.61,0,0,0,.09.33,2,2,0,0,1,.12.5C96.47,61.82,96.41,62,96.27,62Zm2.93-3.71H96.47c-.15,0-.23-.1-.25-.25a.23.23,0,0,1,.23-.27h2.77c.16,0,.24.11.24.27a.24.24,0,0,1-.22.26h0Zm.1,4.38H96.44c-.14,0-.21-.1-.22-.25a.21.21,0,0,1,.23-.24h1.16v-1h-.88c-.15,0-.23-.1-.25-.25a.22.22,0,0,1,.23-.26h2.37a.23.23,0,0,1,.24.22v0a.26.26,0,0,1-.27.25h-.93v1h1.17a.24.24,0,0,1,.25.23h0a.24.24,0,0,1-.2.26h0ZM97,60.52a.26.26,0,0,1-.32-.18,4.54,4.54,0,0,0-.3-.68.57.57,0,0,1-.1-.31.92.92,0,0,1,.13-.36c.08-.15.14-.3.2-.44a.29.29,0,0,1,.13-.16.26.26,0,0,1,.21,0c.15.07.14.23.09.36A2.51,2.51,0,0,1,97,59a.78.78,0,0,0-.12.32,1.34,1.34,0,0,0,.16.37c.07.14.14.3.2.45a.28.28,0,0,1-.14.36h0Zm1.07,0a.26.26,0,0,1-.32-.16v0c-.09-.23-.19-.45-.29-.67a.51.51,0,0,1-.11-.31,1.23,1.23,0,0,1,.12-.37c.08-.16.14-.3.2-.43a.28.28,0,0,1,.35-.17.3.3,0,0,1,.12.15.37.37,0,0,1,0,.21A.84.84,0,0,1,98,59a.63.63,0,0,0-.1.31,1.37,1.37,0,0,0,.15.38,3.57,3.57,0,0,1,.19.45.25.25,0,0,1-.07.35l-.1,0Zm1.07,0a.26.26,0,0,1-.33-.17h0a5.65,5.65,0,0,0-.29-.67.58.58,0,0,1-.11-.31,1,1,0,0,1,.13-.37c.07-.14.14-.28.2-.43a.29.29,0,0,1,.14-.17.21.21,0,0,1,.29.09l0,.06a.37.37,0,0,1,0,.21c0,.08-.08.18-.13.29a1,1,0,0,0-.11.31s.3.64.36.82a.27.27,0,0,1-.12.37l-.06,0Z" style="fill:#1d1d1b"/><path d="M105.29,61.73a5,5,0,0,1-2-1h-.88a5.36,5.36,0,0,1-.93.65h1.07a1.15,1.15,0,0,1,.1-.35.26.26,0,0,1,.25-.16.25.25,0,0,1,.21.23c0,.12-.06.17-.08.28h1.11a.45.45,0,0,1,.48.42h0c0,.66-.16,1-.58,1.06a3.32,3.32,0,0,1-.89-.09.21.21,0,0,1-.24-.21.22.22,0,0,1,.25-.23l.7.1c.2,0,.26-.18.27-.48,0-.11,0-.17-.18-.17h-1.09a2.63,2.63,0,0,1-2.09,1,.24.24,0,0,1-.3-.17v0c0-.15.08-.23.25-.25a2.6,2.6,0,0,0,1.57-.61h-.84c-.18,0-.28-.09-.28-.26a5.46,5.46,0,0,1-.77.28.25.25,0,0,1-.31-.15.24.24,0,0,1,.2-.29h0a4.72,4.72,0,0,0,1.43-.64h-1.4a.18.18,0,0,1-.2-.16,0,0,0,0,1,0-.05.21.21,0,0,1,.21-.21h1.84a1,1,0,0,0,.2-.21h-1.21c-.26,0-.42-.14-.42-.36v-.84c0-.29.22-.37.46-.37h.27v-.24h-1.12a.21.21,0,0,1-.24-.18v0c0-.13.09-.21.24-.21h1.12v-.18a.24.24,0,0,1,.24-.24.24.24,0,0,1,.24.24v.18h.58a.22.22,0,0,1,.23.19v0a.22.22,0,0,1-.23.21H102v.24h1.71v-.24h-.57a.21.21,0,0,1-.24-.18v0c0-.13.09-.21.24-.21h.57v-.18a.24.24,0,0,1,.24-.24.24.24,0,0,1,.24.24v.18h1.13a.22.22,0,0,1,.23.19v0a.22.22,0,0,1-.23.21h-1.13v.24h.33a.41.41,0,0,1,.44.36v.82c0,.3-.17.4-.42.4h-1.61l-.17.2h2.6a.23.23,0,0,1,.24.2h0a.21.21,0,0,1-.21.21h-1.44a4.63,4.63,0,0,0,1.49.56.24.24,0,0,1,.2.27v0C105.51,61.76,105.43,61.76,105.29,61.73Zm-.81-2.25h-3.26v.18s0,.06.11.06h3.1s0-.06,0-.12Zm0-.51v-.06h-3.09c-.14,0-.17,0-.17.11v.14h3.26Z" style="fill:#1d1d1b"/><path d="M7.79,69.5V65.2H9.67a2.67,2.67,0,0,1,.88.12,1,1,0,0,1,.48.41,1.34,1.34,0,0,1,.17.65,1.09,1.09,0,0,1-.29.77,1.52,1.52,0,0,1-.92.39,1.86,1.86,0,0,1,.35.22,3.24,3.24,0,0,1,.47.57l.75,1.17h-.7l-.57-.9c-.16-.25-.3-.45-.41-.59a1.28,1.28,0,0,0-.29-.28.68.68,0,0,0-.26-.12h-1V69.5Zm.57-2.4H9.58a2.16,2.16,0,0,0,.61-.1.61.61,0,0,0,.33-.26.69.69,0,0,0-.1-.89,1,1,0,0,0-.7-.19H8.36Z" style="fill:#1d1d1b"/><path d="M14.18,68.5l.54.06a1.34,1.34,0,0,1-.48.75,1.5,1.5,0,0,1-.89.26,1.39,1.39,0,0,1-1.08-.42,1.62,1.62,0,0,1-.4-1.15,1.71,1.71,0,0,1,.41-1.22,1.34,1.34,0,0,1,1-.43,1.32,1.32,0,0,1,1,.42,1.68,1.68,0,0,1,.4,1.2v.14H12.42a1.11,1.11,0,0,0,.29.78.87.87,0,0,0,.65.28.89.89,0,0,0,.49-.16A1,1,0,0,0,14.18,68.5Zm-1.73-.86h1.73a1.09,1.09,0,0,0-.2-.58.8.8,0,0,0-.65-.31.81.81,0,0,0-.61.24A.89.89,0,0,0,12.45,67.64Z" style="fill:#1d1d1b"/><path d="M15.51,69.5V66.8H15v-.41h.47v-.33a1.24,1.24,0,0,1,.06-.47.66.66,0,0,1,.26-.33.92.92,0,0,1,.54-.13h.49l-.08.46h-.31a.45.45,0,0,0-.34.11.52.52,0,0,0-.1.38v.29h.64v.41h-.61v2.7Z" style="fill:#1d1d1b"/><path d="M19.18,68.5l.55.06a1.46,1.46,0,0,1-.48.75,1.5,1.5,0,0,1-.89.26,1.42,1.42,0,0,1-1.09-.42A1.66,1.66,0,0,1,16.88,68a1.7,1.7,0,0,1,.4-1.22,1.47,1.47,0,0,1,2.07,0,1.69,1.69,0,0,1,.39,1.2v.14H17.42a1.18,1.18,0,0,0,.29.78.87.87,0,0,0,.65.28.9.9,0,0,0,.5-.16A1.09,1.09,0,0,0,19.18,68.5Zm-1.73-.86h1.74a1.09,1.09,0,0,0-.2-.58.82.82,0,0,0-.66-.31.85.85,0,0,0-.61.24A1,1,0,0,0,17.45,67.64Z" style="fill:#1d1d1b"/><path d="M20.38,69.5V66.39h.48v.47a1.19,1.19,0,0,1,.33-.44.59.59,0,0,1,.34-.1,1,1,0,0,1,.54.17l-.18.49a.69.69,0,0,0-.39-.12.49.49,0,0,0-.31.11.54.54,0,0,0-.19.28,1.86,1.86,0,0,0-.09.62V69.5Z" style="fill:#1d1d1b"/><path d="M22.38,69.5V66.39h.47v.47a1.34,1.34,0,0,1,.34-.44.59.59,0,0,1,.34-.1,1,1,0,0,1,.54.17l-.18.49a.69.69,0,0,0-.39-.12.54.54,0,0,0-.5.39,1.86,1.86,0,0,0-.09.62V69.5Z" style="fill:#1d1d1b"/><path d="M26.51,68.5l.55.06a1.46,1.46,0,0,1-.48.75,1.5,1.5,0,0,1-.89.26,1.39,1.39,0,0,1-1.08-.42,1.59,1.59,0,0,1-.4-1.18,1.7,1.7,0,0,1,.4-1.22,1.35,1.35,0,0,1,1-.43,1.32,1.32,0,0,1,1,.42,1.73,1.73,0,0,1,.4,1.2v.14H24.75a1.18,1.18,0,0,0,.29.78.87.87,0,0,0,.65.28.83.83,0,0,0,.5-.16A1,1,0,0,0,26.51,68.5Zm-1.73-.86h1.74a1.09,1.09,0,0,0-.2-.58.8.8,0,0,0-.65-.31.81.81,0,0,0-.61.24A1,1,0,0,0,24.78,67.64Z" style="fill:#1d1d1b"/><path d="M29.74,69.5v-.39a1,1,0,0,1-.87.46,1.2,1.2,0,0,1-.69-.21,1.33,1.33,0,0,1-.48-.57,1.86,1.86,0,0,1-.17-.84,1.91,1.91,0,0,1,.14-.85,1.1,1.1,0,0,1,.46-.58,1.15,1.15,0,0,1,.7-.2,1.11,1.11,0,0,1,.5.12,1,1,0,0,1,.35.3V65.2h.53v4.3ZM28.07,68a1.4,1.4,0,0,0,.25.89.75.75,0,0,0,1.05.14l.14-.14a1.31,1.31,0,0,0,.24-.86,1.43,1.43,0,0,0-.25-.94.75.75,0,0,0-.6-.3.71.71,0,0,0-.59.29A1.36,1.36,0,0,0,28.07,68Z" style="fill:#1d1d1b"/><path d="M33.21,69.5h-.49V65.2h.53v1.54a1,1,0,0,1,.85-.42,1.5,1.5,0,0,1,.55.11,1.34,1.34,0,0,1,.42.33,1.83,1.83,0,0,1,.26.5,2.3,2.3,0,0,1,.09.64,1.76,1.76,0,0,1-.4,1.23,1.24,1.24,0,0,1-.94.44,1,1,0,0,1-.87-.46Zm0-1.58a1.61,1.61,0,0,0,.15.81.74.74,0,0,0,1,.34.92.92,0,0,0,.28-.24,1.35,1.35,0,0,0,.25-.89,1.41,1.41,0,0,0-.21-.94.74.74,0,0,0-1-.14.93.93,0,0,0-.14.14A1.28,1.28,0,0,0,33.21,67.92Z" style="fill:#1d1d1b"/><path d="M36,70.7,36,70.2h.3a.57.57,0,0,0,.28-.06.55.55,0,0,0,.18-.16,3,3,0,0,1,.16-.4v-.13l-1.18-3.11h.57l.65,1.8c.08.23.16.47.22.72.06-.24.14-.48.22-.71l.67-1.81h.52L37.39,69.5c-.09.24-.19.48-.3.71a1.18,1.18,0,0,1-.32.38.82.82,0,0,1-.43.12A1,1,0,0,1,36,70.7Z" style="fill:#1d1d1b"/><path d="M40.78,69.5V65.2h.89l1,3c.09.29.16.5.21.64a3.23,3.23,0,0,1,.22-.69l1-3h.77v4.3h-.55V65.9l-1.25,3.6h-.5l-1.24-3.66V69.5Z" style="fill:#1d1d1b"/><path d="M45.52,68.57l.52-.08a.7.7,0,0,0,.24.48.86.86,0,0,0,.56.17.81.81,0,0,0,.54-.15.47.47,0,0,0,.18-.35.32.32,0,0,0-.16-.28,1.81,1.81,0,0,0-.54-.18,5.31,5.31,0,0,1-.8-.25.79.79,0,0,1-.46-.72.64.64,0,0,1,.1-.38.83.83,0,0,1,.26-.3,1,1,0,0,1,.33-.15,1.76,1.76,0,0,1,.46-.06,1.78,1.78,0,0,1,.64.1.91.91,0,0,1,.41.29,1,1,0,0,1,.18.48l-.51.07a.58.58,0,0,0-.21-.37.74.74,0,0,0-.47-.14.85.85,0,0,0-.52.12.33.33,0,0,0-.16.28.26.26,0,0,0,.07.19.48.48,0,0,0,.2.14l.47.13a5.88,5.88,0,0,1,.78.25.89.89,0,0,1,.34.27.79.79,0,0,1,.13.45.89.89,0,0,1-.15.5,1,1,0,0,1-.45.36,1.76,1.76,0,0,1-1.58-.12A1.12,1.12,0,0,1,45.52,68.57Z" style="fill:#1d1d1b"/><path d="M48.88,69.5v-.6h.6v.6Z" style="fill:#1d1d1b"/><path d="M53.11,69.5V65.71H51.67V65.2h3.4v.51h-1.4V69.5Z" style="fill:#1d1d1b"/><path d="M54.77,69.5l1.65-4.3H57l1.76,4.3h-.65l-.47-1.3h-1.8l-.47,1.3ZM56,67.73h1.45L57,66.55c-.13-.37-.23-.66-.3-.9a6,6,0,0,1-.23.83Z" style="fill:#1d1d1b"/><path d="M59.24,69.5V65.2h.58l2.25,3.38V65.2h.6v4.3h-.58l-2.26-3.38V69.5Z" style="fill:#1d1d1b"/><path d="M65.58,67.81v-.5H67.4V68.9a3.22,3.22,0,0,1-.86.5,2.58,2.58,0,0,1-.91.17,2.44,2.44,0,0,1-1.16-.27,1.78,1.78,0,0,1-.78-.78,2.42,2.42,0,0,1-.26-1.15,2.64,2.64,0,0,1,.24-1.17,1.75,1.75,0,0,1,.76-.81,2.32,2.32,0,0,1,1.13-.26,2.44,2.44,0,0,1,.84.15,1.37,1.37,0,0,1,.59.42,2,2,0,0,1,.33.7l-.51.15a2.45,2.45,0,0,0-.24-.52,1.12,1.12,0,0,0-.41-.3,1.39,1.39,0,0,0-.6-.11,1.89,1.89,0,0,0-.67.11,1.23,1.23,0,0,0-.46.32,1.88,1.88,0,0,0-.27.42,2.17,2.17,0,0,0-.16.87,2,2,0,0,0,.19,1,1.23,1.23,0,0,0,.58.57,1.69,1.69,0,0,0,.8.19,2,2,0,0,0,.72-.14,1.94,1.94,0,0,0,.54-.31v-.8Z" style="fill:#1d1d1b"/><path d="M69.89,69.5V65.2h.86l1,3c.1.29.16.5.21.64a2.86,2.86,0,0,1,.23-.69l1-3H74v4.3h-.55V65.9l-1.25,3.6h-.49l-1.24-3.66V69.5Z" style="fill:#1d1d1b"/><path d="M74.84,65.81V65.2h.53v.61Zm0,3.69V66.39h.53V69.5Z" style="fill:#1d1d1b"/><path d="M76.17,69.5V66.39h.5v.44a1.11,1.11,0,0,1,1-.51,1.29,1.29,0,0,1,.51.1.83.83,0,0,1,.36.26,1.11,1.11,0,0,1,.16.39,4.51,4.51,0,0,1,0,.52V69.5h-.53V67.61a2,2,0,0,0-.06-.49.45.45,0,0,0-.22-.25.68.68,0,0,0-.36-.1.9.9,0,0,0-.59.22,1,1,0,0,0-.24.81v1.7Z" style="fill:#1d1d1b"/><path d="M79.41,69.76l.51.07a.54.54,0,0,0,.18.35.93.93,0,0,0,.54.14,1,1,0,0,0,.57-.14.75.75,0,0,0,.26-.41,3.86,3.86,0,0,0,0-.68,1.11,1.11,0,0,1-.86.41,1.16,1.16,0,0,1-.94-.5,1.71,1.71,0,0,1-.35-1.11,1.84,1.84,0,0,1,.16-.83,1.21,1.21,0,0,1,1.19-.74,1.16,1.16,0,0,1,.91.44v-.37h.49v2.69a2.82,2.82,0,0,1-.15,1,1.15,1.15,0,0,1-.47.48,1.68,1.68,0,0,1-.79.17,1.43,1.43,0,0,1-.9-.25A.83.83,0,0,1,79.41,69.76Zm.44-1.87a1.28,1.28,0,0,0,.24.89.78.78,0,0,0,1.12.09l.1-.09a1.38,1.38,0,0,0,.25-.88A1.33,1.33,0,0,0,81.3,67a.79.79,0,0,0-1.1-.11.57.57,0,0,0-.11.11A1.25,1.25,0,0,0,79.85,67.89Z" style="fill:#1d1d1b"/><path d="M85.33,69.5l-1.14-4.3h.58l.66,2.8c.07.29.13.59.18.88.11-.46.17-.73.19-.8l.87-2.88h.68L88,67.38a13.28,13.28,0,0,1,.33,1.52c.06-.27.13-.59.22-.94l.67-2.76h.48L88.5,69.5H88L87,66.23c-.07-.28-.12-.45-.13-.51a1.73,1.73,0,0,1-.13.51l-.91,3.27Z" style="fill:#1d1d1b"/><path d="M92,69.11a2.23,2.23,0,0,1-.56.36,2,2,0,0,1-.58.1,1.12,1.12,0,0,1-.79-.25.83.83,0,0,1-.28-.64.86.86,0,0,1,.38-.72,1.21,1.21,0,0,1,.38-.18l.47-.07a6.26,6.26,0,0,0,.94-.19v-.13a.63.63,0,0,0-.15-.46.87.87,0,0,0-.6-.18.94.94,0,0,0-.55.13.79.79,0,0,0-.26.47l-.51-.08a1.15,1.15,0,0,1,.23-.53.86.86,0,0,1,.46-.31,1.89,1.89,0,0,1,.71-.11,1.8,1.8,0,0,1,.65.09.88.88,0,0,1,.36.24.92.92,0,0,1,.17.36v1.18a4.92,4.92,0,0,0,0,.94,1,1,0,0,0,.13.37H92A1,1,0,0,1,92,69.11Zm0-1.17a4.29,4.29,0,0,1-.86.2,1.8,1.8,0,0,0-.46.1.51.51,0,0,0-.21.17.37.37,0,0,0-.07.25.42.42,0,0,0,.16.36.68.68,0,0,0,.46.14,1.18,1.18,0,0,0,.55-.14.91.91,0,0,0,.34-.36,1.21,1.21,0,0,0,.09-.53Z" style="fill:#1d1d1b"/><path d="M93.29,65.81V65.2h.53v.61Zm0,3.69V66.39h.53V69.5Z" style="fill:#1d1d1b"/><path d="M94.76,69.5v-.6h.6v.6a1.08,1.08,0,0,1-.12.53.76.76,0,0,1-.37.32l-.14-.23a.54.54,0,0,0,.24-.21,1,1,0,0,0,.09-.41Z" style="fill:#1d1d1b"/><path d="M98,69.5V65.2h.85l1,3c.09.29.16.5.2.64a3.39,3.39,0,0,1,.23-.69l1-3h.77v4.3h-.55V65.9l-1.25,3.6h-.51L98.5,65.84V69.5Z" style="fill:#1d1d1b"/><path d="M105,69.11a2.12,2.12,0,0,1-.57.36,2,2,0,0,1-.58.1,1.17,1.17,0,0,1-.79-.25.82.82,0,0,1-.27-.64.83.83,0,0,1,.37-.72,1.21,1.21,0,0,1,.38-.18c.11,0,.26,0,.47-.07a6,6,0,0,0,.94-.19v-.13a.63.63,0,0,0-.15-.46.87.87,0,0,0-.6-.18,1,1,0,0,0-.54.13.81.81,0,0,0-.27.47l-.51-.08a1.15,1.15,0,0,1,.23-.53,1,1,0,0,1,.46-.31,2.42,2.42,0,0,1,1.36,0,.81.81,0,0,1,.53.6,3.84,3.84,0,0,1,0,.48v.7a7.37,7.37,0,0,0,0,.94,1,1,0,0,0,.13.37H105A.94.94,0,0,1,105,69.11Zm0-1.17a4.29,4.29,0,0,1-.86.2,1.8,1.8,0,0,0-.46.1.51.51,0,0,0-.21.17.37.37,0,0,0-.07.25.42.42,0,0,0,.16.36.71.71,0,0,0,.47.14,1.14,1.14,0,0,0,.54-.14.87.87,0,0,0,.35-.36,1.59,1.59,0,0,0,.08-.53Z" style="fill:#1d1d1b"/><path d="M106.29,69.5V66.39h.48v.44a1.11,1.11,0,0,1,1-.51,1.29,1.29,0,0,1,.51.1.83.83,0,0,1,.36.26,1.11,1.11,0,0,1,.16.39,4.51,4.51,0,0,1,0,.52V69.5h-.53V67.61a2,2,0,0,0-.06-.49.45.45,0,0,0-.22-.25.68.68,0,0,0-.36-.1A.9.9,0,0,0,107,67a1,1,0,0,0-.24.81v1.7Z" style="fill:#1d1d1b"/><path d="M111.67,69.5v-.39a1,1,0,0,1-.87.46,1.2,1.2,0,0,1-.69-.21,1.26,1.26,0,0,1-.48-.57,1.86,1.86,0,0,1-.17-.84,2.06,2.06,0,0,1,.15-.85,1.16,1.16,0,0,1,.47-.58,1.27,1.27,0,0,1,.69-.2,1.11,1.11,0,0,1,.5.12,1,1,0,0,1,.36.3V65.2h.53v4.3ZM110,68a1.29,1.29,0,0,0,.25.89.75.75,0,0,0,1,.14l.14-.14a1.29,1.29,0,0,0,.25-.89,1.57,1.57,0,0,0-.25-.94.77.77,0,0,0-.61-.3.72.72,0,0,0-.58.29A1.35,1.35,0,0,0,110,68Z" style="fill:#1d1d1b"/><path d="M112.94,70.7l-.06-.5h.31a.71.71,0,0,0,.28-.06.66.66,0,0,0,.2-.14c.06-.13.11-.26.16-.4l0-.13-1.21-3.08h.57l.64,1.8c.09.23.16.47.23.72a4.48,4.48,0,0,1,.22-.71l.66-1.81h.53l-1.19,3.16a6.22,6.22,0,0,1-.29.71,1.18,1.18,0,0,1-.32.38.88.88,0,0,1-.44.12A1,1,0,0,1,112.94,70.7Z" style="fill:#1d1d1b"/><path d="M115.67,69.5v-.6h.6v.6a1.08,1.08,0,0,1-.12.53.82.82,0,0,1-.37.32l-.15-.23a.57.57,0,0,0,.25-.21,1,1,0,0,0,.09-.41Z" style="fill:#1d1d1b"/><path d="M120.15,69.5l-1.66-4.3h.61l1.12,3.12c.09.25.16.49.22.71.07-.24.15-.47.23-.71l1.16-3.12h.58l-1.68,4.3Z" style="fill:#1d1d1b"/><path d="M122.75,65.81V65.2h.53v.61Zm0,3.69V66.39h.53V69.5Z" style="fill:#1d1d1b"/><path d="M126.11,68.36l.52.07a1.48,1.48,0,0,1-.43.84,1.29,1.29,0,0,1-.86.3,1.31,1.31,0,0,1-1-.42A1.69,1.69,0,0,1,124,68a2.06,2.06,0,0,1,.17-.88,1.11,1.11,0,0,1,.51-.56,1.46,1.46,0,0,1,.74-.19,1.31,1.31,0,0,1,.83.25,1.25,1.25,0,0,1,.41.73l-.51.08a.91.91,0,0,0-.26-.47.69.69,0,0,0-.45-.16.8.8,0,0,0-.72.25,1.32,1.32,0,0,0-.25.9,1.35,1.35,0,0,0,.24.91.76.76,0,0,0,.63.29.77.77,0,0,0,.52-.2A.94.94,0,0,0,126.11,68.36Z" style="fill:#1d1d1b"/><path d="M129.21,68.5l.55.06a1.46,1.46,0,0,1-.48.75,1.5,1.5,0,0,1-.89.26,1.42,1.42,0,0,1-1.09-.42,1.64,1.64,0,0,1-.39-1.18,1.7,1.7,0,0,1,.4-1.22,1.47,1.47,0,0,1,2.07,0,1.69,1.69,0,0,1,.39,1.2v.14h-2.32a1.18,1.18,0,0,0,.29.78.87.87,0,0,0,.65.28.9.9,0,0,0,.5-.16A1.08,1.08,0,0,0,129.21,68.5Zm-1.73-.86h1.74a1.09,1.09,0,0,0-.2-.58.82.82,0,0,0-.66-.31.85.85,0,0,0-.61.24A1,1,0,0,0,127.48,67.64Z" style="fill:#1d1d1b"/><path d="M130.21,68.21v-.53h1.62v.53Z" style="fill:#1d1d1b"/><path d="M135.55,68l.57.15a1.93,1.93,0,0,1-.65,1.06,1.76,1.76,0,0,1-1.13.37,2,2,0,0,1-1.13-.28,1.77,1.77,0,0,1-.66-.82,2.66,2.66,0,0,1-.23-1.15,2.26,2.26,0,0,1,.26-1.17,1.73,1.73,0,0,1,.73-.76,2,2,0,0,1,1-.26,1.77,1.77,0,0,1,1.08.33,1.71,1.71,0,0,1,.61.92l-.56.13a1.33,1.33,0,0,0-.43-.68,1.14,1.14,0,0,0-.71-.21,1.41,1.41,0,0,0-.83.23,1.25,1.25,0,0,0-.47.64,2.36,2.36,0,0,0-.13.83,2.44,2.44,0,0,0,.16,1,1.1,1.1,0,0,0,.49.61,1.35,1.35,0,0,0,.73.21,1.21,1.21,0,0,0,.81-.28A1.47,1.47,0,0,0,135.55,68Z" style="fill:#1d1d1b"/><path d="M136.75,69.5V65.2h.53v1.54a1.18,1.18,0,0,1,.93-.42,1.28,1.28,0,0,1,.6.13.83.83,0,0,1,.36.38,1.84,1.84,0,0,1,.11.7v2h-.52v-2a.81.81,0,0,0-.18-.58.62.62,0,0,0-.48-.18.83.83,0,0,0-.44.12.64.64,0,0,0-.3.33,1.63,1.63,0,0,0-.08.58v1.7Z" style="fill:#1d1d1b"/><path d="M142.12,69.11a2.12,2.12,0,0,1-.57.36,2,2,0,0,1-.58.1,1.17,1.17,0,0,1-.79-.25.82.82,0,0,1-.27-.64.83.83,0,0,1,.37-.72,1.21,1.21,0,0,1,.38-.18c.11,0,.26,0,.47-.07a6,6,0,0,0,.94-.19v-.13a.63.63,0,0,0-.15-.46,1.15,1.15,0,0,0-1.15-.05.81.81,0,0,0-.27.47l-.51-.08a1.19,1.19,0,0,1,.23-.53,1,1,0,0,1,.47-.31,1.84,1.84,0,0,1,.7-.11,1.8,1.8,0,0,1,.65.09.73.73,0,0,1,.53.6,3.84,3.84,0,0,1,0,.48v.7a7.37,7.37,0,0,0,0,.94,1,1,0,0,0,.13.37h-.55A.86.86,0,0,1,142.12,69.11Zm0-1.17a4.29,4.29,0,0,1-.86.2,1.8,1.8,0,0,0-.46.1.51.51,0,0,0-.21.17.37.37,0,0,0-.07.25.45.45,0,0,0,.15.34.71.71,0,0,0,.47.14,1.13,1.13,0,0,0,.53-.14.87.87,0,0,0,.35-.36,1.59,1.59,0,0,0,.08-.53Z" style="fill:#1d1d1b"/><path d="M143.43,65.81V65.2H144v.61Zm0,3.69V66.39H144V69.5Z" style="fill:#1d1d1b"/><path d="M144.75,69.5V66.39h.47v.47a1.34,1.34,0,0,1,.34-.44.59.59,0,0,1,.34-.1,1,1,0,0,1,.54.17l-.18.49a.69.69,0,0,0-.39-.12.54.54,0,0,0-.5.39,1.86,1.86,0,0,0-.09.62V69.5Z" style="fill:#1d1d1b"/><path d="M146.75,69.5V66.39h.48v.43a1,1,0,0,1,.39-.36,1.17,1.17,0,0,1,1.12,0,.87.87,0,0,1,.31.4,1.09,1.09,0,0,1,1-.54,1,1,0,0,1,.71.25,1.12,1.12,0,0,1,.25.79V69.5h-.52v-2a1.76,1.76,0,0,0-.06-.46.49.49,0,0,0-.18-.22.62.62,0,0,0-.32-.09.76.76,0,0,0-.54.22,1,1,0,0,0-.22.7V69.5h-.53v-2a.89.89,0,0,0-.13-.53.46.46,0,0,0-.42-.18.73.73,0,0,0-.41.12.6.6,0,0,0-.27.34,1.8,1.8,0,0,0-.09.65v1.6Z" style="fill:#1d1d1b"/><path d="M153.78,69.11a2.23,2.23,0,0,1-.56.36,2,2,0,0,1-.58.1,1.12,1.12,0,0,1-.79-.25.83.83,0,0,1-.28-.64A.86.86,0,0,1,152,68a1.21,1.21,0,0,1,.38-.18l.47-.07a6.26,6.26,0,0,0,.94-.19v-.13a.63.63,0,0,0-.15-.46.87.87,0,0,0-.6-.18.94.94,0,0,0-.55.13.79.79,0,0,0-.26.47l-.52-.08a1.34,1.34,0,0,1,.24-.53.86.86,0,0,1,.46-.31,1.89,1.89,0,0,1,.71-.11,1.77,1.77,0,0,1,.64.09.82.82,0,0,1,.37.24,1,1,0,0,1,.17.36v1.18a4.92,4.92,0,0,0,0,.94,1,1,0,0,0,.13.37h-.55A1,1,0,0,1,153.78,69.11Zm0-1.17a4.29,4.29,0,0,1-.86.2,1.8,1.8,0,0,0-.46.1.51.51,0,0,0-.21.17.37.37,0,0,0-.07.25.42.42,0,0,0,.16.36.68.68,0,0,0,.46.14,1,1,0,0,0,.54-.14.87.87,0,0,0,.35-.36,1.21,1.21,0,0,0,.09-.53Z" style="fill:#1d1d1b"/><path d="M155.09,69.5V66.39h.47v.44a1.11,1.11,0,0,1,1-.51,1.34,1.34,0,0,1,.52.1.75.75,0,0,1,.35.26,1.13,1.13,0,0,1,.17.39,4.51,4.51,0,0,1,0,.52V69.5h-.53V67.61a2,2,0,0,0-.06-.49.67.67,0,0,0-.22-.25.71.71,0,0,0-.37-.1.87.87,0,0,0-.58.22,1,1,0,0,0-.24.81v1.7Z" style="fill:#1d1d1b"/><path d="M51.66,34.05H48.28a13.91,13.91,0,0,0,3.4,1.48A.45.45,0,0,1,52,36a.35.35,0,0,1-.37.33h-.08A11.94,11.94,0,0,1,47.8,34.6v1.18c0,.21-.17.31-.41.31S47,36,47,35.77V34.65a12.69,12.69,0,0,1-3.72,1.66.37.37,0,0,1-.49-.19.14.14,0,0,1,0-.06A.43.43,0,0,1,43,35.5h0a13.75,13.75,0,0,0,3.48-1.44H43.06c-.21,0-.32-.17-.31-.4s.12-.39.33-.39H47v-.6c-.51,0-1.53.05-3.08.05a.38.38,0,0,1-.42-.34.11.11,0,0,1,0-.08.39.39,0,0,1,.35-.42h.08a50.62,50.62,0,0,0,6.85-.26.37.37,0,0,1,.42.33.13.13,0,0,1,0,.06.4.4,0,0,1-.33.45h0c-.87.12-1.89.17-3,.23v.62h3.88c.22,0,.34.17.33.41A.36.36,0,0,1,51.66,34.05Zm-.95,5.89a.68.68,0,0,1-.55.2H44.88a1.16,1.16,0,0,1-.75-.16.92.92,0,0,1-.19-.68V37c0-.59.15-.83.77-.83h5.4a.68.68,0,0,1,.76.56.74.74,0,0,1,0,.21V39.3A1,1,0,0,1,50.71,39.94ZM50,37.19c0-.15-.07-.21-.25-.21H45c-.15,0-.21.06-.21.25v.51H50Zm0,1.31H44.78v.6c0,.14,0,.18.19.18h4.8c.16,0,.23-.07.23-.29Z" style="fill:#1d1d1b"/><path d="M53.65,39.84a.54.54,0,0,1-.63.3.42.42,0,0,1-.25-.54.16.16,0,0,1,0-.07,13.05,13.05,0,0,0,1-3.1.44.44,0,0,1,.44-.46.45.45,0,0,1,.46.44.78.78,0,0,1,0,.14A11.57,11.57,0,0,1,53.65,39.84Zm.74-4.38a.44.44,0,0,1-.61-.05l0,0c-.19-.22-.44-.46-.74-.75A.41.41,0,0,1,53,34l0,0a.44.44,0,0,1,.62,0c.28.24.54.5.8.77a.46.46,0,0,1,0,.65Zm.35-2.21a.42.42,0,0,1-.34.09c-.17,0-.31-.17-.42-.3-.28-.33-.52-.59-.71-.78a.41.41,0,0,1,0-.58l0,0a.44.44,0,0,1,.62,0,11.07,11.07,0,0,1,.89.92.43.43,0,0,1,0,.62Zm6.79,1.53H59.85a5.47,5.47,0,0,0,1.8,1.51.4.4,0,0,1,.19.53l0,.06a.46.46,0,0,1-.62.12,7.48,7.48,0,0,1-.89-.57v1a.62.62,0,0,1-.52.71h-3v.79c0,.16,0,.24.12.28a1.4,1.4,0,0,0,.61.09h2.31c.47,0,.74,0,.83-.13.32-.22-.15-1.08.6-1.11a.44.44,0,0,1,.42.46v0a1.61,1.61,0,0,1-.33,1.22A2.1,2.1,0,0,1,60,40.1H57.57a2.3,2.3,0,0,1-1.24-.24A.88.88,0,0,1,56,39V36.49a6.3,6.3,0,0,1-.55.48.42.42,0,0,1-.64-.54.48.48,0,0,1,.16-.12,4.12,4.12,0,0,0,1.4-1.53H54.9a.4.4,0,0,1,0-.8h1.54v-.81H55.32c-.25,0-.37-.14-.37-.39s.12-.4.37-.4h1.12v-.57a.42.42,0,1,1,.84,0v.57h1.43v-.57a.37.37,0,0,1,.33-.42h.09a.4.4,0,0,1,.42.38v.61h1.71a.4.4,0,0,1,.33.46.4.4,0,0,1-.33.33H59.55V34h2c.25,0,.36.15.36.4A.35.35,0,0,1,61.53,34.78Zm-2.69,0H57.26a6,6,0,0,1-.54.95h2.81C59.39,35.56,59,35,58.84,34.78Zm.63,1.92c0-.14,0-.17-.1-.17H57.09c-.21,0-.28.07-.28.28v.51h2.52c.09,0,.14,0,.14-.21Zm-.76-3.53H57.28V34h1.43Z" style="fill:#1d1d1b"/><path d="M66.86,39.19H65.29V40c0,.23-.15.35-.39.37a.33.33,0,0,1-.39-.35v-.87H63c-.22,0-.33-.16-.34-.4a.35.35,0,0,1,.36-.39h1.47v-.83h-.88a.71.71,0,0,1-.54-.17,1,1,0,0,1-.14-.62V35.5c0-.46.2-.71.6-.71h1v-.53h-.36c-.41,0-.65-.21-.65-.59v-.75h-.46c-.2,0-.28-.17-.29-.39a.33.33,0,0,1,.31-.38h.44v-.44c0-.21.15-.32.39-.32s.4.11.4.32v.44h1.25v-.36c0-.23.15-.35.39-.37a.34.34,0,0,1,.4.35v.38h.51c.22,0,.32.14.34.38s-.1.39-.32.39h-.53v.79c0,.39-.23.55-.7.55h-.38v.53H66c.5,0,.74.19.74.63V37c0,.5-.22.6-.68.6h-.77v.83h1.6c.21,0,.31.18.31.42A.3.3,0,0,1,66.86,39.19Zm-2.35-3.62h-.57c-.14,0-.21.07-.21.27v.71c0,.18.07.24.29.24h.49Zm1-2.65h-1.2v.38c0,.25.08.32.21.3h.8c.17,0,.24-.06.24-.31Zm.39,2.92c0-.2,0-.27-.2-.27h-.41v1.22h.61s0-.08,0-.21Zm5.56,4.23H67.19c-.21,0-.33-.17-.33-.41s.12-.41.33-.41h1.73V37.59H67.65c-.22,0-.32-.16-.34-.4a.34.34,0,0,1,.33-.42H69v-.59c0-.24.17-.36.43-.37a.37.37,0,0,1,.43.38v.58H71c.24,0,.37.16.39.41a.36.36,0,0,1-.39.41H69.82v1.66h1.67c.23,0,.35.15.37.4a.35.35,0,0,1-.35.42Zm-.11-4.55H67.27c-.21,0-.33-.18-.33-.42s.12-.41.33-.41h1.58V33.38H67.54c-.22,0-.32-.17-.34-.42s.1-.4.32-.4h1.33v-.79c0-.24.17-.35.43-.36a.37.37,0,0,1,.43.38v.77H71c.24,0,.36.15.38.4a.36.36,0,0,1-.38.42H69.71v1.31h1.68c.24,0,.34.17.36.41a.35.35,0,0,1-.35.42Z" style="fill:#1d1d1b"/><path d="M81.19,40.11a11,11,0,0,1-3.64-1.8V40c0,.24-.15.36-.39.38a.35.35,0,0,1-.39-.38V38.41a15.59,15.59,0,0,1-3.44,1.66.41.41,0,0,1-.55-.18s0,0,0,0a.5.5,0,0,1,.31-.61,11,11,0,0,0,3.44-1.58H73.19c-.22,0-.33-.14-.35-.36a.33.33,0,0,1,.35-.37h3.63V36.4H73.66a.36.36,0,0,1,0-.72H76.8v-.5H73.49a.34.34,0,0,1-.37-.31v0a.35.35,0,0,1,.33-.37h2a7.59,7.59,0,0,0-.35-.77h-2c-.22,0-.31-.14-.33-.37a.3.3,0,0,1,.33-.36h1.55l-.37-.55-.06-.14a.39.39,0,0,1,0-.53.34.34,0,0,1,.48,0l0,.05c.08.11.19.27.33.49s.16.27.22.35a.38.38,0,0,1,0,.33H76v-1.2c0-.23.17-.33.41-.35a.34.34,0,0,1,.41.35V33h.79V31.9a.4.4,0,0,1,.39-.41h0a.39.39,0,0,1,.41.37V33H79a10.48,10.48,0,0,0,.51-1.07.36.36,0,0,1,.46-.24l.06,0a.39.39,0,0,1,.19.53v0c-.1.23-.21.47-.35.73h1.43c.21,0,.33.13.35.36a.33.33,0,0,1-.35.37h-2c-.08.22-.18.47-.31.77h2c.2,0,.3.15.32.35a.31.31,0,0,1-.28.38H77.58v.5h3.1a.36.36,0,0,1,0,.72h-3.1V37h3.61a.36.36,0,0,1,.38.32v.05a.36.36,0,0,1-.34.36H77.89a11.17,11.17,0,0,0,3.47,1.64.45.45,0,0,1,.35.5.4.4,0,0,1-.49.28Zm-5.26-6.43c.13.27.26.52.36.77h1.76c.14-.32.24-.57.31-.77Z" style="fill:#1d1d1b"/><path d="M85.89,40.6a3.57,3.57,0,0,1,0-4.89.21.21,0,0,1,.29,0h0a.23.23,0,0,1,0,.31,2.87,2.87,0,0,0-.84,2.1,2.83,2.83,0,0,0,.84,2.1.24.24,0,0,1,0,.32.21.21,0,0,1-.28.07Z" style="fill:#1d1d1b"/><path d="M88.8,40.17h-.46V37.23a2.67,2.67,0,0,1-.43.32,4.44,4.44,0,0,1-.49.24v-.45a2.93,2.93,0,0,0,.68-.44,1.9,1.9,0,0,0,.4-.53h.3Z" style="fill:#1d1d1b"/><path d="M90,39.28l.44,0a.77.77,0,0,0,.22.45.56.56,0,0,0,.41.14.68.68,0,0,0,.37-.09.92.92,0,0,0,.26-.26A1.44,1.44,0,0,0,91.9,39a2.1,2.1,0,0,0,.07-.56v-.09a1.19,1.19,0,0,1-.36.38,1,1,0,0,1-.53.13,1,1,0,0,1-.79-.33,1.42,1.42,0,0,1,0-1.81,1.13,1.13,0,0,1,.85-.35,1.21,1.21,0,0,1,.67.19,1.38,1.38,0,0,1,.45.59,2.7,2.7,0,0,1,.15,1,3.2,3.2,0,0,1-.15,1.15,1.37,1.37,0,0,1-.47.65,1.22,1.22,0,0,1-.72.22,1,1,0,0,1-1-.92Zm1.89-1.66a.91.91,0,0,0-.21-.63.65.65,0,0,0-.52-.23.67.67,0,0,0-.53.25.93.93,0,0,0-.23.7.8.8,0,0,0,.22.58.72.72,0,0,0,.52.23.68.68,0,0,0,.52-.23.86.86,0,0,0,.22-.65Z" style="fill:#1d1d1b"/><path d="M92.88,36.9v-.44h2.43v.36a5.41,5.41,0,0,0-.71,1,6.3,6.3,0,0,0-.52,1.3,4.81,4.81,0,0,0-.18,1h-.47a4.26,4.26,0,0,1,.17-1,5.45,5.45,0,0,1,.48-1.21,5,5,0,0,1,.66-1Z" style="fill:#1d1d1b"/><path d="M95.74,38.32a3.37,3.37,0,0,1,.14-1,1.22,1.22,0,0,1,.41-.63,1,1,0,0,1,.67-.22,1.06,1.06,0,0,1,.53.12,1,1,0,0,1,.37.35,1.86,1.86,0,0,1,.24.56,3.78,3.78,0,0,1,.08.89,3.41,3.41,0,0,1-.14,1,1.33,1.33,0,0,1-.4.62,1.07,1.07,0,0,1-.69.22,1,1,0,0,1-.85-.39A2.46,2.46,0,0,1,95.74,38.32Zm.47,0a2.37,2.37,0,0,0,.22,1.23.63.63,0,0,0,.85.21.8.8,0,0,0,.2-.21,2.27,2.27,0,0,0,.22-1.23,2.27,2.27,0,0,0-.22-1.23.63.63,0,0,0-.52-.31.6.6,0,0,0-.53.27A2.52,2.52,0,0,0,96.21,38.32Z" style="fill:#1d1d1b"/><path d="M99.4,40.6a.21.21,0,0,1-.29,0h0a.23.23,0,0,1,0-.31,3,3,0,0,0,0-4.2.23.23,0,0,1,0-.31.21.21,0,0,1,.29,0h0a3.33,3.33,0,0,1,1,2.45A3.28,3.28,0,0,1,99.4,40.6Z" style="fill:#1d1d1b"/><path d="M106.64,36.62a.32.32,0,0,1-.42-.16s0,0,0-.05a1.14,1.14,0,0,0-.09-.26l-.43.05V40a.37.37,0,0,1-.35.37h0a.35.35,0,0,1-.39-.35V36.28h-1a.35.35,0,0,1-.37-.33h0a.35.35,0,0,1,.3-.41h.24a5.66,5.66,0,0,0,.56-.82c-.19-.21-.52-.54-1-1a.37.37,0,0,1,0-.52l0,0a.45.45,0,0,1,.52,0c.25-.46.45-.93.7-1.39a.41.41,0,0,1,.53-.21.36.36,0,0,1,.21.46l0,0a11.35,11.35,0,0,1-.76,1.47l-.1.2.32.32c.23-.36.45-.76.65-1.15a.39.39,0,0,1,.51-.21l.06,0a.44.44,0,0,1,.08.6,15.89,15.89,0,0,1-1.39,2.22,3.78,3.78,0,0,0,.92-.08c-.06-.14-.1-.24-.13-.29a.3.3,0,0,1,.16-.42h0a.36.36,0,0,1,.46.15c.18.41.33.84.47,1.27A.36.36,0,0,1,106.64,36.62Zm-2.21,2.87a.44.44,0,0,1-.46.4.4.4,0,0,1-.31-.47s0,0,0,0a19.71,19.71,0,0,0,.2-2.16.41.41,0,0,1,.41-.41h0c.24,0,.35.18.34.44A15.28,15.28,0,0,1,104.43,39.49Zm2.11-.61a.35.35,0,0,1-.41-.26v0a4.16,4.16,0,0,0-.12-.77c-.06-.29-.06-.28-.08-.39a.37.37,0,0,1,.26-.44.33.33,0,0,1,.42.2s0,0,0,0a6.36,6.36,0,0,1,.21,1.22.38.38,0,0,1-.28.45Zm.79.82a.39.39,0,0,1-.5.24h0a.35.35,0,0,1-.25-.43s0,0,0,0a11.54,11.54,0,0,0,.49-2.09.37.37,0,0,1,.4-.35h0a.36.36,0,0,1,.34.37v0A8.43,8.43,0,0,1,107.33,39.7Zm3.89-3.11h-3.68c-.47,0-.68-.29-.68-.83v-3a.57.57,0,0,1,.17-.51.92.92,0,0,1,.59-.13h1.09c.11-.17.2-.39.27-.5a.47.47,0,0,1,.55-.24.31.31,0,0,1,.26.35l0,.1c0,.1-.08.19-.13.29h1.66a1.21,1.21,0,0,1,.67.14.66.66,0,0,1,.17.52V35.9C112.13,36.37,111.83,36.59,111.22,36.59Zm.13-3.51c0-.17-.07-.25-.26-.25h-3.21c-.18,0-.27.08-.27.2v2.64c0,.11.06.17.3.17h3.25c.15,0,.19,0,.19-.17Zm-1,1.57a2.44,2.44,0,0,1,.59.47.33.33,0,0,1,0,.45.34.34,0,0,1-.46,0l-.69-.49a4.46,4.46,0,0,1-1.4.6.36.36,0,0,1-.47-.21h0a.32.32,0,0,1,.2-.41h.06a5.2,5.2,0,0,0,1.06-.39c-.1-.07-.37-.23-.59-.35a2,2,0,0,1-.38.32.34.34,0,0,1-.46,0c-.19-.28,0-.43.2-.57a5.7,5.7,0,0,0,.85-.78.53.53,0,0,1,.43-.25h1.35c.4,0,.6.17.51.5a3.14,3.14,0,0,1-.82,1.18Zm0,5.49H109.2c-.64,0-1-.21-1-.68V37.07c0-.22.16-.31.37-.33a.31.31,0,0,1,.37.32v2c0,.16,0,.24.1.27a1,1,0,0,0,.49.06,2.56,2.56,0,0,0,.87-.06c.1,0,.15-.18.15-.49a.35.35,0,0,1,.37-.35h0a.34.34,0,0,1,.35.33v0C111.29,39.69,111,40.14,110.35,40.14Zm-.22-6.46h-.8c-.06.07-.14.13-.21.2.23.13.52.29.64.37a2,2,0,0,0,.44-.47S110.22,33.68,110.13,33.68Zm0,5c-.24,0-.46,0-.49-.31a10.56,10.56,0,0,0-.32-1.26.33.33,0,0,1,.2-.42h0a.38.38,0,0,1,.49.21,6.39,6.39,0,0,1,.35,1.35.37.37,0,0,1-.24.46Zm2,1.2a.39.39,0,0,1-.47-.29h0a14.49,14.49,0,0,0-.75-2.22.34.34,0,0,1,.12-.47l.08,0a.41.41,0,0,1,.54.21,9.61,9.61,0,0,1,.78,2.34.4.4,0,0,1-.26.49h0Z" style="fill:#1d1d1b"/><path d="M121.94,34c-.8-.27-1.54-.56-2.23-.86,0,.23-.07.34-.33.38h-2.69c-.31,0-.45-.17-.4-.42a14.74,14.74,0,0,1-2.22.9.43.43,0,0,1-.56-.26.39.39,0,0,1,.2-.5l.08,0a14.6,14.6,0,0,0,3.28-1.46,1.7,1.7,0,0,1,.81-.36,2.39,2.39,0,0,1,1.13.49,12.78,12.78,0,0,0,3.13,1.41.39.39,0,0,1,.28.46v0A.37.37,0,0,1,121.94,34Zm-.4,2.18a.89.89,0,0,1-.55.12h-6.15c-.45,0-.72-.09-.72-.6V34.53c0-.43.25-.63.76-.63H121c.47,0,.69.17.69.54v1.34a.52.52,0,0,1-.16.44ZM120.36,40h-4.81c-.53,0-.81-.22-.81-.69V37.49c0-.46.26-.65.83-.65h4.77c.52,0,.79.2.79.67v1.74a.68.68,0,0,1-.6.75Zm-2.79-5.44h-2.5a.19.19,0,0,0-.21.17v.74c0,.13,0,.18.19.18h1.24a5.11,5.11,0,0,1-.52-.52.34.34,0,0,1,0-.48l0,0a.4.4,0,0,1,.54.06,3,3,0,0,1,.53.59.37.37,0,0,1-.06.38h.7Zm2.8,3.16c0-.15,0-.2-.18-.18h-4.46c-.17,0-.23.06-.23.18V38h4.87Zm0,1.05H115.5v.34c0,.11.06.17.23.17h4.46c.13,0,.18,0,.18-.17Zm-1.9-6.3c-.27-.17-.4-.22-.44-.21a5.22,5.22,0,0,0-1.2.55h2.24a5.21,5.21,0,0,1-.6-.32Zm2.47,2.26c0-.11,0-.17-.19-.17h-2.42v1.09h.39a5.92,5.92,0,0,0,.67-.89.41.41,0,0,1,.54-.15.33.33,0,0,1,.18.43.43.43,0,0,1,0,.07c-.12.19-.24.37-.37.54h1.07c.13,0,.17,0,.17-.16Z" style="fill:#1d1d1b"/><path d="M5.6,49.69V43.38H3.67v-.85H8.32v.85H6.38v6.31Z" style="fill:#1d1d1b"/><path d="M9,49.69V42.53h.71V45.1a1.73,1.73,0,0,1,.58-.53,1.52,1.52,0,0,1,1.78.25,2.48,2.48,0,0,1,.39,1.59v3.28h-.75V46.41a1.6,1.6,0,0,0-.24-1,.77.77,0,0,0-.66-.29,1,1,0,0,0-.8.37,2,2,0,0,0-.3,1.36v2.84Z" style="fill:#1d1d1b"/><path d="M16.37,48l.74.11a2.26,2.26,0,0,1-.67,1.26,1.81,1.81,0,0,1-1.2.42,1.77,1.77,0,0,1-1.46-.69,3,3,0,0,1-.56-2,3.24,3.24,0,0,1,.56-2,1.74,1.74,0,0,1,1.43-.7,1.72,1.72,0,0,1,1.38.69,3.23,3.23,0,0,1,.55,2v.23H14a2.17,2.17,0,0,0,.41,1.32,1.07,1.07,0,0,0,.87.45C15.79,49.09,16.16,48.73,16.37,48ZM14,46.6h2.38a2.07,2.07,0,0,0-.29-1,1.05,1.05,0,0,0-1.71-.08A1.77,1.77,0,0,0,14,46.6Z" style="fill:#1d1d1b"/><path d="M20.36,49.69V42.53h4v.85H21.14v2.21h2.75v.85H21.14v3.25Z" style="fill:#1d1d1b"/><path d="M28.07,48l.75.11a2.37,2.37,0,0,1-.68,1.26,1.81,1.81,0,0,1-1.2.42,1.77,1.77,0,0,1-1.46-.69,3,3,0,0,1-.56-2,3.24,3.24,0,0,1,.56-2,1.75,1.75,0,0,1,1.43-.7,1.72,1.72,0,0,1,1.38.69,3.23,3.23,0,0,1,.55,2v.23H25.67a2.17,2.17,0,0,0,.41,1.32,1.08,1.08,0,0,0,.88.45C27.49,49.09,27.86,48.73,28.07,48Zm-2.4-1.4H28a2.07,2.07,0,0,0-.29-1A1.05,1.05,0,0,0,26,45.52,1.76,1.76,0,0,0,25.67,46.6Z" style="fill:#1d1d1b"/><path d="M32.43,49.69V49a1.53,1.53,0,0,1-.5.57,1.22,1.22,0,0,1-.66.2A1.62,1.62,0,0,1,30,49.06a3.16,3.16,0,0,1-.54-2,4,4,0,0,1,.25-1.46,2,2,0,0,1,.65-.91,1.46,1.46,0,0,1,.9-.3,1.21,1.21,0,0,1,.66.19,1.41,1.41,0,0,1,.51.52V42.53h.73v7.16ZM30.15,47.1a2.55,2.55,0,0,0,.35,1.5.92.92,0,0,0,1.61,0,2.52,2.52,0,0,0,.34-1.42,2.94,2.94,0,0,0-.34-1.59,1,1,0,0,0-.85-.5.94.94,0,0,0-.78.48A2.66,2.66,0,0,0,30.15,47.1Z" style="fill:#1d1d1b"/><path d="M37.09,48l.75.11a2.35,2.35,0,0,1-.67,1.26,1.92,1.92,0,0,1-2.67-.27,3,3,0,0,1-.56-2,3.24,3.24,0,0,1,.56-2,1.75,1.75,0,0,1,1.43-.7,1.72,1.72,0,0,1,1.38.69,3.23,3.23,0,0,1,.55,2v.23H34.67a2.17,2.17,0,0,0,.41,1.32,1.08,1.08,0,0,0,.88.45C36.51,49.09,36.88,48.73,37.09,48Zm-2.36-1.4H37.1a2.07,2.07,0,0,0-.29-1,1,1,0,0,0-.88-.48,1.06,1.06,0,0,0-.83.4A1.76,1.76,0,0,0,34.73,46.6Z" style="fill:#1d1d1b"/><path d="M38.67,49.69V44.51h.65v.78a2.11,2.11,0,0,1,.46-.72.65.65,0,0,1,.46-.18,1.25,1.25,0,0,1,.74.28l-.25.82a.83.83,0,0,0-.52-.19.63.63,0,0,0-.42.16,1,1,0,0,0-.27.45,3.64,3.64,0,0,0-.1,1.09v2.71Z" style="fill:#1d1d1b"/><path d="M44.15,49.05a3,3,0,0,1-.75.57,1.92,1.92,0,0,1-.81.19,1.42,1.42,0,0,1-1.06-.4,1.44,1.44,0,0,1-.4-1.08,1.5,1.5,0,0,1,.19-.8,1.3,1.3,0,0,1,.5-.54,2.68,2.68,0,0,1,1-.29,5.76,5.76,0,0,0,1.29-.3v-.23a1.24,1.24,0,0,0-.19-.75,1,1,0,0,0-.82-.31,1.1,1.1,0,0,0-.75.21,1.3,1.3,0,0,0-.37.78l-.73-.1a2,2,0,0,1,.61-1.22,2,2,0,0,1,1.33-.38,2,2,0,0,1,1,.25,1.15,1.15,0,0,1,.48.62,5.67,5.67,0,0,1,.1,1.09v2.72a1.87,1.87,0,0,0,.19.62H44.2A2,2,0,0,1,44.15,49.05Zm-.06-2a4.94,4.94,0,0,1-1.18.33,2,2,0,0,0-.63.18.63.63,0,0,0-.28.28.91.91,0,0,0,.13,1,.82.82,0,0,0,.63.22,1.35,1.35,0,0,0,.7-.2,1.23,1.23,0,0,0,.47-.54,2.29,2.29,0,0,0,.16-1Z" style="fill:#1d1d1b"/><path d="M47.49,48.91l.1.77a2,2,0,0,1-.54.08,1.05,1.05,0,0,1-.6-.15.69.69,0,0,1-.32-.41,3.72,3.72,0,0,1-.08-1v-3h-.53v-.68h.53v-1.3l.71-.53v1.82h.73v.68h-.73v3a1.11,1.11,0,0,0,.07.54.34.34,0,0,0,.34.18Z" style="fill:#1d1d1b"/><path d="M48.12,43.54v-1h.72v1Zm0,6.15V44.51h.72v5.18Z" style="fill:#1d1d1b"/><path d="M49.67,47.1a3.1,3.1,0,0,1,.56-2,1.83,1.83,0,0,1,2.57-.28,3.7,3.7,0,0,1,.28.28,3,3,0,0,1,.57,2,3.2,3.2,0,0,1-.56,2.08,1.82,1.82,0,0,1-2.56.29,1.33,1.33,0,0,1-.29-.29A3,3,0,0,1,49.67,47.1Zm.73,0a2.46,2.46,0,0,0,.37,1.49,1,1,0,0,0,1.78,0,3.3,3.3,0,0,0,0-3,1.15,1.15,0,0,0-.91-.49,1,1,0,0,0-.87.5,2.43,2.43,0,0,0-.42,1.5Z" style="fill:#1d1d1b"/><path d="M54.4,49.69V44.51h.65v.73a1.66,1.66,0,0,1,.62-.64,1.5,1.5,0,0,1,.78-.21,1.55,1.55,0,0,1,.63.13,1.26,1.26,0,0,1,.47.36,1.46,1.46,0,0,1,.27.56,5.35,5.35,0,0,1,.08,1.06v3.19h-.71V46.53a2.9,2.9,0,0,0-.1-.83.85.85,0,0,0-.31-.41.75.75,0,0,0-.48-.14,1,1,0,0,0-.82.38,2.08,2.08,0,0,0-.31,1.33v2.83Z" style="fill:#1d1d1b"/><path d="M60.87,47.1a3.1,3.1,0,0,1,.56-2,1.83,1.83,0,0,1,2.85,0,3,3,0,0,1,.57,2,3.2,3.2,0,0,1-.56,2.08,1.82,1.82,0,0,1-2.56.29,1.33,1.33,0,0,1-.29-.29A3,3,0,0,1,60.87,47.1Zm.74,0A2.45,2.45,0,0,0,62,48.59a1.11,1.11,0,0,0,.91.5,1.08,1.08,0,0,0,.87-.5,2.44,2.44,0,0,0,.37-1.49,2.62,2.62,0,0,0-.37-1.5,1.12,1.12,0,0,0-.91-.49,1,1,0,0,0-.87.5A2.45,2.45,0,0,0,61.61,47.1Z" style="fill:#1d1d1b"/><path d="M65.85,49.69v-4.5h-.64v-.68h.64V44a2.54,2.54,0,0,1,.13-.91.94.94,0,0,1,.39-.47,1.18,1.18,0,0,1,.66-.16,2.57,2.57,0,0,1,.67.09l-.1.77a1.58,1.58,0,0,0-.43,0,.56.56,0,0,0-.46.16,1.06,1.06,0,0,0-.14.65v.48h.83v.68h-.83v4.5Z" style="fill:#1d1d1b"/><path d="M70.21,49.69V42.53H71v2.94H74V42.53h.78v7.16H74V46.32H71v3.37Z" style="fill:#1d1d1b"/><path d="M75.67,47.1a3.1,3.1,0,0,1,.56-2,1.83,1.83,0,0,1,2.57-.28,3.7,3.7,0,0,1,.28.28,3.08,3.08,0,0,1,.59,1.9,3.26,3.26,0,0,1-.56,2.08,1.82,1.82,0,0,1-2.56.29,1.33,1.33,0,0,1-.29-.29A3,3,0,0,1,75.67,47.1Zm.74,0a2.45,2.45,0,0,0,.36,1.49,1.11,1.11,0,0,0,.91.5,1.08,1.08,0,0,0,.87-.5,3.24,3.24,0,0,0,0-3,1.15,1.15,0,0,0-.91-.49,1,1,0,0,0-.87.5,2.46,2.46,0,0,0-.32,1.5Z" style="fill:#1d1d1b"/><path d="M80.49,49.69V44.51h.65v.73a1.72,1.72,0,0,1,.53-.64,1.5,1.5,0,0,1,.78-.21,1.55,1.55,0,0,1,.63.13,1.26,1.26,0,0,1,.47.36,1.46,1.46,0,0,1,.27.56,5.35,5.35,0,0,1,.08,1.06v3.19h-.71V46.53a2.9,2.9,0,0,0-.1-.83.85.85,0,0,0-.31-.41.75.75,0,0,0-.48-.14,1,1,0,0,0-.82.38,2.08,2.08,0,0,0-.31,1.33v2.83Z" style="fill:#1d1d1b"/><path d="M84.86,50.12l.7.13a.88.88,0,0,0,.3.62,1.07,1.07,0,0,0,.68.2,1.2,1.2,0,0,0,.75-.22,1.22,1.22,0,0,0,.38-.68A6.57,6.57,0,0,0,87.74,49a1.81,1.81,0,0,1-.53.5,1.37,1.37,0,0,1-.65.17A1.51,1.51,0,0,1,85.3,49a3.11,3.11,0,0,1-.58-2A3.66,3.66,0,0,1,85,45.57a2,2,0,0,1,.67-.92,1.6,1.6,0,0,1,.93-.29,1.36,1.36,0,0,1,.68.18,1.73,1.73,0,0,1,.55.56v-.62h.66V49a5.48,5.48,0,0,1-.19,1.71,1.69,1.69,0,0,1-.64.8,1.85,1.85,0,0,1-1.07.3,1.69,1.69,0,0,1-1.27-.45A1.54,1.54,0,0,1,84.86,50.12Zm.6-3.11a2.58,2.58,0,0,0,.33,1.49,1,1,0,0,0,.88.5,1,1,0,0,0,.83-.46A2.51,2.51,0,0,0,87.8,47a2.45,2.45,0,0,0-.36-1.45.94.94,0,0,0-1.64,0A2.32,2.32,0,0,0,85.46,47Z" style="fill:#1d1d1b"/><path d="M91.82,49.69V42.53h.77v3.55l2.92-3.55h1l-2.46,2.91,2.62,4.25h-1l-2.08-3.62-1,1.14v2.48Z" style="fill:#1d1d1b"/><path d="M96.89,47.1a3.1,3.1,0,0,1,.56-2,1.83,1.83,0,0,1,2.57-.28,3.7,3.7,0,0,1,.28.28,3,3,0,0,1,.57,2,3.2,3.2,0,0,1-.56,2.08,1.82,1.82,0,0,1-2.56.29,1.33,1.33,0,0,1-.29-.29A3,3,0,0,1,96.89,47.1Zm.74,0A2.45,2.45,0,0,0,98,48.59a1.11,1.11,0,0,0,.91.5,1.08,1.08,0,0,0,.87-.5,3.24,3.24,0,0,0,0-3,1.12,1.12,0,0,0-.91-.49,1,1,0,0,0-.87.5,2.46,2.46,0,0,0-.32,1.5Z" style="fill:#1d1d1b"/><path d="M101.67,49.69V44.51h.65v.73a1.67,1.67,0,0,1,.57-.64,1.5,1.5,0,0,1,.78-.21,1.55,1.55,0,0,1,.63.13,1.26,1.26,0,0,1,.47.36,1.46,1.46,0,0,1,.27.56,4.7,4.7,0,0,1,.09,1.06v3.19h-.72V46.53a2.9,2.9,0,0,0-.1-.83.85.85,0,0,0-.31-.41.75.75,0,0,0-.48-.14,1,1,0,0,0-.82.38,2.08,2.08,0,0,0-.31,1.33v2.83Z" style="fill:#1d1d1b"/><path d="M106,50.12l.71.13a.87.87,0,0,0,.29.62,1.07,1.07,0,0,0,.68.2,1.2,1.2,0,0,0,.75-.22,1.22,1.22,0,0,0,.38-.68,6.35,6.35,0,0,0,.07-1.15,1.81,1.81,0,0,1-.53.5,1.37,1.37,0,0,1-.65.17,1.51,1.51,0,0,1-1.26-.64,3.11,3.11,0,0,1-.58-2,3.66,3.66,0,0,1,.25-1.46,2,2,0,0,1,.67-.92,1.6,1.6,0,0,1,.93-.29,1.36,1.36,0,0,1,.68.18,1.73,1.73,0,0,1,.55.56V44.5h.69V49a5.49,5.49,0,0,1-.2,1.71,1.69,1.69,0,0,1-.64.8,1.85,1.85,0,0,1-1.07.3,1.69,1.69,0,0,1-1.27-.45A1.55,1.55,0,0,1,106,50.12Zm.63-3.12a2.58,2.58,0,0,0,.33,1.49,1,1,0,0,0,1.66,0A2.53,2.53,0,0,0,109,47a2.45,2.45,0,0,0-.36-1.45.94.94,0,0,0-1.64,0A2.36,2.36,0,0,0,106.67,47Z" style="fill:#1d1d1b"/><path d="M113.08,49.69V42.53h4v.85H113.9v2.21h2.75v.85H113.9v3.25Z" style="fill:#1d1d1b"/><path d="M117.61,47.1a3.1,3.1,0,0,1,.56-2,1.83,1.83,0,0,1,2.85,0,3,3,0,0,1,.57,2,3.2,3.2,0,0,1-.56,2.08,1.82,1.82,0,0,1-2.56.29,1.33,1.33,0,0,1-.29-.29A3,3,0,0,1,117.61,47.1Zm.74,0a2.45,2.45,0,0,0,.36,1.49,1.11,1.11,0,0,0,.91.5,1.08,1.08,0,0,0,.87-.5,3.24,3.24,0,0,0,0-3,1.12,1.12,0,0,0-.91-.49,1,1,0,0,0-.87.5A2.47,2.47,0,0,0,118.35,47.1Z" style="fill:#1d1d1b"/><path d="M122.12,47.1a3.1,3.1,0,0,1,.56-2,1.83,1.83,0,0,1,2.85,0,3.06,3.06,0,0,1,.58,2,3.21,3.21,0,0,1-.57,2.08,1.82,1.82,0,0,1-2.56.29,1.33,1.33,0,0,1-.29-.29A3,3,0,0,1,122.12,47.1Zm.74,0a2.45,2.45,0,0,0,.36,1.49,1.11,1.11,0,0,0,.91.5,1.08,1.08,0,0,0,.87-.5,3.24,3.24,0,0,0,0-3,1.12,1.12,0,0,0-.91-.49,1,1,0,0,0-.87.5A2.47,2.47,0,0,0,122.86,47.1Z" style="fill:#1d1d1b"/><path d="M128.51,48.91l.09.77a2,2,0,0,1-.53.08,1.07,1.07,0,0,1-.61-.15.71.71,0,0,1-.31-.41,3.36,3.36,0,0,1-.09-1v-3h-.53v-.68h.53v-1.3l.72-.53v1.82h.73v.68h-.73v3a1.24,1.24,0,0,0,.06.54.37.37,0,0,0,.35.18Z" style="fill:#1d1d1b"/><path d="M129.92,49.69l-1.31-5.18h.75l.67,3,.26,1.11.22-1.07.67-3h.75l.63,3,.22,1,.24-1,.72-3h.71l-1.33,5.18h-.75l-.68-3.1-.16-.89-.86,4Z" style="fill:#1d1d1b"/><path d="M137.91,48l.74.11a2.35,2.35,0,0,1-.67,1.26,1.83,1.83,0,0,1-1.2.42,1.79,1.79,0,0,1-1.47-.69,3,3,0,0,1-.56-2,3.17,3.17,0,0,1,.57-2,1.73,1.73,0,0,1,1.43-.7,1.66,1.66,0,0,1,1.37.69,3.23,3.23,0,0,1,.55,2v.23H135.5a2.23,2.23,0,0,0,.4,1.32,1.08,1.08,0,0,0,.88.45C137.32,49.09,137.67,48.73,137.91,48Zm-2.37-1.42h2.37a2.06,2.06,0,0,0-.28-1,1.08,1.08,0,0,0-.89-.48,1,1,0,0,0-.82.4,1.69,1.69,0,0,0-.38,1.1Z" style="fill:#1d1d1b"/><path d="M142.28,49.05a3,3,0,0,1-.75.57,1.75,1.75,0,0,1-.81.19,1.42,1.42,0,0,1-1.06-.4,1.44,1.44,0,0,1-.4-1.08,1.6,1.6,0,0,1,.19-.8A1.32,1.32,0,0,1,140,47a2.68,2.68,0,0,1,1-.29,5.76,5.76,0,0,0,1.29-.3v-.23a1.24,1.24,0,0,0-.19-.75,1.07,1.07,0,0,0-.83-.31,1.16,1.16,0,0,0-.75.21,1.3,1.3,0,0,0-.37.78l-.7-.11a1.91,1.91,0,0,1,.61-1.22,2.07,2.07,0,0,1,1.32-.38,1.86,1.86,0,0,1,1,.25,1.15,1.15,0,0,1,.48.62,4.43,4.43,0,0,1,.1,1.09v1.17a13.38,13.38,0,0,0,.05,1.55,2.31,2.31,0,0,0,.18.62h-.75A1.77,1.77,0,0,1,142.28,49.05Zm-.06-2a4.86,4.86,0,0,1-1.17.33,1.75,1.75,0,0,0-.64.18.69.69,0,0,0-.28.28.77.77,0,0,0-.1.42.8.8,0,0,0,.23.6.83.83,0,0,0,.64.22,1.35,1.35,0,0,0,.7-.2,1.3,1.3,0,0,0,.47-.54,2.44,2.44,0,0,0,.15-1Z" style="fill:#1d1d1b"/><path d="M144,49.69V44.51h.65v.78a2.11,2.11,0,0,1,.46-.72.67.67,0,0,1,.47-.18,1.25,1.25,0,0,1,.73.28l-.24.82a.89.89,0,0,0-.52-.19.58.58,0,0,0-.42.16.76.76,0,0,0-.27.45,3.88,3.88,0,0,0-.14,1.07v2.71Z" style="fill:#1d1d1b"/><path d="M149,49.69V42.53h.77v6.32h2.91v.84Z" style="fill:#1d1d1b"/><path d="M155.05,48.91l.09.77a2,2,0,0,1-.53.08,1.07,1.07,0,0,1-.61-.15.71.71,0,0,1-.31-.41,3.36,3.36,0,0,1-.09-1v-3h-.53v-.68h.53v-1.3l.72-.53v1.82h.73v.68h-.73v3a1.24,1.24,0,0,0,.06.54.37.37,0,0,0,.35.18Z" style="fill:#1d1d1b"/><path d="M158.43,49.69V49a1.53,1.53,0,0,1-.5.57,1.25,1.25,0,0,1-.67.2,1.6,1.6,0,0,1-1.3-.71,3.17,3.17,0,0,1-.55-2,3.84,3.84,0,0,1,.24-1.5,1.94,1.94,0,0,1,.66-.91,1.46,1.46,0,0,1,.9-.3,1.21,1.21,0,0,1,.66.19,1.69,1.69,0,0,1,.51.52V42.53h.72v7.16Zm-2.28-2.59a2.55,2.55,0,0,0,.35,1.5,1,1,0,0,0,.81.49,1,1,0,0,0,.8-.47,2.51,2.51,0,0,0,.33-1.42,3.12,3.12,0,0,0-.33-1.59,1,1,0,0,0-.85-.5.9.9,0,0,0-.78.48A2.66,2.66,0,0,0,156.15,47.1Z" style="fill:#1d1d1b"/><path d="M160.41,49.69v-1h.82v1Z" style="fill:#1d1d1b"/><path d="M63.15,15.91,61.67,16a1.46,1.46,0,0,1-.3,1.7,2.16,2.16,0,0,1-2,.06.42.42,0,0,1-.26-.21.4.4,0,0,1,.18-.54h0a.55.55,0,0,1,.4,0c1,.37,1.62.28,1.23-.92l-2.23.12a.36.36,0,0,1-.42-.29v-.05a.41.41,0,0,1,.38-.44h0l1.77-.07c-.14-.24,0-.47.27-.66a5.77,5.77,0,0,1,.9-.44.5.5,0,0,0,.21-.12h-2.9c-.21,0-.3-.16-.31-.38s.1-.38.31-.38h3.82a.58.58,0,0,1,.6.46.57.57,0,0,1-.39.63,10.54,10.54,0,0,0-1.54.67c-.14.09-.13.12-.07.15h.44l1.33-.1a.36.36,0,0,1,.4.33.06.06,0,0,1,0,0,.36.36,0,0,1-.36.36Zm0-5.31H58.67c-.22,0-.34-.17-.34-.41s.12-.41.34-.41h1.95v-.4c0-.25.19-.36.46-.38a.37.37,0,0,1,.45.38v.4h1.63c.22,0,.35.16.35.41A.36.36,0,0,1,63.15,10.6Zm-.25,2.29a.84.84,0,0,1-.51.1H59.53a.5.5,0,0,1-.57-.44.29.29,0,0,1,0-.13V11.7c0-.46.13-.68.61-.68h2.8c.44,0,.66.19.66.6v.82A.61.61,0,0,1,62.9,12.89Zm-.77-1.14H59.82c-.08,0-.15.08-.15.3s.06.22.15.22h2.31c.13,0,.21,0,.19-.28S62.26,11.75,62.13,11.75Zm4.59,5.34a3,3,0,0,1-1.89.27.4.4,0,0,1-.38-.42.09.09,0,0,1,0-.05.39.39,0,0,1,.45-.36h0c.9.07,1.39-.12,1.49-.54a2.76,2.76,0,0,0-.93-2.44,1,1,0,0,1-.29-.47,1.14,1.14,0,0,1,0-.58c.05-.2.21-.63.47-1.3.12-.28.2-.49.25-.63.14-.36.06-.44-.11-.44H64.67c-.13,0-.19.09-.21.24v7.31a.39.39,0,0,1-.37.39h0a.37.37,0,0,1-.4-.39V10.31c0-.64.3-1,.91-1H66c.82,0,1.15.32.91,1-.1.3-.25.75-.49,1.36a5.42,5.42,0,0,0-.38,1.18.9.9,0,0,0,.15.19,3.81,3.81,0,0,1,1.11,2.46A1.93,1.93,0,0,1,66.72,17.09Z" style="fill:#1d1d1b"/><path d="M69,12.32c-.23,0-.39-.07-.41-.28-.06-.48-.15-1.09-.28-1.85a.34.34,0,0,1,.26-.42h0A.33.33,0,0,1,69,10a.06.06,0,0,0,0,0,12,12,0,0,1,.3,1.89A.37.37,0,0,1,69,12.32Zm2,4.82a.57.57,0,0,1-.66.27.66.66,0,0,1-.34-.67V13.55h-.2v1.69a4.89,4.89,0,0,1-.67,2.53.42.42,0,0,1-.57.13h0a.4.4,0,0,1-.14-.55h0a4.67,4.67,0,0,0,.63-2.22V13.55h-.42c-.22,0-.34-.17-.33-.41s.13-.4.35-.4h.76V9.42c0-.22.16-.34.4-.33a.36.36,0,0,1,.39.32v3.33H71c.22,0,.34.18.34.41s-.12.4-.34.4h-.3v2.53c.09-.13.17-.31.26-.44a.33.33,0,0,1,.47-.13h0a.4.4,0,0,1,.21.48A6.87,6.87,0,0,1,71,17.14ZM71.1,12a.31.31,0,0,1-.35.25l-.06,0a.34.34,0,0,1-.24-.4v0c.1-.48.22-1.06.32-1.74a.32.32,0,0,1,.32-.32h.06a.34.34,0,0,1,.31.36v0A10.52,10.52,0,0,1,71.1,12Zm5.69,5.87H72.74a.68.68,0,0,1-.76-.58,1.21,1.21,0,0,1,0-.19V14.61a3,3,0,0,1-.43.37A.39.39,0,0,1,71,15l0,0a.39.39,0,0,1,.06-.55l0,0a5.1,5.1,0,0,0,1.42-1.47.51.51,0,0,1,.23-.23.49.49,0,0,1,0-.17.43.43,0,0,1,.18-.34.3.3,0,0,1,.26,0,.46.46,0,0,0,.21,0,.13.13,0,0,0,.1-.11V11.6a8,8,0,0,1-1.44.71.29.29,0,0,1-.31,0,.41.41,0,0,1-.11-.38.32.32,0,0,1,.19-.25,7.4,7.4,0,0,0,1.67-.82v-.69a.18.18,0,0,0-.17-.17H71.91a.25.25,0,0,1-.24-.12.4.4,0,0,1,0-.42.27.27,0,0,1,.24-.16h1.76a.63.63,0,0,1,.44.19.75.75,0,0,1,.13.43v2.31a.72.72,0,0,1-.17.51.68.68,0,0,1-.5.19H73.3a.36.36,0,0,1,0,.32c0,.08-.1.16-.16.24h1.21l.32-.57a.38.38,0,0,1,.49-.21h0a.36.36,0,0,1,.23.44l0,.05-.15.28h1.57c.19,0,.27.18.26.39s-.11.36-.3.36h-1.7v.44h1.58c.21,0,.31.15.3.37s-.11.37-.32.37H75v.44h1.59c.21,0,.32.15.33.37s-.1.38-.31.38H75v.54h1.79a.38.38,0,0,1,0,.75ZM72.93,11a.24.24,0,0,1-.26,0,3,3,0,0,0-.8-.27.25.25,0,0,1-.2-.17.35.35,0,0,1,.09-.36.34.34,0,0,1,.28-.07,2.7,2.7,0,0,1,.82.26.39.39,0,0,1,.2.25A.36.36,0,0,1,72.93,11Zm1.27,3.22H73c-.16,0-.21,0-.21.26v.18H74.2Zm0,1.18H72.81v.44H74.2Zm0,1.19H72.81v.28c0,.21.06.27.17.26H74.2Zm2.63-3.85a.75.75,0,0,1-.49.19,1.29,1.29,0,0,1-.67-.18.28.28,0,0,1-.13-.26.43.43,0,0,1,.13-.34.28.28,0,0,1,.25,0,.54.54,0,0,0,.22,0,.13.13,0,0,0,.1-.11V11.6a7.62,7.62,0,0,1-1.43.71.29.29,0,0,1-.31,0,.37.37,0,0,1-.11-.38.29.29,0,0,1,.19-.25,8.54,8.54,0,0,0,1.66-.82v-.69A.17.17,0,0,0,76.1,10H74.67a.3.3,0,0,1-.25-.13.45.45,0,0,1,0-.42.28.28,0,0,1,.25-.15h1.71a.6.6,0,0,1,.45.19.73.73,0,0,1,.13.43v2.31A.77.77,0,0,1,76.83,12.74ZM75.72,11a.24.24,0,0,1-.26,0,3,3,0,0,0-.8-.27.25.25,0,0,1-.19-.19.36.36,0,0,1,.08-.36.33.33,0,0,1,.29-.07,3,3,0,0,1,.82.26.38.38,0,0,1,.06.63Z" style="fill:#1d1d1b"/><path d="M80.84,16H79.2a.78.78,0,0,1-.77-.79.22.22,0,0,1,0-.08v-5a.73.73,0,0,1,.64-.81h1.76a.76.76,0,0,1,.84.65v5.18a.83.83,0,0,1-.79.85Zm0-5.64c0-.11,0-.2-.17-.2H79.43a.17.17,0,0,0-.19.15v1.94h1.64Zm0,2.72h-1.6V15a.16.16,0,0,0,.14.19h1.29a.16.16,0,0,0,.2-.12.17.17,0,0,0,0-.07Zm4.9,5a4.34,4.34,0,0,1-1.25-.18.47.47,0,0,1-.38-.48.38.38,0,0,1,.38-.4h0l.16,0a3.41,3.41,0,0,0,1,.19c.24,0,.46-.06.46-.34v-2H83.47c-.23,1.82-1.81,2.67-3.51,3h-.14a.43.43,0,0,1-.45-.41h0c0-.26.16-.38.4-.43a3.46,3.46,0,0,0,2.72-1.75,2.32,2.32,0,0,0,.18-.65V10.21a.78.78,0,0,1,.7-.85H86a.83.83,0,0,1,.93.73.66.66,0,0,1,0,.14V17c0,.75-.48,1-1.17,1Zm.33-7.67a.18.18,0,0,0-.16-.18H83.67c-.11,0-.17,0-.17.16v1.3h2.61Zm0,2.16H83.5v1.48h2.61Z" style="fill:#1d1d1b"/><path d="M96.79,13.71H94.18v2.75a.56.56,0,0,0,.48.63.38.38,0,0,0,.15,0h.86a.48.48,0,0,0,.49-.25,2.12,2.12,0,0,0,.09-1,.38.38,0,0,1,.34-.43h.08a.4.4,0,0,1,.45.38c.14,1.42-.23,2.13-1.14,2.13H94.67c-.91,0-1.35-.42-1.35-1.33V13.71H91.67A4.34,4.34,0,0,1,89,17.85a.47.47,0,0,1-.63-.18v0A.45.45,0,0,1,88.5,17l0,0a3.38,3.38,0,0,0,2.24-3.3h-2.2a.36.36,0,0,1-.34-.4h0a.36.36,0,0,1,.32-.41h3.77V11.22H90a5,5,0,0,1-1.15,1.27.43.43,0,0,1-.6,0l0,0a.42.42,0,0,1,0-.61l0,0a3.73,3.73,0,0,0,1.43-2.27.39.39,0,0,1,.43-.36h.07a.39.39,0,0,1,.39.4v.07a3.52,3.52,0,0,1-.24.78h1.89v-1a.45.45,0,0,1,.9,0v1h3.19a.35.35,0,0,1,.34.36v0c0,.24-.12.39-.34.39H93.23v1.67h3.56a.37.37,0,0,1,.36.38v0a.38.38,0,0,1-.33.41Z" style="fill:#1d1d1b"/><path d="M106.67,17.77H98.55c-.25,0-.38-.15-.4-.41a.37.37,0,0,1,.4-.42h3.67V14.69H99.38a.42.42,0,0,1,0-.84h2.84V11.7H99.89a7,7,0,0,1-1,1.46.55.55,0,0,1-.31.18.34.34,0,0,1-.32-.07.47.47,0,0,1,0-.66A5.27,5.27,0,0,0,99.61,9.7a.39.39,0,0,1,.43-.36h.08a.42.42,0,0,1,.34.48s0,0,0,.06a8.56,8.56,0,0,1-.24,1h2V9.41c0-.25.18-.36.44-.38a.37.37,0,0,1,.44.38v1.45h3.2c.23,0,.35.18.36.43a.37.37,0,0,1-.38.41H103.1v2.17h3c.23,0,.34.17.36.41a.35.35,0,0,1-.36.41h-3v2.25h3.57c.24,0,.36.16.38.42A.35.35,0,0,1,106.67,17.77Z" style="fill:#1d1d1b"/><path d="M38.3,28.37V21.21h1.43l1.69,5.07c.16.47.27.82.34,1,.08-.26.21-.64.38-1.14l1.72-5h1.27V28.3h-.91v-6l-2.08,6h-.86l-2.07-6.1v6.1Z" style="fill:#1d1d1b"/><path d="M46.49,28.37V23.18h.79V24a2.1,2.1,0,0,1,.56-.73,1,1,0,0,1,.56-.18,1.72,1.72,0,0,1,.9.29l-.3.81a1.23,1.23,0,0,0-.64-.19.87.87,0,0,0-.52.17,1,1,0,0,0-.33.48,3.77,3.77,0,0,0-.14,1v2.72Z" style="fill:#1d1d1b"/><path d="M49.47,28.37v-1h1v1Z" style="fill:#1d1d1b"/><path d="M54.75,28.37V21.21h1v3.55l3.56-3.55h1.28l-3,2.9,3.08,4.26H59.42l-2.55-3.63-1.2,1.14v2.49Z" style="fill:#1d1d1b"/><path d="M62.67,28.37l-1.9-7.16h1l1.09,4.69c.11.49.21,1,.3,1.46.18-.76.29-1.2.32-1.32l1.36-4.83H66l1,3.62a20.05,20.05,0,0,1,.56,2.53c.09-.45.21-1,.35-1.55L69,21.21h1l-2,7.16h-.92L65.6,22.91c-.12-.45-.2-.73-.22-.84q-.12.49-.21.84l-1.5,5.46Z" style="fill:#1d1d1b"/><path d="M70.51,24.88a3.86,3.86,0,0,1,1-2.79,3.27,3.27,0,0,1,2.47-1,3.55,3.55,0,0,1,1.79.47A3.15,3.15,0,0,1,77,22.88a4.42,4.42,0,0,1,.42,1.93A4.21,4.21,0,0,1,77,26.75a3.05,3.05,0,0,1-1.29,1.3,3.68,3.68,0,0,1-1.74.44,3.34,3.34,0,0,1-1.8-.49,3.24,3.24,0,0,1-1.21-1.33A4.12,4.12,0,0,1,70.51,24.88Zm1,0a2.78,2.78,0,0,0,.7,2,2.39,2.39,0,0,0,3.4.09l.1-.09a3,3,0,0,0,.69-2.13,3.77,3.77,0,0,0-.29-1.52,2.35,2.35,0,0,0-.87-1,2.5,2.5,0,0,0-3,.34,3,3,0,0,0-.75,2.32Z" style="fill:#1d1d1b"/><path d="M78.49,28.37V21.21h1v3.55L83,21.21h1.29l-3,2.9,3.14,4.26H83.16l-2.55-3.63-1.17,1.14v2.49Z" style="fill:#1d1d1b"/><path d="M89.67,28.37v-3l-2.75-4.12h1.15l1.41,2.16c.26.4.5.8.73,1.21.21-.38.47-.8.78-1.27l1.39-2.1h1.1l-2.81,4.08v3Z" style="fill:#1d1d1b"/><path d="M93.84,22.22v-1h.88v1Zm0,6.15V23.18h.88v5.19Z" style="fill:#1d1d1b"/><path d="M99.41,28.37V27.6a1.93,1.93,0,0,1-1.65.88,2.27,2.27,0,0,1-.86-.17,1.39,1.39,0,0,1-.59-.45,1.55,1.55,0,0,1-.27-.65,3.77,3.77,0,0,1-.05-.82V23.18h.88v2.88a4.71,4.71,0,0,0,0,.92.88.88,0,0,0,.35.55,1.06,1.06,0,0,0,.67.2,1.41,1.41,0,0,0,.74-.21,1.18,1.18,0,0,0,.54-.52,3.06,3.06,0,0,0,.14-1V23.18h.88v5.19Z" style="fill:#1d1d1b"/><path d="M104.33,28.37V21.21h1.42l1.7,5.07c.16.47.27.82.34,1,.08-.26.21-.64.38-1.14l1.72-5h1.27V28.3h-.91v-6l-2.08,6h-.86l-2.07-6.1v6.1Z" style="fill:#1d1d1b"/><path d="M112.53,22.22v-1h.88v1Zm0,6.15V23.18h.88v5.19Z" style="fill:#1d1d1b"/><path d="M114.67,28.37V23.18h.79v.74a1.85,1.85,0,0,1,1.65-.86,2.35,2.35,0,0,1,.86.17,1.41,1.41,0,0,1,.59.44,1.87,1.87,0,0,1,.27.65,4.12,4.12,0,0,1,0,.86v3.19H118V25.21a2.41,2.41,0,0,0-.1-.8.89.89,0,0,0-.36-.43,1.25,1.25,0,0,0-.62-.16,1.45,1.45,0,0,0-1,.36,1.74,1.74,0,0,0-.4,1.35v2.84Z" style="fill:#1d1d1b"/><path d="M120.05,28.79l.85.13a.78.78,0,0,0,.3.58,1.46,1.46,0,0,0,.89.24,1.6,1.6,0,0,0,1-.24,1.25,1.25,0,0,0,.45-.69,7,7,0,0,0,.06-1.12,1.8,1.8,0,0,1-1.44.68,1.93,1.93,0,0,1-1.65-.78,2.92,2.92,0,0,1-.59-1.85,3.22,3.22,0,0,1,.27-1.37,2.13,2.13,0,0,1,.78-1,2.1,2.1,0,0,1,1.2-.34,1.87,1.87,0,0,1,1.51.74v-.62h.81v4.48a4.57,4.57,0,0,1-.24,1.72,1.94,1.94,0,0,1-.78.8,2.89,2.89,0,0,1-1.32.29,2.41,2.41,0,0,1-1.5-.42A1.39,1.39,0,0,1,120.05,28.79Zm.73-3.11a2.19,2.19,0,0,0,.4,1.49,1.32,1.32,0,0,0,1.87.12l.13-.12a2.17,2.17,0,0,0,.41-1.46,2.18,2.18,0,0,0-.42-1.44,1.32,1.32,0,0,0-1-.48,1.26,1.26,0,0,0-1,.48A1.93,1.93,0,0,0,120.78,25.68Z" style="fill:#1d1d1b"/></g></g></svg>