<svg width="46" height="42" viewBox="0 0 46 42" fill="none" xmlns="http://www.w3.org/2000/svg">
<path d="M34.2706 1.05312C33.3292 1.00465 32.4123 1.06653 31.526 1.2243C30.7445 1.36351 29.9901 1.58109 29.2649 1.86313C26.808 2.81647 24.7166 4.54115 23.3013 6.7603C21.354 2.93558 17.4941 0.23641 12.931 0.0157331C11.9936 -0.0327333 11.0757 0.0322326 10.1848 0.190522C4.64036 1.17686 0.310285 5.92399 0.0271326 11.8348C0.0271326 11.8348 -1.42287 26.1345 16.8772 38.976C18.3288 39.9959 19.9055 41.0085 21.6188 42C46.0807 30.8187 45.9857 14.0689 45.9857 14.0689C46.3107 7.2099 41.0658 1.38053 34.2706 1.05312Z" fill="#FAAA85"/>
</svg>
