<svg xmlns="http://www.w3.org/2000/svg" width="163.33" height="80" viewBox="0 0 163.33 80"><title>10</title><g id="8c2000fa-b480-4a00-9bb7-23ed36e63e86" data-name="Layer 2"><g id="6162f69c-f0ca-4904-916e-902a8b30a662" data-name="10"><g id="d6261117-48d2-4355-b16d-13ab88ee0194" data-name="535a3484-9e17-4311-9103-8a628f6c62d1"><path d="M51.38,28.3h-.71v.47c0,.47-.28.49-.67.49H47.56v.35h3.11a.31.31,0,1,1,0,.62H47.56v.38h3.59a.32.32,0,0,1,.35.29v0a.31.31,0,0,1-.32.3H47.56v.7c0,.2-.15.29-.37.3s-.38-.1-.38-.3v-.7H43.26c-.23,0-.39-.1-.41-.3s.18-.31.41-.31h3.55v-.38h-3a.31.31,0,1,1,0-.62h3v-.35H44.24A.31.31,0,0,1,43.9,29v0a.33.33,0,0,1,.36-.29h2.55V28.3H43.05a.3.3,0,0,1-.32-.28v0a.34.34,0,0,1,.38-.29h3.7v-.38H44.24A.29.29,0,0,1,44,27h0a.29.29,0,0,1,.29-.31h2.57v-.25a.36.36,0,0,1,0-.72h0a5.71,5.71,0,0,0,1.46-.28c-.11-.12-.3-.32-.55-.61a2.24,2.24,0,0,1-.37.32.37.37,0,0,1-.51-.08v0a.36.36,0,0,1,.08-.5,2.87,2.87,0,0,0,.85-1.13c.14-.23.34-.24.6-.09a.41.41,0,0,1,0,.52h2.86a.32.32,0,0,1,.33.31v0a.31.31,0,0,1-.29.33h-.75a3.74,3.74,0,0,1-.89,1.05,8.63,8.63,0,0,0,1.73.45.39.39,0,0,1,.38.4v0a.4.4,0,0,1-.47.3h0A8.37,8.37,0,0,1,48.83,26a5.68,5.68,0,0,1-1.27.34v.37H50c.39,0,.71,0,.71.51v.45h.75a.31.31,0,0,1,.34.28v0A.35.35,0,0,1,51.38,28.3ZM46.52,24c-.78,0-1.58.07-2.36.12-.06,0-.09,0-.11.13v.11h2.07c.36,0,.54.16.54.49v.66c0,.35-.22.49-.66.49H44a3.73,3.73,0,0,1-.52,1.29.42.42,0,0,1-.55.19h0a.36.36,0,0,1-.14-.48l0-.06a2.78,2.78,0,0,0,.44-1.4v-1.3a.64.64,0,0,1,.55-.72H44a23.37,23.37,0,0,0,2.5-.19.35.35,0,0,1,.41.25s0,0,0,.06a.35.35,0,0,1-.31.37Zm-.59,1.08s0-.1-.19-.1H44v.4h1.72a.17.17,0,0,0,.18-.14h0Zm4,2.43c0-.16,0-.2-.13-.18H47.56v.35h2.35Zm0,.79H47.56v.35h2.21c.1,0,.14,0,.14-.16Zm-1.5-3.75a3.47,3.47,0,0,0,.59.62,2.39,2.39,0,0,0,.65-.62Z" style="fill:#1d1d1b"/><path d="M54.67,28.34a9.08,9.08,0,0,1-1.06,2.85.52.52,0,0,1-.42.28.45.45,0,0,1-.44-.46h0a.52.52,0,0,1,.09-.29,7.8,7.8,0,0,0,1-2.55.43.43,0,0,1,.47-.41.45.45,0,0,1,.41.47A.61.61,0,0,1,54.67,28.34Zm6.54-3.43H57.67v1.2h3.08c.25,0,.36.21.36.44a.38.38,0,0,1-.34.42h-7a.4.4,0,0,1-.42-.4v0a.41.41,0,0,1,.39-.43h3.08v-1.2H53.29a.4.4,0,0,1-.41-.39v0a.38.38,0,0,1,.34-.43h3.56v-.64a.41.41,0,0,1,.39-.43h0a.42.42,0,0,1,.45.38.09.09,0,0,1,0,.05v.64H61.2a.42.42,0,0,1,.4.42h0a.39.39,0,0,1-.32.42Zm-3,6.89H56.79c-.82,0-1.53-.32-1.53-1.25V28a.42.42,0,0,1,.42-.42.42.42,0,0,1,.42.42v2.26c0,.55.38.72.88.72h1A2,2,0,0,0,59,30.76a1.19,1.19,0,0,0,.24-.87.44.44,0,0,1,.39-.48c.34,0,.43.3.43.58,0,1.38-.62,1.81-1.93,1.81ZM58,30a.36.36,0,0,1-.38-.3c-.23-.69-.45-1.28-.74-1.94a.39.39,0,0,1,.16-.53.38.38,0,0,1,.24,0,.39.39,0,0,1,.34.21,10,10,0,0,1,.83,2.19A.43.43,0,0,1,58,30Zm3.25,1.33c-.19,0-.28-.11-.34-.28s-.19-.58-.29-.87a15.69,15.69,0,0,0-.84-1.87.51.51,0,0,1-.11-.31.43.43,0,0,1,.4-.41.38.38,0,0,1,.37.19,12,12,0,0,1,1.23,2.93.54.54,0,0,1,0,.18.49.49,0,0,1-.42.45Z" style="fill:#1d1d1b"/><path d="M71.25,31.58H63.14a.41.41,0,0,1-.47-.35v0a.41.41,0,0,1,.43-.4h1V27.32a.42.42,0,0,1,.42-.42.42.42,0,0,1,.42.42h0v3.47h1.94V25.61a.4.4,0,0,1,.39-.41h0a.4.4,0,0,1,.42.38v2h3.08a.4.4,0,1,1,0,.8H67.76v2.38h3.49a.38.38,0,0,1,.4.36v0a.39.39,0,0,1-.37.39Zm.33-4.92a.55.55,0,0,1-.36,0,9,9,0,0,1-3.64-2.26,3.57,3.57,0,0,0-.37-.31l-.21.2a9.69,9.69,0,0,1-3.74,2.43.41.41,0,0,1-.56-.17.38.38,0,0,1,0-.1.44.44,0,0,1,.27-.56h0a9.64,9.64,0,0,0,3.42-2.21,1.58,1.58,0,0,1,.8-.57,2,2,0,0,1,1,.66,10.33,10.33,0,0,0,3.33,2.06.47.47,0,0,1,.3.58h0A.45.45,0,0,1,71.58,26.66Z" style="fill:#1d1d1b"/><path d="M81.24,31.81A10.81,10.81,0,0,1,77.6,30v1.7c0,.24-.14.36-.39.38a.36.36,0,0,1-.38-.34V30.11a15.81,15.81,0,0,1-3.44,1.66.41.41,0,0,1-.55-.18s0,0,0-.05a.5.5,0,0,1,.31-.61,11,11,0,0,0,3.44-1.58H73.2c-.22,0-.33-.14-.35-.36a.33.33,0,0,1,.35-.37h3.63V28.1H73.67a.36.36,0,0,1,0-.72h3.14v-.5H73.52a.33.33,0,0,1-.37-.31v-.05a.35.35,0,0,1,.33-.37h2a7.59,7.59,0,0,0-.35-.77h-2c-.22,0-.31-.14-.33-.37a.31.31,0,0,1,.33-.37h1.57l-.37-.55L74.18,24a.39.39,0,0,1,0-.53.34.34,0,0,1,.48,0l0,0c.08.11.19.27.33.49s.16.27.22.35a.36.36,0,0,1,0,.33H76v-1.2c0-.23.17-.33.41-.35a.34.34,0,0,1,.41.35v1.2h.84v-1.1a.4.4,0,0,1,.39-.41h0a.39.39,0,0,1,.41.37v1.14H79a10.48,10.48,0,0,0,.51-1.07.36.36,0,0,1,.46-.24l.06,0a.4.4,0,0,1,.19.53v0c-.1.23-.21.47-.35.73h1.43c.21,0,.33.14.35.37a.33.33,0,0,1-.35.37H79.26c-.08.22-.18.47-.31.77h2c.2,0,.3.15.32.35a.31.31,0,0,1-.28.38H77.6v.5h3.07a.36.36,0,0,1,0,.72h-3.1v.52h3.65a.34.34,0,0,1,.43.23.39.39,0,0,1,0,.15.36.36,0,0,1-.34.36H77.92A11.12,11.12,0,0,0,81.38,31a.45.45,0,0,1,.35.5.4.4,0,0,1-.47.31ZM76,25.38c.13.27.26.52.36.77H78.1c.14-.32.24-.58.31-.77Z" style="fill:#1d1d1b"/><path d="M91.44,24.64h-4.7a8.33,8.33,0,0,1-.76.91H90.3c.61,0,.86.34.86,1v4.36c0,.9-.51,1.29-1.48,1.19a5.29,5.29,0,0,1-1.19-.28.4.4,0,0,1-.25-.52.09.09,0,0,1,0-.07.39.39,0,0,1,.5-.25l.06,0a4,4,0,0,0,.91.26c.45.06.59-.09.59-.38V30H85.19v1.7a.41.41,0,0,1-.39.43h0a.4.4,0,0,1-.41-.39V27a5.91,5.91,0,0,1-1,.65c-.26.12-.47.1-.6-.12a.44.44,0,0,1,.17-.61l0,0a8.47,8.47,0,0,0,2.82-2.26H83.17c-.22,0-.32-.15-.34-.39a.33.33,0,0,1,.34-.4h3.11c.11-.21.19-.42.32-.63a.47.47,0,0,1,.59-.22.42.42,0,0,1,.19.56.43.43,0,0,1,0,.07,1.27,1.27,0,0,0-.13.19h4.23c.24,0,.36.16.38.4A.37.37,0,0,1,91.44,24.64Zm-1.11,2a.25.25,0,0,0-.21-.24H85.4a.23.23,0,0,0-.21.21v.76h5.14Zm0,1.53H85.19v1h5.14Z" style="fill:#1d1d1b"/><path d="M94.72,29.77a3.48,3.48,0,0,1-.79,0v1.7a.41.41,0,0,1-.34.44h0a.37.37,0,0,1-.41-.33.09.09,0,0,1,0-.07v-7.3c0-.57.16-.81.75-.81h1.43a.5.5,0,0,1,.47.27,1,1,0,0,1,0,.67c-.17.55-.36,1.09-.53,1.64-.08.25,0,.36.14.66a3.78,3.78,0,0,1,.48,1.3C96,28.78,95.8,29.62,94.72,29.77Zm-.15-3c-.25-.38-.25-.48-.09-1s.29-.91.45-1.36c.09-.24,0-.27-.1-.27h-.69a.19.19,0,0,0-.21.17V29a3.42,3.42,0,0,0,.64,0c.47-.06.53-.35.49-.81a3,3,0,0,0-.49-1.4Zm6.57,5.28a5.79,5.79,0,0,1-3.34-4.19h-.63V31c.54-.06.93-.14,1.3-.21a.37.37,0,0,1,.43.27s0,0,0,.05a.36.36,0,0,1-.24.45h0a22,22,0,0,1-2.91.35.39.39,0,0,1-.45-.3v-.09a.39.39,0,0,1,.31-.47h.74v-6.8c0-.53.22-.77.75-.77h3.27a.66.66,0,0,1,.74.54.74.74,0,0,1,0,.21V27c0,.56-.25.85-.79.85H98.67a3.76,3.76,0,0,0,.58,1.31,6,6,0,0,0,1.4-1c.18-.16.4-.2.55,0a.41.41,0,0,1,0,.58h0a5.59,5.59,0,0,1-1.53,1.12,4.29,4.29,0,0,0,1.8,1.49c.25.11.37.31.26.55a.42.42,0,0,1-.57.18h0Zm-.89-7.58c0-.14-.07-.21-.25-.21H97.36c-.19,0-.19.07-.19.19v.84h3.08Zm0,1.58H97.17v1h2.91c.14,0,.17-.06.17-.22Z" style="fill:#1d1d1b"/><path d="M103.49,27.86a.47.47,0,0,1-.66,0,.43.43,0,0,1,0-.62l0,0a6,6,0,0,0,1.79-2.57.38.38,0,0,1,.37-.26.54.54,0,0,1,.41.17.37.37,0,0,1,.07.36A6.8,6.8,0,0,1,103.49,27.86Zm7.68,4.2a.5.5,0,0,1-.66-.25c-.13-.23-.27-.47-.41-.69-1.67.2-3.91.36-6.73.46a.42.42,0,0,1-.46-.38v-.05a.46.46,0,0,1,.45-.46h.74a18,18,0,0,0,2-3.93.43.43,0,0,1,.54-.28h0a.47.47,0,0,1,.22.61v0a22.68,22.68,0,0,1-1.74,3.53c1.61-.07,3.11-.18,4.52-.33a17.79,17.79,0,0,0-1.19-1.78.42.42,0,0,1,0-.59l0,0a.43.43,0,0,1,.62,0h0a25.37,25.37,0,0,1,2.16,3.43A.5.5,0,0,1,111.17,32.06Zm.14-4.06a.75.75,0,0,1-.37-.2,11.9,11.9,0,0,1-2.07-3c-.19-.39-.35-.51-.53-.51h-2.62c-.25,0-.37-.17-.38-.43a.41.41,0,0,1,.41-.41h2.92a.82.82,0,0,1,.83.49,10.94,10.94,0,0,0,2.17,3.22c.21.21.29.47,0,.7A.46.46,0,0,1,111.31,28Z" style="fill:#1d1d1b"/><path d="M120.12,31.8a11.14,11.14,0,0,1-2-.13.42.42,0,0,1-.46-.38.29.29,0,0,1,0-.13.39.39,0,0,1,.42-.36l.09,0a6.72,6.72,0,0,0,1.9.13c.27-.06.4-.25.4-.62V24.47c0-.15,0-.24-.32-.24h-6.55a.4.4,0,0,1-.43-.37v0a.39.39,0,0,1,.39-.41h6.89c.65,0,.85.25.85.89v6.2C121.31,31.44,121,31.75,120.12,31.8Zm-.81-6.1h-5.56a.35.35,0,0,1-.37-.33.19.19,0,0,1,0-.08.37.37,0,0,1,.37-.37h5.55a.35.35,0,0,1,.36.34v0a.38.38,0,0,1-.34.4Zm-.77,4.62h-4c-.5,0-.72-.21-.72-.7v-2.5c0-.51.18-.67.68-.67h4c.5,0,.73.23.73.72v2.46C119.25,30.1,119,30.32,118.54,30.32Zm-.11-2.85c0-.16-.07-.24-.28-.24h-3.27c-.16,0-.23.07-.23.28V29.2c0,.23.1.32.27.32h3.25c.17,0,.26-.09.26-.32Z" style="fill:#1d1d1b"/><path d="M32.67,41.09l.89-.09a2,2,0,0,0,.3.88,1.59,1.59,0,0,0,.72.56,2.76,2.76,0,0,0,1.1.21,2.62,2.62,0,0,0,1-.16,1.29,1.29,0,0,0,.62-.44,1,1,0,0,0,.21-.61,1,1,0,0,0-.2-.59,1.41,1.41,0,0,0-.64-.41,11.55,11.55,0,0,0-1.28-.35A6.55,6.55,0,0,1,34,39.64,1.76,1.76,0,0,1,33.2,39a1.48,1.48,0,0,1-.26-.89,1.79,1.79,0,0,1,.31-1,2,2,0,0,1,.9-.72,3.42,3.42,0,0,1,1.31-.24,3.6,3.6,0,0,1,1.41.26,2,2,0,0,1,.93.75,2.18,2.18,0,0,1,.35,1.13l-.9.07a1.47,1.47,0,0,0-.5-1A1.94,1.94,0,0,0,35.5,37a2,2,0,0,0-1.25.32.93.93,0,0,0-.39.76.8.8,0,0,0,.27.63,3.61,3.61,0,0,0,1.43.51,9.94,9.94,0,0,1,1.59.46,2.34,2.34,0,0,1,.92.73,1.78,1.78,0,0,1,.3,1A2,2,0,0,1,38,42.49a2.19,2.19,0,0,1-.94.79,3.31,3.31,0,0,1-1.38.28,4.12,4.12,0,0,1-1.63-.28,2.3,2.3,0,0,1-1-.85A2.36,2.36,0,0,1,32.67,41.09Z" style="fill:#1d1d1b"/><path d="M39.55,43.39V36.23h.88V38.8A2,2,0,0,1,42,38.09a2.06,2.06,0,0,1,1,.22,1.38,1.38,0,0,1,.61.63,3.27,3.27,0,0,1,.18,1.16v3.29h-.88V40.1a1.37,1.37,0,0,0-.28-1,1.07,1.07,0,0,0-.81-.3,1.35,1.35,0,0,0-.73.21,1,1,0,0,0-.49.55,2.21,2.21,0,0,0-.15.95v2.84Z" style="fill:#1d1d1b"/><path d="M45.12,37.24v-1H46v1Zm0,6.15V38.2H46v5.19Z" style="fill:#1d1d1b"/><path d="M50.73,43.39v-.76a1.91,1.91,0,0,1-1.64.88,2.11,2.11,0,0,1-.86-.18,1.3,1.3,0,0,1-.59-.44,1.55,1.55,0,0,1-.27-.65,3.78,3.78,0,0,1-.06-.82V38.2h.88v2.88a4.85,4.85,0,0,0,.06.93.86.86,0,0,0,.35.54,1,1,0,0,0,.66.2,1.49,1.49,0,0,0,.74-.2,1.14,1.14,0,0,0,.5-.56,3,3,0,0,0,.17-1V38.2h.88v5.19Z" style="fill:#1d1d1b"/><path d="M60.89,40.88l1,.24a3.27,3.27,0,0,1-1.12,1.78,3,3,0,0,1-1.89.61A3.38,3.38,0,0,1,57,43a2.93,2.93,0,0,1-1.1-1.36,4.7,4.7,0,0,1-.38-1.92,4.08,4.08,0,0,1,.43-2,2.88,2.88,0,0,1,1.22-1.27A3.47,3.47,0,0,1,58.89,36a3,3,0,0,1,1.81.55,2.79,2.79,0,0,1,1,1.53l-.93.22A2.25,2.25,0,0,0,60,37.19a1.9,1.9,0,0,0-1.19-.36,2.26,2.26,0,0,0-1.38.4,2,2,0,0,0-.8,1.15,4,4,0,0,0-.22,1.37,4.59,4.59,0,0,0,.26,1.6,1.94,1.94,0,0,0,.83,1,2.27,2.27,0,0,0,1.22.34,2,2,0,0,0,1.35-.46A2.38,2.38,0,0,0,60.89,40.88Z" style="fill:#1d1d1b"/><path d="M62.89,43.39V36.23h.88V38.8a2,2,0,0,1,1.56-.71,2.18,2.18,0,0,1,1,.22,1.48,1.48,0,0,1,.61.63,3.27,3.27,0,0,1,.18,1.16v3.29h-.88V40.1a1.38,1.38,0,0,0-.29-1,1.06,1.06,0,0,0-.8-.3,1.38,1.38,0,0,0-.74.21,1.05,1.05,0,0,0-.49.55,2.21,2.21,0,0,0-.15.95v2.84Z" style="fill:#1d1d1b"/><path d="M72,41.72l.9.11a2.28,2.28,0,0,1-.79,1.24,2.71,2.71,0,0,1-3.29-.26,2.75,2.75,0,0,1-.67-2,2.82,2.82,0,0,1,.68-2,2.3,2.3,0,0,1,1.75-.72,2.22,2.22,0,0,1,1.69.7,2.9,2.9,0,0,1,.66,2V41H69.07a1.91,1.91,0,0,0,.48,1.31,1.44,1.44,0,0,0,1.09.45,1.35,1.35,0,0,0,.82-.25A1.83,1.83,0,0,0,72,41.72ZM69.12,40.3H72a1.72,1.72,0,0,0-.34-1,1.43,1.43,0,0,0-2.09-.11A1.6,1.6,0,0,0,69.12,40.3Z" style="fill:#1d1d1b"/><path d="M77.57,41.72l.91.11a2.36,2.36,0,0,1-.8,1.24,2.71,2.71,0,0,1-3.29-.26,2.75,2.75,0,0,1-.67-2,2.82,2.82,0,0,1,.68-2,2.3,2.3,0,0,1,1.75-.72,2.23,2.23,0,0,1,1.7.7,2.89,2.89,0,0,1,.65,2V41H74.67a2,2,0,0,0,.49,1.31,1.42,1.42,0,0,0,1.08.45,1.4,1.4,0,0,0,.83-.25A1.87,1.87,0,0,0,77.57,41.72Zm-2.9-1.42h2.9a1.78,1.78,0,0,0-.33-1,1.43,1.43,0,0,0-2.09-.11A1.59,1.59,0,0,0,74.67,40.3Z" style="fill:#1d1d1b"/><path d="M82.49,43.39V36.23h5.18v.85H83.44v2.19h4v.84h-4v2.43h4.39v.85Z" style="fill:#1d1d1b"/><path d="M89,43.39V38.2h.79v.74a1.85,1.85,0,0,1,1.65-.85,2.34,2.34,0,0,1,.86.16,1.44,1.44,0,0,1,.59.45,1.87,1.87,0,0,1,.27.65,4,4,0,0,1,0,.85v3.19h-.88V40.24a2.47,2.47,0,0,0-.1-.81.83.83,0,0,0-.36-.42,1.15,1.15,0,0,0-.62-.16,1.46,1.46,0,0,0-1,.35,1.77,1.77,0,0,0-.4,1.36v2.83Z" style="fill:#1d1d1b"/><path d="M96.51,42.6l.12.78a3,3,0,0,1-.66.08,1.56,1.56,0,0,1-.74-.15.8.8,0,0,1-.37-.4,3.08,3.08,0,0,1-.11-1v-3h-.64V38.2h.64V36.92l.87-.53V38.2h.89v.69h-.84v3a1.29,1.29,0,0,0,0,.48.35.35,0,0,0,.15.17.51.51,0,0,0,.3.07A1.7,1.7,0,0,0,96.51,42.6Z" style="fill:#1d1d1b"/><path d="M100.92,41.72l.91.11a2.36,2.36,0,0,1-.8,1.24,2.71,2.71,0,0,1-3.29-.26,2.75,2.75,0,0,1-.67-2,2.82,2.82,0,0,1,.68-2,2.3,2.3,0,0,1,1.75-.72,2.23,2.23,0,0,1,1.7.7,2.91,2.91,0,0,1,.65,2V41H98a2,2,0,0,0,.49,1.31,1.42,1.42,0,0,0,1.08.45,1.4,1.4,0,0,0,.83-.25A1.89,1.89,0,0,0,100.92,41.72ZM98,40.3h2.9a1.72,1.72,0,0,0-.34-1,1.34,1.34,0,0,0-1.08-.51,1.36,1.36,0,0,0-1,.4A1.59,1.59,0,0,0,98,40.3Z" style="fill:#1d1d1b"/><path d="M102.92,43.39V38.2h.75V39a2.1,2.1,0,0,1,.56-.73,1,1,0,0,1,.56-.17,1.74,1.74,0,0,1,.91.28l-.31.82a1.34,1.34,0,0,0-.64-.2.8.8,0,0,0-.52.18.89.89,0,0,0-.33.48,3.4,3.4,0,0,0-.14,1v2.72Z" style="fill:#1d1d1b"/><path d="M106.26,45.38V38.2h.8v.68a1.94,1.94,0,0,1,.64-.6,1.81,1.81,0,0,1,.86-.19,2.06,2.06,0,0,1,1.18.34,2.22,2.22,0,0,1,.76,1,3.79,3.79,0,0,1,.26,1.37,3.51,3.51,0,0,1-.28,1.43,2.19,2.19,0,0,1-.83,1,2.26,2.26,0,0,1-1.15.34,1.54,1.54,0,0,1-.79-.19,1.62,1.62,0,0,1-.57-.47v2.53Zm.79-4.55a2.23,2.23,0,0,0,.41,1.48,1.25,1.25,0,0,0,1,.47,1.26,1.26,0,0,0,1-.49,2.46,2.46,0,0,0,.41-1.54,2.29,2.29,0,0,0-.4-1.48,1.24,1.24,0,0,0-2,0A2.33,2.33,0,0,0,107.05,40.83Z" style="fill:#1d1d1b"/><path d="M111.81,43.39V38.2h.79V39a2.1,2.1,0,0,1,.56-.73,1,1,0,0,1,.56-.17,1.74,1.74,0,0,1,.91.28l-.3.82a1.22,1.22,0,0,0-.66-.2.8.8,0,0,0-.52.18.88.88,0,0,0-.32.48,3.37,3.37,0,0,0-.15,1v2.72Z" style="fill:#1d1d1b"/><path d="M115.16,37.24v-1H116v1Zm0,6.15V38.2H116v5.19Z" style="fill:#1d1d1b"/><path d="M117,41.84l.87-.14a1.18,1.18,0,0,0,.41.81,1.4,1.4,0,0,0,.93.27,1.38,1.38,0,0,0,.9-.24.73.73,0,0,0,.29-.58.55.55,0,0,0-.25-.47,3.66,3.66,0,0,0-.9-.3,7.72,7.72,0,0,1-1.34-.42,1.24,1.24,0,0,1-.76-1.19,1.22,1.22,0,0,1,.16-.64,1.35,1.35,0,0,1,.43-.49,1.68,1.68,0,0,1,.56-.26,2.73,2.73,0,0,1,.76-.1,3.28,3.28,0,0,1,1.07.17,1.54,1.54,0,0,1,.68.48,1.9,1.9,0,0,1,.3.8l-.86.12a1,1,0,0,0-.34-.63,1.23,1.23,0,0,0-.79-.22,1.52,1.52,0,0,0-.86.2.56.56,0,0,0-.26.47.45.45,0,0,0,.1.31.89.89,0,0,0,.34.23c.09,0,.35.11.78.22a12.23,12.23,0,0,1,1.3.41,1.45,1.45,0,0,1,.58.46,1.36,1.36,0,0,1,.21.76,1.59,1.59,0,0,1-.26.82,1.66,1.66,0,0,1-.74.6,2.59,2.59,0,0,1-1.09.22,2.37,2.37,0,0,1-1.57-.42A2,2,0,0,1,117,41.84Z" style="fill:#1d1d1b"/><path d="M125.92,41.72l.91.11a2.24,2.24,0,0,1-.8,1.24,2.68,2.68,0,0,1-3.28-.26,2.71,2.71,0,0,1-.67-2,2.86,2.86,0,0,1,.67-2,2.3,2.3,0,0,1,1.75-.72,2.23,2.23,0,0,1,1.7.7,2.9,2.9,0,0,1,.66,2V41H123a1.91,1.91,0,0,0,.48,1.31,1.42,1.42,0,0,0,1.08.45,1.38,1.38,0,0,0,.83-.25A1.73,1.73,0,0,0,125.92,41.72ZM123,40.3h2.89a1.78,1.78,0,0,0-.33-1,1.37,1.37,0,0,0-1.09-.51,1.41,1.41,0,0,0-1,.4A1.65,1.65,0,0,0,123,40.3Z" style="fill:#1d1d1b"/><path d="M127.58,41.84l.87-.14a1.23,1.23,0,0,0,.41.81,1.4,1.4,0,0,0,.93.27,1.38,1.38,0,0,0,.9-.24A.78.78,0,0,0,131,42a.56.56,0,0,0-.26-.47,3.66,3.66,0,0,0-.9-.3,7.72,7.72,0,0,1-1.34-.42,1.24,1.24,0,0,1-.76-1.19,1.22,1.22,0,0,1,.16-.64,1.35,1.35,0,0,1,.43-.49,1.68,1.68,0,0,1,.56-.26,2.73,2.73,0,0,1,.76-.1,3,3,0,0,1,1.07.17,1.54,1.54,0,0,1,.68.48,1.9,1.9,0,0,1,.3.8l-.86.12a1,1,0,0,0-.33-.63,1.28,1.28,0,0,0-.8-.22,1.52,1.52,0,0,0-.86.2.57.57,0,0,0-.26.47.41.41,0,0,0,.11.31A.79.79,0,0,0,129,40c.09,0,.35.11.78.22a12.23,12.23,0,0,1,1.3.41,1.23,1.23,0,0,1,.79,1.22,1.59,1.59,0,0,1-.26.82,1.66,1.66,0,0,1-.74.6,2.59,2.59,0,0,1-1.09.22,2.4,2.4,0,0,1-1.54-.42A1.93,1.93,0,0,1,127.58,41.84Z" style="fill:#1d1d1b"/><path d="M49.22,52.88l1,.24A3.26,3.26,0,0,1,49.1,54.9a3,3,0,0,1-1.9.61A3.35,3.35,0,0,1,45.32,55a2.93,2.93,0,0,1-1.1-1.36,4.7,4.7,0,0,1-.38-1.92,4.08,4.08,0,0,1,.43-2,2.86,2.86,0,0,1,1.21-1.27A3.51,3.51,0,0,1,47.22,48a3,3,0,0,1,1.81.55,2.92,2.92,0,0,1,1,1.53l-.94.22a2.13,2.13,0,0,0-.72-1.13,1.9,1.9,0,0,0-1.19-.36,2.26,2.26,0,0,0-1.38.4A2,2,0,0,0,45,50.29a4,4,0,0,0-.22,1.37,4.59,4.59,0,0,0,.26,1.6,1.94,1.94,0,0,0,.83,1,2.27,2.27,0,0,0,1.22.34,2,2,0,0,0,1.34-.46A2.4,2.4,0,0,0,49.22,52.88Z" style="fill:#1d1d1b"/><path d="M50.9,52.8a2.64,2.64,0,0,1,.8-2.14,2.41,2.41,0,0,1,1.63-.57,2.35,2.35,0,0,1,1.75.7,2.67,2.67,0,0,1,.67,1.93,3.59,3.59,0,0,1-.3,1.58,2.13,2.13,0,0,1-.87.89,2.64,2.64,0,0,1-1.25.32,2.32,2.32,0,0,1-1.76-.7A2.79,2.79,0,0,1,50.9,52.8Zm.9,0a2.22,2.22,0,0,0,.43,1.49,1.46,1.46,0,0,0,2.07.11l.12-.11a2.3,2.3,0,0,0,.43-1.52,2.13,2.13,0,0,0-.44-1.46,1.44,1.44,0,0,0-2.18,0A2.16,2.16,0,0,0,51.8,52.8Z" style="fill:#1d1d1b"/><path d="M56.78,55.39V50.2h.79v.73a1.81,1.81,0,0,1,.65-.61,1.73,1.73,0,0,1,.92-.23,1.75,1.75,0,0,1,1,.24,1.36,1.36,0,0,1,.52.66,1.85,1.85,0,0,1,1.6-.9,1.61,1.61,0,0,1,1.19.42,1.9,1.9,0,0,1,.41,1.32v3.56H63V52.12a2.44,2.44,0,0,0-.09-.76.8.8,0,0,0-.31-.37,1,1,0,0,0-.53-.14,1.2,1.2,0,0,0-.9.36,1.52,1.52,0,0,0-.37,1.17v3h-.92V52a1.58,1.58,0,0,0-.22-.88.83.83,0,0,0-.7-.29,1.26,1.26,0,0,0-.69.19,1.1,1.1,0,0,0-.46.58,3.16,3.16,0,0,0-.13,1.1v2.69Z" style="fill:#1d1d1b"/><path d="M65.11,57.38V50.2h.81v.68a2,2,0,0,1,.63-.6,1.76,1.76,0,0,1,.87-.19,2,2,0,0,1,1.17.34,2.24,2.24,0,0,1,.77,1,3.8,3.8,0,0,1,.31,1.33,3.69,3.69,0,0,1-.29,1.43,2.17,2.17,0,0,1-2,1.32,1.54,1.54,0,0,1-.79-.19,1.57,1.57,0,0,1-.58-.47v2.53Zm.8-4.55a2.23,2.23,0,0,0,.41,1.48,1.25,1.25,0,0,0,1,.47,1.26,1.26,0,0,0,1-.49,2.4,2.4,0,0,0,.42-1.54,2.35,2.35,0,0,0-.41-1.48,1.24,1.24,0,0,0-1-.49,1.26,1.26,0,0,0-1,.52A2.28,2.28,0,0,0,65.91,52.83Z" style="fill:#1d1d1b"/><path d="M74.06,54.75a3.31,3.31,0,0,1-.94.59,2.63,2.63,0,0,1-1,.17,1.86,1.86,0,0,1-1.31-.42A1.36,1.36,0,0,1,70.38,54a1.38,1.38,0,0,1,.17-.69A1.57,1.57,0,0,1,71,52.8a2.07,2.07,0,0,1,.64-.29,6.34,6.34,0,0,1,.78-.13,7.64,7.64,0,0,0,1.57-.3v-.23a1,1,0,0,0-.25-.76,1.45,1.45,0,0,0-1-.3,1.6,1.6,0,0,0-.91.22,1.26,1.26,0,0,0-.44.77l-.86-.12a2.09,2.09,0,0,1,.39-.89,1.71,1.71,0,0,1,.77-.52,3.38,3.38,0,0,1,1.18-.18,3.32,3.32,0,0,1,1.08.15,1.54,1.54,0,0,1,.61.4,1.28,1.28,0,0,1,.27.59,5.51,5.51,0,0,1,0,.81V53.2a10,10,0,0,0,0,1.55,1.91,1.91,0,0,0,.22.62h-.91A1.68,1.68,0,0,1,74.06,54.75Zm-.07-2a6.53,6.53,0,0,1-1.44.33,3.91,3.91,0,0,0-.77.17.74.74,0,0,0-.34.29.71.71,0,0,0-.12.42.69.69,0,0,0,.26.58,1.15,1.15,0,0,0,.78.24,1.9,1.9,0,0,0,.9-.22,1.42,1.42,0,0,0,.58-.61,2.21,2.21,0,0,0,.15-.88Z" style="fill:#1d1d1b"/><path d="M76.24,55.39V50.2H77v.74a1.85,1.85,0,0,1,1.64-.85,2.34,2.34,0,0,1,.86.16,1.44,1.44,0,0,1,.59.45,1.87,1.87,0,0,1,.27.65,6.06,6.06,0,0,1,0,.85v3.19h-.87V52.24a2.47,2.47,0,0,0-.1-.81.83.83,0,0,0-.36-.42,1.15,1.15,0,0,0-.62-.16,1.46,1.46,0,0,0-1,.35,1.77,1.77,0,0,0-.4,1.36v2.83Z" style="fill:#1d1d1b"/><path d="M81.76,57.39l-.1-.83a2.09,2.09,0,0,0,.51.08.91.91,0,0,0,.46-.1.69.69,0,0,0,.29-.27,3.81,3.81,0,0,0,.27-.66.35.35,0,0,1,.08-.21l-2-5.2h1l1.08,3c.14.38.26.78.37,1.2A8.42,8.42,0,0,1,84,53.22l1.11-3H86L84,55.5a12,12,0,0,1-.49,1.17,1.85,1.85,0,0,1-.54.64,1.25,1.25,0,0,1-.72.2A1.73,1.73,0,0,1,81.76,57.39Z" style="fill:#1d1d1b"/><path d="M89.67,55.39V48.23h1v6.31h3.52v.85Z" style="fill:#1d1d1b"/><path d="M95.14,49.24v-1H96v1Zm0,6.15V50.2H96v5.19Z" style="fill:#1d1d1b"/><path d="M97.36,55.39V50.2h.79v.73a1.81,1.81,0,0,1,.65-.61,2,2,0,0,1,1.86,0,1.31,1.31,0,0,1,.52.66,1.88,1.88,0,0,1,1.61-.9,1.57,1.57,0,0,1,1.18.42,1.9,1.9,0,0,1,.42,1.32v3.56h-.88V52.12a2.77,2.77,0,0,0-.08-.76.8.8,0,0,0-.31-.37,1,1,0,0,0-.53-.14,1.24,1.24,0,0,0-.91.36,1.61,1.61,0,0,0-.36,1.17v3h-.88V52a1.59,1.59,0,0,0-.21-.88.84.84,0,0,0-.71-.29,1.25,1.25,0,0,0-.68.19,1.06,1.06,0,0,0-.46.58,3,3,0,0,0-.14,1.08v2.69Z" style="fill:#1d1d1b"/><path d="M105.67,49.24v-1h.87v1Zm0,6.15V50.2h.87v5.19Z" style="fill:#1d1d1b"/><path d="M109.83,54.6l.13.78a3.07,3.07,0,0,1-.67.08,1.56,1.56,0,0,1-.74-.15.84.84,0,0,1-.37-.4,3.08,3.08,0,0,1-.11-1v-3h-.64V50.2h.64V48.92l.88-.53V50.2h.88v.69H109v3a1.29,1.29,0,0,0,0,.48.35.35,0,0,0,.15.17.55.55,0,0,0,.31.07A2,2,0,0,0,109.83,54.6Z" style="fill:#1d1d1b"/><path d="M114.24,53.72l.91.11a2.36,2.36,0,0,1-.8,1.24,2.71,2.71,0,0,1-3.29-.26,2.75,2.75,0,0,1-.66-2,2.86,2.86,0,0,1,.67-2,2.3,2.3,0,0,1,1.75-.72,2.23,2.23,0,0,1,1.7.7,2.9,2.9,0,0,1,.66,2V53h-3.87a1.91,1.91,0,0,0,.48,1.31,1.42,1.42,0,0,0,1.08.45,1.38,1.38,0,0,0,.83-.25A1.73,1.73,0,0,0,114.24,53.72Zm-2.89-1.42h2.9a1.78,1.78,0,0,0-.33-1,1.43,1.43,0,0,0-2.09-.11A1.61,1.61,0,0,0,111.35,52.3Z" style="fill:#1d1d1b"/><path d="M119.67,55.39v-.65a1.64,1.64,0,0,1-1.45.77,2,2,0,0,1-1.14-.35,2.14,2.14,0,0,1-.81-.95A3.24,3.24,0,0,1,116,52.8a3.6,3.6,0,0,1,.26-1.41,2,2,0,0,1,1.94-1.3,1.74,1.74,0,0,1,.83.19,2,2,0,0,1,.6.52V48.23h.87v7.16Zm-2.83-2.59a2.21,2.21,0,0,0,.42,1.49,1.26,1.26,0,0,0,1,.49,1.22,1.22,0,0,0,1-.47,2.18,2.18,0,0,0,.4-1.44,2.47,2.47,0,0,0-.41-1.56,1.27,1.27,0,0,0-1-.5,1.21,1.21,0,0,0-1,.48A2.31,2.31,0,0,0,116.84,52.8Z" style="fill:#1d1d1b"/></g></g></g></svg>