<svg xmlns="http://www.w3.org/2000/svg" width="163.33" height="80" viewBox="0 0 163.33 80"><title>12</title><g id="e3ea41ba-7bdd-4239-878e-11b27d31f91d" data-name="Layer 2"><g id="96aeb552-987e-4dda-a121-519685decd26" data-name="12"><path d="M59.46,51.69a.31.31,0,0,1-.46.08.36.36,0,0,1-.09-.5,4.35,4.35,0,0,0,.75-1.56.29.29,0,0,1,.4-.24.34.34,0,0,1,.22.43A4.29,4.29,0,0,1,59.46,51.69Zm6.35-.62a1.35,1.35,0,0,1-.35.77,1.1,1.1,0,0,1-.7.26A3,3,0,0,1,63.71,52a.3.3,0,0,1-.22-.4.3.3,0,0,1,.38-.24c.27.07.8.2,1.05,0,.17,0,.28-.55.3-1.93,0-.15,0-.19-.22-.19H60.1c-.45,0-.56-.19-.56-.61V45.85a.5.5,0,0,1,.13-.41.82.82,0,0,1,.48-.1h5.3a.32.32,0,0,1,0,.64H62.87v.46h2.25a.31.31,0,0,1,.33.29.29.29,0,0,1-.31.31H62.87v.44h2.25c.18,0,.26.12.27.3a.27.27,0,0,1-.28.29H62.87v.49h2.42a.57.57,0,0,1,.6.64A13.43,13.43,0,0,1,65.81,51.07ZM62.24,46H60.41c-.18,0-.24.05-.23.14v.32h2.06Zm0,1.06H60.18v.44h2.06Zm0,1H60.18v.31c0,.14,0,.18.18.18h1.88Zm-.76,3.72c-.31.06-.37-.15-.4-.37a9.24,9.24,0,0,0-.31-1.51.3.3,0,0,1,.23-.4.33.33,0,0,1,.41.25,8.39,8.39,0,0,1,.34,1.67A.32.32,0,0,1,61.48,51.79Zm1.67-.36a.29.29,0,0,1-.41-.16c-.21-.5-.43-1-.64-1.37a.31.31,0,0,1,.1-.46.35.35,0,0,1,.47.16A9.84,9.84,0,0,1,63.34,51,.3.3,0,0,1,63.15,51.43Zm1.51-.6c-.15.14-.3.15-.41,0a10.36,10.36,0,0,0-.78-1,.33.33,0,0,1,0-.46.3.3,0,0,1,.46,0,7.48,7.48,0,0,1,.81,1A.37.37,0,0,1,64.66,50.83Z" style="fill:#231f20"/><path d="M67.56,51.77c-.06.1-.16.22-.25.24a.36.36,0,0,1-.43-.33.4.4,0,0,1,.08-.29,7.05,7.05,0,0,0,1-2.27.34.34,0,0,1,.42-.26.29.29,0,0,1,.2.16.5.5,0,0,1,0,.28A7.21,7.21,0,0,1,67.56,51.77Zm.7-3.46a.31.31,0,0,1-.25.11.36.36,0,0,1-.24-.13,4.87,4.87,0,0,0-.69-.62.34.34,0,0,1,0-.5.35.35,0,0,1,.48,0,4.45,4.45,0,0,1,.72.63.39.39,0,0,1,.12.26A.39.39,0,0,1,68.26,48.31Zm-.18-1.7a6.86,6.86,0,0,0-.74-.68.34.34,0,0,1-.07-.5.33.33,0,0,1,.49,0,4.7,4.7,0,0,1,.76.67.39.39,0,0,1,0,.52A.32.32,0,0,1,68.08,46.61ZM73.7,48h-5c-.16,0-.23-.1-.24-.28s.1-.29.26-.29H71v-.35H69.34c-.19,0-.29-.09-.3-.26a.27.27,0,0,1,.3-.27H71v-.34H69c-.19,0-.28-.12-.3-.3s.11-.3.3-.3h2v-.28c0-.19.13-.28.32-.3s.32.11.32.3v.28h1.94c.17,0,.25.12.26.3s-.09.3-.26.3H71.63v.34h1.66a.27.27,0,0,1,.3.27.26.26,0,0,1-.3.26H71.63v.35H73.7a.29.29,0,0,1,.32.29A.27.27,0,0,1,73.7,48Zm-.53,4.06A2,2,0,0,1,72,52a.33.33,0,0,1-.29-.37.31.31,0,0,1,.38-.27c.27,0,.41.16.67.13.09,0,.22-.1.22-.22v-.43H69.64v1c0,.19-.12.29-.32.31s-.32-.12-.32-.31V49c0-.4.21-.57.61-.57H73c.43,0,.65.16.65.56v2.36A.82.82,0,0,1,73.17,52.1Zm-.21-3c0-.09,0-.13-.17-.13h-3c-.09,0-.13,0-.13.12v.26H73Zm0,.8H69.64v.37H73Z" style="fill:#231f20"/><path d="M77.07,47h-.5v1.51a1,1,0,0,1,.19-.12l.13-.09a.29.29,0,0,1,.44.09.35.35,0,0,1-.14.45,2.11,2.11,0,0,1-.62.35v2.09c0,.37-.09.62-.29.73a1.58,1.58,0,0,1-1,0c-.23,0-.34-.16-.33-.37a.29.29,0,0,1,.39-.27c.46.09.61,0,.61-.14V49.44l-.58.2a.29.29,0,0,1-.4-.2A.34.34,0,0,1,75.2,49a4,4,0,0,0,.74-.25V47H75.3c-.17,0-.26-.12-.26-.31s.09-.32.26-.32h.64v-1c0-.19.13-.28.32-.29s.31.12.31.3v1h.51c.18,0,.26.14.27.32S77.25,47,77.07,47Zm4.79,1.7H79.07c-.12.19-.2.33-.28.43h2.52c.52,0,.73.29.66.87a3.43,3.43,0,0,1-.56,1.82.77.77,0,0,1-.52.24,2.51,2.51,0,0,1-.8-.13c-.2-.07-.3-.19-.26-.39a.34.34,0,0,1,.44-.24,1.09,1.09,0,0,0,.45.11.48.48,0,0,0,.29-.15A2.86,2.86,0,0,0,81.35,50c0-.2,0-.26-.17-.26h-.37a4.42,4.42,0,0,1-2.62,2.4.32.32,0,1,1-.24-.58,4.3,4.3,0,0,0,2.2-1.82h-.51a4.14,4.14,0,0,1-2.16,1.58.3.3,0,0,1-.41-.16.36.36,0,0,1,.21-.43,4.54,4.54,0,0,0,1.54-1H78.2a4.9,4.9,0,0,1-1.06.62.31.31,0,0,1-.44-.13.29.29,0,0,1,.16-.42,3,3,0,0,0,1.45-1H77.6c-.17,0-.24-.13-.24-.32s.12-.29.28-.29h4.22a.28.28,0,0,1,.29.3C82.14,48.59,82,48.71,81.86,48.71Zm-.75-1H78.3c-.47,0-.7-.22-.7-.65V45.9c0-.44.21-.65.68-.65h2.85a.6.6,0,0,1,.68.68V47A.62.62,0,0,1,81.11,47.7ZM81.19,46c0-.11,0-.15-.16-.15H78.4c-.13,0-.17,0-.17.16v.22h3Zm0,.79h-3V47c0,.11,0,.14.16.14h2.65c.1,0,.14,0,.14-.15Z" style="fill:#231f20"/><path d="M87.22,45.89H83.56a.33.33,0,0,1-.35-.31.32.32,0,0,1,.35-.3h3.66a.3.3,0,0,1,.33.3A.31.31,0,0,1,87.22,45.89Zm.07,5.94a.83.83,0,0,1-.53.12H84c-.45,0-.66-.16-.66-.56V49a.56.56,0,0,1,.64-.63h2.84c.44,0,.65.2.65.61v2.38A.66.66,0,0,1,87.29,51.83Zm-.2-4a.6.6,0,0,1-.43.12H84a.5.5,0,0,1-.56-.56v-.7c0-.38.24-.45.58-.45h2.65a.57.57,0,0,1,.42.11.56.56,0,0,1,.1.41v.63C87.19,47.6,87.17,47.76,87.09,47.83Zm-2,1.11h-1a.15.15,0,0,0-.17.17v.76h1.12Zm0,1.54H83.94v.73a.16.16,0,0,0,.18.17h.94Zm1.51-3.55c0-.08,0-.11-.12-.11H84.21c-.11,0-.14,0-.14.13v.28c0,.1,0,.13.14.13h2.26c.08,0,.1,0,.1-.12Zm.23,2.18c0-.11,0-.17-.16-.17h-1v.93H86.8Zm0,1.37H85.68v.9h1c.1,0,.14-.05.14-.17Zm1.43,0a.32.32,0,0,1-.31-.35V45.72c0-.19.11-.28.31-.3s.32.1.32.28v4.45A.33.33,0,0,1,88.23,50.5Zm.17,1.36a.33.33,0,0,1-.17-.43.32.32,0,0,1,.41-.2,2.87,2.87,0,0,0,.63.16c.07,0,.1,0,.1-.13V45.44a.34.34,0,0,1,.32-.39c.21,0,.32.14.32.37v6C90,52.13,89.44,52.23,88.4,51.86Z" style="fill:#231f20"/><path d="M97.9,51.78H91.44a.33.33,0,0,1-.36-.36.33.33,0,0,1,.38-.35h2.87V49.19H92.14c-.25,0-.4-.12-.41-.35s.15-.36.4-.36h2.2V47.35a.33.33,0,0,1,.36-.35.34.34,0,0,1,.37.35v1.13h2.25a.36.36,0,1,1,0,.71H95.06v1.88H97.9c.25,0,.41.13.41.36S98.15,51.78,97.9,51.78Zm-.2-5h-6c-.24,0-.42-.12-.43-.35s.16-.37.42-.37h2.61v-.66c0-.25.13-.41.36-.41s.37.15.37.4v.67h2.62a.33.33,0,0,1,.35.36A.31.31,0,0,1,97.7,46.8Z" style="fill:#231f20"/><path d="M106,47.51H104.9V48c0,.57-.17.68-.72.68h-.6v.55h1.75c.46,0,.69.15.69.49v1.65c0,.56-.58.74-1.7.58a.34.34,0,0,1-.3-.41c0-.21.21-.27.42-.25a2.11,2.11,0,0,0,.78,0s.09-.05.11-.09a.66.66,0,0,0,0-.23v-.94c0-.16,0-.21-.22-.21h-1.55v2a.3.3,0,0,1-.34.33.3.3,0,0,1-.33-.33v-2h-1.3c-.15,0-.23.08-.23.29v1.59a.32.32,0,0,1-.32.35.31.31,0,0,1-.34-.32V49.83a.6.6,0,0,1,.16-.48,1,1,0,0,1,.57-.13h1.46v-.55h-.71a.89.89,0,0,1-.59-.15.79.79,0,0,1-.16-.57v-.44h-1.14v1.88a5.73,5.73,0,0,1-.47,2.3.37.37,0,0,1-.47.21.33.33,0,0,1-.17-.45l.07-.14a4.15,4.15,0,0,0,.41-2V46.24c0-.48.22-.69.7-.69h2.12v-.32a.29.29,0,0,1,.33-.3c.21,0,.34.11.34.3v.32H106c.19,0,.28.12.28.31s-.09.31-.28.31H104.9v.71H106a.31.31,0,0,1,.34.32A.3.3,0,0,1,106,47.51Zm-4.58-1.34h-1c-.14,0-.19.07-.19.21v.5h1.14Zm2.79,0H102.1v.71h2.14Zm0,1.34H102.1v.41c0,.12,0,.16.19.16h1.78c.11,0,.17,0,.17-.19Z" style="fill:#231f20"/><path d="M34.91,61.25V55.52h1.15l1.35,4.06c.13.38.22.66.27.85.07-.21.17-.52.31-.92l1.37-4h1v5.73h-.73V56.46L38,61.25H37.3l-1.65-4.88v4.88Z" style="fill:#231f20"/><path d="M41.5,61.25V57.1h.64v.63a1.78,1.78,0,0,1,.44-.58A.76.76,0,0,1,43,57a1.39,1.39,0,0,1,.72.22l-.24.66a1,1,0,0,0-.52-.16.68.68,0,0,0-.41.14.79.79,0,0,0-.27.39,3,3,0,0,0-.11.82v2.17Z" style="fill:#231f20"/><path d="M43.93,61.25v-.8h.81v.8Z" style="fill:#231f20"/><path d="M48.25,61.25V55.52h1.14l1.35,4.06c.13.38.22.66.28.85.06-.21.16-.52.3-.92l1.37-4h1v5.73H53V56.46l-1.66,4.79h-.69L49,56.37v4.88Z" style="fill:#231f20"/><path d="M54.31,61.25l2.19-5.73h.82l2.34,5.73H58.8l-.67-1.73H55.74l-.63,1.73ZM56,58.9H57.9l-.6-1.59c-.18-.48-.32-.88-.4-1.19a8.57,8.57,0,0,1-.31,1.1Z" style="fill:#231f20"/><path d="M66.14,59.24l.76.19A2.58,2.58,0,0,1,66,60.86a2.43,2.43,0,0,1-1.52.49A2.71,2.71,0,0,1,63,61a2.34,2.34,0,0,1-.88-1.09,3.78,3.78,0,0,1-.31-1.54,3.51,3.51,0,0,1,.34-1.56,2.39,2.39,0,0,1,1-1,2.83,2.83,0,0,1,1.39-.34,2.34,2.34,0,0,1,1.44.43,2.3,2.3,0,0,1,.82,1.23l-.75.18a1.7,1.7,0,0,0-.58-.91,1.53,1.53,0,0,0-1-.29,1.84,1.84,0,0,0-1.1.32,1.64,1.64,0,0,0-.63.85,3.43,3.43,0,0,0-.18,1.1,3.48,3.48,0,0,0,.22,1.27,1.56,1.56,0,0,0,.66.82,1.84,1.84,0,0,0,1,.27,1.59,1.59,0,0,0,1.08-.37A1.93,1.93,0,0,0,66.14,59.24Z" style="fill:#231f20"/><path d="M67.74,61.25V55.52h.7v2.06A1.57,1.57,0,0,1,69.68,57a1.73,1.73,0,0,1,.81.18,1.1,1.1,0,0,1,.48.5,2.24,2.24,0,0,1,.15.93v2.63h-.71V58.62a1.11,1.11,0,0,0-.22-.77.87.87,0,0,0-.65-.24,1.24,1.24,0,0,0-.59.16,1,1,0,0,0-.39.44,2,2,0,0,0-.12.77v2.27Z" style="fill:#231f20"/><path d="M72.19,56.33v-.81h.71v.81Zm0,4.92V57.1h.71v4.15Z" style="fill:#231f20"/><path d="M74,61.25V57.1h.63v.59A1.47,1.47,0,0,1,75.92,57a1.73,1.73,0,0,1,.69.13,1.09,1.09,0,0,1,.47.36,1.3,1.3,0,0,1,.22.52,4.65,4.65,0,0,1,0,.68v2.55h-.71V58.73a1.84,1.84,0,0,0-.08-.65.68.68,0,0,0-.29-.34,1,1,0,0,0-.49-.12,1.15,1.15,0,0,0-.78.28A1.43,1.43,0,0,0,74.67,59v2.27Z" style="fill:#231f20"/><path d="M78.29,61.59l.68.1a.67.67,0,0,0,.24.47,1.15,1.15,0,0,0,.71.19,1.28,1.28,0,0,0,.76-.19,1.07,1.07,0,0,0,.36-.55,5.38,5.38,0,0,0,0-.9,1.45,1.45,0,0,1-1.15.54,1.59,1.59,0,0,1-1.33-.62,2.37,2.37,0,0,1-.46-1.48,2.79,2.79,0,0,1,.21-1.09,1.68,1.68,0,0,1,.62-.78,1.71,1.71,0,0,1,1-.27,1.49,1.49,0,0,1,1.21.59v-.5h.65v3.59a3.25,3.25,0,0,1-.2,1.37,1.47,1.47,0,0,1-.62.64,2.26,2.26,0,0,1-1,.23,2,2,0,0,1-1.2-.33A1.12,1.12,0,0,1,78.29,61.59Zm.58-2.49a1.82,1.82,0,0,0,.32,1.19,1.06,1.06,0,0,0,1.63,0,2.16,2.16,0,0,0,0-2.31,1.06,1.06,0,0,0-.82-.39,1,1,0,0,0-.79.38A1.68,1.68,0,0,0,78.87,59.1Z" style="fill:#231f20"/><path d="M86.65,61.25V58.82l-2.21-3.3h.92l1.13,1.73c.21.32.4.65.58,1,.17-.3.38-.64.63-1l1.11-1.69h.88l-2.29,3.3v2.43Z" style="fill:#231f20"/><path d="M92.38,59.91l.73.09a1.72,1.72,0,0,1-.64,1,1.86,1.86,0,0,1-1.18.35,1.89,1.89,0,0,1-1.45-.56,2.19,2.19,0,0,1-.53-1.57,2.26,2.26,0,0,1,.54-1.62,2,2,0,0,1,2.76,0,2.27,2.27,0,0,1,.52,1.6v.18H90a1.57,1.57,0,0,0,.38,1,1.16,1.16,0,0,0,.87.37,1,1,0,0,0,.66-.21A1.28,1.28,0,0,0,92.38,59.91Zm-2.31-1.13h2.32a1.47,1.47,0,0,0-.26-.79,1.18,1.18,0,0,0-1.69-.08A1.32,1.32,0,0,0,90.07,58.78Z" style="fill:#231f20"/><path d="M96.71,61.25v-.61a1.5,1.5,0,0,1-1.31.7,1.58,1.58,0,0,1-.69-.14,1.1,1.1,0,0,1-.47-.35,1.22,1.22,0,0,1-.22-.52,3.57,3.57,0,0,1,0-.66V57.1h.7v2.3a4,4,0,0,0,0,.74.78.78,0,0,0,.28.44.87.87,0,0,0,.54.16,1.24,1.24,0,0,0,.59-.16,1,1,0,0,0,.39-.45,2.09,2.09,0,0,0,.12-.81V57.1h.7v4.15Z" style="fill:#231f20"/><path d="M98.44,61.25V57.1h.63v.59A1.5,1.5,0,0,1,100.4,57a1.68,1.68,0,0,1,.68.13,1.13,1.13,0,0,1,.48.36,1.29,1.29,0,0,1,.21.52,3.54,3.54,0,0,1,0,.68v2.55h-.7V58.73a2.11,2.11,0,0,0-.08-.65.73.73,0,0,0-.29-.34,1,1,0,0,0-.49-.12,1.15,1.15,0,0,0-.78.28A1.39,1.39,0,0,0,99.15,59v2.27Z" style="fill:#231f20"/><path d="M102.76,61.59l.69.1a.63.63,0,0,0,.23.47,1.2,1.2,0,0,0,.72.19,1.24,1.24,0,0,0,.75-.19,1,1,0,0,0,.36-.55,3.79,3.79,0,0,0,0-.9,1.44,1.44,0,0,1-1.15.54,1.56,1.56,0,0,1-1.32-.62,2.38,2.38,0,0,1-.47-1.48,2.62,2.62,0,0,1,.22-1.09A1.62,1.62,0,0,1,104.42,57a1.5,1.5,0,0,1,1.21.59v-.5h.65v3.59a3.42,3.42,0,0,1-.2,1.37,1.47,1.47,0,0,1-.62.64,2.27,2.27,0,0,1-1.06.23,2,2,0,0,1-1.2-.33A1.14,1.14,0,0,1,102.76,61.59Zm.58-2.49a1.76,1.76,0,0,0,.33,1.19,1,1,0,0,0,.81.38,1,1,0,0,0,.81-.38,1.7,1.7,0,0,0,.33-1.17,1.65,1.65,0,0,0-.34-1.14,1,1,0,0,0-.81-.39,1,1,0,0,0-.8.38A1.68,1.68,0,0,0,103.34,59.1Z" style="fill:#231f20"/><path d="M107.52,61.25v-.8h.8v.8a1.47,1.47,0,0,1-.15.71,1.05,1.05,0,0,1-.5.42l-.19-.3a.63.63,0,0,0,.33-.29,1.21,1.21,0,0,0,.11-.54Z" style="fill:#231f20"/><path d="M111.88,61.25V55.52H114a4.75,4.75,0,0,1,.87.06,1.51,1.51,0,0,1,.7.27,1.32,1.32,0,0,1,.46.55,1.72,1.72,0,0,1,.18.78,1.77,1.77,0,0,1-.47,1.24,2.26,2.26,0,0,1-1.68.5h-1.47v2.33Zm.75-3h1.48a1.61,1.61,0,0,0,1-.28,1,1,0,0,0,.31-.77,1,1,0,0,0-.19-.61.84.84,0,0,0-.47-.34,3.61,3.61,0,0,0-.71,0h-1.47Z" style="fill:#231f20"/><path d="M117.12,61.25V55.52h.7v2.06a1.59,1.59,0,0,1,1.25-.57,1.71,1.71,0,0,1,.8.18,1.05,1.05,0,0,1,.48.5,2.24,2.24,0,0,1,.15.93v2.63h-.7V58.62a1.11,1.11,0,0,0-.23-.77.85.85,0,0,0-.65-.24,1.24,1.24,0,0,0-.59.16,1,1,0,0,0-.39.44,2,2,0,0,0-.12.77v2.27Z" style="fill:#231f20"/><path d="M121.57,56.33v-.81h.71v.81Zm0,4.92V57.1h.71v4.15Z" style="fill:#231f20"/><path d="M123.33,61.25V55.52H124v5.73Z" style="fill:#231f20"/><path d="M125.13,56.33v-.81h.7v.81Zm0,4.92V57.1h.7v4.15Z" style="fill:#231f20"/><path d="M126.9,62.84V57.1h.64v.54a1.44,1.44,0,0,1,.52-.47,1.35,1.35,0,0,1,.69-.16,1.64,1.64,0,0,1,.93.27,1.7,1.7,0,0,1,.62.77,3.09,3.09,0,0,1,0,2.24,1.77,1.77,0,0,1-.67.78,1.69,1.69,0,0,1-.91.27,1.28,1.28,0,0,1-.63-.15,1.3,1.3,0,0,1-.46-.37v2Zm.64-3.64a1.83,1.83,0,0,0,.32,1.18,1,1,0,0,0,.79.39,1,1,0,0,0,.8-.4,1.92,1.92,0,0,0,.34-1.23,1.84,1.84,0,0,0-.33-1.19,1,1,0,0,0-1.57,0A1.81,1.81,0,0,0,127.54,59.2Z" style="fill:#231f20"/><path d="M58.45,70.85l-2.22-5.73h.82l1.49,4.16c.12.34.22.65.3.94.09-.31.19-.62.31-.94l1.54-4.16h.78l-2.25,5.73Z" style="fill:#231f20"/><path d="M61.91,65.93v-.81h.71v.81Zm0,4.92V66.7h.71v4.15Z" style="fill:#231f20"/><path d="M66.4,69.33l.69.09a1.82,1.82,0,0,1-.58,1.12,1.71,1.71,0,0,1-1.15.4A1.79,1.79,0,0,1,64,70.39a2.3,2.3,0,0,1-.52-1.6,2.81,2.81,0,0,1,.23-1.17,1.52,1.52,0,0,1,.67-.76,2,2,0,0,1,1-.25,1.73,1.73,0,0,1,1.11.34,1.55,1.55,0,0,1,.55,1l-.68.11A1.14,1.14,0,0,0,66,67.4a.88.88,0,0,0-.6-.21,1.07,1.07,0,0,0-.86.38,1.79,1.79,0,0,0-.33,1.2A1.86,1.86,0,0,0,64.52,70a1,1,0,0,0,.83.38,1,1,0,0,0,.69-.26A1.24,1.24,0,0,0,66.4,69.33Z" style="fill:#231f20"/><path d="M70.53,69.51l.72.09a1.71,1.71,0,0,1-.63,1,1.89,1.89,0,0,1-1.19.35A1.85,1.85,0,0,1,68,70.38a2.15,2.15,0,0,1-.54-1.57A2.26,2.26,0,0,1,68,67.19a1.82,1.82,0,0,1,1.4-.58,1.79,1.79,0,0,1,1.36.56,2.27,2.27,0,0,1,.53,1.6,1.58,1.58,0,0,1,0,.19H68.18a1.61,1.61,0,0,0,.39,1,1.16,1.16,0,0,0,.86.37,1,1,0,0,0,.66-.21A1.29,1.29,0,0,0,70.53,69.51Zm-2.31-1.13h2.32a1.47,1.47,0,0,0-.27-.79,1.06,1.06,0,0,0-.87-.4,1.12,1.12,0,0,0-.82.32A1.28,1.28,0,0,0,68.22,68.38Z" style="fill:#231f20"/><path d="M71.86,69.13v-.71H74v.71Z" style="fill:#231f20"/><path d="M79,68.84l.76.19a2.58,2.58,0,0,1-.86,1.43,2.43,2.43,0,0,1-1.52.49,2.71,2.71,0,0,1-1.5-.38A2.29,2.29,0,0,1,75,69.48a3.78,3.78,0,0,1-.31-1.54A3.51,3.51,0,0,1,75,66.38a2.39,2.39,0,0,1,1-1A2.83,2.83,0,0,1,77.38,65a2.34,2.34,0,0,1,1.44.43,2.38,2.38,0,0,1,.82,1.23l-.75.18a1.7,1.7,0,0,0-.58-.91,1.53,1.53,0,0,0-1-.29,1.84,1.84,0,0,0-1.1.32,1.64,1.64,0,0,0-.63.85,3.43,3.43,0,0,0-.18,1.1,3.57,3.57,0,0,0,.22,1.28,1.57,1.57,0,0,0,.66.81,1.84,1.84,0,0,0,1,.27,1.59,1.59,0,0,0,1.08-.37A1.93,1.93,0,0,0,79,68.84Z" style="fill:#231f20"/><path d="M80.58,70.85V65.12h.7v2.06a1.57,1.57,0,0,1,1.24-.57,1.66,1.66,0,0,1,.8.18,1.08,1.08,0,0,1,.49.5,2.28,2.28,0,0,1,.15.93v2.63h-.71V68.22a1.11,1.11,0,0,0-.22-.77.87.87,0,0,0-.65-.24,1.15,1.15,0,0,0-.59.17.9.9,0,0,0-.39.43,2,2,0,0,0-.12.77v2.27Z" style="fill:#231f20"/><path d="M87.74,70.34a2.81,2.81,0,0,1-.76.47,2.19,2.19,0,0,1-.77.13,1.5,1.5,0,0,1-1-.33,1.09,1.09,0,0,1-.37-.85,1.16,1.16,0,0,1,.14-.56,1.07,1.07,0,0,1,.36-.4,1.71,1.71,0,0,1,.51-.24,5.74,5.74,0,0,1,.62-.1,7,7,0,0,0,1.26-.24V68a.79.79,0,0,0-.2-.6,1.18,1.18,0,0,0-.8-.24,1.29,1.29,0,0,0-.73.17,1.06,1.06,0,0,0-.35.62l-.69-.09a1.71,1.71,0,0,1,.31-.72,1.36,1.36,0,0,1,.62-.42,3,3,0,0,1,.94-.14,2.64,2.64,0,0,1,.87.12,1.12,1.12,0,0,1,.48.32,1,1,0,0,1,.22.48,3.13,3.13,0,0,1,0,.64v.94a10.24,10.24,0,0,0,0,1.24,1.58,1.58,0,0,0,.18.5h-.73A1.37,1.37,0,0,1,87.74,70.34Zm-.06-1.57a5.38,5.38,0,0,1-1.15.26,3.47,3.47,0,0,0-.62.14.62.62,0,0,0-.27.23.57.57,0,0,0-.1.34.62.62,0,0,0,.21.47,1,1,0,0,0,.63.18,1.53,1.53,0,0,0,.72-.17,1.09,1.09,0,0,0,.46-.49,1.6,1.6,0,0,0,.12-.7Z" style="fill:#231f20"/><path d="M89.48,65.93v-.81h.7v.81Zm0,4.92V66.7h.7v4.15Z" style="fill:#231f20"/><path d="M91.25,70.85V66.7h.63v.63a1.65,1.65,0,0,1,.45-.58.71.71,0,0,1,.45-.14,1.34,1.34,0,0,1,.72.22l-.24.66a1,1,0,0,0-.52-.16.68.68,0,0,0-.41.14.77.77,0,0,0-.26.39,2.66,2.66,0,0,0-.12.82v2.17Z" style="fill:#231f20"/><path d="M93.92,70.85V66.7h.63v.58a1.53,1.53,0,0,1,.52-.49,1.47,1.47,0,0,1,.74-.18,1.35,1.35,0,0,1,.75.19,1,1,0,0,1,.42.53,1.49,1.49,0,0,1,1.28-.72,1.26,1.26,0,0,1,.95.34,1.47,1.47,0,0,1,.33,1v2.85h-.7V68.24a1.8,1.8,0,0,0-.07-.61.6.6,0,0,0-.25-.3.82.82,0,0,0-.42-.11.94.94,0,0,0-.72.29,1.24,1.24,0,0,0-.29.93v2.41h-.71v-2.7a1.15,1.15,0,0,0-.17-.7.66.66,0,0,0-.56-.23,1.06,1.06,0,0,0-.55.15.87.87,0,0,0-.36.46,2.45,2.45,0,0,0-.12.87v2.15Z" style="fill:#231f20"/><path d="M103.29,70.34a2.63,2.63,0,0,1-.75.47,2.2,2.2,0,0,1-.78.13,1.54,1.54,0,0,1-1.05-.33,1.12,1.12,0,0,1-.37-.85,1.16,1.16,0,0,1,.14-.56,1.19,1.19,0,0,1,.37-.4,1.65,1.65,0,0,1,.5-.24,6,6,0,0,1,.63-.1,7.08,7.08,0,0,0,1.25-.24c0-.1,0-.16,0-.19a.79.79,0,0,0-.2-.6,1.18,1.18,0,0,0-.8-.24,1.3,1.3,0,0,0-.74.17,1.18,1.18,0,0,0-.35.62l-.68-.09a1.7,1.7,0,0,1,.3-.72,1.4,1.4,0,0,1,.63-.42,3,3,0,0,1,.94-.14,2.58,2.58,0,0,1,.86.12,1.23,1.23,0,0,1,.49.32,1.19,1.19,0,0,1,.22.48,4.51,4.51,0,0,1,0,.64v.94a9.44,9.44,0,0,0,0,1.24,1.85,1.85,0,0,0,.17.5h-.73A1.59,1.59,0,0,1,103.29,70.34Zm-.06-1.57a5.24,5.24,0,0,1-1.15.26,3.31,3.31,0,0,0-.61.14.71.71,0,0,0-.28.23.65.65,0,0,0-.1.34.63.63,0,0,0,.22.47.94.94,0,0,0,.62.18,1.53,1.53,0,0,0,.72-.17,1.11,1.11,0,0,0,.47-.49,1.79,1.79,0,0,0,.11-.7Z" style="fill:#231f20"/><path d="M105,70.85V66.7h.63v.59a1.52,1.52,0,0,1,1.33-.68,1.68,1.68,0,0,1,.68.13,1.13,1.13,0,0,1,.48.36,1.35,1.35,0,0,1,.21.52,3.54,3.54,0,0,1,0,.68v2.55h-.7V68.33a2.11,2.11,0,0,0-.08-.65.73.73,0,0,0-.29-.34,1,1,0,0,0-.49-.12,1.15,1.15,0,0,0-.78.28,1.39,1.39,0,0,0-.32,1.08v2.27Z" style="fill:#231f20"/><path d="M62.54,33.19a.76.76,0,0,0,0-.15c0-.16,0-.32,0-.48H63l0,.63h1v.19H63a2.7,2.7,0,0,0,.67,1.11,1.27,1.27,0,0,0,.41.27l0,0c-.1,0-.19,0-.23.15a.07.07,0,0,0,0,0,.42.42,0,0,0,0,.12l0,0-.15-.07a1.24,1.24,0,0,1-.18-.14A1.74,1.74,0,0,1,63,34l-.07-.34c0,.1-.07.2-.1.29a1.86,1.86,0,0,1-.73.88,2.85,2.85,0,0,1-.55.28l0,0a2.36,2.36,0,0,0,.75-.85,2.3,2.3,0,0,0,.27-.84h-1v-.19Z" style="fill:#414042"/><path d="M67,34.07h-.86v-.2H67v-.61h-.66a1.55,1.55,0,0,1-.48.44h0a2.25,2.25,0,0,0,.14-.44,4,4,0,0,0,.06-.5h.49a1.92,1.92,0,0,1-.09.32H67v-.51h.46v.51h.84v.19H67.5v.61h.69v.2H67.5v.8h.89v.18H66v-.18H67Z" style="fill:#414042"/><path d="M70.51,34.46V33.21h-.28V33h.28v-.47h.37V33h.23v.19h-.23v1.11l.27-.12v0a1.81,1.81,0,0,1-.85.67,3.4,3.4,0,0,0-.12-.34Zm.5-1,0-.19.22,0V32.8h.36v.41l.15,0v-.64h.36v.57l.12,0,.09-.13.4,0-.1.15V34c0,.08,0,.16,0,.24s0,.19-.1.24l-.13,0-.25,0c-.11,0,0-.09-.12-.17a.89.89,0,0,0-.26-.07v0H72c.11,0,.14,0,.14-.12V33.3l-.12,0v.82H71.7v-.75l-.15,0v1.21a.22.22,0,0,0,0,.11c.06.11.32.1.42.1a.78.78,0,0,0,.31,0,1.45,1.45,0,0,0,.37-.37h0a1.44,1.44,0,0,0-.09.24c0,.11.16.11.16.14l0,0-.1.12c-.13.13-.47.13-.63.13l-.41,0c-.25,0-.41-.1-.41-.37V33.47Z" style="fill:#414042"/><path d="M75.09,33.67a1.85,1.85,0,0,1-.24,1.15,1.18,1.18,0,0,1-.31.32l0,0a1.42,1.42,0,0,0,.08-.18,4.87,4.87,0,0,0,.13-1.52h.37v.06h.11l0,0c.23-.08.46-.12.59-.18,0,0-.35-.1-.57-.21h-.41v-.19h1.06s-.06,0-.07,0,0-.2-.1-.26l0,0,0,0a.85.85,0,0,1,.42.08.19.19,0,0,1,.1.17s0,.07-.07.1H77v.19h-.3l.14.1c-.13.05-.45.06-.56.09a2.53,2.53,0,0,1,.47.08.11.11,0,0,1,0,.15h.3v.19Zm0,1.4v-.19h.79v-.31h-.52v-.19h.52v-.22h-.37c-.07.07-.13.14-.2.2a.78.78,0,0,1-.15.1l0,0a1.77,1.77,0,0,0,.22-.67h.4a2.12,2.12,0,0,1-.11.21h.24V33.7h.42V34h.67v.18h-.67v.22h.63v.19h-.63v.31H77v.19Zm.25-2,.71.11.38-.11Zm.69.32a3.43,3.43,0,0,1-.67.1h1.1A3.21,3.21,0,0,1,76,33.38Z" style="fill:#414042"/><path d="M79.14,32.92a1.29,1.29,0,0,1,.44.1l.06.07a1.17,1.17,0,0,0,.17-.26h-.76v-.17h.83l.12-.13.3.13,0-.06h.1a1.39,1.39,0,0,0,.15.19,1.56,1.56,0,0,0,.51-.27l.39.18a3.4,3.4,0,0,1-.83.17,1.73,1.73,0,0,0,.21.17c.18-.09.34-.17.51-.27l.23.23-.6.12a1.44,1.44,0,0,0,.58.13v0c-.07,0-.11.08-.11.17s0,.08,0,.11l0,0-.27-.09v.29c0,.06,0,.07.09.07h.13c.05,0,.05,0,.05,0s0,.14-.12.14h-.16c-.14,0-.28,0-.28-.19v-.29h-.19s0,.08,0,.12a.49.49,0,0,1-.28.33l-.2.08,0,0c.24-.21.2-.46.2-.75h.32v.07h.25a1.64,1.64,0,0,1-.22-.14,1.34,1.34,0,0,1-.37-.53l-.06.06-.08.11a3.15,3.15,0,0,1-.22.29l-.19.18h0l.17-.12.27.15-.11.08V34h-.35v0H79.5l0,.21h.25l.11-.11.38.08-.12.11,0,.62a.22.22,0,0,1,0,.14.4.4,0,0,1-.33.12s-.17,0-.18,0h0s0,0,0-.06-.22-.15-.31-.17v0c.12,0,.24,0,.37,0s.11,0,.11-.1v-.41h-.26l-.12.12L79,34.3l.11-.1,0-.48h.36v.07h.28v-.25h-.35l-.48.2,0,0,.27-.2a2.62,2.62,0,0,0,.25-.22c-.12,0-.12-.08-.17-.19a.46.46,0,0,0-.16-.15Zm1.09,1.43v-.18h.67l.1-.11.39.13-.13.12a1.94,1.94,0,0,1-.15.24.83.83,0,0,1-.08.12c.11,0,.29.13.29.27a.17.17,0,0,1-.18.17.33.33,0,0,1-.16,0,1.8,1.8,0,0,1-.18-.2l-.15.11a2.54,2.54,0,0,1-.66.21l0,0a1.51,1.51,0,0,0,.52-.34l.11-.12a2.28,2.28,0,0,0-.39-.28l0,0,.24.07.27.09.11-.19Z" style="fill:#414042"/><path d="M83.85,32.58v.1h1.32l.13-.11.44.07-.14.13v.58h-.41v-.07H83.85c0,.23,0,.48,0,.72h.29v-.26h-.24v-.19h.24v-.16h.39v.16H85v-.16h.39v.16h.36v.19h-.36V34h.44v.18h-1a1.35,1.35,0,0,0,.2.27.53.53,0,0,0,.2-.22l.46,0a1.19,1.19,0,0,1-.55.27,1.66,1.66,0,0,0,.67.22v.05c-.18,0-.21.13-.21.3l0,0a1.46,1.46,0,0,1-.75-.54,2.14,2.14,0,0,1-.7.5l-.19-.31c.08-.05.1-.07.1-.16v-.44h-.19a1.11,1.11,0,0,1-.55.87h0a2.31,2.31,0,0,0,.19-1.19V32.58Zm1.34.51v-.22H83.85v.22Zm-.41,1.42a1.28,1.28,0,0,1-.11-.33h-.24v.46ZM85,34v-.26h-.45V34Z" style="fill:#414042"/><path d="M88.32,32.78a.94.94,0,0,0,.12-.22H89a1.43,1.43,0,0,1-.15.22h1.29V33H88.69a2.24,2.24,0,0,1-.34.27h.13v.07h1l.1-.12.46.09-.12.12V34.9c0,.14-.08.2-.21.21a1.84,1.84,0,0,1-.33,0h-.06s0-.09-.06-.15a.46.46,0,0,0-.26-.1v0h.32c.06,0,.17,0,.17-.08v-.35h-1v.7h-.43V33.41l-.39.14,0,0a2.92,2.92,0,0,0,.56-.55h-.57v-.2Zm1.12,1v-.26h-1v.26Zm0,.47V34h-1v.28Z" style="fill:#414042"/><path d="M92.7,32.56l.39.09-.11.09a1.16,1.16,0,0,1-.32.63c.11.06.28.14.32.26a2.27,2.27,0,0,1,0,.78c0,.18-.06.24-.23.28l-.14,0c-.13,0,0-.15-.14-.19l-.07,0v.64H92V32.58h.42v.11h.16Zm-.17,1.87c.11,0,.11,0,.11-.15s0-.46,0-.65a.7.7,0,0,0-.11-.23,3.21,3.21,0,0,0,.11-.52h-.18v1.55Zm.57.23V32.57h.4v.11H94l.12-.13.45.09-.13.11v1.09H94v-.1H93.5v.89l.23-.08v0a2.9,2.9,0,0,1-.52.53L93,34.75A.08.08,0,0,0,93.1,34.66ZM94,33.1v-.22H93.5v.22Zm0,.2H93.5v.24H94Zm-.3.55a2,2,0,0,0,.21.35,1,1,0,0,0,.13-.27l.45,0a1.28,1.28,0,0,1-.49.34,1.56,1.56,0,0,0,.59.42v0c-.19.05-.23.17-.16.34l0,0c-.6-.28-.71-.63-.78-1.27Z" style="fill:#414042"/><path d="M97.28,32.9a1.65,1.65,0,0,1-.26.44,2.55,2.55,0,0,1-.7.52l0,0a3.28,3.28,0,0,0,.32-.44,2.71,2.71,0,0,0,.26-.74v-.1h.5A2.07,2.07,0,0,1,97.28,32.9Zm-.67,1.81a.52.52,0,0,0,.16-.17,2.58,2.58,0,0,0,.42-1h.53a2.28,2.28,0,0,1-.52.84l-.35.32h.39c.32,0,.63,0,1,0a2.59,2.59,0,0,0-.34-.61l0,0a1.92,1.92,0,0,1,.31.18,2.88,2.88,0,0,1,.34.23.49.49,0,0,1,.2.35.27.27,0,0,1-.23.29.2.2,0,0,1-.24-.15,1.46,1.46,0,0,0-.05-.2,5.54,5.54,0,0,1-1.14.26l-.53.05,0-.36Zm1.54-1.89a1.74,1.74,0,0,0,.75.72v0c-.13,0-.24.06-.24.22a.3.3,0,0,0,0,.1l0,0a1.26,1.26,0,0,1-.57-.55,2,2,0,0,1-.19-.81H98A1.51,1.51,0,0,0,98.15,32.82Z" style="fill:#414042"/><path d="M102.53,33.15v.2h-1.86v-.19Zm.11-.5.1-.13.46.09-.11.13v2.08a.24.24,0,0,1-.15.25,1.09,1.09,0,0,1-.47.08c-.18,0,0-.06-.15-.16a.81.81,0,0,0-.36-.12v0h.45a.78.78,0,0,0,.22,0,.08.08,0,0,0,0,0V32.84h-1.84v-.19Zm-1.76.91h.42v.12h.51l.11-.13.44.09-.11.13v.88h-.43V34.5h-.52v.16h-.42Zm.94.74v-.42h-.52v.42Z" style="fill:#414042"/><path d="M61.4,36.37h1.4v.55h-.07a.49.49,0,0,0-.19-.4.43.43,0,0,0-.26-.06v1.43a.3.3,0,0,0,0,.2.27.27,0,0,0,.19,0v.07h-.83v-.07a.26.26,0,0,0,.18,0,.31.31,0,0,0,0-.2V36.46a.48.48,0,0,0-.26.06.46.46,0,0,0-.18.4H61.4Z" style="fill:#414042"/><path d="M62.76,38.14a.15.15,0,0,0,.13-.09,1.11,1.11,0,0,0,.1-.23l.51-1.49h.06l.52,1.43a1.86,1.86,0,0,0,.13.31.13.13,0,0,0,.12.07v.07h-.75v-.07a.4.4,0,0,0,.15,0s0,0,0-.09a.84.84,0,0,0,0-.1.46.46,0,0,1,0-.09l-.06-.17h-.52l-.06.22A.41.41,0,0,0,63,38a.08.08,0,0,0,.07.08l.12,0v.07h-.47Zm.87-.57-.23-.63h0l-.2.63Z" style="fill:#414042"/><path d="M64.43,38.14a.26.26,0,0,0,.14,0,.19.19,0,0,0,.07-.16V36.63a.17.17,0,0,0-.07-.16.24.24,0,0,0-.14,0v-.07h.81v.07a.24.24,0,0,0-.15,0s-.07.08-.07.16V38a.19.19,0,0,0,0,.15.27.27,0,0,0,.17,0v.07h-.81Z" style="fill:#414042"/><path d="M66,37.57H66a.82.82,0,0,0,.18.45.37.37,0,0,0,.28.14.27.27,0,0,0,.22-.1.36.36,0,0,0,.06-.2.32.32,0,0,0-.06-.2,1.46,1.46,0,0,0-.19-.13l-.15-.09a1.21,1.21,0,0,1-.31-.26.52.52,0,0,1-.09-.31.66.66,0,0,1,.12-.38.44.44,0,0,1,.37-.17.64.64,0,0,1,.24,0l.14,0,0,0a.14.14,0,0,0,0-.07H67v.59h-.06a.87.87,0,0,0-.16-.35.35.35,0,0,0-.28-.15.21.21,0,0,0-.18.07.24.24,0,0,0-.07.18.3.3,0,0,0,.06.2l.28.19.17.1a.71.71,0,0,1,.18.15.55.55,0,0,1,.13.38.64.64,0,0,1-.14.38.48.48,0,0,1-.43.19l-.14,0a.34.34,0,0,1-.14,0l0,0h0a.05.05,0,0,0,0,0,.12.12,0,0,0,0,.07H66Z" style="fill:#414042"/><path d="M67.2,38.14a.15.15,0,0,0,.13-.09,1.11,1.11,0,0,0,.1-.23l.51-1.49H68l.51,1.43a1.86,1.86,0,0,0,.13.31.14.14,0,0,0,.13.07v.07H68v-.07l.14,0s0,0,0-.09a.84.84,0,0,0,0-.1l0-.09-.06-.17h-.52l-.06.22a.64.64,0,0,0,0,.15.08.08,0,0,0,.06.08l.12,0v.07H67.2Zm.87-.57-.22-.63h0l-.21.63Z" style="fill:#414042"/><path d="M68.87,38.14c.08,0,.14,0,.16-.06a.24.24,0,0,0,0-.16V36.63a1.08,1.08,0,0,0-.13-.16.09.09,0,0,0-.07,0v-.07h.49l.8,1.14h0v-.8a.33.33,0,0,0,0-.2.21.21,0,0,0-.17-.07v-.07h.49v.07a.27.27,0,0,0-.14.05.22.22,0,0,0,0,.16v1.61h-.06l-1-1.46h0v1.07a.42.42,0,0,0,0,.18.22.22,0,0,0,.19.09v.07h-.52Z" style="fill:#414042"/><path d="M70.81,36.62a.72.72,0,0,1,.59-.29.58.58,0,0,1,.28.07l.18.06a.06.06,0,0,0,.06,0,.19.19,0,0,0,0-.09H72V37h0a1.52,1.52,0,0,0-.18-.32.45.45,0,0,0-.36-.23.35.35,0,0,0-.33.23,1.64,1.64,0,0,0-.1.65,1.85,1.85,0,0,0,.09.6.37.37,0,0,0,.37.27c.1,0,.17,0,.2-.07a.23.23,0,0,0,0-.13v-.28c0-.09,0-.14-.07-.17a.47.47,0,0,0-.16,0v-.07h.79v.07a.22.22,0,0,0-.16,0,.33.33,0,0,0,0,.2v.34a.66.66,0,0,1-.25.11,1.12,1.12,0,0,1-.38.06A.74.74,0,0,1,70.8,38a1.17,1.17,0,0,1,0-1.35Z" style="fill:#414042"/><path d="M72.92,38.14a.24.24,0,0,0,.14,0,.17.17,0,0,0,.07-.16V36.63a.17.17,0,0,0-.07-.16.22.22,0,0,0-.14,0v-.07h.81v.07a.34.34,0,0,0-.18,0s0,.1,0,.21V38c0,.06,0,.1,0,.12a.3.3,0,0,0,.16,0,.52.52,0,0,0,.35-.11.89.89,0,0,0,.24-.42h.07l-.09.62H72.92Z" style="fill:#414042"/><path d="M74.47,38.14a.15.15,0,0,0,.13-.09.74.74,0,0,0,.1-.23l.51-1.49h.07l.51,1.43a1.86,1.86,0,0,0,.13.31.14.14,0,0,0,.13.07v.07H75.3v-.07a.37.37,0,0,0,.14,0s0,0,0-.09a.84.84,0,0,0,0-.1.46.46,0,0,1,0-.09l-.06-.17h-.52l-.06.22a.64.64,0,0,0,0,.15.08.08,0,0,0,.06.08l.12,0v.07h-.47Zm.87-.57-.22-.63h0l-.21.63Z" style="fill:#414042"/><path d="M76.14,38.14c.08,0,.14,0,.16-.06a.24.24,0,0,0,0-.16V36.63a1.08,1.08,0,0,0-.13-.16.09.09,0,0,0-.07,0v-.07h.49l.8,1.14h0v-.8a.33.33,0,0,0,0-.2.21.21,0,0,0-.17-.07v-.07h.49v.07a.27.27,0,0,0-.14.05.22.22,0,0,0,0,.16v1.61h-.06l-1-1.46h0v1.07a.42.42,0,0,0,0,.18.22.22,0,0,0,.19.09v.07h-.52Z" style="fill:#414042"/><path d="M77.8,38.14a.23.23,0,0,0,.13,0A.16.16,0,0,0,78,38V36.62a.16.16,0,0,0-.07-.15.19.19,0,0,0-.13,0v-.07h.71a.81.81,0,0,1,.66.27,1,1,0,0,1,.2.65,1,1,0,0,1-.21.63.75.75,0,0,1-.62.29H77.8Zm.6-.06a.12.12,0,0,0,.1,0,.44.44,0,0,0,.34-.17,1.26,1.26,0,0,0,.13-.66,1.83,1.83,0,0,0-.07-.5q-.12-.33-.39-.33c-.06,0-.1,0-.12,0a.29.29,0,0,0,0,.12V38A.21.21,0,0,0,78.4,38.08Z" style="fill:#414042"/><path d="M80.06,38.14a.19.19,0,0,0,.12,0,.16.16,0,0,0,.07-.15V36.62a.16.16,0,0,0-.07-.15.17.17,0,0,0-.12,0v-.07h.7a.81.81,0,0,1,.66.27,1.12,1.12,0,0,1,0,1.28.79.79,0,0,1-.63.29h-.73Zm.59-.06a.13.13,0,0,0,.1,0,.42.42,0,0,0,.34-.17,1.17,1.17,0,0,0,.13-.66,1.51,1.51,0,0,0-.07-.5q-.12-.33-.39-.33c-.06,0-.1,0-.12,0a.29.29,0,0,0,0,.12V38A.35.35,0,0,0,80.65,38.08Z" style="fill:#414042"/><path d="M81.73,38.21v-.07a.28.28,0,0,0,.15,0,.18.18,0,0,0,.06-.16V36.63a.17.17,0,0,0-.07-.16.22.22,0,0,0-.14,0v-.07h1.34v.55H83a.61.61,0,0,0-.15-.36.54.54,0,0,0-.38-.1.22.22,0,0,0-.14,0s0,0,0,.1v.63a.32.32,0,0,0,.27-.09.67.67,0,0,0,.11-.31h.06v.92h-.06a.67.67,0,0,0-.1-.33.35.35,0,0,0-.28-.1V38a.17.17,0,0,0,0,.12.3.3,0,0,0,.16,0,.59.59,0,0,0,.36-.1.83.83,0,0,0,.25-.38h.06l-.09.57Z" style="fill:#414042"/><path d="M84.06,36.37v.06l-.17,0s0,0,0,.08v0s0,0,0,0l.37,1h0l.3-.92s0-.05,0-.07a.25.25,0,0,0,0-.08.11.11,0,0,0,0-.1l-.16,0v-.06h.5v.06a.23.23,0,0,0-.13.06.38.38,0,0,0-.08.17l-.53,1.6h-.06l-.6-1.63a.35.35,0,0,0-.07-.14.23.23,0,0,0-.12-.06v-.06Z" style="fill:#414042"/><path d="M85,38.21v-.07a.22.22,0,0,0,.14,0,.17.17,0,0,0,.07-.16V36.63a.17.17,0,0,0-.07-.16.22.22,0,0,0-.14,0v-.07h1.34v.55h-.06a.61.61,0,0,0-.15-.36.55.55,0,0,0-.39-.1.19.19,0,0,0-.13,0s0,0,0,.1v.63a.34.34,0,0,0,.27-.09.67.67,0,0,0,.11-.31H86v.92h-.06a.67.67,0,0,0-.1-.33.38.38,0,0,0-.28-.1V38c0,.06,0,.1,0,.12a.26.26,0,0,0,.15,0,.62.62,0,0,0,.37-.1.83.83,0,0,0,.24-.38h.07l-.09.57Z" style="fill:#414042"/><path d="M86.5,38.14a.26.26,0,0,0,.14,0,.19.19,0,0,0,.07-.16V36.63a.19.19,0,0,0-.07-.16.24.24,0,0,0-.14,0v-.07h.81v.07a.38.38,0,0,0-.19,0s0,.1,0,.21V38c0,.06,0,.1,0,.12a.24.24,0,0,0,.15,0,.51.51,0,0,0,.35-.11.82.82,0,0,0,.25-.42h.07l-.1.62H86.5Z" style="fill:#414042"/><path d="M89.48,36.59a1.16,1.16,0,0,1,0,1.41.74.74,0,0,1-.58.26.72.72,0,0,1-.6-.29,1,1,0,0,1-.22-.66,1.05,1.05,0,0,1,.23-.7.72.72,0,0,1,.59-.28A.71.71,0,0,1,89.48,36.59Zm-.22,1.22a2.34,2.34,0,0,0,0-.52,1.55,1.55,0,0,0-.11-.65.32.32,0,0,0-.3-.22c-.17,0-.29.12-.36.37a2.27,2.27,0,0,0-.05.5,2.34,2.34,0,0,0,.05.52q.1.36.36.36C89.08,38.17,89.19,38.05,89.26,37.81Z" style="fill:#414042"/><path d="M89.84,38.14a.27.27,0,0,0,.16-.06.35.35,0,0,0,0-.19v-1.2a.37.37,0,0,0,0-.2.27.27,0,0,0-.16-.05v-.07h.75a.78.78,0,0,1,.45.11.47.47,0,0,1,.15.39.54.54,0,0,1-.06.25.41.41,0,0,1-.2.19.83.83,0,0,1-.21.06h-.31v.51a.4.4,0,0,0,0,.2.23.23,0,0,0,.16,0v.07h-.77Zm.85-.91a.43.43,0,0,0,.11-.35.61.61,0,0,0-.06-.3.19.19,0,0,0-.2-.12l-.1,0s0,0,0,.08v.73A.46.46,0,0,0,90.69,37.23Z" style="fill:#414042"/><path d="M91.25,38.14c.09,0,.15,0,.17-.06a.24.24,0,0,0,0-.16V36.63c0-.08,0-.12,0-.15a.31.31,0,0,0-.16,0v-.07h.58l.46,1.26h0l.45-1.26h.58v.07a.23.23,0,0,0-.16.05s0,.09,0,.2v1.2a.31.31,0,0,0,0,.2.23.23,0,0,0,.16,0v.07h-.77v-.07a.34.34,0,0,0,.16,0,.22.22,0,0,0,.05-.16V36.61h0l-.56,1.6h-.07l-.57-1.57h0v1.23a.46.46,0,0,0,0,.2.24.24,0,0,0,.19.07v.07h-.54Z" style="fill:#414042"/><path d="M93.44,38.21v-.07a.28.28,0,0,0,.15,0,.18.18,0,0,0,.06-.16V36.63a.17.17,0,0,0-.07-.16.22.22,0,0,0-.14,0v-.07h1.34v.55h-.06a.61.61,0,0,0-.15-.36.54.54,0,0,0-.38-.1.22.22,0,0,0-.14,0s0,0,0,.1v.63a.32.32,0,0,0,.27-.09.67.67,0,0,0,.11-.31h.06v.92H94.4a.67.67,0,0,0-.1-.33.35.35,0,0,0-.28-.1V38a.17.17,0,0,0,0,.12.3.3,0,0,0,.16,0,.61.61,0,0,0,.36-.1.92.92,0,0,0,.25-.38h.06l-.09.57Z" style="fill:#414042"/><path d="M95,38.14a.21.21,0,0,0,.17-.06.32.32,0,0,0,0-.16V36.63a1.08,1.08,0,0,0-.13-.16.09.09,0,0,0-.07,0v-.07h.49l.8,1.14h0v-.8a.33.33,0,0,0,0-.2.21.21,0,0,0-.17-.07v-.07h.5v.07a.17.17,0,0,0-.19.21v1.61h-.06l-1-1.46h0v1.07a.42.42,0,0,0,0,.18.22.22,0,0,0,.19.09v.07H95Z" style="fill:#414042"/><path d="M96.69,36.37h1.39v.55H98a.56.56,0,0,0-.19-.4.48.48,0,0,0-.26-.06v1.43a.31.31,0,0,0,0,.2.27.27,0,0,0,.19,0v.07H97v-.07a.26.26,0,0,0,.18,0,.3.3,0,0,0,0-.2V36.46a.45.45,0,0,0-.26.06.47.47,0,0,0-.19.4h-.07Z" style="fill:#414042"/><path d="M98.75,38.14a.26.26,0,0,0,.14,0A.18.18,0,0,0,99,38V36.63a.18.18,0,0,0-.06-.16.24.24,0,0,0-.14,0v-.07h.81v.07a.35.35,0,0,0-.19,0,.32.32,0,0,0-.05.21V38a.17.17,0,0,0,0,.12.3.3,0,0,0,.16,0,.51.51,0,0,0,.35-.11.82.82,0,0,0,.25-.42h.06l-.09.62H98.75Z" style="fill:#414042"/><path d="M100.1,36.37h1.4v.55h-.07a.49.49,0,0,0-.19-.4.43.43,0,0,0-.26-.06v1.43a.3.3,0,0,0,0,.2.26.26,0,0,0,.18,0v.07h-.82v-.07a.26.26,0,0,0,.18,0,.31.31,0,0,0,0-.2V36.46a.48.48,0,0,0-.26.06.46.46,0,0,0-.18.4h-.07Z" style="fill:#414042"/><path d="M101.62,38.14a.19.19,0,0,0,.12,0,.16.16,0,0,0,.07-.15V36.62a.18.18,0,0,0-.06-.15.23.23,0,0,0-.13,0v-.07h.7a.81.81,0,0,1,.66.27,1.12,1.12,0,0,1,0,1.28.79.79,0,0,1-.63.29h-.73Zm.59-.06a.13.13,0,0,0,.1,0,.42.42,0,0,0,.34-.17,1.17,1.17,0,0,0,.13-.66,1.51,1.51,0,0,0-.07-.5q-.12-.33-.39-.33c-.06,0-.1,0-.12,0a.29.29,0,0,0,0,.12V38A.35.35,0,0,0,102.21,38.08Z" style="fill:#414042"/><path d="M103.5,37.85a.18.18,0,0,1,.14-.06.2.2,0,0,1,.14.06.31.31,0,0,1,0,.17.28.28,0,0,1,0,.16.17.17,0,0,1-.14.07.16.16,0,0,1-.14-.07.23.23,0,0,1-.06-.16A.25.25,0,0,1,103.5,37.85Z" style="fill:#414042"/><polyline points="68.11 26.04 61.31 26.04 61.31 9.75 68.05 4.5 76.9 4.5 83.76 9.87 103.8 9.87 103.8 17.81 92.55 17.81 92.55 26.04 76.62 26.04" style="fill:#fff"/><rect x="61.31" y="27.57" width="42.49" height="2.29" style="fill:#fff"/><path d="M101.69,26a1.94,1.94,0,0,0,1-.19c1.1-.64,1.1-2.29,1.1-3.72a5,5,0,0,0-.39-2.5,1.69,1.69,0,0,0-1.4-.82H99.2V26h2.49M100.55,25V19.87h.88c.81,0,1,.68,1,2.38,0,2.1-.08,2.73-1.29,2.73ZM97.87,26V25H95.36V18.81H94V26Z" style="fill:#fff;fill-rule:evenodd"/><polygon points="61.31 26.04 61.31 9.75 68.05 4.5 76.9 4.5 83.76 9.87 103.8 9.87 103.8 17.81 92.55 17.81 92.55 26.04 76.62 26.04 76.62 12.78 83.24 17.59 83.24 10.05 76.84 4.96 68.16 4.96 61.71 10.05 61.71 17.82 68.11 12.84 68.11 26.04 61.31 26.04" style="fill:#f58345"/><rect x="61.31" y="27.57" width="42.49" height="2.29" style="fill:#f58345"/><path d="M101.69,26a1.94,1.94,0,0,0,1-.19c1.1-.64,1.1-2.29,1.1-3.72a5,5,0,0,0-.39-2.5,1.69,1.69,0,0,0-1.4-.82H99.2V26h2.49M100.55,25V19.87h.88c.81,0,1,.68,1,2.38,0,2.1-.08,2.73-1.29,2.73ZM97.87,26V25H95.36V18.81H94V26Z" style="fill:#f58345;fill-rule:evenodd"/></g></g></svg>