<svg id="49aac0c6-acea-42c8-bd73-6eaca1075d3e" data-name="Layer 2" xmlns="http://www.w3.org/2000/svg" xmlns:xlink="http://www.w3.org/1999/xlink" width="163.33" height="80" viewBox="0 0 163.33 80"><defs><clipPath id="93d73276-3dfa-4d06-bcfe-c88371854d27"><rect x="49.46" y="28.29" width="64.08" height="9.12" style="fill:none"/></clipPath><linearGradient id="1f5a32b4-d185-4ffe-9e7b-267a08227d87" x1="-511.5" y1="460.59" x2="-511.28" y2="460.59" gradientTransform="matrix(0, 225, 225, 0, -103551.87, 115095.11)" gradientUnits="userSpaceOnUse"><stop offset="0" stop-color="#c79731"/><stop offset="0.09" stop-color="#d6aa3c"/><stop offset="0.43" stop-color="#e3c86d"/><stop offset="0.62" stop-color="#d6aa3c"/><stop offset="0.8" stop-color="#c79731"/><stop offset="1" stop-color="#d6aa3c"/></linearGradient></defs><title>13</title><g id="d4186c8d-70c6-4e69-8b4a-6a757e50fafc" data-name="13"><path d="M62.42,47.78a2.93,2.93,0,0,1-.76-.45c0,.22-.1.34-.3.34h-1.6c-.23,0-.36-.11-.36-.31l-.36.26a1.84,1.84,0,0,1-.18.12.3.3,0,0,1-.45-.05c-.19-.31.05-.46.27-.61s.38-.27.48-.36c-.11-.11-.24-.18-.35-.28a.27.27,0,0,1-.08-.4.3.3,0,0,1,.4-.08,2.51,2.51,0,0,1,.5.35,2.66,2.66,0,0,0,.45-.52h-.76c-.17,0-.24-.13-.24-.32s.08-.32.25-.32h1c.26,0,.48.17.67.53a.73.73,0,0,0,.09.13,3.48,3.48,0,0,0,.48-.46.29.29,0,0,1,.43-.06.31.31,0,0,1,0,.44,3.94,3.94,0,0,1-.54.51.66.66,0,0,0,.19.18,2.27,2.27,0,0,0,.55-.51.26.26,0,0,1,.41-.07.29.29,0,0,1,0,.43,3.87,3.87,0,0,1-.54.53,2.34,2.34,0,0,0,.4.24l.22.12a.34.34,0,0,1,.11.45A.3.3,0,0,1,62.42,47.78Zm0,3.92c-1.08.14-2.3.22-3.67.31a.31.31,0,0,1-.36-.29.29.29,0,0,1,.32-.32s.32,0,.93-.06c0-.23-.08-.47-.14-.74s.05-.34.26-.41.32.05.39.28.1.56.17.8a7,7,0,0,0,.73,0,5,5,0,0,0,.2-.81.29.29,0,0,1,.38-.25c.19.06.33.13.3.34a.32.32,0,0,1,0,.09,2.7,2.7,0,0,1-.15.56c.3-.05.5,0,.6-.06a.3.3,0,0,1,.36.24A.31.31,0,0,1,62.4,51.7Zm-.31-1.59H59.38a.48.48,0,0,1-.55-.55v-1a.48.48,0,0,1,.55-.55h2.71a.49.49,0,0,1,.55.55v1A.5.5,0,0,1,62.09,50.11ZM62,48.76a.14.14,0,0,0-.16-.16H59.63c-.12,0-.17,0-.17.16v.58c0,.12,0,.17.17.17h2.21c.11,0,.16-.06.16-.17Zm-1.35-2.6a8.36,8.36,0,0,1-.8.86h1.52A8.26,8.26,0,0,1,60.65,46.16Zm3.45,5.6a.36.36,0,0,1-.38-.35.35.35,0,0,1,.38-.34c.65,0,1-.24.91-.87a2.26,2.26,0,0,0-.78-1.44.76.76,0,0,1-.25-.41,1.15,1.15,0,0,1,.05-.53c0-.14.13-.44.28-.88s.25-.74.31-.92.07-.28,0-.26h-.87a.14.14,0,0,0-.15.16v5.91a.32.32,0,0,1-.64,0V45.92c0-.53.24-.8.72-.8h1a.77.77,0,0,1,.65.26.69.69,0,0,1,0,.66c0,.08-.09.25-.19.5a9.1,9.1,0,0,0-.55,1.66,1.16,1.16,0,0,0,.18.2A2.73,2.73,0,0,1,65.67,50C65.71,51.19,65.19,51.79,64.1,51.76Z" style="fill:#231f20"/><path d="M68.59,50.54H67.28a.63.63,0,0,1-.61-.7v-4a.58.58,0,0,1,.61-.65h1.31a.59.59,0,0,1,.67.66v4A.66.66,0,0,1,68.59,50.54Zm0-4.51c0-.09,0-.16-.14-.16h-1c-.1,0-.15.05-.15.14v1.55h1.31Zm0,2.17H67.31v1.55a.14.14,0,0,0,.15.15h1a.13.13,0,0,0,.15-.15Zm3.93,4a3.8,3.8,0,0,1-1-.15.38.38,0,0,1-.3-.39.31.31,0,0,1,.31-.32l.12,0a2.92,2.92,0,0,0,.77.15c.19,0,.37,0,.37-.27V49.64H70.69c-.18,1.45-1.45,2.13-2.81,2.41h-.11a.35.35,0,0,1-.36-.34c0-.21.13-.3.32-.34A2.8,2.8,0,0,0,69.91,50a1.72,1.72,0,0,0,.14-.54V45.93a.62.62,0,0,1,.69-.68h2a.67.67,0,0,1,.75.69v5.41C73.48,52,73.1,52.17,72.55,52.17ZM72.81,46c0-.1-.06-.14-.15-.14H70.85c-.09,0-.13,0-.13.12v1.1h2.09Zm0,1.73H70.72V49h2.09Z" style="fill:#231f20"/><path d="M77.69,46.06h-1v.33h.84a.25.25,0,0,1,.28.27.26.26,0,0,1-.29.26h-.83v.21a5,5,0,0,0,.85-.15.31.31,0,0,1,.38.22c0,.17-.1.28-.3.32s-.61.12-.93.17v.15c0,.14-.11.2-.28.22s-.32-.05-.32-.18v-.1c-.4,0-.8.07-1.21.09a.28.28,0,1,1,0-.56c.2,0,.49,0,.84-.06l.39,0v-.29h-1a.27.27,0,0,1-.3-.26.28.28,0,0,1,.3-.27h1v-.33H74.93a.25.25,0,0,1-.26-.27.26.26,0,0,1,.28-.26h1.17v-.2c0-.18.12-.27.3-.28s.3.08.3.26v.22h1a.24.24,0,0,1,.27.26A.25.25,0,0,1,77.69,46.06Zm3.7,3.34h-.63v.32c0,.31-.14.46-.43.46H75.75a.25.25,0,0,1-.26-.27.25.25,0,0,1,.26-.26h4.3c.06,0,.1,0,.1-.14V49.4H74.93a.25.25,0,0,1-.28-.25.26.26,0,0,1,.28-.27h5.22v-.16c0-.08,0-.09-.08-.08H75.8a.26.26,0,0,1-.28-.27.24.24,0,0,1,.28-.25h4.52c.29,0,.44.17.44.49v.27h.63a.27.27,0,0,1,.27.27A.25.25,0,0,1,81.39,49.4Zm-6.07,2.48A.47.47,0,0,1,75,52a.3.3,0,0,1-.29-.39.43.43,0,0,1,.16-.25,4.16,4.16,0,0,0,.65-.76.34.34,0,0,1,.48-.14.35.35,0,0,1,0,.5A3.33,3.33,0,0,1,75.32,51.88Zm4.57,0A1.47,1.47,0,0,1,79,52H77.86c-.78,0-1.16-.25-1.16-.81v-.65c0-.19.14-.27.33-.29s.32.1.32.29v.55a.3.3,0,0,0,.1.26.84.84,0,0,0,.39.06H79a.89.89,0,0,0,.4-.06c.06,0,.1-.12.11-.27a.31.31,0,0,1,.32-.25c.18,0,.28.09.28.26A.9.9,0,0,1,79.89,51.85Zm-1-.66a.28.28,0,0,1-.42,0l-.33-.38a.29.29,0,0,1,0-.41c.15-.11.3-.13.42,0l.1.13a2,2,0,0,1,.21.27A.31.31,0,0,1,78.87,51.19Zm2.57-3.51h-1.3v.2c0,.15-.14.2-.31.2s-.29,0-.29-.2v-.2H78.35a.24.24,0,0,1-.28-.25.26.26,0,0,1,.28-.27h1.19v-.29h-.9a.26.26,0,1,1,0-.52h.9v-.29H78.45a.25.25,0,0,1-.25-.27.23.23,0,0,1,.25-.26h1.09v-.22c0-.17.11-.26.29-.26s.31.09.31.26v.22h1.19c.17,0,.25.09.26.26s-.09.27-.26.27H80.14v.29h.94c.16,0,.24.11.24.27a.26.26,0,0,1-.27.25h-.91v.29h1.3a.25.25,0,0,1,.27.27A.24.24,0,0,1,81.44,47.68Zm-.35,4.08c-.14-.15-.36-.4-.68-.7-.17-.16-.38-.35-.18-.6a.33.33,0,0,1,.47,0,8,8,0,0,1,.84.88.34.34,0,0,1,0,.48A.31.31,0,0,1,81.09,51.76Z" style="fill:#231f20"/><path d="M86.84,45.89H83.19a.32.32,0,0,1-.35-.31.31.31,0,0,1,.35-.3h3.65a.3.3,0,0,1,.33.3A.31.31,0,0,1,86.84,45.89Zm.08,5.94a.85.85,0,0,1-.53.12H83.6c-.45,0-.67-.16-.67-.56V49a.56.56,0,0,1,.64-.63h2.85c.43,0,.65.2.65.61v2.38A.66.66,0,0,1,86.92,51.83Zm-.2-4a.64.64,0,0,1-.44.12H83.63a.5.5,0,0,1-.56-.56v-.7c0-.38.24-.45.58-.45H86.3a.6.6,0,0,1,.42.11.56.56,0,0,1,.1.41v.63C86.82,47.6,86.8,47.76,86.72,47.83Zm-2,1.11h-1c-.11,0-.16.06-.16.17v.76h1.11Zm0,1.54H83.57v.73c0,.1.05.17.18.17h.93Zm1.52-3.55c0-.08,0-.11-.12-.11H83.84c-.11,0-.15,0-.15.13v.28c0,.1,0,.13.15.13h2.25c.08,0,.11,0,.11-.12Zm.23,2.18c0-.11-.05-.17-.16-.17h-1v.93h1.12Zm0,1.37H85.31v.9h1c.11,0,.15-.05.15-.17Zm1.43,0a.32.32,0,0,1-.31-.35V45.72c0-.19.11-.28.3-.3s.32.1.32.28v4.45A.32.32,0,0,1,87.86,50.5ZM88,51.86a.31.31,0,0,1-.17-.43.32.32,0,0,1,.41-.2,2.74,2.74,0,0,0,.63.16c.06,0,.09,0,.09-.13V45.44a.34.34,0,0,1,.32-.39c.21,0,.32.14.32.37v6C89.63,52.13,89.07,52.23,88,51.86Z" style="fill:#231f20"/><path d="M97.52,51.78H91.07a.33.33,0,0,1-.37-.36.34.34,0,0,1,.39-.35H94V49.19H91.77c-.25,0-.4-.12-.41-.35s.15-.36.4-.36H94V47.35a.33.33,0,0,1,.36-.35.33.33,0,0,1,.36.35v1.13h2.25a.36.36,0,1,1,0,.71H94.68v1.88h2.84c.25,0,.41.13.41.36S97.77,51.78,97.52,51.78Zm-.19-5h-6c-.25,0-.43-.12-.43-.35s.16-.37.41-.37H94v-.66c0-.25.12-.41.36-.41s.36.15.36.4v.67h2.63a.34.34,0,0,1,.35.36A.31.31,0,0,1,97.33,46.8Z" style="fill:#231f20"/><path d="M105.65,47.51h-1.13V48c0,.57-.16.68-.72.68h-.6v.55H105c.47,0,.69.15.69.49v1.65c0,.56-.57.74-1.69.58a.34.34,0,0,1-.31-.41c0-.21.21-.27.43-.25a2.05,2.05,0,0,0,.77,0c.06,0,.1-.05.11-.09a.6.6,0,0,0,0-.23v-.94c0-.16-.06-.21-.23-.21H103.2v2a.3.3,0,0,1-.33.33.3.3,0,0,1-.34-.33v-2h-1.29c-.16,0-.24.08-.24.29v1.59a.32.32,0,0,1-.31.35.31.31,0,0,1-.34-.32V49.83a.6.6,0,0,1,.16-.48,1,1,0,0,1,.57-.13h1.45v-.55h-.7a.87.87,0,0,1-.59-.15.75.75,0,0,1-.16-.57v-.44H99.93v1.88a5.56,5.56,0,0,1-.47,2.3.36.36,0,0,1-.46.21.33.33,0,0,1-.17-.45s0-.08.06-.14a4.15,4.15,0,0,0,.42-2V46.24c0-.48.22-.69.7-.69h2.11v-.32c0-.19.13-.3.34-.3s.34.11.34.3v.32h2.79a.31.31,0,0,1,0,.62h-1.07v.71h1.13a.31.31,0,0,1,.34.32A.3.3,0,0,1,105.65,47.51Zm-4.57-1.34h-1c-.14,0-.2.07-.2.21v.5h1.15Zm2.79,0h-2.15v.71h2.15Zm0,1.34h-2.15v.41c0,.12,0,.16.2.16h1.77c.11,0,.18,0,.18-.19Z" style="fill:#231f20"/><path d="M32.63,61.25V55.52h1.14l1.36,4.06c.12.38.22.66.27.85.07-.21.17-.52.31-.92l1.37-4h1v5.73h-.73V56.46L35.7,61.25H35l-1.66-4.88v4.88Z" style="fill:#231f20"/><path d="M39,60l.7-.11a.92.92,0,0,0,.32.64,1.14,1.14,0,0,0,.75.23,1.12,1.12,0,0,0,.72-.2.61.61,0,0,0,.23-.47.44.44,0,0,0-.2-.37,3.52,3.52,0,0,0-.72-.24,6.07,6.07,0,0,1-1.08-.34,1,1,0,0,1-.45-.39,1.07,1.07,0,0,1-.15-.56,1.13,1.13,0,0,1,.12-.51,1.1,1.1,0,0,1,.35-.39,1.58,1.58,0,0,1,.45-.21,2.35,2.35,0,0,1,.6-.08,2.25,2.25,0,0,1,.86.14,1.15,1.15,0,0,1,.55.38,1.65,1.65,0,0,1,.24.64l-.69.1a.73.73,0,0,0-.27-.5,1,1,0,0,0-.63-.18,1.15,1.15,0,0,0-.7.16.44.44,0,0,0-.12.62.71.71,0,0,0,.27.18l.62.18a10.35,10.35,0,0,1,1,.33,1.16,1.16,0,0,1,.47.37,1,1,0,0,1,.17.6,1.13,1.13,0,0,1-.21.66,1.29,1.29,0,0,1-.59.48,2.06,2.06,0,0,1-.88.17A2,2,0,0,1,39.49,61,1.61,1.61,0,0,1,39,60Z" style="fill:#231f20"/><path d="M43.43,61.25v-.8h.8v.8Z" style="fill:#231f20"/><path d="M49.08,61.25v-5H47.19v-.68h4.54v.68H49.84v5Z" style="fill:#231f20"/><path d="M51.29,61.25l2.2-5.73h.81l2.35,5.73h-.87l-.67-1.73H52.72l-.63,1.73Zm1.65-2.35h1.94l-.6-1.59c-.18-.48-.32-.88-.4-1.19a8.57,8.57,0,0,1-.31,1.1Z" style="fill:#231f20"/><path d="M57.24,61.25V55.52H58L61,60v-4.5h.72v5.73H61l-3-4.5v4.5Z" style="fill:#231f20"/><path d="M65.71,59v-.67h2.42v2.12a4.1,4.1,0,0,1-1.15.67,3.39,3.39,0,0,1-1.22.23A3.26,3.26,0,0,1,64.23,61a2.4,2.4,0,0,1-1-1.05,3.22,3.22,0,0,1-.35-1.53,3.49,3.49,0,0,1,.35-1.56,2.27,2.27,0,0,1,1-1.07,3.09,3.09,0,0,1,1.51-.35,2.92,2.92,0,0,1,1.13.2,1.83,1.83,0,0,1,.78.56,2.51,2.51,0,0,1,.44.93l-.69.19a2,2,0,0,0-.32-.69,1.34,1.34,0,0,0-.54-.4,2,2,0,0,0-.79-.15,2.41,2.41,0,0,0-.9.16,1.74,1.74,0,0,0-.61.42,1.78,1.78,0,0,0-.36.56,3,3,0,0,0-.22,1.16,2.89,2.89,0,0,0,.26,1.28,1.67,1.67,0,0,0,.77.76,2.34,2.34,0,0,0,1.07.25,2.45,2.45,0,0,0,1-.19,2.42,2.42,0,0,0,.71-.4V59Z" style="fill:#231f20"/><path d="M71.45,61.25V55.52h1.14L74,59.58l.27.85c.06-.21.17-.52.3-.92l1.38-4h1v5.73h-.73V56.46l-1.66,4.79h-.68l-1.66-4.88v4.88Z" style="fill:#231f20"/><path d="M78.05,56.33v-.81h.7v.81Zm0,4.92V57.1h.7v4.15Z" style="fill:#231f20"/><path d="M79.82,61.25V57.1h.64v.59A1.47,1.47,0,0,1,81.78,57a1.73,1.73,0,0,1,.69.13,1.09,1.09,0,0,1,.47.36,1.46,1.46,0,0,1,.22.52,4.65,4.65,0,0,1,0,.68v2.55h-.71V58.73a1.84,1.84,0,0,0-.08-.65.68.68,0,0,0-.29-.34,1,1,0,0,0-.49-.12,1.15,1.15,0,0,0-.78.28A1.43,1.43,0,0,0,80.53,59v2.27Z" style="fill:#231f20"/><path d="M84.15,61.59l.68.1a.67.67,0,0,0,.24.47,1.15,1.15,0,0,0,.71.19,1.28,1.28,0,0,0,.76-.19,1.07,1.07,0,0,0,.36-.55,5.38,5.38,0,0,0,0-.9,1.45,1.45,0,0,1-1.15.54,1.59,1.59,0,0,1-1.33-.62A2.38,2.38,0,0,1,84,59.15a2.79,2.79,0,0,1,.22-1.09A1.62,1.62,0,0,1,85.8,57,1.5,1.5,0,0,1,87,57.6v-.5h.65v3.59a3.25,3.25,0,0,1-.2,1.37,1.47,1.47,0,0,1-.62.64,2.26,2.26,0,0,1-1,.23,2,2,0,0,1-1.2-.33A1.1,1.1,0,0,1,84.15,61.59Zm.58-2.49a1.82,1.82,0,0,0,.32,1.19,1.06,1.06,0,0,0,1.63,0,2.21,2.21,0,0,0,0-2.31,1.06,1.06,0,0,0-.82-.39,1,1,0,0,0-.79.38A1.68,1.68,0,0,0,84.73,59.1Z" style="fill:#231f20"/><path d="M92,61.25l-1.52-5.73h.77l.87,3.76c.1.39.18.78.25,1.17.14-.61.23-1,.25-1.06l1.09-3.87h.92l.82,2.9a16.25,16.25,0,0,1,.44,2c.08-.36.17-.78.29-1.25l.9-3.68h.76l-1.57,5.73h-.73l-1.21-4.36c-.1-.37-.16-.59-.18-.68-.06.27-.11.49-.17.68l-1.21,4.36Z" style="fill:#231f20"/><path d="M100.91,60.74a2.54,2.54,0,0,1-.76.47,2.15,2.15,0,0,1-.77.13,1.5,1.5,0,0,1-1-.33,1.09,1.09,0,0,1-.37-.85,1.16,1.16,0,0,1,.14-.56,1.19,1.19,0,0,1,.36-.41A2,2,0,0,1,99,59a6.21,6.21,0,0,1,.62-.1,7,7,0,0,0,1.26-.24v-.19a.74.74,0,0,0-.2-.6,1.16,1.16,0,0,0-.8-.24,1.29,1.29,0,0,0-.73.17,1.08,1.08,0,0,0-.35.62l-.69-.1a1.86,1.86,0,0,1,.31-.71,1.36,1.36,0,0,1,.62-.42A3,3,0,0,1,100,57a2.6,2.6,0,0,1,.87.12,1.23,1.23,0,0,1,.49.32,1.06,1.06,0,0,1,.21.48,3.13,3.13,0,0,1,0,.64v.94a10.35,10.35,0,0,0,0,1.24,1.58,1.58,0,0,0,.18.5h-.73A1.37,1.37,0,0,1,100.91,60.74Zm-.06-1.57a5.38,5.38,0,0,1-1.15.26,3.31,3.31,0,0,0-.61.14.65.65,0,0,0-.28.23.57.57,0,0,0-.1.34.59.59,0,0,0,.21.46.91.91,0,0,0,.63.19,1.43,1.43,0,0,0,.72-.18,1.09,1.09,0,0,0,.47-.48,1.83,1.83,0,0,0,.11-.7Z" style="fill:#231f20"/><path d="M102.65,56.33v-.81h.71v.81Zm0,4.92V57.1h.71v4.15Z" style="fill:#231f20"/><path d="M104.61,61.25v-.8h.8v.8a1.36,1.36,0,0,1-.16.71,1,1,0,0,1-.49.42l-.2-.3a.63.63,0,0,0,.33-.29,1.2,1.2,0,0,0,.12-.54Z" style="fill:#231f20"/><path d="M108.94,61.25V55.52h1.14l1.35,4.06c.13.38.22.66.28.85.06-.21.16-.52.3-.92l1.37-4h1v5.73h-.73V56.46L112,61.25h-.69l-1.65-4.88v4.88Z" style="fill:#231f20"/><path d="M118.24,60.74a2.63,2.63,0,0,1-.75.47,2.19,2.19,0,0,1-.77.13,1.55,1.55,0,0,1-1.06-.33,1.11,1.11,0,0,1-.36-.85,1.06,1.06,0,0,1,.14-.56,1.19,1.19,0,0,1,.36-.41,2,2,0,0,1,.51-.23,5.34,5.34,0,0,1,.62-.1,6.71,6.71,0,0,0,1.25-.24,1.77,1.77,0,0,0,0-.19.77.77,0,0,0-.2-.6,1.18,1.18,0,0,0-.8-.24,1.27,1.27,0,0,0-.73.17,1,1,0,0,0-.35.62l-.69-.1a1.6,1.6,0,0,1,.31-.71,1.36,1.36,0,0,1,.62-.42,3,3,0,0,1,.94-.14,2.58,2.58,0,0,1,.86.12,1.16,1.16,0,0,1,.49.32,1,1,0,0,1,.22.48,4.11,4.11,0,0,1,0,.64v.94a10.35,10.35,0,0,0,0,1.24,1.58,1.58,0,0,0,.18.5h-.74A1.59,1.59,0,0,1,118.24,60.74Zm-.06-1.57a5.12,5.12,0,0,1-1.14.26,3.47,3.47,0,0,0-.62.14.62.62,0,0,0-.27.23.57.57,0,0,0-.1.34.59.59,0,0,0,.21.46.89.89,0,0,0,.62.19,1.46,1.46,0,0,0,.73-.18,1.07,1.07,0,0,0,.46-.48,1.65,1.65,0,0,0,.11-.7Z" style="fill:#231f20"/><path d="M120,61.25V57.1h.63v.59a1.47,1.47,0,0,1,1.32-.68,1.73,1.73,0,0,1,.69.13,1.09,1.09,0,0,1,.47.36,1.3,1.3,0,0,1,.22.52,4.65,4.65,0,0,1,0,.68v2.55h-.71V58.73a1.84,1.84,0,0,0-.08-.65.68.68,0,0,0-.29-.34,1,1,0,0,0-.49-.12,1.15,1.15,0,0,0-.78.28,1.43,1.43,0,0,0-.32,1.08v2.27Z" style="fill:#231f20"/><path d="M127.13,61.25v-.52a1.3,1.3,0,0,1-1.16.61,1.65,1.65,0,0,1-.92-.27,1.84,1.84,0,0,1-.64-.76,2.71,2.71,0,0,1-.23-1.13,3,3,0,0,1,.21-1.13,1.63,1.63,0,0,1,1.54-1,1.33,1.33,0,0,1,.67.16,1.28,1.28,0,0,1,.48.41V55.52h.7v5.73Zm-2.23-2.07a1.82,1.82,0,0,0,.34,1.19,1,1,0,0,0,1.58,0,1.77,1.77,0,0,0,.32-1.15,1.93,1.93,0,0,0-.33-1.25,1,1,0,0,0-.81-.4,1,1,0,0,0-.78.38A1.9,1.9,0,0,0,124.9,59.18Z" style="fill:#231f20"/><path d="M128.85,62.85l-.08-.66a1.69,1.69,0,0,0,.41.06.78.78,0,0,0,.37-.08.54.54,0,0,0,.23-.22,2.74,2.74,0,0,0,.22-.52,1.2,1.2,0,0,1,.06-.17l-1.57-4.16h.75l.87,2.4q.16.47.3,1a7.84,7.84,0,0,1,.29-.94l.88-2.42h.71l-1.58,4.22a6.76,6.76,0,0,1-.4.94,1.39,1.39,0,0,1-.43.51,1,1,0,0,1-.57.16A1.65,1.65,0,0,1,128.85,62.85Z" style="fill:#231f20"/><path d="M58.07,70.85l-2.22-5.73h.82l1.49,4.16c.12.34.22.65.3.94.09-.31.19-.62.31-.94l1.55-4.16h.77l-2.24,5.73Z" style="fill:#231f20"/><path d="M61.54,65.93v-.81h.7v.81Zm0,4.92V66.7h.7v4.15Z" style="fill:#231f20"/><path d="M66,69.33l.69.09a1.77,1.77,0,0,1-.58,1.12,1.67,1.67,0,0,1-1.14.4,1.77,1.77,0,0,1-1.37-.55,2.25,2.25,0,0,1-.52-1.6,2.81,2.81,0,0,1,.22-1.17,1.53,1.53,0,0,1,.68-.76,2,2,0,0,1,1-.25,1.68,1.68,0,0,1,1.1.34,1.61,1.61,0,0,1,.56,1L66,68a1.13,1.13,0,0,0-.34-.63.91.91,0,0,0-.6-.21,1.08,1.08,0,0,0-.87.38,1.79,1.79,0,0,0-.33,1.2A1.92,1.92,0,0,0,64.14,70a1.06,1.06,0,0,0,.84.38,1,1,0,0,0,.69-.26A1.29,1.29,0,0,0,66,69.33Z" style="fill:#231f20"/><path d="M70.15,69.51l.73.09a1.72,1.72,0,0,1-.64,1,1.86,1.86,0,0,1-1.18.35,1.89,1.89,0,0,1-1.45-.56,2.19,2.19,0,0,1-.53-1.57,2.26,2.26,0,0,1,.54-1.62,2,2,0,0,1,2.76,0,2.27,2.27,0,0,1,.52,1.6V69H67.81a1.56,1.56,0,0,0,.38,1,1.16,1.16,0,0,0,.87.37,1,1,0,0,0,.66-.21A1.28,1.28,0,0,0,70.15,69.51Zm-2.31-1.13h2.32a1.47,1.47,0,0,0-.26-.79,1.18,1.18,0,0,0-1.69-.08A1.34,1.34,0,0,0,67.84,68.38Z" style="fill:#231f20"/><path d="M71.49,69.13v-.71h2.16v.71Z" style="fill:#231f20"/><path d="M78.6,68.84l.76.19a2.52,2.52,0,0,1-.86,1.43A2.38,2.38,0,0,1,77,71a2.75,2.75,0,0,1-1.51-.38,2.35,2.35,0,0,1-.88-1.09,4,4,0,0,1-.3-1.54,3.38,3.38,0,0,1,.34-1.56,2.37,2.37,0,0,1,1-1A2.86,2.86,0,0,1,77,65a2.37,2.37,0,0,1,1.45.43,2.31,2.31,0,0,1,.81,1.23l-.74.18a1.82,1.82,0,0,0-.58-.91,1.53,1.53,0,0,0-1-.29,1.87,1.87,0,0,0-1.11.32,1.68,1.68,0,0,0-.62.85,3.43,3.43,0,0,0-.18,1.1,3.58,3.58,0,0,0,.21,1.28A1.57,1.57,0,0,0,76,70a1.88,1.88,0,0,0,1,.27A1.58,1.58,0,0,0,78,69.93,1.82,1.82,0,0,0,78.6,68.84Z" style="fill:#231f20"/><path d="M80.2,70.85V65.12h.71v2.06a1.57,1.57,0,0,1,1.24-.57,1.69,1.69,0,0,1,.8.18,1.08,1.08,0,0,1,.49.5,2.49,2.49,0,0,1,.14.93v2.63h-.7V68.22a1.11,1.11,0,0,0-.23-.77.85.85,0,0,0-.65-.24,1.12,1.12,0,0,0-.58.17.88.88,0,0,0-.4.43,2.29,2.29,0,0,0-.11.77v2.27Z" style="fill:#231f20"/><path d="M87.36,70.34a2.63,2.63,0,0,1-.75.47,2.2,2.2,0,0,1-.78.13,1.54,1.54,0,0,1-1-.33,1.12,1.12,0,0,1-.37-.85,1.16,1.16,0,0,1,.14-.56,1.19,1.19,0,0,1,.37-.4,1.78,1.78,0,0,1,.5-.24,6,6,0,0,1,.63-.1,7.08,7.08,0,0,0,1.25-.24c0-.1,0-.16,0-.19a.79.79,0,0,0-.2-.6,1.18,1.18,0,0,0-.8-.24,1.3,1.3,0,0,0-.74.17,1.18,1.18,0,0,0-.35.62l-.68-.09a1.7,1.7,0,0,1,.3-.72,1.4,1.4,0,0,1,.63-.42,3,3,0,0,1,.94-.14,2.58,2.58,0,0,1,.86.12,1.23,1.23,0,0,1,.49.32,1.07,1.07,0,0,1,.22.48,4.51,4.51,0,0,1,0,.64v.94a9.44,9.44,0,0,0,0,1.24,1.58,1.58,0,0,0,.18.5H87.5A1.59,1.59,0,0,1,87.36,70.34Zm-.06-1.57a5.24,5.24,0,0,1-1.15.26,3.31,3.31,0,0,0-.61.14.71.71,0,0,0-.28.23.65.65,0,0,0-.1.34.63.63,0,0,0,.22.47.94.94,0,0,0,.62.18,1.53,1.53,0,0,0,.72-.17,1.11,1.11,0,0,0,.47-.49,1.79,1.79,0,0,0,.11-.7Z" style="fill:#231f20"/><path d="M89.11,65.93v-.81h.7v.81Zm0,4.92V66.7h.7v4.15Z" style="fill:#231f20"/><path d="M90.87,70.85V66.7h.63v.63a1.92,1.92,0,0,1,.45-.58.75.75,0,0,1,.45-.14,1.4,1.4,0,0,1,.73.22l-.25.66a1,1,0,0,0-.51-.16.71.71,0,0,0-.42.14.77.77,0,0,0-.26.39,2.66,2.66,0,0,0-.12.82v2.17Z" style="fill:#231f20"/><path d="M93.54,70.85V66.7h.63v.58a1.63,1.63,0,0,1,.52-.49,1.5,1.5,0,0,1,.74-.18,1.36,1.36,0,0,1,.76.19,1,1,0,0,1,.41.53,1.5,1.5,0,0,1,1.28-.72,1.26,1.26,0,0,1,1,.34,1.47,1.47,0,0,1,.33,1v2.85h-.69V68.24a2.1,2.1,0,0,0-.07-.61.65.65,0,0,0-.25-.3.82.82,0,0,0-.42-.11,1,1,0,0,0-.73.29,1.28,1.28,0,0,0-.29.93v2.41H96v-2.7a1.22,1.22,0,0,0-.17-.7.69.69,0,0,0-.57-.23,1,1,0,0,0-.54.15.94.94,0,0,0-.37.46,2.48,2.48,0,0,0-.11.87v2.15Z" style="fill:#231f20"/><path d="M102.91,70.34a2.63,2.63,0,0,1-.75.47,2.19,2.19,0,0,1-.77.13,1.5,1.5,0,0,1-1-.33,1.09,1.09,0,0,1-.37-.85,1.16,1.16,0,0,1,.14-.56,1.07,1.07,0,0,1,.36-.4,1.71,1.71,0,0,1,.51-.24,5.34,5.34,0,0,1,.62-.1,7,7,0,0,0,1.26-.24V68a.79.79,0,0,0-.2-.6,1.18,1.18,0,0,0-.8-.24,1.27,1.27,0,0,0-.73.17,1.06,1.06,0,0,0-.35.62l-.69-.09a1.71,1.71,0,0,1,.31-.72,1.36,1.36,0,0,1,.62-.42,3,3,0,0,1,.94-.14,2.54,2.54,0,0,1,.86.12,1.1,1.1,0,0,1,.49.32,1,1,0,0,1,.22.48,3.13,3.13,0,0,1,0,.64v.94a10.24,10.24,0,0,0,0,1.24,1.58,1.58,0,0,0,.18.5h-.73A1.6,1.6,0,0,1,102.91,70.34Zm0-1.57a5.38,5.38,0,0,1-1.15.26,3.47,3.47,0,0,0-.62.14.62.62,0,0,0-.27.23.57.57,0,0,0-.1.34.62.62,0,0,0,.21.47,1,1,0,0,0,.63.18,1.53,1.53,0,0,0,.72-.17,1.09,1.09,0,0,0,.46-.49,1.6,1.6,0,0,0,.12-.7Z" style="fill:#231f20"/><path d="M104.66,70.85V66.7h.63v.59a1.49,1.49,0,0,1,1.32-.68,1.73,1.73,0,0,1,.69.13,1,1,0,0,1,.47.36,1.36,1.36,0,0,1,.22.52,3.54,3.54,0,0,1,0,.68v2.55h-.71V68.33a1.84,1.84,0,0,0-.08-.65.68.68,0,0,0-.29-.34,1,1,0,0,0-.49-.12,1.11,1.11,0,0,0-.77.28,1.39,1.39,0,0,0-.33,1.08v2.27Z" style="fill:#231f20"/><g style="clip-path:url(#93d73276-3dfa-4d06-bcfe-c88371854d27)"><rect x="54.7" y="7.95" width="53.6" height="49.79" transform="translate(-0.95 63.24) rotate(-42.18)" style="fill:url(#1f5a32b4-d185-4ffe-9e7b-267a08227d87)"/></g><path d="M57.85,21.49a33.56,33.56,0,0,0-2.3,2.66c0,.16-.09.24-.23.24s-.24-.16-.46-.5l-.34-.48c0-.07.09-.18.27-.31s.26-.24.26-.31l0-4.88H54.4a13.3,13.3,0,0,1-.64,4,10.07,10.07,0,0,1-2.09,3.36l-.26-.14A11.05,11.05,0,0,0,52.88,22a18.8,18.8,0,0,0,.42-4.14h-.86l-.64.1-.28-.54h2.65l0-4.31c0-.62,0-1.17,0-1.65,1.06.34,1.58.57,1.58.7a.32.32,0,0,1,0,.16c-.28.25-.42.4-.42.46l0,4.66H56l.39-.61a.16.16,0,0,1,.14-.06,2.68,2.68,0,0,1,.55.46,2.39,2.39,0,0,1,.49.53c0,.08,0,.11-.1.11H56.09v4.45a10.61,10.61,0,0,0,1.6-1.09Zm-5.62-7.92c1,1,1.54,1.77,1.53,2.28a1.16,1.16,0,0,1-.22.74c-.15.2-.29.3-.42.29H53l-.15-.19A8.2,8.2,0,0,0,52,13.74Zm4.07-.09c.82.43,1.23.7,1.23.79s-.07.14-.22.2a.69.69,0,0,0-.26.14,18.29,18.29,0,0,1-1.42,2.32l-.23-.09a19.12,19.12,0,0,0,.9-3.36M65.48,24a.09.09,0,0,1,0,.08c0,.09,0,.13-.08.13l-6.28,0v.86c0,.14-.16.28-.48.4l-.47.19c-.09,0-.14,0-.14-.13l.06-2.18,0-3.7-.07,0A11.88,11.88,0,0,1,56.53,21l-.26-.2A12.75,12.75,0,0,0,58.91,17H59l1,.69q.09.06.09.12c0,.07-.1.13-.29.18a1.41,1.41,0,0,0-.32.11l-.33.39h2.3a3.07,3.07,0,0,0-.81-1.23l.22-.2c1,.34,1.48.65,1.47.92a.53.53,0,0,1-.29.48l1.13,0,.46-.62a.14.14,0,0,1,.13-.05q.12,0,.6.45c.32.3.47.48.47.54s0,.11-.08.11H61.87v1.27h1l.51-.62a.16.16,0,0,1,.12,0q.12,0,.57.45c.31.3.46.47.46.52s0,.12-.1.12H61.86V22H63l.47-.64a.14.14,0,0,1,.11,0,2.09,2.09,0,0,1,.55.45c.31.31.46.48.46.53s0,.14-.09.14H61.87v1.4h1.66l.63-.74a.2.2,0,0,1,.14,0,.14.14,0,0,1,.11,0ZM59.41,12.76l.48-.61s0-.05.12-.05a.21.21,0,0,1,.14,0l.9.76a.16.16,0,0,1,.07.14,1,1,0,0,1-.23.24,1.3,1.3,0,0,0-.23.23V16.9a.25.25,0,0,1-.06.19,2,2,0,0,1-.47.21,3.52,3.52,0,0,1-.47.15c-.09,0-.13,0-.13-.13l0-1.51A15.28,15.28,0,0,0,57.84,17a.22.22,0,0,1-.22.15.11.11,0,0,1-.1-.05l-.64-.83,2.67-.85V13.19H57.9a6.73,6.73,0,0,0-.72.12l-.33-.55Zm-1.77.65c1,.44,1.55.83,1.55,1.18a.87.87,0,0,1-.19.5.5.5,0,0,1-.38.26c-.12,0-.23-.15-.32-.45a3.71,3.71,0,0,0-.78-1.33Zm3.11,10.38v-1.4H59.19v1.4Zm0-1.83V20.65H59.2V22Zm0-1.74V19H59.2v1.25Zm2.47-7.44.53-.68a.21.21,0,0,1,.15,0c.07,0,.27.15.58.44l.48.45c0,.06-.13.22-.4.49l0,.07V16l0,1.11a.27.27,0,0,1-.18.26l-.53.23a1.13,1.13,0,0,1-.34.09c-.08,0-.15-.05-.21-.16l0-1.68v-.22c-.37.23-.92.6-1.63,1.1a.19.19,0,0,1-.2.16s-.16-.11-.32-.35l-.39-.51a16.75,16.75,0,0,0,2.56-.86v-2H62.2a6.42,6.42,0,0,0-.67.1l-.36-.53Zm-2,.65a6.34,6.34,0,0,1,1.17.65.81.81,0,0,1,.38.57.89.89,0,0,1-.15.47.4.4,0,0,1-.35.24.28.28,0,0,1-.15,0,2.24,2.24,0,0,1-.23-.44,5.28,5.28,0,0,0-.26-.51L61.43,14a3.33,3.33,0,0,0-.31-.4Z" style="fill:#594a42"/><path d="M74.11,22.2l0,3c0,.22-.21.38-.65.49L73,25.8q-.15,0-.15-.12l0-1.52v-2l-4.9,0s-.36,0-.92.13l-.36-.63,6.2,0V20.52a.57.57,0,0,1-.35.16c-.15,0-.32-.23-.49-.67a2.91,2.91,0,0,0-.85-1.16l-.09,0a15.66,15.66,0,0,1-3,2.67l-.22-.21a10.3,10.3,0,0,0,2.92-4.27H68.71l-.84.11-.32-.61,5.92,0a1.69,1.69,0,0,1-.18-.56,5.85,5.85,0,0,0-.59-1.32l.19-.19c1.12.47,1.68.9,1.68,1.3a1.24,1.24,0,0,1-.49.78h3l.8-1a.16.16,0,0,1,.12,0c.12,0,.39.21.83.63s.65.67.65.74,0,.16-.12.16H76.21l.5.31c.26.16.39.27.39.35s-.12.14-.34.19a1,1,0,0,0-.38.12l-.55.72c1.65.29,2.47.74,2.47,1.36a1.31,1.31,0,0,1-.18.61.52.52,0,0,1-.46.34c-.14,0-.32-.17-.54-.5A4.79,4.79,0,0,0,75.6,19.1l-.07,0a15.79,15.79,0,0,1-1.74,1.56l.64.25a.2.2,0,0,1,.11.16q0,.09-.21.24a.45.45,0,0,0-.22.37l3.93,0,.66-.91a.25.25,0,0,1,.19-.09,3.24,3.24,0,0,1,.8.63q.69.63.69.75c0,.08,0,.12-.1.12Zm1-8.16H72l0,1.54c0,.15-.17.27-.52.36l-.51.14c-.1,0-.15,0-.15-.14V14l-2.75,0a3.23,3.23,0,0,0-.74.11L67,13.53h3.86v-1l0-.92a17.16,17.16,0,0,1,1.76.5.21.21,0,0,1,.07.16c0,.05-.1.16-.3.32s-.31.25-.31.28v.7h3.11l0-1.91c1.21.26,1.81.48,1.81.66s0,.13-.08.14-.22.14-.5.42l0,.7H78l.65-.94s.06,0,.12,0,.36.2.81.62a3.78,3.78,0,0,1,.68.71c0,.1,0,.15-.11.15l-3.81,0v1.47c0,.15-.19.29-.56.4l-.53.18c-.11,0-.17,0-.17-.13Zm.29,3.07h-4c.7.36,1.05.59,1.05.68s-.2.16-.58.25a5.91,5.91,0,0,1-.48.52l1,.32c.59.31.88.61.88.9a1.25,1.25,0,0,1-.35.68l.4.09a10.88,10.88,0,0,0,2.07-3.43" style="fill:#594a42"/><path d="M96.19,22.07l0,.21a2.17,2.17,0,0,0-1.66.94,8.06,8.06,0,0,1-3.86-3.6H87.54A12.65,12.65,0,0,1,82.07,24l-.18-.18A16.59,16.59,0,0,0,86,19.63H83.1a4.51,4.51,0,0,0-.73.09L82,19.15l3.55,0,0-4.39-1.64,0a3.57,3.57,0,0,0-.94.14l-.39-.57h3c0-.83,0-1.61,0-2.33.36.08.76.19,1.19.33a1.83,1.83,0,0,1,.69.28.22.22,0,0,1,0,.16,1.4,1.4,0,0,1-.26.21,1.82,1.82,0,0,0-.27.24v1.12l3.93,0c0-.68,0-1.48-.05-2.41q1.67.45,1.8.51c.09,0,.14.09.14.15s-.1.14-.3.27-.29.26-.29.4v1.08H93l.74-1a.2.2,0,0,1,.14,0,2.92,2.92,0,0,1,.79.6c.45.4.67.64.67.71a.3.3,0,0,1,0,.14l-.07,0H92.1V19.2h1.36l.82-.95a.2.2,0,0,1,.11,0,3.63,3.63,0,0,1,.81.58c.47.38.7.62.7.7a.12.12,0,0,1-.14.14H91.28a8.06,8.06,0,0,0,4,2.22Zm-3.66,2.8.66-.9a.17.17,0,0,1,.13,0,.54.54,0,0,1,.27.12l.71.54a6.72,6.72,0,0,1,.58.48.16.16,0,0,1,0,.12c0,.09,0,.14-.12.14l-10.46-.05a5.19,5.19,0,0,0-.92.16l-.42-.6,5.24,0v-2H86.41a2.66,2.66,0,0,0-1,.17l-.37-.6h3.25V21.2a9.37,9.37,0,0,0-.07-1.28l1,.25.65.2c.17.07.26.15.25.24s-.16.22-.48.48v1.38h1.05l.63-.74a.24.24,0,0,1,.17-.06c.1,0,.32.16.66.5a3.31,3.31,0,0,1,.51.55c0,.05,0,.09-.1.13a.29.29,0,0,1-.15.06l-2.75,0v2Zm-1.76-5.68V18l-3.94,0v1.15Zm0-1.6V16.34l-3.93,0v1.25Zm0-1.69V14.8H86.86v1.09Z" style="fill:#594a42"/><path d="M111.56,17.62l0,.24a2.1,2.1,0,0,0-1.78.93,11.28,11.28,0,0,1-5.25-5.16,19.31,19.31,0,0,1-3.83,4.14l5,.05.68-.79a.2.2,0,0,1,.15-.06.18.18,0,0,1,.11.05l1.26,1a.23.23,0,0,1,0,.15.14.14,0,0,1-.08.12h-3v2.2h2.73l.65-.91s.07-.06.15-.06a4.12,4.12,0,0,1,.74.61,4.09,4.09,0,0,1,.68.67c0,.11,0,.16-.14.16l-4.82,0,0,3.7h.84a25.16,25.16,0,0,0,1.4-3.39,3.65,3.65,0,0,1,.87.48c.43.3.65.47.65.52a.34.34,0,0,1,0,.1,1.43,1.43,0,0,1-.42.23.7.7,0,0,0-.44.35,11.7,11.7,0,0,1-1.51,1.72h2.36l.7-.9a.17.17,0,0,1,.12,0c.06,0,.2.11.42.31l.64.6c.22.2.33.32.33.37s0,.14-.11.14l-11.42-.05a5,5,0,0,0-1.12.16l-.38-.63,5.78,0,0-.08V20.91H100A8.1,8.1,0,0,0,99,21l-.3-.61,4.73,0V18.27h-2a3.39,3.39,0,0,0-.84.12l-.22-.41a13.47,13.47,0,0,1-3.16,1.73l-.14-.18L99.07,18A14.82,14.82,0,0,0,103.42,12c1.13.47,1.7.78,1.7.94s-.06.12-.18.18a1.21,1.21,0,0,0-.23.14,11.89,11.89,0,0,0,6.85,4.34m-11.25,3.7A11.08,11.08,0,0,1,102,22.4a1.19,1.19,0,0,1,.53.87,1.44,1.44,0,0,1-.33.8q-.33.45-.6.45c-.18,0-.34-.32-.48-.95a4.74,4.74,0,0,0-1-2.08Z" style="fill:#594a42"/><path d="M51.57,35.59c-.14-.06-.16-.1-.16-.28,0-.46,0-1,0-1.1s0-.22.1-.22.08.08.08.15a1.91,1.91,0,0,0,.08.42,1.15,1.15,0,0,0,1.19.85,1,1,0,0,0,1.12-1c0-.41-.12-.79-.81-1.33l-.39-.31a2.47,2.47,0,0,1-1.24-2c0-.92.77-1.58,1.93-1.58a4,4,0,0,1,1.12.15c.07,0,.11,0,.11.1s0,.35,0,1c0,.18,0,.25-.09.25s-.09-.05-.09-.15a1,1,0,0,0-.21-.55,1.07,1.07,0,0,0-.91-.41.88.88,0,0,0-1,.86c0,.38.19.68.89,1.2l.23.18c1,.76,1.37,1.34,1.37,2.13a1.68,1.68,0,0,1-.78,1.45,2.42,2.42,0,0,1-1.33.35,2.86,2.86,0,0,1-1.22-.22" style="fill:#fff"/><path d="M60.37,32.63s0,0,0-.05v-.15c0-1.08,0-1.34,0-1.56s-.08-.32-.31-.39l-.29,0c-.08,0-.12,0-.12-.08s0-.06.16-.06h2c.11,0,.16,0,.16.06s-.05.08-.13.08l-.22,0c-.19,0-.25.14-.27.39s0,.42,0,1.5v1.26c0,.65,0,1.21,0,1.52s.07.33.29.36a2.25,2.25,0,0,0,.38,0c.07,0,.12,0,.12.07s-.06.08-.15.08l-1.17,0-1,0c-.1,0-.15,0-.15-.08s0-.07.11-.07a1,1,0,0,0,.27,0c.15,0,.19-.16.22-.37s0-.85,0-1.5V33.1a0,0,0,0,0,0,0H57.59s-.05,0-.05,0v.54a14.44,14.44,0,0,0,.05,1.51c0,.2.06.33.28.36a2.34,2.34,0,0,0,.38,0c.08,0,.11,0,.11.07s-.06.08-.15.08l-1.19,0-1,0c-.09,0-.14,0-.14-.08s0-.07.12-.07a.93.93,0,0,0,.26,0c.15,0,.19-.16.21-.37a15,15,0,0,0,0-1.51V32.37c0-1.08,0-1.28,0-1.5s-.08-.32-.32-.39l-.29,0c-.08,0-.13,0-.13-.08s.06-.06.16-.06H58c.1,0,.15,0,.15.06s0,.08-.13.08l-.21,0c-.2,0-.26.14-.28.39s0,.48,0,1.56v.15a0,0,0,0,0,.05.05Z" style="fill:#fff"/><path d="M63.81,32.37c0-1.08,0-1.28,0-1.5s-.09-.33-.25-.38a1.24,1.24,0,0,0-.27,0c-.08,0-.12,0-.12-.09s.06-.05.18-.05h1.93c.09,0,.15,0,.15.05s0,.09-.12.09l-.22,0c-.2,0-.25.14-.27.39s0,.42,0,1.5v1.26c0,.68,0,1.25,0,1.55s.07.3.29.33a2.31,2.31,0,0,0,.37,0c.09,0,.12,0,.12.07s-.06.08-.14.08c-.49,0-1,0-1.19,0l-1,0c-.09,0-.14,0-.14-.08s0-.07.12-.07a1,1,0,0,0,.26,0c.15,0,.19-.13.21-.34a15.23,15.23,0,0,0,0-1.54Z" style="fill:#fff"/><path d="M67.67,34.72c0,.55.11.72.25.77a1.28,1.28,0,0,0,.38,0c.09,0,.13,0,.13.07s-.07.08-.17.08l-1,0-.8,0c-.1,0-.16,0-.16-.08s.05-.07.11-.07a1.87,1.87,0,0,0,.34,0c.19,0,.22-.25.22-.86l.07-4.22c0-.14,0-.24.13-.24s.19.11.31.23,1.2,1.22,2.27,2.27c.5.49,1.48,1.5,1.59,1.6h0l-.07-3.16c0-.44-.08-.56-.25-.63a1.33,1.33,0,0,0-.39,0c-.09,0-.12,0-.12-.08s.08-.06.19-.06h1.65c.1,0,.17,0,.17.06s0,.08-.13.08a.9.9,0,0,0-.22,0c-.2.06-.26.19-.27.59l-.08,4.48c0,.16-.06.22-.12.22a.42.42,0,0,1-.3-.15c-.46-.42-1.38-1.3-2.15-2S67.75,32,67.61,31.82h0Z" style="fill:#fff"/><path d="M74.24,32.37c0-1.08,0-1.28,0-1.5s-.08-.32-.32-.39l-.29,0c-.07,0-.12,0-.12-.08s0-.06.16-.06h1.06c.24,0,1.87,0,2,0l.31,0,.12,0s0,0,0,.06a2.33,2.33,0,0,0-.06.46c0,.08,0,.39,0,.47s0,.12-.09.12-.06,0-.06-.09a.54.54,0,0,0,0-.26c0-.13-.11-.23-.48-.26-.13,0-1,0-1.15,0s0,0,0,.06v1.76s0,.07,0,.07h1.28c.18,0,.29,0,.35-.11s.09-.09.12-.09a.07.07,0,0,1,.06.07s0,.16-.06.52c0,.14,0,.43,0,.48s0,.15-.08.15-.06,0-.06-.05a2.6,2.6,0,0,0,0-.26c0-.15-.13-.25-.41-.28-.13,0-1,0-1.15,0s0,0,0,.07v.57c0,.24,0,.85,0,1.05,0,.49.24.6,1,.6a2,2,0,0,0,.69-.09c.19-.09.27-.24.32-.53,0-.08,0-.11.08-.11s.07.09.07.17a4.89,4.89,0,0,1-.1.78c0,.19-.12.19-.39.19-.55,0-1,0-1.36,0l-.85,0h-.42l-.51,0c-.09,0-.14,0-.14-.08s0-.07.12-.07a.93.93,0,0,0,.26,0c.15,0,.19-.16.22-.37s0-.86,0-1.51Z" style="fill:#fff"/><path d="M81,30.19a1.24,1.24,0,0,0-.31-.59.76.76,0,0,0-.34-.08c-.08,0-.13,0-.13-.07s.07-.08.18-.08c.44,0,.9,0,1,0s.44,0,.93,0c.12,0,.18,0,.18.08s-.07.07-.16.07a.34.34,0,0,0-.2,0c-.08,0-.1.09-.1.18a6,6,0,0,0,.19.77c.14.55.92,3.08,1.07,3.55h0l1.62-4.35c.09-.24.15-.31.21-.31s.14.13.24.4L87.1,34h0c.15-.56.82-2.76,1.11-3.74a1.7,1.7,0,0,0,.08-.49c0-.13-.07-.25-.4-.25-.08,0-.14,0-.14-.07s.07-.08.19-.08c.45,0,.8,0,.87,0s.42,0,.7,0c.09,0,.15,0,.15.07s0,.08-.12.08a1,1,0,0,0-.29,0c-.2.08-.3.41-.47.89-.39,1.05-1.26,3.71-1.67,5-.09.3-.14.4-.25.4s-.13-.1-.25-.41L84.9,31.21h0c-.16.43-1.27,3.39-1.63,4.15-.16.35-.2.45-.3.45s-.12-.09-.19-.31Z" style="fill:#fff"/><path d="M89.83,33a2.81,2.81,0,0,1,3.08-2.78c1.86,0,3,1,3,2.65a2.87,2.87,0,0,1-3.08,2.91,2.77,2.77,0,0,1-3-2.78m5,.13a2.26,2.26,0,0,0-2.13-2.54c-.82,0-1.78.44-1.78,2.19a2.33,2.33,0,0,0,2.22,2.62c.52,0,1.69-.24,1.69-2.27" style="fill:#fff"/><path d="M97.3,32.37c0-1.08,0-1.28,0-1.5a.36.36,0,0,0-.32-.39l-.29,0c-.08,0-.13,0-.13-.08s.06-.06.17-.06h2.15a2.56,2.56,0,0,1,1.39.3,1.23,1.23,0,0,1,.52,1c0,.53-.3,1-1,1.58.65.8,1.17,1.44,1.61,1.88a1.35,1.35,0,0,0,.79.47.58.58,0,0,0,.18,0,.09.09,0,0,1,.09.07c0,.06-.05.08-.15.08h-.7a1.58,1.58,0,0,1-.8-.14,3.37,3.37,0,0,1-1-1c-.29-.38-.6-.86-.7-1a.17.17,0,0,0-.13-.05h-.66a.05.05,0,0,0-.06.06v.1c0,.66,0,1.21,0,1.51s.06.34.29.37a2.38,2.38,0,0,0,.36,0,.08.08,0,0,1,.09.07s-.06.08-.15.08c-.43,0-1,0-1.15,0l-.9,0c-.09,0-.14,0-.14-.08s0-.07.12-.07a.85.85,0,0,0,.25,0c.15,0,.2-.16.22-.37a15,15,0,0,0,0-1.51Zm.93.55a.12.12,0,0,0,.07.13,2,2,0,0,0,.56.07.76.76,0,0,0,.52-.12A1.22,1.22,0,0,0,99.85,32a1.12,1.12,0,0,0-1.12-1.27,2.17,2.17,0,0,0-.43,0,.09.09,0,0,0-.07.1Z" style="fill:#fff"/><path d="M104,32.69h0c.26-.27,1.33-1.32,1.54-1.56s.37-.4.37-.53,0-.13-.1-.14-.1,0-.1-.08,0-.06.12-.06h1.62c.07,0,.12,0,.12.06s0,.08-.1.08a1.41,1.41,0,0,0-.43.08,2.33,2.33,0,0,0-.78.53c-.23.22-1.33,1.25-1.55,1.51.26.34,1.7,1.84,2,2.11a3.63,3.63,0,0,0,1,.76,1.09,1.09,0,0,0,.45.09c.06,0,.1,0,.1.07s0,.08-.17.08h-.65a3.86,3.86,0,0,1-.51,0,1.5,1.5,0,0,1-1-.46c-.32-.27-1.73-1.91-1.89-2.13L104,33h0v.65c0,.65,0,1.21,0,1.52s.08.33.27.36a2.16,2.16,0,0,0,.35,0c.06,0,.11,0,.11.07s-.06.08-.15.08c-.41,0-.93,0-1.12,0l-.92,0c-.1,0-.15,0-.15-.08s0-.07.12-.07a.93.93,0,0,0,.26,0c.15,0,.19-.16.22-.37s0-.86,0-1.51V32.37c0-1.08,0-1.28,0-1.5s-.08-.32-.32-.39l-.29,0c-.07,0-.12,0-.12-.08s.06-.06.16-.06h2c.1,0,.15,0,.15.06s0,.08-.1.08l-.2,0c-.2,0-.26.14-.28.39s0,.42,0,1.5Z" style="fill:#fff"/><path d="M108.4,35.6c-.12-.05-.14-.09-.14-.24,0-.39,0-.83,0-1s0-.18.09-.18.07.06.07.11a1.33,1.33,0,0,0,.07.37,1.13,1.13,0,0,0,1.17.7.92.92,0,0,0,1-.9c0-.31-.07-.62-.73-1l-.42-.25c-.87-.51-1.16-1-1.16-1.62,0-.86.84-1.42,1.86-1.42a4.37,4.37,0,0,1,1,.11c.07,0,.1,0,.1.09s0,.3,0,.86c0,.15,0,.22-.09.22s-.08,0-.08-.12a.78.78,0,0,0-.19-.47,1,1,0,0,0-.82-.34c-.53,0-1,.28-1,.77,0,.31.11.56.78.93l.3.17c1,.53,1.27,1.08,1.27,1.72a1.51,1.51,0,0,1-.74,1.33,2.14,2.14,0,0,1-1.23.29,3.17,3.17,0,0,1-1.19-.18" style="fill:#fff"/></g></svg>