<svg id="08cd855e-08d6-46d5-ba2f-b65db6e7337d" data-name="Layer 2" xmlns="http://www.w3.org/2000/svg" width="163.33" height="68" viewBox="0 0 163.33 68"><title>15</title><g id="b9635a60-7f61-4b9e-b4c8-eb949df35c03" data-name="15"><path d="M52.3,14.89a9,9,0,0,1,9,9H56.78a4.48,4.48,0,0,0-9,0H43.34A9,9,0,0,1,52.3,14.89Z" style="fill:#a72c32;fill-rule:evenodd"/><polygon points="52.3 29.29 48.81 33.78 43.3 33.78 47.09 29.3 43.3 29.3 43.31 24.9 61.29 24.9 61.29 29.3 57.51 29.3 61.29 33.78 55.79 33.78 52.3 29.29" style="fill:#a72c32;fill-rule:evenodd"/><path d="M104.13,26.46a3,3,0,0,1,.94.14,1.7,1.7,0,0,1,.68.42,2.25,2.25,0,0,1,.42.51.9.9,0,0,1,.14.43.58.58,0,0,1,0,.19.57.57,0,0,1-.11.16h0a.34.34,0,0,1-.16.1.56.56,0,0,1-.23,0,1.1,1.1,0,0,1-.33-.08,4.94,4.94,0,0,1-.51-.23,2.67,2.67,0,0,1-.48-.32,1.43,1.43,0,0,1-.29-.33,2.2,2.2,0,0,0-.19-.3,1.08,1.08,0,0,0-.22-.21.89.89,0,0,1-.17-.16.22.22,0,0,1-.06-.13c0-.07,0-.13.15-.17a1.28,1.28,0,0,1,.45-.06Zm-4,1.22a1.72,1.72,0,0,0,.27.27,2.38,2.38,0,0,0,.39.25,3.17,3.17,0,0,0,.4.18,1,1,0,0,0,.29.07.36.36,0,0,0,.19-.05.23.23,0,0,0,.1-.12c0-.06,0-.19,0-.4s0-.5,0-.86,0-.69,0-1a5,5,0,0,0-.1-.76c-.24.06-.57.15-1,.28s-.86.29-1.4.5a1.87,1.87,0,0,1,.09.39,3.8,3.8,0,0,1,0,.52l.27-.1.16,0h.1l.08,0,.4-.13.23-.05h.15s0,.05-.07.1l-.21.15-.24.16a.92.92,0,0,0-.14.14.34.34,0,0,0,0,.16.88.88,0,0,0,0,.23Zm2.51-3.26a.59.59,0,0,0,0-.14.47.47,0,0,0-.09-.12.94.94,0,0,0,.33-.17,1.05,1.05,0,0,0,.24-.27h0a.34.34,0,0,1,.14-.11,1.7,1.7,0,0,1,.29-.12l.33-.08.25,0h.2l.14,0,.12,0h.12a.4.4,0,0,0,.26-.08.29.29,0,0,0,.08-.22.57.57,0,0,0-.05-.24,1.31,1.31,0,0,0-.14-.3.73.73,0,0,0-.31-.29,2.64,2.64,0,0,0-.57-.21l.19-.27.17-.2a.72.72,0,0,0,.11-.15.3.3,0,0,0,0-.12.52.52,0,0,0-.19-.38,1.94,1.94,0,0,0-.57-.35.51.51,0,0,1,.18-.26,2.3,2.3,0,0,1,.42-.3h0a2.9,2.9,0,0,0,.46-.29c.11-.08.16-.14.16-.19a.28.28,0,0,0-.06-.13l-.18-.24-.22-.25a1,1,0,0,0-.18-.14.64.64,0,0,0-.22-.06,1.53,1.53,0,0,0-.31,0,.57.57,0,0,1,.17-.21,2.8,2.8,0,0,1,.38-.3,2.57,2.57,0,0,0,.37-.33.45.45,0,0,0,.12-.27.36.36,0,0,0-.18-.27,2.62,2.62,0,0,0-.54-.28.77.77,0,0,1,0-.15.35.35,0,0,1,.06-.14.69.69,0,0,0,.05-.13.52.52,0,0,0,0-.11.6.6,0,0,0-.13-.37,1.1,1.1,0,0,0-.38-.3,2.41,2.41,0,0,0-.59-.21,4,4,0,0,0-.73-.07l-.6,0c-.14,0-.2,0-.2.06s0,.06.08.11l.26.17a5.37,5.37,0,0,1,.64.45c.15.12.22.22.22.28a.34.34,0,0,1-.07.19,1.05,1.05,0,0,1-.22.17h0a1.72,1.72,0,0,0-.28.18c-.07,0-.1.08-.1.11l0,0,.06,0h0a.23.23,0,0,1,.13,0s0,.06,0,.1a6.1,6.1,0,0,0-1.15.36q-.39.18-.39.36c0,.12.11.23.33.34a4.35,4.35,0,0,0,1,.32,1.43,1.43,0,0,1-.16.24.79.79,0,0,1-.17.19h0a.72.72,0,0,1-.19.13.58.58,0,0,1-.18,0h-.15l-.1,0h0a.19.19,0,0,0-.07.06.81.81,0,0,0-.06.13,1,1,0,0,0,0,.23,3.79,3.79,0,0,0,0,.38.77.77,0,0,0,.07.35.24.24,0,0,0,.21.12.45.45,0,0,0,.16,0,2.61,2.61,0,0,0,.29-.12,1.42,1.42,0,0,1,.33-.11,1,1,0,0,1,.29,0,.13.13,0,0,1,0,.06.19.19,0,0,1,0,.08.25.25,0,0,1,0,.11l-.16.15-.22.16a1.09,1.09,0,0,1-.23.09,1,1,0,0,0-.2.08.26.26,0,0,0-.11.09.26.26,0,0,0,0,.14,1.84,1.84,0,0,0,0,.26.88.88,0,0,0,0,.26.28.28,0,0,0,.1.15.49.49,0,0,0,.22.06,1.68,1.68,0,0,0,.4,0l0,.06a.28.28,0,0,1,0,.09l-.48.2-.31.16a.37.37,0,0,0-.17.2.65.65,0,0,0-.06.29,2.36,2.36,0,0,0,0,.3.58.58,0,0,0,.06.21l.11.16a1.53,1.53,0,0,0,.18.18.5.5,0,0,0-.13.11.16.16,0,0,0,0,.11.83.83,0,0,0,0,.13,1.8,1.8,0,0,0,0,.19l-1,.18c-.26.05-.46.09-.59.13a3.72,3.72,0,0,0,.11-.47c0-.21.07-.47.11-.77a6.86,6.86,0,0,1,.16-1q.1-.49.27-1a8.59,8.59,0,0,0,.24-1,6.56,6.56,0,0,0,.08-1,.28.28,0,0,0,0-.1s0,0,0,0a.85.85,0,0,0-.11.25c-.06.17-.14.42-.25.76l-.33,1h0a8.82,8.82,0,0,1-.23.92,6.39,6.39,0,0,1-.28.72,5.27,5.27,0,0,1,0-.78c0-.28.07-.6.13-.94s.12-.61.17-.82a1.59,1.59,0,0,1,.12-.41A1.37,1.37,0,0,0,100,20a2.3,2.3,0,0,0,0-.28,1.08,1.08,0,0,0-.05-.34,3.12,3.12,0,0,0-.16-.41l.28-.3c.09-.11.18-.22.27-.35a2.91,2.91,0,0,1,.26-.33,2.53,2.53,0,0,1,.26-.23h0a1.14,1.14,0,0,0,.39-.4.93.93,0,0,0,.13-.5,1.1,1.1,0,0,0-.11-.49A1.08,1.08,0,0,0,101,16a2.69,2.69,0,0,0-.48-.24,1.81,1.81,0,0,0-.51-.08.48.48,0,0,0-.39.17.79.79,0,0,0-.13.5,3.08,3.08,0,0,1,0,.33,1.14,1.14,0,0,1,0,.23,2.42,2.42,0,0,1-.22.34c-.11.16-.28.38-.49.64l-.63.82c-.2.27-.41.56-.61.85a9.08,9.08,0,0,1-.57.75,4.91,4.91,0,0,1-.49.51,3.35,3.35,0,0,0-.33.33.32.32,0,0,0-.11.17s0,0,0,0H96a1.65,1.65,0,0,0,.46-.08,4.33,4.33,0,0,0,.57-.25c.2-.11.47-.28.8-.49s.71-.47,1.16-.79a.18.18,0,0,1,.09.1.53.53,0,0,1,0,.19,3.68,3.68,0,0,1,0,.45c0,.21-.09.5-.15.84s-.11.68-.15,1a8,8,0,0,0,0,.8,3.93,3.93,0,0,0,0,.63,2,2,0,0,0,.13.49,1.59,1.59,0,0,0,.23.39,2.5,2.5,0,0,0,.36.37l-1,.32-1.08.36-.9.32c-.22.09-.38.15-.45.19l-.19.09-.1,0s0,0-.05,0a.06.06,0,0,1,0-.06s0-.06,0-.07a.15.15,0,0,0-.1,0,.27.27,0,0,0-.12,0,.43.43,0,0,0-.11.12.46.46,0,0,0-.07.16.4.4,0,0,0,0,.15.93.93,0,0,0,0,.19l.12.25a1,1,0,0,0,.16.21.31.31,0,0,0,.2.07,1.6,1.6,0,0,0,.36-.07l.67-.24h0l1.93-.73a.57.57,0,0,1,0,.14c0,.06,0,.12,0,.19a.91.91,0,0,1-.08.29,4.45,4.45,0,0,1-.22.44,2.45,2.45,0,0,0-.23.5,1.56,1.56,0,0,0-.07.46,1.42,1.42,0,0,0,0,.42,1.06,1.06,0,0,0,.16.34.81.81,0,0,0,.22.23.46.46,0,0,0,.25.08.28.28,0,0,0,.21-.07.37.37,0,0,0,.09-.22,1.61,1.61,0,0,1,.09-.29,1.51,1.51,0,0,1,.2-.26,1.8,1.8,0,0,0,.25-.29,3.27,3.27,0,0,0,.25-.36,5.22,5.22,0,0,0,.45.65,2.55,2.55,0,0,0,.45.43,2.68,2.68,0,0,1,.39.35h0a1.86,1.86,0,0,1,.28.41,1,1,0,0,0,.26.32.48.48,0,0,0,.3.11.41.41,0,0,0,.31-.19,2,2,0,0,0,.25-.58,5.3,5.3,0,0,0,.18-1c0-.41,0-.9,0-1.47,0-.24,0-.51,0-.81s0-.61,0-1l1.15,0h1.14c.38,0,.73,0,1,0a6.94,6.94,0,0,1,.86.11l.15,0h.17a.26.26,0,0,0,.17-.05.37.37,0,0,0,.14-.14,1,1,0,0,0,.09-.17.39.39,0,0,0,0-.14.4.4,0,0,0-.14-.28,1.92,1.92,0,0,0-.44-.24,5.14,5.14,0,0,0-1.67-.22,10.54,10.54,0,0,0-1.26.1C103.77,24.2,103.23,24.29,102.62,24.42Z" style="fill:#231f20;fill-rule:evenodd"/><path d="M82.38,18.85l-.26.17a.37.37,0,0,1-.15.06H81.9s0,0,0,0,0-.08.13-.16l.4-.32.45-.35.31-.25a1,1,0,0,0,.18-.2.41.41,0,0,0,.05-.17.86.86,0,0,0-.21-.43,1.36,1.36,0,0,1-.17-.24.29.29,0,0,1,0-.16s0-.07.11-.09a1.46,1.46,0,0,1,.34,0,4.47,4.47,0,0,1,.86.07,2.78,2.78,0,0,1,.67.21,1.72,1.72,0,0,1,.47.34,1.11,1.11,0,0,1,.28.43,2.57,2.57,0,0,1,.14.42.88.88,0,0,1,0,.29.3.3,0,0,1,0,.18.15.15,0,0,1-.13.06l-.23,0-.36-.06-.36-.06a1.2,1.2,0,0,0-.24,0,.47.47,0,0,0-.17,0,.38.38,0,0,0-.13.06.42.42,0,0,1-.15.07l-.24.07-.29,0h-.33a1.26,1.26,0,0,0-.3,0,.38.38,0,0,0-.18.07.42.42,0,0,1-.13.07.27.27,0,0,1-.12,0h0l0,0a.08.08,0,0,1,0-.05h0v0Zm7,5.15c0-.06,0-.12,0-.18s0-.13,0-.2,0-.16,0-.26,0-.2,0-.32a5.83,5.83,0,0,0-.82.37,2.59,2.59,0,0,0-.56.38v.47a5.28,5.28,0,0,1,.75-.2,3.81,3.81,0,0,1,.64-.06Zm.13-2.7-.52.14a1.92,1.92,0,0,0-.31.14l-.22.14-.28.15-.08.31a2.4,2.4,0,0,1,.78.05,1.16,1.16,0,0,1,.53.27,3.88,3.88,0,0,0,.06-.48c0-.2,0-.44,0-.72Zm0-1.1,0-1.09-.63.26-.62.31s0,.06,0,.1v.1a.41.41,0,0,1,0,.11.5.5,0,0,1,0,.12l.32,0h.34a1.87,1.87,0,0,1,.34,0,1,1,0,0,1,.29.1Zm1,3.67c.07-.49.13-.94.17-1.35s0-.77,0-1.1h0l-.06-2h0c0-.15,0-.28,0-.39a1.88,1.88,0,0,1,0-.28c.48-.17.73-.32.73-.44a1.49,1.49,0,0,0,0-.21.84.84,0,0,0,0-.17.27.27,0,0,0-.09-.12.33.33,0,0,0-.15,0H90.7c0-.13,0-.25,0-.38s0-.25,0-.36a2.61,2.61,0,0,0-.08-.69.82.82,0,0,0-.25-.41,1,1,0,0,0-.39-.2,1.55,1.55,0,0,0-.5-.07l-.27,0-.23.07-.16.09a.16.16,0,0,0,0,.1c0,.2,0,.35,0,.45s0,.15,0,.15,0,0,0-.05a.64.64,0,0,0,.06-.14l.07-.14s0,0,0,0,.08,0,.12.09a1.23,1.23,0,0,1,.11.27,2.49,2.49,0,0,1,.09.37,2.55,2.55,0,0,1,0,.39v.38c0,.12,0,.24,0,.36l-.73.23-.55.16A3.07,3.07,0,0,0,88,18a1.3,1.3,0,0,0-.21-.35,1.21,1.21,0,0,0-.23-.19.37.37,0,0,0-.18-.07.22.22,0,0,0-.17.11,1.43,1.43,0,0,0-.14.32,2.27,2.27,0,0,0-.08.51q0,.3,0,.69a2,2,0,0,1-.46.24.87.87,0,0,1-.36.08H86s-.09,0-.11,0a.14.14,0,0,0-.05.08v0a.29.29,0,0,0,.06.16,2,2,0,0,0,.16.19,1,1,0,0,0,.33.19,3.8,3.8,0,0,0,.56.17c0,.21,0,.45,0,.69s0,.52,0,.8,0,.59,0,.92.06.68.1,1.06a1.87,1.87,0,0,0,.14.63l.13.23L86,24.89c-.35.11-.6.2-.74.26l-.36.13-.2,0-.1,0s0,0-.06,0a.12.12,0,0,0-.11-.08h0l-.21,0a1.86,1.86,0,0,0,0-.3c0-.12,0-.27,0-.43s0-.31,0-.43,0-.2,0-.27a1.27,1.27,0,0,1,.11-.27c0-.11.12-.24.21-.4s.17-.29.25-.41.16-.23.23-.33.12-.17.16-.23a.39.39,0,0,0,0-.14s0,0,0,0h0a.36.36,0,0,0-.19,0,.34.34,0,0,0-.12.12.53.53,0,0,1-.17.19.33.33,0,0,1-.19.06A11.6,11.6,0,0,0,85,21.22a2.8,2.8,0,0,0,.13-.73,1.51,1.51,0,0,0-.08-.48,1,1,0,0,0-.24-.38,1.11,1.11,0,0,0-.33-.26.94.94,0,0,0-.36-.08l-.32,0a.93.93,0,0,0-.22.08.66.66,0,0,0-.16.17,2,2,0,0,0-.16.3,1.94,1.94,0,0,1-.39.54,3.54,3.54,0,0,1-.66.49,4.08,4.08,0,0,1-.73.36,1.88,1.88,0,0,1-.62.12.7.7,0,0,1-.25-.05.94.94,0,0,1-.22-.12,1.19,1.19,0,0,1-.15-.18.37.37,0,0,1,0-.17.53.53,0,0,0,0-.14s0,0,0,0,0,0,0,0a.67.67,0,0,0-.06.12A.78.78,0,0,0,80,21a1,1,0,0,0,0,.5c0,.11.09.25.16.4a1.08,1.08,0,0,0,.32.43,2.33,2.33,0,0,0,.56.35,5.19,5.19,0,0,0,.57.24A1.25,1.25,0,0,0,82,23a.66.66,0,0,0,.39-.17,3,3,0,0,0,.48-.51,4.15,4.15,0,0,0,.41-.63,1.8,1.8,0,0,0,.18-.5c0,.12,0,.25,0,.37s0,.24,0,.36a1.48,1.48,0,0,1,0,.35,1.21,1.21,0,0,1-.12.35,2.54,2.54,0,0,1-.21.39c-.09.13-.2.28-.32.43s-.24.29-.34.39a1.94,1.94,0,0,1-.26.25l-.23.14a1.28,1.28,0,0,1-.28.07.68.68,0,0,0-.26.11.58.58,0,0,0-.15.24,1.4,1.4,0,0,0-.08.35,3.43,3.43,0,0,0,0,.48c0,.18,0,.33,0,.45a.66.66,0,0,0,.06.26.23.23,0,0,0,.1.12.25.25,0,0,0,.16,0,.6.6,0,0,0,.27-.1,4.5,4.5,0,0,0,.45-.32,4.85,4.85,0,0,0,.44-.38,1.45,1.45,0,0,0,.25-.3.74.74,0,0,1,.2-.23,1.19,1.19,0,0,1,.29-.18c0,.33-.06.65-.08,1s0,.63,0,.94,0,.57,0,.8a2.7,2.7,0,0,0,.11.53,1.84,1.84,0,0,0,.17.38,3,3,0,0,0,.25.37,2.45,2.45,0,0,0,.24.27.26.26,0,0,0,.14.09s0,0,.06-.06a.47.47,0,0,0,0-.19h0l0-.56h0c0-.12,0-.28,0-.48s0-.43,0-.71v-.65c0-.15,0-.25,0-.29l.18,0h.23a1.92,1.92,0,0,0,.44-.1l.79-.3c.32-.13.62-.27.89-.4s.52-.28.75-.42l.16.06.13,0a.1.1,0,0,0,.09-.06.42.42,0,0,0,0-.18,7.43,7.43,0,0,1,.81-.23,3.46,3.46,0,0,1,.61-.11,1.16,1.16,0,0,1,.11.27c0,.12.06.25.09.41h0a.28.28,0,0,0,0,.11h0a.07.07,0,0,0,.06,0s0,0,.1-.06l.16-.21a2.14,2.14,0,0,0,.17-.3,3.27,3.27,0,0,0,.14-.33h.11l.16,0c.23,0,.46.06.54.07a9.37,9.37,0,0,1,1,0,4.5,4.5,0,0,1,.69.1l.44.11.28,0a.18.18,0,0,0,.15-.06.24.24,0,0,0,.05-.18,1.1,1.1,0,0,0-.08-.43.88.88,0,0,0-.27-.31,1.22,1.22,0,0,0-.4-.18,2.06,2.06,0,0,0-.52-.06l-.26,0-.4,0c-.16,0-.35.05-.57.07Zm-.09,1.83a.66.66,0,0,1,.26-.24.68.68,0,0,1,.36-.08,1.63,1.63,0,0,1,1.18.48,1.58,1.58,0,0,1,.38.5,1.13,1.13,0,0,1,.13.54,1.78,1.78,0,0,1,0,.3c0,.12-.06.25-.1.4a.68.68,0,0,1-.18.34.38.38,0,0,1-.28.12.47.47,0,0,1-.17,0,.26.26,0,0,1-.11-.07,1,1,0,0,1-.1-.14c0-.05-.06-.13-.1-.21a1,1,0,0,0-.14-.25,2.55,2.55,0,0,0-.23-.24l-.26-.2-.26-.13a.56.56,0,0,1-.19-.1.12.12,0,0,1-.06-.09.11.11,0,0,1,0-.09.45.45,0,0,1,.17-.08.4.4,0,0,0,.16-.07.12.12,0,0,0,.06-.09.41.41,0,0,0,0-.12,1,1,0,0,0-.11-.18.47.47,0,0,0-.17-.15.51.51,0,0,0-.22-.05,2.65,2.65,0,0,0-.74.11,2.83,2.83,0,0,0-.7.34s0,0,0,0v0s0,.08-.12.14a2.47,2.47,0,0,1-.36.21,3.34,3.34,0,0,0-1.22,1A1.66,1.66,0,0,0,87,28a1.3,1.3,0,0,1-.14.25.21.21,0,0,1-.14.09s-.11,0-.17-.13a2.44,2.44,0,0,1-.24-.4,3.46,3.46,0,0,1-.2-.47A1.28,1.28,0,0,1,86,27a1.76,1.76,0,0,1,0-.31,3.79,3.79,0,0,1,.12-.36,2.2,2.2,0,0,1,.14-.3c0-.06.09-.1.13-.1a.24.24,0,0,1,.12,0,.4.4,0,0,1,.15.12h0a1.87,1.87,0,0,0,.28.25.33.33,0,0,0,.18.09l.17,0,.27-.09h0c.63-.24,1.14-.42,1.54-.54A3.19,3.19,0,0,1,90,25.6a.41.41,0,0,1,.16,0,.51.51,0,0,1,.15.07Z" style="fill:#231f20;fill-rule:evenodd"/><path d="M74,16.37c0,.1,0,.23,0,.37s0,.31-.07.49a4.13,4.13,0,0,1-.09.44.53.53,0,0,1-.08.22h0a1.89,1.89,0,0,0-.28.46,1.2,1.2,0,0,0-.09.45.24.24,0,0,1-.06.18.21.21,0,0,1-.18.07.63.63,0,0,1-.27-.08,2.69,2.69,0,0,1-.33-.24,2.12,2.12,0,0,1-.33-.39,2.8,2.8,0,0,1-.24-.52,4.93,4.93,0,0,1-.15-.5,1.19,1.19,0,0,1-.05-.32.39.39,0,0,1,0-.17s0-.06.06-.06l.08,0,.07.05h0a.78.78,0,0,0,.26.17,1,1,0,0,0,.32,0,1.25,1.25,0,0,0,.56-.14,1.87,1.87,0,0,0,.51-.44h0a1.51,1.51,0,0,1,.18-.18c0-.05.08-.07.11-.07a.07.07,0,0,1,.05,0,.22.22,0,0,1,0,.1Zm2.47,6.77a2.29,2.29,0,0,1-.65-.24,2.46,2.46,0,0,1-.55-.41.46.46,0,0,1,0-.21.26.26,0,0,1,.11-.14,1.17,1.17,0,0,1,.29-.13l.56-.17h0a.41.41,0,0,0,.21-.14.45.45,0,0,0,.07-.27.54.54,0,0,0-.07-.27,1.31,1.31,0,0,0-.22-.27,1.32,1.32,0,0,0-.27-.2.43.43,0,0,0-.22-.07l-.23,0a1.68,1.68,0,0,0-.29.1.55.55,0,0,1,0-.17.61.61,0,0,1,0-.14c.2-.19.39-.36.56-.5a3.37,3.37,0,0,1,.45-.33,1.44,1.44,0,0,0,.39-.31.47.47,0,0,0,.13-.32.37.37,0,0,0-.08-.2,1.56,1.56,0,0,0-.26-.23,1.33,1.33,0,0,0-.3-.19.49.49,0,0,0-.2-.06h-.16l-.18,0,.24-.28.23-.21.31-.2c.12-.08.28-.16.47-.26A.37.37,0,0,0,77,17a.54.54,0,0,0-.07-.27,1.17,1.17,0,0,0-.2-.29,1.63,1.63,0,0,0-.31-.27h0A2.38,2.38,0,0,0,76,16l-.39-.13a1,1,0,0,0-.28,0,.22.22,0,0,0-.17.06h0a.21.21,0,0,0-.06.17.2.2,0,0,0,0,.07.19.19,0,0,0,0,.07s0,.07,0,.11a1,1,0,0,1,0,.18.6.6,0,0,1-.07.25,2,2,0,0,1-.2.37l-.33.49-.46.62a4.13,4.13,0,0,1-.58.6,3.85,3.85,0,0,1-.67.47,6.22,6.22,0,0,1-.6.29,1.35,1.35,0,0,1-.4.1l-.23,0h0a.3.3,0,0,0-.15.05.49.49,0,0,0-.12.15c0,.06-.06.11-.08.16a.2.2,0,0,0,0,.1.36.36,0,0,0,.14.27,1.52,1.52,0,0,0,.43.28,4.23,4.23,0,0,0,.54.21,2.06,2.06,0,0,0,.46.07,1,1,0,0,0,.35-.08,2.81,2.81,0,0,0,.46-.23,2.71,2.71,0,0,1-.36.41,2.58,2.58,0,0,1-.51.37,3.68,3.68,0,0,1-.5.27,1.14,1.14,0,0,1-.37.11.77.77,0,0,0-.27.08.61.61,0,0,0-.19.17.66.66,0,0,0-.11.24,1,1,0,0,0,0,.3.65.65,0,0,0,.06.29.59.59,0,0,0,.2.18,2.26,2.26,0,0,0,.42.12c.2,0,.44.07.75.1a4,4,0,0,1-.51.4c-.23.16-.52.35-.87.56a.5.5,0,0,0-.39.08.42.42,0,0,0-.13.35,1.44,1.44,0,0,0,.06.43,1,1,0,0,0,.2.33.76.76,0,0,0,.28.2.71.71,0,0,0,.32.07.36.36,0,0,0,.15,0,.35.35,0,0,0,.14-.06h0l.68-.42L73,25l.34-.12a3.83,3.83,0,0,1,.45-.1c.06,1.17.13,2.14.19,2.9s.14,1.32.21,1.67c.15.71.27,1.06.37,1.06s0,0,.05-.06a.73.73,0,0,0,.07-.17,4.21,4.21,0,0,0,.11-.58c0-.31.1-.74.17-1.29s.12-1.15.15-1.78,0-1.32,0-2.05a3.82,3.82,0,0,1,.51-.11,5.17,5.17,0,0,1,.57,0l.52,0a3.08,3.08,0,0,1,.39.07,1.82,1.82,0,0,0,.29.08l.26,0a.56.56,0,0,0,.2,0,.28.28,0,0,0,.14-.09.38.38,0,0,0,.08-.17,1,1,0,0,0,0-.26.48.48,0,0,0-.1-.28,1.53,1.53,0,0,0-.28-.31,1.6,1.6,0,0,0-.36-.24.65.65,0,0,0-.31-.08l-.32,0a3.53,3.53,0,0,0-.4.08Zm-8-.95a2.53,2.53,0,0,0,.12-.36,1.45,1.45,0,0,0,0-.35.37.37,0,0,0,0-.12s0,0,0,0h-.07l0,0a4.08,4.08,0,0,1-.43.36,5.06,5.06,0,0,1-.57.35,3.68,3.68,0,0,1-.54.26,1.41,1.41,0,0,1-.39.08,1.12,1.12,0,0,1-.53-.11,1,1,0,0,1-.4-.33,1.46,1.46,0,0,1-.24-.52,2.18,2.18,0,0,1-.08-.65,2,2,0,0,1,.45-1.19,5.37,5.37,0,0,1,1.37-1.19c.42-.29.77-.51,1-.69s.42-.3.5-.37a1.13,1.13,0,0,0,.19-.19.29.29,0,0,0,.06-.15.74.74,0,0,0-.17-.34,4.65,4.65,0,0,0-.48-.58L68.11,16a.12.12,0,0,1,0-.08.05.05,0,0,1,0,0,.18.18,0,0,1,.11,0,3.26,3.26,0,0,1,.58.06,5.43,5.43,0,0,1,.74.17,2.52,2.52,0,0,1,.7.32,1.47,1.47,0,0,1,.43.47,3.21,3.21,0,0,1,.22.48,1.1,1.1,0,0,1,.08.33c0,.14-.12.27-.36.38a4.7,4.7,0,0,1-.5.17q-.33.09-.81.18c-.31.07-.59.12-.82.15a4.72,4.72,0,0,1-.57.05,1.43,1.43,0,0,0-.56.17,5,5,0,0,0-.81.5,4.76,4.76,0,0,0-.7.58.74.74,0,0,0-.23.42.23.23,0,0,0,.08.19.4.4,0,0,0,.26.07l.25,0,.47-.07a5.2,5.2,0,0,0,.52-.11,2.64,2.64,0,0,0,.4-.14L68,20l.51-.31a.94.94,0,0,1,.07-.3.76.76,0,0,1,.15-.23h0a.6.6,0,0,1,.21-.14.6.6,0,0,1,.24-.05.67.67,0,0,1,.29.08,1.06,1.06,0,0,1,.31.21.8.8,0,0,1,.25.31.74.74,0,0,1,.09.36c0,.05,0,.1,0,.16a1.36,1.36,0,0,1,0,.17,5.41,5.41,0,0,0-.13.73,8.45,8.45,0,0,0-.08.95,7.2,7.2,0,0,1,.61-.54.73.73,0,0,1,.3-.18h0v0a2.3,2.3,0,0,1-.29.63c-.1.18-.21.37-.34.57s-.26.41-.42.63c0,1.28,0,2.3,0,3.07a12.11,12.11,0,0,1-.12,1.52c0,.25-.1.44-.14.57s-.09.19-.12.19-.09-.05-.17-.15a5.23,5.23,0,0,1-.27-.45,3.18,3.18,0,0,1-.25-.55,1.38,1.38,0,0,1-.09-.45,3.53,3.53,0,0,1,0-.36,2,2,0,0,1,0-.28,7.54,7.54,0,0,0,.1-.94c0-.35,0-.76,0-1.21l-1.47,1.23-.62.53h0a.8.8,0,0,1-.18.15.33.33,0,0,1-.17,0,.26.26,0,0,1-.24-.18,1.46,1.46,0,0,1-.08-.54c0-.24,0-.45,0-.63a3.21,3.21,0,0,1,.08-.44,1.06,1.06,0,0,1,.15-.28.6.6,0,0,1,.22-.16h0a2,2,0,0,0,.49-.23,3.54,3.54,0,0,0,.48-.34l.49-.45Z" style="fill:#231f20;fill-rule:evenodd"/><path d="M114.56,18.09a2.19,2.19,0,0,1-.33.12,1.32,1.32,0,0,1-.34,0l-.32,0a.92.92,0,0,1-.25-.06l-.2-.06a.44.44,0,0,0-.15,0c-.09,0-.18.08-.27.26a1.22,1.22,0,0,1-.13.19c0,.05,0,.07-.07.07l0,0a.07.07,0,0,1,0-.05h0l0-.21v0h0s-.06,0-.12.1-.14.17-.24.31l-.23.3c0,.07-.08.1-.09.1h0a0,0,0,0,1,0,0,1,1,0,0,1,.1-.33,4.88,4.88,0,0,1,.28-.6,3.5,3.5,0,0,1,.38-.62,1.47,1.47,0,0,1,.4-.36,2.78,2.78,0,0,1,.59-.23q.39-.11,1-.21c.39-.06.79-.12,1.21-.15s.86,0,1.31,0a3,3,0,0,1,.53,0,2.83,2.83,0,0,1,.5.13,3.21,3.21,0,0,1,.46.22,3.28,3.28,0,0,1,.44.32h0a4.31,4.31,0,0,1,.37.36,1.28,1.28,0,0,1,.2.32,2.12,2.12,0,0,1,.11.29,2.93,2.93,0,0,1,0,.29c0,.09,0,.24,0,.45v.8c0,.32,0,.64,0,1s0,.63.06.94,0,.6.05.87,0,.51,0,.73,0,.61,0,1.14v2.08a7.76,7.76,0,0,1-.1,1.37,2.89,2.89,0,0,1-.31.93,2.51,2.51,0,0,1-.38.53.5.5,0,0,1-.35.17.28.28,0,0,1-.13,0,.36.36,0,0,1-.1-.11h0a3.51,3.51,0,0,0-.18-.34,3.17,3.17,0,0,0-.21-.27l-.26-.25-.34-.26-.31-.23-.17-.13-.08-.07s0,0,0,0v0h0s0,0,0,0l.09,0,.16.07.16.07.08,0h0s0,0,0,0a.2.2,0,0,0-.07-.11l-.21-.2a1,1,0,0,0-.46-.18,4.71,4.71,0,0,0-.83-.06,9.37,9.37,0,0,0-1,.06,10.85,10.85,0,0,0-1.08.16,8.66,8.66,0,0,0-.94.23,2.89,2.89,0,0,0-.62.26l-.37.2a.74.74,0,0,1-.18.07c-.07,0-.16-.07-.28-.19a4.6,4.6,0,0,1-.45-.55,4.44,4.44,0,0,1-.39-.65,1.28,1.28,0,0,1-.13-.52v-.07l0-.07h0a.36.36,0,0,0,0-.11,1,1,0,0,0,0-.18c0-.06,0-.15,0-.27s0-.24,0-.4,0-.38,0-.66,0-.62,0-1,0-.85,0-1.34.08-1,.15-1.61.12-1,.18-1.3.12-.44.17-.44.09.05.18.14l.35.42a3.61,3.61,0,0,1,.35.51,1,1,0,0,1,.13.38,7.5,7.5,0,0,0,1.43-.25,7.4,7.4,0,0,0,1.36-.5,7.35,7.35,0,0,0,0-.85,3.09,3.09,0,0,0-.12-.67Zm1.3,8.2a.49.49,0,0,1,.24,0,1.31,1.31,0,0,1,.27.06,2.87,2.87,0,0,1,.42.18l.66.32h0a.71.71,0,0,0,.18.08l.16,0h.14a.19.19,0,0,0,.09,0,.13.13,0,0,0,0-.07.57.57,0,0,0,0-.14c0-.14,0-.35,0-.64s0-.65.07-1.08l.06-1.29c0-.42,0-.84,0-1.26,0-1.25,0-2.24-.1-3a3.91,3.91,0,0,0-.28-1.4,1.25,1.25,0,0,0-.5-.47,1.46,1.46,0,0,0-.71-.16,3.91,3.91,0,0,0-.46,0l-.52.12c.11.18.19.33.26.45s.11.23.14.31a2.17,2.17,0,0,1,.07.24,1.79,1.79,0,0,1,0,.24l.24,0a1.37,1.37,0,0,1,.28.1l.3.14.3.18.25.19a1.41,1.41,0,0,1,.17.18.51.51,0,0,1,.09.21,1.32,1.32,0,0,1,0,.3.49.49,0,0,1-.07.28.34.34,0,0,1-.19.16l-.33.09-.52.07a1.53,1.53,0,0,1,.16.31.57.57,0,0,1,.05.24.6.6,0,0,1-.09.27,2.26,2.26,0,0,1-.27.37,5.22,5.22,0,0,0-.32.42c-.08.13-.15.25-.21.37s0,.46,0,.67,0,.4,0,.58c0,.48,0,.91,0,1.29a6.71,6.71,0,0,1-.15,1Zm-.67.06-.37-.53-.23-.34a2.19,2.19,0,0,1-.11-.19.49.49,0,0,1,0-.12.72.72,0,0,1,0-.13c0-.06,0-.13,0-.21s0-.2.06-.32,0-.26,0-.41c-.68.28-1.23.49-1.63.63a3.36,3.36,0,0,1-.82.21.52.52,0,0,1-.31-.08.29.29,0,0,1-.1-.23.31.31,0,0,1,.07-.21.54.54,0,0,1,.21-.13,1.39,1.39,0,0,0,.38-.24,7.64,7.64,0,0,0,.6-.53c.24-.23.44-.44.62-.64a5.19,5.19,0,0,0,.46-.56,5,5,0,0,0,.28-.42.61.61,0,0,0,.09-.22.41.41,0,0,0,0-.12.22.22,0,0,0,0-.08,4.47,4.47,0,0,1-.74.29,2.09,2.09,0,0,1-.61.1,1.27,1.27,0,0,1-.46-.07.7.7,0,0,1-.32-.2,1.12,1.12,0,0,0-.21-.19.17.17,0,0,0-.13,0,1.71,1.71,0,0,1-.09.3,1.94,1.94,0,0,1-.13.3,2.74,2.74,0,0,0-.26.87,5.59,5.59,0,0,0-.08.59c0,.2,0,.41,0,.62s0,.68,0,1a9.64,9.64,0,0,0,.14,1,2.59,2.59,0,0,0,.21.69c.08.14.17.21.27.19l2-.36C114.51,26.45,114.92,26.38,115.19,26.35Z" style="fill:#231f20;fill-rule:evenodd"/><path d="M118,33.78V31.2H119a1.68,1.68,0,0,1,.35,0,.65.65,0,0,1,.21.07.67.67,0,0,1,.24.26.93.93,0,0,1,.08.39.89.89,0,0,1-.08.38.78.78,0,0,1-.24.27l-.22.08-.4,0h-.53v1.09Zm.34-1.4H119a.65.65,0,0,0,.42-.1.43.43,0,0,0,.12-.34.42.42,0,0,0-.12-.33.65.65,0,0,0-.39-.1h-.61Z" style="fill:#231f20;fill-rule:evenodd"/><path d="M114.49,32.8V31.2h.35v1.6a.76.76,0,0,0,.16.54.59.59,0,0,0,.48.17.66.66,0,0,0,.49-.17.77.77,0,0,0,.16-.54V31.2h.35v1.6a.92.92,0,0,1-1,1.05.94.94,0,0,1-.71-.26A1.15,1.15,0,0,1,114.49,32.8Z" style="fill:#231f20;fill-rule:evenodd"/><path d="M110.52,32.49a1.46,1.46,0,0,1,.32-1,1.14,1.14,0,0,1,.89-.36,1.12,1.12,0,0,1,.88.36,1.72,1.72,0,0,1,0,2,1.12,1.12,0,0,1-.88.36,1.14,1.14,0,0,1-.89-.36,1.46,1.46,0,0,1-.32-1Zm.36,0a1.23,1.23,0,0,0,.23.78.76.76,0,0,0,.62.28.78.78,0,0,0,.62-.28,1.49,1.49,0,0,0,0-1.56.78.78,0,0,0-.62-.28.76.76,0,0,0-.62.28A1.23,1.23,0,0,0,110.88,32.49Z" style="fill:#231f20;fill-rule:evenodd"/><path d="M107,31.2h1a1.63,1.63,0,0,1,.35,0,.43.43,0,0,1,.2.07.6.6,0,0,1,.25.25.84.84,0,0,1,.08.37.69.69,0,0,1-.09.36.53.53,0,0,1-.26.23.37.37,0,0,1,.21.14.8.8,0,0,1,.08.34l0,.43a.77.77,0,0,0,0,.2.21.21,0,0,0,.08.1v.07h-.39a.73.73,0,0,1-.07-.35h0l0-.33a.48.48,0,0,0-.11-.34.83.83,0,0,0-.46-.08h-.56v1.11H107V31.2Zm.34.3v.88H108a.74.74,0,0,0,.45-.11.53.53,0,0,0,0-.68.84.84,0,0,0-.46-.09Z" style="fill:#231f20;fill-rule:evenodd"/><path d="M105.14,33.43a1,1,0,0,1-.37.32,1.16,1.16,0,0,1-1.32-.27,1.49,1.49,0,0,1-.32-1,1.41,1.41,0,0,1,.34-1,1.14,1.14,0,0,1,.89-.36,1.08,1.08,0,0,1,.71.22,1,1,0,0,1,.33.63h-.34a.61.61,0,0,0-.23-.41.87.87,0,0,0-1.11.14,1.4,1.4,0,0,0,0,1.54.84.84,0,0,0,1.19.06.84.84,0,0,0,.21-.6v0h-.79v-.29h1.11v1.39h-.22Z" style="fill:#231f20;fill-rule:evenodd"/><rect x="98.69" y="31.2" width="0.34" height="2.58" style="fill:#231f20"/><polygon points="95.31 33.78 95.31 31.2 97.12 31.2 97.12 31.52 95.65 31.52 95.65 32.29 97.01 32.29 97.01 32.59 95.65 32.59 95.65 33.46 97.15 33.46 97.15 33.78 95.31 33.78" style="fill:#231f20;fill-rule:evenodd"/><polygon points="91.67 33.78 91.67 31.2 92.01 31.2 92.01 32.44 93.23 31.2 93.69 31.2 92.66 32.23 93.72 33.78 93.3 33.78 92.41 32.48 92.01 32.88 92.01 33.78 91.67 33.78" style="fill:#231f20;fill-rule:evenodd"/><path d="M87.29,33.43a1,1,0,0,1-.86.42,1,1,0,0,1-.83-.37,1.49,1.49,0,0,1-.32-1,1.45,1.45,0,0,1,.33-1,1.16,1.16,0,0,1,.9-.36,1,1,0,0,1,.7.22.89.89,0,0,1,.33.63h-.33a.65.65,0,0,0-.23-.41.77.77,0,0,0-.47-.14.79.79,0,0,0-.65.28,1.4,1.4,0,0,0,0,1.54.75.75,0,0,0,.62.28.74.74,0,0,0,.57-.22.81.81,0,0,0,.22-.6v0h-.8v-.29h1.12v1.39h-.23Z" style="fill:#231f20;fill-rule:evenodd"/><path d="M81.7,33.78V31.2h.38l1.18,1.87a.75.75,0,0,1,.07.12.47.47,0,0,1,0,.1V31.2h.33v2.58h-.38l-1.21-1.9a.41.41,0,0,0-.05-.09,1,1,0,0,0,0-.1v2.09Z" style="fill:#231f20;fill-rule:evenodd"/><path d="M78,32.8V31.2h.35v1.6a.76.76,0,0,0,.16.54.6.6,0,0,0,.49.17.64.64,0,0,0,.48-.17.77.77,0,0,0,.16-.54V31.2H80v1.6a1.11,1.11,0,0,1-.26.79,1.09,1.09,0,0,1-.77.26,1,1,0,0,1-.72-.26A1.15,1.15,0,0,1,78,32.8Z" style="fill:#231f20;fill-rule:evenodd"/><polygon points="74.33 33.78 74.33 31.2 76.14 31.2 76.14 31.52 74.67 31.52 74.67 32.29 76.03 32.29 76.03 32.59 74.67 32.59 74.67 33.46 76.17 33.46 76.17 33.78 74.33 33.78" style="fill:#231f20;fill-rule:evenodd"/><polygon points="70.52 33.78 70.52 31.2 70.86 31.2 70.86 32.26 72.18 32.26 72.18 31.2 72.53 31.2 72.53 33.78 72.18 33.78 72.18 32.57 70.86 32.57 70.86 33.78 70.52 33.78" style="fill:#231f20;fill-rule:evenodd"/><path d="M68.57,32.82h.33a1,1,0,0,1-1.07,1,1,1,0,0,1-.84-.37,1.6,1.6,0,0,1-.31-1,1.39,1.39,0,0,1,.32-1,1.1,1.1,0,0,1,.86-.36,1,1,0,0,1,.71.23.89.89,0,0,1,.32.61h-.34a.6.6,0,0,0-.23-.39.77.77,0,0,0-.47-.14.7.7,0,0,0-.6.28,1.24,1.24,0,0,0-.21.77,1.18,1.18,0,0,0,.22.76.71.71,0,0,0,.59.29.73.73,0,0,0,.51-.2A.75.75,0,0,0,68.57,32.82Z" style="fill:#231f20;fill-rule:evenodd"/><path d="M59.55,47.81a1,1,0,0,1-.93,0V49.4c0,.19-.13.29-.32.31S58,49.59,58,49.4V43.33c0-.37.18-.53.58-.53h.68c.48,0,.66.27.54.75s-.23.88-.29,1.07a1.47,1.47,0,0,0-.09.46.85.85,0,0,0,.17.36A2.33,2.33,0,0,1,60,47,1.09,1.09,0,0,1,59.55,47.81ZM59,45.66a1,1,0,0,1-.23-.51,8.4,8.4,0,0,1,.36-1.48c0-.13,0-.19-.15-.21H58.8c-.12,0-.18,0-.18.2v3.47c.46.26.7.13.74-.39A1.78,1.78,0,0,0,59,45.66Zm5.61,3.71a5.9,5.9,0,0,1-1.87-1.52v1.58a.32.32,0,0,1-.32.35.3.3,0,0,1-.33-.33V47.84a6.58,6.58,0,0,1-1.9,1.52.34.34,0,0,1-.48-.13.31.31,0,0,1,0-.26.36.36,0,0,1,.2-.2A6.54,6.54,0,0,0,62,47H60.66a.61.61,0,0,1-.42-.1.56.56,0,0,1-.12-.4V44.8c0-.35.19-.52.57-.52h1.37v-.43H60.29a.29.29,0,0,1-.29-.31c0-.19.12-.31.31-.31h1.75v-.39c0-.18.13-.28.33-.29s.32.12.32.31v.37h2c.2,0,.29.12.31.31s-.11.31-.31.31h-2v.43h1.4c.4,0,.58.14.58.47v1.74c0,.36-.14.53-.5.53H62.86a6.17,6.17,0,0,0,2,1.71.35.35,0,0,1,.17.47A.29.29,0,0,1,64.58,49.37Zm-2.52-4.51H60.93c-.17,0-.23,0-.23.19v.32h1.36Zm0,1.08H60.7v.24c0,.2.08.27.23.27h1.13Zm2-.95c0-.09,0-.13-.17-.13H62.71v.51h1.36Zm0,.95H62.71v.51H63.9c.13,0,.17-.05.17-.21Z" style="fill:#231f20"/><path d="M67.83,47.86a5.82,5.82,0,0,1,.43.5c.09.13.15.35,0,.47a.3.3,0,0,1-.47,0,2.92,2.92,0,0,0-.32-.38,4,4,0,0,1-1.13,1.16.3.3,0,0,1-.41-.08.32.32,0,0,1,.08-.47,3.88,3.88,0,0,0,1-1.08c-.22-.34-.91-.95-.94-1.27a1.46,1.46,0,0,1,.12-.53,9.54,9.54,0,0,0,.4-1.78H66.2a.26.26,0,0,1-.28-.28.26.26,0,0,1,.28-.28h.48c0-.25,0-.52.07-.77a.32.32,0,0,1,.32-.35c.19,0,.29.16.29.37a6.34,6.34,0,0,1-.07.75H68c.33,0,.51.18.51.59A9,9,0,0,1,67.83,47.86Zm-.11-3.47h-.49a15.17,15.17,0,0,1-.38,1.91,1.28,1.28,0,0,0-.07.28c0,.14.44.65.59.8a7.77,7.77,0,0,0,.57-2.8A.19.19,0,0,0,67.72,44.39Zm.9,5.18a.36.36,0,0,1-.53-.12.36.36,0,0,1,.21-.51,2.14,2.14,0,0,0,1.41-2.17,5.68,5.68,0,0,1-1,.78.34.34,0,0,1-.51-.07.35.35,0,0,1,.16-.51,5.13,5.13,0,0,0,1.34-1V43a.32.32,0,0,1,.64,0v3.51A3,3,0,0,1,68.62,49.57Zm.76-3.83c-.19,0-.32-.09-.38-.31-.15-.63-.4-1.48-.51-1.77s0-.36.12-.43a.29.29,0,0,1,.41.19,11.41,11.41,0,0,1,.57,1.88C69.63,45.51,69.57,45.69,69.38,45.74ZM72,49.68c-.79,0-1.16-.35-1.16-1.11V43a.33.33,0,1,1,.66,0v1.58a7.6,7.6,0,0,0,.76-1.13.31.31,0,0,1,.47-.11.36.36,0,0,1,.07.49,7.2,7.2,0,0,1-1.3,1.66V46a16.78,16.78,0,0,1,1.31,1.17.4.4,0,0,1,.06.52c-.14.16-.33.19-.45,0a6.06,6.06,0,0,0-.92-.9v1.67a.64.64,0,0,0,.08.4c0,.07.18.11.4.12a.35.35,0,0,0,.37-.16,1.57,1.57,0,0,0,.13-.7.29.29,0,0,1,.3-.31.33.33,0,0,1,.32.34C73.16,49.17,72.8,49.66,72,49.68Z" style="fill:#231f20"/><path d="M80.83,49.33a.87.87,0,0,1-.68.21h-1.4a1,1,0,0,1-.66-.16.81.81,0,0,1-.17-.6V47.19H76.08v.42h1.34a.25.25,0,0,1,.28.27.25.25,0,0,1-.28.26H76.08v.64s1-.13,1.32-.18a.26.26,0,0,1,.32.22.28.28,0,0,1-.23.34,16.38,16.38,0,0,1-2.43.31.24.24,0,0,1-.27-.26c0-.19.08-.3.23-.32l.46,0V47.17H75a6,6,0,0,1-.47,2,.29.29,0,0,1-.19.17.35.35,0,0,1-.44-.21.42.42,0,0,1,0-.27,4.48,4.48,0,0,0,.47-2V45.34a.54.54,0,0,1,.13-.42A.7.7,0,0,1,75,44.8h2.27v-.22a.29.29,0,0,1,.31-.32.31.31,0,0,1,.32.33v.21h2.9c.18,0,.26.1.28.27s-.1.27-.28.27H78.92v.35h1.35c.34,0,.51.15.51.49v.55c0,.32-.17.46-.52.46H78.55v.58a14.94,14.94,0,0,0,1.88-.35.29.29,0,1,1,.14.56,15.8,15.8,0,0,1-2,.39v.34c0,.18.07.24.24.24H80c.29,0,.44-.14.47-.5,0-.17.14-.25.34-.25s.31.13.3.31A1.42,1.42,0,0,1,80.83,49.33Zm-3.59-6H74.36a.25.25,0,0,1-.28-.27.3.3,0,0,1,.29-.3h2.87c.16,0,.25.13.25.3A.24.24,0,0,1,77.24,43.33Zm-.32,1.41a.26.26,0,0,1-.29-.27v-.32c0-.09,0-.11-.11-.11H76v.41c0,.16-.1.24-.27.25s-.29-.07-.29-.24V44H75s-.06,0-.06.06v.35c0,.16-.11.24-.28.25s-.29-.07-.29-.24v-.53c0-.26.14-.37.41-.37h2c.3,0,.38.1.38.39v.51A.25.25,0,0,1,76.92,44.74Zm-.57.6H75.2c-.12,0-.16,0-.16.14v.21h1.31Zm0,.88H75v.44h1.31Zm2-.88H77v.35h1.36Zm0,.88H77v.44h1.36Zm2.51-2.88H78a.26.26,0,0,1-.28-.28.29.29,0,0,1,.29-.29h2.86a.26.26,0,0,1,.26.29A.25.25,0,0,1,80.82,43.34Zm-.33,1.42c-.18,0-.29-.1-.29-.27v-.32c0-.09,0-.11-.1-.11h-.48v.4c0,.16-.11.24-.27.26s-.29-.08-.29-.25v-.41h-.47s-.06,0-.06.06v.34c0,.17-.11.24-.28.26s-.28-.08-.28-.25v-.53c0-.26.12-.37.4-.37h2c.3,0,.38.11.38.4v.5A.28.28,0,0,1,80.49,44.76Zm-.36,1.61c0-.14-.07-.15-.11-.15h-1.1v.44H80s.11,0,.11-.09Z" style="fill:#231f20"/><path d="M84.52,44.55a9.85,9.85,0,0,1-.64,3.19c.16.15.44.4.44.63a.34.34,0,0,1-.29.35c-.14,0-.22-.11-.31-.2l-.16-.15c-.19.28-.89,1.28-1.27,1.28a.3.3,0,0,1-.3-.31.38.38,0,0,1,.14-.28,4.87,4.87,0,0,0,1-1.17c-.25-.25-.48-.53-.74-.77a.52.52,0,0,1-.19-.42,1.46,1.46,0,0,1,.1-.46c.18-.6.3-1.22.42-1.83h-.41a.31.31,0,0,1-.34-.31.3.3,0,0,1,.32-.32h.47c0-.28,0-.56.08-.84a.31.31,0,0,1,.34-.29.33.33,0,0,1,.32.33c0,.26,0,.53,0,.79.63,0,1.11-.12,1.11.65Zm-.61,0c0-.1,0-.14-.15-.14h-.44a17,17,0,0,1-.5,2.25,4.07,4.07,0,0,0,.57.6,10.81,10.81,0,0,0,.52-2.66Zm4.41.76H85.48a10.72,10.72,0,0,1-.62,3.93.37.37,0,0,1-.33.24.33.33,0,0,1-.34-.31.47.47,0,0,1,0-.17,7.41,7.41,0,0,0,.59-3V43.58A1,1,0,0,1,85,43a.69.69,0,0,1,.52-.17h2.9c.47,0,.62.27.62.71v1.08C89,45.11,88.83,45.31,88.32,45.31Zm0-1.69c0-.12-.06-.2-.18-.2H85.63c-.12,0-.16.06-.16.18v1.11h2.68c.12,0,.18-.05.18-.17Zm.61,5.56a1.05,1.05,0,0,1-1,.38H87c-.73,0-1.21-.28-1.21-1.07V45.7a.31.31,0,0,1,.32-.32.32.32,0,0,1,.33.32V47a6.14,6.14,0,0,0,1.89-1.3.41.41,0,0,1,.24-.11.37.37,0,0,1,.32.36.44.44,0,0,1-.14.3,6.28,6.28,0,0,1-2.31,1.45v.65c0,.45.15.54.58.54h.73c.2,0,.48,0,.6-.2a2.6,2.6,0,0,0,.12-1,.33.33,0,0,1,.32-.35c.36,0,.35.27.35.53A2.82,2.82,0,0,1,88.94,49.18Z" style="fill:#231f20"/><path d="M92.43,46.74a.25.25,0,0,1-.35-.17.84.84,0,0,0-.08-.2l-.34,0v3a.28.28,0,0,1-.3.29c-.18,0-.31-.1-.31-.28v-3l-.36,0-.45,0a.28.28,0,0,1-.3-.27c0-.19.08-.31.25-.33l.18,0a4.71,4.71,0,0,0,.45-.65c-.15-.17-.42-.44-.78-.8A.31.31,0,0,1,90,44a.33.33,0,0,1,.42,0c.2-.36.36-.75.56-1.12a.32.32,0,0,1,.42-.16.29.29,0,0,1,.16.4A9.73,9.73,0,0,1,91,44.29l-.08.15.25.26a9.11,9.11,0,0,0,.52-.92.32.32,0,0,1,.46-.15.36.36,0,0,1,.07.49,12.67,12.67,0,0,1-1.12,1.78l.74-.07a1.7,1.7,0,0,0-.11-.23.26.26,0,0,1,.14-.34.27.27,0,0,1,.37.12,6.2,6.2,0,0,1,.37,1A.27.27,0,0,1,92.43,46.74ZM90.66,49a.36.36,0,0,1-.37.32.32.32,0,0,1-.24-.41,14.88,14.88,0,0,0,.16-1.73.33.33,0,0,1,.34-.32c.19,0,.28.14.27.35A11.07,11.07,0,0,1,90.66,49Zm1.7-.49A.27.27,0,0,1,92,48.3c0-.17,0-.38-.1-.61s0-.23-.06-.32a.3.3,0,0,1,.21-.35.28.28,0,0,1,.35.19,5.54,5.54,0,0,1,.17,1A.32.32,0,0,1,92.36,48.55Zm.63.66a.32.32,0,0,1-.4.19A.28.28,0,0,1,92.4,49a9.17,9.17,0,0,0,.4-1.67.3.3,0,0,1,.33-.28.29.29,0,0,1,.27.34A6.41,6.41,0,0,1,93,49.21Zm3.11-2.49H93.15c-.37,0-.55-.23-.55-.66V43.62a.48.48,0,0,1,.14-.4.8.8,0,0,1,.48-.11h.87c.09-.13.16-.31.22-.4a.38.38,0,0,1,.44-.19.25.25,0,0,1,.18.36,2.29,2.29,0,0,1-.1.23h1.32a.94.94,0,0,1,.54.12.5.5,0,0,1,.13.41v2.5C96.82,46.54,96.58,46.72,96.1,46.72Zm.1-2.81c0-.14,0-.21-.21-.21H93.43c-.15,0-.22.07-.22.16V46c0,.09.05.14.24.14h2.6c.12,0,.15,0,.15-.14Zm-.81,1.26a2.33,2.33,0,0,1,.47.37.26.26,0,0,1,0,.36.27.27,0,0,1-.37,0l-.55-.4A3.27,3.27,0,0,1,93.8,46a.28.28,0,0,1-.37-.17.25.25,0,0,1,.2-.34,3.85,3.85,0,0,0,.85-.31c-.08-.06-.29-.18-.47-.28a1.87,1.87,0,0,1-.3.26.27.27,0,0,1-.37,0c-.15-.23,0-.35.16-.46a5.61,5.61,0,0,0,.68-.62.42.42,0,0,1,.34-.2H95.6c.32,0,.48.13.41.4A2.59,2.59,0,0,1,95.39,45.17Zm0,4.39h-.92c-.51,0-.8-.17-.8-.55V47.1c0-.17.13-.25.3-.26s.29.08.29.25v1.62a.25.25,0,0,0,.08.22,1,1,0,0,0,.4,0,2.24,2.24,0,0,0,.69,0c.08,0,.12-.15.12-.4a.3.3,0,0,1,.31-.28.28.28,0,0,1,.28.3C96.15,49.2,95.91,49.56,95.4,49.56Zm-.17-5.17h-.64l-.17.16c.18.11.41.23.51.3a1.33,1.33,0,0,0,.35-.38S95.3,44.39,95.23,44.39Zm0,4c-.19,0-.37,0-.39-.25a8.35,8.35,0,0,0-.26-1,.26.26,0,0,1,.19-.34c.19,0,.33,0,.4.17a4.86,4.86,0,0,1,.28,1.07A.31.31,0,0,1,95.25,48.41Zm1.59,1a.31.31,0,0,1-.37-.24,11,11,0,0,0-.6-1.78A.27.27,0,0,1,96,47a.33.33,0,0,1,.43.17A7.59,7.59,0,0,1,97.08,49,.32.32,0,0,1,96.84,49.37Z" style="fill:#231f20"/><path d="M100.32,48.4a7,7,0,0,1-2.1,1,.32.32,0,0,1-.42-.17c-.1-.35.15-.45.4-.54s.4-.15.53-.21V46.19h-.58c-.19,0-.29-.13-.31-.33s.12-.31.31-.31h.58V43.62H98.1c-.18,0-.26-.12-.28-.31s.1-.32.28-.32h1.77a.31.31,0,0,1,.32.32.3.3,0,0,1-.32.31h-.5v1.93H100c.2,0,.29.12.31.31s-.11.33-.31.33h-.59v2l.55-.33a.3.3,0,0,1,.44,0A.31.31,0,0,1,100.32,48.4Zm4.62,1.06h-4.49c-.18,0-.27-.13-.27-.33a.29.29,0,0,1,.31-.28h1.86V48h-1.52c-.19,0-.27-.12-.27-.31a.28.28,0,0,1,.28-.3h1.51v-.81H101a.55.55,0,0,1-.61-.63V43.44a.55.55,0,0,1,.62-.63h3.31c.39,0,.57.19.57.61V46a.55.55,0,0,1-.62.61H103v.81h1.7c.17,0,.25.12.27.3s-.1.31-.27.31H103v.84h2c.18,0,.28.12.29.31A.28.28,0,0,1,104.94,49.46Zm-2.59-6h-1.09c-.15,0-.19.06-.19.21v.77h1.28Zm0,1.59h-1.28v.76c0,.15.05.21.21.21h1.07Zm1.92-1.33c0-.19,0-.26-.17-.26H103v1h1.28Zm0,1.33H103v1h1.12c.12,0,.16,0,.16-.25Z" style="fill:#231f20"/><path d="M19.44,58.8V53.07h1.14l1.35,4.06c.13.37.22.66.27.84.07-.2.17-.51.31-.91l1.37-4h1V58.8h-.73V54l-1.66,4.8h-.69l-1.65-4.88V58.8Z" style="fill:#231f20"/><path d="M26,58.8V54.65h.63v.63a1.56,1.56,0,0,1,.45-.58.71.71,0,0,1,.45-.14,1.39,1.39,0,0,1,.72.22l-.24.65a1.06,1.06,0,0,0-.52-.15.7.7,0,0,0-.67.53,2.66,2.66,0,0,0-.12.82V58.8Z" style="fill:#231f20"/><path d="M28.42,57.56l.69-.11a1,1,0,0,0,.33.64,1.1,1.1,0,0,0,.75.22,1.08,1.08,0,0,0,.71-.19.61.61,0,0,0,.24-.47.42.42,0,0,0-.21-.37,3.29,3.29,0,0,0-.72-.24,6.18,6.18,0,0,1-1.07-.34,1,1,0,0,1-.45-.39,1.06,1.06,0,0,1,0-1.07,1.12,1.12,0,0,1,.35-.4,1.4,1.4,0,0,1,.44-.2,2,2,0,0,1,.61-.08,2.28,2.28,0,0,1,.86.14,1.12,1.12,0,0,1,.54.38,1.38,1.38,0,0,1,.24.64l-.68.09a.75.75,0,0,0-.27-.5,1,1,0,0,0-.64-.18,1.21,1.21,0,0,0-.69.16.48.48,0,0,0-.21.38.36.36,0,0,0,.09.24.57.57,0,0,0,.27.19l.62.18a7.24,7.24,0,0,1,1,.33,1,1,0,0,1,.46.37,1,1,0,0,1,.17.6,1.24,1.24,0,0,1-.2.66,1.31,1.31,0,0,1-.6.48,2.18,2.18,0,0,1-.87.17A2,2,0,0,1,29,58.56,1.52,1.52,0,0,1,28.42,57.56Z" style="fill:#231f20"/><path d="M32.9,58.8V58h.8v.8Z" style="fill:#231f20"/><path d="M41.32,56.79l.76.19a2.55,2.55,0,0,1-.86,1.42,2.36,2.36,0,0,1-1.52.5,2.73,2.73,0,0,1-1.5-.38,2.34,2.34,0,0,1-.88-1.09A3.78,3.78,0,0,1,37,55.89a3.35,3.35,0,0,1,.35-1.56,2.31,2.31,0,0,1,1-1A2.84,2.84,0,0,1,39.72,53a2.35,2.35,0,0,1,1.44.44A2.3,2.3,0,0,1,42,54.64l-.75.18a1.7,1.7,0,0,0-.58-.91,1.53,1.53,0,0,0-.95-.29,1.84,1.84,0,0,0-1.1.32,1.64,1.64,0,0,0-.63.85,3.38,3.38,0,0,0-.18,1.1A3.31,3.31,0,0,0,38,57.16a1.56,1.56,0,0,0,.66.82,1.84,1.84,0,0,0,1,.27,1.64,1.64,0,0,0,1.08-.37A1.93,1.93,0,0,0,41.32,56.79Z" style="fill:#231f20"/><path d="M43,58.8V53.07h.76v2.35h3V53.07h.76V58.8h-.76V56.1h-3v2.7Z" style="fill:#231f20"/><path d="M48.8,58.8V53.07h4.14v.68H49.56V55.5h3.17v.67H49.56v1.95h3.52v.68Z" style="fill:#231f20"/><path d="M54.11,58.8V53.07h.78l3,4.5v-4.5h.73V58.8h-.78l-3-4.5v4.5Z" style="fill:#231f20"/><path d="M63.59,58.8V56.37l-2.21-3.3h.93l1.13,1.73c.2.32.4.64.58,1,.17-.3.38-.64.62-1l1.11-1.68h.88l-2.28,3.3V58.8Z" style="fill:#231f20"/><path d="M66.09,58.8l2.2-5.73h.82l2.34,5.73h-.86l-.67-1.74H67.53L66.9,58.8Zm1.65-2.35h2l-.6-1.59c-.19-.48-.32-.88-.41-1.19a6.47,6.47,0,0,1-.31,1.1Z" style="fill:#231f20"/><path d="M71.83,56a3.09,3.09,0,0,1,.76-2.23,2.6,2.6,0,0,1,2-.81,2.78,2.78,0,0,1,1.43.38,2.46,2.46,0,0,1,1,1,3.51,3.51,0,0,1,.33,1.54A3.32,3.32,0,0,1,77,57.5a2.34,2.34,0,0,1-1,1,2.77,2.77,0,0,1-1.39.36,2.62,2.62,0,0,1-1.44-.4,2.48,2.48,0,0,1-1-1.06A3.36,3.36,0,0,1,71.83,56Zm.78,0a2.3,2.3,0,0,0,.55,1.63,1.95,1.95,0,0,0,2.81,0,2.44,2.44,0,0,0,.55-1.71,2.85,2.85,0,0,0-.24-1.22,1.72,1.72,0,0,0-.69-.81,1.87,1.87,0,0,0-1-.29,1.94,1.94,0,0,0-1.38.55A2.47,2.47,0,0,0,72.61,56Z" style="fill:#231f20"/><path d="M80.47,58.8V53.07h.76v5h2.82v.68Z" style="fill:#231f20"/><path d="M84.86,53.88v-.81h.71v.81Zm0,4.92V54.65h.71V58.8Z" style="fill:#231f20"/><path d="M88.94,58.8V53.07h.78l3,4.5v-4.5h.72V58.8h-.77l-3-4.5v4.5Z" style="fill:#231f20"/><path d="M94.64,53.88v-.81h.71v.81Zm0,4.92V54.65h.71V58.8Z" style="fill:#231f20"/><path d="M96.6,58.8V58h.8v.8a1.36,1.36,0,0,1-.16.71,1,1,0,0,1-.49.42l-.2-.3a.67.67,0,0,0,.33-.29A1.23,1.23,0,0,0,97,58.8Z" style="fill:#231f20"/><path d="M100.92,58.8V53.07h.76v5h2.82v.68Z" style="fill:#231f20"/><path d="M105.31,53.88v-.81H106v.81Zm0,4.92V54.65H106V58.8Z" style="fill:#231f20"/><path d="M107.07,58.8V53.07h.71V58.8Z" style="fill:#231f20"/><path d="M108.83,60.4l-.07-.67a1.25,1.25,0,0,0,.4.07.78.78,0,0,0,.37-.08.61.61,0,0,0,.23-.22A2.74,2.74,0,0,0,110,59a1.2,1.2,0,0,1,.06-.17l-1.57-4.16h.75l.87,2.4q.16.47.3,1a9.34,9.34,0,0,1,.29-.94l.88-2.42h.71l-1.58,4.22a7.36,7.36,0,0,1-.4.94,1.3,1.3,0,0,1-.43.51,1,1,0,0,1-.57.16A1.65,1.65,0,0,1,108.83,60.4Z" style="fill:#231f20"/><path d="M112.45,58.8V58h.81v.8a1.46,1.46,0,0,1-.16.71,1.05,1.05,0,0,1-.5.42l-.19-.3a.67.67,0,0,0,.33-.29,1.12,1.12,0,0,0,.11-.54Z" style="fill:#231f20"/><path d="M116.81,58.8V53.07h2a5.23,5.23,0,0,1,1,.08,2.07,2.07,0,0,1,.84.41,2.44,2.44,0,0,1,.68,1,3.84,3.84,0,0,1,.22,1.36,4.08,4.08,0,0,1-.15,1.16,2.67,2.67,0,0,1-.39.83,2.13,2.13,0,0,1-.52.52,2,2,0,0,1-.69.29,3.6,3.6,0,0,1-.92.1Zm.75-.68h1.23a3.07,3.07,0,0,0,.89-.1,1.28,1.28,0,0,0,.51-.3,1.78,1.78,0,0,0,.42-.73,3.52,3.52,0,0,0,.15-1.1,2.62,2.62,0,0,0-.3-1.38,1.47,1.47,0,0,0-.71-.65,3.28,3.28,0,0,0-1-.11h-1.21Z" style="fill:#231f20"/><path d="M122.5,53.88v-.81h.7v.81Zm0,4.92V54.65h.7V58.8Z" style="fill:#231f20"/><path d="M124.26,58.8V54.65h.64v.63a1.67,1.67,0,0,1,.44-.58.75.75,0,0,1,.45-.14,1.4,1.4,0,0,1,.73.22l-.24.65a1.06,1.06,0,0,0-.52-.15.68.68,0,0,0-.41.14.75.75,0,0,0-.27.39,3,3,0,0,0-.11.82V58.8Z" style="fill:#231f20"/><path d="M129.78,57.46l.72.09a1.72,1.72,0,0,1-.64,1,2.16,2.16,0,0,1-2.63-.21,2.21,2.21,0,0,1-.53-1.57,2.31,2.31,0,0,1,.54-1.63,1.85,1.85,0,0,1,1.4-.57,1.77,1.77,0,0,1,1.36.56,2.27,2.27,0,0,1,.53,1.6s0,.1,0,.18h-3.09a1.57,1.57,0,0,0,.38,1.05,1.17,1.17,0,0,0,.87.36,1,1,0,0,0,.66-.2A1.36,1.36,0,0,0,129.78,57.46Zm-2.31-1.14h2.31a1.44,1.44,0,0,0-.26-.78,1.15,1.15,0,0,0-1.69-.08A1.24,1.24,0,0,0,127.47,56.32Z" style="fill:#231f20"/><path d="M134.09,57.28l.69.09a1.79,1.79,0,0,1-.58,1.12,1.67,1.67,0,0,1-1.14.4,1.74,1.74,0,0,1-1.37-.56,2.22,2.22,0,0,1-.52-1.59,2.89,2.89,0,0,1,.22-1.18,1.6,1.6,0,0,1,.68-.75,2,2,0,0,1,1-.25,1.73,1.73,0,0,1,1.11.34,1.6,1.6,0,0,1,.55,1L134,56a1.13,1.13,0,0,0-.34-.63.91.91,0,0,0-.6-.21,1.11,1.11,0,0,0-.87.38,1.84,1.84,0,0,0-.33,1.21,1.86,1.86,0,0,0,.32,1.21,1,1,0,0,0,.84.38,1,1,0,0,0,.69-.25A1.29,1.29,0,0,0,134.09,57.28Z" style="fill:#231f20"/><path d="M136.92,58.17l.1.62a2.69,2.69,0,0,1-.53.06,1.18,1.18,0,0,1-.59-.12.71.71,0,0,1-.3-.32,2.41,2.41,0,0,1-.09-.83V55.2H135v-.55h.51v-1l.7-.42v1.45h.71v.55h-.71v2.42a1.09,1.09,0,0,0,0,.39.27.27,0,0,0,.12.14.54.54,0,0,0,.24.05Z" style="fill:#231f20"/><path d="M137.35,56.72A2.12,2.12,0,0,1,138,55a1.9,1.9,0,0,1,1.3-.46,1.84,1.84,0,0,1,1.4.56,2.13,2.13,0,0,1,.54,1.54,2.71,2.71,0,0,1-.24,1.26,1.68,1.68,0,0,1-.7.72,2,2,0,0,1-1,.25,1.85,1.85,0,0,1-1.41-.56A2.22,2.22,0,0,1,137.35,56.72Zm.72,0a1.76,1.76,0,0,0,.35,1.2,1.11,1.11,0,0,0,.87.39,1.09,1.09,0,0,0,.87-.4,1.8,1.8,0,0,0,.35-1.21,1.76,1.76,0,0,0-.35-1.17,1.17,1.17,0,0,0-1.74,0A1.73,1.73,0,0,0,138.07,56.72Z" style="fill:#231f20"/><path d="M142.05,58.8V54.65h.63v.63a1.56,1.56,0,0,1,.45-.58.75.75,0,0,1,.45-.14,1.34,1.34,0,0,1,.72.22l-.24.65a1,1,0,0,0-.52-.15.68.68,0,0,0-.41.14.73.73,0,0,0-.26.39,2.66,2.66,0,0,0-.12.82V58.8Z" style="fill:#231f20"/></g></svg>