<svg id="7c2ea07b-18ca-4d0d-941d-fd26f4c8a62d" data-name="Layer 2" xmlns="http://www.w3.org/2000/svg" width="163.33" height="68" viewBox="0 0 163.33 68"><title>16</title><g id="bb5a23b2-70fa-4e02-9fe7-f1dfc6d70273" data-name="16"><path d="M60.77,44.37H58.86c-.16,0-.24-.13-.25-.31s.09-.3.25-.3h1.91c.18,0,.27.12.29.3S61,44.37,60.77,44.37Zm-.5,5.12h-1a.43.43,0,0,1-.47-.48V47.37a.53.53,0,0,1,.55-.6h.9a.53.53,0,0,1,.59.61v1.5C60.81,49.27,60.63,49.49,60.27,49.49Zm.22-6.1H59.08c-.18,0-.26-.12-.27-.31s.09-.31.27-.31h1.41c.18,0,.26.12.27.31S60.67,43.39,60.49,43.39Zm0,2H59.1c-.17,0-.26-.12-.27-.3s.1-.31.27-.31h1.42c.16,0,.24.13.25.31S60.68,45.35,60.52,45.35Zm0,1H59.08c-.16,0-.24-.14-.25-.32s.1-.31.27-.31h1.39a.29.29,0,0,1,.31.31A.29.29,0,0,1,60.5,46.33Zm-.34,1.27c0-.12,0-.18-.14-.18h-.49c-.09,0-.13,0-.13.19v1.06c0,.13,0,.17.13.17H60c.11,0,.14,0,.14-.15Zm5.31-2.3H63.85a6.33,6.33,0,0,1-1.05.87h1.88a.51.51,0,0,1,.56.54v2.23c0,.37-.19.54-.56.54h-2.3c-.38,0-.54-.16-.54-.54v-2a5.17,5.17,0,0,1-.5.29.33.33,0,0,1-.45-.14.32.32,0,0,1,.15-.44A12.18,12.18,0,0,0,63,45.3H61.23c-.16,0-.24-.12-.25-.29s.09-.3.25-.3h1.38v-.77h-1c-.17,0-.26-.12-.27-.3s.1-.3.27-.3h1v-.49c0-.18.14-.26.32-.27s.32.09.32.27v.49H64c.17,0,.26.12.27.3s-.09.3-.27.3h-.75v.77h.3a8.81,8.81,0,0,0,1.21-1.61.38.38,0,0,1,.22-.19.33.33,0,0,1,.42.26.41.41,0,0,1-.07.28,7.13,7.13,0,0,1-.94,1.26h1.08c.16,0,.24.11.25.3S65.63,45.3,65.47,45.3ZM64.59,47a.15.15,0,0,0-.17-.17h-1.8c-.1,0-.16,0-.16.17v.51h2.13Zm0,1.13H62.46v.55c0,.14.08.2.22.2H64.4c.14,0,.19-.06.19-.2Z" style="fill:#231f20"/><path d="M68.17,47.81a1,1,0,0,1-.93,0V49.4c0,.19-.12.29-.31.31s-.32-.12-.32-.31V43.33c0-.37.18-.53.57-.53h.68c.48,0,.66.27.54.75s-.23.88-.28,1.07a1.31,1.31,0,0,0-.1.46.93.93,0,0,0,.18.36A2.28,2.28,0,0,1,68.66,47,1,1,0,0,1,68.17,47.81Zm-.57-2.15a1,1,0,0,1-.24-.51,10.72,10.72,0,0,1,.36-1.48c0-.13,0-.19-.15-.21h-.15c-.12,0-.18,0-.18.2v3.47q.69.39.75-.39A1.84,1.84,0,0,0,67.6,45.66Zm5.6,3.71a6,6,0,0,1-1.87-1.52v1.58a.32.32,0,0,1-.32.35.3.3,0,0,1-.33-.33V47.84a6.55,6.55,0,0,1-1.89,1.52.35.35,0,0,1-.49-.13.27.27,0,0,1,0-.26.31.31,0,0,1,.19-.2A6.34,6.34,0,0,0,70.6,47H69.28a.63.63,0,0,1-.42-.1.56.56,0,0,1-.11-.4V44.8c0-.35.18-.52.57-.52h1.36v-.43H68.92c-.19,0-.28-.13-.29-.31a.29.29,0,0,1,.3-.31h1.75v-.39c0-.18.13-.28.33-.29s.32.12.32.31v.37h2a.29.29,0,0,1,.3.31.29.29,0,0,1-.3.31h-2v.43h1.41c.39,0,.57.14.57.47v1.74c0,.36-.14.53-.49.53H71.48a6.28,6.28,0,0,0,2,1.71.35.35,0,0,1,.17.47A.29.29,0,0,1,73.2,49.37Zm-2.52-4.51H69.56c-.17,0-.24,0-.24.19v.32h1.36Zm0,1.08H69.32v.24c0,.2.08.27.24.27h1.12Zm2-.95c0-.09,0-.13-.18-.13H71.33v.51H72.7Zm0,.95H71.33v.51h1.19c.14,0,.18-.05.18-.21Z" style="fill:#231f20"/><path d="M77.68,43.61h-1v.33h.84a.25.25,0,0,1,.28.27.26.26,0,0,1-.3.25h-.82v.22a5.46,5.46,0,0,0,.85-.15.29.29,0,0,1,.37.21c0,.18-.09.29-.29.33s-.62.12-.93.17v.15c0,.14-.11.2-.28.22s-.32,0-.32-.19v-.09c-.41,0-.81.07-1.22.09a.29.29,0,0,1-.31-.27.27.27,0,0,1,.29-.29c.21,0,.49,0,.85-.06l.39,0v-.3h-1c-.19,0-.29-.08-.31-.25a.28.28,0,0,1,.31-.27h1v-.33H74.92a.26.26,0,0,1-.27-.27.26.26,0,0,1,.28-.26h1.18v-.21c0-.17.12-.26.29-.28s.31.09.31.27v.22h1a.25.25,0,0,1,.27.26A.27.27,0,0,1,77.68,43.61ZM81.37,47h-.62v.32a.4.4,0,0,1-.44.46H75.73c-.16,0-.24-.11-.25-.27s.09-.26.25-.26H80c.06,0,.1,0,.1-.15V47H74.91a.26.26,0,0,1-.28-.26.26.26,0,0,1,.28-.26h5.22v-.17c0-.08,0-.08-.07-.08H75.78a.26.26,0,1,1,0-.52h4.53c.28,0,.44.18.44.5v.27h.62a.25.25,0,0,1,.27.26A.24.24,0,0,1,81.37,47ZM75.3,49.43a.45.45,0,0,1-.28.11.31.31,0,0,1-.29-.39.6.6,0,0,1,.16-.26,3.85,3.85,0,0,0,.65-.76A.34.34,0,0,1,76,48c.18.12.15.33.06.5A3.71,3.71,0,0,1,75.3,49.43Zm4.57,0a1.45,1.45,0,0,1-.86.19H77.84c-.78,0-1.16-.25-1.16-.81v-.65c0-.2.14-.28.33-.29s.32.09.32.29v.55a.26.26,0,0,0,.11.25.66.66,0,0,0,.39.07H79a.74.74,0,0,0,.4-.07.35.35,0,0,0,.12-.26.3.3,0,0,1,.32-.25c.17,0,.28.09.28.26A.86.86,0,0,1,79.87,49.4Zm-1-.66c-.16.11-.3.11-.41,0s-.13-.14-.33-.39a.27.27,0,0,1,0-.4c.16-.12.3-.13.42,0l.11.13a2.91,2.91,0,0,1,.2.27A.3.3,0,0,1,78.85,48.74Zm2.58-3.51H80.12v.19c0,.16-.13.2-.3.21s-.3-.05-.3-.21v-.19H78.33a.26.26,0,0,1-.28-.25.27.27,0,0,1,.28-.27h1.19v-.29h-.89a.26.26,0,1,1,0-.52h.89v-.29H78.44a.25.25,0,0,1-.26-.27.24.24,0,0,1,.26-.26h1.08v-.22c0-.17.11-.26.3-.27s.3.1.3.27v.22h1.19c.17,0,.25.09.27.26s-.1.27-.27.27H80.12v.29h.95c.16,0,.24.11.24.27a.27.27,0,0,1-.28.25h-.91v.29h1.31c.16,0,.25.1.27.27A.25.25,0,0,1,81.43,45.23Zm-.36,4.08a9.66,9.66,0,0,0-.68-.7c-.16-.16-.38-.36-.18-.6a.33.33,0,0,1,.47,0,7.11,7.11,0,0,1,.84.88.33.33,0,0,1,0,.47A.31.31,0,0,1,81.07,49.31Z" style="fill:#231f20"/><path d="M85,49.12a9.57,9.57,0,0,1-.79-.77,5.58,5.58,0,0,1-1.09,1.23.31.31,0,0,1-.46,0,.33.33,0,0,1,0-.47,5.6,5.6,0,0,0,1-1.19c-.13-.15-.29-.32-.5-.52s-.44-.45-.41-.58a1.12,1.12,0,0,1,.1-.39,15,15,0,0,0,.53-2H83c-.19,0-.27-.13-.28-.33s.09-.32.28-.32h.52c0-.38.07-.68.09-.92s.15-.25.34-.23.29.14.28.31,0,.32-.09.85h.6c.35,0,.49.23.44.7a11,11,0,0,1-.7,3.27l.68.69c.1.09.17.18.23.24a.32.32,0,1,1-.44.47Zm-.52-4.73H84a19.34,19.34,0,0,1-.49,2.06.69.69,0,0,0-.06.27c0,.05.12.22.51.53a9.77,9.77,0,0,0,.55-2.51C84.57,44.5,84.56,44.38,84.43,44.39Zm5.08,3.29a.38.38,0,0,1-.45.25.33.33,0,0,1-.18-.47,2.62,2.62,0,0,0,.21-.7c0-.11,0-.16-.14-.16H85.83a.19.19,0,0,0-.21.17v.76c0,.21-.1.35-.29.36s-.29-.15-.29-.36v-1c0-.38.18-.58.54-.58h3.64c.37,0,.53.27.53.66A4.54,4.54,0,0,1,89.51,47.68Zm-.16-4H85.44c-.2,0-.3-.12-.32-.32a.31.31,0,0,1,.32-.32h1.64v-.3c0-.19.14-.28.33-.29s.33.1.33.29V43h1.61c.18,0,.26.14.28.32S89.53,43.66,89.35,43.66Zm-.86,4h-.74v1.53c0,.38-.22.54-.63.59a2.31,2.31,0,0,1-1.36-.26.31.31,0,0,1-.15-.43.34.34,0,0,1,.45-.15,2.17,2.17,0,0,0,.85.15c.12,0,.17,0,.17-.19V47.65h-1a.31.31,0,0,1,0-.62h2.4a.31.31,0,0,1,0,.62Zm.3-2H86.12c-.32,0-.48-.15-.48-.46V44.4c0-.3.17-.45.5-.45h2.55c.37,0,.55.2.55.59v.6C89.24,45.47,89.09,45.64,88.79,45.64Zm-.18-.94c0-.15,0-.17-.09-.17H86.4c-.1,0-.14,0-.14.17v.2c0,.12,0,.17.14.17h2.12c.08,0,.09-.06.09-.19Z" style="fill:#231f20"/><path d="M93.05,46.74a.24.24,0,0,1-.34-.17l-.08-.2-.35,0v3a.28.28,0,0,1-.29.29c-.19,0-.31-.1-.31-.28v-3l-.36,0-.46,0a.27.27,0,0,1-.29-.27c0-.19.08-.31.24-.33l.19,0a4.64,4.64,0,0,0,.44-.65c-.15-.17-.41-.44-.77-.8a.29.29,0,0,1,0-.44.32.32,0,0,1,.41,0c.2-.36.36-.75.56-1.12a.34.34,0,0,1,.43-.16.28.28,0,0,1,.15.4,8.47,8.47,0,0,1-.61,1.19,1,1,0,0,1-.08.15l.26.26c.18-.29.36-.6.52-.92a.31.31,0,0,1,.45-.15.37.37,0,0,1,.08.49,13.67,13.67,0,0,1-1.12,1.78l.73-.07-.1-.23a.25.25,0,0,1,.13-.34.27.27,0,0,1,.37.12,7.38,7.38,0,0,1,.38,1A.27.27,0,0,1,93.05,46.74ZM91.28,49a.34.34,0,0,1-.36.32.32.32,0,0,1-.24-.41,14.88,14.88,0,0,0,.16-1.73.32.32,0,0,1,.33-.32c.19,0,.28.14.27.35A11.07,11.07,0,0,1,91.28,49Zm1.7-.49a.28.28,0,0,1-.34-.25,6,6,0,0,0-.09-.61l-.07-.32a.3.3,0,0,1,.21-.35c.18,0,.31,0,.35.19a5.54,5.54,0,0,1,.17,1A.3.3,0,0,1,93,48.55Zm.63.66a.31.31,0,0,1-.4.19A.29.29,0,0,1,93,49a8.41,8.41,0,0,0,.4-1.67.31.31,0,1,1,.61.06A6.82,6.82,0,0,1,93.61,49.21Zm3.11-2.49H93.78c-.38,0-.55-.23-.55-.66V43.62a.51.51,0,0,1,.13-.4.8.8,0,0,1,.48-.11h.87c.09-.13.16-.31.22-.4a.38.38,0,0,1,.44-.19.24.24,0,0,1,.18.36,2.29,2.29,0,0,1-.1.23h1.33a.88.88,0,0,1,.53.12.47.47,0,0,1,.14.41v2.5C97.45,46.54,97.21,46.72,96.72,46.72Zm.11-2.81c0-.14-.06-.21-.21-.21H94.05c-.14,0-.21.07-.21.16V46c0,.09,0,.14.23.14h2.6c.12,0,.16,0,.16-.14ZM96,45.17a1.84,1.84,0,0,1,.47.37.26.26,0,0,1,0,.36.27.27,0,0,1-.37,0l-.55-.4a3.36,3.36,0,0,1-1.12.48.29.29,0,0,1-.38-.17.25.25,0,0,1,.21-.34,4,4,0,0,0,.85-.31c-.08-.06-.3-.18-.47-.28a1.94,1.94,0,0,1-.31.26.27.27,0,0,1-.37,0c-.15-.23,0-.35.16-.46a5.61,5.61,0,0,0,.68-.62.42.42,0,0,1,.35-.2h1.08c.32,0,.48.13.4.4A2.46,2.46,0,0,1,96,45.17Zm0,4.39h-.92c-.51,0-.8-.17-.8-.55V47.1c0-.17.13-.25.29-.26s.3.08.3.25v1.62c0,.13,0,.19.08.22a1,1,0,0,0,.39,0,2.33,2.33,0,0,0,.7,0c.08,0,.12-.15.12-.4a.29.29,0,0,1,.31-.28.28.28,0,0,1,.28.3C96.78,49.2,96.53,49.56,96,49.56Zm-.18-5.17h-.64l-.17.16c.19.11.42.23.51.3a1.56,1.56,0,0,0,.36-.38A.06.06,0,0,0,95.85,44.39Zm0,4a.3.3,0,0,1-.39-.25,8.26,8.26,0,0,0-.25-1,.25.25,0,0,1,.19-.34c.18,0,.33,0,.39.17a4.86,4.86,0,0,1,.28,1.07A.31.31,0,0,1,95.87,48.41Zm1.6,1a.32.32,0,0,1-.38-.24,11,11,0,0,0-.6-1.78.28.28,0,0,1,.16-.4.33.33,0,0,1,.43.17A7.64,7.64,0,0,1,97.71,49,.33.33,0,0,1,97.47,49.37Z" style="fill:#231f20"/><path d="M101,48.4a7.09,7.09,0,0,1-2.1,1,.31.31,0,0,1-.42-.17c-.1-.35.14-.45.4-.54l.53-.21V46.19h-.59c-.19,0-.28-.13-.3-.33s.11-.31.3-.31h.59V43.62h-.63c-.19,0-.27-.12-.29-.31s.1-.32.29-.32h1.76a.3.3,0,0,1,.32.32.3.3,0,0,1-.32.31H100v1.93h.59a.29.29,0,0,1,.3.31c0,.2-.11.33-.3.33H100v2l.55-.33a.3.3,0,0,1,.44,0A.32.32,0,0,1,101,48.4Zm4.61,1.06h-4.48c-.19,0-.28-.13-.28-.33a.3.3,0,0,1,.32-.28H103V48h-1.52c-.18,0-.26-.12-.27-.31s.11-.3.29-.3H103v-.81h-1.32A.55.55,0,0,1,101,46V43.44a.56.56,0,0,1,.63-.63H105c.4,0,.58.19.58.61V46a.55.55,0,0,1-.63.61h-1.3v.81h1.69c.18,0,.26.12.28.3s-.1.31-.28.31h-1.69v.84h1.94c.19,0,.28.12.3.31S105.75,49.46,105.56,49.46Zm-2.59-6h-1.09c-.14,0-.19.06-.19.21v.77H103ZM103,45h-1.28v.76c0,.15.06.21.21.21H103Zm1.93-1.33c0-.19-.05-.26-.18-.26h-1.1v1h1.28Zm0,1.33h-1.28v1h1.12c.12,0,.16,0,.16-.25Z" style="fill:#231f20"/><path d="M23,58.8V53.07h1.14l1.36,4.06.27.84c.06-.2.17-.51.3-.91l1.38-4h1V58.8h-.73V54L26,58.8h-.68l-1.66-4.88V58.8Z" style="fill:#231f20"/><path d="M29.54,58.8V54.65h.63v.63a1.56,1.56,0,0,1,.45-.58.75.75,0,0,1,.45-.14,1.34,1.34,0,0,1,.72.22l-.24.65a1,1,0,0,0-.51-.15.68.68,0,0,0-.42.14.73.73,0,0,0-.26.39,2.66,2.66,0,0,0-.12.82V58.8Z" style="fill:#231f20"/><path d="M31.93,57.56l.7-.11a.92.92,0,0,0,.32.64,1.14,1.14,0,0,0,.75.22,1.13,1.13,0,0,0,.72-.19.63.63,0,0,0,.23-.47.43.43,0,0,0-.2-.37,3.52,3.52,0,0,0-.72-.24,6.07,6.07,0,0,1-1.08-.34,1.07,1.07,0,0,1-.45-.39,1.09,1.09,0,0,1-.15-.56,1.13,1.13,0,0,1,.12-.51,1.22,1.22,0,0,1,.35-.4,1.59,1.59,0,0,1,.45-.2,2,2,0,0,1,.6-.08,2.25,2.25,0,0,1,.86.14,1.15,1.15,0,0,1,.55.38,1.5,1.5,0,0,1,.24.64l-.69.09a.75.75,0,0,0-.27-.5,1,1,0,0,0-.63-.18,1.22,1.22,0,0,0-.7.16.5.5,0,0,0-.2.38.41.41,0,0,0,.08.24.62.62,0,0,0,.27.19l.62.18a6.83,6.83,0,0,1,1,.33,1,1,0,0,1,.64,1,1.17,1.17,0,0,1-.21.66,1.29,1.29,0,0,1-.59.48,2.23,2.23,0,0,1-.88.17,2,2,0,0,1-1.23-.33A1.61,1.61,0,0,1,31.93,57.56Z" style="fill:#231f20"/><path d="M36.41,58.8V58h.8v.8Z" style="fill:#231f20"/><path d="M40.74,58.8V53.07h.78l3,4.5v-4.5h.73V58.8h-.78l-3-4.5v4.5Z" style="fill:#231f20"/><path d="M49.14,58.29a2.58,2.58,0,0,1-.75.46,2,2,0,0,1-.78.14,1.54,1.54,0,0,1-1-.33,1.13,1.13,0,0,1-.36-.86,1.12,1.12,0,0,1,.13-.55,1.23,1.23,0,0,1,.37-.41,1.75,1.75,0,0,1,.5-.23,6,6,0,0,1,.63-.1,5.84,5.84,0,0,0,1.25-.25,1.53,1.53,0,0,0,0-.18.76.76,0,0,0-.2-.6,1.18,1.18,0,0,0-.8-.24,1.33,1.33,0,0,0-.74.17,1.14,1.14,0,0,0-.35.62l-.68-.1a1.6,1.6,0,0,1,.31-.71,1.36,1.36,0,0,1,.62-.42,2.7,2.7,0,0,1,.94-.14,2.58,2.58,0,0,1,.86.12,1.15,1.15,0,0,1,.49.31,1.18,1.18,0,0,1,.22.48,4.68,4.68,0,0,1,0,.65v.94a9.55,9.55,0,0,0,.05,1.24,1.58,1.58,0,0,0,.18.5h-.74A1.59,1.59,0,0,1,49.14,58.29Zm-.06-1.57a5.24,5.24,0,0,1-1.15.26,2.78,2.78,0,0,0-.61.14.58.58,0,0,0-.37.56.59.59,0,0,0,.21.47.89.89,0,0,0,.62.19,1.43,1.43,0,0,0,.72-.18,1.09,1.09,0,0,0,.47-.48,1.67,1.67,0,0,0,.11-.71Z" style="fill:#231f20"/><path d="M52.42,58.17l.1.62a2.69,2.69,0,0,1-.53.06,1.18,1.18,0,0,1-.59-.12.66.66,0,0,1-.3-.32,2.41,2.41,0,0,1-.09-.83V55.2H50.5v-.55H51v-1l.7-.42v1.45h.71v.55h-.71v2.42a1.09,1.09,0,0,0,0,.39.27.27,0,0,0,.12.14.54.54,0,0,0,.24.05Z" style="fill:#231f20"/><path d="M55.81,58.29a2.58,2.58,0,0,1-.75.46,2,2,0,0,1-.77.14,1.5,1.5,0,0,1-1-.33,1.11,1.11,0,0,1-.37-.86,1,1,0,0,1,.14-.55,1.1,1.1,0,0,1,.36-.41,1.69,1.69,0,0,1,.51-.23,5.34,5.34,0,0,1,.62-.1,5.84,5.84,0,0,0,1.25-.25,1.53,1.53,0,0,0,0-.18.76.76,0,0,0-.2-.6,1.18,1.18,0,0,0-.8-.24,1.27,1.27,0,0,0-.73.17,1,1,0,0,0-.35.62l-.69-.1a1.6,1.6,0,0,1,.31-.71,1.36,1.36,0,0,1,.62-.42,2.7,2.7,0,0,1,.94-.14,2.58,2.58,0,0,1,.86.12,1.15,1.15,0,0,1,.49.31,1.06,1.06,0,0,1,.22.48,4.27,4.27,0,0,1,0,.65v.94a10.35,10.35,0,0,0,0,1.24,1.58,1.58,0,0,0,.18.5H56A1.59,1.59,0,0,1,55.81,58.29Zm-.06-1.57a5.12,5.12,0,0,1-1.14.26,2.76,2.76,0,0,0-.62.14.62.62,0,0,0-.37.56.59.59,0,0,0,.21.47.89.89,0,0,0,.62.19,1.44,1.44,0,0,0,.73-.18,1.12,1.12,0,0,0,.46-.48,1.67,1.67,0,0,0,.11-.71Z" style="fill:#231f20"/><path d="M57.54,58.8V53.07h.7V58.8Z" style="fill:#231f20"/><path d="M59.34,53.88v-.81H60v.81Zm0,4.92V54.65H60V58.8Z" style="fill:#231f20"/><path d="M64,57.46l.73.09a1.78,1.78,0,0,1-.64,1,2,2,0,0,1-1.19.35,1.91,1.91,0,0,1-1.44-.56,2.16,2.16,0,0,1-.53-1.57,2.35,2.35,0,0,1,.53-1.63,1.85,1.85,0,0,1,1.4-.57,1.75,1.75,0,0,1,1.36.56,2.27,2.27,0,0,1,.53,1.6v.18H61.6A1.62,1.62,0,0,0,62,58a1.15,1.15,0,0,0,.87.36,1.08,1.08,0,0,0,.66-.2A1.35,1.35,0,0,0,64,57.46Zm-2.31-1.14H64a1.36,1.36,0,0,0-.27-.78,1.07,1.07,0,0,0-.87-.41,1.1,1.1,0,0,0-.81.33A1.25,1.25,0,0,0,61.64,56.32Z" style="fill:#231f20"/><path d="M72,56.79l.76.19a2.55,2.55,0,0,1-.86,1.42,2.36,2.36,0,0,1-1.52.5,2.73,2.73,0,0,1-1.5-.38A2.34,2.34,0,0,1,68,57.43a3.78,3.78,0,0,1-.31-1.54A3.48,3.48,0,0,1,68,54.33a2.39,2.39,0,0,1,1-1A2.84,2.84,0,0,1,70.36,53a2.35,2.35,0,0,1,1.44.44,2.3,2.3,0,0,1,.82,1.23l-.75.18a1.7,1.7,0,0,0-.58-.91,1.53,1.53,0,0,0-1-.29,1.84,1.84,0,0,0-1.1.32,1.64,1.64,0,0,0-.63.85,3.38,3.38,0,0,0-.18,1.1,3.51,3.51,0,0,0,.22,1.27,1.56,1.56,0,0,0,.66.82,1.84,1.84,0,0,0,1,.27,1.64,1.64,0,0,0,1.08-.37A1.93,1.93,0,0,0,72,56.79Z" style="fill:#231f20"/><path d="M73.67,58.8V53.07h.76v2.35h3V53.07h.75V58.8h-.75V56.1h-3v2.7Z" style="fill:#231f20"/><path d="M78.8,58.8,81,53.07h.81l2.35,5.73h-.87l-.66-1.74h-2.4L79.6,58.8Zm1.65-2.35h1.94l-.6-1.59c-.18-.48-.31-.88-.4-1.19a7.55,7.55,0,0,1-.31,1.1Z" style="fill:#231f20"/><path d="M84.75,58.8V53.07h.78l3,4.5v-4.5h.73V58.8h-.78l-3-4.5v4.5Z" style="fill:#231f20"/><path d="M96.85,56.79l.76.19a2.55,2.55,0,0,1-.86,1.42,2.35,2.35,0,0,1-1.51.5,2.75,2.75,0,0,1-1.51-.38,2.34,2.34,0,0,1-.88-1.09,4,4,0,0,1-.31-1.54,3.35,3.35,0,0,1,.35-1.56,2.31,2.31,0,0,1,1-1A2.84,2.84,0,0,1,95.25,53a2.35,2.35,0,0,1,1.44.44,2.25,2.25,0,0,1,.82,1.23l-.75.18a1.7,1.7,0,0,0-.58-.91,1.53,1.53,0,0,0-1-.29,1.84,1.84,0,0,0-1.1.32,1.64,1.64,0,0,0-.63.85,3.67,3.67,0,0,0-.18,1.1,3.51,3.51,0,0,0,.22,1.27,1.56,1.56,0,0,0,.66.82,1.84,1.84,0,0,0,1,.27,1.64,1.64,0,0,0,1.08-.37A1.87,1.87,0,0,0,96.85,56.79Z" style="fill:#231f20"/><path d="M98.56,58.8V53.07h.76v2.35h3V53.07h.76V58.8h-.76V56.1h-3v2.7Z" style="fill:#231f20"/><path d="M108.07,53.07h.76v3.31a3.92,3.92,0,0,1-.19,1.37,1.72,1.72,0,0,1-.71.83,2.51,2.51,0,0,1-1.34.32,2.79,2.79,0,0,1-1.31-.28,1.56,1.56,0,0,1-.73-.81,3.66,3.66,0,0,1-.22-1.43V53.07h.76v3.31a3.08,3.08,0,0,0,.14,1.1,1.07,1.07,0,0,0,.47.54,1.64,1.64,0,0,0,.83.19,1.55,1.55,0,0,0,1.19-.38,2.16,2.16,0,0,0,.35-1.45Z" style="fill:#231f20"/><path d="M110.19,58.8V58h.8v.8a1.36,1.36,0,0,1-.16.71,1,1,0,0,1-.49.42l-.2-.3a.67.67,0,0,0,.33-.29,1.23,1.23,0,0,0,.12-.54Z" style="fill:#231f20"/><path d="M114.54,58.8V53.07h2a5.09,5.09,0,0,1,1,.08,2.07,2.07,0,0,1,.84.41,2.44,2.44,0,0,1,.68,1,3.84,3.84,0,0,1,.22,1.36,4.08,4.08,0,0,1-.15,1.16,2.67,2.67,0,0,1-.39.83,2,2,0,0,1-.52.52,2,2,0,0,1-.68.29,3.71,3.71,0,0,1-.92.1Zm.76-.68h1.22a3,3,0,0,0,.89-.1,1.21,1.21,0,0,0,.51-.3,1.78,1.78,0,0,0,.42-.73,3.52,3.52,0,0,0,.15-1.1,2.63,2.63,0,0,0-.29-1.38,1.53,1.53,0,0,0-.72-.65,3.23,3.23,0,0,0-1-.11h-1.2Z" style="fill:#231f20"/><path d="M120.23,53.88v-.81h.7v.81Zm0,4.92V54.65h.7V58.8Z" style="fill:#231f20"/><path d="M122,58.8V54.65h.63v.63a1.56,1.56,0,0,1,.45-.58.71.71,0,0,1,.45-.14,1.34,1.34,0,0,1,.72.22l-.24.65a1,1,0,0,0-.52-.15.68.68,0,0,0-.41.14.73.73,0,0,0-.26.39,2.66,2.66,0,0,0-.12.82V58.8Z" style="fill:#231f20"/><path d="M127.51,57.46l.73.09a1.78,1.78,0,0,1-.64,1,2,2,0,0,1-1.19.35,1.89,1.89,0,0,1-1.44-.56,2.17,2.17,0,0,1-.54-1.57,2.31,2.31,0,0,1,.54-1.63,1.85,1.85,0,0,1,1.4-.57,1.75,1.75,0,0,1,1.36.56,2.27,2.27,0,0,1,.53,1.6,1.36,1.36,0,0,1,0,.18h-3.09a1.62,1.62,0,0,0,.39,1.05,1.15,1.15,0,0,0,.86.36,1,1,0,0,0,.66-.2A1.29,1.29,0,0,0,127.51,57.46Zm-2.31-1.14h2.32a1.36,1.36,0,0,0-.27-.78,1.07,1.07,0,0,0-.87-.41,1.1,1.1,0,0,0-.81.33A1.25,1.25,0,0,0,125.2,56.32Z" style="fill:#231f20"/><path d="M131.82,57.28l.7.09a1.84,1.84,0,0,1-.58,1.12,1.7,1.7,0,0,1-1.15.4,1.76,1.76,0,0,1-1.37-.56,2.27,2.27,0,0,1-.52-1.59,2.89,2.89,0,0,1,.23-1.18,1.53,1.53,0,0,1,.67-.75,2,2,0,0,1,1-.25,1.73,1.73,0,0,1,1.11.34,1.55,1.55,0,0,1,.55,1l-.68.1a1.14,1.14,0,0,0-.35-.63.88.88,0,0,0-.6-.21,1.1,1.1,0,0,0-.86.38,1.84,1.84,0,0,0-.33,1.21,1.81,1.81,0,0,0,.32,1.21,1,1,0,0,0,.83.38,1,1,0,0,0,.69-.25A1.19,1.19,0,0,0,131.82,57.28Z" style="fill:#231f20"/><path d="M134.65,58.17l.1.62a2.61,2.61,0,0,1-.53.06,1.21,1.21,0,0,1-.59-.12.71.71,0,0,1-.3-.32,2.81,2.81,0,0,1-.08-.83V55.2h-.52v-.55h.52v-1l.7-.42v1.45h.7v.55H134v2.42a1.55,1.55,0,0,0,0,.39.41.41,0,0,0,.12.14.54.54,0,0,0,.24.05Z" style="fill:#231f20"/><path d="M135.08,56.72a2.12,2.12,0,0,1,.64-1.7,1.92,1.92,0,0,1,1.3-.46,1.84,1.84,0,0,1,1.4.56,2.13,2.13,0,0,1,.55,1.54,2.71,2.71,0,0,1-.24,1.26,1.74,1.74,0,0,1-.7.72,2,2,0,0,1-1,.25,1.81,1.81,0,0,1-1.4-.56A2.22,2.22,0,0,1,135.08,56.72Zm.72,0a1.81,1.81,0,0,0,.35,1.2,1.11,1.11,0,0,0,.87.39,1.12,1.12,0,0,0,.88-.4,1.8,1.8,0,0,0,.34-1.21,1.71,1.71,0,0,0-.35-1.17,1.17,1.17,0,0,0-1.74,0A1.78,1.78,0,0,0,135.8,56.72Z" style="fill:#231f20"/><path d="M139.78,58.8V54.65h.63v.63a1.8,1.8,0,0,1,.45-.58.75.75,0,0,1,.45-.14,1.4,1.4,0,0,1,.73.22l-.25.65a1,1,0,0,0-.51-.15.71.71,0,0,0-.42.14.73.73,0,0,0-.26.39,2.67,2.67,0,0,0-.11.82V58.8Z" style="fill:#231f20"/><polygon points="65.93 22.61 64.73 23.81 66.43 23.81 67.63 22.61 65.93 22.61" style="fill:#b55c31"/><polygon points="67.63 26.21 66.43 25.01 64.73 25.01 65.93 26.21 67.63 26.21" style="fill:#b55c31"/><polygon points="47.05 22.61 45.35 22.61 46.55 23.81 48.25 23.81 47.05 22.61" style="fill:#b55c31"/><polygon points="47.05 26.21 48.25 25.01 46.55 25.01 45.35 26.21 47.05 26.21" style="fill:#b55c31"/><polygon points="54.69 13.27 54.69 14.97 55.89 16.17 55.89 14.47 54.69 13.27" style="fill:#b55c31"/><polygon points="58.29 13.27 57.09 14.47 57.09 16.17 58.29 14.97 58.29 13.27" style="fill:#b55c31"/><polygon points="54.69 33.85 54.69 35.55 55.89 34.35 55.89 32.65 54.69 33.85" style="fill:#b55c31"/><polygon points="58.29 33.85 57.09 32.65 57.09 34.35 58.29 35.55 58.29 33.85" style="fill:#b55c31"/><polygon points="59.49 18.86 56.49 21.86 53.48 18.86 53.48 20.56 56.49 23.56 59.49 20.56 59.49 18.86" style="fill:#b55c31"/><polygon points="59.49 28.26 56.49 25.26 53.48 28.26 53.48 29.96 56.49 26.96 59.49 29.96 59.49 28.26" style="fill:#b55c31"/><polygon points="50.94 27.41 52.64 27.41 55.64 24.41 52.64 21.41 50.94 21.41 53.94 24.41 50.94 27.41" style="fill:#b55c31"/><polygon points="62.03 27.41 59.03 24.41 62.03 21.41 60.34 21.41 57.34 24.41 60.34 27.41 62.03 27.41" style="fill:#b55c31"/><polygon points="52.28 14.27 52.28 15.96 55.89 19.57 55.89 17.87 52.28 14.27" style="fill:#b55c31"/><polygon points="60.69 14.27 57.09 17.87 57.09 19.57 60.69 15.96 60.69 14.27" style="fill:#b55c31"/><polygon points="60.69 32.86 57.09 29.26 57.09 30.95 60.69 34.56 60.69 32.86" style="fill:#b55c31"/><polygon points="52.28 32.86 52.28 34.56 55.89 30.95 55.89 29.26 52.28 32.86" style="fill:#b55c31"/><polygon points="46.34 20.21 49.94 23.81 51.64 23.81 48.04 20.21 46.34 20.21" style="fill:#b55c31"/><polygon points="64.93 20.21 61.33 23.81 63.03 23.81 66.63 20.21 64.93 20.21" style="fill:#b55c31"/><polygon points="48.04 28.61 51.64 25.01 49.94 25.01 46.34 28.61 48.04 28.61" style="fill:#b55c31"/><polygon points="66.63 28.61 63.03 25.01 61.33 25.01 64.93 28.61 66.63 28.61" style="fill:#b55c31"/><polygon points="49.88 15.26 49.88 16.96 52.28 19.36 52.28 17.66 49.88 15.26" style="fill:#b55c31"/><polygon points="49.03 17.81 47.34 17.81 49.74 20.21 51.44 20.21 49.03 17.81" style="fill:#b55c31"/><polygon points="63.09 15.26 60.69 17.66 60.69 19.36 63.09 16.96 63.09 15.26" style="fill:#b55c31"/><polygon points="63.94 17.81 61.54 20.21 63.23 20.21 65.64 17.81 63.94 17.81" style="fill:#b55c31"/><polygon points="49.03 31.02 51.44 28.61 49.74 28.61 47.34 31.02 49.03 31.02" style="fill:#b55c31"/><polygon points="49.88 31.86 49.88 33.56 52.28 31.16 52.28 29.46 49.88 31.86" style="fill:#b55c31"/><polygon points="65.64 31.02 63.24 28.61 61.54 28.61 63.94 31.02 65.64 31.02" style="fill:#b55c31"/><polygon points="63.09 31.86 60.69 29.46 60.69 31.16 63.09 33.56 63.09 31.86" style="fill:#b55c31"/><path d="M87.79,13.33v.1a4.75,4.75,0,0,0-1.21,2.16l-2.46,7.84H82.59l-2.74-8.3a3.57,3.57,0,0,0-1-1.7v-.1H82v.1c-.46.39-.54.62-.54.86a2.75,2.75,0,0,0,.18.79l2.45,7.41,2.15-6.9a3.07,3.07,0,0,0,.19-.86c0-.44-.26-.69-1.2-1.3v-.1Z" style="fill:#b55c31"/><path d="M94.5,14.69c-1.57-1-2.13-1.21-2.75-1.21-1.09,0-1.78.59-1.78,1.55s.79,1.57,2.27,2.46,2.58,1.62,2.58,3.2-1.27,2.91-3.39,2.91a7.74,7.74,0,0,1-2.74-.49l-.36-1.6.09,0c1.65,1.47,2.27,1.8,3.13,1.8a1.73,1.73,0,0,0,1.9-1.78c0-1.16-.81-1.67-2.36-2.6s-2.49-1.66-2.49-3.11,1.21-2.63,3.32-2.63a11.44,11.44,0,0,1,2.61.32l0,1.18Z" style="fill:#b55c31"/><path d="M98.62,13.65v4.6a36.59,36.59,0,0,0,3.91-.29h0v.91h0a34.94,34.94,0,0,0-3.91-.3v3.5c0,.54.14.72.81,1.26v.1h-3.2v-.1c.62-.52.74-.72.74-1.29V14.73c0-.57-.12-.78-.74-1.3v-.1h6.82l0,1.28-.06,0c-2-.81-2.55-1-3.1-1Z" style="fill:#b55c31"/><path d="M109.35,23.6c-3.2,0-5-1.93-5-5.15s2.15-5.29,5.44-5.29a20.11,20.11,0,0,1,2.59.2l.08,1.25-.08,0c-1.8-.9-2.41-1.1-3.18-1.1-2.46,0-3,2.06-3,4.85,0,3,.59,4.9,3.22,4.9a5.16,5.16,0,0,0,1.06-.1V20.07c0-.49-.1-.68-.64-1.17v-.1h2.89v.1c-.53.49-.64.68-.64,1.17v3.09a9,9,0,0,1-2.72.44" style="fill:#b55c31"/><path d="M101.32,25.47s-.58,2-4.45,4.61l0,.17s2.71-.85,5.52-4.48Z" style="fill:#b55c31"/><path d="M102.06,26a16.1,16.1,0,0,0,4.69,3.17l-.71.68s-3-1.58-4.09-3.79Z" style="fill:#b55c31"/><polygon points="106.35 34.47 97.25 34.83 97.25 35.02 106.35 34.66 106.35 34.47" style="fill:#b55c31"/><polygon points="105.81 30.97 97.64 31.31 97.64 31.5 105.81 31.16 105.81 30.97" style="fill:#b55c31"/><polygon points="104.04 29.06 99.15 29.27 99.15 29.45 104.04 29.25 104.04 29.06" style="fill:#b55c31"/><polygon points="114.06 26.28 108.85 26.49 108.85 26.68 114.06 26.47 114.06 26.28" style="fill:#b55c31"/><polygon points="118.23 34.18 114.11 34.35 114.11 34.54 118.23 34.37 118.23 34.18" style="fill:#b55c31"/><polygon points="112.82 32.16 109.87 32.27 109.87 32.46 112.82 32.35 112.82 32.16" style="fill:#b55c31"/><polygon points="112.56 27.38 109.75 27.49 109.75 27.68 112.56 27.57 112.56 27.38" style="fill:#b55c31"/><polygon points="112.73 29.06 109.92 29.17 109.92 29.36 112.73 29.25 112.73 29.06" style="fill:#b55c31"/><rect x="101.38" y="29.24" width="0.72" height="5.5" style="fill:#b55c31"/><path d="M99.93,34.18c-.05-.15-.11-.31-.19-.49s-.17-.34-.27-.52-.2-.35-.3-.51a4.13,4.13,0,0,0-.32-.46l.11-.1a4.23,4.23,0,0,1,.42.3c.15.12.31.25.46.39a6,6,0,0,1,.45.42c.14.14.26.28.37.41Z" style="fill:#b55c31"/><path d="M102.83,34.05l-.1-.09a6.67,6.67,0,0,0,.69-1.18,6.78,6.78,0,0,0,.4-1.06l.92.6a8.88,8.88,0,0,1-.79.87,7.26,7.26,0,0,1-1.12.86" style="fill:#b55c31"/><polygon points="112.56 27.38 113.16 27.15 113.16 29.38 112.56 29.6 112.56 27.38" style="fill:#b55c31"/><polygon points="111.03 32.35 111.62 32.33 111.62 34.56 111.03 34.79 111.03 32.35" style="fill:#b55c31"/><path d="M110.12,29.6l-.6.23V27.9a.27.27,0,0,0-.06-.17.43.43,0,0,0-.21-.12l.87-.35Z" style="fill:#b55c31"/><polygon points="113.06 30.1 109.28 30.25 109.28 30.44 113.06 30.29 113.06 30.1" style="fill:#b55c31"/><path d="M109.65,35.14l-.61.23V30.66a.32.32,0,0,0-.06-.18.38.38,0,0,0-.21-.11l.88-.35Z" style="fill:#b55c31"/><polygon points="113.06 30.1 113.07 34.66 112.02 34.47 111.98 34.58 113.66 35.45 113.66 29.86 113.06 30.1" style="fill:#b55c31"/><path d="M111.39,32.22a3.84,3.84,0,0,0,.17-.35l.15-.39c.05-.13.1-.27.14-.4a3.15,3.15,0,0,0,.09-.36l.87.25a3.48,3.48,0,0,1-.26.3c-.09.11-.19.21-.3.32l-.31.31-.42.35Z" style="fill:#b55c31"/><path d="M110.7,32.32c-.11-.24-.24-.53-.37-.77a4.47,4.47,0,0,0-.43-.62l.07-.1a6,6,0,0,1,.72.47,6.27,6.27,0,0,1,.62.56l-.47.44Z" style="fill:#b55c31"/><path d="M116.48,25.55l-.9.37a.42.42,0,0,1,.23.13.31.31,0,0,1,.08.19v1.5l-1,0v-.19L114,28a.34.34,0,0,1,.23.13.29.29,0,0,1,.08.19v3.94l.59-.24v-.69l1,0v3.18l.59-.06V31.22l1,0v.87l.59-.2v-4.4l-.55.23-1,0Zm-.59,5.55-1,0V27.92l1,0Zm1.55-.06-1,0V27.87l1,0Z" style="fill:#b55c31"/><path d="M118.12,35.43a10.36,10.36,0,0,0-.32-1.34,5.75,5.75,0,0,0-.56-1.26l.13-.07c.21.2.4.4.57.58a6.85,6.85,0,0,1,.44.53,4.06,4.06,0,0,1,.36.52c.11.17.21.35.31.53Z" style="fill:#b55c31"/><path d="M74.29,34.1a9,9,0,0,1-.48,1.08l-.92-.6a7.55,7.55,0,0,0,.81-.8,6.63,6.63,0,0,0,.81-1.11l.12.06a7.41,7.41,0,0,1-.34,1.37M73,28.7v-.18l3.28-.12a8.64,8.64,0,0,0-.56-.67,4.36,4.36,0,0,0-.62-.54l.08-.13a8.43,8.43,0,0,1,1,.33c.28.13.56.28.85.45l-.52.56,2.11-.09a3.52,3.52,0,0,0,.25-.33c.09-.12.18-.24.26-.37s.16-.25.23-.38a2,2,0,0,0,.17-.36l1,.45a4.28,4.28,0,0,1-.36.26l-.43.26-.44.25-.42.21,3.69-.13v.18ZM73.79,27v-.18l4-.14a4.73,4.73,0,0,0-.65-.61c-.24-.19-.47-.36-.71-.52l.1-.09a6.6,6.6,0,0,1,1.11.3,4.63,4.63,0,0,1,1,.48l-.62.42L82,26.53v.18Zm6.77,5.21v-.46l-5.51.2v.2l-.82.31V29.92a.4.4,0,0,0-.09-.24.5.5,0,0,0-.28-.15l1.19-.48v.32l5.54-.21.78-.31v3Zm0-2.88-5.51.21v1.06l5.51-.21Zm0,1.24-5.51.21v1l5.51-.2Zm-2,4.62c-.74,0-1.45,0-2.11,0a.88.88,0,0,1-.65-.28,1,1,0,0,1-.18-.62V33.16a.29.29,0,0,0-.12-.23.57.57,0,0,0-.24-.13l1.14-.46v1.78a.34.34,0,0,0,.37.39c.51,0,1,0,1.51,0s1-.07,1.52-.13l.17-1.45h.13l.65,2.14c-.72.07-1.46.12-2.19.15m-.17-1.43a4.78,4.78,0,0,0-.53-.82,6.24,6.24,0,0,0-.63-.71l.09-.11a8.07,8.07,0,0,1,.87.4,5.41,5.41,0,0,1,.83.54ZM81.92,35a10.68,10.68,0,0,0-.58-1.25,6.28,6.28,0,0,0-.8-1.14l.11-.09c.25.16.48.31.67.45s.38.29.55.44a4.83,4.83,0,0,1,.46.44c.13.15.27.3.4.47Z" style="fill:#b55c31"/><path d="M86.92,29.35v5.88l-.76.31V29.38l-1.32.05v-.18l1.32-.05V26.38a.35.35,0,0,0-.09-.23.51.51,0,0,0-.28-.16l1.13-.46v3.64l1.08,0v.18Zm6.15,3v3.22l-2-1.06,0-.13,1.27.23V32.39l-4.87.18v-.18l4.87-.17V32a.35.35,0,0,0-.09-.23.49.49,0,0,0-.28-.16l1.08-.44v1l1.67,0v.17Zm-1.52-5.07v.89l1.84-.07.67-.28v3.68l-.71.25V30.7l-1.8.07v.84l-.71.29V30.8l-1.8.07v.83l-.71.29V28.87a.35.35,0,0,0-.09-.23.46.46,0,0,0-.28-.16L89,28v.24l1.8-.07v-.88l-3.26.12v-.18l3.26-.12v-.76a.35.35,0,0,0-.09-.23.51.51,0,0,0-.28-.16l1.08-.44v1.56L94.69,27v.17Zm-1.47,7.36a3,3,0,0,0-.27-.43,3.46,3.46,0,0,0-.34-.44,5.2,5.2,0,0,0-.37-.43,4.54,4.54,0,0,0-.38-.38l.09-.11a3,3,0,0,1,.46.21l.52.29.5.33.43.32Zm.76-6.27-1.8.07v1l1.8-.06Zm0,1.2-1.8.07v1l1.8-.07Zm2.51-1.29-1.8.07v1l1.8-.06Zm0,1.2-1.8.07v1l1.8-.07ZM93.43,27l-.21-.31L93,26.31c-.08-.11-.17-.21-.25-.3l-.24-.25.09-.11.35.15c.13.05.26.12.38.18l.37.2a2.45,2.45,0,0,1,.29.18Z" style="fill:#b55c31"/></g></svg>