<svg width="41" height="38" viewBox="0 0 41 38" fill="none" xmlns="http://www.w3.org/2000/svg">
<path d="M40.8203 14.6247C40.585 13.8696 40.1153 13.2091 39.4793 12.739C38.8433 12.2689 38.074 12.0136 37.2831 12.0102L28.2094 11.8411C28.0693 11.8411 27.9322 11.8004 27.8148 11.724C27.6974 11.6475 27.6048 11.5386 27.5481 11.4105L24.5646 3.24411C24.2907 2.51925 23.8027 1.89499 23.1653 1.45441C22.5279 1.01383 21.7714 0.777832 20.9966 0.777832C20.2217 0.777832 19.4653 1.01383 18.8279 1.45441C18.1905 1.89499 17.7024 2.51925 17.4286 3.24411L14.445 11.4566C14.3884 11.5847 14.2958 11.6937 14.1783 11.7701C14.0609 11.8466 13.9238 11.8872 13.7837 11.8872L4.71003 12.0564C3.92489 12.0567 3.15996 12.3052 2.52463 12.7665C1.88931 13.2278 1.41614 13.8782 1.17281 14.6247C0.930874 15.3631 0.933366 16.1598 1.17992 16.8967C1.42647 17.6336 1.90396 18.2714 2.54156 18.7156L9.76978 23.9599C9.86738 24.029 9.94072 24.1271 9.97937 24.2403C10.018 24.3535 10.02 24.476 9.98509 24.5904L7.37063 32.9105C7.14074 33.6313 7.14489 34.4064 7.38248 35.1247C7.62006 35.8429 8.07889 36.4676 8.69324 36.9091C9.35262 37.4106 10.1563 37.6857 10.9847 37.6935C11.745 37.6908 12.4879 37.4663 13.1224 37.0476L20.566 32.0801C20.6946 31.9979 20.844 31.9542 20.9966 31.9542C21.1492 31.9542 21.2986 31.9979 21.4272 32.0801L28.8707 37.0476C29.5354 37.4934 30.323 37.7199 31.1229 37.695C31.9229 37.6702 32.695 37.3954 33.3307 36.9091C33.9396 36.4635 34.3923 35.8371 34.6242 35.1191C34.8562 34.4011 34.8556 33.6282 34.6225 32.9105L32.0081 24.5904C31.9731 24.476 31.9751 24.3535 32.0138 24.2403C32.0524 24.1271 32.1258 24.029 32.2234 23.9599L39.4516 18.7156C40.0892 18.2714 40.5667 17.6336 40.8132 16.8967C41.0598 16.1598 41.0623 15.3631 40.8203 14.6247V14.6247Z" fill="#FAAA85"/>
</svg>
