<svg width="60" height="60" viewBox="0 0 60 60" fill="none" xmlns="http://www.w3.org/2000/svg">
<path d="M17.0999 7.70001C17.6999 8.30001 18.0999 9.00001 18.2999 9.80001L20.0999 19.1L29.4999 20.3C31.1999 20.5 32.5999 21.8 32.8999 23.5L34.6999 32.8L44.0999 34C45.7999 34.2 47.1999 35.5 47.4999 37.2L49.7999 49.3C50.1999 51.5 48.7999 53.6 46.5999 54C44.3999 54.4 42.2999 53 41.8999 50.8L40.0999 41.5L30.6999 40.3C28.9999 40.1 27.5999 38.8 27.2999 37.1L25.4999 27.8L16.0999 26.6C14.3999 26.4 12.9999 25.1 12.6999 23.4L10.3999 11.3C9.99989 9.10001 11.3999 7.00001 13.5999 6.60001C14.9999 6.40001 16.1999 6.90001 17.0999 7.70001Z" fill="#FAAA85"/>
<path d="M17.0999 7.70001C17.6999 8.30001 18.0999 9.00001 18.2999 9.80001L20.0999 19.1L29.4999 20.3C31.1999 20.5 32.5999 21.8 32.8999 23.5L34.6999 32.8L44.0999 34C45.7999 34.2 47.1999 35.5 47.4999 37.2L49.7999 49.3C50.1999 51.5 48.7999 53.6 46.5999 54C44.3999 54.4 42.2999 53 41.8999 50.8L40.0999 41.5L30.6999 40.3C28.9999 40.1 27.5999 38.8 27.2999 37.1L25.4999 27.8L16.0999 26.6C14.3999 26.4 12.9999 25.1 12.6999 23.4L10.3999 11.3C9.99989 9.10001 11.3999 7.00001 13.5999 6.60001C14.9999 6.40001 16.1999 6.90001 17.0999 7.70001Z" fill="#FAAA85"/>
</svg>
