<svg width="60" height="60" viewBox="0 0 60 60" fill="none" xmlns="http://www.w3.org/2000/svg">
<path d="M22.9145 46.7232C20.6824 46.5675 18.5511 44.9675 18.0595 42.5583C17.3419 39.6056 19.1282 36.6957 21.9495 35.9689L37.1251 32.1459L28.8135 18.9001C27.2807 16.2864 28.044 12.9093 30.5265 11.3672C33.1402 9.83439 36.5173 10.5977 38.0593 13.0802L50.2824 32.6679C51.2321 34.1855 51.3664 36.042 50.7313 37.5809C50.0871 39.2512 48.6825 40.4726 46.939 40.8787L24.5084 46.5705C23.9741 46.6651 23.4397 46.7598 22.9145 46.7232Z" fill="#FAAA85"/>
<path d="M33.0152 8.97636C35.2468 9.1379 37.374 10.7435 37.8593 13.1539C38.5692 16.1084 36.7753 19.0137 33.9521 19.7331L18.7665 23.5165L27.0435 36.7839C28.5695 39.4017 27.7973 42.7768 25.3109 44.3123C22.6931 45.8383 19.318 45.0661 17.7825 42.5797L5.61061 22.96C4.66495 21.44 4.53543 19.5832 5.17456 18.0459C5.82318 16.3773 7.23094 15.1596 8.97551 14.7581L31.4209 9.12489C31.9555 9.03162 32.4901 8.93836 33.0152 8.97636Z" fill="#FAAA85"/>
</svg>
