<svg width="60" height="60" viewBox="0 0 60 60" fill="none" xmlns="http://www.w3.org/2000/svg">
<path d="M48.245 11.9026C47.8207 12.6374 47.2481 13.205 46.5271 13.6052L38.0099 17.7509L39.2837 27.1412C39.5305 28.835 38.6371 30.5238 37.0727 31.2535L28.5555 35.3992L29.8293 44.7895C30.0761 46.4833 29.1827 48.1721 27.6183 48.9019L16.5259 54.2552C14.5043 55.211 12.1136 54.4022 11.1578 52.3807C10.202 50.3592 11.0108 47.9684 13.0323 47.0126L21.5495 42.8669L20.2757 33.4767C20.0289 31.7828 20.9223 30.0941 22.4867 29.3643L31.004 25.2186L29.7302 15.8283C29.4834 14.1345 30.3767 12.4457 31.9411 11.716L43.0336 6.36262C45.0551 5.40685 47.4459 6.21562 48.4016 8.23713C48.9572 9.53767 48.7848 10.8262 48.245 11.9026Z" fill="#EB5D1C"/>
</svg>
