<?xml version="1.0" encoding="UTF-8"?>
<svg id="Layer_2" data-name="Layer 2" xmlns="http://www.w3.org/2000/svg" viewBox="0 0 198.26 335.83">
  <defs>
    <style>
      .cls-1 {
        fill: none;
        stroke: #003e7e;
        stroke-miterlimit: 10;
      }

      .cls-2 {
        fill: #577c9d;
      }

      .cls-2, .cls-3, .cls-4, .cls-5, .cls-6 {
        stroke-width: 0px;
      }

      .cls-3 {
        fill: #5880a3;
      }

      .cls-4 {
        fill: #fff;
      }

      .cls-5 {
        fill: #e96275;
      }

      .cls-6 {
        fill: #003e7e;
      }
    </style>
  </defs>
  <g id="logo_text" data-name="logo&amp;amp;text">
    <g>
      <rect class="cls-6" x=".38" y="0" width="73.42" height="29.09" rx="14.55" ry="14.55"/>
      <g>
        <path class="cls-4" d="M22.46,22.39h-9.87v-2.08l5.35-6.3c1-1.16,1.48-2.13,1.48-3.17,0-1.3-.95-1.95-1.99-1.95s-1.9.67-1.99,1.95h-2.87c0-2.76,2.27-4.63,5.03-4.63s5.05,1.99,5.05,4.63c0,2.11-1.39,3.75-2.41,4.96l-3.29,3.87h5.51v2.73Z"/>
        <path class="cls-4" d="M36.12,17.5c0,3.59-2.5,5.1-5.37,5.1s-5.37-1.51-5.37-5.1v-6.21c0-3.75,2.5-5.1,5.37-5.1s5.37,1.34,5.37,5.07v6.23ZM30.75,8.93c-1.46,0-2.15.93-2.15,2.64v5.65c0,1.71.7,2.64,2.15,2.64s2.13-.93,2.13-2.64v-5.65c0-1.71-.69-2.64-2.13-2.64Z"/>
        <path class="cls-4" d="M48.63,22.39h-9.87v-2.08l5.35-6.3c1-1.16,1.48-2.13,1.48-3.17,0-1.3-.95-1.95-1.99-1.95s-1.9.67-1.99,1.95h-2.87c0-2.76,2.27-4.63,5.03-4.63s5.05,1.99,5.05,4.63c0,2.11-1.39,3.75-2.41,4.96l-3.29,3.87h5.51v2.73Z"/>
        <path class="cls-4" d="M55.28,15.34h-2.92V6.4h9.1v2.94h-5.93v2.73c.44-.42,1.16-.83,2.36-.83,2.46,0,4.17,1.88,4.17,5.7s-1.71,5.65-5,5.65c-2.69,0-4.93-1.51-5.19-4.33h3.2c.25,1.02.86,1.6,1.9,1.6,1.16,0,1.85-.88,1.85-2.76s-.56-2.94-1.85-2.94c-.83,0-1.34.46-1.69,1.18Z"/>
      </g>
      <g>
        <path class="cls-6" d="M22.61,71.81H3.27v-4.36l10-11.78c1.82-2.13,2.53-3.87,2.53-5.78,0-2.13-1.51-3.16-3.25-3.16-1.82,0-3.07,1.11-3.24,3.16H2.96c0-5.33,4.49-9.2,10.05-9.2s10.13,4.13,10.13,9.16c0,4.22-2.67,7.47-4.67,9.78l-5.25,6.05h9.38v6.13Z"/>
        <path class="cls-6" d="M46.38,71.81h-19.33v-4.36l10-11.78c1.82-2.13,2.53-3.87,2.53-5.78,0-2.13-1.51-3.16-3.25-3.16-1.82,0-3.07,1.11-3.24,3.16h-6.36c0-5.33,4.49-9.2,10.05-9.2s10.13,4.13,10.13,9.16c0,4.22-2.67,7.47-4.67,9.78l-5.24,6.05h9.38v6.13Z"/>
        <path class="cls-6" d="M51.18,56.04h11.51v5.87h-11.51v-5.87Z"/>
        <path class="cls-6" d="M84.83,71.81h-19.33v-4.36l10-11.78c1.82-2.13,2.53-3.87,2.53-5.78,0-2.13-1.51-3.16-3.25-3.16-1.82,0-3.07,1.11-3.24,3.16h-6.36c0-5.33,4.49-9.2,10.05-9.2s10.13,4.13,10.13,9.16c0,4.22-2.67,7.47-4.67,9.78l-5.25,6.05h9.38v6.13Z"/>
        <path class="cls-6" d="M95.5,52.92h2.4c1.87,0,3.56-.98,3.56-3.16,0-1.91-1.38-3.02-3.24-3.02s-2.89,1.11-3.24,2.71h-6.36c.31-5.07,4.44-8.76,10.05-8.76s10.13,4.13,10.13,8.62c0,3.6-2.31,5.6-4,6.58,2.49,1.33,4.44,3.69,4.44,7.25,0,5.07-3.47,9.11-10.22,9.11s-10.62-3.78-10.85-8.93h6.36c.27,1.69,1.6,2.8,3.91,2.8s3.47-1.56,3.47-3.51c0-2.27-1.29-3.56-4-3.56h-2.4v-6.13Z"/>
        <path class="cls-6" d="M112.08,72.58l11.49-31.73h4.58l-11.49,31.73h-4.58Z"/>
        <path class="cls-6" d="M143.58,71.81h-7.38v-23.16l-4.4,2.71v-6.85l5.29-3.38h6.49v30.67Z"/>
        <path class="cls-6" d="M159.58,71.81h-7.38v-23.16l-4.4,2.71v-6.85l5.29-3.38h6.49v30.67Z"/>
      </g>
      <line class="cls-1" x1=".69" y1="110.73" x2="172.2" y2="110.73"/>
      <line class="cls-1" x1=".69" y1="171.29" x2="172.2" y2="171.29"/>
      <line class="cls-1" x1=".69" y1="265.8" x2="198.26" y2="265.8"/>
      <g>
        <path class="cls-3" d="M63.28,182.91H18.36c.93,1.65,1.46,5.77.43,8.42-1.26,3.27-4.65,7.78-6.91,11.49h51.39v-19.9Z"/>
        <g>
          <path class="cls-6" d="M8.48,224.86l2.15.88c-.49.7-1.05,1.38-1.67,2.02s-1.3,1.25-2.02,1.82c-.72.57-1.47,1.09-2.25,1.56-.78.47-1.56.87-2.35,1.21-.14-.21-.31-.45-.51-.72-.2-.27-.41-.53-.63-.78-.22-.25-.43-.46-.61-.63.77-.27,1.54-.59,2.29-.98.76-.39,1.49-.81,2.19-1.28s1.34-.97,1.93-1.49c.58-.53,1.08-1.06,1.48-1.61ZM1.2,214.57h18.69v2.36H1.2v-2.36ZM2.97,218.13h15.26v8.1H2.97v-8.1ZM5.43,220.02v1.26h10.21v-1.26H5.43ZM5.43,223.05v1.28h10.21v-1.28H5.43ZM9.14,212.84h2.63v19.76h-2.63v-19.76ZM12.48,224.95c.42.53.93,1.06,1.53,1.57.6.51,1.25,1,1.96,1.47.71.47,1.45.89,2.22,1.26.77.37,1.54.69,2.32.96-.2.17-.41.38-.64.64-.23.26-.45.53-.65.8-.2.27-.38.52-.52.75-.79-.32-1.56-.72-2.34-1.19-.77-.47-1.52-.99-2.24-1.56s-1.4-1.18-2.02-1.82c-.62-.65-1.18-1.31-1.67-2l2.06-.88Z"/>
          <path class="cls-6" d="M23.57,224.76h19.2v2.17h-19.2v-2.17ZM23.7,214.04h9.07v2.19h-9.07v-2.19ZM24.08,221.24h6.9v2.13h-6.9v-2.13ZM24.1,217.92h18.08v2.06h-18.08v-2.06ZM24.79,228h16.59v2.06h-16.59v-2.06ZM26.71,220.36h2.34v4.04h-2.34v-4.04ZM28.18,212.82h2.46v4.61h-2.46v-4.61ZM31.8,218.71h2.5v13.87h-2.5v-13.87ZM33.47,214.04h9.07v2.19h-9.07v-2.19ZM35.15,221.14h6.9v2.13h-6.9v-2.13ZM35.49,212.82h2.46v4.61h-2.46v-4.61ZM37.19,220.36h2.34v4.04h-2.34v-4.04Z"/>
          <path class="cls-6" d="M46.56,228.75h18.35v2.57h-18.35v-2.57ZM47.74,214.84h16.06v2.59h-16.06v-2.59ZM49.19,221.62h12.92v2.57h-12.92v-2.57Z"/>
          <path class="cls-6" d="M69.29,213.66h4.84v2.25h-2.63v16.61h-2.21v-18.86ZM73.56,213.66h.4l.36-.1,1.64.95c-.27.88-.56,1.82-.88,2.81-.32.99-.64,1.89-.95,2.71.65.84,1.07,1.63,1.26,2.37s.29,1.41.29,2.03c0,.69-.07,1.26-.22,1.72-.15.46-.39.82-.73,1.08-.17.13-.35.22-.56.29-.2.07-.42.13-.64.17-.2.03-.41.04-.65.04h-.74c0-.29-.05-.65-.15-1.07s-.23-.79-.4-1.09c.2.01.37.02.52.03.15,0,.28,0,.41-.01.22,0,.41-.06.57-.17.13-.08.22-.24.27-.46s.08-.49.08-.8c0-.51-.09-1.09-.27-1.75-.18-.66-.58-1.36-1.18-2.1.14-.48.29-.99.44-1.54s.3-1.09.44-1.64c.14-.55.27-1.06.39-1.55.12-.48.21-.89.28-1.21v-.69ZM78.68,224.02h2.42c-.07,1.04-.18,2-.34,2.88-.15.88-.42,1.68-.8,2.39-.38.71-.92,1.34-1.61,1.89-.69.55-1.6,1.03-2.73,1.42-.11-.31-.31-.67-.59-1.07-.28-.41-.55-.73-.82-.97.95-.29,1.72-.65,2.29-1.05.58-.41,1.01-.88,1.31-1.42.29-.54.5-1.14.61-1.81.11-.67.2-1.42.25-2.26ZM76.01,215.28h12.02v4.19h-2.42v-2h-7.28v2h-2.32v-4.19ZM76.05,222.92h12.08v2.25h-12.08v-2.25ZM77.67,219.18h8.69v2.17h-8.69v-2.17ZM80.05,213.28l2.38-.67c.27.44.52.92.75,1.46.23.54.41,1.01.54,1.4l-2.5.8c-.08-.41-.24-.89-.45-1.45-.22-.56-.45-1.07-.71-1.54ZM82.4,223.96h2.4v5.54c0,.29.02.48.06.57.04.08.13.13.27.13h.76c.11,0,.2-.06.25-.18s.1-.36.14-.72.06-.89.07-1.61c.15.13.35.25.6.37.25.12.5.22.77.32s.5.17.69.22c-.06.97-.17,1.72-.34,2.26s-.41.92-.72,1.14c-.31.22-.72.33-1.22.33h-1.45c-.63,0-1.11-.09-1.43-.27-.32-.18-.55-.48-.67-.88-.13-.41-.19-.95-.19-1.64v-5.56Z"/>
          <path class="cls-6" d="M98.99,224.86l2.15.88c-.49.7-1.05,1.38-1.67,2.02-.62.65-1.3,1.25-2.02,1.82-.72.57-1.47,1.09-2.25,1.56-.78.47-1.56.87-2.35,1.21-.14-.21-.31-.45-.51-.72-.2-.27-.41-.53-.63-.78-.22-.25-.43-.46-.61-.63.77-.27,1.54-.59,2.29-.98.76-.39,1.49-.81,2.19-1.28s1.34-.97,1.93-1.49c.58-.53,1.08-1.06,1.48-1.61ZM91.71,214.57h18.69v2.36h-18.69v-2.36ZM93.48,218.13h15.26v8.1h-15.26v-8.1ZM95.94,220.02v1.26h10.21v-1.26h-10.21ZM95.94,223.05v1.28h10.21v-1.28h-10.21ZM99.64,212.84h2.63v19.76h-2.63v-19.76ZM102.99,224.95c.42.53.93,1.06,1.53,1.57.6.51,1.25,1,1.96,1.47.71.47,1.45.89,2.22,1.26.77.37,1.54.69,2.32.96-.2.17-.41.38-.64.64-.23.26-.45.53-.65.8-.2.27-.38.52-.52.75-.79-.32-1.56-.72-2.34-1.19-.77-.47-1.52-.99-2.24-1.56s-1.4-1.18-2.02-1.82c-.62-.65-1.18-1.31-1.67-2l2.06-.88Z"/>
          <path class="cls-6" d="M113.77,222.8l1.35-1.73c.41.14.83.32,1.27.54.44.22.87.44,1.27.66.41.22.74.44,1.01.65l-1.43,1.92c-.25-.21-.57-.44-.96-.69-.39-.25-.8-.49-1.24-.73-.44-.23-.87-.44-1.27-.62ZM114.21,213.77h9.07v2.15h-9.07v-2.15ZM114.23,230.92c.31-.43.65-.95,1.03-1.54s.76-1.22,1.16-1.89c.39-.67.76-1.33,1.12-1.98l1.75,1.43c-.31.6-.63,1.22-.97,1.85-.34.63-.68,1.25-1.03,1.86s-.69,1.2-1.03,1.78l-2.02-1.52ZM114.67,218.88l1.41-1.68c.38.14.78.31,1.21.52.43.2.83.42,1.22.64.39.22.71.44.96.65l-1.45,1.87c-.24-.21-.54-.44-.92-.68-.37-.25-.77-.48-1.2-.72-.43-.23-.84-.43-1.23-.6ZM118.04,212.8h2.5v4.23h-2.5v-4.23ZM119.58,218.63h13.62v1.98h-13.62v-1.98ZM120.29,221.75h10.46v1.87h-8.06v8.9h-2.4v-10.78ZM121.91,224.61h8.63v1.75h-8.63v-1.75ZM121.91,227.39h8.63v1.77h-8.63v-1.77ZM124.02,213.77h9.03v2.15h-9.03v-2.15ZM125.01,217.12h2.38v15.39h-2.38v-15.39ZM126.88,212.82h2.5v4.02h-2.5v-4.02ZM129.95,221.75h2.44v8.57c0,.52-.06.92-.18,1.21-.12.29-.35.52-.71.68-.34.15-.74.25-1.22.28-.48.03-1.03.05-1.66.05-.04-.29-.13-.63-.26-1-.13-.37-.26-.7-.39-.98.34.01.67.02,1,.03.33,0,.55.01.66.01.11-.01.19-.04.24-.08.05-.04.07-.12.07-.23v-8.55ZM128.67,217.58l1.12-1.33c.45.17.91.39,1.39.66.48.27.85.53,1.12.77l-1.14,1.47c-.28-.25-.66-.53-1.13-.83-.47-.3-.92-.55-1.36-.75Z"/>
          <path class="cls-3" d="M5.19,241.53h1.19c0,1.13-.03,2.24-.07,3.31-.03,1.08-.13,2.11-.29,3.11-.16,1-.41,1.93-.77,2.8-.35.87-.85,1.65-1.49,2.36-.64.71-1.46,1.32-2.46,1.83-.06-.09-.14-.19-.23-.3-.09-.11-.19-.22-.29-.32-.1-.1-.2-.19-.3-.26.96-.46,1.75-1.02,2.35-1.67.6-.65,1.06-1.38,1.39-2.19s.56-1.67.69-2.6c.14-.93.22-1.91.24-2.93.02-1.02.04-2.07.04-3.13ZM1.16,245.15h9.13v1.12H1.16v-1.12ZM9.61,245.15h1.15v7.88c0,.26.03.42.09.5s.21.12.44.12h1.5c.15,0,.26-.06.32-.17s.12-.32.15-.63c.03-.31.05-.76.07-1.36.09.07.19.14.32.21s.25.13.38.18c.13.05.25.09.35.12-.04.69-.11,1.23-.2,1.63-.09.4-.24.68-.44.85-.2.17-.49.25-.86.25h-1.76c-.38,0-.69-.05-.91-.15-.22-.1-.38-.27-.47-.52-.09-.25-.14-.59-.14-1.05v-7.86Z"/>
          <path class="cls-3" d="M16.46,245.65h6.8v.96h-6.8v-.96ZM16.73,242.66h6.27v.96h-6.27v-.96ZM17.27,247.48h4.82v.84h-3.78v6.62h-1.05v-7.47ZM17.7,243.95l.9-.21c.12.28.23.59.35.93.11.34.19.64.23.89l-.94.25c-.03-.26-.1-.56-.2-.9-.1-.34-.21-.66-.33-.96ZM17.71,249.37h4.32v.78h-4.32v-.78ZM17.71,251.23h4.32v.78h-4.32v-.78ZM19.1,241.55l.94-.25c.13.27.25.56.36.87.11.31.19.58.23.8l-1,.28c-.03-.23-.1-.5-.2-.83-.1-.32-.21-.61-.33-.87ZM21.49,247.48h1.09v6.17c0,.27-.03.48-.1.63-.07.16-.2.28-.38.37-.2.09-.45.14-.75.16-.3.02-.66.03-1.07.03-.03-.16-.08-.33-.15-.52s-.15-.35-.21-.49c.31,0,.59.01.84.01s.41,0,.5-.01c.09,0,.15-.03.18-.06.03-.03.05-.08.05-.16v-6.14ZM21.18,243.75l1,.24c-.17.38-.34.77-.51,1.15-.17.38-.34.72-.49,1l-.84-.25c.1-.21.2-.44.31-.69.11-.25.21-.5.3-.76.09-.26.17-.49.23-.69ZM24,241.37h1.08v3.84h-1.08v-3.84ZM24,244.66h5.25v3.08h-5.25v-.87h4.18v-1.33h-4.18v-.89ZM24,247.36h1.08v5.98c0,.25.05.41.15.48.1.07.33.11.69.11h2.54c.18,0,.31-.03.4-.1.09-.06.15-.18.19-.35.04-.17.07-.43.09-.76.12.08.27.15.46.23s.36.13.51.17c-.04.44-.11.79-.21,1.05-.1.26-.26.44-.47.54-.21.1-.51.15-.89.15h-2.73c-.46,0-.82-.04-1.08-.13s-.44-.23-.55-.45c-.11-.22-.16-.53-.16-.94v-5.98ZM24.4,251.98h4.91v.72h-4.91v-.72ZM24.44,242.54h5.39v.93h-5.39v-.93ZM24.44,248.66h4.8v.74h-4.8v-.74ZM24.49,250.3h4.68v.74h-4.68v-.74Z"/>
          <path class="cls-3" d="M36.64,252.51l.99.63c-.4.24-.86.47-1.38.7-.52.23-1.05.44-1.61.63-.56.19-1.08.36-1.57.49-.1-.11-.22-.24-.38-.39s-.29-.28-.41-.38c.5-.14,1.03-.3,1.59-.48.56-.18,1.08-.38,1.56-.6s.89-.42,1.2-.62ZM32.47,245.97h13.26v.96h-13.26v-.96ZM33.19,242.49h11.88v.87h-11.88v-.87ZM34.17,247.73h9.97v4.82h-9.97v-4.82ZM35.24,248.56v1.2h7.79v-1.2h-7.79ZM35.24,250.52v1.22h7.79v-1.22h-7.79ZM35.95,241.34h1.08v3.08h4.16v-3.08h1.12v3.9h-6.36v-3.9ZM38.49,246.33h1.09v5.83h-1.09v-5.83ZM40.58,253.2l.74-.69c.55.17,1.1.35,1.66.55.56.2,1.08.4,1.59.59.5.19.93.37,1.3.54l-.96.75c-.33-.18-.73-.36-1.19-.56-.46-.2-.96-.4-1.5-.6-.54-.21-1.08-.4-1.63-.58Z"/>
          <path class="cls-3" d="M54.36,241.39h1.2c0,.64-.02,1.35-.05,2.13-.03.78-.11,1.59-.23,2.43-.12.84-.31,1.69-.58,2.54-.27.85-.64,1.67-1.12,2.46-.48.79-1.08,1.53-1.82,2.21-.74.68-1.64,1.26-2.71,1.76-.09-.15-.21-.31-.38-.48-.16-.17-.32-.32-.46-.44,1.04-.45,1.92-.99,2.63-1.62.71-.63,1.3-1.32,1.75-2.07.45-.75.8-1.52,1.05-2.32.25-.8.42-1.59.52-2.38.1-.79.16-1.55.18-2.26.02-.72.04-1.37.04-1.96ZM48.48,245.61h12.98v1.14h-12.98v-1.14ZM55.66,246.06c.33,1.19.77,2.3,1.32,3.33s1.21,1.93,2.01,2.69c.79.77,1.69,1.37,2.71,1.8-.09.08-.18.18-.29.3-.1.12-.2.25-.3.38-.1.13-.18.25-.24.35-1.06-.51-2-1.19-2.81-2.02-.81-.84-1.5-1.81-2.07-2.92-.57-1.11-1.04-2.33-1.42-3.64l1.09-.27Z"/>
          <path class="cls-3" d="M67.33,241.4l1.05.31c-.31.84-.66,1.66-1.06,2.47s-.84,1.57-1.32,2.29-.97,1.35-1.48,1.91c-.04-.09-.1-.2-.17-.34-.07-.14-.15-.28-.24-.41s-.16-.25-.23-.34c.46-.48.9-1.04,1.33-1.67.42-.63.82-1.31,1.19-2.02.37-.71.68-1.44.94-2.19ZM65.86,245.25l1.05-1.05v.02s.01,10.71.01,10.71h-1.06v-9.68ZM68.75,244.79h1.09v8.17h6.77v1.05h-7.86v-9.22ZM72.25,241.61h1.12v11.88h-1.12v-11.88ZM75.86,244.75h1.11v10.17h-1.11v-10.17Z"/>
          <path class="cls-3" d="M82.81,249.21l.96.27c-.39.88-.88,1.7-1.47,2.49-.58.78-1.19,1.44-1.81,1.98-.07-.06-.15-.13-.26-.21-.1-.08-.21-.16-.31-.24-.1-.08-.2-.14-.29-.19.65-.49,1.25-1.1,1.81-1.81.56-.72,1.01-1.48,1.36-2.27ZM79.96,246.36h7.02v.93h-7.02v-.93ZM80.04,248.76h6.89v.97h-6.89v-.97ZM80.27,242.92h6.52v.93h-6.52v-.93ZM81.23,244.15l.94-.22c.15.33.28.7.4,1.08.12.39.19.72.22,1l-.99.27c-.03-.29-.1-.63-.21-1.03-.11-.4-.23-.76-.37-1.1ZM82.54,241.5l1.09-.27c.17.31.33.64.49,1.02.16.37.28.69.35.94l-1.15.32c-.06-.27-.16-.59-.32-.97-.15-.38-.31-.73-.46-1.05ZM83.08,246.79h1.05v8.1h-1.05v-8.1ZM83.34,249.84l.72-.53c.33.31.67.66,1,1.03.33.37.64.74.92,1.1s.51.68.68.97l-.75.62c-.17-.29-.39-.63-.67-1-.28-.37-.59-.75-.92-1.13-.33-.38-.66-.73-.98-1.06ZM84.93,243.92l1.03.22c-.16.44-.32.89-.5,1.35-.18.46-.34.85-.5,1.17l-.9-.21c.1-.24.2-.5.31-.8.11-.29.21-.6.32-.91.1-.31.18-.59.24-.83ZM87.58,242.79h1.03v5.16c0,.53-.02,1.1-.05,1.71s-.11,1.22-.21,1.84-.27,1.22-.47,1.8c-.21.58-.49,1.11-.84,1.59-.06-.07-.14-.14-.25-.21-.11-.07-.22-.15-.33-.21s-.21-.12-.3-.16c.44-.6.76-1.27.96-2.01.2-.74.32-1.48.38-2.24.06-.75.09-1.46.09-2.12v-5.16ZM92.36,241.62l.89.83c-.48.18-1.02.34-1.62.49s-1.22.28-1.85.4c-.63.12-1.25.22-1.85.29-.02-.12-.06-.26-.13-.42-.07-.16-.14-.3-.21-.42.57-.09,1.15-.19,1.75-.32.59-.12,1.16-.26,1.69-.41.53-.15.98-.29,1.34-.44ZM88,246.36h5.46v1.03h-5.46v-1.03ZM90.72,246.79h1.08v8.09h-1.08v-8.09Z"/>
          <path class="cls-3" d="M95.72,247.95l.6-.77c.3.1.6.22.92.37.32.15.62.3.91.46.29.16.52.32.71.48l-.6.86c-.19-.15-.42-.31-.71-.48-.29-.17-.58-.34-.9-.5-.31-.16-.62-.3-.93-.42ZM96.03,242.24h6.18v.97h-6.18v-.97ZM96.1,254.19c.23-.32.48-.71.75-1.15.28-.44.55-.91.83-1.41.28-.5.54-.98.79-1.45l.77.65c-.22.43-.45.89-.71,1.36-.26.47-.51.94-.77,1.39-.26.46-.52.88-.77,1.28l-.89-.66ZM96.41,245.13l.6-.75c.29.1.58.22.89.38.31.15.6.31.88.48.27.17.5.32.68.47l-.63.84c-.17-.15-.39-.31-.66-.48-.27-.17-.56-.34-.87-.51-.31-.17-.61-.31-.89-.43ZM99,241.36h1.11v2.88h-1.11v-2.88ZM99.73,245.52h9.4v.91h-9.4v-.91ZM100.29,247.57h7.52v.87h-6.46v6.48h-1.06v-7.35ZM100.97,249.57h6.77v.83h-6.77v-.83ZM100.97,251.57h6.77v.83h-6.77v-.83ZM102.82,242.24h6.27v.97h-6.27v-.97ZM103.75,244.26h1.05v10.61h-1.05v-10.61ZM104.99,241.37h1.11v2.74h-1.11v-2.74ZM107.44,247.57h1.06v6.26c0,.27-.03.47-.1.61-.07.14-.2.25-.38.33-.19.08-.43.13-.73.14-.3.01-.67.02-1.11.02-.03-.13-.07-.28-.13-.44-.06-.17-.12-.32-.19-.46.3,0,.59.01.84.01h.52c.09,0,.15-.03.18-.06.03-.03.05-.08.05-.16v-6.26ZM106.02,244.41l.52-.63c.32.14.67.31,1.03.52.36.21.65.39.86.56l-.53.69c-.21-.18-.49-.38-.85-.6-.36-.22-.7-.4-1.03-.54Z"/>
          <path class="cls-3" d="M112.67,245.44h11.05v.94h-9.99v8.56h-1.06v-9.5ZM112.76,241.84h1.12v1.68h9.06v-1.68h1.15v2.61h-11.33v-2.61ZM114.53,248.37h7.79v.84h-7.79v-.84ZM115.17,249.97h.94v2.95h-.94v-2.95ZM115.62,246.83l.87-.27c.18.23.34.48.5.75s.27.51.34.71l-.91.29c-.06-.21-.17-.45-.32-.73-.16-.28-.31-.53-.47-.76ZM115.7,252.07h5.47v.86h-5.47v-.86ZM117.81,241.36h1.14v2.76h-1.14v-2.76ZM117.88,248.73h.99v3.78h-.99v-3.78ZM120.3,246.52l.97.27c-.17.36-.34.73-.52,1.11-.18.37-.34.7-.5.97l-.86-.25c.11-.2.22-.42.33-.66.11-.25.22-.5.32-.75.1-.26.18-.48.25-.68ZM120.71,249.97h.93v2.95h-.93v-2.95ZM123.22,245.44h1.06v8.22c0,.31-.04.56-.13.72-.08.17-.24.29-.46.38-.23.08-.54.13-.93.15-.39.02-.89.03-1.49.03-.02-.15-.06-.32-.13-.51s-.14-.36-.21-.49c.44,0,.85.02,1.22.02.37,0,.62,0,.74,0,.13,0,.21-.03.26-.07.04-.04.07-.12.07-.24v-8.2Z"/>
          <path class="cls-3" d="M127.59,247.24l13.18-2.12.18,1.14-13.16,2.09-.19-1.11ZM131.87,241.62h1.18v10.58c0,.31.03.54.09.7.06.16.18.27.36.33s.45.09.8.09h3.79c.33,0,.58-.07.75-.22s.28-.42.35-.81c.07-.39.13-.95.17-1.68.11.07.23.14.36.21s.27.13.41.19c.14.06.26.1.36.13-.06.81-.16,1.45-.29,1.93s-.37.83-.69,1.04-.79.32-1.39.32h-3.87c-.61,0-1.09-.06-1.44-.19-.35-.13-.6-.36-.74-.69-.14-.33-.21-.79-.21-1.38v-10.55Z"/>
          <path class="cls-3" d="M148.05,252.85l.93.6c-.41.21-.89.41-1.43.6s-1.1.36-1.69.52c-.59.15-1.14.27-1.67.36-.08-.1-.18-.22-.31-.38-.13-.15-.25-.28-.37-.38.53-.09,1.09-.2,1.67-.35.58-.14,1.13-.3,1.64-.47.51-.17.92-.34,1.24-.51ZM143.82,242.36h12.59v2.05h-1.05v-1.14h-10.53v1.14h-1v-2.05ZM144.04,247.01c.69-.04,1.53-.09,2.52-.15.99-.06,2.01-.12,3.05-.18v.75c-1,.08-1.98.15-2.95.21s-1.82.12-2.54.17l-.09-.81ZM144.73,244.06h4.82v.71h-4.82v-.71ZM144.91,245.47h4.43v.65h-4.43v-.65ZM145.46,248.23h9.52v4.77h-9.52v-4.77ZM146.53,248.93v.68h7.32v-.68h-7.32ZM146.53,250.25v.71h7.32v-.71h-7.32ZM146.53,251.61v.71h7.32v-.71h-7.32ZM146.65,244.34h.94v2.79l-.94.09v-2.88ZM149.23,241.52l1.06-.27c.16.23.3.48.44.75s.23.52.29.72l-1.12.32c-.06-.21-.15-.46-.28-.75s-.26-.55-.38-.79ZM151.09,243.42l.83.13c-.17.35-.37.7-.6,1.03s-.51.64-.83.94c-.08-.08-.18-.16-.32-.25s-.25-.16-.36-.21c.29-.25.55-.51.77-.8.22-.29.39-.57.52-.83ZM149.84,245.43h6.21v.66h-6.21v-.66ZM150.33,246.33h.83v.74h3.57v-.74h.87v1.39h-5.27v-1.39ZM151.21,244.13h4.09v.65h-4.49l.4-.65ZM151.09,253.48l.75-.63c.57.14,1.15.29,1.73.46.58.17,1.14.34,1.66.51.52.17.97.33,1.34.48l-.96.68c-.33-.15-.75-.31-1.23-.48-.49-.17-1.01-.34-1.57-.52-.56-.17-1.14-.34-1.73-.49ZM152.45,244.4h.94v2.95h-.94v-2.95Z"/>
          <path class="cls-3" d="M162.12,244.34l.99.34c-.29.61-.62,1.21-1.02,1.81s-.81,1.15-1.25,1.67c-.44.52-.89.98-1.34,1.39-.04-.08-.1-.18-.18-.3-.08-.12-.16-.25-.25-.37s-.17-.22-.24-.29c.64-.52,1.25-1.16,1.84-1.9.59-.75,1.07-1.53,1.45-2.35ZM161.67,241.37l1.02.37c-.24.4-.52.81-.86,1.23-.33.42-.69.81-1.06,1.19-.37.37-.75.71-1.13,1-.04-.07-.1-.16-.17-.26-.07-.1-.15-.21-.23-.31-.08-.1-.15-.19-.21-.26.33-.26.67-.55,1.01-.88s.65-.68.94-1.04c.29-.36.51-.71.68-1.05ZM160.8,247.26l.89-.9.13.04v8.56h-1.02v-7.7ZM162.54,252.85c.52-.06,1.12-.13,1.79-.2s1.38-.16,2.12-.25c.75-.09,1.49-.18,2.24-.27l.03.97c-1.08.14-2.16.28-3.22.41-1.07.14-2.01.26-2.83.37l-.13-1.03ZM162.87,246.17h5.56v.99h-5.56v-.99ZM162.96,249.28h5.37v.97h-5.37v-.97ZM163.16,243.23h5v.96h-5v-.96ZM165.11,247.46h1.06v5.42l-1.06.21v-5.62ZM165.13,241.37h1.05v5.37h-1.05v-5.37ZM170.27,246.61h1.09v6.98c0,.32-.04.58-.11.75-.07.18-.22.31-.45.4-.22.09-.51.15-.87.17-.36.02-.81.04-1.34.04-.02-.16-.06-.34-.13-.55s-.14-.4-.21-.55c.41,0,.78.02,1.1.02s.53,0,.64,0c.12,0,.19-.03.23-.07.03-.04.05-.1.05-.19v-6.98ZM168.7,246.2h4.06v1h-4.06v-1ZM168.83,242.24h3.72v.99h-3.72v-.99Z"/>
          <path class="cls-3" d="M175.1,253.77v-.8c1.13-.99,2.06-1.9,2.8-2.71.73-.82,1.28-1.58,1.63-2.28.35-.7.53-1.36.53-1.98,0-.41-.07-.78-.21-1.11-.14-.32-.36-.58-.66-.76-.3-.18-.67-.27-1.12-.27s-.85.12-1.23.35c-.38.24-.72.54-1.01.9l-.78-.77c.43-.48.9-.87,1.4-1.15.5-.29,1.1-.43,1.79-.43.65,0,1.21.13,1.67.39s.83.63,1.09,1.11c.26.48.39,1.04.39,1.67,0,.72-.18,1.45-.54,2.18-.36.74-.86,1.49-1.49,2.25s-1.37,1.54-2.22,2.34c.29-.02.58-.04.89-.07.31-.02.6-.04.88-.04h3v1.17h-6.8Z"/>
          <path class="cls-3" d="M184.34,247.08h5.34v.97h-5.34v-.97ZM185.04,242.01h4.28v3.91h-4.28v-3.91ZM185.74,247.48h.96c-.1.5-.2,1.03-.32,1.58-.11.55-.22,1.02-.33,1.4h-.99c.12-.41.24-.89.36-1.45.12-.55.23-1.06.32-1.53ZM185.84,249.55h2.66v.91h-2.89l.24-.91ZM188.11,249.55h.97c-.01.23-.02.38-.03.46-.07.95-.14,1.73-.21,2.32s-.16,1.05-.25,1.37-.21.55-.35.7c-.11.13-.23.22-.36.27s-.3.09-.49.11c-.15,0-.35.01-.62,0-.27,0-.55-.01-.84-.02,0-.15-.04-.31-.08-.49-.04-.18-.11-.33-.18-.46.29.03.55.05.8.05.25,0,.42,0,.53,0,.11,0,.2,0,.27-.01.07-.02.14-.06.2-.13.1-.09.18-.28.26-.57.07-.29.14-.71.21-1.27s.13-1.29.18-2.19v-.16ZM185.9,242.85v2.23h2.54v-2.23h-2.54ZM190.31,244.29h.99v3.76c0,.51-.02,1.07-.05,1.67s-.11,1.21-.21,1.83c-.11.62-.26,1.22-.46,1.8s-.46,1.12-.78,1.61c-.06-.06-.14-.13-.24-.21-.1-.08-.2-.15-.3-.22s-.2-.12-.29-.16c.41-.61.71-1.29.9-2.03.19-.74.31-1.48.36-2.23.05-.74.08-1.43.08-2.06v-3.76ZM192.48,249.91h.94c-.03.79-.11,1.5-.23,2.13-.12.63-.33,1.19-.62,1.67-.29.48-.7.88-1.23,1.22-.07-.12-.16-.25-.28-.4-.12-.15-.23-.26-.34-.34.46-.27.81-.6,1.05-1.01.24-.41.41-.89.51-1.43.1-.55.16-1.16.19-1.84ZM190.81,244.29h6.46v.91h-6.46v-.91ZM191.61,246.67l4.43-.44.09.8-4.41.46-.1-.81ZM193.16,245.3h.97v2.49c0,.19.02.32.05.4.03.08.13.12.29.12h1.59c.13,0,.28,0,.46-.01.18,0,.33-.03.44-.06,0,.14.02.28.04.42s.03.28.05.41c-.1.03-.24.05-.41.06-.18,0-.35.01-.53.01h-1.8c-.3,0-.54-.05-.71-.14-.17-.09-.28-.24-.35-.44-.06-.2-.1-.46-.1-.77v-2.48ZM193.23,241.37h1.05v3.39h-1.05v-3.39ZM193.73,242.39h3.54v.91h-3.54v-.91ZM194.68,249.91h.94v3.42s0,.1.01.14c0,.04.04.08.09.1.06.05.17.07.32.07h.5c.08,0,.16,0,.23-.01s.12-.03.15-.06c.11-.06.17-.17.19-.32.02-.12.03-.31.04-.58s.02-.57.02-.9c.09.09.21.17.38.26s.31.15.45.2c-.01.34-.03.68-.05,1-.02.32-.06.55-.11.68-.05.14-.11.25-.18.34-.07.09-.16.17-.27.24-.09.04-.21.07-.35.1-.15.02-.29.04-.41.04h-.81c-.16,0-.31-.02-.47-.04-.16-.03-.29-.09-.4-.19-.11-.1-.18-.22-.22-.36-.04-.14-.06-.38-.06-.72v-3.39ZM196.99,244.29h.15l.18-.04.68.18c-.1.43-.2.89-.31,1.36-.11.47-.22.87-.32,1.19l-.84-.19c.09-.3.18-.68.27-1.11.09-.44.16-.85.21-1.23v-.15Z"/>
        </g>
        <g>
          <path class="cls-4" d="M23.63,195.64c.38-.14.82-.31,1.32-.5.49-.2,1.02-.41,1.58-.64.56-.23,1.11-.47,1.67-.7l.34,1.33c-.74.35-1.48.71-2.23,1.07-.75.36-1.44.68-2.08.96l-.59-1.51ZM23.93,189.62h4.33v1.41h-4.33v-1.41ZM25.48,186.51h1.4v9.23h-1.4v-9.23ZM27.76,192l7.34-3.11.56,1.29-7.34,3.15-.56-1.33ZM29.19,187.67h1.43v9.16c0,.26.02.46.07.59.05.14.14.23.29.27.15.05.37.07.66.07h2.91c.26,0,.46-.05.59-.15.13-.1.23-.28.29-.54.06-.26.11-.64.14-1.13.17.12.38.23.64.34.26.1.49.17.69.21-.07.66-.17,1.18-.32,1.56-.15.38-.37.65-.67.81-.3.16-.71.24-1.25.24h-3.14c-.6,0-1.07-.07-1.41-.2-.35-.13-.59-.36-.72-.69-.14-.33-.2-.8-.2-1.41v-9.14ZM31.99,186.33h1.41v9.84h-1.41v-9.84ZM34.74,189.27h-.15l.52-.38,1.13.36-.06.22c-.03.65-.07,1.35-.13,2.1s-.13,1.48-.21,2.2c-.08.72-.18,1.35-.3,1.9l-1.22-.35c.06-.37.11-.81.15-1.29.05-.49.09-1.01.12-1.56s.06-1.1.08-1.65.04-1.07.06-1.55Z"/>
          <path class="cls-4" d="M43.79,196.21l1.01.36c-.08.43-.2.89-.34,1.39-.14.49-.31.91-.52,1.25l-1.04-.43c.14-.22.27-.48.38-.77.11-.29.21-.59.3-.91.09-.32.16-.61.2-.88ZM43.22,194.66h6.31v1.13h-6.31v-1.13ZM43.49,192.68h5.85v1.15h-5.85v-1.15ZM43.5,186.77h5.84v5.21h-5.84v-5.21ZM44.63,187.79v3.16h3.53v-3.16h-3.53ZM44.68,188.43l.64-.18c.11.33.21.68.29,1.06s.14.71.15.98l-.69.21c0-.28-.05-.61-.13-1s-.17-.74-.28-1.07ZM45.12,196.57l.94-.1c.07.38.13.8.16,1.26.03.46.04.85.04,1.19l-.98.11c.02-.34.01-.73-.01-1.19s-.07-.88-.14-1.27ZM45.91,187.29h.92v4.21h.2v3.64h-1.32v-3.64h.2v-4.21ZM46.55,196.56l.9-.17c.14.36.27.76.38,1.18s.19.8.23,1.11l-.95.2c-.03-.32-.1-.69-.2-1.13-.11-.43-.23-.83-.36-1.2ZM47.45,188.22l.77.28c-.13.35-.26.71-.39,1.08-.13.38-.26.7-.38.96l-.57-.21c.07-.2.14-.42.21-.67.07-.25.15-.5.21-.76.07-.26.12-.49.15-.69ZM47.97,196.53l.91-.32c.21.34.4.71.59,1.12.19.41.32.77.39,1.09l-.97.36c-.07-.31-.19-.67-.36-1.1-.18-.42-.36-.81-.56-1.15ZM49.9,192.96h5.67v6.37h-1.43v-5.01h-2.87v5.07h-1.37v-6.43ZM50.61,197.44h4.2v1.37h-4.2v-1.37ZM51.82,186.35h1.46v6.99h-1.46v-6.99ZM52.68,189.28h3.39v1.39h-3.39v-1.39Z"/>
        </g>
        <g>
          <g id="k3nAxI">
            <path class="cls-5" d="M8.06,204.48h-.05l-5.65-9.61c-1.59-3.15-3.21-6.1-1.86-9.69,2.38-6.32,11.06-7.3,14.83-1.69,2.27,3.37,1.48,6.39-.3,9.71l-6.97,11.28Z"/>
          </g>
          <path class="cls-4" d="M7.95,184.09c-3.05.27-4.56,3.94-2.58,6.29,1.83,2.17,5.34,1.65,6.46-.95s-.98-5.61-3.88-5.35Z"/>
        </g>
      </g>
      <g>
        <path class="cls-3" d="M63.28,277.27H15.01c-.01,2.1-.36,5.52-2.43,6.22,0,0,4.13.22,4.46,5.94.16,2.8.23,5.03.32,7.74h45.92v-19.9Z"/>
        <g>
          <path class="cls-6" d="M88.05,278.11l1.85,1.28c-.52.73-1.14,1.46-1.86,2.19-.72.73-1.5,1.44-2.34,2.12-.83.68-1.69,1.31-2.56,1.89-.87.58-1.73,1.08-2.57,1.48-.18-.31-.42-.66-.71-1.05-.29-.39-.57-.72-.85-.99.83-.34,1.68-.76,2.55-1.27.87-.51,1.71-1.08,2.53-1.7s1.56-1.27,2.23-1.95,1.25-1.34,1.73-2ZM80.16,294.49h18v2.25h-18v-2.25ZM82.24,289.73h13.64v2.19h-13.64v-2.19ZM83.17,278.11h7.05v2.34h-7.05v-2.34ZM83.25,285.08h11.6v2.23h-11.6v-2.23ZM87.65,278.11h2.78c.45.67.99,1.33,1.62,1.98.63.65,1.33,1.26,2.1,1.85.77.59,1.59,1.13,2.44,1.61.86.48,1.73.89,2.63,1.21-.17.18-.36.41-.58.68-.22.27-.43.55-.63.84-.2.29-.37.55-.49.79-1.22-.58-2.4-1.27-3.55-2.09-1.14-.82-2.2-1.71-3.16-2.65-.96-.95-1.8-1.89-2.52-2.83h-.65v-1.39ZM87.69,286.07h2.65v9.66h-2.65v-9.66Z"/>
          <path class="cls-6" d="M101.75,285.12l1.37-1.92c.42.15.86.34,1.33.55.46.21.9.44,1.32.68.41.25.75.48,1.02.71l-1.45,2.1c-.25-.24-.58-.49-.98-.75-.4-.26-.83-.51-1.28-.75-.46-.24-.89-.45-1.32-.63ZM102.28,295.5c.32-.55.68-1.19,1.07-1.93.39-.74.79-1.52,1.2-2.36.41-.83.78-1.67,1.12-2.49l2,1.52c-.31.76-.64,1.53-.99,2.3-.35.78-.71,1.54-1.06,2.29s-.72,1.47-1.08,2.16l-2.25-1.49ZM102.85,279.44l1.41-1.89c.41.15.85.35,1.32.58.47.23.91.47,1.33.73.41.25.75.5,1.02.74l-1.47,2.08c-.24-.25-.56-.51-.97-.78-.41-.27-.84-.53-1.31-.8-.46-.27-.9-.48-1.33-.65ZM110.59,284.97l2.17.72c-.34.79-.74,1.56-1.21,2.32-.47.76-.99,1.46-1.55,2.09-.56.64-1.15,1.18-1.77,1.63-.13-.2-.29-.41-.49-.65-.2-.24-.41-.47-.62-.69s-.41-.41-.61-.55c.56-.35,1.1-.79,1.62-1.31.52-.52.99-1.09,1.42-1.7.43-.62.78-1.23,1.04-1.85ZM106.99,283.5h14.63v2.27h-14.63v-2.27ZM107.82,279.65h13.18v2.25h-13.18v-2.25ZM110.13,287.44h2.31v6.57c0,.39.08.65.25.76.17.11.55.17,1.16.17h3.66c.34,0,.59-.05.75-.16.16-.11.28-.31.35-.62.07-.31.13-.77.17-1.39.27.18.61.36,1.03.53.42.17.79.29,1.12.36-.1.9-.26,1.6-.47,2.09-.22.5-.54.85-.98,1.05-.44.2-1.02.31-1.77.31h-4.08c-.9,0-1.6-.09-2.12-.26-.51-.18-.87-.49-1.07-.94-.2-.45-.31-1.07-.31-1.87v-6.59ZM110.43,277.48h2.44v7.62h-2.44v-7.62ZM111.23,287.44h6.86v5.14h-6.86v-1.89h4.61v-1.37h-4.61v-1.87ZM115.79,277.48h2.48v7.64h-2.48v-7.64ZM118.02,284.91c.27.58.61,1.15,1.02,1.74.41.58.88,1.12,1.4,1.6.52.48,1.05.89,1.58,1.21-.18.14-.39.33-.62.56-.23.23-.45.48-.65.74-.2.26-.37.49-.49.68-.6-.42-1.18-.94-1.72-1.56-.54-.62-1.04-1.29-1.48-2.02-.45-.73-.83-1.47-1.16-2.23l2.13-.72Z"/>
          <path class="cls-6" d="M124.72,280.32h19.32v2.48h-19.32v-2.48ZM126.51,285.14h13.87v2.48h-11.32v7.43h-2.55v-9.91ZM132.13,278.01l2.5-.78c.28.5.58,1.06.89,1.67.32.61.55,1.13.71,1.55l-2.65.88c-.08-.28-.21-.61-.37-1-.16-.39-.34-.79-.53-1.2-.19-.41-.38-.79-.56-1.13ZM132.95,282.05h2.63v15.07h-2.63v-15.07ZM139.79,285.14h2.63v7.16c0,.62-.08,1.11-.24,1.47-.16.37-.46.65-.89.86-.45.18-.98.3-1.59.35s-1.33.07-2.16.07c-.06-.38-.17-.8-.34-1.27s-.34-.87-.5-1.21c.35.01.71.02,1.06.03.36,0,.68.01.97.01h.6c.17,0,.29-.03.36-.08.07-.06.1-.15.1-.27v-7.11Z"/>
          <path class="cls-6" d="M148.78,297.35c-.06-.22-.15-.48-.27-.76-.13-.28-.27-.55-.42-.82s-.3-.48-.44-.65c.25-.15.5-.38.75-.67.25-.29.37-.68.37-1.16v-14.86h2.63v16.61c-.35.2-.65.38-.9.54-.25.16-.51.34-.78.55-.27.2-.49.41-.66.62-.18.21-.26.41-.26.61ZM148.78,297.35l-.19-2.17,1.16-.82,6.9-1.58c.01.22.03.49.05.79.02.3.05.6.09.88s.08.53.13.73c-1.29.31-2.38.57-3.26.79-.88.22-1.61.4-2.19.55-.58.15-1.04.27-1.38.37-.34.1-.61.18-.81.25-.2.07-.36.14-.5.21ZM150.1,278.43h14.06v6.88h-14.06v-2.34h11.49v-2.21h-11.49v-2.34ZM150.14,287.69h15.51v2.36h-15.51v-2.36ZM156,284.91h2.61c.07,1.26.26,2.47.56,3.62.3,1.15.67,2.18,1.1,3.07s.9,1.6,1.39,2.12c.49.51.96.77,1.41.77.27,0,.46-.23.59-.71.13-.47.22-1.24.27-2.31.28.25.63.49,1.04.73.41.23.8.4,1.15.49-.13,1.17-.32,2.06-.58,2.68-.26.62-.6,1.05-1.02,1.27-.42.22-.95.34-1.58.34-.93,0-1.79-.32-2.59-.97s-1.5-1.53-2.12-2.65c-.61-1.12-1.11-2.41-1.49-3.86-.39-1.45-.64-2.99-.75-4.6Z"/>
        </g>
        <g>
          <path class="cls-4" d="M23.83,291.81c.6-.06,1.28-.14,2.06-.21.77-.07,1.59-.16,2.45-.26.86-.1,1.71-.19,2.56-.29l.03,1.3c-.81.1-1.63.21-2.46.31-.83.1-1.62.2-2.38.29-.76.09-1.44.17-2.06.25l-.2-1.39ZM23.87,283.69h7.03v1.25h-7.03v-1.25ZM23.94,281.76l.91-.6c.24.25.48.53.72.84.24.31.41.58.52.83l-.97.67c-.1-.24-.27-.53-.49-.85s-.46-.62-.7-.88ZM24.29,286.77h6.22v1.23h-6.22v-1.23ZM24.59,289.07h5.7v1.22h-5.7v-1.22ZM24.95,285.33l1.04-.56c.21.22.41.48.62.76.21.28.35.54.45.76l-1.11.62c-.07-.22-.21-.48-.41-.78-.2-.29-.39-.56-.59-.81ZM25.83,280.7h1.19v3.4h-1.19v-3.4ZM26.71,287.15h1.4v5.07h-1.4v-5.07ZM28.67,284.84l1.3.45c-.2.36-.39.73-.59,1.1-.2.37-.38.68-.56.94l-1.09-.41c.1-.2.21-.42.34-.66.12-.24.24-.49.34-.74.11-.25.19-.48.26-.69ZM27.78,280.7h1.2v3.4h-1.2v-3.4ZM29.91,281.2l1.18.66c-.28.3-.56.6-.83.9s-.53.56-.76.78l-.9-.56c.14-.16.29-.34.46-.55s.32-.42.48-.64.28-.42.39-.59ZM30.91,284.29h5.73v1.4h-5.73v-1.4ZM31.14,287l1.25-.42c.19.34.36.69.52,1.06.16.37.3.74.41,1.1s.19.68.23.97l-1.33.48c-.04-.29-.11-.62-.22-.98-.11-.36-.23-.74-.38-1.13-.15-.39-.31-.75-.48-1.08ZM34.04,280.71h1.46v11.31c0,.4-.05.71-.14.93-.09.22-.27.38-.52.5-.23.12-.54.2-.91.24-.37.04-.84.06-1.4.06-.02-.13-.06-.28-.11-.46-.06-.17-.12-.35-.19-.52-.07-.17-.14-.32-.22-.46.38,0,.74.02,1.06.02.32,0,.54,0,.65,0,.12,0,.21-.02.25-.06.05-.04.07-.12.07-.25v-11.31Z"/>
          <path class="cls-4" d="M47.06,280.63l1.57.32c-.54.76-1.17,1.49-1.9,2.2-.72.71-1.58,1.37-2.58,1.97-.07-.12-.16-.25-.27-.39-.12-.14-.24-.26-.36-.38-.13-.12-.25-.22-.36-.29.61-.33,1.16-.68,1.66-1.07.5-.39.94-.78,1.32-1.19.38-.41.69-.8.93-1.17ZM49.74,289.24l1.05.56c-.4.35-.87.7-1.4,1.02-.53.33-1.1.63-1.69.91-.6.28-1.21.53-1.83.76-.62.22-1.22.42-1.8.57-.09-.17-.22-.36-.39-.58-.16-.22-.31-.39-.45-.52.58-.12,1.17-.28,1.78-.47.61-.19,1.21-.41,1.81-.64.59-.24,1.14-.49,1.64-.77.5-.27.93-.55,1.28-.83ZM49.03,287.85l1.01.52c-.35.27-.75.53-1.21.78s-.95.49-1.46.7c-.51.21-1.04.41-1.57.58-.53.17-1.05.31-1.54.43-.09-.16-.22-.34-.37-.54-.15-.2-.3-.37-.44-.51.49-.08,1.01-.19,1.53-.33s1.04-.29,1.55-.46c.5-.17.97-.36,1.4-.56.43-.2.8-.4,1.11-.61ZM48.85,286.25l.94.53c-.33.22-.7.44-1.13.64-.43.21-.88.4-1.37.59-.48.19-.96.36-1.44.51-.48.15-.94.27-1.37.36-.09-.14-.21-.31-.36-.51-.15-.2-.29-.37-.42-.5.58-.1,1.19-.24,1.84-.41.65-.17,1.27-.36,1.85-.57s1.07-.43,1.46-.66ZM44.72,283.57h9.8v3.37h-9.8v-3.37ZM46.13,284.66v1.18h6.9v-1.18h-6.9ZM46.93,281.58h4.12v1.13h-4.12v-1.13ZM47.29,287.39l.99-.74c.77.42,1.4.88,1.89,1.39.49.5.86,1.02,1.1,1.55.24.53.37,1.03.39,1.51.02.48-.05.92-.23,1.3s-.44.68-.78.89c-.26.18-.51.3-.76.36-.24.06-.54.09-.88.09-.17,0-.36,0-.57,0-.21,0-.43-.01-.65-.02,0-.21-.05-.43-.12-.69s-.17-.48-.3-.67c.26.03.51.04.76.05.24,0,.45,0,.63,0,.19,0,.36-.01.52-.04.16-.03.3-.09.43-.18.25-.16.41-.41.48-.76.06-.35.02-.75-.15-1.2-.16-.46-.47-.93-.91-1.43-.44-.49-1.06-.96-1.84-1.4ZM48.79,284.04h1.34v2.21h-1.34v-2.21ZM50.46,281.58h.34l.24-.07,1.02.67c-.17.26-.36.54-.58.84-.22.3-.45.58-.69.85-.24.27-.47.51-.69.71-.13-.11-.3-.24-.52-.38s-.4-.25-.56-.34c.19-.19.38-.4.57-.64.19-.24.36-.48.52-.73.15-.25.27-.47.36-.64v-.28ZM53.71,287.02l1.22.92c-.42.22-.86.44-1.33.65-.47.21-.93.41-1.39.59-.46.19-.89.35-1.29.48l-.95-.84c.39-.14.82-.31,1.27-.52.46-.21.9-.42,1.34-.65.43-.23.81-.44,1.14-.64ZM52.71,288.2c.16.44.39.9.69,1.37.3.48.67.92,1.11,1.34.44.42.95.75,1.53,1-.1.09-.22.21-.35.36-.13.15-.25.31-.37.47-.12.16-.21.31-.27.46-.6-.32-1.13-.73-1.59-1.23-.46-.5-.85-1.03-1.16-1.6-.31-.56-.56-1.1-.75-1.6l1.16-.57Z"/>
        </g>
        <g>
          <path class="cls-5" d="M7.91,274.99c-3.39.3-5.06,4.38-2.86,6.99,2.03,2.41,5.93,1.83,7.17-1.05s-1.08-6.23-4.31-5.94Z"/>
          <path class="cls-5" d="M7.18,284.51h2.36c2.99,0,5.41,2.42,5.41,5.41v7.26H1.78v-7.26c0-2.99,2.42-5.41,5.41-5.41Z"/>
        </g>
      </g>
      <line class="cls-1" x1=".69" y1="307.14" x2="198.26" y2="307.14"/>
      <g>
        <path class="cls-2" d="M4.38,162.39c-.69-1.12-1.23-2.3-1.62-3.53-.39-1.24-.58-2.59-.58-4.07s.2-2.82.58-4.06c.39-1.24.93-2.42,1.62-3.54l.84.39c-.64,1.07-1.12,2.22-1.43,3.46s-.47,2.49-.47,3.76.16,2.54.47,3.77.79,2.39,1.43,3.46l-.84.38Z"/>
        <path class="cls-2" d="M11.85,147.29l1.2.33c-.33.82-.72,1.61-1.18,2.38s-.94,1.47-1.46,2.12-1.06,1.23-1.62,1.73c-.07-.08-.17-.17-.29-.27s-.25-.2-.39-.3c-.14-.1-.25-.18-.35-.24.57-.45,1.11-.98,1.62-1.58.51-.6.98-1.26,1.4-1.97.42-.71.78-1.44,1.07-2.19ZM9.41,159.66c-.02-.08-.06-.19-.1-.34-.05-.15-.1-.3-.16-.46-.05-.16-.11-.29-.17-.39.2-.05.41-.19.62-.4.21-.22.46-.5.74-.85.14-.17.35-.45.64-.83s.6-.85.95-1.38c.35-.54.7-1.11,1.06-1.73.35-.62.68-1.23.98-1.85l1.23.52c-.48.87-.99,1.73-1.52,2.58-.54.85-1.09,1.65-1.65,2.41-.57.76-1.14,1.43-1.72,2.03v.04c-.18.08-.33.15-.44.22-.12.06-.22.13-.31.21-.1.07-.14.15-.14.22ZM9.41,159.66l-.02-.94.79-.45,8.42-.48c.03.16.07.35.12.56.05.21.09.38.12.51-1.34.09-2.49.17-3.46.24-.97.07-1.78.13-2.44.17s-1.2.08-1.62.12-.75.07-1,.1c-.25.03-.44.06-.57.09-.13.03-.25.06-.34.09ZM16.97,147.17c.25.52.55,1.05.9,1.59s.73,1.06,1.13,1.57c.41.51.82.98,1.24,1.42s.82.81,1.21,1.13c-.1.07-.21.16-.32.28s-.23.23-.34.35c-.11.11-.21.23-.28.34-.39-.37-.8-.79-1.22-1.27-.43-.48-.84-.99-1.25-1.54-.41-.55-.8-1.11-1.17-1.69-.37-.58-.7-1.16-.99-1.73l1.1-.45ZM16.16,155.34l1.05-.48c.45.53.9,1.1,1.36,1.72.46.62.88,1.21,1.28,1.8.4.58.73,1.11.98,1.57l-1.11.6c-.24-.46-.56-.99-.95-1.6s-.82-1.22-1.27-1.85c-.46-.63-.9-1.21-1.33-1.75Z"/>
        <path class="cls-2" d="M26.78,154.35h1.11c-.11.47-.25.96-.42,1.48-.17.52-.4,1.02-.68,1.52-.28.5-.63.97-1.04,1.41s-.92.82-1.51,1.14c-.05-.08-.12-.17-.19-.28-.08-.1-.16-.21-.25-.31-.08-.1-.17-.18-.25-.24.53-.26.98-.58,1.36-.98s.69-.8.93-1.24c.24-.44.44-.87.59-1.31s.27-.84.35-1.2ZM36,152.1l.83.81c-.77.14-1.64.26-2.62.37-.97.1-1.99.19-3.06.26-1.07.07-2.12.13-3.17.17-1.05.04-2.02.07-2.93.09-.04-.09-.1-.2-.18-.34-.08-.13-.16-.27-.25-.4-.08-.13-.16-.23-.23-.31.95.01,1.96,0,3.02-.02,1.06-.02,2.11-.06,3.16-.12s2.04-.14,2.98-.23,1.76-.19,2.46-.29ZM24.68,147.42h11.88v3.97h-11.88v-3.97ZM25.76,148.43v1.98h2.46v-1.98h-2.46ZM26.6,156.74l.6-.71c.29.2.59.43.89.67.3.25.59.5.85.75.26.25.48.48.65.68l-.63.79c-.16-.21-.37-.44-.64-.7-.27-.25-.55-.51-.85-.78-.3-.27-.6-.5-.89-.71ZM29.25,148.43v1.98h2.55v-1.98h-2.55ZM30.06,153.57l.66-.68.45.14v7.81h-1.11v-7.27ZM34.16,154.08h1.11c-.09.49-.21,1-.37,1.54-.16.54-.36,1.07-.62,1.58-.25.52-.58,1-.96,1.46-.39.46-.86.85-1.43,1.19-.07-.14-.18-.29-.32-.46-.15-.17-.28-.3-.41-.39.52-.28.95-.62,1.31-1.01.35-.4.63-.82.85-1.27.22-.46.39-.91.52-1.37.13-.46.23-.88.31-1.27ZM32.84,148.43v1.98h2.59v-1.98h-2.59ZM34.67,155.79c.16.32.39.68.68,1.07s.62.77.98,1.13c.36.36.75.67,1.15.92-.08.06-.17.14-.25.23-.09.1-.18.2-.26.31s-.16.21-.22.29c-.4-.28-.79-.62-1.16-1.04s-.7-.83-1-1.25c-.29-.42-.52-.8-.68-1.13l.76-.53Z"/>
        <path class="cls-2" d="M40.38,147.83h1.05v11.1h-1.05v-11.1ZM40.92,147.83h3.75v9.87h-3.75v-1.02h2.69v-7.81h-2.69v-1.04ZM40.97,152.19h3.13v1.02h-3.13v-1.02ZM44.93,151.55h8.77v1.02h-8.77v-1.02ZM45,154.26h8.55v1h-8.55v-1ZM45.56,148.64h7.52v1h-7.52v-1ZM45.92,156.32l.9-.53c.25.25.5.53.76.84.26.31.5.61.71.92.21.3.38.57.49.82l-.96.58c-.11-.25-.27-.53-.47-.83-.21-.3-.43-.61-.68-.93s-.5-.61-.75-.88ZM50.69,152.4h1.11v6.92c0,.32-.05.57-.14.74s-.25.3-.48.38c-.24.09-.56.14-.94.16-.39.02-.89.03-1.5.03-.02-.15-.07-.33-.14-.53s-.15-.38-.23-.53c.46,0,.88.02,1.26.02.38,0,.63,0,.75,0,.12,0,.2-.02.25-.06.04-.04.07-.12.07-.23v-6.9ZM48.71,146.84h1.11v5.34h-1.11v-5.34Z"/>
        <path class="cls-2" d="M55.86,157.1c.5-.06,1.07-.14,1.72-.23s1.33-.2,2.06-.31c.73-.11,1.46-.22,2.19-.33l.06.98c-1.04.18-2.08.35-3.1.52s-1.94.32-2.73.46l-.19-1.08ZM57.14,148.19l1.1.38v11.88h-1.1v-12.26ZM61.11,146.76l.93.85c-.42.18-.88.36-1.4.53-.51.18-1.03.34-1.56.49-.53.15-1.05.29-1.55.42-.03-.12-.08-.26-.17-.44-.08-.17-.15-.31-.21-.44.47-.13.95-.27,1.44-.43.49-.16.95-.32,1.39-.5.44-.17.81-.34,1.11-.5ZM57.57,150.51h4.04v1h-4.04v-1ZM57.57,153.57h4.02v1.02h-4.02v-1.02ZM67.55,153.66h.22l.2-.04.71.25c-.32,1.32-.81,2.43-1.46,3.33-.65.9-1.44,1.63-2.35,2.19-.91.56-1.91,1-3,1.32-.04-.1-.09-.21-.16-.33-.06-.12-.13-.24-.21-.35-.07-.12-.15-.21-.23-.28,1.02-.25,1.96-.62,2.81-1.12.85-.5,1.58-1.14,2.18-1.93.6-.79,1.04-1.74,1.3-2.86v-.18ZM63.44,147.41h1.05v1.84c0,.44-.05.91-.16,1.41s-.3.98-.58,1.45c-.28.46-.69.88-1.24,1.25-.05-.07-.12-.15-.22-.25s-.19-.19-.3-.27-.2-.15-.28-.2c.5-.34.87-.7,1.12-1.09.25-.38.41-.78.49-1.19.08-.4.12-.79.12-1.15v-1.81ZM62.37,153.66h5.42v.98h-5.42v-.98ZM63.78,154.55c.33.84.78,1.6,1.34,2.28.56.68,1.24,1.26,2.03,1.75.78.48,1.66.84,2.63,1.07-.08.08-.17.18-.26.29-.1.12-.18.23-.25.35-.08.12-.14.23-.2.31-1.5-.43-2.77-1.15-3.81-2.15-1.04-1-1.83-2.22-2.37-3.66l.9-.25ZM64.1,147.41h2.82v.98h-2.82v-.98ZM66.59,147.41h1.03v3.81c0,.2.02.33.05.4.03.07.1.1.2.1h1.02c.1,0,.22,0,.36-.02.14,0,.25-.02.34-.04,0,.13.02.28.03.45,0,.17.02.31.04.42-.08.03-.19.05-.33.06-.14.01-.29.02-.44.02h-1.12c-.33,0-.58-.05-.76-.14-.18-.1-.29-.25-.35-.45-.06-.2-.09-.48-.09-.82v-3.79Z"/>
        <path class="cls-2" d="M77.76,156.63l-.33-.8c.61-.26,1.08-.58,1.4-.97.33-.38.49-.86.49-1.43l-.27-1.26.81,1.14c-.11.13-.24.22-.38.26-.14.04-.28.07-.42.07-.31,0-.58-.09-.8-.27-.22-.18-.33-.44-.33-.79s.11-.63.34-.81c.23-.18.49-.27.8-.27.42,0,.74.16.95.47.21.31.32.73.32,1.25,0,.81-.24,1.51-.71,2.1-.47.59-1.1,1.03-1.89,1.31Z"/>
        <path class="cls-2" d="M88.59,154.11h13.09v.92h-13.09v-.92ZM88.76,149.46h12.75v3.24h-1.12v-2.35h-10.54v2.35h-1.08v-3.24ZM89.42,147.48h11.39v.87h-11.39v-.87ZM89.76,156.09h10.27v.93h-9.21v3.6h-1.06v-4.53ZM90.09,152.91c.48-.05,1.03-.12,1.65-.21s1.27-.19,1.94-.29l.04.72c-.58.11-1.15.22-1.71.34-.56.12-1.08.22-1.58.32l-.34-.89ZM90.48,151.22l.33-.62c.33.06.68.13,1.04.22s.71.18,1.04.28.61.2.83.3l-.33.69c-.22-.1-.5-.2-.82-.31-.33-.11-.68-.21-1.04-.31-.37-.1-.71-.18-1.04-.24ZM93.05,156.69h1.03v3.84h-1.03v-3.84ZM94.55,154.44l1.21.06c-.13.4-.27.79-.42,1.18-.15.39-.29.72-.42,1l-.99-.1c.12-.3.24-.65.35-1.06.11-.4.2-.76.26-1.07ZM94.52,147.78h1.1v5.86h-1.1v-5.86ZM96.24,153.02l.27-.69c.39.04.8.1,1.24.18s.85.17,1.25.27.74.19,1.02.28l-.25.78c-.27-.1-.61-.2-1.01-.31-.41-.1-.83-.2-1.27-.29-.44-.09-.85-.17-1.25-.23ZM96.38,156.69h1.04v3.84h-1.04v-3.84ZM99.29,150.53l.5.65c-.28.12-.6.23-.94.34-.35.1-.7.2-1.05.29-.35.09-.67.17-.96.23l-.4-.57c.29-.07.61-.16.96-.27.35-.11.69-.23,1.03-.34.34-.12.63-.23.87-.31ZM99.75,156.09h1.1v3.44c0,.26-.03.46-.09.61-.06.14-.19.26-.38.34-.19.09-.43.14-.71.16-.29.01-.63.02-1.04.02-.02-.14-.07-.3-.14-.47-.08-.18-.15-.33-.22-.47.3,0,.57.02.8.02s.39,0,.47-.02c.09,0,.15-.01.17-.04.02-.03.04-.08.04-.15v-3.42Z"/>
        <path class="cls-2" d="M104.31,152.34h5.73v1.02h-5.73v-1.02ZM104.63,147.57h4.88v1h-4.88v-1ZM106.79,152.84h1.08v6.5c0,.3-.04.54-.12.71s-.23.3-.44.39c-.21.09-.49.14-.83.17-.34.02-.78.03-1.3.03-.02-.15-.06-.33-.13-.53-.07-.21-.15-.39-.23-.55.39,0,.74.02,1.06.02h.62c.11-.01.19-.03.23-.06.04-.03.06-.09.06-.19v-6.47ZM105.06,150.2l.6-.74c.42.21.85.46,1.3.74s.86.57,1.25.86c.39.29.7.57.94.82l-.65.84c-.23-.26-.54-.54-.92-.85-.39-.3-.8-.6-1.24-.9s-.87-.55-1.29-.77ZM109.16,147.57h.24l.23-.06.71.5c-.23.38-.5.77-.81,1.17s-.63.78-.96,1.13-.65.67-.98.94c-.07-.11-.17-.23-.31-.35-.14-.12-.25-.23-.35-.32.28-.24.56-.52.84-.84.28-.32.54-.65.79-.99s.45-.65.6-.94v-.23ZM109.73,152.34h.15l.17-.04.71.19c-.19.57-.4,1.16-.62,1.76-.22.6-.44,1.11-.64,1.52l-.85-.23c.12-.25.24-.55.38-.89.13-.35.26-.71.38-1.08s.24-.73.34-1.07v-.17ZM112.52,158.06l.98.58c-.27.26-.6.52-.98.78-.38.26-.78.5-1.21.72-.42.22-.84.41-1.24.56-.09-.1-.21-.23-.36-.38-.15-.15-.29-.28-.41-.38.4-.15.8-.33,1.21-.53.41-.2.79-.42,1.14-.66s.63-.47.85-.7ZM110.43,147.56h7.62v.98h-7.62v-.98ZM111.02,149.96h6.52v7.83h-6.52v-7.83ZM112.07,150.84v1.44h4.4v-1.44h-4.4ZM112.07,153.12v1.47h4.4v-1.47h-4.4ZM112.07,155.43v1.48h4.4v-1.48h-4.4ZM113.66,148.02l1.27.17c-.12.43-.25.87-.38,1.31s-.25.82-.38,1.14l-1-.2c.06-.23.12-.49.19-.77.06-.28.12-.57.17-.86.05-.29.09-.55.12-.78ZM114.84,158.72l.84-.58c.31.17.63.37.97.6.33.23.65.46.96.69.3.23.56.44.76.63l-.9.65c-.18-.19-.42-.4-.71-.63-.3-.23-.61-.47-.95-.71-.34-.24-.66-.46-.96-.65Z"/>
        <path class="cls-2" d="M124.73,154.14h1.17c-.07.76-.19,1.48-.35,2.15-.17.67-.41,1.28-.74,1.84-.33.56-.78,1.05-1.34,1.49s-1.29.81-2.17,1.11c-.04-.1-.1-.21-.19-.32-.08-.12-.17-.23-.26-.35-.09-.12-.18-.21-.27-.28.82-.26,1.49-.58,2.01-.95.52-.37.92-.8,1.22-1.28.29-.48.5-1.01.64-1.58.14-.57.23-1.18.29-1.83ZM120.78,153.3h13.19v1.09h-13.19v-1.09ZM123.56,147.2l1.14.24c-.16.57-.35,1.17-.58,1.79s-.48,1.22-.78,1.81c-.3.58-.62,1.1-.97,1.54-.08-.06-.18-.12-.3-.19s-.24-.13-.35-.2c-.12-.06-.22-.11-.32-.14.35-.43.66-.92.94-1.48.27-.55.52-1.12.73-1.71s.38-1.14.5-1.66ZM123.26,149.19h9.63v1.08h-9.63v-1.08ZM126.8,146.85h1.14v6.81h-1.14v-6.81ZM128.73,154.1h1.12v4.71c0,.22.04.36.13.43.08.06.27.1.55.1h1.9c.19,0,.33-.05.43-.16.09-.1.16-.32.19-.64.04-.32.06-.8.08-1.46.08.06.18.12.31.19.12.07.25.12.38.17s.25.08.35.11c-.04.76-.11,1.35-.22,1.76-.1.42-.27.7-.49.86-.23.16-.54.24-.94.24h-2.12c-.45,0-.79-.05-1.04-.14-.24-.1-.41-.26-.5-.5s-.14-.56-.14-.97v-4.71Z"/>
        <path class="cls-2" d="M136.7,150.87h6.52v.98h-6.52v-.98ZM136.7,156.6h6.55v.98h-6.55v-.98ZM137.03,153.98h5.92v.98h-5.92v-.98ZM137.15,148.4h5.7v.96h-5.7v-.96ZM137.72,152.16l.82-.25c.18.28.34.59.49.94.14.34.24.64.29.88l-.89.3c-.05-.25-.14-.55-.28-.91-.13-.35-.28-.67-.44-.95ZM139.52,146.87h1.05v4.35h-1.05v-4.35ZM139.52,154.37h1.05v6.23h-1.05v-6.23ZM141.48,151.85l.97.27c-.21.42-.43.85-.67,1.27-.23.43-.46.81-.68,1.12l-.84-.25c.15-.22.3-.47.45-.75s.29-.57.43-.86c.14-.29.25-.56.34-.8ZM143.79,147.54h5.34v1.02h-4.29v12.06h-1.05v-13.08ZM144.33,152.64h4.92v.93h-4.92v-.93ZM148.91,152.64h.19l.2-.04.7.25c-.2,1.08-.51,2.12-.92,3.1-.42.99-.94,1.89-1.56,2.69-.62.81-1.35,1.48-2.18,2.03-.09-.13-.21-.27-.35-.41-.15-.15-.28-.26-.41-.35.79-.49,1.48-1.11,2.07-1.85.59-.74,1.07-1.56,1.46-2.46.38-.89.65-1.8.81-2.71v-.25ZM145.8,153.17c.27.93.63,1.82,1.09,2.67.46.85.99,1.61,1.61,2.27.62.66,1.31,1.17,2.06,1.53-.13.11-.27.25-.42.44-.15.18-.27.34-.36.49-.77-.44-1.47-1.02-2.09-1.75-.62-.72-1.17-1.55-1.63-2.47-.47-.92-.84-1.91-1.13-2.95l.89-.23ZM148.59,147.54h1.05v2.9c0,.28-.04.5-.11.66-.08.16-.23.29-.46.38-.23.08-.54.13-.92.14-.39.02-.87.02-1.46.02-.02-.15-.06-.32-.13-.5s-.14-.35-.22-.49c.32.01.61.02.88.02.26,0,.49,0,.68,0s.32,0,.39-.02c.13,0,.21-.03.25-.06.04-.03.05-.08.05-.17v-2.9Z"/>
        <path class="cls-2" d="M162.2,148.35h.23l.19-.06.75.42c-.45,1.13-1.04,2.17-1.75,3.11-.72.94-1.53,1.78-2.44,2.52-.91.74-1.86,1.38-2.87,1.93s-2.02.98-3.05,1.31c-.04-.1-.1-.21-.17-.35-.07-.13-.15-.25-.24-.38-.08-.12-.16-.21-.23-.28.97-.28,1.94-.67,2.91-1.17.97-.5,1.89-1.1,2.75-1.79.86-.69,1.64-1.46,2.32-2.31.69-.85,1.22-1.76,1.6-2.75v-.21ZM157.74,146.81l1.27.24c-.38.65-.83,1.3-1.36,1.96-.53.65-1.14,1.29-1.83,1.9s-1.47,1.17-2.34,1.68c-.05-.09-.12-.19-.22-.3-.1-.11-.19-.22-.29-.32s-.19-.19-.29-.25c.82-.45,1.56-.95,2.21-1.51.65-.56,1.22-1.12,1.69-1.71.47-.58.86-1.15,1.15-1.69ZM155.21,151.02l.83-.7c.4.26.81.56,1.24.9.43.34.82.68,1.19,1.02.37.34.67.65.9.94l-.92.79c-.21-.29-.5-.61-.85-.96s-.75-.7-1.17-1.05c-.42-.35-.83-.67-1.22-.95ZM158.1,154.26h6.75v1.04h-6.75v5.35h-1.12v-5.49l.9-.9h.23ZM157.07,148.35h5.5v1.02h-5.5v-1.02ZM157.59,159.02h7.23v1.04h-7.23v-1.04ZM164.28,154.26h1.15v6.42h-1.15v-6.42Z"/>
        <path class="cls-2" d="M169.73,162.39l-.85-.38c.65-1.07,1.13-2.22,1.46-3.46.32-1.23.48-2.49.48-3.77s-.16-2.52-.48-3.76c-.32-1.23-.81-2.39-1.46-3.46l.85-.39c.7,1.12,1.24,2.3,1.63,3.54.39,1.24.58,2.6.58,4.06s-.19,2.84-.58,4.07c-.38,1.23-.93,2.41-1.63,3.53Z"/>
      </g>
      <g>
        <path class="cls-6" d="M6.34,318.27l2.41.46c-.47.82-1.01,1.63-1.61,2.43-.6.8-1.27,1.58-2.01,2.34-.74.75-1.57,1.47-2.47,2.13-.11-.17-.26-.36-.44-.58-.18-.21-.37-.41-.58-.61-.2-.2-.39-.35-.57-.46.83-.56,1.58-1.16,2.25-1.81.67-.65,1.26-1.31,1.76-1.99.51-.67.92-1.31,1.24-1.92ZM8.94,324.32h2.36c-.09.99-.21,1.95-.37,2.88-.16.93-.41,1.81-.75,2.65-.34.84-.82,1.62-1.43,2.35-.61.72-1.41,1.38-2.4,1.96-.99.58-2.22,1.08-3.68,1.49-.11-.29-.29-.61-.53-.97-.24-.37-.49-.67-.73-.9,1.36-.33,2.49-.75,3.38-1.23.89-.49,1.6-1.04,2.13-1.64s.92-1.26,1.19-1.96c.27-.7.46-1.44.58-2.22.12-.78.21-1.58.27-2.39ZM3.24,323.01h13.92v6.33H3.24v-6.33ZM5.48,324.97v2.4h9.3v-2.4H5.48ZM6.6,319.57h5.53v1.82h-6.63l1.1-1.82ZM11.46,319.57h.5l.35-.09,1.56,1c-.25.41-.54.85-.87,1.34-.33.48-.68.95-1.05,1.4-.37.45-.72.85-1.07,1.2-.22-.17-.5-.36-.82-.58-.32-.21-.61-.38-.87-.52.3-.31.59-.67.89-1.07.3-.4.57-.8.82-1.21.25-.4.43-.75.56-1.05v-.43ZM10.68,328.5h2.32v4.27c0,.31.05.5.14.58s.32.11.68.11h1.97c.22,0,.39-.06.5-.17s.19-.34.24-.68c.05-.34.09-.85.11-1.53.15.11.34.22.58.33s.49.21.74.3c.25.09.49.16.7.22-.07.92-.2,1.63-.39,2.13s-.46.86-.82,1.07-.85.31-1.47.31h-2.52c-.74,0-1.31-.08-1.72-.24-.4-.16-.68-.44-.83-.83-.16-.39-.23-.92-.23-1.59v-4.29Z"/>
        <path class="cls-6" d="M29.17,318.35h2.02v3.84c0,.66-.08,1.27-.24,1.85-.16.58-.46,1.1-.91,1.57-.45.47-1.09.88-1.93,1.23-.84.35-1.95.63-3.32.84-.06-.16-.15-.35-.28-.57-.12-.22-.25-.43-.39-.64s-.27-.38-.39-.52c1.19-.15,2.14-.35,2.86-.59.72-.25,1.26-.53,1.63-.85.37-.32.62-.68.75-1.07.13-.39.19-.81.19-1.27v-3.81ZM29.21,332.68l1.99.91c-.51.3-1.1.59-1.76.87-.67.28-1.35.54-2.05.78-.7.23-1.37.43-2.01.59-.11-.15-.27-.33-.46-.53-.2-.2-.4-.41-.59-.6-.2-.2-.38-.36-.56-.48.67-.1,1.34-.23,2.01-.39.67-.16,1.31-.34,1.9-.54.59-.2,1.11-.4,1.54-.61ZM26.26,321.22h11.06v-.74h-12.4v-1.3h14.41v3.34h-13.07v-1.3ZM25.62,321.22h1.95c-.07.58-.16,1.18-.26,1.8-.1.62-.2,1.16-.3,1.62h-1.95c.11-.47.22-1.02.32-1.64.1-.62.18-1.22.24-1.77ZM25.9,323.32h13.25v1.32h-13.64l.39-1.32ZM26.16,325.79h12.46v7.17h-12.46v-7.17ZM28.34,327.05v.74h8.02v-.74h-8.02ZM28.34,328.98v.74h8.02v-.74h-8.02ZM28.34,330.92v.78h8.02v-.78h-8.02ZM33.27,318.35h2.1v7.5h-2.1v-7.5ZM33.68,333.66l1.24-1.26c.68.21,1.37.44,2.07.69.7.25,1.36.49,1.99.72.62.23,1.17.46,1.62.67l-1.61,1.34c-.41-.21-.9-.44-1.48-.69-.58-.25-1.19-.5-1.85-.76-.66-.26-1.32-.49-1.99-.71ZM38.43,323.32h2.08c-.01.28-.02.48-.02.59-.04.58-.09,1.04-.16,1.38-.07.34-.18.6-.34.77-.14.14-.3.24-.49.32s-.39.12-.58.13c-.19.01-.44.02-.75.02s-.65,0-1.01-.02c-.01-.2-.06-.42-.13-.68-.07-.25-.16-.47-.26-.64.24.01.44.02.62.04.18.01.32.02.42.02.09,0,.16,0,.22-.02.06-.01.12-.05.17-.11.06-.09.11-.25.15-.48.04-.23.07-.6.09-1.1v-.22Z"/>
        <path class="cls-6" d="M53.82,322.99l2.04.58c-.59,1.06-1.35,2.02-2.26,2.87s-1.93,1.58-3.05,2.19c-1.13.61-2.33,1.13-3.6,1.55-.07-.15-.18-.34-.33-.57-.14-.23-.29-.45-.45-.68-.16-.22-.3-.4-.43-.52,1.2-.32,2.32-.73,3.37-1.23,1.05-.5,1.97-1.1,2.78-1.81s1.45-1.5,1.92-2.38ZM47.36,326.5c-.05-.14-.11-.31-.19-.52s-.16-.43-.25-.65c-.09-.22-.17-.41-.26-.58.11-.02.23-.08.34-.17.12-.09.23-.19.32-.32.07-.09.18-.22.31-.41.13-.19.27-.41.43-.68s.29-.55.4-.84l1.97.8c-.26.42-.57.85-.94,1.3-.37.45-.72.82-1.07,1.11v.04c-.21.12-.39.23-.53.32-.14.09-.27.19-.37.3s-.16.2-.16.29ZM47.36,326.5l-.04-1.34.84-.52,2.93-.11c.11.24.25.5.43.78.17.28.31.53.41.72-.89.05-1.61.1-2.16.14-.55.04-.98.08-1.3.12-.32.04-.55.07-.71.1-.16.03-.29.06-.39.1ZM48.55,322.49c-.02-.14-.08-.31-.16-.53-.08-.22-.16-.44-.24-.68-.08-.24-.16-.44-.23-.61.36-.06.77-.21,1.24-.45.19-.07.46-.21.83-.41.36-.2.76-.43,1.19-.71.43-.27.83-.57,1.2-.89l1.95.95c-.68.48-1.42.94-2.23,1.36-.8.43-1.58.78-2.34,1.07v.04c-.25.1-.45.19-.6.29s-.29.19-.42.28c-.12.09-.19.19-.19.29ZM58.87,330.47l1.8.87c-.82.87-1.82,1.59-3.02,2.17-1.19.58-2.51,1.06-3.95,1.42-1.44.36-2.97.65-4.58.86-.09-.26-.22-.56-.41-.9-.19-.34-.38-.63-.58-.88,1.49-.15,2.91-.36,4.29-.65,1.37-.28,2.62-.66,3.73-1.13,1.11-.47,2.02-1.06,2.71-1.76ZM48.55,322.49l-.02-1.32,1.21-.58,9.36-.24c.12.26.27.54.44.83.17.29.3.52.4.7-1.88.07-3.46.14-4.73.19-1.27.05-2.31.09-3.12.11-.8.02-1.43.05-1.88.08s-.8.06-1.04.09-.44.08-.6.14ZM56.85,328.63l1.65.84c-.67.56-1.46,1.06-2.37,1.5-.91.45-1.88.83-2.9,1.16-1.02.33-2.04.6-3.07.83-.11-.23-.27-.5-.48-.8-.21-.3-.42-.56-.61-.78.94-.16,1.91-.37,2.9-.63.99-.26,1.91-.57,2.77-.93s1.56-.75,2.12-1.19ZM54.86,326.92l1.58.82c-.52.37-1.11.72-1.77,1.05-.66.33-1.35.62-2.05.88-.71.26-1.39.48-2.04.67-.14-.2-.31-.42-.53-.67-.22-.25-.44-.46-.66-.65.62-.15,1.27-.33,1.96-.55.69-.22,1.34-.46,1.97-.72.62-.27,1.14-.54,1.55-.83ZM50.28,323.75l1.58-.45c.23.4.46.83.68,1.31.22.48.37.89.45,1.23l-1.63.5c-.07-.35-.21-.76-.42-1.25s-.42-.94-.66-1.35ZM55.31,323.93c.41.48.91.95,1.5,1.39.59.45,1.25.86,1.98,1.24.72.38,1.49.72,2.31,1.02.82.3,1.64.54,2.47.72-.16.14-.33.31-.51.51-.18.2-.35.42-.5.63-.15.22-.29.41-.4.57-.85-.25-1.69-.55-2.52-.9-.82-.35-1.61-.76-2.37-1.23-.75-.46-1.45-.97-2.09-1.5s-1.21-1.11-1.72-1.72l1.84-.74ZM55.61,319.35l1.67-.78c.43.3.89.64,1.37,1.02.48.38.94.77,1.38,1.16.44.39.8.75,1.09,1.07l-1.78.87c-.25-.31-.58-.66-1-1.06-.42-.4-.87-.8-1.34-1.21-.47-.41-.93-.77-1.39-1.08ZM56.74,326.39c-.05-.12-.11-.29-.19-.5-.07-.21-.16-.42-.25-.64-.09-.22-.18-.4-.25-.55.1-.04.2-.1.32-.19.11-.09.21-.19.3-.3.06-.07.15-.2.26-.39s.23-.41.35-.66c.12-.25.22-.52.3-.81l1.97.76c-.21.41-.48.83-.81,1.26-.33.43-.64.79-.94,1.08v.04c-.22.12-.4.23-.54.32s-.26.19-.36.29c-.11.1-.16.19-.16.28ZM56.74,326.39l-.04-1.32.84-.52,3.04-.15c.11.24.25.5.42.78.17.28.3.53.4.74-.9.05-1.64.1-2.21.14s-1.01.08-1.34.12-.56.07-.72.11-.29.07-.39.09ZM59.65,323.66l1.54-.61c.37.43.73.92,1.08,1.46.35.54.59,1.02.74,1.44l-1.65.71c-.14-.41-.37-.89-.69-1.45-.32-.56-.66-1.07-1.02-1.54Z"/>
        <path class="cls-6" d="M70.66,318.63h2.19c0,1.83-.03,3.58-.08,5.24-.06,1.67-.18,3.23-.38,4.69-.2,1.46-.52,2.8-.97,4.02-.45,1.22-1.08,2.29-1.88,3.22-.11-.19-.26-.38-.45-.59-.19-.21-.38-.41-.59-.59-.21-.19-.41-.33-.59-.45.58-.66,1.05-1.4,1.4-2.22.35-.82.62-1.72.82-2.7.19-.98.32-2.03.4-3.15s.12-2.31.13-3.56c.01-1.26.02-2.56.02-3.91ZM68.45,321.69h6.79v2.17h-6.79v-2.17ZM74.71,321.69h2.15v.63c0,.16,0,.29-.02.39-.04,1.98-.08,3.67-.12,5.06-.04,1.39-.09,2.53-.15,3.43s-.13,1.59-.23,2.1c-.1.51-.22.87-.37,1.08-.21.31-.43.53-.65.67s-.49.23-.8.3c-.27.06-.61.1-1,.1s-.81,0-1.24-.03c-.01-.32-.07-.7-.19-1.12-.11-.43-.26-.79-.45-1.1.37.02.71.04,1.02.06.31.01.55.02.72.02.14,0,.25-.02.35-.07.1-.05.19-.14.28-.28.1-.14.19-.42.26-.85s.14-1.06.19-1.89.09-1.9.13-3.2.07-2.9.11-4.78v-.48ZM77.9,320.48h6.76v14.8h-2.23v-12.64h-2.39v12.77h-2.13v-14.93ZM78.9,331.97h4.75v2.13h-4.75v-2.13Z"/>
      </g>
      <g>
        <path class="cls-6" d="M7.3,89.96l2.17.63c-.27.61-.6,1.2-.98,1.78s-.79,1.13-1.23,1.63c-.43.51-.86.95-1.28,1.32-.15-.14-.33-.29-.56-.46-.22-.17-.45-.34-.69-.51-.23-.17-.45-.3-.63-.4.64-.48,1.25-1.08,1.83-1.79.58-.71,1.03-1.44,1.36-2.2ZM4.53,97.61h16.43v1.91H4.53v-1.91ZM6.33,83.22h12.73v6.92H6.33v-6.92ZM6.83,94.6h12.1v1.75H6.83v-1.75ZM7.32,91.61h12.46v1.86H7.32v-1.86ZM8.52,84.91v.97h8.24v-.97h-8.24ZM8.52,87.46v1h8.24v-1h-8.24ZM11.64,90.48h2.3v8.45h-2.3v-8.45Z"/>
        <path class="cls-6" d="M28.57,95.7l2.12.61c-.35.68-.77,1.36-1.28,2.03-.51.67-1.01,1.24-1.5,1.7-.12-.14-.29-.29-.51-.45-.22-.16-.44-.32-.67-.48-.23-.16-.43-.29-.6-.39.5-.37.96-.83,1.4-1.37.44-.54.79-1.1,1.05-1.65ZM26.27,93.62h9.19v1.95h-9.19v-1.95ZM26.49,84.75h9.1v1.95h-9.1v-1.95ZM27.94,82.78h2v11.55h-2v-11.55ZM28.9,87.79h4.44v1.69h-4.44v-1.69ZM28.9,90.67h4.44v1.71h-4.44v-1.71ZM31.34,96.53l1.69-.93c.25.26.5.55.77.88.27.33.52.65.76.97s.44.6.58.86l-1.8,1.04c-.12-.25-.3-.54-.53-.86s-.47-.67-.73-1.01c-.26-.35-.51-.66-.74-.95ZM32.27,82.78h2.04v11.55h-2.04v-11.55ZM36.2,83.39h2.1v6.83c0,.73-.02,1.53-.06,2.39s-.13,1.74-.26,2.63-.31,1.74-.55,2.57c-.24.83-.56,1.57-.97,2.23-.11-.14-.28-.29-.5-.46-.22-.17-.45-.32-.67-.47s-.42-.26-.59-.33c.47-.8.81-1.7,1.02-2.69s.34-2,.4-3.02c.06-1.02.08-1.97.08-2.85v-6.83ZM37.11,91.84h4.83v1.99h-4.83v-1.99ZM37.13,83.39h4.79v2.02h-4.79v-2.02ZM37.13,87.59h4.79v1.97h-4.79v-1.97ZM40.97,83.39h2.13v14.15c0,.54-.06.97-.19,1.29-.12.32-.35.57-.67.75-.32.17-.73.28-1.22.33-.49.05-1.08.07-1.77.06-.04-.3-.12-.65-.24-1.07-.12-.42-.25-.76-.39-1.05.4.03.79.04,1.18.04h.79c.14,0,.23-.03.29-.08.06-.06.08-.15.08-.29v-14.13Z"/>
        <path class="cls-6" d="M53.37,91.15l2.51.8c-.45.94-.96,1.9-1.53,2.87-.58.97-1.16,1.89-1.75,2.76-.59.87-1.17,1.63-1.73,2.28-.17-.15-.4-.32-.67-.51s-.55-.38-.84-.57c-.28-.19-.53-.33-.74-.45.57-.58,1.14-1.27,1.73-2.06.58-.79,1.13-1.63,1.65-2.51.52-.88.98-1.75,1.37-2.62ZM48.86,87.23h16.87v2.32h-16.87v-2.32ZM55.14,83.37l2.34-.78c.21.38.43.8.66,1.25.23.45.45.9.67,1.34.22.44.39.83.53,1.16l-2.51.93c-.11-.33-.26-.72-.45-1.17-.19-.45-.39-.91-.6-1.38-.22-.48-.43-.93-.64-1.35ZM58.61,92.06l2.15-1.04c.38.58.8,1.2,1.26,1.86.46.66.91,1.32,1.36,1.99.45.67.88,1.31,1.28,1.92.4.61.74,1.17,1.01,1.66l-2.38,1.3c-.24-.5-.54-1.06-.9-1.68-.37-.62-.77-1.29-1.21-1.99-.44-.7-.88-1.39-1.33-2.08-.45-.69-.87-1.33-1.26-1.94Z"/>
        <path class="cls-6" d="M83.87,94.38c-.37-.46-.79-.93-1.24-1.42-.46-.49-.92-.97-1.39-1.43-.47-.46-.92-.88-1.35-1.23l1.93-1.69c.45.36.92.78,1.42,1.27.5.49.99.98,1.46,1.48.47.5.86.93,1.17,1.32l-1.99,1.71Z"/>
        <path class="cls-6" d="M101.97,83.69h12.96v16.06h-2.39v-13.81h-8.28v13.85h-2.28v-16.1ZM103.53,89.92h9.99v2.19h-9.99v-2.19ZM103.53,96.31h10.01v2.25h-10.01v-2.25Z"/>
      </g>
      <g>
        <path class="cls-6" d="M10.27,138.09h-4.07v-12.77l-2.43,1.5v-3.77l2.92-1.86h3.58v16.91Z"/>
        <path class="cls-6" d="M23.11,138.33c-3.28,0-6.08-1.52-6.08-5.64v-6.13c0-4.36,2.79-5.64,6.08-5.64s6.08,1.27,6.08,5.61v6.15c0,4.12-2.79,5.64-6.08,5.64ZM21.08,132.23c0,1.81.49,2.72,2.03,2.72s2.01-.91,2.01-2.72v-5.2c0-1.81-.49-2.72-2.01-2.72s-2.03.91-2.03,2.72v5.2Z"/>
        <path class="cls-6" d="M37.1,127.16h-3.82v-3.82h3.82v3.82ZM37.1,135.59h-3.82v-3.82h3.82v3.82Z"/>
        <path class="cls-6" d="M46.9,138.33c-3.28,0-6.08-1.52-6.08-5.64v-6.13c0-4.36,2.79-5.64,6.08-5.64s6.08,1.27,6.08,5.61v6.15c0,4.12-2.79,5.64-6.08,5.64ZM44.87,132.23c0,1.81.49,2.72,2.03,2.72s2.01-.91,2.01-2.72v-5.2c0-1.81-.49-2.72-2.01-2.72s-2.03.91-2.03,2.72v5.2Z"/>
        <path class="cls-6" d="M62.46,138.33c-3.28,0-6.08-1.52-6.08-5.64v-6.13c0-4.36,2.79-5.64,6.08-5.64s6.08,1.27,6.08,5.61v6.15c0,4.12-2.79,5.64-6.08,5.64ZM60.42,132.23c0,1.81.49,2.72,2.03,2.72s2.01-.91,2.01-2.72v-5.2c0-1.81-.49-2.72-2.01-2.72s-2.03.91-2.03,2.72v5.2Z"/>
        <path class="cls-6" d="M80.59,129.19h9.53v3.63h-9.53v-3.63Z"/>
        <path class="cls-6" d="M110.97,138.09h-4.07v-12.77l-2.43,1.5v-3.77l2.92-1.86h3.58v16.91Z"/>
        <path class="cls-6" d="M121.79,127.67h1.32c1.03,0,1.96-.54,1.96-1.74,0-1.05-.76-1.67-1.79-1.67s-1.59.61-1.79,1.5h-3.5c.17-2.79,2.45-4.83,5.54-4.83s5.59,2.28,5.59,4.75c0,1.98-1.27,3.09-2.21,3.63,1.37.73,2.45,2.03,2.45,3.99,0,2.79-1.91,5.02-5.64,5.02s-5.86-2.08-5.98-4.93h3.5c.15.93.88,1.54,2.16,1.54s1.91-.86,1.91-1.94c0-1.25-.71-1.96-2.21-1.96h-1.32v-3.38Z"/>
        <path class="cls-6" d="M137.79,127.16h-3.82v-3.82h3.82v3.82ZM137.79,135.59h-3.82v-3.82h3.82v3.82Z"/>
        <path class="cls-6" d="M147.59,138.33c-3.28,0-6.08-1.52-6.08-5.64v-6.13c0-4.36,2.79-5.64,6.08-5.64s6.08,1.27,6.08,5.61v6.15c0,4.12-2.79,5.64-6.08,5.64ZM145.56,132.23c0,1.81.49,2.72,2.03,2.72s2.01-.91,2.01-2.72v-5.2c0-1.81-.49-2.72-2.01-2.72s-2.03.91-2.03,2.72v5.2Z"/>
        <path class="cls-6" d="M163.15,138.33c-3.28,0-6.08-1.52-6.08-5.64v-6.13c0-4.36,2.79-5.64,6.08-5.64s6.08,1.27,6.08,5.61v6.15c0,4.12-2.79,5.64-6.08,5.64ZM161.12,132.23c0,1.81.49,2.72,2.03,2.72s2.01-.91,2.01-2.72v-5.2c0-1.81-.49-2.72-2.01-2.72s-2.03.91-2.03,2.72v5.2Z"/>
      </g>
    </g>
  </g>
</svg>