<svg width="246" height="347" viewBox="0 0 246 347" fill="none" xmlns="http://www.w3.org/2000/svg">
<g clip-path="url(#clip0_249_251)">
<path d="M60.2499 0H15.9299C7.89414 0 1.37988 6.51202 1.37988 14.545C1.37988 22.578 7.89414 29.09 15.9299 29.09H60.2499C68.2856 29.09 74.7999 22.578 74.7999 14.545C74.7999 6.51202 68.2856 0 60.2499 0Z" fill="#003E7E"/>
<path d="M23.4598 22.39H13.5898V20.31L18.9398 14.01C19.9398 12.85 20.4198 11.88 20.4198 10.84C20.4198 9.53996 19.4698 8.88996 18.4298 8.88996C17.3898 8.88996 16.5298 9.55996 16.4398 10.84H13.5698C13.5698 8.07996 15.8398 6.20996 18.5998 6.20996C21.3598 6.20996 23.6498 8.19996 23.6498 10.84C23.6498 12.95 22.2598 14.59 21.2398 15.8L17.9498 19.67H23.4598V22.4V22.39Z" fill="white"/>
<path d="M37.1199 17.5004C37.1199 21.0904 34.6199 22.6004 31.7499 22.6004C28.8799 22.6004 26.3799 21.0904 26.3799 17.5004V11.2904C26.3799 7.54043 28.8799 6.19043 31.7499 6.19043C34.6199 6.19043 37.1199 7.53043 37.1199 11.2604V17.4904V17.5004ZM31.7499 8.93043C30.2899 8.93043 29.5999 9.86043 29.5999 11.5704V17.2204C29.5999 18.9304 30.2999 19.8604 31.7499 19.8604C33.1999 19.8604 33.8799 18.9304 33.8799 17.2204V11.5704C33.8799 9.86043 33.1899 8.93043 31.7499 8.93043Z" fill="white"/>
<path d="M49.6297 22.39H39.7597V20.31L45.1097 14.01C46.1097 12.85 46.5897 11.88 46.5897 10.84C46.5897 9.53996 45.6397 8.88996 44.5997 8.88996C43.5597 8.88996 42.6997 9.55996 42.6097 10.84H39.7397C39.7397 8.07996 42.0097 6.20996 44.7697 6.20996C47.5297 6.20996 49.8197 8.19996 49.8197 10.84C49.8197 12.95 48.4297 14.59 47.4097 15.8L44.1197 19.67H49.6297V22.4V22.39Z" fill="white"/>
<path d="M56.2796 15.3404H53.3596V6.40039H62.4596V9.34039H56.5296V12.0704C56.9696 11.6504 57.6896 11.2404 58.8896 11.2404C61.3496 11.2404 63.0596 13.1204 63.0596 16.9404C63.0596 20.7604 61.3496 22.5904 58.0596 22.5904C55.3696 22.5904 53.1296 21.0804 52.8696 18.2604H56.0696C56.3196 19.2804 56.9296 19.8604 57.9696 19.8604C59.1296 19.8604 59.8196 18.9804 59.8196 17.1004C59.8196 15.2204 59.2596 14.1604 57.9696 14.1604C57.1396 14.1604 56.6296 14.6204 56.2796 15.3404Z" fill="white"/>
<path d="M23.61 71.8104H4.26996V67.4504L14.27 55.6704C16.09 53.5404 16.8 51.8004 16.8 49.8904C16.8 47.7604 15.29 46.7304 13.55 46.7304C11.73 46.7304 10.48 47.8404 10.31 49.8904H3.95996C3.95996 44.5604 8.44996 40.6904 14.01 40.6904C19.57 40.6904 24.14 44.8204 24.14 49.8504C24.14 54.0704 21.47 57.3204 19.47 59.6304L14.22 65.6804H23.6V71.8104H23.61Z" fill="#003E7E"/>
<path d="M47.38 71.8104H28.05V67.4504L38.05 55.6704C39.87 53.5404 40.58 51.8004 40.58 49.8904C40.58 47.7604 39.07 46.7304 37.33 46.7304C35.51 46.7304 34.26 47.8404 34.09 49.8904H27.73C27.73 44.5604 32.22 40.6904 37.78 40.6904C43.34 40.6904 47.91 44.8204 47.91 49.8504C47.91 54.0704 45.24 57.3204 43.24 59.6304L38 65.6804H47.38V71.8104Z" fill="#003E7E"/>
<path d="M52.1802 56.04H63.6902V61.91H52.1802V56.04Z" fill="#003E7E"/>
<path d="M85.8302 71.8104H66.5002V67.4504L76.5002 55.6704C78.3202 53.5404 79.0302 51.8004 79.0302 49.8904C79.0302 47.7604 77.5202 46.7304 75.7802 46.7304C73.9602 46.7304 72.7102 47.8404 72.5402 49.8904H66.1802C66.1802 44.5604 70.6702 40.6904 76.2302 40.6904C81.7902 40.6904 86.3602 44.8204 86.3602 49.8504C86.3602 54.0704 83.6902 57.3204 81.6902 59.6304L76.4402 65.6804H85.8202V71.8104H85.8302Z" fill="#003E7E"/>
<path d="M96.4999 52.9204H98.8999C100.77 52.9204 102.46 51.9404 102.46 49.7604C102.46 47.8504 101.08 46.7404 99.2199 46.7404C97.3599 46.7404 96.3299 47.8504 95.9799 49.4504H89.6199C89.9299 44.3804 94.0599 40.6904 99.6699 40.6904C105.28 40.6904 109.8 44.8204 109.8 49.3104C109.8 52.9104 107.49 54.9104 105.8 55.8904C108.29 57.2204 110.24 59.5804 110.24 63.1404C110.24 68.2104 106.77 72.2504 100.02 72.2504C93.2699 72.2504 89.3999 68.4704 89.1699 63.3204H95.5299C95.7999 65.0104 97.1299 66.1204 99.4399 66.1204C101.75 66.1204 102.91 64.5604 102.91 62.6104C102.91 60.3404 101.62 59.0504 98.9099 59.0504H96.5099V52.9204H96.4999Z" fill="#003E7E"/>
<path d="M113.08 72.5806L124.57 40.8506H129.15L117.66 72.5806H113.08Z" fill="#003E7E"/>
<path d="M144.58 71.8109H137.2V48.6509L132.8 51.3609V44.5109L138.09 41.1309H144.58V71.8009V71.8109Z" fill="#003E7E"/>
<path d="M160.58 71.8109H153.2V48.6509L148.8 51.3609V44.5109L154.09 41.1309H160.58V71.8009V71.8109Z" fill="#003E7E"/>
<path d="M1.68994 110.73H173.2" stroke="#003E7E" stroke-miterlimit="10"/>
<path d="M1.68994 171.29H173.2" stroke="#003E7E" stroke-miterlimit="10"/>
<path d="M2 266H245" stroke="#003E7E" stroke-miterlimit="10"/>
<path d="M64.2799 182.91H19.3599C20.2899 184.56 20.8199 188.68 19.7899 191.33C18.5299 194.6 15.1399 199.11 12.8799 202.82H64.2699V182.92L64.2799 182.91Z" fill="#5780A2"/>
<path d="M9.47984 224.861L11.6298 225.741C11.1398 226.441 10.5798 227.121 9.95984 227.761C9.33984 228.401 8.65984 229.011 7.93984 229.581C7.21984 230.151 6.46984 230.671 5.68984 231.141C4.90984 231.611 4.12984 232.011 3.33984 232.351C3.19984 232.141 3.02984 231.901 2.82984 231.631C2.62984 231.361 2.41984 231.101 2.19984 230.851C1.97984 230.601 1.76984 230.391 1.58984 230.221C2.35984 229.951 3.12984 229.631 3.87984 229.241C4.63984 228.851 5.36984 228.431 6.06984 227.961C6.76984 227.491 7.40984 226.991 7.99984 226.471C8.57984 225.941 9.07984 225.411 9.47984 224.861ZM2.19984 214.571H20.8898V216.931H2.19984V214.571ZM3.96984 218.131H19.2298V226.231H3.96984V218.131ZM6.42984 220.021V221.281H16.6398V220.021H6.42984ZM6.42984 223.051V224.331H16.6398V223.051H6.42984ZM10.1398 212.841H12.7698V232.601H10.1398V212.841ZM13.4798 224.951C13.8998 225.481 14.4098 226.011 15.0098 226.521C15.6098 227.031 16.2598 227.521 16.9698 227.991C17.6798 228.461 18.4198 228.881 19.1898 229.251C19.9598 229.621 20.7298 229.941 21.5098 230.211C21.3098 230.381 21.0998 230.591 20.8698 230.851C20.6398 231.111 20.4198 231.381 20.2198 231.651C20.0198 231.921 19.8398 232.171 19.6998 232.401C18.9098 232.081 18.1398 231.681 17.3598 231.211C16.5898 230.741 15.8398 230.221 15.1198 229.651C14.3998 229.081 13.7198 228.471 13.0998 227.831C12.4798 227.181 11.9198 226.521 11.4298 225.831L13.4898 224.951H13.4798Z" fill="#003E7E"/>
<path d="M24.5698 224.76H43.7698V226.93H24.5698V224.76ZM24.6998 214.04H33.7698V216.23H24.6998V214.04ZM25.0798 221.24H31.9798V223.37H25.0798V221.24ZM25.0998 217.92H43.1798V219.98H25.0998V217.92ZM25.7898 228H42.3798V230.06H25.7898V228ZM27.7098 220.36H30.0498V224.4H27.7098V220.36ZM29.1798 212.82H31.6398V217.43H29.1798V212.82ZM32.7998 218.71H35.2998V232.58H32.7998V218.71ZM34.4698 214.04H43.5398V216.23H34.4698V214.04ZM36.1498 221.14H43.0498V223.27H36.1498V221.14ZM36.4898 212.82H38.9498V217.43H36.4898V212.82ZM38.1898 220.36H40.5298V224.4H38.1898V220.36Z" fill="#003E7E"/>
<path d="M47.5601 228.751H65.9101V231.321H47.5601V228.751ZM48.7401 214.841H64.8001V217.431H48.7401V214.841ZM50.1901 221.621H63.1101V224.191H50.1901V221.621Z" fill="#003E7E"/>
<path d="M70.29 213.66H75.13V215.91H72.5V232.52H70.29V213.66ZM74.56 213.66H74.96L75.32 213.56L76.96 214.51C76.69 215.39 76.4 216.33 76.08 217.32C75.76 218.31 75.44 219.21 75.13 220.03C75.78 220.87 76.2 221.66 76.39 222.4C76.58 223.14 76.68 223.81 76.68 224.43C76.68 225.12 76.61 225.69 76.46 226.15C76.31 226.61 76.07 226.97 75.73 227.23C75.56 227.36 75.38 227.45 75.17 227.52C74.97 227.59 74.75 227.65 74.53 227.69C74.33 227.72 74.12 227.73 73.88 227.73H73.14C73.14 227.44 73.09 227.08 72.99 226.66C72.89 226.24 72.76 225.87 72.59 225.57C72.79 225.58 72.96 225.59 73.11 225.6C73.26 225.6 73.39 225.6 73.52 225.59C73.74 225.59 73.93 225.53 74.09 225.42C74.22 225.34 74.31 225.18 74.36 224.96C74.41 224.74 74.44 224.47 74.44 224.16C74.44 223.65 74.35 223.07 74.17 222.41C73.99 221.75 73.59 221.05 72.99 220.31C73.13 219.83 73.28 219.32 73.43 218.77C73.58 218.22 73.73 217.68 73.87 217.13C74.01 216.58 74.14 216.07 74.26 215.58C74.38 215.1 74.47 214.69 74.54 214.37V213.68L74.56 213.66ZM79.68 224.02H82.1C82.03 225.06 81.92 226.02 81.76 226.9C81.61 227.78 81.34 228.58 80.96 229.29C80.58 230 80.04 230.63 79.35 231.18C78.66 231.73 77.75 232.21 76.62 232.6C76.51 232.29 76.31 231.93 76.03 231.53C75.75 231.12 75.48 230.8 75.21 230.56C76.16 230.27 76.93 229.91 77.5 229.51C78.08 229.1 78.51 228.63 78.81 228.09C79.1 227.55 79.31 226.95 79.42 226.28C79.53 225.61 79.62 224.86 79.67 224.02H79.68ZM77.01 215.28H89.03V219.47H86.61V217.47H79.33V219.47H77.01V215.28ZM77.05 222.92H89.13V225.17H77.05V222.92ZM78.67 219.18H87.36V221.35H78.67V219.18ZM81.05 213.28L83.43 212.61C83.7 213.05 83.95 213.53 84.18 214.07C84.41 214.61 84.59 215.08 84.72 215.47L82.22 216.27C82.14 215.86 81.98 215.38 81.77 214.82C81.55 214.26 81.32 213.75 81.06 213.28H81.05ZM83.4 223.96H85.8V229.5C85.8 229.79 85.82 229.98 85.86 230.07C85.9 230.15 85.99 230.2 86.13 230.2H86.89C87 230.2 87.09 230.14 87.14 230.02C87.19 229.9 87.24 229.66 87.28 229.3C87.32 228.94 87.34 228.41 87.35 227.69C87.5 227.82 87.7 227.94 87.95 228.06C88.2 228.18 88.45 228.28 88.72 228.38C88.99 228.48 89.22 228.55 89.41 228.6C89.35 229.57 89.24 230.32 89.07 230.86C88.9 231.4 88.66 231.78 88.35 232C88.04 232.22 87.63 232.33 87.13 232.33H85.68C85.05 232.33 84.57 232.24 84.25 232.06C83.93 231.88 83.7 231.58 83.58 231.18C83.45 230.77 83.39 230.23 83.39 229.54V223.98L83.4 223.96Z" fill="#003E7E"/>
<path d="M99.9901 224.861L102.14 225.741C101.65 226.441 101.09 227.121 100.47 227.761C99.8501 228.411 99.1701 229.011 98.4501 229.581C97.7301 230.151 96.9801 230.671 96.2001 231.141C95.4201 231.611 94.6401 232.011 93.8501 232.351C93.7101 232.141 93.5401 231.901 93.3401 231.631C93.1401 231.361 92.9301 231.101 92.7101 230.851C92.4901 230.601 92.2801 230.391 92.1001 230.221C92.8701 229.951 93.6401 229.631 94.3901 229.241C95.1501 228.851 95.8801 228.431 96.5801 227.961C97.2801 227.491 97.9201 226.991 98.5101 226.471C99.0901 225.941 99.5901 225.411 99.9901 224.861ZM92.7101 214.571H111.4V216.931H92.7101V214.571ZM94.4801 218.131H109.74V226.231H94.4801V218.131ZM96.9401 220.021V221.281H107.15V220.021H96.9401ZM96.9401 223.051V224.331H107.15V223.051H96.9401ZM100.64 212.841H103.27V232.601H100.64V212.841ZM103.99 224.951C104.41 225.481 104.92 226.011 105.52 226.521C106.12 227.031 106.77 227.521 107.48 227.991C108.19 228.461 108.93 228.881 109.7 229.251C110.47 229.621 111.24 229.941 112.02 230.211C111.82 230.381 111.61 230.591 111.38 230.851C111.15 231.111 110.93 231.381 110.73 231.651C110.53 231.921 110.35 232.171 110.21 232.401C109.42 232.081 108.65 231.681 107.87 231.211C107.1 230.741 106.35 230.221 105.63 229.651C104.91 229.081 104.23 228.471 103.61 227.831C102.99 227.181 102.43 226.521 101.94 225.831L104 224.951H103.99Z" fill="#003E7E"/>
<path d="M114.77 222.801L116.12 221.071C116.53 221.211 116.95 221.391 117.39 221.611C117.83 221.831 118.26 222.051 118.66 222.271C119.07 222.491 119.4 222.711 119.67 222.921L118.24 224.841C117.99 224.631 117.67 224.401 117.28 224.151C116.89 223.901 116.48 223.661 116.04 223.421C115.6 223.191 115.17 222.981 114.77 222.801ZM115.21 213.771H124.28V215.921H115.21V213.771ZM115.23 230.921C115.54 230.491 115.88 229.971 116.26 229.381C116.64 228.791 117.02 228.161 117.42 227.491C117.81 226.821 118.18 226.161 118.54 225.511L120.29 226.941C119.98 227.541 119.66 228.161 119.32 228.791C118.98 229.421 118.64 230.041 118.29 230.651C117.94 231.261 117.6 231.851 117.26 232.431L115.24 230.911L115.23 230.921ZM115.67 218.881L117.08 217.201C117.46 217.341 117.86 217.511 118.29 217.721C118.72 217.921 119.12 218.141 119.51 218.361C119.9 218.581 120.22 218.801 120.47 219.011L119.02 220.881C118.78 220.671 118.48 220.441 118.1 220.201C117.73 219.951 117.33 219.721 116.9 219.481C116.47 219.251 116.06 219.051 115.67 218.881ZM119.04 212.801H121.54V217.031H119.04V212.801ZM120.58 218.631H134.2V220.611H120.58V218.631ZM121.29 221.751H131.75V223.621H123.69V232.521H121.29V221.741V221.751ZM122.91 224.611H131.54V226.361H122.91V224.611ZM122.91 227.391H131.54V229.161H122.91V227.391ZM125.02 213.771H134.05V215.921H125.02V213.771ZM126.01 217.121H128.39V232.511H126.01V217.121ZM127.88 212.821H130.38V216.841H127.88V212.821ZM130.95 221.751H133.39V230.321C133.39 230.841 133.33 231.241 133.21 231.531C133.09 231.821 132.86 232.051 132.5 232.211C132.16 232.361 131.76 232.461 131.28 232.491C130.8 232.521 130.25 232.541 129.62 232.541C129.58 232.251 129.49 231.911 129.36 231.541C129.23 231.171 129.1 230.841 128.97 230.561C129.31 230.571 129.64 230.581 129.97 230.591C130.3 230.591 130.52 230.601 130.63 230.601C130.74 230.591 130.82 230.561 130.87 230.521C130.92 230.481 130.94 230.401 130.94 230.291V221.741L130.95 221.751ZM129.67 217.581L130.79 216.251C131.24 216.421 131.7 216.641 132.18 216.911C132.66 217.181 133.03 217.441 133.3 217.681L132.16 219.151C131.88 218.901 131.5 218.621 131.03 218.321C130.56 218.021 130.11 217.771 129.67 217.571V217.581Z" fill="#003E7E"/>
<path d="M6.18998 241.53H7.37998C7.37998 242.66 7.34998 243.77 7.30998 244.84C7.27998 245.92 7.17998 246.95 7.01998 247.95C6.85998 248.95 6.60998 249.88 6.24998 250.75C5.89998 251.62 5.39998 252.4 4.75998 253.11C4.11998 253.82 3.29998 254.43 2.29998 254.94C2.23998 254.85 2.15998 254.75 2.06998 254.64C1.97998 254.53 1.87998 254.42 1.77998 254.32C1.67998 254.22 1.57998 254.13 1.47998 254.06C2.43998 253.6 3.22998 253.04 3.82998 252.39C4.42998 251.74 4.88998 251.01 5.21998 250.2C5.54998 249.39 5.77998 248.53 5.90998 247.6C6.04998 246.67 6.12998 245.69 6.14998 244.67C6.16998 243.65 6.18998 242.6 6.18998 241.54V241.53ZM2.15998 245.15H11.29V246.27H2.15998V245.15ZM10.61 245.15H11.76V253.03C11.76 253.29 11.79 253.45 11.85 253.53C11.91 253.61 12.06 253.65 12.29 253.65H13.79C13.94 253.65 14.05 253.59 14.11 253.48C14.17 253.37 14.23 253.16 14.26 252.85C14.29 252.54 14.31 252.09 14.33 251.49C14.42 251.56 14.52 251.63 14.65 251.7C14.78 251.77 14.9 251.83 15.03 251.88C15.16 251.93 15.28 251.97 15.38 252C15.34 252.69 15.27 253.23 15.18 253.63C15.09 254.03 14.94 254.31 14.74 254.48C14.54 254.65 14.25 254.73 13.88 254.73H12.12C11.74 254.73 11.43 254.68 11.21 254.58C10.99 254.48 10.83 254.31 10.74 254.06C10.65 253.81 10.6 253.47 10.6 253.01V245.15H10.61Z" fill="#5780A2"/>
<path d="M17.46 245.651H24.26V246.611H17.46V245.651ZM17.73 242.661H24V243.621H17.73V242.661ZM18.27 247.481H23.09V248.321H19.31V254.941H18.26V247.471L18.27 247.481ZM18.7 243.951L19.6 243.741C19.72 244.021 19.83 244.331 19.95 244.671C20.06 245.011 20.14 245.311 20.18 245.561L19.24 245.811C19.21 245.551 19.14 245.251 19.04 244.911C18.94 244.571 18.83 244.251 18.71 243.951H18.7ZM18.71 249.371H23.03V250.151H18.71V249.371ZM18.71 251.231H23.03V252.011H18.71V251.231ZM20.1 241.551L21.04 241.301C21.17 241.571 21.29 241.861 21.4 242.171C21.51 242.481 21.59 242.751 21.63 242.971L20.63 243.251C20.6 243.021 20.53 242.751 20.43 242.421C20.33 242.101 20.22 241.811 20.1 241.551ZM22.49 247.481H23.58V253.651C23.58 253.921 23.55 254.131 23.48 254.281C23.41 254.441 23.28 254.561 23.1 254.651C22.9 254.741 22.65 254.791 22.35 254.811C22.05 254.831 21.69 254.841 21.28 254.841C21.25 254.681 21.2 254.511 21.13 254.321C21.06 254.131 20.98 253.971 20.92 253.831C21.23 253.831 21.51 253.841 21.76 253.841C22.01 253.841 22.17 253.841 22.26 253.831C22.35 253.831 22.41 253.801 22.44 253.771C22.47 253.741 22.49 253.691 22.49 253.611V247.471V247.481ZM22.18 243.751L23.18 243.991C23.01 244.371 22.84 244.761 22.67 245.141C22.5 245.521 22.33 245.861 22.18 246.141L21.34 245.891C21.44 245.681 21.54 245.451 21.65 245.201C21.76 244.951 21.86 244.701 21.95 244.441C22.04 244.181 22.12 243.951 22.18 243.751ZM25 241.371H26.08V245.211H25V241.371ZM25 244.661H30.25V247.741H25V246.871H29.18V245.541H25V244.651V244.661ZM25 247.361H26.08V253.341C26.08 253.591 26.13 253.751 26.23 253.821C26.33 253.891 26.56 253.931 26.92 253.931H29.46C29.64 253.931 29.77 253.901 29.86 253.831C29.95 253.771 30.01 253.651 30.05 253.481C30.09 253.311 30.12 253.051 30.14 252.721C30.26 252.801 30.41 252.871 30.6 252.951C30.79 253.031 30.96 253.081 31.11 253.121C31.07 253.561 31 253.911 30.9 254.171C30.8 254.431 30.64 254.611 30.43 254.711C30.22 254.811 29.92 254.861 29.54 254.861H26.81C26.35 254.861 25.99 254.821 25.73 254.731C25.47 254.641 25.29 254.501 25.18 254.281C25.07 254.061 25.02 253.751 25.02 253.341V247.361H25ZM25.4 251.981H30.31V252.701H25.4V251.981ZM25.44 242.541H30.83V243.471H25.44V242.541ZM25.44 248.661H30.24V249.401H25.44V248.661ZM25.49 250.301H30.17V251.041H25.49V250.301Z" fill="#5780A2"/>
<path d="M37.6398 252.511L38.6298 253.141C38.2298 253.381 37.7698 253.611 37.2498 253.841C36.7298 254.071 36.1998 254.281 35.6398 254.471C35.0798 254.661 34.5598 254.831 34.0698 254.961C33.9698 254.851 33.8498 254.721 33.6898 254.571C33.5298 254.421 33.3998 254.291 33.2798 254.191C33.7798 254.051 34.3098 253.891 34.8698 253.711C35.4298 253.531 35.9498 253.331 36.4298 253.111C36.9098 252.891 37.3198 252.691 37.6298 252.491L37.6398 252.511ZM33.4698 245.971H46.7298V246.931H33.4698V245.971ZM34.1898 242.491H46.0698V243.361H34.1898V242.491ZM35.1698 247.731H45.1398V252.551H35.1698V247.731ZM36.2398 248.561V249.761H44.0298V248.561H36.2398ZM36.2398 250.521V251.741H44.0298V250.521H36.2398ZM36.9498 241.341H38.0298V244.421H42.1898V241.341H43.3098V245.241H36.9498V241.341ZM39.4898 246.331H40.5798V252.161H39.4898V246.331ZM41.5798 253.201L42.3198 252.511C42.8698 252.681 43.4198 252.861 43.9798 253.061C44.5398 253.261 45.0598 253.461 45.5698 253.651C46.0698 253.841 46.4998 254.021 46.8698 254.191L45.9098 254.941C45.5798 254.761 45.1798 254.581 44.7198 254.381C44.2598 254.181 43.7598 253.981 43.2198 253.781C42.6798 253.571 42.1398 253.381 41.5898 253.201H41.5798Z" fill="#5780A2"/>
<path d="M55.36 241.391H56.56C56.56 242.031 56.54 242.741 56.51 243.521C56.48 244.301 56.4 245.111 56.28 245.951C56.16 246.791 55.97 247.641 55.7 248.491C55.43 249.341 55.06 250.161 54.58 250.951C54.1 251.741 53.5 252.481 52.76 253.161C52.02 253.841 51.12 254.421 50.05 254.921C49.96 254.771 49.84 254.611 49.67 254.441C49.51 254.271 49.35 254.121 49.21 254.001C50.25 253.551 51.13 253.011 51.84 252.381C52.55 251.751 53.14 251.061 53.59 250.311C54.04 249.561 54.39 248.791 54.64 247.991C54.89 247.191 55.06 246.401 55.16 245.611C55.26 244.821 55.32 244.061 55.34 243.351C55.36 242.631 55.38 241.981 55.38 241.391H55.36ZM49.48 245.611H62.46V246.751H49.48V245.611ZM56.66 246.061C56.99 247.251 57.43 248.361 57.98 249.391C58.53 250.421 59.19 251.321 59.99 252.081C60.78 252.851 61.68 253.451 62.7 253.881C62.61 253.961 62.52 254.061 62.41 254.181C62.31 254.301 62.21 254.431 62.11 254.561C62.01 254.691 61.93 254.811 61.87 254.911C60.81 254.401 59.87 253.721 59.06 252.891C58.25 252.051 57.56 251.081 56.99 249.971C56.42 248.861 55.95 247.641 55.57 246.331L56.66 246.061Z" fill="#5780A2"/>
<path d="M68.3299 241.4L69.3799 241.71C69.0699 242.55 68.7199 243.37 68.3199 244.18C67.9199 244.99 67.4799 245.75 66.9999 246.47C66.5199 247.19 66.0299 247.82 65.5199 248.38C65.4799 248.29 65.4199 248.18 65.3499 248.04C65.2799 247.9 65.1999 247.76 65.1099 247.63C65.0199 247.5 64.9499 247.38 64.8799 247.29C65.3399 246.81 65.7799 246.25 66.2099 245.62C66.6299 244.99 67.0299 244.31 67.3999 243.6C67.7699 242.89 68.0799 242.16 68.3399 241.41L68.3299 241.4ZM66.8599 245.25L67.9099 244.2V244.22L67.9199 254.93H66.8599V245.25ZM69.7499 244.79H70.8399V252.96H77.6099V254.01H69.7499V244.79ZM73.2499 241.61H74.3699V253.49H73.2499V241.61ZM76.8599 244.75H77.9699V254.92H76.8599V244.75Z" fill="#5780A2"/>
<path d="M83.8099 249.21L84.7699 249.48C84.3799 250.36 83.8899 251.18 83.2999 251.97C82.7199 252.75 82.1099 253.41 81.4899 253.95C81.4199 253.89 81.3399 253.82 81.2299 253.74C81.1299 253.66 81.0199 253.58 80.9199 253.5C80.8199 253.42 80.7199 253.36 80.6299 253.31C81.2799 252.82 81.8799 252.21 82.4399 251.5C82.9999 250.78 83.4499 250.02 83.7999 249.23L83.8099 249.21ZM80.9599 246.36H87.9799V247.29H80.9599V246.36ZM81.0399 248.76H87.9299V249.73H81.0399V248.76ZM81.2699 242.92H87.7899V243.85H81.2699V242.92ZM82.2299 244.15L83.1699 243.93C83.3199 244.26 83.4499 244.63 83.5699 245.01C83.6899 245.4 83.7599 245.73 83.7899 246.01L82.7999 246.28C82.7699 245.99 82.6999 245.65 82.5899 245.25C82.4799 244.85 82.3599 244.49 82.2199 244.15H82.2299ZM83.5399 241.5L84.6299 241.23C84.7999 241.54 84.9599 241.87 85.1199 242.25C85.2799 242.62 85.3999 242.94 85.4699 243.19L84.3199 243.51C84.2599 243.24 84.1599 242.92 83.9999 242.54C83.8499 242.16 83.6899 241.81 83.5399 241.49V241.5ZM84.0799 246.79H85.1299V254.89H84.0799V246.79ZM84.3399 249.84L85.0599 249.31C85.3899 249.62 85.7299 249.97 86.0599 250.34C86.3899 250.71 86.6999 251.08 86.9799 251.44C87.2599 251.8 87.4899 252.12 87.6599 252.41L86.9099 253.03C86.7399 252.74 86.5199 252.4 86.2399 252.03C85.9599 251.66 85.6499 251.28 85.3199 250.9C84.9899 250.52 84.6599 250.17 84.3399 249.84ZM85.9299 243.92L86.9599 244.14C86.7999 244.58 86.6399 245.03 86.4599 245.49C86.2799 245.95 86.1199 246.34 85.9599 246.66L85.0599 246.45C85.1599 246.21 85.2599 245.95 85.3699 245.65C85.4799 245.36 85.5799 245.05 85.6899 244.74C85.7899 244.43 85.8699 244.15 85.9299 243.91V243.92ZM88.5799 242.79H89.6099V247.95C89.6099 248.48 89.5899 249.05 89.5599 249.66C89.5299 250.27 89.4499 250.88 89.3499 251.5C89.2499 252.12 89.0799 252.72 88.8799 253.3C88.6699 253.88 88.3899 254.41 88.0399 254.89C87.9799 254.82 87.8999 254.75 87.7899 254.68C87.6799 254.61 87.5699 254.53 87.4599 254.47C87.3499 254.41 87.2499 254.35 87.1599 254.31C87.5999 253.71 87.9199 253.04 88.1199 252.3C88.3199 251.56 88.4399 250.82 88.4999 250.06C88.5599 249.31 88.5899 248.6 88.5899 247.94V242.78L88.5799 242.79ZM93.3599 241.62L94.2499 242.45C93.7699 242.63 93.2299 242.79 92.6299 242.94C92.0299 243.09 91.4099 243.22 90.7799 243.34C90.1499 243.46 89.5299 243.56 88.9299 243.63C88.9099 243.51 88.8699 243.37 88.7999 243.21C88.7299 243.05 88.6599 242.91 88.5899 242.79C89.1599 242.7 89.7399 242.6 90.3399 242.47C90.9299 242.35 91.4999 242.21 92.0299 242.06C92.5599 241.91 93.0099 241.77 93.3699 241.62H93.3599ZM88.9999 246.36H94.4599V247.39H88.9999V246.36ZM91.7199 246.79H92.7999V254.88H91.7199V246.79Z" fill="#5780A2"/>
<path d="M96.7202 247.95L97.3202 247.18C97.6202 247.28 97.9202 247.4 98.2402 247.55C98.5602 247.7 98.8602 247.85 99.1502 248.01C99.4402 248.17 99.6702 248.33 99.8602 248.49L99.2602 249.35C99.0702 249.2 98.8402 249.04 98.5502 248.87C98.2602 248.7 97.9702 248.53 97.6502 248.37C97.3402 248.21 97.0302 248.07 96.7202 247.95ZM97.0302 242.24H103.21V243.21H97.0302V242.24ZM97.1002 254.19C97.3302 253.87 97.5802 253.48 97.8502 253.04C98.1302 252.6 98.4002 252.13 98.6802 251.63C98.9602 251.13 99.2202 250.65 99.4702 250.18L100.24 250.83C100.02 251.26 99.7902 251.72 99.5302 252.19C99.2702 252.66 99.0202 253.13 98.7602 253.58C98.5002 254.04 98.2402 254.46 97.9902 254.86L97.1002 254.2V254.19ZM97.4102 245.13L98.0102 244.38C98.3002 244.48 98.5902 244.6 98.9002 244.76C99.2102 244.91 99.5002 245.07 99.7802 245.24C100.05 245.41 100.28 245.56 100.46 245.71L99.8302 246.55C99.6602 246.4 99.4402 246.24 99.1702 246.07C98.9002 245.9 98.6102 245.73 98.3002 245.56C97.9902 245.39 97.6902 245.25 97.4102 245.13ZM100 241.36H101.11V244.24H100V241.36ZM100.73 245.52H110.13V246.43H100.73V245.52ZM101.29 247.57H108.81V248.44H102.35V254.92H101.29V247.57ZM101.97 249.57H108.74V250.4H101.97V249.57ZM101.97 251.57H108.74V252.4H101.97V251.57ZM103.82 242.24H110.09V243.21H103.82V242.24ZM104.75 244.26H105.8V254.87H104.75V244.26ZM105.99 241.37H107.1V244.11H105.99V241.37ZM108.44 247.57H109.5V253.83C109.5 254.1 109.47 254.3 109.4 254.44C109.33 254.58 109.2 254.69 109.02 254.77C108.83 254.85 108.59 254.9 108.29 254.91C107.99 254.92 107.62 254.93 107.18 254.93C107.15 254.8 107.11 254.65 107.05 254.49C106.99 254.32 106.93 254.17 106.86 254.03C107.16 254.03 107.45 254.04 107.7 254.04H108.22C108.31 254.04 108.37 254.01 108.4 253.98C108.43 253.95 108.45 253.9 108.45 253.82V247.56L108.44 247.57ZM107.02 244.41L107.54 243.78C107.86 243.92 108.21 244.09 108.57 244.3C108.93 244.51 109.22 244.69 109.43 244.86L108.9 245.55C108.69 245.37 108.41 245.17 108.05 244.95C107.69 244.73 107.35 244.55 107.02 244.41Z" fill="#5780A2"/>
<path d="M113.67 245.44H124.72V246.38H114.73V254.94H113.67V245.44ZM113.76 241.84H114.88V243.52H123.94V241.84H125.09V244.45H113.76V241.84ZM115.53 248.37H123.32V249.21H115.53V248.37ZM116.17 249.97H117.11V252.92H116.17V249.97ZM116.62 246.83L117.49 246.56C117.67 246.79 117.83 247.04 117.99 247.31C118.15 247.58 118.26 247.82 118.33 248.02L117.42 248.31C117.36 248.1 117.25 247.86 117.1 247.58C116.94 247.3 116.79 247.05 116.63 246.82L116.62 246.83ZM116.7 252.07H122.17V252.93H116.7V252.07ZM118.81 241.36H119.95V244.12H118.81V241.36ZM118.88 248.73H119.87V252.51H118.88V248.73ZM121.3 246.52L122.27 246.79C122.1 247.15 121.93 247.52 121.75 247.9C121.57 248.27 121.41 248.6 121.25 248.87L120.39 248.62C120.5 248.42 120.61 248.2 120.72 247.96C120.83 247.71 120.94 247.46 121.04 247.21C121.14 246.95 121.22 246.73 121.29 246.53L121.3 246.52ZM121.71 249.97H122.64V252.92H121.71V249.97ZM124.22 245.44H125.28V253.66C125.28 253.97 125.24 254.22 125.15 254.38C125.07 254.55 124.91 254.67 124.69 254.76C124.46 254.84 124.15 254.89 123.76 254.91C123.37 254.93 122.87 254.94 122.27 254.94C122.25 254.79 122.21 254.62 122.14 254.43C122.07 254.24 122 254.07 121.93 253.94C122.37 253.94 122.78 253.96 123.15 253.96C123.52 253.96 123.77 253.96 123.89 253.96C124.02 253.96 124.1 253.93 124.15 253.89C124.19 253.85 124.22 253.77 124.22 253.65V245.45V245.44Z" fill="#5780A2"/>
<path d="M128.59 247.24L141.77 245.12L141.95 246.26L128.79 248.35L128.6 247.24H128.59ZM132.87 241.62H134.05V252.2C134.05 252.51 134.08 252.74 134.14 252.9C134.2 253.06 134.32 253.17 134.5 253.23C134.68 253.29 134.95 253.32 135.3 253.32H139.09C139.42 253.32 139.67 253.25 139.84 253.1C140.01 252.95 140.12 252.68 140.19 252.29C140.26 251.9 140.32 251.34 140.36 250.61C140.47 250.68 140.59 250.75 140.72 250.82C140.85 250.89 140.99 250.95 141.13 251.01C141.27 251.07 141.39 251.11 141.49 251.14C141.43 251.95 141.33 252.59 141.2 253.07C141.07 253.55 140.83 253.9 140.51 254.11C140.19 254.32 139.72 254.43 139.12 254.43H135.25C134.64 254.43 134.16 254.37 133.81 254.24C133.46 254.11 133.21 253.88 133.07 253.55C132.93 253.22 132.86 252.76 132.86 252.17V241.62H132.87Z" fill="#5780A2"/>
<path d="M149.05 252.85L149.98 253.45C149.57 253.66 149.09 253.86 148.55 254.05C148.01 254.24 147.45 254.41 146.86 254.57C146.27 254.72 145.72 254.84 145.19 254.93C145.11 254.83 145.01 254.71 144.88 254.55C144.75 254.4 144.63 254.27 144.51 254.17C145.04 254.08 145.6 253.97 146.18 253.82C146.76 253.68 147.31 253.52 147.82 253.35C148.33 253.18 148.74 253.01 149.06 252.84L149.05 252.85ZM144.82 242.36H157.41V244.41H156.36V243.27H145.83V244.41H144.83V242.36H144.82ZM145.04 247.01C145.73 246.97 146.57 246.92 147.56 246.86C148.55 246.8 149.57 246.74 150.61 246.68V247.43C149.61 247.51 148.63 247.58 147.66 247.64C146.69 247.7 145.84 247.76 145.12 247.81L145.03 247L145.04 247.01ZM145.73 244.06H150.55V244.77H145.73V244.06ZM145.91 245.47H150.34V246.12H145.91V245.47ZM146.46 248.23H155.98V253H146.46V248.23ZM147.53 248.93V249.61H154.85V248.93H147.53ZM147.53 250.25V250.96H154.85V250.25H147.53ZM147.53 251.61V252.32H154.85V251.61H147.53ZM147.65 244.34H148.59V247.13L147.65 247.22V244.34ZM150.23 241.52L151.29 241.25C151.45 241.48 151.59 241.73 151.73 242C151.87 242.27 151.96 242.52 152.02 242.72L150.9 243.04C150.84 242.83 150.75 242.58 150.62 242.29C150.49 242 150.36 241.74 150.24 241.5L150.23 241.52ZM152.09 243.42L152.92 243.55C152.75 243.9 152.55 244.25 152.32 244.58C152.09 244.91 151.81 245.22 151.49 245.52C151.41 245.44 151.31 245.36 151.17 245.27C151.03 245.18 150.92 245.11 150.81 245.06C151.1 244.81 151.36 244.55 151.58 244.26C151.8 243.97 151.97 243.69 152.1 243.43L152.09 243.42ZM150.84 245.43H157.05V246.09H150.84V245.43ZM151.33 246.33H152.16V247.07H155.73V246.33H156.6V247.72H151.33V246.33ZM152.21 244.13H156.3V244.78H151.81L152.21 244.13ZM152.09 253.48L152.84 252.85C153.41 252.99 153.99 253.14 154.57 253.31C155.15 253.48 155.71 253.65 156.23 253.82C156.75 253.99 157.2 254.15 157.57 254.3L156.61 254.98C156.28 254.83 155.86 254.67 155.38 254.5C154.89 254.33 154.37 254.16 153.81 253.98C153.25 253.81 152.67 253.64 152.08 253.49L152.09 253.48ZM153.45 244.4H154.39V247.35H153.45V244.4Z" fill="#5780A2"/>
<path d="M163.12 244.34L164.11 244.68C163.82 245.29 163.49 245.89 163.09 246.49C162.69 247.09 162.28 247.64 161.84 248.16C161.4 248.68 160.95 249.14 160.5 249.55C160.46 249.47 160.4 249.37 160.32 249.25C160.24 249.13 160.16 249 160.07 248.88C159.98 248.76 159.9 248.66 159.83 248.59C160.47 248.07 161.08 247.43 161.67 246.69C162.26 245.94 162.74 245.16 163.12 244.34ZM162.67 241.37L163.69 241.74C163.45 242.14 163.17 242.55 162.83 242.97C162.5 243.39 162.14 243.78 161.77 244.16C161.4 244.53 161.02 244.87 160.64 245.16C160.6 245.09 160.54 245 160.47 244.9C160.4 244.8 160.32 244.69 160.24 244.59C160.16 244.49 160.09 244.4 160.03 244.33C160.36 244.07 160.7 243.78 161.04 243.45C161.38 243.12 161.69 242.77 161.98 242.41C162.27 242.05 162.49 241.7 162.66 241.36L162.67 241.37ZM161.8 247.26L162.69 246.36L162.82 246.4V254.96H161.8V247.26ZM163.54 252.85C164.06 252.79 164.66 252.72 165.33 252.65C166 252.58 166.71 252.49 167.45 252.4C168.2 252.31 168.94 252.22 169.69 252.13L169.72 253.1C168.64 253.24 167.56 253.38 166.5 253.51C165.43 253.65 164.49 253.77 163.67 253.88L163.54 252.85ZM163.87 246.17H169.43V247.16H163.87V246.17ZM163.96 249.28H169.33V250.25H163.96V249.28ZM164.16 243.23H169.16V244.19H164.16V243.23ZM166.11 247.46H167.17V252.88L166.11 253.09V247.47V247.46ZM166.13 241.37H167.18V246.74H166.13V241.37ZM171.27 246.61H172.36V253.59C172.36 253.91 172.32 254.17 172.25 254.34C172.18 254.52 172.03 254.65 171.8 254.74C171.58 254.83 171.29 254.89 170.93 254.91C170.57 254.93 170.12 254.95 169.59 254.95C169.57 254.79 169.53 254.61 169.46 254.4C169.39 254.19 169.32 254 169.25 253.85C169.66 253.85 170.03 253.87 170.35 253.87C170.67 253.87 170.88 253.87 170.99 253.87C171.11 253.87 171.18 253.84 171.22 253.8C171.25 253.76 171.27 253.7 171.27 253.61V246.63V246.61ZM169.7 246.2H173.76V247.2H169.7V246.2ZM169.83 242.24H173.55V243.23H169.83V242.24Z" fill="#5780A2"/>
<path d="M176.1 253.771V252.971C177.23 251.981 178.16 251.071 178.9 250.261C179.63 249.441 180.18 248.681 180.53 247.981C180.88 247.281 181.06 246.621 181.06 246.001C181.06 245.591 180.99 245.221 180.85 244.891C180.71 244.571 180.49 244.311 180.19 244.131C179.89 243.951 179.52 243.861 179.07 243.861C178.62 243.861 178.22 243.981 177.84 244.211C177.46 244.451 177.12 244.751 176.83 245.111L176.05 244.341C176.48 243.861 176.95 243.471 177.45 243.191C177.95 242.901 178.55 242.761 179.24 242.761C179.89 242.761 180.45 242.891 180.91 243.151C181.37 243.411 181.74 243.781 182 244.261C182.26 244.741 182.39 245.301 182.39 245.931C182.39 246.651 182.21 247.381 181.85 248.111C181.49 248.851 180.99 249.601 180.36 250.361C179.73 251.121 178.99 251.901 178.14 252.701C178.43 252.681 178.72 252.661 179.03 252.631C179.34 252.611 179.63 252.591 179.91 252.591H182.91V253.761H176.11L176.1 253.771Z" fill="#5780A2"/>
<path d="M185.34 247.08H190.68V248.05H185.34V247.08ZM186.04 242.01H190.32V245.92H186.04V242.01ZM186.74 247.48H187.7C187.6 247.98 187.5 248.51 187.38 249.06C187.27 249.61 187.16 250.08 187.05 250.46H186.06C186.18 250.05 186.3 249.57 186.42 249.01C186.54 248.46 186.65 247.95 186.74 247.48ZM186.84 249.55H189.5V250.46H186.61L186.85 249.55H186.84ZM189.11 249.55H190.08C190.07 249.78 190.06 249.93 190.05 250.01C189.98 250.96 189.91 251.74 189.84 252.33C189.77 252.92 189.68 253.38 189.59 253.7C189.5 254.02 189.38 254.25 189.24 254.4C189.13 254.53 189.01 254.62 188.88 254.67C188.75 254.72 188.58 254.76 188.39 254.78C188.24 254.78 188.04 254.79 187.77 254.78C187.5 254.78 187.22 254.77 186.93 254.76C186.93 254.61 186.89 254.45 186.85 254.27C186.81 254.09 186.74 253.94 186.67 253.81C186.96 253.84 187.22 253.86 187.47 253.86C187.72 253.86 187.89 253.86 188 253.86C188.11 253.86 188.2 253.86 188.27 253.85C188.34 253.83 188.41 253.79 188.47 253.72C188.57 253.63 188.65 253.44 188.73 253.15C188.8 252.86 188.87 252.44 188.94 251.88C189.01 251.32 189.07 250.59 189.12 249.69V249.53L189.11 249.55ZM186.9 242.85V245.08H189.44V242.85H186.9ZM191.31 244.29H192.3V248.05C192.3 248.56 192.28 249.12 192.25 249.72C192.22 250.32 192.14 250.93 192.04 251.55C191.93 252.17 191.78 252.77 191.58 253.35C191.38 253.93 191.12 254.47 190.8 254.96C190.74 254.9 190.66 254.83 190.56 254.75C190.46 254.67 190.36 254.6 190.26 254.53C190.16 254.46 190.06 254.41 189.97 254.37C190.38 253.76 190.68 253.08 190.87 252.34C191.06 251.6 191.18 250.86 191.23 250.11C191.28 249.37 191.31 248.68 191.31 248.05V244.29ZM193.48 249.91H194.42C194.39 250.7 194.31 251.41 194.19 252.04C194.07 252.67 193.86 253.23 193.57 253.71C193.28 254.19 192.87 254.59 192.34 254.93C192.27 254.81 192.18 254.68 192.06 254.53C191.94 254.38 191.83 254.27 191.72 254.19C192.18 253.92 192.53 253.59 192.77 253.18C193.01 252.77 193.18 252.29 193.28 251.75C193.38 251.2 193.44 250.59 193.47 249.91H193.48ZM191.81 244.29H198.27V245.2H191.81V244.29ZM192.61 246.67L197.04 246.23L197.13 247.03L192.72 247.49L192.62 246.68L192.61 246.67ZM194.16 245.3H195.13V247.79C195.13 247.98 195.15 248.11 195.18 248.19C195.21 248.27 195.31 248.31 195.47 248.31H197.06C197.19 248.31 197.34 248.31 197.52 248.3C197.7 248.3 197.85 248.27 197.96 248.24C197.96 248.38 197.98 248.52 198 248.66C198.02 248.8 198.03 248.94 198.05 249.07C197.95 249.1 197.81 249.12 197.64 249.13C197.46 249.13 197.29 249.14 197.11 249.14H195.31C195.01 249.14 194.77 249.09 194.6 249C194.43 248.91 194.32 248.76 194.25 248.56C194.19 248.36 194.15 248.1 194.15 247.79V245.31L194.16 245.3ZM194.23 241.37H195.28V244.76H194.23V241.37ZM194.73 242.39H198.27V243.3H194.73V242.39ZM195.68 249.91H196.62V253.33C196.62 253.33 196.62 253.43 196.63 253.47C196.63 253.51 196.67 253.55 196.72 253.57C196.78 253.62 196.89 253.64 197.04 253.64H197.54C197.62 253.64 197.7 253.64 197.77 253.63C197.84 253.62 197.89 253.6 197.92 253.57C198.03 253.51 198.09 253.4 198.11 253.25C198.13 253.13 198.14 252.94 198.15 252.67C198.16 252.4 198.17 252.1 198.17 251.77C198.26 251.86 198.38 251.94 198.55 252.03C198.72 252.12 198.86 252.18 199 252.23C198.99 252.57 198.97 252.91 198.95 253.23C198.93 253.55 198.89 253.78 198.84 253.91C198.79 254.05 198.73 254.16 198.66 254.25C198.59 254.34 198.5 254.42 198.39 254.49C198.3 254.53 198.18 254.56 198.04 254.59C197.89 254.61 197.75 254.63 197.63 254.63H196.82C196.66 254.63 196.51 254.61 196.35 254.59C196.19 254.56 196.06 254.5 195.95 254.4C195.84 254.3 195.77 254.18 195.73 254.04C195.69 253.9 195.67 253.66 195.67 253.32V249.93L195.68 249.91ZM197.99 244.29H198.14L198.32 244.25L199 244.43C198.9 244.86 198.8 245.32 198.69 245.79C198.58 246.26 198.47 246.66 198.37 246.98L197.53 246.79C197.62 246.49 197.71 246.11 197.8 245.68C197.89 245.24 197.96 244.83 198.01 244.45V244.3L197.99 244.29Z" fill="#5780A2"/>
<path d="M24.6299 195.64C25.0099 195.5 25.4499 195.33 25.9499 195.14C26.4399 194.94 26.9699 194.73 27.5299 194.5C28.0899 194.27 28.6399 194.03 29.1999 193.8L29.5399 195.13C28.7999 195.48 28.0599 195.84 27.3099 196.2C26.5599 196.56 25.8699 196.88 25.2299 197.16L24.6399 195.65L24.6299 195.64ZM24.9299 189.62H29.2599V191.03H24.9299V189.62ZM26.4799 186.51H27.8799V195.74H26.4799V186.51ZM28.7599 192L36.0999 188.89L36.6599 190.18L29.3199 193.33L28.7599 192ZM30.1899 187.67H31.6199V196.83C31.6199 197.09 31.6399 197.29 31.6899 197.42C31.7399 197.56 31.8299 197.65 31.9799 197.69C32.1299 197.74 32.3499 197.76 32.6399 197.76H35.5499C35.8099 197.76 36.0099 197.71 36.1399 197.61C36.2699 197.51 36.3699 197.33 36.4299 197.07C36.4899 196.81 36.5399 196.43 36.5699 195.94C36.7399 196.06 36.9499 196.17 37.2099 196.28C37.4699 196.38 37.6999 196.45 37.8999 196.49C37.8299 197.15 37.7299 197.67 37.5799 198.05C37.4299 198.43 37.2099 198.7 36.9099 198.86C36.6099 199.02 36.1999 199.1 35.6599 199.1H32.5199C31.9199 199.1 31.4499 199.03 31.1099 198.9C30.7599 198.77 30.5199 198.54 30.3899 198.21C30.2499 197.88 30.1899 197.41 30.1899 196.8V187.66V187.67ZM32.9899 186.33H34.3999V196.17H32.9899V186.33ZM35.7399 189.27H35.5899L36.1099 188.89L37.2399 189.25L37.1799 189.47C37.1499 190.12 37.1099 190.82 37.0499 191.57C36.9899 192.32 36.9199 193.05 36.8399 193.77C36.7599 194.49 36.6599 195.12 36.5399 195.67L35.3199 195.32C35.3799 194.95 35.4299 194.51 35.4699 194.03C35.5199 193.54 35.5599 193.02 35.5899 192.47C35.6199 191.92 35.6499 191.37 35.6699 190.82C35.6899 190.27 35.7099 189.75 35.7299 189.27H35.7399Z" fill="white"/>
<path d="M44.7899 196.21L45.7999 196.57C45.7199 197 45.5999 197.46 45.4599 197.96C45.3199 198.45 45.1499 198.87 44.9399 199.21L43.8999 198.78C44.0399 198.56 44.1699 198.3 44.2799 198.01C44.3899 197.72 44.4899 197.42 44.5799 197.1C44.6699 196.78 44.7399 196.49 44.7799 196.22L44.7899 196.21ZM44.2199 194.66H50.5299V195.79H44.2199V194.66ZM44.4899 192.68H50.3399V193.83H44.4899V192.68ZM44.4999 186.77H50.3399V191.98H44.4999V186.77ZM45.6299 187.79V190.95H49.1599V187.79H45.6299ZM45.6799 188.43L46.3199 188.25C46.4299 188.58 46.5299 188.93 46.6099 189.31C46.6899 189.69 46.7499 190.02 46.7599 190.29L46.0699 190.5C46.0699 190.22 46.0199 189.89 45.9399 189.5C45.8599 189.11 45.7699 188.76 45.6599 188.43H45.6799ZM46.1199 196.57L47.0599 196.47C47.1299 196.85 47.1899 197.27 47.2199 197.73C47.2499 198.19 47.2599 198.58 47.2599 198.92L46.2799 199.03C46.2999 198.69 46.2899 198.3 46.2699 197.84C46.2499 197.38 46.1999 196.96 46.1299 196.57H46.1199ZM46.9099 187.29H47.8299V191.5H48.0299V195.14H46.7099V191.5H46.9099V187.29ZM47.5499 196.56L48.4499 196.39C48.5899 196.75 48.7199 197.15 48.8299 197.57C48.9399 197.99 49.0199 198.37 49.0599 198.68L48.1099 198.88C48.0799 198.56 48.0099 198.19 47.9099 197.75C47.7999 197.32 47.6799 196.92 47.5499 196.55V196.56ZM48.4499 188.22L49.2199 188.5C49.0899 188.85 48.9599 189.21 48.8299 189.58C48.6999 189.96 48.5699 190.28 48.4499 190.54L47.8799 190.33C47.9499 190.13 48.0199 189.91 48.0899 189.66C48.1599 189.41 48.2399 189.16 48.2999 188.9C48.3699 188.64 48.4199 188.41 48.4499 188.21V188.22ZM48.9699 196.53L49.8799 196.21C50.0899 196.55 50.2799 196.92 50.4699 197.33C50.6599 197.74 50.7899 198.1 50.8599 198.42L49.8899 198.78C49.8199 198.47 49.6999 198.11 49.5299 197.68C49.3499 197.26 49.1699 196.87 48.9699 196.53ZM50.8999 192.96H56.5699V199.33H55.1399V194.32H52.2699V199.39H50.8999V192.96ZM51.6099 197.44H55.8099V198.81H51.6099V197.44ZM52.8199 186.35H54.2799V193.34H52.8199V186.35ZM53.6799 189.28H57.0699V190.67H53.6799V189.28Z" fill="white"/>
<path d="M9.06002 204.48H9.01002L3.36002 194.87C1.77002 191.72 0.150018 188.77 1.50002 185.18C3.88002 178.86 12.56 177.88 16.33 183.49C18.6 186.86 17.81 189.88 16.03 193.2L9.06002 204.48Z" fill="#E86174"/>
<path d="M8.94989 184.09C5.89989 184.36 4.38989 188.03 6.36989 190.38C8.19989 192.55 11.7099 192.03 12.8299 189.43C13.9499 186.83 11.8499 183.82 8.94989 184.08V184.09Z" fill="white"/>
<path d="M64.2796 277.271H16.0096C15.9996 279.371 15.6496 282.791 13.5796 283.491C13.5796 283.491 17.7096 283.711 18.0396 289.431C18.1996 292.231 18.2696 294.461 18.3596 297.171H64.2796V277.271Z" fill="#5780A2"/>
<path d="M89.0498 278.11L90.8998 279.39C90.3798 280.12 89.7598 280.85 89.0398 281.58C88.3198 282.31 87.5398 283.02 86.6998 283.7C85.8698 284.38 85.0098 285.01 84.1398 285.59C83.2698 286.17 82.4098 286.67 81.5698 287.07C81.3898 286.76 81.1498 286.41 80.8598 286.02C80.5698 285.63 80.2898 285.3 80.0098 285.03C80.8398 284.69 81.6898 284.27 82.5598 283.76C83.4298 283.25 84.2698 282.68 85.0898 282.06C85.9098 281.44 86.6498 280.79 87.3198 280.11C87.9898 279.43 88.5698 278.77 89.0498 278.11ZM81.1598 294.49H99.1598V296.74H81.1598V294.49ZM83.2398 289.73H96.8798V291.92H83.2398V289.73ZM84.1698 278.11H91.2198V280.45H84.1698V278.11ZM84.2498 285.08H95.8498V287.31H84.2498V285.08ZM88.6498 278.11H91.4298C91.8798 278.78 92.4198 279.44 93.0498 280.09C93.6798 280.74 94.3798 281.35 95.1498 281.94C95.9198 282.53 96.7398 283.07 97.5898 283.55C98.4498 284.03 99.3198 284.44 100.22 284.76C100.05 284.94 99.8598 285.17 99.6398 285.44C99.4198 285.71 99.2098 285.99 99.0098 286.28C98.8098 286.57 98.6398 286.83 98.5198 287.07C97.2998 286.49 96.1198 285.8 94.9698 284.98C93.8298 284.16 92.7698 283.27 91.8098 282.33C90.8498 281.38 90.0098 280.44 89.2898 279.5H88.6398V278.11H88.6498ZM88.6898 286.07H91.3398V295.73H88.6898V286.07Z" fill="#003E7E"/>
<path d="M102.75 285.12L104.12 283.2C104.54 283.35 104.98 283.54 105.45 283.75C105.91 283.96 106.35 284.19 106.77 284.43C107.18 284.68 107.52 284.91 107.79 285.14L106.34 287.24C106.09 287 105.76 286.75 105.36 286.49C104.96 286.23 104.53 285.98 104.08 285.74C103.62 285.5 103.19 285.29 102.76 285.11L102.75 285.12ZM103.28 295.5C103.6 294.95 103.96 294.31 104.35 293.57C104.74 292.83 105.14 292.05 105.55 291.21C105.96 290.38 106.33 289.54 106.67 288.72L108.67 290.24C108.36 291 108.03 291.77 107.68 292.54C107.33 293.32 106.97 294.08 106.62 294.83C106.27 295.58 105.9 296.3 105.54 296.99L103.29 295.5H103.28ZM103.85 279.44L105.26 277.55C105.67 277.7 106.11 277.9 106.58 278.13C107.05 278.36 107.49 278.6 107.91 278.86C108.32 279.11 108.66 279.36 108.93 279.6L107.46 281.68C107.22 281.43 106.9 281.17 106.49 280.9C106.08 280.63 105.65 280.37 105.18 280.1C104.72 279.83 104.28 279.62 103.85 279.45V279.44ZM111.59 284.97L113.76 285.69C113.42 286.48 113.02 287.25 112.55 288.01C112.08 288.77 111.56 289.47 111 290.1C110.44 290.74 109.85 291.28 109.23 291.73C109.1 291.53 108.94 291.32 108.74 291.08C108.54 290.84 108.33 290.61 108.12 290.39C107.91 290.17 107.71 289.98 107.51 289.84C108.07 289.49 108.61 289.05 109.13 288.53C109.65 288.01 110.12 287.44 110.55 286.83C110.98 286.21 111.33 285.6 111.59 284.98V284.97ZM107.99 283.5H122.62V285.77H107.99V283.5ZM108.82 279.65H122V281.9H108.82V279.65ZM111.13 287.44H113.44V294.01C113.44 294.4 113.52 294.66 113.69 294.77C113.86 294.88 114.24 294.94 114.85 294.94H118.51C118.85 294.94 119.1 294.89 119.26 294.78C119.42 294.67 119.54 294.47 119.61 294.16C119.68 293.85 119.74 293.39 119.78 292.77C120.05 292.95 120.39 293.13 120.81 293.3C121.23 293.47 121.6 293.59 121.93 293.66C121.83 294.56 121.67 295.26 121.46 295.75C121.24 296.25 120.92 296.6 120.48 296.8C120.04 297 119.46 297.11 118.71 297.11H114.63C113.73 297.11 113.03 297.02 112.51 296.85C112 296.67 111.64 296.36 111.44 295.91C111.24 295.46 111.13 294.84 111.13 294.04V287.45V287.44ZM111.43 277.48H113.87V285.1H111.43V277.48ZM112.23 287.44H119.09V292.58H112.23V290.69H116.84V289.32H112.23V287.45V287.44ZM116.79 277.48H119.27V285.12H116.79V277.48ZM119.02 284.91C119.29 285.49 119.63 286.06 120.04 286.65C120.45 287.23 120.92 287.77 121.44 288.25C121.96 288.73 122.49 289.14 123.02 289.46C122.84 289.6 122.63 289.79 122.4 290.02C122.17 290.25 121.95 290.5 121.75 290.76C121.55 291.02 121.38 291.25 121.26 291.44C120.66 291.02 120.08 290.5 119.54 289.88C119 289.26 118.5 288.59 118.06 287.86C117.61 287.13 117.23 286.39 116.9 285.63L119.03 284.91H119.02Z" fill="#003E7E"/>
<path d="M125.72 280.32H145.04V282.8H125.72V280.32ZM127.51 285.14H141.38V287.62H130.06V295.05H127.51V285.14ZM133.13 278.01L135.63 277.23C135.91 277.73 136.21 278.29 136.52 278.9C136.84 279.51 137.07 280.03 137.23 280.45L134.58 281.33C134.5 281.05 134.37 280.72 134.21 280.33C134.05 279.94 133.87 279.54 133.68 279.13C133.49 278.72 133.3 278.34 133.12 278L133.13 278.01ZM133.95 282.05H136.58V297.12H133.95V282.05ZM140.79 285.14H143.42V292.3C143.42 292.92 143.34 293.41 143.18 293.77C143.02 294.14 142.72 294.42 142.29 294.63C141.84 294.81 141.31 294.93 140.7 294.98C140.09 295.03 139.37 295.05 138.54 295.05C138.48 294.67 138.37 294.25 138.2 293.78C138.03 293.31 137.86 292.91 137.7 292.57C138.05 292.58 138.41 292.59 138.76 292.6C139.12 292.6 139.44 292.61 139.73 292.61H140.33C140.5 292.61 140.62 292.58 140.69 292.53C140.76 292.47 140.79 292.38 140.79 292.26V285.15V285.14Z" fill="#003E7E"/>
<path d="M149.78 297.351C149.72 297.131 149.63 296.871 149.51 296.591C149.38 296.311 149.24 296.041 149.09 295.771C148.94 295.501 148.79 295.291 148.65 295.121C148.9 294.971 149.15 294.741 149.4 294.451C149.65 294.161 149.77 293.771 149.77 293.291V278.431H152.4V295.041C152.05 295.241 151.75 295.421 151.5 295.581C151.25 295.741 150.99 295.921 150.72 296.131C150.45 296.331 150.23 296.541 150.06 296.751C149.88 296.961 149.8 297.161 149.8 297.361L149.78 297.351ZM149.78 297.351L149.59 295.181L150.75 294.361L157.65 292.781C157.66 293.001 157.68 293.271 157.7 293.571C157.72 293.871 157.75 294.171 157.79 294.451C157.83 294.731 157.87 294.981 157.92 295.181C156.63 295.491 155.54 295.751 154.66 295.971C153.78 296.191 153.05 296.371 152.47 296.521C151.89 296.671 151.43 296.791 151.09 296.891C150.75 296.991 150.48 297.071 150.28 297.141C150.08 297.211 149.92 297.281 149.78 297.351ZM151.1 278.431H165.16V285.311H151.1V282.971H162.59V280.761H151.1V278.421V278.431ZM151.14 287.691H166.65V290.051H151.14V287.691ZM157 284.911H159.61C159.68 286.171 159.87 287.381 160.17 288.531C160.47 289.681 160.84 290.711 161.27 291.601C161.7 292.491 162.17 293.201 162.66 293.721C163.15 294.231 163.62 294.491 164.07 294.491C164.34 294.491 164.53 294.261 164.66 293.781C164.79 293.311 164.88 292.541 164.93 291.471C165.21 291.721 165.56 291.961 165.97 292.201C166.38 292.431 166.77 292.601 167.12 292.691C166.99 293.861 166.8 294.751 166.54 295.371C166.28 295.991 165.94 296.421 165.52 296.641C165.1 296.861 164.57 296.981 163.94 296.981C163.01 296.981 162.15 296.661 161.35 296.011C160.55 295.361 159.85 294.481 159.23 293.361C158.62 292.241 158.12 290.951 157.74 289.501C157.35 288.051 157.1 286.511 156.99 284.901L157 284.911Z" fill="#003E7E"/>
<path d="M24.8296 291.81C25.4296 291.75 26.1096 291.67 26.8896 291.6C27.6596 291.53 28.4796 291.44 29.3396 291.34C30.1996 291.24 31.0496 291.15 31.8996 291.05L31.9296 292.35C31.1196 292.45 30.2996 292.56 29.4696 292.66C28.6396 292.76 27.8496 292.86 27.0896 292.95C26.3296 293.04 25.6496 293.12 25.0296 293.2L24.8296 291.81ZM24.8696 283.69H31.8996V284.94H24.8696V283.69ZM24.9396 281.76L25.8496 281.16C26.0896 281.41 26.3296 281.69 26.5696 282C26.8096 282.31 26.9796 282.58 27.0896 282.83L26.1196 283.5C26.0196 283.26 25.8496 282.97 25.6296 282.65C25.4096 282.33 25.1696 282.03 24.9296 281.77L24.9396 281.76ZM25.2896 286.77H31.5096V288H25.2896V286.77ZM25.5896 289.07H31.2896V290.29H25.5896V289.07ZM25.9496 285.33L26.9896 284.77C27.1996 284.99 27.3996 285.25 27.6096 285.53C27.8196 285.81 27.9596 286.07 28.0596 286.29L26.9496 286.91C26.8796 286.69 26.7396 286.43 26.5396 286.13C26.3396 285.84 26.1496 285.57 25.9496 285.32V285.33ZM26.8296 280.7H28.0196V284.1H26.8296V280.7ZM27.7096 287.15H29.1096V292.22H27.7096V287.15ZM29.6696 284.84L30.9696 285.29C30.7696 285.65 30.5796 286.02 30.3796 286.39C30.1796 286.76 29.9996 287.07 29.8196 287.33L28.7296 286.92C28.8296 286.72 28.9396 286.5 29.0696 286.26C29.1896 286.02 29.3096 285.77 29.4096 285.52C29.5196 285.27 29.5996 285.04 29.6696 284.83V284.84ZM28.7796 280.7H29.9796V284.1H28.7796V280.7ZM30.9096 281.2L32.0896 281.86C31.8096 282.16 31.5296 282.46 31.2596 282.76C30.9896 283.06 30.7296 283.32 30.4996 283.54L29.5996 282.98C29.7396 282.82 29.8896 282.64 30.0596 282.43C30.2296 282.22 30.3796 282.01 30.5396 281.79C30.6996 281.57 30.8196 281.37 30.9296 281.2H30.9096ZM31.9096 284.29H37.6396V285.69H31.9096V284.29ZM32.1396 287L33.3896 286.58C33.5796 286.92 33.7496 287.27 33.9096 287.64C34.0696 288.01 34.2096 288.38 34.3196 288.74C34.4296 289.1 34.5096 289.42 34.5496 289.71L33.2196 290.19C33.1796 289.9 33.1096 289.57 32.9996 289.21C32.8896 288.85 32.7696 288.47 32.6196 288.08C32.4696 287.69 32.3096 287.33 32.1396 287ZM35.0396 280.71H36.4996V292.02C36.4996 292.42 36.4496 292.73 36.3596 292.95C36.2696 293.17 36.0896 293.33 35.8396 293.45C35.6096 293.57 35.2996 293.65 34.9296 293.69C34.5596 293.73 34.0896 293.75 33.5296 293.75C33.5096 293.62 33.4696 293.47 33.4196 293.29C33.3596 293.12 33.2996 292.94 33.2296 292.77C33.1596 292.6 33.0896 292.45 33.0096 292.31C33.3896 292.31 33.7496 292.33 34.0696 292.33C34.3896 292.33 34.6096 292.33 34.7196 292.33C34.8396 292.33 34.9296 292.31 34.9696 292.27C35.0196 292.23 35.0396 292.15 35.0396 292.02V280.71Z" fill="white"/>
<path d="M48.0597 280.63L49.6297 280.95C49.0897 281.71 48.4597 282.44 47.7297 283.15C47.0097 283.86 46.1497 284.52 45.1497 285.12C45.0797 285 44.9897 284.87 44.8797 284.73C44.7597 284.59 44.6397 284.47 44.5197 284.35C44.3897 284.23 44.2697 284.13 44.1597 284.06C44.7697 283.73 45.3197 283.38 45.8197 282.99C46.3197 282.6 46.7597 282.21 47.1397 281.8C47.5197 281.39 47.8297 281 48.0697 280.63H48.0597ZM50.7397 289.24L51.7897 289.8C51.3897 290.15 50.9197 290.5 50.3897 290.82C49.8597 291.15 49.2897 291.45 48.6997 291.73C48.0997 292.01 47.4897 292.26 46.8697 292.49C46.2497 292.71 45.6497 292.91 45.0697 293.06C44.9797 292.89 44.8497 292.7 44.6797 292.48C44.5197 292.26 44.3697 292.09 44.2297 291.96C44.8097 291.84 45.3997 291.68 46.0097 291.49C46.6197 291.3 47.2197 291.08 47.8197 290.85C48.4097 290.61 48.9597 290.36 49.4597 290.08C49.9597 289.81 50.3897 289.53 50.7397 289.25V289.24ZM50.0297 287.85L51.0397 288.37C50.6897 288.64 50.2897 288.9 49.8297 289.15C49.3697 289.4 48.8797 289.64 48.3697 289.85C47.8597 290.06 47.3297 290.26 46.7997 290.43C46.2697 290.6 45.7497 290.74 45.2597 290.86C45.1697 290.7 45.0397 290.52 44.8897 290.32C44.7397 290.12 44.5897 289.95 44.4497 289.81C44.9397 289.73 45.4597 289.62 45.9797 289.48C46.4997 289.34 47.0197 289.19 47.5297 289.02C48.0297 288.85 48.4997 288.66 48.9297 288.46C49.3597 288.26 49.7297 288.06 50.0397 287.85H50.0297ZM49.8497 286.25L50.7897 286.78C50.4597 287 50.0897 287.22 49.6597 287.42C49.2297 287.63 48.7797 287.82 48.2897 288.01C47.8097 288.2 47.3297 288.37 46.8497 288.52C46.3697 288.67 45.9097 288.79 45.4797 288.88C45.3897 288.74 45.2697 288.57 45.1197 288.37C44.9697 288.17 44.8297 288 44.6997 287.87C45.2797 287.77 45.8897 287.63 46.5397 287.46C47.1897 287.29 47.8097 287.1 48.3897 286.89C48.9697 286.68 49.4597 286.46 49.8497 286.23V286.25ZM45.7197 283.57H55.5197V286.94H45.7197V283.57ZM47.1297 284.66V285.84H54.0297V284.66H47.1297ZM47.9297 281.58H52.0497V282.71H47.9297V281.58ZM48.2897 287.39L49.2797 286.65C50.0497 287.07 50.6797 287.53 51.1697 288.04C51.6597 288.54 52.0297 289.06 52.2697 289.59C52.5097 290.12 52.6397 290.62 52.6597 291.1C52.6797 291.58 52.6097 292.02 52.4297 292.4C52.2497 292.78 51.9897 293.08 51.6497 293.29C51.3897 293.47 51.1397 293.59 50.8897 293.65C50.6497 293.71 50.3497 293.74 50.0097 293.74C49.8397 293.74 49.6497 293.74 49.4397 293.74C49.2297 293.74 49.0097 293.73 48.7897 293.72C48.7897 293.51 48.7397 293.29 48.6697 293.03C48.5997 292.77 48.4997 292.55 48.3697 292.36C48.6297 292.39 48.8797 292.4 49.1297 292.41C49.3697 292.41 49.5797 292.41 49.7597 292.41C49.9497 292.41 50.1197 292.4 50.2797 292.37C50.4397 292.34 50.5797 292.28 50.7097 292.19C50.9597 292.03 51.1197 291.78 51.1897 291.43C51.2497 291.08 51.2097 290.68 51.0397 290.23C50.8797 289.77 50.5697 289.3 50.1297 288.8C49.6897 288.31 49.0697 287.84 48.2897 287.4V287.39ZM49.7897 284.04H51.1297V286.25H49.7897V284.04ZM51.4597 281.58H51.7997L52.0397 281.51L53.0597 282.18C52.8897 282.44 52.6997 282.72 52.4797 283.02C52.2597 283.32 52.0297 283.6 51.7897 283.87C51.5497 284.14 51.3197 284.38 51.0997 284.58C50.9697 284.47 50.7997 284.34 50.5797 284.2C50.3597 284.06 50.1797 283.95 50.0197 283.86C50.2097 283.67 50.3997 283.46 50.5897 283.22C50.7797 282.98 50.9497 282.74 51.1097 282.49C51.2597 282.24 51.3797 282.02 51.4697 281.85V281.57L51.4597 281.58ZM54.7097 287.02L55.9297 287.94C55.5097 288.16 55.0697 288.38 54.5997 288.59C54.1297 288.8 53.6697 289 53.2097 289.18C52.7497 289.37 52.3197 289.53 51.9197 289.66L50.9697 288.82C51.3597 288.68 51.7897 288.51 52.2397 288.3C52.6997 288.09 53.1397 287.88 53.5797 287.65C54.0097 287.42 54.3897 287.21 54.7197 287.01L54.7097 287.02ZM53.7097 288.2C53.8697 288.64 54.0997 289.1 54.3997 289.57C54.6997 290.05 55.0697 290.49 55.5097 290.91C55.9497 291.33 56.4597 291.66 57.0397 291.91C56.9397 292 56.8197 292.12 56.6897 292.27C56.5597 292.42 56.4397 292.58 56.3197 292.74C56.1997 292.9 56.1097 293.05 56.0497 293.2C55.4497 292.88 54.9197 292.47 54.4597 291.97C53.9997 291.47 53.6097 290.94 53.2997 290.37C52.9897 289.81 52.7397 289.27 52.5497 288.77L53.7097 288.2Z" fill="white"/>
<path d="M8.91001 274.99C5.52001 275.29 3.85001 279.37 6.05001 281.98C8.08001 284.39 11.98 283.81 13.22 280.93C14.46 278.05 12.14 274.7 8.91001 274.99Z" fill="#E86174"/>
<path d="M8.17978 284.511H10.5398C13.5298 284.511 15.9498 286.931 15.9498 289.921V297.181H2.77979V289.921C2.77979 286.931 5.19978 284.511 8.18979 284.511H8.17978Z" fill="#E86174"/>
<path d="M2 307H245" stroke="#003E7E" stroke-miterlimit="10"/>
<path d="M5.38018 162.39C4.69018 161.27 4.15018 160.09 3.76018 158.86C3.37018 157.62 3.18018 156.27 3.18018 154.79C3.18018 153.31 3.38018 151.97 3.76018 150.73C4.15018 149.49 4.69018 148.31 5.38018 147.19L6.22018 147.58C5.58018 148.65 5.10018 149.8 4.79018 151.04C4.48018 152.28 4.32018 153.53 4.32018 154.8C4.32018 156.07 4.48018 157.34 4.79018 158.57C5.10018 159.8 5.58018 160.96 6.22018 162.03L5.38018 162.41V162.39Z" fill="#567C9C"/>
<path d="M12.8503 147.29L14.0503 147.62C13.7203 148.44 13.3303 149.23 12.8703 150C12.4103 150.77 11.9303 151.47 11.4103 152.12C10.8903 152.77 10.3503 153.35 9.79025 153.85C9.72025 153.77 9.62025 153.68 9.50025 153.58C9.38025 153.48 9.25025 153.38 9.11025 153.28C8.97025 153.18 8.86025 153.1 8.76025 153.04C9.33025 152.59 9.87025 152.06 10.3803 151.46C10.8903 150.86 11.3603 150.2 11.7803 149.49C12.2003 148.78 12.5603 148.05 12.8503 147.3V147.29ZM10.4103 159.66C10.3903 159.58 10.3503 159.47 10.3103 159.32C10.2603 159.17 10.2103 159.02 10.1503 158.86C10.1003 158.7 10.0403 158.57 9.98025 158.47C10.1803 158.42 10.3903 158.28 10.6003 158.07C10.8103 157.85 11.0603 157.57 11.3403 157.22C11.4803 157.05 11.6903 156.77 11.9803 156.39C12.2703 156.01 12.5803 155.54 12.9303 155.01C13.2803 154.47 13.6303 153.9 13.9903 153.28C14.3403 152.66 14.6703 152.05 14.9703 151.43L16.2003 151.95C15.7203 152.82 15.2103 153.68 14.6803 154.53C14.1403 155.38 13.5903 156.18 13.0303 156.94C12.4603 157.7 11.8903 158.37 11.3103 158.97V159.01C11.1303 159.09 10.9803 159.16 10.8703 159.23C10.7503 159.29 10.6503 159.36 10.5603 159.44C10.4603 159.51 10.4203 159.59 10.4203 159.66H10.4103ZM10.4103 159.66L10.3903 158.72L11.1803 158.27L19.6003 157.79C19.6303 157.95 19.6703 158.14 19.7203 158.35C19.7703 158.56 19.8103 158.73 19.8403 158.86C18.5003 158.95 17.3503 159.03 16.3803 159.1C15.4103 159.17 14.6003 159.23 13.9403 159.27C13.2803 159.31 12.7403 159.35 12.3203 159.39C11.9003 159.43 11.5703 159.46 11.3203 159.49C11.0703 159.52 10.8803 159.55 10.7503 159.58C10.6203 159.61 10.5003 159.64 10.4103 159.67V159.66ZM17.9703 147.17C18.2203 147.69 18.5203 148.22 18.8703 148.76C19.2203 149.3 19.6003 149.82 20.0003 150.33C20.4103 150.84 20.8203 151.31 21.2403 151.75C21.6603 152.19 22.0603 152.56 22.4503 152.88C22.3503 152.95 22.2403 153.04 22.1303 153.16C22.0203 153.28 21.9003 153.39 21.7903 153.51C21.6803 153.62 21.5803 153.74 21.5103 153.85C21.1203 153.48 20.7103 153.06 20.2903 152.58C19.8603 152.1 19.4503 151.59 19.0403 151.04C18.6303 150.49 18.2403 149.93 17.8703 149.35C17.5003 148.77 17.1703 148.19 16.8803 147.62L17.9803 147.17H17.9703ZM17.1603 155.34L18.2103 154.86C18.6603 155.39 19.1103 155.96 19.5703 156.58C20.0303 157.2 20.4503 157.79 20.8503 158.38C21.2503 158.96 21.5803 159.49 21.8303 159.95L20.7203 160.55C20.4803 160.09 20.1603 159.56 19.7703 158.95C19.3803 158.34 18.9503 157.73 18.5003 157.1C18.0403 156.47 17.6003 155.89 17.1703 155.35L17.1603 155.34Z" fill="#567C9C"/>
<path d="M27.7803 154.35H28.8903C28.7803 154.82 28.6403 155.31 28.4703 155.83C28.3003 156.35 28.0703 156.85 27.7903 157.35C27.5103 157.85 27.1603 158.32 26.7503 158.76C26.3403 159.2 25.8303 159.58 25.2403 159.9C25.1903 159.82 25.1203 159.73 25.0503 159.62C24.9703 159.52 24.8903 159.41 24.8003 159.31C24.7203 159.21 24.6303 159.13 24.5503 159.07C25.0803 158.81 25.5303 158.49 25.9103 158.09C26.2903 157.69 26.6003 157.29 26.8403 156.85C27.0803 156.41 27.2803 155.98 27.4303 155.54C27.5803 155.1 27.7003 154.7 27.7803 154.34V154.35ZM37.0003 152.1L37.8303 152.91C37.0603 153.05 36.1903 153.17 35.2103 153.28C34.2403 153.38 33.2203 153.47 32.1503 153.54C31.0803 153.61 30.0303 153.67 28.9803 153.71C27.9303 153.75 26.9603 153.78 26.0503 153.8C26.0103 153.71 25.9503 153.6 25.8703 153.46C25.7903 153.33 25.7103 153.19 25.6203 153.06C25.5403 152.93 25.4603 152.83 25.3903 152.75C26.3403 152.76 27.3503 152.75 28.4103 152.73C29.4703 152.71 30.5203 152.67 31.5703 152.61C32.6203 152.55 33.6103 152.47 34.5503 152.38C35.4903 152.29 36.3103 152.19 37.0103 152.09L37.0003 152.1ZM25.6803 147.42H37.5603V151.39H25.6803V147.42ZM26.7603 148.43V150.41H29.2203V148.43H26.7603ZM27.6003 156.74L28.2003 156.03C28.4903 156.23 28.7903 156.46 29.0903 156.7C29.3903 156.95 29.6803 157.2 29.9403 157.45C30.2003 157.7 30.4203 157.93 30.5903 158.13L29.9603 158.92C29.8003 158.71 29.5903 158.48 29.3203 158.22C29.0503 157.97 28.7703 157.71 28.4703 157.44C28.1703 157.17 27.8703 156.94 27.5803 156.73L27.6003 156.74ZM30.2503 148.43V150.41H32.8003V148.43H30.2503ZM31.0603 153.57L31.7203 152.89L32.1703 153.03V160.84H31.0603V153.57ZM35.1603 154.08H36.2703C36.1803 154.57 36.0603 155.08 35.9003 155.62C35.7403 156.16 35.5403 156.69 35.2803 157.2C35.0303 157.72 34.7003 158.2 34.3203 158.66C33.9303 159.12 33.4603 159.51 32.8903 159.85C32.8203 159.71 32.7103 159.56 32.5703 159.39C32.4203 159.22 32.2903 159.09 32.1603 159C32.6803 158.72 33.1103 158.38 33.4703 157.99C33.8203 157.59 34.1003 157.17 34.3203 156.72C34.5403 156.26 34.7103 155.81 34.8403 155.35C34.9703 154.89 35.0703 154.47 35.1503 154.08H35.1603ZM33.8403 148.43V150.41H36.4303V148.43H33.8403ZM35.6703 155.79C35.8303 156.11 36.0603 156.47 36.3503 156.86C36.6403 157.25 36.9703 157.63 37.3303 157.99C37.6903 158.35 38.0803 158.66 38.4803 158.91C38.4003 158.97 38.3103 159.05 38.2303 159.14C38.1403 159.24 38.0503 159.34 37.9703 159.45C37.8903 159.56 37.8103 159.66 37.7503 159.74C37.3503 159.46 36.9603 159.12 36.5903 158.7C36.2203 158.28 35.8903 157.87 35.5903 157.45C35.3003 157.03 35.0703 156.65 34.9103 156.32L35.6703 155.79Z" fill="#567C9C"/>
<path d="M41.3804 147.83H42.4304V158.93H41.3804V147.83ZM41.9204 147.83H45.6704V157.7H41.9204V156.68H44.6104V148.87H41.9204V147.83ZM41.9704 152.19H45.1004V153.21H41.9704V152.19ZM45.9304 151.55H54.7004V152.57H45.9304V151.55ZM46.0004 154.26H54.5504V155.26H46.0004V154.26ZM46.5604 148.64H54.0804V149.64H46.5604V148.64ZM46.9204 156.32L47.8204 155.79C48.0704 156.04 48.3204 156.32 48.5804 156.63C48.8404 156.94 49.0804 157.24 49.2904 157.55C49.5004 157.85 49.6704 158.12 49.7804 158.37L48.8204 158.95C48.7104 158.7 48.5504 158.42 48.3504 158.12C48.1404 157.82 47.9204 157.51 47.6704 157.19C47.4204 156.87 47.1704 156.58 46.9204 156.31V156.32ZM51.6904 152.4H52.8004V159.32C52.8004 159.64 52.7504 159.89 52.6604 160.06C52.5704 160.23 52.4104 160.36 52.1804 160.44C51.9404 160.53 51.6204 160.58 51.2404 160.6C50.8504 160.62 50.3504 160.63 49.7404 160.63C49.7204 160.48 49.6704 160.3 49.6004 160.1C49.5304 159.9 49.4504 159.72 49.3704 159.57C49.8304 159.57 50.2504 159.59 50.6304 159.59C51.0104 159.59 51.2604 159.59 51.3804 159.59C51.5004 159.59 51.5804 159.57 51.6304 159.53C51.6704 159.49 51.7004 159.41 51.7004 159.3V152.4H51.6904ZM49.7104 146.84H50.8204V152.18H49.7104V146.84Z" fill="#567C9C"/>
<path d="M56.8604 157.1C57.3604 157.04 57.9304 156.96 58.5804 156.87C59.2304 156.78 59.9104 156.67 60.6404 156.56C61.3704 156.45 62.1004 156.34 62.8304 156.23L62.8904 157.21C61.8504 157.39 60.8104 157.56 59.7904 157.73C58.7704 157.9 57.8504 158.05 57.0604 158.19L56.8703 157.11L56.8604 157.1ZM58.1404 148.19L59.2404 148.57V160.45H58.1404V148.19ZM62.1104 146.76L63.0404 147.61C62.6204 147.79 62.1604 147.97 61.6404 148.14C61.1304 148.32 60.6104 148.48 60.0804 148.63C59.5504 148.78 59.0303 148.92 58.5303 149.05C58.5003 148.93 58.4504 148.79 58.3604 148.61C58.2804 148.44 58.2104 148.3 58.1504 148.17C58.6204 148.04 59.1004 147.9 59.5904 147.74C60.0804 147.58 60.5404 147.42 60.9804 147.24C61.4204 147.07 61.7904 146.9 62.0904 146.74L62.1104 146.76ZM58.5704 150.51H62.6104V151.51H58.5704V150.51ZM58.5704 153.57H62.5904V154.59H58.5704V153.57ZM68.5504 153.66H68.7703L68.9704 153.62L69.6804 153.87C69.3604 155.19 68.8704 156.3 68.2204 157.2C67.5704 158.1 66.7804 158.83 65.8704 159.39C64.9604 159.95 63.9603 160.39 62.8703 160.71C62.8303 160.61 62.7804 160.5 62.7104 160.38C62.6504 160.26 62.5804 160.14 62.5004 160.03C62.4304 159.91 62.3504 159.82 62.2704 159.75C63.2904 159.5 64.2304 159.13 65.0804 158.63C65.9304 158.13 66.6604 157.49 67.2604 156.7C67.8604 155.91 68.3003 154.96 68.5603 153.84V153.66H68.5504ZM64.4403 147.41H65.4903V149.25C65.4903 149.69 65.4404 150.16 65.3304 150.66C65.2204 151.16 65.0304 151.64 64.7504 152.11C64.4704 152.57 64.0603 152.99 63.5103 153.36C63.4603 153.29 63.3904 153.21 63.2904 153.11C63.1904 153.01 63.1004 152.92 62.9904 152.84C62.8804 152.76 62.7904 152.69 62.7104 152.64C63.2104 152.3 63.5804 151.94 63.8304 151.55C64.0804 151.17 64.2404 150.77 64.3204 150.36C64.4004 149.96 64.4403 149.57 64.4403 149.21V147.4V147.41ZM63.3703 153.66H68.7904V154.64H63.3703V153.66ZM64.7803 154.55C65.1103 155.39 65.5604 156.15 66.1204 156.83C66.6804 157.51 67.3604 158.09 68.1504 158.58C68.9304 159.06 69.8103 159.42 70.7803 159.65C70.7003 159.73 70.6103 159.83 70.5203 159.94C70.4203 160.06 70.3403 160.17 70.2703 160.29C70.1903 160.41 70.1304 160.52 70.0704 160.6C68.5704 160.17 67.3004 159.45 66.2604 158.45C65.2204 157.45 64.4304 156.23 63.8904 154.79L64.7904 154.54L64.7803 154.55ZM65.1003 147.41H67.9203V148.39H65.1003V147.41ZM67.5903 147.41H68.6204V151.22C68.6204 151.42 68.6403 151.55 68.6703 151.62C68.7003 151.69 68.7704 151.72 68.8704 151.72H69.8904C69.9904 151.72 70.1104 151.72 70.2504 151.7C70.3904 151.7 70.5003 151.68 70.5903 151.66C70.5903 151.79 70.6104 151.94 70.6204 152.11C70.6204 152.28 70.6404 152.42 70.6604 152.53C70.5804 152.56 70.4704 152.58 70.3304 152.59C70.1904 152.6 70.0404 152.61 69.8904 152.61H68.7703C68.4403 152.61 68.1904 152.56 68.0104 152.47C67.8304 152.37 67.7204 152.22 67.6604 152.02C67.6004 151.82 67.5704 151.54 67.5704 151.2V147.41H67.5903Z" fill="#567C9C"/>
<path d="M78.7602 156.63L78.4302 155.83C79.0402 155.57 79.5102 155.25 79.8302 154.86C80.1602 154.48 80.3202 154 80.3202 153.43L80.0502 152.17L80.8602 153.31C80.7502 153.44 80.6202 153.53 80.4802 153.57C80.3402 153.61 80.2002 153.64 80.0602 153.64C79.7502 153.64 79.4802 153.55 79.2602 153.37C79.0402 153.19 78.9302 152.93 78.9302 152.58C78.9302 152.23 79.0402 151.95 79.2702 151.77C79.5002 151.59 79.7602 151.5 80.0702 151.5C80.4902 151.5 80.8102 151.66 81.0202 151.97C81.2302 152.28 81.3402 152.7 81.3402 153.22C81.3402 154.03 81.1002 154.73 80.6302 155.32C80.1602 155.91 79.5302 156.35 78.7402 156.63H78.7602Z" fill="#567C9C"/>
<path d="M89.5903 154.11H102.68V155.03H89.5903V154.11ZM89.7603 149.46H102.51V152.7H101.39V150.35H90.8503V152.7H89.7703V149.46H89.7603ZM90.4203 147.48H101.81V148.35H90.4203V147.48ZM90.7603 156.09H101.03V157.02H91.8203V160.62H90.7603V156.09ZM91.0903 152.91C91.5703 152.86 92.1203 152.79 92.7403 152.7C93.3603 152.61 94.0103 152.51 94.6803 152.41L94.7203 153.13C94.1403 153.24 93.5703 153.35 93.0103 153.47C92.4503 153.59 91.9303 153.69 91.4303 153.79L91.0903 152.9V152.91ZM91.4803 151.22L91.8103 150.6C92.1403 150.66 92.4903 150.73 92.8503 150.82C93.2103 150.91 93.5603 151 93.8903 151.1C94.2203 151.2 94.5003 151.3 94.7203 151.4L94.3903 152.09C94.1703 151.99 93.8903 151.89 93.5703 151.78C93.2403 151.67 92.8903 151.57 92.5303 151.47C92.1603 151.37 91.8203 151.29 91.4903 151.23L91.4803 151.22ZM94.0503 156.69H95.0803V160.53H94.0503V156.69ZM95.5503 154.44L96.7603 154.5C96.6303 154.9 96.4903 155.29 96.3403 155.68C96.1903 156.07 96.0503 156.4 95.9203 156.68L94.9303 156.58C95.0503 156.28 95.1703 155.93 95.2803 155.52C95.3903 155.12 95.4803 154.76 95.5403 154.45L95.5503 154.44ZM95.5203 147.78H96.6203V153.64H95.5203V147.78ZM97.2403 153.02L97.5103 152.33C97.9003 152.37 98.3103 152.43 98.7503 152.51C99.1903 152.59 99.6003 152.68 100 152.78C100.4 152.88 100.74 152.97 101.02 153.06L100.77 153.84C100.5 153.74 100.16 153.64 99.7603 153.53C99.3503 153.43 98.9303 153.33 98.4903 153.24C98.0503 153.15 97.6403 153.07 97.2403 153.01V153.02ZM97.3803 156.69H98.4203V160.53H97.3803V156.69ZM100.29 150.53L100.79 151.18C100.51 151.3 100.19 151.41 99.8503 151.52C99.5003 151.62 99.1503 151.72 98.8003 151.81C98.4503 151.9 98.1303 151.98 97.8403 152.04L97.4403 151.47C97.7303 151.4 98.0503 151.31 98.4003 151.2C98.7503 151.09 99.0903 150.97 99.4303 150.86C99.7703 150.74 100.06 150.63 100.3 150.55L100.29 150.53ZM100.75 156.09H101.85V159.53C101.85 159.79 101.82 159.99 101.76 160.14C101.7 160.28 101.57 160.4 101.38 160.48C101.19 160.57 100.95 160.62 100.67 160.64C100.38 160.65 100.04 160.66 99.6303 160.66C99.6103 160.52 99.5603 160.36 99.4903 160.19C99.4103 160.01 99.3403 159.86 99.2703 159.72C99.5703 159.72 99.8403 159.74 100.07 159.74C100.3 159.74 100.46 159.74 100.54 159.72C100.63 159.72 100.69 159.71 100.71 159.68C100.73 159.65 100.75 159.6 100.75 159.53V156.11V156.09Z" fill="#567C9C"/>
<path d="M105.31 152.34H111.04V153.36H105.31V152.34ZM105.63 147.57H110.51V148.57H105.63V147.57ZM107.79 152.84H108.87V159.34C108.87 159.64 108.83 159.88 108.75 160.05C108.67 160.22 108.52 160.35 108.31 160.44C108.1 160.53 107.82 160.58 107.48 160.61C107.14 160.63 106.7 160.64 106.18 160.64C106.16 160.49 106.12 160.31 106.05 160.11C105.98 159.9 105.9 159.72 105.82 159.56C106.21 159.56 106.56 159.58 106.88 159.58H107.5C107.61 159.57 107.69 159.55 107.73 159.52C107.77 159.49 107.79 159.43 107.79 159.33V152.86V152.84ZM106.06 150.2L106.66 149.46C107.08 149.67 107.51 149.92 107.96 150.2C108.41 150.48 108.82 150.77 109.21 151.06C109.6 151.35 109.91 151.63 110.15 151.88L109.5 152.72C109.27 152.46 108.96 152.18 108.58 151.87C108.19 151.57 107.78 151.27 107.34 150.97C106.9 150.67 106.47 150.42 106.05 150.2H106.06ZM110.16 147.57H110.4L110.63 147.51L111.34 148.01C111.11 148.39 110.84 148.78 110.53 149.18C110.22 149.58 109.9 149.96 109.57 150.31C109.24 150.66 108.92 150.98 108.59 151.25C108.52 151.14 108.42 151.02 108.28 150.9C108.14 150.78 108.03 150.67 107.93 150.58C108.21 150.34 108.49 150.06 108.77 149.74C109.05 149.42 109.31 149.09 109.56 148.75C109.81 148.41 110.01 148.1 110.16 147.81V147.58V147.57ZM110.73 152.34H110.88L111.05 152.3L111.76 152.49C111.57 153.06 111.36 153.65 111.14 154.25C110.92 154.85 110.7 155.36 110.5 155.77L109.65 155.54C109.77 155.29 109.89 154.99 110.03 154.65C110.16 154.3 110.29 153.94 110.41 153.57C110.53 153.2 110.65 152.84 110.75 152.5V152.33L110.73 152.34ZM113.52 158.06L114.5 158.64C114.23 158.9 113.9 159.16 113.52 159.42C113.14 159.68 112.74 159.92 112.31 160.14C111.89 160.36 111.47 160.55 111.07 160.7C110.98 160.6 110.86 160.47 110.71 160.32C110.56 160.17 110.42 160.04 110.3 159.94C110.7 159.79 111.1 159.61 111.51 159.41C111.92 159.21 112.3 158.99 112.65 158.75C113 158.51 113.28 158.28 113.5 158.05L113.52 158.06ZM111.43 147.56H119.05V148.54H111.43V147.56ZM112.02 149.96H118.54V157.79H112.02V149.96ZM113.07 150.84V152.28H117.47V150.84H113.07ZM113.07 153.12V154.59H117.47V153.12H113.07ZM113.07 155.43V156.91H117.47V155.43H113.07ZM114.66 148.02L115.93 148.19C115.81 148.62 115.68 149.06 115.55 149.5C115.42 149.94 115.3 150.32 115.17 150.64L114.17 150.44C114.23 150.21 114.29 149.95 114.36 149.67C114.42 149.39 114.48 149.1 114.53 148.81C114.58 148.52 114.62 148.26 114.65 148.03L114.66 148.02ZM115.84 158.72L116.68 158.14C116.99 158.31 117.31 158.51 117.65 158.74C117.98 158.97 118.3 159.2 118.61 159.43C118.91 159.66 119.17 159.87 119.37 160.06L118.47 160.71C118.29 160.52 118.05 160.31 117.76 160.08C117.46 159.85 117.15 159.61 116.81 159.37C116.47 159.13 116.15 158.91 115.85 158.72H115.84Z" fill="#567C9C"/>
<path d="M125.73 154.141H126.9C126.83 154.901 126.71 155.621 126.55 156.291C126.38 156.961 126.14 157.571 125.81 158.131C125.48 158.691 125.03 159.181 124.47 159.621C123.91 160.061 123.18 160.431 122.3 160.731C122.26 160.631 122.2 160.521 122.11 160.411C122.03 160.291 121.94 160.181 121.85 160.061C121.76 159.941 121.67 159.851 121.58 159.781C122.4 159.521 123.07 159.201 123.59 158.831C124.11 158.461 124.51 158.031 124.81 157.551C125.1 157.071 125.31 156.541 125.45 155.971C125.59 155.401 125.68 154.791 125.74 154.141H125.73ZM121.78 153.301H134.97V154.391H121.78V153.301ZM124.56 147.201L125.7 147.441C125.54 148.011 125.35 148.611 125.12 149.231C124.89 149.851 124.64 150.451 124.34 151.041C124.04 151.621 123.72 152.141 123.37 152.581C123.29 152.521 123.19 152.461 123.07 152.391C122.95 152.321 122.83 152.261 122.72 152.191C122.6 152.131 122.5 152.081 122.4 152.051C122.75 151.621 123.06 151.131 123.34 150.571C123.61 150.021 123.86 149.451 124.07 148.861C124.28 148.271 124.45 147.721 124.57 147.201H124.56ZM124.26 149.191H133.89V150.271H124.26V149.191ZM127.8 146.851H128.94V153.661H127.8V146.851ZM129.73 154.101H130.85V158.811C130.85 159.031 130.89 159.171 130.98 159.241C131.06 159.301 131.25 159.341 131.53 159.341H133.43C133.62 159.341 133.76 159.291 133.86 159.181C133.95 159.081 134.02 158.861 134.05 158.541C134.09 158.221 134.11 157.741 134.13 157.081C134.21 157.141 134.31 157.201 134.44 157.271C134.56 157.341 134.69 157.391 134.82 157.441C134.95 157.491 135.07 157.521 135.17 157.551C135.13 158.311 135.06 158.901 134.95 159.311C134.85 159.731 134.68 160.011 134.46 160.171C134.23 160.331 133.92 160.411 133.52 160.411H131.4C130.95 160.411 130.61 160.361 130.36 160.271C130.12 160.171 129.95 160.011 129.86 159.771C129.77 159.531 129.72 159.211 129.72 158.801V154.091L129.73 154.101Z" fill="#567C9C"/>
<path d="M137.7 150.87H144.22V151.85H137.7V150.87ZM137.7 156.6H144.25V157.58H137.7V156.6ZM138.03 153.98H143.95V154.96H138.03V153.98ZM138.15 148.4H143.85V149.36H138.15V148.4ZM138.72 152.16L139.54 151.91C139.72 152.19 139.88 152.5 140.03 152.85C140.17 153.19 140.27 153.49 140.32 153.73L139.43 154.03C139.38 153.78 139.29 153.48 139.15 153.12C139.02 152.77 138.87 152.45 138.71 152.17L138.72 152.16ZM140.52 146.87H141.57V151.22H140.52V146.87ZM140.52 154.37H141.57V160.6H140.52V154.37ZM142.48 151.85L143.45 152.12C143.24 152.54 143.02 152.97 142.78 153.39C142.55 153.82 142.32 154.2 142.1 154.51L141.26 154.26C141.41 154.04 141.56 153.79 141.71 153.51C141.86 153.23 142 152.94 142.14 152.65C142.28 152.36 142.39 152.09 142.48 151.85ZM144.79 147.54H150.13V148.56H145.84V160.62H144.79V147.54ZM145.33 152.64H150.25V153.57H145.33V152.64ZM149.91 152.64H150.1L150.3 152.6L151 152.85C150.8 153.93 150.49 154.97 150.08 155.95C149.66 156.94 149.14 157.84 148.52 158.64C147.9 159.45 147.17 160.12 146.34 160.67C146.25 160.54 146.13 160.4 145.99 160.26C145.84 160.11 145.71 160 145.58 159.91C146.37 159.42 147.06 158.8 147.65 158.06C148.24 157.32 148.72 156.5 149.11 155.6C149.49 154.71 149.76 153.8 149.92 152.89V152.64H149.91ZM146.8 153.17C147.07 154.1 147.43 154.99 147.89 155.84C148.35 156.69 148.88 157.45 149.5 158.11C150.12 158.77 150.81 159.28 151.56 159.64C151.43 159.75 151.29 159.89 151.14 160.08C150.99 160.26 150.87 160.42 150.78 160.57C150.01 160.13 149.31 159.55 148.69 158.82C148.07 158.1 147.52 157.27 147.06 156.35C146.59 155.43 146.22 154.44 145.93 153.4L146.82 153.17H146.8ZM149.59 147.54H150.64V150.44C150.64 150.72 150.6 150.94 150.53 151.1C150.45 151.26 150.3 151.39 150.07 151.48C149.84 151.56 149.53 151.61 149.15 151.62C148.76 151.64 148.28 151.64 147.69 151.64C147.67 151.49 147.63 151.32 147.56 151.14C147.49 150.96 147.42 150.79 147.34 150.65C147.66 150.66 147.95 150.67 148.22 150.67C148.48 150.67 148.71 150.67 148.9 150.67C149.09 150.67 149.22 150.67 149.29 150.65C149.42 150.65 149.5 150.62 149.54 150.59C149.58 150.56 149.59 150.51 149.59 150.42V147.52V147.54Z" fill="#567C9C"/>
<path d="M163.2 148.351H163.43L163.62 148.291L164.37 148.711C163.92 149.841 163.33 150.881 162.62 151.821C161.9 152.761 161.09 153.601 160.18 154.341C159.27 155.081 158.32 155.721 157.31 156.271C156.3 156.821 155.29 157.251 154.26 157.581C154.22 157.481 154.16 157.371 154.09 157.231C154.02 157.101 153.94 156.981 153.85 156.851C153.77 156.731 153.69 156.641 153.62 156.571C154.59 156.291 155.56 155.901 156.53 155.401C157.5 154.901 158.42 154.301 159.28 153.611C160.14 152.921 160.92 152.151 161.6 151.301C162.29 150.451 162.82 149.541 163.2 148.551V148.341V148.351ZM158.74 146.811L160.01 147.051C159.63 147.701 159.18 148.351 158.65 149.011C158.12 149.661 157.51 150.301 156.82 150.911C156.13 151.521 155.35 152.081 154.48 152.591C154.43 152.501 154.36 152.401 154.26 152.291C154.16 152.181 154.07 152.071 153.97 151.971C153.87 151.871 153.78 151.781 153.68 151.721C154.5 151.271 155.24 150.771 155.89 150.211C156.54 149.651 157.11 149.091 157.58 148.501C158.05 147.921 158.44 147.351 158.73 146.811H158.74ZM156.21 151.021L157.04 150.321C157.44 150.581 157.85 150.881 158.28 151.221C158.71 151.561 159.1 151.901 159.47 152.241C159.84 152.581 160.14 152.891 160.37 153.181L159.45 153.971C159.24 153.681 158.95 153.361 158.6 153.011C158.25 152.661 157.85 152.311 157.43 151.961C157.01 151.611 156.6 151.291 156.21 151.011V151.021ZM159.1 154.261H165.85V155.301H159.1V160.651H157.98V155.161L158.88 154.261H159.11H159.1ZM158.07 148.351H163.57V149.371H158.07V148.351ZM158.59 159.021H165.82V160.061H158.59V159.021ZM165.28 154.261H166.43V160.681H165.28V154.261Z" fill="#567C9C"/>
<path d="M170.73 162.39L169.88 162.01C170.53 160.94 171.01 159.79 171.34 158.55C171.66 157.32 171.82 156.06 171.82 154.78C171.82 153.5 171.66 152.26 171.34 151.02C171.02 149.79 170.53 148.63 169.88 147.56L170.73 147.17C171.43 148.29 171.97 149.47 172.36 150.71C172.75 151.95 172.94 153.31 172.94 154.77C172.94 156.23 172.75 157.61 172.36 158.84C171.98 160.07 171.43 161.25 170.73 162.37V162.39Z" fill="#567C9C"/>
<path d="M10.3901 318.31L14.2001 319.04C13.4601 320.33 12.6101 321.61 11.6601 322.88C10.7101 324.15 9.65008 325.38 8.48008 326.58C7.31008 327.77 6.00008 328.9 4.58008 329.95C4.40008 329.68 4.17008 329.37 3.89008 329.04C3.61008 328.71 3.30008 328.38 2.98008 328.07C2.66008 327.76 2.36008 327.51 2.08008 327.34C3.39008 326.46 4.57008 325.51 5.63008 324.48C6.69008 323.45 7.61008 322.41 8.42008 321.34C9.22008 320.27 9.88008 319.26 10.3901 318.3V318.31ZM14.4901 327.87H18.2201C18.0801 329.44 17.8901 330.95 17.6301 332.42C17.3801 333.89 16.9801 335.29 16.4401 336.62C15.9001 337.95 15.1501 339.19 14.1801 340.33C13.2101 341.47 11.9501 342.51 10.3801 343.43C8.81008 344.35 6.88008 345.13 4.57008 345.78C4.39008 345.33 4.12008 344.82 3.73008 344.24C3.35008 343.66 2.96008 343.19 2.57008 342.82C4.72008 342.29 6.50008 341.64 7.91008 340.87C9.32008 340.1 10.4401 339.23 11.2701 338.27C12.1001 337.31 12.7301 336.28 13.1501 335.17C13.5701 334.06 13.8701 332.9 14.0601 331.66C14.2501 330.43 14.3901 329.17 14.4901 327.88V327.87ZM5.49008 325.79H27.5001V335.8H5.49008V325.79ZM9.04008 328.9V332.69H23.7401V328.9H9.04008ZM10.8001 320.36H19.5401V323.24H9.06008L10.7901 320.36H10.8001ZM18.4801 320.36H19.2701L19.8301 320.21L22.2901 321.79C21.9001 322.44 21.4401 323.14 20.9101 323.9C20.3801 324.66 19.8301 325.4 19.2501 326.12C18.6701 326.83 18.1101 327.47 17.5601 328.01C17.2101 327.74 16.7801 327.43 16.2701 327.1C15.7601 326.77 15.3001 326.49 14.8901 326.28C15.3601 325.79 15.8301 325.23 16.3001 324.59C16.7701 323.95 17.2001 323.32 17.5901 322.68C17.9801 322.04 18.2701 321.49 18.4701 321.02V320.35L18.4801 320.36ZM17.2501 334.47H20.9201V341.22C20.9201 341.71 20.9901 342.01 21.1401 342.13C21.2901 342.25 21.6401 342.31 22.2101 342.31H25.3201C25.6701 342.31 25.9401 342.22 26.1101 342.05C26.2801 341.88 26.4101 341.52 26.4901 340.98C26.5701 340.44 26.6301 339.64 26.6701 338.56C26.9001 338.74 27.2101 338.91 27.5901 339.09C27.9701 339.27 28.3601 339.42 28.7601 339.56C29.1601 339.7 29.5301 339.81 29.8601 339.91C29.7401 341.36 29.5401 342.48 29.2401 343.28C28.9401 344.08 28.5201 344.64 27.9501 344.97C27.3801 345.3 26.6101 345.45 25.6301 345.45H21.6401C20.4701 345.45 19.5601 345.32 18.9301 345.07C18.2901 344.82 17.8501 344.38 17.6101 343.76C17.3601 343.14 17.2401 342.31 17.2401 341.25V334.47H17.2501Z" fill="#E86174"/>
<path d="M46.4799 318.42H49.6799V324.49C49.6799 325.53 49.5499 326.5 49.2999 327.41C49.0499 328.32 48.5699 329.15 47.8599 329.89C47.1599 330.63 46.1399 331.28 44.8099 331.83C43.4799 332.38 41.7299 332.82 39.5599 333.15C39.4599 332.9 39.3199 332.6 39.1199 332.26C38.9199 331.92 38.7199 331.58 38.4999 331.25C38.2799 330.92 38.0799 330.64 37.8799 330.43C39.7599 330.19 41.2599 329.88 42.3999 329.49C43.5299 329.1 44.3899 328.65 44.9799 328.14C45.5699 327.63 45.9599 327.07 46.1699 326.45C46.3799 325.83 46.4799 325.16 46.4799 324.44V318.42ZM46.5299 341.07L49.6699 342.51C48.8699 342.98 47.9399 343.44 46.8799 343.89C45.8199 344.34 44.7399 344.75 43.6399 345.12C42.5299 345.49 41.4699 345.8 40.4599 346.06C40.2799 345.83 40.0399 345.55 39.7299 345.22C39.4199 344.9 39.0999 344.58 38.7899 344.27C38.4799 343.96 38.1799 343.7 37.9099 343.51C38.9699 343.35 40.0299 343.15 41.0899 342.89C42.1599 342.64 43.1599 342.35 44.0999 342.04C45.0399 341.73 45.8499 341.4 46.5299 341.07ZM41.8699 322.97H59.3599V321.8H39.7599V319.75H62.5299V325.03H41.8699V322.98V322.97ZM40.8699 322.97H43.9499C43.8299 323.89 43.6999 324.84 43.5399 325.82C43.3799 326.8 43.2299 327.65 43.0699 328.37H39.9899C40.1699 327.63 40.3299 326.76 40.4899 325.77C40.6499 324.78 40.7699 323.85 40.8699 322.97ZM41.3099 326.29H62.2599V328.37H40.6899L41.3099 326.29ZM41.7199 330.19H61.4099V341.52H41.7199V330.19ZM45.1599 332.18V333.35H57.8399V332.18H45.1599ZM45.1599 335.24V336.41H57.8399V335.24H45.1599ZM45.1599 338.29V339.52H57.8399V338.29H45.1599ZM52.9599 318.42H56.2799V330.27H52.9599V318.42ZM53.6099 342.63L55.5799 340.63C56.6599 340.96 57.7499 341.32 58.8499 341.72C59.9499 342.11 60.9999 342.49 61.9899 342.86C62.9799 343.23 63.8299 343.58 64.5599 343.92L62.0099 346.03C61.3599 345.7 60.5899 345.34 59.6799 344.94C58.7699 344.55 57.7999 344.15 56.7599 343.74C55.7199 343.33 54.6799 342.96 53.6199 342.63H53.6099ZM61.1199 326.29H64.4099C64.3899 326.74 64.3799 327.05 64.3799 327.23C64.3199 328.15 64.2399 328.88 64.1299 329.42C64.0199 329.96 63.8399 330.36 63.5899 330.64C63.3699 330.86 63.1199 331.02 62.8099 331.14C62.4999 331.26 62.1999 331.33 61.8899 331.35C61.5999 331.37 61.1999 331.38 60.6999 331.38C60.1999 331.38 59.6699 331.38 59.0999 331.35C59.0799 331.04 59.0099 330.68 58.8899 330.28C58.7699 329.88 58.6399 329.54 58.4799 329.27C58.8499 329.29 59.1799 329.31 59.4599 329.33C59.7399 329.35 59.9599 329.36 60.1199 329.36C60.2599 329.36 60.3699 329.35 60.4699 329.33C60.5699 329.31 60.6599 329.25 60.7299 329.15C60.8299 329.01 60.9099 328.76 60.9599 328.39C61.0199 328.02 61.0699 327.44 61.1099 326.66V326.31L61.1199 326.29Z" fill="#E86174"/>
<path d="M85.4399 325.76L88.6699 326.67C87.7299 328.35 86.5399 329.86 85.1099 331.2C83.6799 332.54 82.0599 333.69 80.2799 334.66C78.4999 335.63 76.5999 336.45 74.5899 337.11C74.4699 336.88 74.2999 336.58 74.0799 336.21C73.8599 335.85 73.6199 335.49 73.3599 335.14C73.1099 334.79 72.8799 334.51 72.6899 334.32C74.5899 333.81 76.3599 333.16 78.0199 332.37C79.6699 331.58 81.1399 330.62 82.4199 329.51C83.6999 328.4 84.7099 327.14 85.4599 325.75L85.4399 325.76ZM75.2299 331.3C75.1499 331.08 75.0499 330.81 74.9199 330.48C74.7899 330.15 74.6599 329.8 74.5199 329.45C74.3799 329.1 74.2499 328.79 74.1099 328.54C74.2899 328.5 74.4699 328.41 74.6499 328.28C74.8399 328.14 75.0099 327.98 75.1599 327.78C75.2799 327.64 75.4399 327.43 75.6399 327.13C75.8499 326.84 76.0699 326.48 76.3199 326.06C76.5699 325.64 76.7699 325.19 76.9499 324.72L80.0599 325.98C79.6499 326.65 79.1599 327.33 78.5799 328.03C77.9999 328.73 77.4399 329.32 76.8899 329.79V329.85C76.5599 330.05 76.2799 330.22 76.0499 330.36C75.8199 330.51 75.6299 330.66 75.4599 330.83C75.2899 331 75.2099 331.15 75.2099 331.28L75.2299 331.3ZM75.2299 331.3L75.1699 329.19L76.4899 328.37L81.1299 328.19C81.3099 328.56 81.5299 328.97 81.8099 329.42C82.0799 329.87 82.2999 330.25 82.4599 330.56C81.0499 330.64 79.9099 330.71 79.0399 330.78C78.1699 330.85 77.4799 330.91 76.9899 330.97C76.4899 331.03 76.1099 331.08 75.8599 331.13C75.6099 331.18 75.3999 331.23 75.2399 331.29L75.2299 331.3ZM77.1099 324.97C77.0699 324.75 76.9899 324.48 76.8599 324.13C76.7299 323.79 76.6099 323.43 76.4799 323.06C76.3499 322.69 76.2299 322.37 76.1099 322.09C76.6799 321.99 77.3299 321.76 78.0799 321.39C78.3699 321.27 78.8099 321.06 79.3899 320.74C79.9699 320.43 80.5899 320.06 81.2699 319.62C81.9499 319.19 82.5799 318.72 83.1599 318.21L86.2399 319.71C85.1599 320.47 83.9899 321.19 82.7199 321.87C81.4499 322.54 80.2199 323.11 79.0199 323.56V323.62C78.6299 323.78 78.3099 323.93 78.0699 324.07C77.8299 324.21 77.6099 324.36 77.4099 324.51C77.2099 324.66 77.1199 324.81 77.1199 324.96L77.1099 324.97ZM93.4199 337.58L96.2699 338.96C94.9799 340.33 93.3899 341.47 91.4999 342.39C89.6099 343.31 87.5299 344.06 85.2499 344.64C82.9699 345.22 80.5599 345.67 78.0199 346C77.8799 345.59 77.6699 345.11 77.3699 344.58C77.0799 344.04 76.7699 343.58 76.4599 343.19C78.8099 342.96 81.0699 342.61 83.2399 342.16C85.4099 341.71 87.3799 341.11 89.1399 340.37C90.8999 339.63 92.3299 338.7 93.4199 337.58ZM77.1099 324.97L77.0799 322.89L78.9899 321.98L93.7799 321.6C93.9799 322.01 94.2099 322.45 94.4699 322.91C94.7299 323.37 94.9399 323.74 95.0999 324.01C92.1299 324.13 89.6299 324.23 87.6199 324.3C85.5999 324.38 83.9599 324.44 82.6899 324.48C81.4199 324.52 80.4299 324.56 79.7099 324.61C78.9899 324.66 78.4499 324.71 78.0699 324.76C77.6899 324.81 77.3699 324.88 77.1199 324.98L77.1099 324.97ZM90.2199 334.68L92.8299 336C91.7699 336.88 90.5299 337.67 89.0899 338.38C87.6499 339.08 86.1299 339.7 84.5099 340.21C82.8999 340.73 81.2799 341.16 79.6499 341.52C79.4699 341.15 79.2199 340.73 78.8899 340.26C78.5599 339.79 78.2299 339.38 77.9199 339.03C79.4099 338.78 80.9299 338.44 82.4999 338.03C84.0599 337.62 85.5199 337.13 86.8699 336.56C88.2199 335.99 89.3299 335.37 90.2099 334.68H90.2199ZM87.0899 331.98L89.5799 333.27C88.7599 333.86 87.8199 334.41 86.7799 334.93C85.7299 335.45 84.6499 335.91 83.5399 336.32C82.4199 336.73 81.3499 337.08 80.3099 337.38C80.0899 337.07 79.8199 336.72 79.4699 336.32C79.1299 335.93 78.7799 335.59 78.4299 335.29C79.4099 335.06 80.4399 334.77 81.5299 334.42C82.6199 334.08 83.6499 333.7 84.6399 333.28C85.6299 332.86 86.4499 332.42 87.0899 331.97V331.98ZM79.8399 326.96L82.3299 326.26C82.6999 326.89 83.0599 327.58 83.3999 328.33C83.7399 329.08 83.9799 329.73 84.1199 330.28L81.5399 331.07C81.4199 330.52 81.1999 329.86 80.8799 329.09C80.5599 328.32 80.2099 327.61 79.8399 326.96ZM87.7899 327.25C88.4399 328.01 89.2299 328.75 90.1699 329.45C91.1099 330.15 92.1499 330.81 93.2899 331.42C94.4299 332.03 95.6499 332.56 96.9399 333.03C98.2299 333.5 99.5299 333.88 100.84 334.17C100.59 334.39 100.32 334.65 100.03 334.98C99.7499 335.3 99.4799 335.64 99.2399 335.98C98.9999 336.32 98.7899 336.62 98.6099 336.88C97.2599 336.49 95.9299 336.01 94.6299 335.46C93.3299 334.9 92.0799 334.26 90.8899 333.52C89.6999 332.79 88.5999 331.99 87.5899 331.14C86.5799 330.29 85.6799 329.38 84.8799 328.43L87.7799 327.26L87.7899 327.25ZM88.2599 320.01L90.8999 318.78C91.5799 319.25 92.3099 319.79 93.0699 320.39C93.8299 321 94.5599 321.61 95.2599 322.22C95.9499 322.84 96.5299 323.4 96.9799 323.91L94.1599 325.29C93.7699 324.8 93.2399 324.24 92.5799 323.62C91.9099 322.99 91.2099 322.36 90.4699 321.71C89.7299 321.06 88.9899 320.5 88.2699 320.01H88.2599ZM90.0499 331.13C89.9699 330.93 89.8699 330.67 89.7599 330.34C89.6399 330.01 89.5099 329.67 89.3599 329.33C89.2099 328.99 89.0799 328.7 88.9599 328.46C89.1199 328.4 89.2799 328.3 89.4599 328.17C89.6399 328.03 89.7899 327.88 89.9299 327.7C90.0299 327.58 90.1599 327.38 90.3399 327.08C90.5199 326.78 90.6999 326.44 90.8999 326.04C91.0999 325.64 91.2499 325.21 91.3699 324.76L94.4799 325.96C94.1499 326.61 93.7199 327.27 93.1999 327.95C92.6799 328.63 92.1899 329.2 91.7199 329.65V329.71C91.3699 329.91 91.0799 330.08 90.8699 330.22C90.6599 330.36 90.4599 330.52 90.2999 330.68C90.1299 330.84 90.0499 330.98 90.0499 331.12V331.13ZM90.0499 331.13L89.9899 329.05L91.3099 328.23L96.1199 328C96.2999 328.37 96.5199 328.78 96.7799 329.23C97.0399 329.68 97.2499 330.07 97.4099 330.4C95.9799 330.48 94.8199 330.55 93.9199 330.62C93.0199 330.69 92.3199 330.75 91.8099 330.81C91.2999 330.87 90.9199 330.93 90.6699 330.99C90.4199 331.05 90.2099 331.1 90.0499 331.14V331.13ZM94.6599 326.81L97.0999 325.84C97.6899 326.53 98.2499 327.29 98.7999 328.14C99.3499 328.99 99.7399 329.75 99.9699 330.41L97.3599 331.52C97.1399 330.87 96.7799 330.11 96.2699 329.23C95.7599 328.35 95.2199 327.54 94.6599 326.79V326.81Z" fill="#E86174"/>
<path d="M112.05 318.86H115.51C115.51 321.75 115.47 324.52 115.38 327.15C115.29 329.78 115.09 332.25 114.78 334.56C114.47 336.87 113.95 338.99 113.24 340.91C112.53 342.84 111.53 344.53 110.26 346C110.08 345.71 109.85 345.39 109.56 345.06C109.27 344.73 108.95 344.41 108.62 344.12C108.29 343.83 107.97 343.59 107.68 343.42C108.6 342.38 109.34 341.22 109.9 339.91C110.46 338.61 110.89 337.19 111.19 335.64C111.49 334.09 111.7 332.44 111.82 330.67C111.94 328.9 112.01 327.02 112.03 325.04C112.05 323.06 112.06 321 112.06 318.86H112.05ZM108.56 323.7H119.3V327.13H108.56V323.7ZM118.45 323.7H121.85V324.7C121.85 324.95 121.84 325.16 121.82 325.32C121.76 328.45 121.7 331.12 121.63 333.32C121.56 335.52 121.48 337.33 121.39 338.73C121.3 340.13 121.18 341.24 121.02 342.05C120.86 342.85 120.67 343.42 120.43 343.75C120.1 344.24 119.75 344.59 119.4 344.81C119.05 345.03 118.63 345.18 118.14 345.28C117.71 345.38 117.18 345.43 116.56 345.44C115.94 345.45 115.28 345.44 114.59 345.4C114.57 344.89 114.47 344.3 114.3 343.62C114.12 342.95 113.89 342.36 113.6 341.87C114.19 341.91 114.72 341.94 115.21 341.96C115.7 341.98 116.08 341.99 116.35 341.99C116.57 341.99 116.75 341.95 116.91 341.87C117.07 341.79 117.21 341.65 117.35 341.43C117.51 341.21 117.64 340.76 117.76 340.08C117.88 339.4 117.98 338.4 118.05 337.09C118.12 335.78 118.2 334.09 118.26 332.03C118.32 329.97 118.38 327.45 118.44 324.47V323.71L118.45 323.7ZM123.5 321.8H134.18V345.18H130.66V325.2H126.88V345.39H123.51V321.8H123.5ZM125.08 339.96H132.59V343.33H125.08V339.96Z" fill="#E86174"/>
<path d="M8.3001 89.9597L10.4701 90.5897C10.2001 91.1997 9.8701 91.7897 9.4901 92.3697C9.1101 92.9497 8.7001 93.4997 8.2601 93.9997C7.8301 94.5097 7.4001 94.9497 6.9801 95.3197C6.8301 95.1797 6.6501 95.0297 6.4201 94.8597C6.2001 94.6897 5.9701 94.5197 5.7301 94.3497C5.5001 94.1797 5.2801 94.0497 5.1001 93.9497C5.7401 93.4697 6.3501 92.8697 6.9301 92.1597C7.5101 91.4497 7.9601 90.7197 8.2901 89.9597H8.3001ZM5.5301 97.6097H21.9601V99.5197H5.5301V97.6097ZM7.3301 83.2197H20.0601V90.1397H7.3301V83.2197ZM7.8301 94.5997H19.9301V96.3497H7.8301V94.5997ZM8.3201 91.6097H20.7801V93.4697H8.3201V91.6097ZM9.5201 84.9097V85.8797H17.7601V84.9097H9.5201ZM9.5201 87.4597V88.4597H17.7601V87.4597H9.5201ZM12.6401 90.4797H14.9401V98.9297H12.6401V90.4797Z" fill="#003E7E"/>
<path d="M29.5699 95.7003L31.6899 96.3103C31.3399 96.9903 30.9199 97.6703 30.4099 98.3403C29.8999 99.0103 29.3999 99.5803 28.9099 100.04C28.7899 99.9003 28.6199 99.7503 28.3999 99.5903C28.1799 99.4303 27.9599 99.2703 27.7299 99.1103C27.4999 98.9503 27.2999 98.8203 27.1299 98.7203C27.6299 98.3503 28.0899 97.8903 28.5299 97.3503C28.9699 96.8103 29.3199 96.2503 29.5799 95.7003H29.5699ZM27.2699 93.6203H36.4599V95.5703H27.2699V93.6203ZM27.4899 84.7503H36.5899V86.7003H27.4899V84.7503ZM28.9399 82.7803H30.9399V94.3303H28.9399V82.7803ZM29.8999 87.7903H34.3399V89.4803H29.8999V87.7903ZM29.8999 90.6703H34.3399V92.3803H29.8999V90.6703ZM32.3399 96.5303L34.0299 95.6003C34.2799 95.8603 34.5299 96.1503 34.7999 96.4803C35.0699 96.8103 35.3199 97.1303 35.5599 97.4503C35.7999 97.7703 35.9999 98.0503 36.1399 98.3103L34.3399 99.3503C34.2199 99.1003 34.0399 98.8103 33.8099 98.4903C33.5799 98.1703 33.3399 97.8203 33.0799 97.4803C32.8199 97.1303 32.5699 96.8203 32.3399 96.5303ZM33.2699 82.7803H35.3099V94.3303H33.2699V82.7803ZM37.1999 83.3903H39.2999V90.2203C39.2999 90.9503 39.2799 91.7503 39.2399 92.6103C39.1999 93.4703 39.1099 94.3503 38.9799 95.2403C38.8499 96.1303 38.6699 96.9803 38.4299 97.8103C38.1899 98.6403 37.8699 99.3803 37.4599 100.04C37.3499 99.9003 37.1799 99.7503 36.9599 99.5803C36.7399 99.4103 36.5099 99.2603 36.2899 99.1103C36.0699 98.9603 35.8699 98.8503 35.6999 98.7803C36.1699 97.9803 36.5099 97.0803 36.7199 96.0903C36.9299 95.1003 37.0599 94.0903 37.1199 93.0703C37.1799 92.0503 37.1999 91.1003 37.1999 90.2203V83.3903ZM38.1099 91.8403H42.9399V93.8303H38.1099V91.8403ZM38.1299 83.3903H42.9199V85.4103H38.1299V83.3903ZM38.1299 87.5903H42.9199V89.5603H38.1299V87.5903ZM41.9699 83.3903H44.0999V97.5403C44.0999 98.0803 44.0399 98.5103 43.9099 98.8303C43.7899 99.1503 43.5599 99.4003 43.2399 99.5803C42.9199 99.7503 42.5099 99.8603 42.0199 99.9103C41.5299 99.9603 40.9399 99.9803 40.2499 99.9703C40.2099 99.6703 40.1299 99.3203 40.0099 98.9003C39.8899 98.4803 39.7599 98.1403 39.6199 97.8503C40.0199 97.8803 40.4099 97.8903 40.7999 97.8903H41.5899C41.7299 97.8903 41.8199 97.8603 41.8799 97.8103C41.9399 97.7503 41.9599 97.6603 41.9599 97.5203V83.3903H41.9699Z" fill="#003E7E"/>
<path d="M54.3701 91.1498L56.8801 91.9498C56.4301 92.8898 55.9201 93.8498 55.3501 94.8198C54.7701 95.7898 54.1901 96.7098 53.6001 97.5798C53.0101 98.4498 52.4301 99.2098 51.8701 99.8598C51.7001 99.7098 51.4701 99.5398 51.2001 99.3498C50.9301 99.1598 50.6501 98.9698 50.3601 98.7798C50.0801 98.5898 49.8301 98.4498 49.6201 98.3298C50.1901 97.7498 50.7601 97.0598 51.3501 96.2698C51.9301 95.4798 52.4801 94.6398 53.0001 93.7598C53.5201 92.8798 53.9801 92.0098 54.3701 91.1398V91.1498ZM49.8601 87.2299H66.7301V89.5499H49.8601V87.2299ZM56.1401 83.3699L58.4801 82.5898C58.6901 82.9698 58.9101 83.3898 59.1401 83.8398C59.3701 84.2898 59.5901 84.7398 59.8101 85.1798C60.0301 85.6198 60.2001 86.0098 60.3401 86.3398L57.8301 87.2698C57.7201 86.9398 57.5701 86.5498 57.3801 86.0998C57.1901 85.6498 56.9901 85.1898 56.7801 84.7198C56.5601 84.2398 56.3501 83.7899 56.1401 83.3699ZM59.6101 92.0598L61.7601 91.0198C62.1401 91.5998 62.5601 92.2198 63.0201 92.8798C63.4801 93.5398 63.9301 94.1999 64.3801 94.8699C64.8301 95.5399 65.2601 96.1798 65.6601 96.7898C66.0601 97.3998 66.4001 97.9598 66.6701 98.4498L64.2901 99.7498C64.0501 99.2498 63.7501 98.6898 63.3901 98.0698C63.0201 97.4498 62.6201 96.7798 62.1801 96.0798C61.7401 95.3798 61.3001 94.6898 60.8501 93.9998C60.4001 93.3098 59.9801 92.6698 59.5901 92.0598H59.6101Z" fill="#003E7E"/>
<path d="M84.8701 94.3794C84.5001 93.9194 84.0801 93.4494 83.6301 92.9594C83.1701 92.4694 82.7101 91.9894 82.2401 91.5294C81.7701 91.0694 81.3201 90.6494 80.8901 90.2994L82.8201 88.6094C83.2701 88.9694 83.7401 89.3894 84.2401 89.8794C84.7401 90.3694 85.2301 90.8594 85.7001 91.3594C86.1701 91.8594 86.5601 92.2894 86.8701 92.6794L84.8801 94.3894L84.8701 94.3794Z" fill="#003E7E"/>
<path d="M102.97 83.6895H115.93V99.7495H113.54V85.9395H105.26V99.7895H102.98V83.6895H102.97ZM104.53 89.9194H114.52V92.1095H104.53V89.9194ZM104.53 96.3094H114.54V98.5594H104.53V96.3094Z" fill="#003E7E"/>
<path d="M11.27 138.089H7.20002V125.319L4.77002 126.819V123.049L7.69002 121.189H11.27V138.099V138.089Z" fill="#003E7E"/>
<path d="M24.1098 138.33C20.8298 138.33 18.0298 136.81 18.0298 132.69V126.56C18.0298 122.2 20.8198 120.92 24.1098 120.92C27.3998 120.92 30.1898 122.19 30.1898 126.53V132.68C30.1898 136.8 27.3998 138.32 24.1098 138.32V138.33ZM22.0798 132.23C22.0798 134.04 22.5698 134.95 24.1098 134.95C25.6498 134.95 26.1198 134.04 26.1198 132.23V127.03C26.1198 125.22 25.6298 124.31 24.1098 124.31C22.5898 124.31 22.0798 125.22 22.0798 127.03V132.23Z" fill="#003E7E"/>
<path d="M38.0998 127.16H34.2798V123.34H38.0998V127.16ZM38.0998 135.59H34.2798V131.77H38.0998V135.59Z" fill="#003E7E"/>
<path d="M47.8998 138.33C44.6198 138.33 41.8198 136.81 41.8198 132.69V126.56C41.8198 122.2 44.6098 120.92 47.8998 120.92C51.1898 120.92 53.9798 122.19 53.9798 126.53V132.68C53.9798 136.8 51.1898 138.32 47.8998 138.32V138.33ZM45.8698 132.23C45.8698 134.04 46.3598 134.95 47.8998 134.95C49.4398 134.95 49.9098 134.04 49.9098 132.23V127.03C49.9098 125.22 49.4198 124.31 47.8998 124.31C46.3798 124.31 45.8698 125.22 45.8698 127.03V132.23Z" fill="#003E7E"/>
<path d="M63.4599 138.33C60.1799 138.33 57.3799 136.81 57.3799 132.69V126.56C57.3799 122.2 60.1699 120.92 63.4599 120.92C66.7499 120.92 69.5399 122.19 69.5399 126.53V132.68C69.5399 136.8 66.7499 138.32 63.4599 138.32V138.33ZM61.4199 132.23C61.4199 134.04 61.9099 134.95 63.4499 134.95C64.9899 134.95 65.4599 134.04 65.4599 132.23V127.03C65.4599 125.22 64.9699 124.31 63.4499 124.31C61.9299 124.31 61.4199 125.22 61.4199 127.03V132.23Z" fill="#003E7E"/>
<path d="M81.5898 129.189H91.1199V132.819H81.5898V129.189Z" fill="#003E7E"/>
<path d="M111.97 138.089H107.9V125.319L105.47 126.819V123.049L108.39 121.189H111.97V138.099V138.089Z" fill="#003E7E"/>
<path d="M122.79 127.67H124.11C125.14 127.67 126.07 127.13 126.07 125.93C126.07 124.88 125.31 124.26 124.28 124.26C123.25 124.26 122.69 124.87 122.49 125.76H118.99C119.16 122.97 121.44 120.93 124.53 120.93C127.62 120.93 130.12 123.21 130.12 125.68C130.12 127.66 128.85 128.77 127.91 129.31C129.28 130.04 130.36 131.34 130.36 133.3C130.36 136.09 128.45 138.32 124.72 138.32C120.99 138.32 118.86 136.24 118.74 133.39H122.24C122.39 134.32 123.12 134.93 124.4 134.93C125.68 134.93 126.31 134.07 126.31 132.99C126.31 131.74 125.6 131.03 124.1 131.03H122.78V127.65L122.79 127.67Z" fill="#003E7E"/>
<path d="M138.79 127.16H134.97V123.34H138.79V127.16ZM138.79 135.59H134.97V131.77H138.79V135.59Z" fill="#003E7E"/>
<path d="M148.59 138.33C145.31 138.33 142.51 136.81 142.51 132.69V126.56C142.51 122.2 145.3 120.92 148.59 120.92C151.88 120.92 154.67 122.19 154.67 126.53V132.68C154.67 136.8 151.88 138.32 148.59 138.32V138.33ZM146.56 132.23C146.56 134.04 147.05 134.95 148.59 134.95C150.13 134.95 150.6 134.04 150.6 132.23V127.03C150.6 125.22 150.11 124.31 148.59 124.31C147.07 124.31 146.56 125.22 146.56 127.03V132.23Z" fill="#003E7E"/>
<path d="M164.15 138.33C160.87 138.33 158.07 136.81 158.07 132.69V126.56C158.07 122.2 160.86 120.92 164.15 120.92C167.44 120.92 170.23 122.19 170.23 126.53V132.68C170.23 136.8 167.44 138.32 164.15 138.32V138.33ZM162.12 132.23C162.12 134.04 162.61 134.95 164.15 134.95C165.69 134.95 166.16 134.04 166.16 132.23V127.03C166.16 125.22 165.67 124.31 164.15 124.31C162.63 124.31 162.12 125.22 162.12 127.03V132.23Z" fill="#003E7E"/>
<path d="M207.6 249.89C207.6 249.07 207.675 248.27 207.825 247.49C207.985 246.71 208.23 245.965 208.56 245.255C208.89 244.545 209.305 243.89 209.805 243.29H211.05C210.59 243.91 210.2 244.58 209.88 245.3C209.57 246.02 209.335 246.765 209.175 247.535C209.015 248.305 208.935 249.085 208.935 249.875C208.935 250.645 209.015 251.41 209.175 252.17C209.335 252.93 209.57 253.66 209.88 254.36C210.19 255.07 210.575 255.74 211.035 256.37H209.805C209.305 255.78 208.89 255.135 208.56 254.435C208.23 253.745 207.985 253.015 207.825 252.245C207.675 251.475 207.6 250.69 207.6 249.89ZM221.022 241.4H222.087V251.855H221.022V241.4ZM216.312 247.58L224.382 244.175L224.817 245.135L216.732 248.585L216.312 247.58ZM217.932 242.795H219.012V252.845C219.012 253.115 219.042 253.325 219.102 253.475C219.162 253.615 219.272 253.71 219.432 253.76C219.602 253.81 219.857 253.835 220.197 253.835C220.297 253.835 220.462 253.835 220.692 253.835C220.922 253.835 221.187 253.835 221.487 253.835C221.797 253.835 222.107 253.835 222.417 253.835C222.727 253.835 223.007 253.835 223.257 253.835C223.507 253.835 223.692 253.835 223.812 253.835C224.112 253.835 224.332 253.78 224.472 253.67C224.622 253.55 224.727 253.335 224.787 253.025C224.857 252.715 224.912 252.275 224.952 251.705C225.082 251.805 225.242 251.895 225.432 251.975C225.632 252.055 225.807 252.105 225.957 252.125C225.907 252.815 225.817 253.36 225.687 253.76C225.557 254.16 225.347 254.44 225.057 254.6C224.777 254.77 224.377 254.855 223.857 254.855C223.767 254.855 223.597 254.855 223.347 254.855C223.107 254.855 222.822 254.855 222.492 254.855C222.162 254.855 221.832 254.855 221.502 254.855C221.172 254.855 220.882 254.855 220.632 254.855C220.392 254.855 220.232 254.855 220.152 254.855C219.582 254.855 219.132 254.795 218.802 254.675C218.482 254.565 218.257 254.36 218.127 254.06C217.997 253.77 217.932 253.355 217.932 252.815V242.795ZM224.187 244.325H224.067L224.322 244.1L224.532 243.935L225.327 244.235L225.267 244.445C225.267 245.155 225.262 245.82 225.252 246.44C225.252 247.06 225.247 247.62 225.237 248.12C225.227 248.62 225.212 249.04 225.192 249.38C225.172 249.71 225.152 249.95 225.132 250.1C225.092 250.4 225.002 250.63 224.862 250.79C224.722 250.94 224.537 251.04 224.307 251.09C224.107 251.15 223.872 251.185 223.602 251.195C223.342 251.205 223.107 251.21 222.897 251.21C222.877 251.06 222.842 250.89 222.792 250.7C222.752 250.51 222.697 250.35 222.627 250.22C222.807 250.23 222.997 250.24 223.197 250.25C223.407 250.25 223.552 250.25 223.632 250.25C223.752 250.25 223.847 250.225 223.917 250.175C223.997 250.125 224.052 250.015 224.082 249.845C224.112 249.745 224.132 249.545 224.142 249.245C224.162 248.935 224.172 248.54 224.172 248.06C224.182 247.58 224.187 247.025 224.187 246.395C224.187 245.765 224.187 245.075 224.187 244.325ZM212.127 245.015H216.882V246.08H212.127V245.015ZM214.047 241.58H215.112V251.315H214.047V241.58ZM211.992 251.69C212.392 251.54 212.852 251.36 213.372 251.15C213.902 250.93 214.462 250.7 215.052 250.46C215.642 250.21 216.232 249.96 216.822 249.71L217.077 250.715C216.277 251.085 215.467 251.455 214.647 251.825C213.837 252.195 213.102 252.525 212.442 252.815L211.992 251.69ZM231.927 244.34V245.33H236.007V244.34H231.927ZM230.997 243.68H236.982V246.005H230.997V243.68ZM231.417 248.765V252.11H236.517V248.765H231.417ZM230.517 248.06H237.462V252.815H230.517V248.06ZM233.082 249.995V250.88H234.822V249.995H233.082ZM232.377 249.395H235.572V251.465H232.377V249.395ZM229.497 246.695H238.527V247.4H229.497V246.695ZM233.457 245.555H234.432V247.025H233.457V245.555ZM227.727 242.015H240.297V255.185H239.202V242.96H228.792V255.185H227.727V242.015ZM228.387 253.625H239.772V254.585H228.387V253.625ZM245.397 249.89C245.397 250.69 245.317 251.475 245.157 252.245C245.007 253.015 244.767 253.745 244.437 254.435C244.117 255.135 243.702 255.78 243.192 256.37H241.962C242.422 255.74 242.807 255.07 243.117 254.36C243.427 253.66 243.662 252.93 243.822 252.17C243.982 251.41 244.062 250.645 244.062 249.875C244.062 249.085 243.982 248.305 243.822 247.535C243.662 246.765 243.427 246.02 243.117 245.3C242.807 244.58 242.417 243.91 241.947 243.29H243.192C243.702 243.89 244.117 244.545 244.437 245.255C244.767 245.965 245.007 246.71 245.157 247.49C245.317 248.27 245.397 249.07 245.397 249.89Z" fill="#E86174"/>
</g>
<defs>
<clipPath id="clip0_249_251">
<rect width="246" height="347" fill="white"/>
</clipPath>
</defs>
</svg>
