<svg width="410" height="164" viewBox="0 0 410 164" fill="none" xmlns="http://www.w3.org/2000/svg">
<g clip-path="url(#clip0_249_350)">
<path d="M58.87 0H14.55C6.51426 0 0 6.51202 0 14.545C0 22.578 6.51426 29.09 14.55 29.09H58.87C66.9057 29.09 73.42 22.578 73.42 14.545C73.42 6.51202 66.9057 0 58.87 0Z" fill="#003E7E"/>
<path d="M22.0799 22.39H12.2099V20.31L17.5599 14.01C18.5599 12.85 19.0399 11.88 19.0399 10.84C19.0399 9.53996 18.0899 8.88996 17.0499 8.88996C16.0099 8.88996 15.1499 9.55996 15.0599 10.84H12.1899C12.1899 8.07996 14.4599 6.20996 17.2199 6.20996C19.9799 6.20996 22.2699 8.19996 22.2699 10.84C22.2699 12.95 20.8799 14.59 19.8599 15.8L16.5699 19.67H22.0799V22.4V22.39Z" fill="white"/>
<path d="M35.74 17.5004C35.74 21.0904 33.24 22.6004 30.37 22.6004C27.5 22.6004 25 21.0904 25 17.5004V11.2904C25 7.54043 27.5 6.19043 30.37 6.19043C33.24 6.19043 35.74 7.53043 35.74 11.2604V17.4904V17.5004ZM30.37 8.93043C28.91 8.93043 28.22 9.86043 28.22 11.5704V17.2204C28.22 18.9304 28.92 19.8604 30.37 19.8604C31.82 19.8604 32.5 18.9304 32.5 17.2204V11.5704C32.5 9.86043 31.81 8.93043 30.37 8.93043Z" fill="white"/>
<path d="M48.2499 22.39H38.3799V20.31L43.7299 14.01C44.7299 12.85 45.2099 11.88 45.2099 10.84C45.2099 9.53996 44.2599 8.88996 43.2199 8.88996C42.1799 8.88996 41.3199 9.55996 41.2299 10.84H38.3599C38.3599 8.07996 40.6299 6.20996 43.3899 6.20996C46.1499 6.20996 48.4399 8.19996 48.4399 10.84C48.4399 12.95 47.0499 14.59 46.0299 15.8L42.7399 19.67H48.2499V22.4V22.39Z" fill="white"/>
<path d="M54.8997 15.3404H51.9797V6.40039H61.0797V9.34039H55.1497V12.0704C55.5897 11.6504 56.3097 11.2404 57.5097 11.2404C59.9697 11.2404 61.6797 13.1204 61.6797 16.9404C61.6797 20.7604 59.9697 22.5904 56.6797 22.5904C53.9897 22.5904 51.7497 21.0804 51.4897 18.2604H54.6897C54.9397 19.2804 55.5497 19.8604 56.5897 19.8604C57.7497 19.8604 58.4397 18.9804 58.4397 17.1004C58.4397 15.2204 57.8797 14.1604 56.5897 14.1604C55.7597 14.1604 55.2497 14.6204 54.8997 15.3404Z" fill="white"/>
<path d="M22.2301 71.8104H2.89008V67.4504L12.8901 55.6704C14.7101 53.5404 15.4201 51.8004 15.4201 49.8904C15.4201 47.7604 13.9101 46.7304 12.1701 46.7304C10.3501 46.7304 9.10008 47.8404 8.93008 49.8904H2.58008C2.58008 44.5604 7.07008 40.6904 12.6301 40.6904C18.1901 40.6904 22.7601 44.8204 22.7601 49.8504C22.7601 54.0704 20.0901 57.3204 18.0901 59.6304L12.8401 65.6804H22.2201V71.8104H22.2301Z" fill="#003E7E"/>
<path d="M46.0099 71.8104H26.6799V67.4504L36.6799 55.6704C38.4999 53.5404 39.2099 51.8004 39.2099 49.8904C39.2099 47.7604 37.6999 46.7304 35.9599 46.7304C34.1399 46.7304 32.8899 47.8404 32.7199 49.8904H26.3599C26.3599 44.5604 30.8499 40.6904 36.4099 40.6904C41.9699 40.6904 46.5399 44.8204 46.5399 49.8504C46.5399 54.0704 43.8699 57.3204 41.8699 59.6304L36.6299 65.6804H46.0099V71.8104Z" fill="#003E7E"/>
<path d="M50.8101 56.04H62.3201V61.91H50.8101V56.04Z" fill="#003E7E"/>
<path d="M84.4503 71.8104H65.1203V67.4504L75.1203 55.6704C76.9403 53.5404 77.6503 51.8004 77.6503 49.8904C77.6503 47.7604 76.1403 46.7304 74.4003 46.7304C72.5803 46.7304 71.3303 47.8404 71.1603 49.8904H64.8003C64.8003 44.5604 69.2903 40.6904 74.8503 40.6904C80.4103 40.6904 84.9803 44.8204 84.9803 49.8504C84.9803 54.0704 82.3103 57.3204 80.3103 59.6304L75.0603 65.6804H84.4403V71.8104H84.4503Z" fill="#003E7E"/>
<path d="M95.12 52.9204H97.52C99.39 52.9204 101.08 51.9404 101.08 49.7604C101.08 47.8504 99.7 46.7404 97.84 46.7404C95.98 46.7404 94.95 47.8504 94.6 49.4504H88.24C88.55 44.3804 92.68 40.6904 98.29 40.6904C103.9 40.6904 108.42 44.8204 108.42 49.3104C108.42 52.9104 106.11 54.9104 104.42 55.8904C106.91 57.2204 108.86 59.5804 108.86 63.1404C108.86 68.2104 105.39 72.2504 98.64 72.2504C91.89 72.2504 88.02 68.4704 87.79 63.3204H94.15C94.42 65.0104 95.75 66.1204 98.06 66.1204C100.37 66.1204 101.53 64.5604 101.53 62.6104C101.53 60.3404 100.24 59.0504 97.53 59.0504H95.13V52.9204H95.12Z" fill="#003E7E"/>
<path d="M111.7 72.5806L123.19 40.8506H127.77L116.28 72.5806H111.7Z" fill="#003E7E"/>
<path d="M143.2 71.8109H135.82V48.6509L131.42 51.3609V44.5109L136.71 41.1309H143.2V71.8009V71.8109Z" fill="#003E7E"/>
<path d="M159.2 71.8109H151.82V48.6509L147.42 51.3609V44.5109L152.71 41.1309H159.2V71.8009V71.8109Z" fill="#003E7E"/>
<path d="M0.310059 110.73H171.82" stroke="#003E7E" stroke-miterlimit="10"/>
<path d="M3.9998 162.39C3.3098 161.27 2.7698 160.09 2.3798 158.86C1.9898 157.62 1.7998 156.27 1.7998 154.79C1.7998 153.31 1.9998 151.97 2.3798 150.73C2.7698 149.49 3.3098 148.31 3.9998 147.19L4.8398 147.58C4.1998 148.65 3.7198 149.8 3.4098 151.04C3.0998 152.28 2.9398 153.53 2.9398 154.8C2.9398 156.07 3.0998 157.34 3.4098 158.57C3.7198 159.8 4.1998 160.96 4.8398 162.03L3.9998 162.41V162.39Z" fill="#567C9C"/>
<path d="M11.4699 147.29L12.6699 147.62C12.3399 148.44 11.9499 149.23 11.4899 150C11.0299 150.77 10.5499 151.47 10.0299 152.12C9.50988 152.77 8.96988 153.35 8.40988 153.85C8.33988 153.77 8.23988 153.68 8.11988 153.58C7.99988 153.48 7.86988 153.38 7.72988 153.28C7.58988 153.18 7.47988 153.1 7.37988 153.04C7.94988 152.59 8.48988 152.06 8.99988 151.46C9.50988 150.86 9.97988 150.2 10.3999 149.49C10.8199 148.78 11.1799 148.05 11.4699 147.3V147.29ZM9.02988 159.66C9.00988 159.58 8.96988 159.47 8.92988 159.32C8.87988 159.17 8.82988 159.02 8.76988 158.86C8.71988 158.7 8.65988 158.57 8.59988 158.47C8.79988 158.42 9.00988 158.28 9.21988 158.07C9.42988 157.85 9.67988 157.57 9.95988 157.22C10.0999 157.05 10.3099 156.77 10.5999 156.39C10.8899 156.01 11.1999 155.54 11.5499 155.01C11.8999 154.47 12.2499 153.9 12.6099 153.28C12.9599 152.66 13.2899 152.05 13.5899 151.43L14.8199 151.95C14.3399 152.82 13.8299 153.68 13.2999 154.53C12.7599 155.38 12.2099 156.18 11.6499 156.94C11.0799 157.7 10.5099 158.37 9.92988 158.97V159.01C9.74988 159.09 9.59988 159.16 9.48988 159.23C9.36988 159.29 9.26988 159.36 9.17988 159.44C9.07988 159.51 9.03988 159.59 9.03988 159.66H9.02988ZM9.02988 159.66L9.00988 158.72L9.79988 158.27L18.2199 157.79C18.2499 157.95 18.2899 158.14 18.3399 158.35C18.3899 158.56 18.4299 158.73 18.4599 158.86C17.1199 158.95 15.9699 159.03 14.9999 159.1C14.0299 159.17 13.2199 159.23 12.5599 159.27C11.8999 159.31 11.3599 159.35 10.9399 159.39C10.5199 159.43 10.1899 159.46 9.93988 159.49C9.68988 159.52 9.49988 159.55 9.36988 159.58C9.23988 159.61 9.11988 159.64 9.02988 159.67V159.66ZM16.5899 147.17C16.8399 147.69 17.1399 148.22 17.4899 148.76C17.8399 149.3 18.2199 149.82 18.6199 150.33C19.0299 150.84 19.4399 151.31 19.8599 151.75C20.2799 152.19 20.6799 152.56 21.0699 152.88C20.9699 152.95 20.8599 153.04 20.7499 153.16C20.6399 153.28 20.5199 153.39 20.4099 153.51C20.2999 153.62 20.1999 153.74 20.1299 153.85C19.7399 153.48 19.3299 153.06 18.9099 152.58C18.4799 152.1 18.0699 151.59 17.6599 151.04C17.2499 150.49 16.8599 149.93 16.4899 149.35C16.1199 148.77 15.7899 148.19 15.4999 147.62L16.5999 147.17H16.5899ZM15.7799 155.34L16.8299 154.86C17.2799 155.39 17.7299 155.96 18.1899 156.58C18.6499 157.2 19.0699 157.79 19.4699 158.38C19.8699 158.96 20.1999 159.49 20.4499 159.95L19.3399 160.55C19.0999 160.09 18.7799 159.56 18.3899 158.95C17.9999 158.34 17.5699 157.73 17.1199 157.1C16.6599 156.47 16.2199 155.89 15.7899 155.35L15.7799 155.34Z" fill="#567C9C"/>
<path d="M26.3999 154.35H27.5099C27.3999 154.82 27.2599 155.31 27.0899 155.83C26.9199 156.35 26.6899 156.85 26.4099 157.35C26.1299 157.85 25.7799 158.32 25.3699 158.76C24.9599 159.2 24.4499 159.58 23.8599 159.9C23.8099 159.82 23.7399 159.73 23.6699 159.62C23.5899 159.52 23.5099 159.41 23.4199 159.31C23.3399 159.21 23.2499 159.13 23.1699 159.07C23.6999 158.81 24.1499 158.49 24.5299 158.09C24.9099 157.69 25.2199 157.29 25.4599 156.85C25.6999 156.41 25.8999 155.98 26.0499 155.54C26.1999 155.1 26.3199 154.7 26.3999 154.34V154.35ZM35.6199 152.1L36.4499 152.91C35.6799 153.05 34.8099 153.17 33.8299 153.28C32.8599 153.38 31.8399 153.47 30.7699 153.54C29.6999 153.61 28.6499 153.67 27.5999 153.71C26.5499 153.75 25.5799 153.78 24.6699 153.8C24.6299 153.71 24.5699 153.6 24.4899 153.46C24.4099 153.33 24.3299 153.19 24.2399 153.06C24.1599 152.93 24.0799 152.83 24.0099 152.75C24.9599 152.76 25.9699 152.75 27.0299 152.73C28.0899 152.71 29.1399 152.67 30.1899 152.61C31.2399 152.55 32.2299 152.47 33.1699 152.38C34.1099 152.29 34.9299 152.19 35.6299 152.09L35.6199 152.1ZM24.2999 147.42H36.1799V151.39H24.2999V147.42ZM25.3799 148.43V150.41H27.8399V148.43H25.3799ZM26.2199 156.74L26.8199 156.03C27.1099 156.23 27.4099 156.46 27.7099 156.7C28.0099 156.95 28.2999 157.2 28.5599 157.45C28.8199 157.7 29.0399 157.93 29.2099 158.13L28.5799 158.92C28.4199 158.71 28.2099 158.48 27.9399 158.22C27.6699 157.97 27.3899 157.71 27.0899 157.44C26.7899 157.17 26.4899 156.94 26.1999 156.73L26.2199 156.74ZM28.8699 148.43V150.41H31.4199V148.43H28.8699ZM29.6799 153.57L30.3399 152.89L30.7899 153.03V160.84H29.6799V153.57ZM33.7799 154.08H34.8899C34.7999 154.57 34.6799 155.08 34.5199 155.62C34.3599 156.16 34.1599 156.69 33.8999 157.2C33.6499 157.72 33.3199 158.2 32.9399 158.66C32.5499 159.12 32.0799 159.51 31.5099 159.85C31.4399 159.71 31.3299 159.56 31.1899 159.39C31.0399 159.22 30.9099 159.09 30.7799 159C31.2999 158.72 31.7299 158.38 32.0899 157.99C32.4399 157.59 32.7199 157.17 32.9399 156.72C33.1599 156.26 33.3299 155.81 33.4599 155.35C33.5899 154.89 33.6899 154.47 33.7699 154.08H33.7799ZM32.4599 148.43V150.41H35.0499V148.43H32.4599ZM34.2899 155.79C34.4499 156.11 34.6799 156.47 34.9699 156.86C35.2599 157.25 35.5899 157.63 35.9499 157.99C36.3099 158.35 36.6999 158.66 37.0999 158.91C37.0199 158.97 36.9299 159.05 36.8499 159.14C36.7599 159.24 36.6699 159.34 36.5899 159.45C36.5099 159.56 36.4299 159.66 36.3699 159.74C35.9699 159.46 35.5799 159.12 35.2099 158.7C34.8399 158.28 34.5099 157.87 34.2099 157.45C33.9199 157.03 33.6899 156.65 33.5299 156.32L34.2899 155.79Z" fill="#567C9C"/>
<path d="M40 147.83H41.05V158.93H40V147.83ZM40.54 147.83H44.29V157.7H40.54V156.68H43.23V148.87H40.54V147.83ZM40.59 152.19H43.72V153.21H40.59V152.19ZM44.55 151.55H53.32V152.57H44.55V151.55ZM44.62 154.26H53.17V155.26H44.62V154.26ZM45.18 148.64H52.7V149.64H45.18V148.64ZM45.54 156.32L46.44 155.79C46.69 156.04 46.94 156.32 47.2 156.63C47.46 156.94 47.7 157.24 47.91 157.55C48.12 157.85 48.29 158.12 48.4 158.37L47.44 158.95C47.33 158.7 47.17 158.42 46.97 158.12C46.76 157.82 46.54 157.51 46.29 157.19C46.04 156.87 45.79 156.58 45.54 156.31V156.32ZM50.31 152.4H51.42V159.32C51.42 159.64 51.37 159.89 51.28 160.06C51.19 160.23 51.03 160.36 50.8 160.44C50.56 160.53 50.24 160.58 49.86 160.6C49.47 160.62 48.97 160.63 48.36 160.63C48.34 160.48 48.29 160.3 48.22 160.1C48.15 159.9 48.07 159.72 47.99 159.57C48.45 159.57 48.87 159.59 49.25 159.59C49.63 159.59 49.88 159.59 50 159.59C50.12 159.59 50.2 159.57 50.25 159.53C50.29 159.49 50.32 159.41 50.32 159.3V152.4H50.31ZM48.33 146.84H49.44V152.18H48.33V146.84Z" fill="#567C9C"/>
<path d="M55.48 157.1C55.98 157.04 56.55 156.96 57.2 156.87C57.85 156.78 58.53 156.67 59.26 156.56C59.99 156.45 60.72 156.34 61.45 156.23L61.51 157.21C60.47 157.39 59.43 157.56 58.41 157.73C57.39 157.9 56.47 158.05 55.68 158.19L55.49 157.11L55.48 157.1ZM56.76 148.19L57.86 148.57V160.45H56.76V148.19ZM60.73 146.76L61.66 147.61C61.24 147.79 60.78 147.97 60.26 148.14C59.75 148.32 59.23 148.48 58.7 148.63C58.17 148.78 57.65 148.92 57.15 149.05C57.12 148.93 57.07 148.79 56.98 148.61C56.9 148.44 56.83 148.3 56.77 148.17C57.24 148.04 57.72 147.9 58.21 147.74C58.7 147.58 59.16 147.42 59.6 147.24C60.04 147.07 60.41 146.9 60.71 146.74L60.73 146.76ZM57.19 150.51H61.23V151.51H57.19V150.51ZM57.19 153.57H61.21V154.59H57.19V153.57ZM67.17 153.66H67.39L67.59 153.62L68.3 153.87C67.98 155.19 67.49 156.3 66.84 157.2C66.19 158.1 65.4 158.83 64.49 159.39C63.58 159.95 62.58 160.39 61.49 160.71C61.45 160.61 61.4 160.5 61.33 160.38C61.27 160.26 61.2 160.14 61.12 160.03C61.05 159.91 60.97 159.82 60.89 159.75C61.91 159.5 62.85 159.13 63.7 158.63C64.55 158.13 65.28 157.49 65.88 156.7C66.48 155.91 66.92 154.96 67.18 153.84V153.66H67.17ZM63.06 147.41H64.11V149.25C64.11 149.69 64.06 150.16 63.95 150.66C63.84 151.16 63.65 151.64 63.37 152.11C63.09 152.57 62.68 152.99 62.13 153.36C62.08 153.29 62.01 153.21 61.91 153.11C61.81 153.01 61.72 152.92 61.61 152.84C61.5 152.76 61.41 152.69 61.33 152.64C61.83 152.3 62.2 151.94 62.45 151.55C62.7 151.17 62.86 150.77 62.94 150.36C63.02 149.96 63.06 149.57 63.06 149.21V147.4V147.41ZM61.99 153.66H67.41V154.64H61.99V153.66ZM63.4 154.55C63.73 155.39 64.18 156.15 64.74 156.83C65.3 157.51 65.98 158.09 66.77 158.58C67.55 159.06 68.43 159.42 69.4 159.65C69.32 159.73 69.23 159.83 69.14 159.94C69.04 160.06 68.96 160.17 68.89 160.29C68.81 160.41 68.75 160.52 68.69 160.6C67.19 160.17 65.92 159.45 64.88 158.45C63.84 157.45 63.05 156.23 62.51 154.79L63.41 154.54L63.4 154.55ZM63.72 147.41H66.54V148.39H63.72V147.41ZM66.21 147.41H67.24V151.22C67.24 151.42 67.26 151.55 67.29 151.62C67.32 151.69 67.39 151.72 67.49 151.72H68.51C68.61 151.72 68.73 151.72 68.87 151.7C69.01 151.7 69.12 151.68 69.21 151.66C69.21 151.79 69.23 151.94 69.24 152.11C69.24 152.28 69.26 152.42 69.28 152.53C69.2 152.56 69.09 152.58 68.95 152.59C68.81 152.6 68.66 152.61 68.51 152.61H67.39C67.06 152.61 66.81 152.56 66.63 152.47C66.45 152.37 66.34 152.22 66.28 152.02C66.22 151.82 66.19 151.54 66.19 151.2V147.41H66.21Z" fill="#567C9C"/>
<path d="M77.3798 156.63L77.0498 155.83C77.6598 155.57 78.1298 155.25 78.4498 154.86C78.7798 154.48 78.9398 154 78.9398 153.43L78.6698 152.17L79.4798 153.31C79.3698 153.44 79.2398 153.53 79.0998 153.57C78.9598 153.61 78.8198 153.64 78.6798 153.64C78.3698 153.64 78.0998 153.55 77.8798 153.37C77.6598 153.19 77.5498 152.93 77.5498 152.58C77.5498 152.23 77.6598 151.95 77.8898 151.77C78.1198 151.59 78.3798 151.5 78.6898 151.5C79.1098 151.5 79.4298 151.66 79.6398 151.97C79.8498 152.28 79.9598 152.7 79.9598 153.22C79.9598 154.03 79.7198 154.73 79.2498 155.32C78.7798 155.91 78.1498 156.35 77.3598 156.63H77.3798Z" fill="#567C9C"/>
<path d="M88.21 154.11H101.3V155.03H88.21V154.11ZM88.38 149.46H101.13V152.7H100.01V150.35H89.47V152.7H88.39V149.46H88.38ZM89.04 147.48H100.43V148.35H89.04V147.48ZM89.38 156.09H99.65V157.02H90.44V160.62H89.38V156.09ZM89.71 152.91C90.19 152.86 90.74 152.79 91.36 152.7C91.98 152.61 92.63 152.51 93.3 152.41L93.34 153.13C92.76 153.24 92.19 153.35 91.63 153.47C91.07 153.59 90.55 153.69 90.05 153.79L89.71 152.9V152.91ZM90.1 151.22L90.43 150.6C90.76 150.66 91.11 150.73 91.47 150.82C91.83 150.91 92.18 151 92.51 151.1C92.84 151.2 93.12 151.3 93.34 151.4L93.01 152.09C92.79 151.99 92.51 151.89 92.19 151.78C91.86 151.67 91.51 151.57 91.15 151.47C90.78 151.37 90.44 151.29 90.11 151.23L90.1 151.22ZM92.67 156.69H93.7V160.53H92.67V156.69ZM94.17 154.44L95.38 154.5C95.25 154.9 95.11 155.29 94.96 155.68C94.81 156.07 94.67 156.4 94.54 156.68L93.55 156.58C93.67 156.28 93.79 155.93 93.9 155.52C94.01 155.12 94.1 154.76 94.16 154.45L94.17 154.44ZM94.14 147.78H95.24V153.64H94.14V147.78ZM95.86 153.02L96.13 152.33C96.52 152.37 96.93 152.43 97.37 152.51C97.81 152.59 98.22 152.68 98.62 152.78C99.02 152.88 99.36 152.97 99.64 153.06L99.39 153.84C99.12 153.74 98.78 153.64 98.38 153.53C97.97 153.43 97.55 153.33 97.11 153.24C96.67 153.15 96.26 153.07 95.86 153.01V153.02ZM96 156.69H97.04V160.53H96V156.69ZM98.91 150.53L99.41 151.18C99.13 151.3 98.81 151.41 98.47 151.52C98.12 151.62 97.77 151.72 97.42 151.81C97.07 151.9 96.75 151.98 96.46 152.04L96.06 151.47C96.35 151.4 96.67 151.31 97.02 151.2C97.37 151.09 97.71 150.97 98.05 150.86C98.39 150.74 98.68 150.63 98.92 150.55L98.91 150.53ZM99.37 156.09H100.47V159.53C100.47 159.79 100.44 159.99 100.38 160.14C100.32 160.28 100.19 160.4 100 160.48C99.81 160.57 99.57 160.62 99.29 160.64C99 160.65 98.66 160.66 98.25 160.66C98.23 160.52 98.18 160.36 98.11 160.19C98.03 160.01 97.96 159.86 97.89 159.72C98.19 159.72 98.46 159.74 98.69 159.74C98.92 159.74 99.08 159.74 99.16 159.72C99.25 159.72 99.31 159.71 99.33 159.68C99.35 159.65 99.37 159.6 99.37 159.53V156.11V156.09Z" fill="#567C9C"/>
<path d="M103.93 152.34H109.66V153.36H103.93V152.34ZM104.25 147.57H109.13V148.57H104.25V147.57ZM106.41 152.84H107.49V159.34C107.49 159.64 107.45 159.88 107.37 160.05C107.29 160.22 107.14 160.35 106.93 160.44C106.72 160.53 106.44 160.58 106.1 160.61C105.76 160.63 105.32 160.64 104.8 160.64C104.78 160.49 104.74 160.31 104.67 160.11C104.6 159.9 104.52 159.72 104.44 159.56C104.83 159.56 105.18 159.58 105.5 159.58H106.12C106.23 159.57 106.31 159.55 106.35 159.52C106.39 159.49 106.41 159.43 106.41 159.33V152.86V152.84ZM104.68 150.2L105.28 149.46C105.7 149.67 106.13 149.92 106.58 150.2C107.03 150.48 107.44 150.77 107.83 151.06C108.22 151.35 108.53 151.63 108.77 151.88L108.12 152.72C107.89 152.46 107.58 152.18 107.2 151.87C106.81 151.57 106.4 151.27 105.96 150.97C105.52 150.67 105.09 150.42 104.67 150.2H104.68ZM108.78 147.57H109.02L109.25 147.51L109.96 148.01C109.73 148.39 109.46 148.78 109.15 149.18C108.84 149.58 108.52 149.96 108.19 150.31C107.86 150.66 107.54 150.98 107.21 151.25C107.14 151.14 107.04 151.02 106.9 150.9C106.76 150.78 106.65 150.67 106.55 150.58C106.83 150.34 107.11 150.06 107.39 149.74C107.67 149.42 107.93 149.09 108.18 148.75C108.43 148.41 108.63 148.1 108.78 147.81V147.58V147.57ZM109.35 152.34H109.5L109.67 152.3L110.38 152.49C110.19 153.06 109.98 153.65 109.76 154.25C109.54 154.85 109.32 155.36 109.12 155.77L108.27 155.54C108.39 155.29 108.51 154.99 108.65 154.65C108.78 154.3 108.91 153.94 109.03 153.57C109.15 153.2 109.27 152.84 109.37 152.5V152.33L109.35 152.34ZM112.14 158.06L113.12 158.64C112.85 158.9 112.52 159.16 112.14 159.42C111.76 159.68 111.36 159.92 110.93 160.14C110.51 160.36 110.09 160.55 109.69 160.7C109.6 160.6 109.48 160.47 109.33 160.32C109.18 160.17 109.04 160.04 108.92 159.94C109.32 159.79 109.72 159.61 110.13 159.41C110.54 159.21 110.92 158.99 111.27 158.75C111.62 158.51 111.9 158.28 112.12 158.05L112.14 158.06ZM110.05 147.56H117.67V148.54H110.05V147.56ZM110.64 149.96H117.16V157.79H110.64V149.96ZM111.69 150.84V152.28H116.09V150.84H111.69ZM111.69 153.12V154.59H116.09V153.12H111.69ZM111.69 155.43V156.91H116.09V155.43H111.69ZM113.28 148.02L114.55 148.19C114.43 148.62 114.3 149.06 114.17 149.5C114.04 149.94 113.92 150.32 113.79 150.64L112.79 150.44C112.85 150.21 112.91 149.95 112.98 149.67C113.04 149.39 113.1 149.1 113.15 148.81C113.2 148.52 113.24 148.26 113.27 148.03L113.28 148.02ZM114.46 158.72L115.3 158.14C115.61 158.31 115.93 158.51 116.27 158.74C116.6 158.97 116.92 159.2 117.23 159.43C117.53 159.66 117.79 159.87 117.99 160.06L117.09 160.71C116.91 160.52 116.67 160.31 116.38 160.08C116.08 159.85 115.77 159.61 115.43 159.37C115.09 159.13 114.77 158.91 114.47 158.72H114.46Z" fill="#567C9C"/>
<path d="M124.35 154.141H125.52C125.45 154.901 125.33 155.621 125.17 156.291C125 156.961 124.76 157.571 124.43 158.131C124.1 158.691 123.65 159.181 123.09 159.621C122.53 160.061 121.8 160.431 120.92 160.731C120.88 160.631 120.82 160.521 120.73 160.411C120.65 160.291 120.56 160.181 120.47 160.061C120.38 159.941 120.29 159.851 120.2 159.781C121.02 159.521 121.69 159.201 122.21 158.831C122.73 158.461 123.13 158.031 123.43 157.551C123.72 157.071 123.93 156.541 124.07 155.971C124.21 155.401 124.3 154.791 124.36 154.141H124.35ZM120.4 153.301H133.59V154.391H120.4V153.301ZM123.18 147.201L124.32 147.441C124.16 148.011 123.97 148.611 123.74 149.231C123.51 149.851 123.26 150.451 122.96 151.041C122.66 151.621 122.34 152.141 121.99 152.581C121.91 152.521 121.81 152.461 121.69 152.391C121.57 152.321 121.45 152.261 121.34 152.191C121.22 152.131 121.12 152.081 121.02 152.051C121.37 151.621 121.68 151.131 121.96 150.571C122.23 150.021 122.48 149.451 122.69 148.861C122.9 148.271 123.07 147.721 123.19 147.201H123.18ZM122.88 149.191H132.51V150.271H122.88V149.191ZM126.42 146.851H127.56V153.661H126.42V146.851ZM128.35 154.101H129.47V158.811C129.47 159.031 129.51 159.171 129.6 159.241C129.68 159.301 129.87 159.341 130.15 159.341H132.05C132.24 159.341 132.38 159.291 132.48 159.181C132.57 159.081 132.64 158.861 132.67 158.541C132.71 158.221 132.73 157.741 132.75 157.081C132.83 157.141 132.93 157.201 133.06 157.271C133.18 157.341 133.31 157.391 133.44 157.441C133.57 157.491 133.69 157.521 133.79 157.551C133.75 158.311 133.68 158.901 133.57 159.311C133.47 159.731 133.3 160.011 133.08 160.171C132.85 160.331 132.54 160.411 132.14 160.411H130.02C129.57 160.411 129.23 160.361 128.98 160.271C128.74 160.171 128.57 160.011 128.48 159.771C128.39 159.531 128.34 159.211 128.34 158.801V154.091L128.35 154.101Z" fill="#567C9C"/>
<path d="M136.32 150.87H142.84V151.85H136.32V150.87ZM136.32 156.6H142.87V157.58H136.32V156.6ZM136.65 153.98H142.57V154.96H136.65V153.98ZM136.77 148.4H142.47V149.36H136.77V148.4ZM137.34 152.16L138.16 151.91C138.34 152.19 138.5 152.5 138.65 152.85C138.79 153.19 138.89 153.49 138.94 153.73L138.05 154.03C138 153.78 137.91 153.48 137.77 153.12C137.64 152.77 137.49 152.45 137.33 152.17L137.34 152.16ZM139.14 146.87H140.19V151.22H139.14V146.87ZM139.14 154.37H140.19V160.6H139.14V154.37ZM141.1 151.85L142.07 152.12C141.86 152.54 141.64 152.97 141.4 153.39C141.17 153.82 140.94 154.2 140.72 154.51L139.88 154.26C140.03 154.04 140.18 153.79 140.33 153.51C140.48 153.23 140.62 152.94 140.76 152.65C140.9 152.36 141.01 152.09 141.1 151.85ZM143.41 147.54H148.75V148.56H144.46V160.62H143.41V147.54ZM143.95 152.64H148.87V153.57H143.95V152.64ZM148.53 152.64H148.72L148.92 152.6L149.62 152.85C149.42 153.93 149.11 154.97 148.7 155.95C148.28 156.94 147.76 157.84 147.14 158.64C146.52 159.45 145.79 160.12 144.96 160.67C144.87 160.54 144.75 160.4 144.61 160.26C144.46 160.11 144.33 160 144.2 159.91C144.99 159.42 145.68 158.8 146.27 158.06C146.86 157.32 147.34 156.5 147.73 155.6C148.11 154.71 148.38 153.8 148.54 152.89V152.64H148.53ZM145.42 153.17C145.69 154.1 146.05 154.99 146.51 155.84C146.97 156.69 147.5 157.45 148.12 158.11C148.74 158.77 149.43 159.28 150.18 159.64C150.05 159.75 149.91 159.89 149.76 160.08C149.61 160.26 149.49 160.42 149.4 160.57C148.63 160.13 147.93 159.55 147.31 158.82C146.69 158.1 146.14 157.27 145.68 156.35C145.21 155.43 144.84 154.44 144.55 153.4L145.44 153.17H145.42ZM148.21 147.54H149.26V150.44C149.26 150.72 149.22 150.94 149.15 151.1C149.07 151.26 148.92 151.39 148.69 151.48C148.46 151.56 148.15 151.61 147.77 151.62C147.38 151.64 146.9 151.64 146.31 151.64C146.29 151.49 146.25 151.32 146.18 151.14C146.11 150.96 146.04 150.79 145.96 150.65C146.28 150.66 146.57 150.67 146.84 150.67C147.1 150.67 147.33 150.67 147.52 150.67C147.71 150.67 147.84 150.67 147.91 150.65C148.04 150.65 148.12 150.62 148.16 150.59C148.2 150.56 148.21 150.51 148.21 150.42V147.52V147.54Z" fill="#567C9C"/>
<path d="M161.82 148.351H162.05L162.24 148.291L162.99 148.711C162.54 149.841 161.95 150.881 161.24 151.821C160.52 152.761 159.71 153.601 158.8 154.341C157.89 155.081 156.94 155.721 155.93 156.271C154.92 156.821 153.91 157.251 152.88 157.581C152.84 157.481 152.78 157.371 152.71 157.231C152.64 157.101 152.56 156.981 152.47 156.851C152.39 156.731 152.31 156.641 152.24 156.571C153.21 156.291 154.18 155.901 155.15 155.401C156.12 154.901 157.04 154.301 157.9 153.611C158.76 152.921 159.54 152.151 160.22 151.301C160.91 150.451 161.44 149.541 161.82 148.551V148.341V148.351ZM157.36 146.811L158.63 147.051C158.25 147.701 157.8 148.351 157.27 149.011C156.74 149.661 156.13 150.301 155.44 150.911C154.75 151.521 153.97 152.081 153.1 152.591C153.05 152.501 152.98 152.401 152.88 152.291C152.78 152.181 152.69 152.071 152.59 151.971C152.49 151.871 152.4 151.781 152.3 151.721C153.12 151.271 153.86 150.771 154.51 150.211C155.16 149.651 155.73 149.091 156.2 148.501C156.67 147.921 157.06 147.351 157.35 146.811H157.36ZM154.83 151.021L155.66 150.321C156.06 150.581 156.47 150.881 156.9 151.221C157.33 151.561 157.72 151.901 158.09 152.241C158.46 152.581 158.76 152.891 158.99 153.181L158.07 153.971C157.86 153.681 157.57 153.361 157.22 153.011C156.87 152.661 156.47 152.311 156.05 151.961C155.63 151.611 155.22 151.291 154.83 151.011V151.021ZM157.72 154.261H164.47V155.301H157.72V160.651H156.6V155.161L157.5 154.261H157.73H157.72ZM156.69 148.351H162.19V149.371H156.69V148.351ZM157.21 159.021H164.44V160.061H157.21V159.021ZM163.9 154.261H165.05V160.681H163.9V154.261Z" fill="#567C9C"/>
<path d="M169.35 162.39L168.5 162.01C169.15 160.94 169.63 159.79 169.96 158.55C170.28 157.32 170.44 156.06 170.44 154.78C170.44 153.5 170.28 152.26 169.96 151.02C169.64 149.79 169.15 148.63 168.5 147.56L169.35 147.17C170.05 148.29 170.59 149.47 170.98 150.71C171.37 151.95 171.56 153.31 171.56 154.77C171.56 156.23 171.37 157.61 170.98 158.84C170.6 160.07 170.05 161.25 169.35 162.37V162.39Z" fill="#567C9C"/>
<path d="M6.92021 89.9597L9.09021 90.5897C8.82021 91.1997 8.49021 91.7897 8.11021 92.3697C7.73021 92.9497 7.32021 93.4997 6.88021 93.9997C6.45021 94.5097 6.02021 94.9497 5.60021 95.3197C5.45021 95.1797 5.27021 95.0297 5.04021 94.8597C4.82021 94.6897 4.59021 94.5197 4.35021 94.3497C4.12021 94.1797 3.90021 94.0497 3.72021 93.9497C4.36021 93.4697 4.97022 92.8697 5.55022 92.1597C6.13021 91.4497 6.58021 90.7197 6.91021 89.9597H6.92021ZM4.15021 97.6097H20.5802V99.5197H4.15021V97.6097ZM5.95021 83.2197H18.6802V90.1397H5.95021V83.2197ZM6.45021 94.5997H18.5502V96.3497H6.45021V94.5997ZM6.94021 91.6097H19.4002V93.4697H6.94021V91.6097ZM8.14021 84.9097V85.8797H16.3802V84.9097H8.14021ZM8.14021 87.4597V88.4597H16.3802V87.4597H8.14021ZM11.2602 90.4797H13.5602V98.9297H11.2602V90.4797Z" fill="#003E7E"/>
<path d="M28.19 95.7003L30.31 96.3103C29.96 96.9903 29.54 97.6703 29.03 98.3403C28.52 99.0103 28.02 99.5803 27.53 100.04C27.41 99.9003 27.24 99.7503 27.02 99.5903C26.8 99.4303 26.58 99.2703 26.35 99.1103C26.12 98.9503 25.92 98.8203 25.75 98.7203C26.25 98.3503 26.71 97.8903 27.15 97.3503C27.59 96.8103 27.94 96.2503 28.2 95.7003H28.19ZM25.89 93.6203H35.08V95.5703H25.89V93.6203ZM26.11 84.7503H35.21V86.7003H26.11V84.7503ZM27.56 82.7803H29.56V94.3303H27.56V82.7803ZM28.53 87.7903H32.97V89.4803H28.53V87.7903ZM28.53 90.6703H32.97V92.3803H28.53V90.6703ZM30.96 96.5303L32.65 95.6003C32.9 95.8603 33.15 96.1503 33.42 96.4803C33.69 96.8103 33.94 97.1303 34.18 97.4503C34.42 97.7703 34.62 98.0503 34.76 98.3103L32.96 99.3503C32.84 99.1003 32.66 98.8103 32.43 98.4903C32.2 98.1703 31.96 97.8203 31.7 97.4803C31.44 97.1303 31.19 96.8203 30.96 96.5303ZM31.89 82.7803H33.93V94.3303H31.89V82.7803ZM35.82 83.3903H37.92V90.2203C37.92 90.9503 37.9 91.7503 37.86 92.6103C37.82 93.4703 37.73 94.3503 37.6 95.2403C37.47 96.1303 37.29 96.9803 37.05 97.8103C36.81 98.6403 36.49 99.3803 36.08 100.04C35.97 99.9003 35.8 99.7503 35.58 99.5803C35.36 99.4103 35.13 99.2603 34.91 99.1103C34.69 98.9603 34.49 98.8503 34.32 98.7803C34.79 97.9803 35.13 97.0803 35.34 96.0903C35.55 95.1003 35.68 94.0903 35.74 93.0703C35.8 92.0503 35.82 91.1003 35.82 90.2203V83.3903ZM36.73 91.8403H41.56V93.8303H36.73V91.8403ZM36.75 83.3903H41.54V85.4103H36.75V83.3903ZM36.75 87.5903H41.54V89.5603H36.75V87.5903ZM40.59 83.3903H42.72V97.5403C42.72 98.0803 42.66 98.5103 42.53 98.8303C42.41 99.1503 42.18 99.4003 41.86 99.5803C41.54 99.7503 41.13 99.8603 40.64 99.9103C40.15 99.9603 39.56 99.9803 38.87 99.9703C38.83 99.6703 38.75 99.3203 38.63 98.9003C38.51 98.4803 38.38 98.1403 38.24 97.8503C38.64 97.8803 39.03 97.8903 39.42 97.8903H40.21C40.35 97.8903 40.44 97.8603 40.5 97.8103C40.56 97.7503 40.58 97.6603 40.58 97.5203V83.3903H40.59Z" fill="#003E7E"/>
<path d="M52.9902 91.1498L55.5002 91.9498C55.0502 92.8898 54.5402 93.8498 53.9702 94.8198C53.3902 95.7898 52.8102 96.7098 52.2202 97.5798C51.6302 98.4498 51.0502 99.2098 50.4902 99.8598C50.3202 99.7098 50.0902 99.5398 49.8202 99.3498C49.5502 99.1598 49.2702 98.9698 48.9802 98.7798C48.7002 98.5898 48.4502 98.4498 48.2402 98.3298C48.8102 97.7498 49.3802 97.0598 49.9702 96.2698C50.5502 95.4798 51.1002 94.6398 51.6202 93.7598C52.1402 92.8798 52.6002 92.0098 52.9902 91.1398V91.1498ZM48.4802 87.2299H65.3502V89.5499H48.4802V87.2299ZM54.7602 83.3699L57.1002 82.5898C57.3102 82.9698 57.5302 83.3898 57.7602 83.8398C57.9902 84.2898 58.2102 84.7398 58.4302 85.1798C58.6502 85.6198 58.8202 86.0098 58.9602 86.3398L56.4502 87.2698C56.3402 86.9398 56.1902 86.5498 56.0002 86.0998C55.8102 85.6498 55.6102 85.1898 55.4002 84.7198C55.1802 84.2398 54.9702 83.7899 54.7602 83.3699ZM58.2302 92.0598L60.3802 91.0198C60.7602 91.5998 61.1802 92.2198 61.6402 92.8798C62.1002 93.5398 62.5502 94.1999 63.0002 94.8699C63.4502 95.5399 63.8802 96.1798 64.2802 96.7898C64.6802 97.3998 65.0202 97.9598 65.2902 98.4498L62.9102 99.7498C62.6702 99.2498 62.3702 98.6898 62.0102 98.0698C61.6402 97.4498 61.2402 96.7798 60.8002 96.0798C60.3602 95.3798 59.9202 94.6898 59.4702 93.9998C59.0202 93.3098 58.6002 92.6698 58.2102 92.0598H58.2302Z" fill="#003E7E"/>
<path d="M83.4902 94.3794C83.1202 93.9194 82.7003 93.4494 82.2503 92.9594C81.7903 92.4694 81.3303 91.9894 80.8603 91.5294C80.3903 91.0694 79.9403 90.6494 79.5103 90.2994L81.4403 88.6094C81.8903 88.9694 82.3603 89.3894 82.8603 89.8794C83.3603 90.3694 83.8503 90.8594 84.3203 91.3594C84.7903 91.8594 85.1802 92.2894 85.4902 92.6794L83.5003 94.3894L83.4902 94.3794Z" fill="#003E7E"/>
<path d="M101.59 83.6895H114.55V99.7495H112.16V85.9395H103.88V99.7895H101.6V83.6895H101.59ZM103.15 89.9194H113.14V92.1095H103.15V89.9194ZM103.15 96.3094H113.16V98.5594H103.15V96.3094Z" fill="#003E7E"/>
<path d="M9.8999 138.089H5.8299V125.319L3.3999 126.819V123.049L6.3199 121.189H9.8999V138.099V138.089Z" fill="#003E7E"/>
<path d="M22.7299 138.33C19.4499 138.33 16.6499 136.81 16.6499 132.69V126.56C16.6499 122.2 19.4399 120.92 22.7299 120.92C26.0199 120.92 28.8099 122.19 28.8099 126.53V132.68C28.8099 136.8 26.0199 138.32 22.7299 138.32V138.33ZM20.6999 132.23C20.6999 134.04 21.1899 134.95 22.7299 134.95C24.2699 134.95 24.7399 134.04 24.7399 132.23V127.03C24.7399 125.22 24.2499 124.31 22.7299 124.31C21.2099 124.31 20.6999 125.22 20.6999 127.03V132.23Z" fill="#003E7E"/>
<path d="M36.7199 127.16H32.8999V123.34H36.7199V127.16ZM36.7199 135.59H32.8999V131.77H36.7199V135.59Z" fill="#003E7E"/>
<path d="M46.5199 138.33C43.2399 138.33 40.4399 136.81 40.4399 132.69V126.56C40.4399 122.2 43.2299 120.92 46.5199 120.92C49.8099 120.92 52.5999 122.19 52.5999 126.53V132.68C52.5999 136.8 49.8099 138.32 46.5199 138.32V138.33ZM44.4899 132.23C44.4899 134.04 44.9799 134.95 46.5199 134.95C48.0599 134.95 48.5299 134.04 48.5299 132.23V127.03C48.5299 125.22 48.0399 124.31 46.5199 124.31C44.9999 124.31 44.4899 125.22 44.4899 127.03V132.23Z" fill="#003E7E"/>
<path d="M62.08 138.33C58.8 138.33 56 136.81 56 132.69V126.56C56 122.2 58.79 120.92 62.08 120.92C65.37 120.92 68.16 122.19 68.16 126.53V132.68C68.16 136.8 65.37 138.32 62.08 138.32V138.33ZM60.04 132.23C60.04 134.04 60.53 134.95 62.07 134.95C63.61 134.95 64.08 134.04 64.08 132.23V127.03C64.08 125.22 63.59 124.31 62.07 124.31C60.55 124.31 60.04 125.22 60.04 127.03V132.23Z" fill="#003E7E"/>
<path d="M80.21 129.189H89.74V132.819H80.21V129.189Z" fill="#003E7E"/>
<path d="M110.59 138.089H106.52V125.319L104.09 126.819V123.049L107.01 121.189H110.59V138.099V138.089Z" fill="#003E7E"/>
<path d="M121.42 127.67H122.74C123.77 127.67 124.7 127.13 124.7 125.93C124.7 124.88 123.94 124.26 122.91 124.26C121.88 124.26 121.32 124.87 121.12 125.76H117.62C117.79 122.97 120.07 120.93 123.16 120.93C126.25 120.93 128.75 123.21 128.75 125.68C128.75 127.66 127.48 128.77 126.54 129.31C127.91 130.04 128.99 131.34 128.99 133.3C128.99 136.09 127.08 138.32 123.35 138.32C119.62 138.32 117.49 136.24 117.37 133.39H120.87C121.02 134.32 121.75 134.93 123.03 134.93C124.31 134.93 124.94 134.07 124.94 132.99C124.94 131.74 124.23 131.03 122.73 131.03H121.41V127.65L121.42 127.67Z" fill="#003E7E"/>
<path d="M137.41 127.16H133.59V123.34H137.41V127.16ZM137.41 135.59H133.59V131.77H137.41V135.59Z" fill="#003E7E"/>
<path d="M147.21 138.33C143.93 138.33 141.13 136.81 141.13 132.69V126.56C141.13 122.2 143.92 120.92 147.21 120.92C150.5 120.92 153.29 122.19 153.29 126.53V132.68C153.29 136.8 150.5 138.32 147.21 138.32V138.33ZM145.18 132.23C145.18 134.04 145.67 134.95 147.21 134.95C148.75 134.95 149.22 134.04 149.22 132.23V127.03C149.22 125.22 148.73 124.31 147.21 124.31C145.69 124.31 145.18 125.22 145.18 127.03V132.23Z" fill="#003E7E"/>
<path d="M162.77 138.33C159.49 138.33 156.69 136.81 156.69 132.69V126.56C156.69 122.2 159.48 120.92 162.77 120.92C166.06 120.92 168.85 122.19 168.85 126.53V132.68C168.85 136.8 166.06 138.32 162.77 138.32V138.33ZM160.74 132.23C160.74 134.04 161.23 134.95 162.77 134.95C164.31 134.95 164.78 134.04 164.78 132.23V127.03C164.78 125.22 164.29 124.31 162.77 124.31C161.25 124.31 160.74 125.22 160.74 127.03V132.23Z" fill="#003E7E"/>
<path d="M211.67 86.4004H409.24" stroke="#003E7E" stroke-miterlimit="10"/>
<path d="M274.26 3.50977H229.34C230.27 5.15977 230.8 9.27977 229.77 11.9298C228.51 15.1998 225.12 19.7098 222.86 23.4198H274.25V3.50977H274.26Z" fill="#5780A2"/>
<path d="M219.46 45.4595L221.61 46.3395C221.12 47.0395 220.56 47.7195 219.94 48.3595C219.32 48.9995 218.64 49.6095 217.92 50.1795C217.2 50.7495 216.45 51.2695 215.67 51.7395C214.89 52.2095 214.11 52.6095 213.32 52.9495C213.18 52.7395 213.01 52.4995 212.81 52.2295C212.61 51.9595 212.4 51.6995 212.18 51.4495C211.96 51.1995 211.75 50.9895 211.57 50.8195C212.34 50.5495 213.11 50.2295 213.86 49.8395C214.62 49.4495 215.35 49.0295 216.05 48.5595C216.75 48.0895 217.39 47.5895 217.98 47.0695C218.56 46.5395 219.06 46.0095 219.46 45.4595ZM212.18 35.1695H230.87V37.5295H212.18V35.1695ZM213.95 38.7295H229.21V46.8295H213.95V38.7295ZM216.41 40.6195V41.8795H226.62V40.6195H216.41ZM216.41 43.6495V44.9295H226.62V43.6495H216.41ZM220.12 33.4395H222.75V53.1995H220.12V33.4395ZM223.46 45.5495C223.88 46.0795 224.39 46.6095 224.99 47.1195C225.59 47.6295 226.24 48.1195 226.95 48.5895C227.66 49.0595 228.4 49.4795 229.17 49.8495C229.94 50.2195 230.71 50.5395 231.49 50.8095C231.29 50.9795 231.08 51.1895 230.85 51.4495C230.62 51.7095 230.4 51.9795 230.2 52.2495C230 52.5195 229.82 52.7695 229.68 52.9995C228.89 52.6795 228.12 52.2795 227.34 51.8095C226.57 51.3395 225.82 50.8195 225.1 50.2495C224.38 49.6795 223.7 49.0695 223.08 48.4295C222.46 47.7795 221.9 47.1195 221.41 46.4295L223.47 45.5495H223.46Z" fill="#003E7E"/>
<path d="M234.55 45.3599H253.75V47.5299H234.55V45.3599ZM234.68 34.6399H243.75V36.8299H234.68V34.6399ZM235.06 41.8399H241.96V43.9699H235.06V41.8399ZM235.08 38.5199H253.16V40.5799H235.08V38.5199ZM235.78 48.5999H252.37V50.6599H235.78V48.5999ZM237.69 40.9599H240.03V44.9999H237.69V40.9599ZM239.16 33.4199H241.62V38.0299H239.16V33.4199ZM242.78 39.3199H245.28V53.1899H242.78V39.3199ZM244.45 34.6399H253.52V36.8299H244.45V34.6399ZM246.13 41.7399H253.03V43.8699H246.13V41.7399ZM246.47 33.4199H248.93V38.0299H246.47V33.4199ZM248.17 40.9599H250.51V44.9999H248.17V40.9599Z" fill="#003E7E"/>
<path d="M257.54 49.3595H275.89V51.9295H257.54V49.3595ZM258.72 35.4395H274.78V38.0295H258.72V35.4395ZM260.17 42.2195H273.09V44.7895H260.17V42.2195Z" fill="#003E7E"/>
<path d="M280.27 34.2697H285.11V36.5197H282.48V53.1297H280.27V34.2697ZM284.54 34.2697H284.94L285.3 34.1697L286.94 35.1197C286.67 35.9997 286.38 36.9397 286.06 37.9297C285.74 38.9197 285.42 39.8197 285.11 40.6397C285.76 41.4797 286.18 42.2697 286.37 43.0097C286.56 43.7497 286.66 44.4197 286.66 45.0397C286.66 45.7297 286.59 46.2997 286.44 46.7597C286.29 47.2197 286.05 47.5797 285.71 47.8397C285.54 47.9697 285.36 48.0597 285.15 48.1297C284.95 48.1997 284.73 48.2597 284.51 48.2997C284.31 48.3297 284.1 48.3397 283.86 48.3397H283.12C283.12 48.0497 283.07 47.6897 282.97 47.2697C282.87 46.8497 282.74 46.4797 282.57 46.1797C282.77 46.1897 282.94 46.1997 283.09 46.2097C283.24 46.2097 283.37 46.2097 283.5 46.1997C283.72 46.1997 283.91 46.1397 284.07 46.0297C284.2 45.9497 284.29 45.7897 284.34 45.5697C284.39 45.3497 284.42 45.0797 284.42 44.7697C284.42 44.2597 284.33 43.6797 284.15 43.0197C283.97 42.3597 283.57 41.6597 282.97 40.9197C283.11 40.4397 283.26 39.9297 283.41 39.3797C283.56 38.8297 283.71 38.2897 283.85 37.7397C283.99 37.1897 284.12 36.6797 284.24 36.1897C284.36 35.7097 284.45 35.2997 284.52 34.9797V34.2897L284.54 34.2697ZM289.66 44.6197H292.08C292.01 45.6597 291.9 46.6197 291.74 47.4997C291.59 48.3797 291.32 49.1797 290.94 49.8897C290.56 50.5997 290.02 51.2297 289.33 51.7797C288.64 52.3297 287.73 52.8097 286.6 53.1997C286.49 52.8897 286.29 52.5297 286.01 52.1297C285.73 51.7197 285.46 51.3997 285.19 51.1597C286.14 50.8697 286.91 50.5097 287.48 50.1097C288.06 49.6997 288.49 49.2297 288.79 48.6897C289.08 48.1497 289.29 47.5497 289.4 46.8797C289.51 46.2097 289.6 45.4597 289.65 44.6197H289.66ZM286.99 35.8897H299.01V40.0797H296.59V38.0797H289.31V40.0797H286.99V35.8897ZM287.03 43.5297H299.11V45.7797H287.03V43.5297ZM288.65 39.7797H297.34V41.9497H288.65V39.7797ZM291.03 33.8897L293.41 33.2197C293.68 33.6597 293.93 34.1397 294.16 34.6797C294.39 35.2197 294.57 35.6897 294.7 36.0797L292.2 36.8797C292.12 36.4697 291.96 35.9897 291.75 35.4297C291.53 34.8697 291.3 34.3597 291.04 33.8897H291.03ZM293.38 44.5597H295.78V50.0997C295.78 50.3897 295.8 50.5797 295.84 50.6697C295.88 50.7497 295.97 50.7997 296.11 50.7997H296.87C296.98 50.7997 297.07 50.7397 297.12 50.6197C297.17 50.4997 297.22 50.2597 297.26 49.8997C297.3 49.5397 297.32 49.0097 297.33 48.2897C297.48 48.4197 297.68 48.5397 297.93 48.6597C298.18 48.7797 298.43 48.8797 298.7 48.9797C298.97 49.0797 299.2 49.1497 299.39 49.1997C299.33 50.1697 299.22 50.9197 299.05 51.4597C298.88 51.9997 298.64 52.3797 298.33 52.5997C298.02 52.8197 297.61 52.9297 297.11 52.9297H295.66C295.03 52.9297 294.55 52.8397 294.23 52.6597C293.91 52.4797 293.68 52.1797 293.56 51.7797C293.43 51.3697 293.37 50.8297 293.37 50.1397V44.5797L293.38 44.5597Z" fill="#003E7E"/>
<path d="M309.97 45.4595L312.12 46.3395C311.63 47.0395 311.07 47.7195 310.45 48.3595C309.83 49.0095 309.15 49.6095 308.43 50.1795C307.71 50.7495 306.96 51.2695 306.18 51.7395C305.4 52.2095 304.62 52.6095 303.83 52.9495C303.69 52.7395 303.52 52.4995 303.32 52.2295C303.12 51.9595 302.91 51.6995 302.69 51.4495C302.47 51.1995 302.26 50.9895 302.08 50.8195C302.85 50.5495 303.62 50.2295 304.37 49.8395C305.13 49.4495 305.86 49.0295 306.56 48.5595C307.26 48.0895 307.9 47.5895 308.49 47.0695C309.07 46.5395 309.57 46.0095 309.97 45.4595ZM302.69 35.1695H321.38V37.5295H302.69V35.1695ZM304.46 38.7295H319.72V46.8295H304.46V38.7295ZM306.92 40.6195V41.8795H317.13V40.6195H306.92ZM306.92 43.6495V44.9295H317.13V43.6495H306.92ZM310.62 33.4395H313.25V53.1995H310.62V33.4395ZM313.97 45.5495C314.39 46.0795 314.9 46.6095 315.5 47.1195C316.1 47.6295 316.75 48.1195 317.46 48.5895C318.17 49.0595 318.91 49.4795 319.68 49.8495C320.45 50.2195 321.22 50.5395 322 50.8095C321.8 50.9795 321.59 51.1895 321.36 51.4495C321.13 51.7095 320.91 51.9795 320.71 52.2495C320.51 52.5195 320.33 52.7695 320.19 52.9995C319.4 52.6795 318.63 52.2795 317.85 51.8095C317.08 51.3395 316.33 50.8195 315.61 50.2495C314.89 49.6795 314.21 49.0695 313.59 48.4295C312.97 47.7795 312.41 47.1195 311.92 46.4295L313.98 45.5495H313.97Z" fill="#003E7E"/>
<path d="M324.75 43.3994L326.1 41.6694C326.51 41.8094 326.93 41.9894 327.37 42.2094C327.81 42.4294 328.24 42.6494 328.64 42.8694C329.05 43.0894 329.38 43.3094 329.65 43.5194L328.22 45.4394C327.97 45.2294 327.65 44.9994 327.26 44.7494C326.87 44.4994 326.46 44.2594 326.02 44.0194C325.58 43.7894 325.15 43.5794 324.75 43.3994ZM325.19 34.3694H334.26V36.5194H325.19V34.3694ZM325.21 51.5194C325.52 51.0894 325.86 50.5694 326.24 49.9794C326.62 49.3894 327 48.7594 327.4 48.0894C327.79 47.4194 328.16 46.7594 328.52 46.1094L330.27 47.5394C329.96 48.1394 329.64 48.7594 329.3 49.3894C328.96 50.0194 328.62 50.6394 328.27 51.2494C327.92 51.8594 327.58 52.4494 327.24 53.0294L325.22 51.5094L325.21 51.5194ZM325.65 39.4894L327.06 37.8094C327.44 37.9494 327.84 38.1194 328.27 38.3294C328.7 38.5294 329.1 38.7494 329.49 38.9694C329.88 39.1894 330.2 39.4094 330.45 39.6194L329 41.4894C328.76 41.2794 328.46 41.0494 328.08 40.8094C327.71 40.5594 327.31 40.3294 326.88 40.0894C326.45 39.8594 326.04 39.6594 325.65 39.4894ZM329.02 33.3994H331.52V37.6294H329.02V33.3994ZM330.56 39.2294H344.18V41.2094H330.56V39.2294ZM331.27 42.3494H341.73V44.2194H333.67V53.1194H331.27V42.3394V42.3494ZM332.89 45.2094H341.52V46.9594H332.89V45.2094ZM332.89 47.9894H341.52V49.7594H332.89V47.9894ZM335 34.3694H344.03V36.5194H335V34.3694ZM335.99 37.7194H338.37V53.1094H335.99V37.7194ZM337.86 33.4194H340.36V37.4394H337.86V33.4194ZM340.93 42.3494H343.37V50.9194C343.37 51.4394 343.31 51.8394 343.19 52.1294C343.07 52.4194 342.84 52.6494 342.48 52.8094C342.14 52.9594 341.74 53.0594 341.26 53.0894C340.78 53.1194 340.23 53.1394 339.6 53.1394C339.56 52.8494 339.47 52.5094 339.34 52.1394C339.21 51.7694 339.08 51.4394 338.95 51.1594C339.29 51.1694 339.62 51.1794 339.95 51.1894C340.28 51.1894 340.5 51.1994 340.61 51.1994C340.72 51.1894 340.8 51.1594 340.85 51.1194C340.9 51.0794 340.92 50.9994 340.92 50.8894V42.3394L340.93 42.3494ZM339.65 38.1794L340.77 36.8494C341.22 37.0194 341.68 37.2394 342.16 37.5094C342.64 37.7794 343.01 38.0394 343.28 38.2794L342.14 39.7494C341.86 39.4994 341.48 39.2194 341.01 38.9194C340.54 38.6194 340.09 38.3694 339.65 38.1694V38.1794Z" fill="#003E7E"/>
<path d="M216.17 62.1396H217.36C217.36 63.2696 217.33 64.3796 217.29 65.4496C217.26 66.5296 217.16 67.5596 217 68.5596C216.84 69.5596 216.59 70.4896 216.23 71.3596C215.88 72.2296 215.38 73.0097 214.74 73.7197C214.1 74.4297 213.28 75.0397 212.28 75.5497C212.22 75.4597 212.14 75.3596 212.05 75.2496C211.96 75.1396 211.86 75.0296 211.76 74.9296C211.66 74.8296 211.56 74.7396 211.46 74.6696C212.42 74.2096 213.21 73.6496 213.81 72.9996C214.41 72.3496 214.87 71.6196 215.2 70.8096C215.53 69.9996 215.76 69.1396 215.89 68.2096C216.03 67.2796 216.11 66.2996 216.13 65.2796C216.15 64.2596 216.17 63.2097 216.17 62.1497V62.1396ZM212.14 65.7496H221.27V66.8697H212.14V65.7496ZM220.59 65.7496H221.74V73.6296C221.74 73.8896 221.77 74.0496 221.83 74.1296C221.89 74.2096 222.04 74.2496 222.27 74.2496H223.77C223.92 74.2496 224.03 74.1897 224.09 74.0797C224.15 73.9697 224.21 73.7596 224.24 73.4496C224.27 73.1396 224.29 72.6896 224.31 72.0896C224.4 72.1596 224.5 72.2297 224.63 72.2997C224.76 72.3697 224.88 72.4297 225.01 72.4797C225.14 72.5297 225.26 72.5696 225.36 72.5996C225.32 73.2896 225.25 73.8297 225.16 74.2297C225.07 74.6297 224.92 74.9097 224.72 75.0797C224.52 75.2497 224.23 75.3297 223.86 75.3297H222.1C221.72 75.3297 221.41 75.2796 221.19 75.1796C220.97 75.0796 220.81 74.9097 220.72 74.6597C220.63 74.4097 220.58 74.0696 220.58 73.6096V65.7496H220.59Z" fill="#5780A2"/>
<path d="M227.44 66.2494H234.24V67.2094H227.44V66.2494ZM227.71 63.2594H233.98V64.2194H227.71V63.2594ZM228.25 68.0794H233.07V68.9194H229.29V75.5394H228.24V68.0694L228.25 68.0794ZM228.68 64.5594L229.58 64.3494C229.7 64.6294 229.81 64.9394 229.93 65.2794C230.04 65.6194 230.12 65.9194 230.16 66.1694L229.22 66.4194C229.19 66.1594 229.12 65.8594 229.02 65.5194C228.92 65.1794 228.81 64.8594 228.69 64.5594H228.68ZM228.69 69.9694H233.01V70.7494H228.69V69.9694ZM228.69 71.8294H233.01V72.6094H228.69V71.8294ZM230.08 62.1494L231.02 61.8994C231.15 62.1694 231.27 62.4594 231.38 62.7694C231.49 63.0794 231.57 63.3494 231.61 63.5694L230.61 63.8494C230.58 63.6194 230.51 63.3494 230.41 63.0194C230.31 62.6994 230.2 62.4094 230.08 62.1494ZM232.47 68.0794H233.56V74.2494C233.56 74.5194 233.53 74.7294 233.46 74.8794C233.39 75.0394 233.26 75.1594 233.08 75.2494C232.88 75.3394 232.63 75.3894 232.33 75.4094C232.03 75.4294 231.67 75.4394 231.26 75.4394C231.23 75.2794 231.18 75.1094 231.11 74.9194C231.04 74.7294 230.96 74.5694 230.9 74.4294C231.21 74.4294 231.49 74.4394 231.74 74.4394C231.99 74.4394 232.15 74.4394 232.24 74.4294C232.33 74.4294 232.39 74.3994 232.42 74.3694C232.45 74.3394 232.47 74.2894 232.47 74.2094V68.0694V68.0794ZM232.16 64.3494L233.16 64.5894C232.99 64.9694 232.82 65.3594 232.65 65.7394C232.48 66.1194 232.31 66.4594 232.16 66.7394L231.32 66.4894C231.42 66.2794 231.52 66.0494 231.63 65.7994C231.74 65.5494 231.84 65.2994 231.93 65.0394C232.02 64.7794 232.1 64.5494 232.16 64.3494ZM234.98 61.9694H236.06V65.8094H234.98V61.9694ZM234.98 65.2594H240.23V68.3394H234.98V67.4694H239.16V66.1394H234.98V65.2494V65.2594ZM234.98 67.9594H236.06V73.9394C236.06 74.1894 236.11 74.3494 236.21 74.4194C236.31 74.4894 236.54 74.5294 236.9 74.5294H239.44C239.62 74.5294 239.75 74.4994 239.84 74.4294C239.93 74.3694 239.99 74.2494 240.03 74.0794C240.07 73.9094 240.1 73.6494 240.12 73.3194C240.24 73.3994 240.39 73.4694 240.58 73.5494C240.77 73.6294 240.94 73.6794 241.09 73.7194C241.05 74.1594 240.98 74.5094 240.88 74.7694C240.78 75.0294 240.62 75.2094 240.41 75.3094C240.2 75.4094 239.9 75.4594 239.52 75.4594H236.79C236.33 75.4594 235.97 75.4194 235.71 75.3294C235.45 75.2394 235.27 75.0994 235.16 74.8794C235.05 74.6594 235 74.3494 235 73.9394V67.9594H234.98ZM235.38 72.5794H240.29V73.2994H235.38V72.5794ZM235.42 63.1394H240.81V64.0694H235.42V63.1394ZM235.42 69.2594H240.22V69.9994H235.42V69.2594ZM235.47 70.8994H240.15V71.6394H235.47V70.8994Z" fill="#5780A2"/>
<path d="M247.62 73.1095L248.61 73.7395C248.21 73.9795 247.75 74.2095 247.23 74.4395C246.71 74.6695 246.18 74.8795 245.62 75.0695C245.06 75.2595 244.54 75.4295 244.05 75.5595C243.95 75.4495 243.83 75.3195 243.67 75.1695C243.51 75.0195 243.38 74.8895 243.26 74.7895C243.76 74.6495 244.29 74.4895 244.85 74.3095C245.41 74.1295 245.93 73.9295 246.41 73.7095C246.89 73.4895 247.3 73.2895 247.61 73.0895L247.62 73.1095ZM243.45 66.5795H256.71V67.5395H243.45V66.5795ZM244.17 63.0895H256.05V63.9595H244.17V63.0895ZM245.15 68.3295H255.12V73.1495H245.15V68.3295ZM246.22 69.1595V70.3595H254.01V69.1595H246.22ZM246.22 71.1195V72.3395H254.01V71.1195H246.22ZM246.93 61.9395H248.01V65.0195H252.17V61.9395H253.29V65.8395H246.93V61.9395ZM249.47 66.9295H250.56V72.7595H249.47V66.9295ZM251.56 73.8095L252.3 73.1195C252.85 73.2895 253.4 73.4695 253.96 73.6695C254.52 73.8695 255.04 74.0695 255.55 74.2595C256.05 74.4495 256.48 74.6295 256.85 74.7995L255.89 75.5495C255.56 75.3695 255.16 75.1895 254.7 74.9895C254.24 74.7895 253.74 74.5895 253.2 74.3895C252.66 74.1795 252.12 73.9895 251.57 73.8095H251.56Z" fill="#5780A2"/>
<path d="M265.34 61.9893H266.54C266.54 62.6293 266.52 63.3393 266.49 64.1193C266.46 64.8993 266.38 65.7093 266.26 66.5493C266.14 67.3893 265.95 68.2393 265.68 69.0893C265.41 69.9393 265.04 70.7593 264.56 71.5493C264.08 72.3393 263.48 73.0793 262.74 73.7593C262 74.4393 261.1 75.0193 260.03 75.5193C259.94 75.3693 259.82 75.2093 259.65 75.0393C259.49 74.8693 259.33 74.7193 259.19 74.5993C260.23 74.1493 261.11 73.6093 261.82 72.9793C262.53 72.3493 263.12 71.6593 263.57 70.9093C264.02 70.1593 264.37 69.3893 264.62 68.5893C264.87 67.7893 265.04 66.9993 265.14 66.2093C265.24 65.4193 265.3 64.6593 265.32 63.9493C265.34 63.2293 265.36 62.5793 265.36 61.9893H265.34ZM259.46 66.2093H272.44V67.3493H259.46V66.2093ZM266.64 66.6693C266.97 67.8593 267.41 68.9693 267.96 69.9993C268.51 71.0293 269.17 71.9293 269.97 72.6893C270.76 73.4593 271.66 74.0593 272.68 74.4893C272.59 74.5693 272.5 74.6693 272.39 74.7893C272.29 74.9093 272.19 75.0393 272.09 75.1693C271.99 75.2993 271.91 75.4193 271.85 75.5193C270.79 75.0093 269.85 74.3293 269.04 73.4993C268.23 72.6593 267.54 71.6893 266.97 70.5793C266.4 69.4693 265.93 68.2493 265.55 66.9393L266.64 66.6693Z" fill="#5780A2"/>
<path d="M278.31 62L279.36 62.31C279.05 63.15 278.7 63.97 278.3 64.78C277.9 65.59 277.46 66.35 276.98 67.07C276.5 67.79 276.01 68.42 275.5 68.98C275.46 68.89 275.4 68.78 275.33 68.64C275.26 68.5 275.18 68.36 275.09 68.23C275 68.1 274.93 67.98 274.86 67.89C275.32 67.41 275.76 66.85 276.19 66.22C276.61 65.59 277.01 64.91 277.38 64.2C277.75 63.49 278.06 62.76 278.32 62.01L278.31 62ZM276.84 65.85L277.89 64.8V64.82L277.9 75.53H276.84V65.85ZM279.73 65.4H280.82V73.57H287.59V74.62H279.73V65.4ZM283.23 62.21H284.35V74.09H283.23V62.21ZM286.84 65.35H287.95V75.52H286.84V65.35Z" fill="#5780A2"/>
<path d="M293.79 69.8098L294.75 70.0798C294.36 70.9598 293.87 71.7798 293.28 72.5698C292.7 73.3498 292.09 74.0098 291.47 74.5498C291.4 74.4898 291.32 74.4198 291.21 74.3398C291.11 74.2598 291 74.1798 290.9 74.0998C290.8 74.0198 290.7 73.9598 290.61 73.9098C291.26 73.4198 291.86 72.8098 292.42 72.0998C292.98 71.3798 293.43 70.6198 293.78 69.8298L293.79 69.8098ZM290.94 66.9598H297.96V67.8898H290.94V66.9598ZM291.02 69.3698H297.91V70.3398H291.02V69.3698ZM291.25 63.5198H297.77V64.4498H291.25V63.5198ZM292.21 64.7498L293.15 64.5298C293.3 64.8598 293.43 65.2298 293.55 65.6098C293.67 65.9998 293.74 66.3298 293.77 66.6098L292.78 66.8798C292.75 66.5898 292.68 66.2498 292.57 65.8498C292.46 65.4498 292.34 65.0898 292.2 64.7498H292.21ZM293.52 62.1098L294.61 61.8398C294.78 62.1498 294.94 62.4798 295.1 62.8598C295.26 63.2298 295.38 63.5498 295.45 63.7998L294.3 64.1198C294.24 63.8498 294.14 63.5298 293.98 63.1498C293.83 62.7698 293.67 62.4198 293.52 62.0998V62.1098ZM294.06 67.3898H295.11V75.4898H294.06V67.3898ZM294.32 70.4398L295.04 69.9098C295.37 70.2198 295.71 70.5698 296.04 70.9398C296.37 71.3098 296.68 71.6798 296.96 72.0398C297.24 72.3998 297.47 72.7198 297.64 73.0098L296.89 73.6298C296.72 73.3398 296.5 72.9998 296.22 72.6298C295.94 72.2598 295.63 71.8798 295.3 71.4998C294.97 71.1198 294.64 70.7698 294.32 70.4398ZM295.92 64.5298L296.95 64.7498C296.79 65.1898 296.63 65.6398 296.45 66.0998C296.27 66.5598 296.11 66.9498 295.95 67.2698L295.05 67.0598C295.15 66.8198 295.25 66.5598 295.36 66.2598C295.47 65.9698 295.57 65.6598 295.68 65.3498C295.78 65.0398 295.86 64.7598 295.92 64.5198V64.5298ZM298.56 63.3898H299.59V68.5498C299.59 69.0798 299.57 69.6498 299.54 70.2598C299.51 70.8698 299.43 71.4798 299.33 72.0998C299.23 72.7198 299.06 73.3198 298.86 73.8998C298.65 74.4798 298.37 75.0098 298.02 75.4898C297.96 75.4198 297.88 75.3498 297.77 75.2798C297.66 75.2098 297.55 75.1298 297.44 75.0698C297.33 75.0098 297.23 74.9498 297.14 74.9098C297.58 74.3098 297.9 73.6398 298.1 72.8998C298.3 72.1598 298.42 71.4198 298.48 70.6598C298.54 69.9098 298.57 69.1998 298.57 68.5398V63.3798L298.56 63.3898ZM303.34 62.2198L304.23 63.0498C303.75 63.2298 303.21 63.3898 302.61 63.5398C302.01 63.6898 301.39 63.8198 300.76 63.9398C300.13 64.0598 299.51 64.1598 298.91 64.2298C298.89 64.1098 298.85 63.9698 298.78 63.8098C298.71 63.6498 298.64 63.5098 298.57 63.3898C299.14 63.2998 299.72 63.1998 300.32 63.0698C300.91 62.9498 301.48 62.8098 302.01 62.6598C302.54 62.5098 302.99 62.3698 303.35 62.2198H303.34ZM298.98 66.9598H304.44V67.9898H298.98V66.9598ZM301.7 67.3898H302.78V75.4798H301.7V67.3898Z" fill="#5780A2"/>
<path d="M306.7 68.55L307.3 67.78C307.6 67.88 307.9 68 308.22 68.15C308.54 68.3 308.84 68.45 309.13 68.61C309.42 68.77 309.65 68.93 309.84 69.09L309.24 69.95C309.05 69.8 308.82 69.64 308.53 69.47C308.24 69.3 307.95 69.13 307.63 68.97C307.32 68.81 307.01 68.67 306.7 68.55ZM307.01 62.84H313.19V63.81H307.01V62.84ZM307.08 74.79C307.31 74.47 307.56 74.08 307.83 73.64C308.11 73.2 308.38 72.73 308.66 72.23C308.94 71.73 309.2 71.25 309.45 70.78L310.22 71.43C310 71.86 309.77 72.32 309.51 72.79C309.25 73.26 309 73.73 308.74 74.18C308.48 74.64 308.22 75.06 307.97 75.46L307.08 74.8V74.79ZM307.39 65.74L307.99 64.99C308.28 65.09 308.57 65.21 308.88 65.37C309.19 65.52 309.48 65.68 309.76 65.85C310.03 66.02 310.26 66.17 310.44 66.32L309.81 67.16C309.64 67.01 309.42 66.85 309.15 66.68C308.88 66.51 308.59 66.34 308.28 66.17C307.97 66 307.67 65.86 307.39 65.74ZM309.98 61.96H311.09V64.84H309.98V61.96ZM310.71 66.12H320.11V67.03H310.71V66.12ZM311.27 68.17H318.79V69.04H312.33V75.52H311.27V68.17ZM311.95 70.18H318.72V71.01H311.95V70.18ZM311.95 72.17H318.72V73H311.95V72.17ZM313.8 62.84H320.07V63.81H313.8V62.84ZM314.73 64.87H315.78V75.48H314.73V64.87ZM315.97 61.97H317.08V64.71H315.97V61.97ZM318.42 68.17H319.48V74.43C319.48 74.7 319.45 74.9 319.38 75.04C319.31 75.18 319.18 75.29 319 75.37C318.81 75.45 318.57 75.5 318.27 75.51C317.97 75.52 317.6 75.53 317.16 75.53C317.13 75.4 317.09 75.25 317.03 75.09C316.97 74.92 316.91 74.77 316.84 74.63C317.14 74.63 317.43 74.64 317.68 74.64H318.2C318.29 74.64 318.35 74.61 318.38 74.58C318.41 74.55 318.43 74.5 318.43 74.42V68.16L318.42 68.17ZM317 65.01L317.52 64.38C317.84 64.52 318.19 64.69 318.55 64.9C318.91 65.11 319.2 65.29 319.41 65.46L318.88 66.15C318.67 65.97 318.39 65.77 318.03 65.55C317.67 65.33 317.33 65.15 317 65.01Z" fill="#5780A2"/>
<path d="M323.65 66.05H334.7V66.99H324.71V75.55H323.65V66.05ZM323.74 62.45H324.86V64.13H333.92V62.45H335.07V65.06H323.74V62.45ZM325.51 68.97H333.3V69.81H325.51V68.97ZM326.15 70.58H327.09V73.53H326.15V70.58ZM326.6 67.43L327.47 67.16C327.65 67.39 327.81 67.64 327.97 67.91C328.13 68.18 328.24 68.42 328.31 68.62L327.4 68.91C327.34 68.7 327.23 68.46 327.08 68.18C326.92 67.9 326.77 67.65 326.61 67.42L326.6 67.43ZM326.68 72.67H332.15V73.53H326.68V72.67ZM328.79 61.96H329.93V64.72H328.79V61.96ZM328.86 69.34H329.85V73.12H328.86V69.34ZM331.28 67.12L332.25 67.39C332.08 67.75 331.91 68.12 331.73 68.5C331.55 68.87 331.39 69.2 331.23 69.47L330.37 69.22C330.48 69.02 330.59 68.8 330.7 68.56C330.81 68.31 330.92 68.06 331.02 67.81C331.12 67.55 331.2 67.33 331.27 67.13L331.28 67.12ZM331.69 70.58H332.62V73.53H331.69V70.58ZM334.2 66.05H335.26V74.27C335.26 74.58 335.22 74.83 335.13 74.99C335.05 75.16 334.89 75.28 334.67 75.37C334.44 75.45 334.13 75.5 333.74 75.52C333.35 75.54 332.85 75.55 332.25 75.55C332.23 75.4 332.19 75.23 332.12 75.04C332.05 74.85 331.98 74.68 331.91 74.55C332.35 74.55 332.76 74.57 333.13 74.57C333.5 74.57 333.75 74.57 333.87 74.57C334 74.57 334.08 74.54 334.13 74.5C334.17 74.46 334.2 74.38 334.2 74.26V66.06V66.05Z" fill="#5780A2"/>
<path d="M338.57 67.8497L351.75 65.7297L351.93 66.8697L338.77 68.9597L338.58 67.8497H338.57ZM342.85 62.2197H344.03V72.7997C344.03 73.1097 344.06 73.3397 344.12 73.4997C344.18 73.6597 344.3 73.7697 344.48 73.8297C344.66 73.8897 344.93 73.9197 345.28 73.9197H349.07C349.4 73.9197 349.65 73.8497 349.82 73.6997C349.99 73.5497 350.1 73.2797 350.17 72.8897C350.24 72.4997 350.3 71.9397 350.34 71.2097C350.45 71.2797 350.57 71.3497 350.7 71.4197C350.83 71.4897 350.97 71.5497 351.11 71.6097C351.25 71.6697 351.37 71.7097 351.47 71.7397C351.41 72.5497 351.31 73.1897 351.18 73.6697C351.05 74.1497 350.81 74.4997 350.49 74.7097C350.17 74.9197 349.7 75.0297 349.1 75.0297H345.23C344.62 75.0297 344.14 74.9697 343.79 74.8397C343.44 74.7097 343.19 74.4797 343.05 74.1497C342.91 73.8197 342.84 73.3597 342.84 72.7697V62.2197H342.85Z" fill="#5780A2"/>
<path d="M359.03 73.4496L359.96 74.0496C359.55 74.2596 359.07 74.4596 358.53 74.6496C357.99 74.8396 357.43 75.0096 356.84 75.1696C356.25 75.3196 355.7 75.4396 355.17 75.5296C355.09 75.4296 354.99 75.3096 354.86 75.1496C354.73 74.9996 354.61 74.8696 354.49 74.7696C355.02 74.6796 355.58 74.5696 356.16 74.4196C356.74 74.2796 357.29 74.1196 357.8 73.9496C358.31 73.7796 358.72 73.6096 359.04 73.4396L359.03 73.4496ZM354.8 62.9596H367.39V65.0096H366.34V63.8696H355.81V65.0096H354.81V62.9596H354.8ZM355.02 67.6096C355.71 67.5696 356.55 67.5196 357.54 67.4596C358.53 67.3996 359.55 67.3396 360.59 67.2796V68.0296C359.59 68.1096 358.61 68.1796 357.64 68.2396C356.67 68.2996 355.82 68.3596 355.1 68.4096L355.01 67.5996L355.02 67.6096ZM355.71 64.6596H360.53V65.3696H355.71V64.6596ZM355.89 66.0796H360.32V66.7296H355.89V66.0796ZM356.44 68.8296H365.96V73.5996H356.44V68.8296ZM357.51 69.5296V70.2096H364.83V69.5296H357.51ZM357.51 70.8596V71.5696H364.83V70.8596H357.51ZM357.51 72.2096V72.9196H364.83V72.2096H357.51ZM357.63 64.9396H358.57V67.7296L357.63 67.8196V64.9396ZM360.21 62.1196L361.27 61.8496C361.43 62.0796 361.57 62.3296 361.71 62.5996C361.85 62.8696 361.94 63.1196 362 63.3196L360.88 63.6396C360.82 63.4296 360.73 63.1796 360.6 62.8896C360.47 62.5996 360.34 62.3396 360.22 62.0996L360.21 62.1196ZM362.07 64.0196L362.9 64.1496C362.73 64.4996 362.53 64.8496 362.3 65.1796C362.07 65.5096 361.79 65.8196 361.47 66.1196C361.39 66.0396 361.29 65.9596 361.15 65.8696C361.01 65.7796 360.9 65.7096 360.79 65.6596C361.08 65.4096 361.34 65.1496 361.56 64.8596C361.78 64.5696 361.95 64.2896 362.08 64.0296L362.07 64.0196ZM360.82 66.0296H367.03V66.6896H360.82V66.0296ZM361.31 66.9296H362.14V67.6696H365.71V66.9296H366.58V68.3196H361.31V66.9296ZM362.19 64.7296H366.28V65.3796H361.79L362.19 64.7296ZM362.07 74.0896L362.82 73.4596C363.39 73.5996 363.97 73.7496 364.55 73.9196C365.13 74.0896 365.69 74.2596 366.21 74.4296C366.73 74.5996 367.18 74.7596 367.55 74.9096L366.59 75.5896C366.26 75.4396 365.84 75.2796 365.36 75.1096C364.87 74.9396 364.35 74.7696 363.79 74.5896C363.23 74.4196 362.65 74.2496 362.06 74.0996L362.07 74.0896ZM363.43 64.9996H364.37V67.9496H363.43V64.9996Z" fill="#5780A2"/>
<path d="M373.1 64.94L374.09 65.28C373.8 65.89 373.47 66.49 373.07 67.09C372.67 67.69 372.26 68.24 371.82 68.76C371.38 69.28 370.93 69.74 370.48 70.15C370.44 70.07 370.38 69.97 370.3 69.85C370.22 69.73 370.14 69.6 370.05 69.48C369.96 69.36 369.88 69.26 369.81 69.19C370.45 68.67 371.06 68.03 371.65 67.29C372.24 66.54 372.72 65.76 373.1 64.94ZM372.65 61.97L373.67 62.34C373.43 62.74 373.15 63.15 372.81 63.57C372.48 63.99 372.12 64.38 371.75 64.76C371.38 65.13 371 65.47 370.62 65.76C370.58 65.69 370.52 65.6 370.45 65.5C370.38 65.4 370.3 65.29 370.22 65.19C370.14 65.09 370.07 65 370.01 64.93C370.34 64.67 370.68 64.38 371.02 64.05C371.36 63.72 371.67 63.37 371.96 63.01C372.25 62.65 372.47 62.3 372.64 61.96L372.65 61.97ZM371.78 67.86L372.67 66.96L372.8 67V75.56H371.78V67.86ZM373.52 73.45C374.04 73.39 374.64 73.32 375.31 73.25C375.98 73.18 376.69 73.09 377.43 73C378.18 72.91 378.92 72.82 379.67 72.73L379.7 73.7C378.62 73.84 377.54 73.98 376.48 74.11C375.41 74.25 374.47 74.37 373.65 74.48L373.52 73.45ZM373.85 66.77H379.41V67.76H373.85V66.77ZM373.94 69.88H379.31V70.85H373.94V69.88ZM374.14 63.83H379.14V64.79H374.14V63.83ZM376.09 68.07H377.15V73.49L376.09 73.7V68.08V68.07ZM376.11 61.97H377.16V67.34H376.11V61.97ZM381.25 67.21H382.34V74.19C382.34 74.51 382.3 74.77 382.23 74.94C382.16 75.12 382.01 75.25 381.78 75.34C381.56 75.43 381.27 75.49 380.91 75.51C380.55 75.53 380.1 75.55 379.57 75.55C379.55 75.39 379.51 75.21 379.44 75C379.37 74.79 379.3 74.6 379.23 74.45C379.64 74.45 380.01 74.47 380.33 74.47C380.65 74.47 380.86 74.47 380.97 74.47C381.09 74.47 381.16 74.44 381.2 74.4C381.23 74.36 381.25 74.3 381.25 74.21V67.23V67.21ZM379.68 66.8H383.74V67.8H379.68V66.8ZM379.81 62.84H383.53V63.83H379.81V62.84Z" fill="#5780A2"/>
<path d="M386.08 74.3694V73.5694C387.21 72.5794 388.14 71.6694 388.88 70.8594C389.61 70.0394 390.16 69.2794 390.51 68.5794C390.86 67.8794 391.04 67.2194 391.04 66.5994C391.04 66.1894 390.97 65.8194 390.83 65.4894C390.69 65.1694 390.47 64.9094 390.17 64.7294C389.87 64.5494 389.5 64.4594 389.05 64.4594C388.6 64.4594 388.2 64.5794 387.82 64.8094C387.44 65.0494 387.1 65.3494 386.81 65.7094L386.03 64.9394C386.46 64.4594 386.93 64.0694 387.43 63.7894C387.93 63.4994 388.53 63.3594 389.22 63.3594C389.87 63.3594 390.43 63.4894 390.89 63.7494C391.35 64.0094 391.72 64.3794 391.98 64.8594C392.24 65.3394 392.37 65.8994 392.37 66.5294C392.37 67.2494 392.19 67.9794 391.83 68.7094C391.47 69.4494 390.97 70.1994 390.34 70.9594C389.71 71.7194 388.97 72.4994 388.12 73.2994C388.41 73.2794 388.7 73.2594 389.01 73.2294C389.32 73.2094 389.61 73.1894 389.89 73.1894H392.89V74.3594H386.09L386.08 74.3694Z" fill="#5780A2"/>
<path d="M395.32 67.6797H400.66V68.6497H395.32V67.6797ZM396.02 62.6097H400.3V66.5197H396.02V62.6097ZM396.72 68.0797H397.68C397.58 68.5797 397.48 69.1097 397.36 69.6597C397.25 70.2097 397.14 70.6797 397.03 71.0597H396.04C396.16 70.6497 396.28 70.1697 396.4 69.6097C396.52 69.0597 396.63 68.5497 396.72 68.0797ZM396.82 70.1497H399.48V71.0597H396.59L396.83 70.1497H396.82ZM399.09 70.1497H400.06C400.05 70.3797 400.04 70.5297 400.03 70.6097C399.96 71.5597 399.89 72.3397 399.82 72.9297C399.75 73.5197 399.66 73.9797 399.57 74.2997C399.48 74.6197 399.36 74.8497 399.22 74.9997C399.11 75.1297 398.99 75.2197 398.86 75.2697C398.73 75.3197 398.56 75.3597 398.37 75.3797C398.22 75.3797 398.02 75.3897 397.75 75.3797C397.48 75.3797 397.2 75.3697 396.91 75.3597C396.91 75.2097 396.87 75.0497 396.83 74.8697C396.79 74.6897 396.72 74.5397 396.65 74.4097C396.94 74.4397 397.2 74.4597 397.45 74.4597C397.7 74.4597 397.87 74.4597 397.98 74.4597C398.09 74.4597 398.18 74.4597 398.25 74.4497C398.32 74.4297 398.39 74.3897 398.45 74.3197C398.55 74.2297 398.63 74.0397 398.71 73.7497C398.78 73.4597 398.85 73.0397 398.92 72.4797C398.99 71.9197 399.05 71.1897 399.1 70.2897V70.1297L399.09 70.1497ZM396.88 63.4497V65.6797H399.42V63.4497H396.88ZM401.29 64.8997H402.28V68.6597C402.28 69.1697 402.26 69.7297 402.23 70.3297C402.2 70.9297 402.12 71.5397 402.02 72.1597C401.91 72.7797 401.76 73.3797 401.56 73.9597C401.36 74.5397 401.1 75.0797 400.78 75.5697C400.72 75.5097 400.64 75.4397 400.54 75.3597C400.44 75.2797 400.34 75.2097 400.24 75.1397C400.14 75.0697 400.04 75.0197 399.95 74.9797C400.36 74.3697 400.66 73.6897 400.85 72.9497C401.04 72.2097 401.16 71.4697 401.21 70.7197C401.26 69.9797 401.29 69.2897 401.29 68.6597V64.8997ZM403.46 70.5197H404.4C404.37 71.3097 404.29 72.0197 404.17 72.6497C404.05 73.2797 403.84 73.8397 403.55 74.3197C403.26 74.7997 402.85 75.1997 402.32 75.5397C402.25 75.4197 402.16 75.2897 402.04 75.1397C401.92 74.9897 401.81 74.8797 401.7 74.7997C402.16 74.5297 402.51 74.1997 402.75 73.7897C402.99 73.3797 403.16 72.8997 403.26 72.3597C403.36 71.8097 403.42 71.1997 403.45 70.5197H403.46ZM401.79 64.8997H408.25V65.8097H401.79V64.8997ZM402.59 67.2697L407.02 66.8297L407.11 67.6297L402.7 68.0897L402.6 67.2797L402.59 67.2697ZM404.14 65.8997H405.11V68.3897C405.11 68.5797 405.13 68.7097 405.16 68.7897C405.19 68.8697 405.29 68.9097 405.45 68.9097H407.04C407.17 68.9097 407.32 68.9097 407.5 68.8997C407.68 68.8997 407.83 68.8697 407.94 68.8397C407.94 68.9797 407.96 69.1197 407.98 69.2597C408 69.3997 408.01 69.5397 408.03 69.6697C407.93 69.6997 407.79 69.7197 407.62 69.7297C407.44 69.7297 407.27 69.7397 407.09 69.7397H405.29C404.99 69.7397 404.75 69.6897 404.58 69.5997C404.41 69.5097 404.3 69.3597 404.23 69.1597C404.17 68.9597 404.13 68.6997 404.13 68.3897V65.9097L404.14 65.8997ZM404.21 61.9697H405.26V65.3597H404.21V61.9697ZM404.71 62.9897H408.25V63.8997H404.71V62.9897ZM405.66 70.5197H406.6V73.9397C406.6 73.9397 406.6 74.0397 406.61 74.0797C406.61 74.1197 406.65 74.1597 406.7 74.1797C406.76 74.2297 406.87 74.2497 407.02 74.2497H407.52C407.6 74.2497 407.68 74.2497 407.75 74.2397C407.82 74.2297 407.87 74.2097 407.9 74.1797C408.01 74.1197 408.07 74.0097 408.09 73.8597C408.11 73.7397 408.12 73.5497 408.13 73.2797C408.14 73.0097 408.15 72.7097 408.15 72.3797C408.24 72.4697 408.36 72.5497 408.53 72.6397C408.7 72.7297 408.84 72.7897 408.98 72.8397C408.97 73.1797 408.95 73.5197 408.93 73.8397C408.91 74.1597 408.87 74.3897 408.82 74.5197C408.77 74.6597 408.71 74.7697 408.64 74.8597C408.57 74.9497 408.48 75.0297 408.37 75.0997C408.28 75.1397 408.16 75.1697 408.02 75.1997C407.87 75.2197 407.73 75.2397 407.61 75.2397H406.8C406.64 75.2397 406.49 75.2197 406.33 75.1997C406.17 75.1697 406.04 75.1097 405.93 75.0097C405.82 74.9097 405.75 74.7897 405.71 74.6497C405.67 74.5097 405.65 74.2697 405.65 73.9297V70.5397L405.66 70.5197ZM407.97 64.8997H408.12L408.3 64.8597L408.98 65.0397C408.88 65.4697 408.78 65.9297 408.67 66.3997C408.56 66.8697 408.45 67.2697 408.35 67.5897L407.51 67.3997C407.6 67.0997 407.69 66.7197 407.78 66.2897C407.87 65.8497 407.94 65.4397 407.99 65.0597V64.9097L407.97 64.8997Z" fill="#5780A2"/>
<path d="M234.61 16.2397C234.99 16.0997 235.43 15.9297 235.93 15.7397C236.42 15.5397 236.95 15.3297 237.51 15.0997C238.07 14.8697 238.62 14.6297 239.18 14.3997L239.52 15.7297C238.78 16.0797 238.04 16.4397 237.29 16.7997C236.54 17.1597 235.85 17.4797 235.21 17.7597L234.62 16.2497L234.61 16.2397ZM234.91 10.2197H239.24V11.6297H234.91V10.2197ZM236.46 7.10969H237.86V16.3397H236.46V7.10969ZM238.75 12.5997L246.09 9.48969L246.65 10.7797L239.31 13.9297L238.75 12.5997ZM240.17 8.26969H241.6V17.4297C241.6 17.6897 241.62 17.8897 241.67 18.0197C241.72 18.1597 241.81 18.2497 241.96 18.2897C242.11 18.3397 242.33 18.3597 242.62 18.3597H245.53C245.79 18.3597 245.99 18.3097 246.12 18.2097C246.25 18.1097 246.35 17.9297 246.41 17.6697C246.47 17.4097 246.52 17.0297 246.55 16.5397C246.72 16.6597 246.93 16.7697 247.19 16.8797C247.45 16.9797 247.68 17.0497 247.88 17.0897C247.81 17.7497 247.71 18.2697 247.56 18.6497C247.41 19.0297 247.19 19.2997 246.89 19.4597C246.59 19.6197 246.18 19.6997 245.64 19.6997H242.5C241.9 19.6997 241.43 19.6297 241.09 19.4997C240.74 19.3697 240.5 19.1397 240.37 18.8097C240.23 18.4797 240.17 18.0097 240.17 17.3997V8.25969V8.26969ZM242.97 6.92969H244.38V16.7697H242.97V6.92969ZM245.72 9.86969H245.57L246.09 9.48969L247.22 9.84969L247.16 10.0697C247.13 10.7197 247.09 11.4197 247.03 12.1697C246.97 12.9197 246.9 13.6497 246.82 14.3697C246.74 15.0897 246.64 15.7197 246.52 16.2697L245.3 15.9197C245.36 15.5497 245.41 15.1097 245.45 14.6297C245.5 14.1397 245.54 13.6197 245.57 13.0697C245.6 12.5197 245.63 11.9697 245.65 11.4197C245.67 10.8697 245.69 10.3497 245.71 9.86969H245.72Z" fill="white"/>
<path d="M254.77 16.81L255.78 17.17C255.7 17.6 255.58 18.06 255.44 18.56C255.3 19.05 255.13 19.47 254.92 19.81L253.88 19.38C254.02 19.16 254.15 18.9 254.26 18.61C254.37 18.32 254.47 18.02 254.56 17.7C254.65 17.38 254.72 17.09 254.76 16.82L254.77 16.81ZM254.2 15.26H260.51V16.39H254.2V15.26ZM254.47 13.28H260.32V14.43H254.47V13.28ZM254.48 7.36996H260.32V12.58H254.48V7.36996ZM255.62 8.39996V11.56H259.15V8.39996H255.62ZM255.66 9.02996L256.3 8.84996C256.41 9.17996 256.51 9.52996 256.59 9.90996C256.67 10.29 256.73 10.62 256.74 10.89L256.05 11.1C256.05 10.82 256 10.49 255.92 10.1C255.84 9.70996 255.75 9.35996 255.64 9.02996H255.66ZM256.11 17.18L257.05 17.08C257.12 17.46 257.18 17.88 257.21 18.34C257.24 18.8 257.25 19.19 257.25 19.53L256.27 19.64C256.29 19.3 256.28 18.91 256.26 18.45C256.24 17.99 256.19 17.57 256.12 17.18H256.11ZM256.89 7.88996H257.81V12.1H258.01V15.74H256.69V12.1H256.89V7.88996ZM257.53 17.16L258.43 16.99C258.57 17.35 258.7 17.75 258.81 18.17C258.92 18.59 259 18.97 259.04 19.28L258.09 19.48C258.06 19.16 257.99 18.79 257.89 18.35C257.78 17.92 257.66 17.52 257.53 17.15V17.16ZM258.43 8.81996L259.2 9.09996C259.07 9.44996 258.94 9.80996 258.81 10.18C258.68 10.56 258.55 10.88 258.43 11.14L257.86 10.93C257.93 10.73 258 10.51 258.07 10.26C258.14 10.01 258.22 9.75996 258.28 9.49996C258.35 9.23996 258.4 9.00996 258.43 8.80996V8.81996ZM258.95 17.13L259.86 16.81C260.07 17.15 260.26 17.52 260.45 17.93C260.64 18.34 260.77 18.7 260.84 19.02L259.87 19.38C259.8 19.07 259.68 18.71 259.51 18.28C259.33 17.86 259.15 17.47 258.95 17.13ZM260.88 13.56H266.55V19.93H265.12V14.92H262.25V19.99H260.88V13.56ZM261.59 18.04H265.79V19.41H261.59V18.04ZM262.8 6.95996H264.26V13.95H262.8V6.95996ZM263.67 9.87996H267.06V11.27H263.67V9.87996Z" fill="white"/>
<path d="M219.04 25.0798H218.99L213.34 15.4698C211.75 12.3198 210.13 9.36983 211.48 5.77983C213.86 -0.540172 222.54 -1.52017 226.31 4.08983C228.58 7.45983 227.79 10.4798 226.01 13.7998L219.04 25.0798Z" fill="#E86174"/>
<path d="M218.93 4.68981C215.88 4.95981 214.37 8.62981 216.35 10.9798C218.18 13.1498 221.69 12.6298 222.81 10.0298C223.93 7.42981 221.83 4.41981 218.93 4.67981V4.68981Z" fill="white"/>
<path d="M274.26 97.8701H225.99C225.98 99.9701 225.63 103.39 223.56 104.09C223.56 104.09 227.69 104.31 228.02 110.03C228.18 112.83 228.25 115.06 228.34 117.77H274.26V97.8701Z" fill="#5780A2"/>
<path d="M299.03 98.71L300.88 99.99C300.36 100.72 299.74 101.45 299.02 102.18C298.3 102.91 297.52 103.62 296.68 104.3C295.85 104.98 294.99 105.61 294.12 106.19C293.25 106.77 292.39 107.27 291.55 107.67C291.37 107.36 291.13 107.01 290.84 106.62C290.55 106.23 290.27 105.9 289.99 105.63C290.82 105.29 291.67 104.87 292.54 104.36C293.41 103.85 294.25 103.28 295.07 102.66C295.89 102.04 296.63 101.39 297.3 100.71C297.97 100.03 298.55 99.37 299.03 98.71ZM291.14 115.09H309.14V117.34H291.14V115.09ZM293.22 110.33H306.86V112.52H293.22V110.33ZM294.15 98.71H301.2V101.05H294.15V98.71ZM294.23 105.68H305.83V107.91H294.23V105.68ZM298.63 98.71H301.41C301.86 99.38 302.4 100.04 303.03 100.69C303.66 101.34 304.36 101.95 305.13 102.54C305.9 103.13 306.72 103.67 307.57 104.15C308.43 104.63 309.3 105.04 310.2 105.36C310.03 105.54 309.84 105.77 309.62 106.04C309.4 106.31 309.19 106.59 308.99 106.88C308.79 107.17 308.62 107.43 308.5 107.67C307.28 107.09 306.1 106.4 304.95 105.58C303.81 104.76 302.75 103.87 301.79 102.93C300.83 101.98 299.99 101.04 299.27 100.1H298.62V98.71H298.63ZM298.67 106.67H301.32V116.33H298.67V106.67Z" fill="#003E7E"/>
<path d="M312.73 105.72L314.1 103.8C314.52 103.95 314.96 104.14 315.43 104.35C315.89 104.56 316.33 104.79 316.75 105.03C317.16 105.28 317.5 105.51 317.77 105.74L316.32 107.84C316.07 107.6 315.74 107.35 315.34 107.09C314.94 106.83 314.51 106.58 314.06 106.34C313.6 106.1 313.17 105.89 312.74 105.71L312.73 105.72ZM313.26 116.1C313.58 115.55 313.94 114.91 314.33 114.17C314.72 113.43 315.12 112.65 315.53 111.81C315.94 110.98 316.31 110.14 316.65 109.32L318.65 110.84C318.34 111.6 318.01 112.37 317.66 113.14C317.31 113.92 316.95 114.68 316.6 115.43C316.25 116.18 315.88 116.9 315.52 117.59L313.27 116.1H313.26ZM313.83 100.04L315.24 98.1501C315.65 98.3001 316.09 98.5001 316.56 98.7301C317.03 98.9601 317.47 99.2001 317.89 99.4601C318.3 99.7101 318.64 99.9601 318.91 100.2L317.44 102.28C317.2 102.03 316.88 101.77 316.47 101.5C316.06 101.23 315.63 100.97 315.16 100.7C314.7 100.43 314.26 100.22 313.83 100.05V100.04ZM321.57 105.57L323.74 106.29C323.4 107.08 323 107.85 322.53 108.61C322.06 109.37 321.54 110.07 320.98 110.7C320.42 111.34 319.83 111.88 319.21 112.33C319.08 112.13 318.92 111.92 318.72 111.68C318.52 111.44 318.31 111.21 318.1 110.99C317.89 110.77 317.69 110.58 317.49 110.44C318.05 110.09 318.59 109.65 319.11 109.13C319.63 108.61 320.1 108.04 320.53 107.43C320.96 106.81 321.31 106.2 321.57 105.58V105.57ZM317.98 104.1H332.61V106.37H317.98V104.1ZM318.8 100.25H331.98V102.5H318.8V100.25ZM321.11 108.04H323.42V114.61C323.42 115 323.5 115.26 323.67 115.37C323.84 115.48 324.22 115.54 324.83 115.54H328.49C328.83 115.54 329.08 115.49 329.24 115.38C329.4 115.27 329.52 115.07 329.59 114.76C329.66 114.45 329.72 113.99 329.76 113.37C330.03 113.55 330.37 113.73 330.79 113.9C331.21 114.07 331.58 114.19 331.91 114.26C331.81 115.16 331.65 115.86 331.44 116.35C331.22 116.85 330.9 117.2 330.46 117.4C330.02 117.6 329.44 117.71 328.69 117.71H324.61C323.71 117.71 323.01 117.62 322.49 117.45C321.98 117.27 321.62 116.96 321.42 116.51C321.22 116.06 321.11 115.44 321.11 114.64V108.05V108.04ZM321.41 98.0801H323.85V105.7H321.41V98.0801ZM322.21 108.04H329.07V113.18H322.21V111.29H326.82V109.92H322.21V108.05V108.04ZM326.77 98.0801H329.25V105.72H326.77V98.0801ZM329 105.51C329.27 106.09 329.61 106.66 330.02 107.25C330.43 107.83 330.9 108.37 331.42 108.85C331.94 109.33 332.47 109.74 333 110.06C332.82 110.2 332.61 110.39 332.38 110.62C332.15 110.85 331.93 111.1 331.73 111.36C331.53 111.62 331.36 111.85 331.24 112.04C330.64 111.62 330.06 111.1 329.52 110.48C328.98 109.86 328.48 109.19 328.04 108.46C327.59 107.73 327.21 106.99 326.88 106.23L329.01 105.51H329Z" fill="#003E7E"/>
<path d="M335.7 100.92H355.02V103.4H335.7V100.92ZM337.49 105.74H351.36V108.22H340.04V115.65H337.49V105.74ZM343.11 98.6101L345.61 97.8301C345.89 98.3301 346.19 98.8901 346.5 99.5001C346.82 100.11 347.05 100.63 347.21 101.05L344.56 101.93C344.48 101.65 344.35 101.32 344.19 100.93C344.03 100.54 343.85 100.14 343.66 99.7301C343.47 99.3201 343.28 98.9401 343.1 98.6001L343.11 98.6101ZM343.93 102.65H346.56V117.72H343.93V102.65ZM350.77 105.74H353.4V112.9C353.4 113.52 353.32 114.01 353.16 114.37C353 114.74 352.7 115.02 352.27 115.23C351.82 115.41 351.29 115.53 350.68 115.58C350.07 115.63 349.35 115.65 348.52 115.65C348.46 115.27 348.35 114.85 348.18 114.38C348.01 113.91 347.84 113.51 347.68 113.17C348.03 113.18 348.39 113.19 348.74 113.2C349.1 113.2 349.42 113.21 349.71 113.21H350.31C350.48 113.21 350.6 113.18 350.67 113.13C350.74 113.07 350.77 112.98 350.77 112.86V105.75V105.74Z" fill="#003E7E"/>
<path d="M359.76 117.951C359.7 117.731 359.61 117.471 359.49 117.191C359.36 116.911 359.22 116.641 359.07 116.371C358.92 116.101 358.77 115.891 358.63 115.721C358.88 115.571 359.13 115.341 359.38 115.051C359.63 114.761 359.75 114.371 359.75 113.891V99.0305H362.38V115.641C362.03 115.841 361.73 116.021 361.48 116.181C361.23 116.341 360.97 116.521 360.7 116.731C360.43 116.931 360.21 117.141 360.04 117.351C359.86 117.561 359.78 117.761 359.78 117.961L359.76 117.951ZM359.76 117.951L359.57 115.781L360.73 114.961L367.63 113.381C367.64 113.601 367.66 113.871 367.68 114.171C367.7 114.471 367.73 114.771 367.77 115.051C367.81 115.331 367.85 115.581 367.9 115.781C366.61 116.091 365.52 116.351 364.64 116.571C363.76 116.791 363.03 116.971 362.45 117.121C361.87 117.271 361.41 117.391 361.07 117.491C360.73 117.591 360.46 117.671 360.26 117.741C360.06 117.811 359.9 117.881 359.76 117.951ZM361.08 99.0305H375.14V105.911H361.08V103.571H372.57V101.361H361.08V99.0205V99.0305ZM361.12 108.291H376.63V110.651H361.12V108.291ZM366.98 105.511H369.59C369.66 106.771 369.85 107.981 370.15 109.131C370.45 110.281 370.82 111.311 371.25 112.201C371.68 113.091 372.15 113.801 372.64 114.321C373.13 114.831 373.6 115.091 374.05 115.091C374.32 115.091 374.51 114.861 374.64 114.381C374.77 113.911 374.86 113.141 374.91 112.071C375.19 112.321 375.54 112.561 375.95 112.801C376.36 113.031 376.75 113.201 377.1 113.291C376.97 114.461 376.78 115.351 376.52 115.971C376.26 116.591 375.92 117.021 375.5 117.241C375.08 117.461 374.55 117.581 373.92 117.581C372.99 117.581 372.13 117.261 371.33 116.611C370.53 115.961 369.83 115.081 369.21 113.961C368.6 112.841 368.1 111.551 367.72 110.101C367.33 108.651 367.08 107.111 366.97 105.501L366.98 105.511Z" fill="#003E7E"/>
<path d="M234.81 112.41C235.41 112.35 236.09 112.27 236.87 112.2C237.64 112.13 238.46 112.04 239.32 111.94C240.18 111.84 241.03 111.75 241.88 111.65L241.91 112.95C241.1 113.05 240.28 113.16 239.45 113.26C238.62 113.36 237.83 113.46 237.07 113.55C236.31 113.64 235.63 113.72 235.01 113.8L234.81 112.41ZM234.85 104.29H241.88V105.54H234.85V104.29ZM234.92 102.36L235.83 101.76C236.07 102.01 236.31 102.29 236.55 102.6C236.79 102.91 236.96 103.18 237.07 103.43L236.1 104.1C236 103.86 235.83 103.57 235.61 103.25C235.39 102.93 235.15 102.63 234.91 102.37L234.92 102.36ZM235.27 107.37H241.49V108.6H235.27V107.37ZM235.57 109.67H241.27V110.89H235.57V109.67ZM235.93 105.93L236.97 105.37C237.18 105.59 237.38 105.85 237.59 106.13C237.8 106.41 237.94 106.67 238.04 106.89L236.93 107.51C236.86 107.29 236.72 107.03 236.52 106.73C236.32 106.44 236.13 106.17 235.93 105.92V105.93ZM236.81 101.3H238V104.7H236.81V101.3ZM237.69 107.75H239.09V112.82H237.69V107.75ZM239.65 105.44L240.95 105.89C240.75 106.25 240.56 106.62 240.36 106.99C240.16 107.36 239.98 107.67 239.8 107.93L238.71 107.52C238.81 107.32 238.92 107.1 239.05 106.86C239.17 106.62 239.29 106.37 239.39 106.12C239.5 105.87 239.58 105.64 239.65 105.43V105.44ZM238.76 101.3H239.96V104.7H238.76V101.3ZM240.89 101.8L242.07 102.46C241.79 102.76 241.51 103.06 241.24 103.36C240.97 103.66 240.71 103.92 240.48 104.14L239.58 103.58C239.72 103.42 239.87 103.24 240.04 103.03C240.21 102.82 240.36 102.61 240.52 102.39C240.68 102.17 240.8 101.97 240.91 101.8H240.89ZM241.9 104.9H247.63V106.3H241.9V104.9ZM242.12 107.6L243.37 107.18C243.56 107.52 243.73 107.87 243.89 108.24C244.05 108.61 244.19 108.98 244.3 109.34C244.41 109.7 244.49 110.02 244.53 110.31L243.2 110.79C243.16 110.5 243.09 110.17 242.98 109.81C242.87 109.45 242.75 109.07 242.6 108.68C242.45 108.29 242.29 107.93 242.12 107.6ZM245.02 101.31H246.48V112.62C246.48 113.02 246.43 113.33 246.34 113.55C246.25 113.77 246.07 113.93 245.82 114.05C245.59 114.17 245.28 114.25 244.91 114.29C244.54 114.33 244.07 114.35 243.51 114.35C243.49 114.22 243.45 114.07 243.4 113.89C243.34 113.72 243.28 113.54 243.21 113.37C243.14 113.2 243.07 113.05 242.99 112.91C243.37 112.91 243.73 112.93 244.05 112.93C244.37 112.93 244.59 112.93 244.7 112.93C244.82 112.93 244.91 112.91 244.95 112.87C245 112.83 245.02 112.75 245.02 112.62V101.31Z" fill="white"/>
<path d="M258.04 101.229L259.61 101.549C259.07 102.309 258.44 103.039 257.71 103.749C256.99 104.459 256.13 105.119 255.13 105.719C255.06 105.599 254.97 105.469 254.86 105.329C254.74 105.189 254.62 105.069 254.5 104.949C254.37 104.829 254.25 104.729 254.14 104.659C254.75 104.329 255.3 103.979 255.8 103.589C256.3 103.199 256.74 102.809 257.12 102.399C257.5 101.989 257.81 101.599 258.05 101.229H258.04ZM260.73 109.839L261.78 110.399C261.38 110.749 260.91 111.099 260.38 111.419C259.85 111.749 259.28 112.049 258.69 112.329C258.09 112.609 257.48 112.859 256.86 113.089C256.24 113.309 255.64 113.509 255.06 113.659C254.97 113.489 254.84 113.299 254.67 113.079C254.51 112.859 254.36 112.689 254.22 112.559C254.8 112.439 255.39 112.279 256 112.089C256.61 111.899 257.21 111.679 257.81 111.449C258.4 111.209 258.95 110.959 259.45 110.679C259.95 110.409 260.38 110.129 260.73 109.849V109.839ZM260.01 108.449L261.02 108.969C260.67 109.239 260.27 109.499 259.81 109.749C259.35 109.999 258.86 110.239 258.35 110.449C257.84 110.659 257.31 110.859 256.78 111.029C256.25 111.199 255.73 111.339 255.24 111.459C255.15 111.299 255.02 111.119 254.87 110.919C254.72 110.719 254.57 110.549 254.43 110.409C254.92 110.329 255.44 110.219 255.96 110.079C256.48 109.939 257 109.789 257.51 109.619C258.01 109.449 258.48 109.259 258.91 109.059C259.34 108.859 259.71 108.659 260.02 108.449H260.01ZM259.83 106.859L260.77 107.389C260.44 107.609 260.07 107.829 259.64 108.029C259.21 108.239 258.76 108.429 258.27 108.619C257.79 108.809 257.31 108.979 256.83 109.129C256.35 109.279 255.89 109.399 255.46 109.489C255.37 109.349 255.25 109.179 255.1 108.979C254.95 108.779 254.81 108.609 254.68 108.479C255.26 108.379 255.87 108.239 256.52 108.069C257.17 107.899 257.79 107.709 258.37 107.499C258.95 107.289 259.44 107.069 259.83 106.839V106.859ZM255.7 104.169H265.5V107.539H255.7V104.169ZM257.11 105.259V106.439H264.01V105.259H257.11ZM257.91 102.179H262.03V103.309H257.91V102.179ZM258.27 107.989L259.26 107.249C260.03 107.669 260.66 108.129 261.15 108.639C261.64 109.139 262.01 109.659 262.25 110.189C262.49 110.719 262.62 111.219 262.64 111.699C262.66 112.179 262.59 112.619 262.41 112.999C262.23 113.379 261.97 113.679 261.63 113.889C261.37 114.069 261.12 114.189 260.87 114.249C260.63 114.309 260.33 114.339 259.99 114.339C259.82 114.339 259.63 114.339 259.42 114.339C259.21 114.339 258.99 114.329 258.77 114.319C258.77 114.109 258.72 113.889 258.65 113.629C258.58 113.369 258.48 113.149 258.35 112.959C258.61 112.989 258.86 112.999 259.11 113.009C259.35 113.009 259.56 113.009 259.74 113.009C259.93 113.009 260.1 112.999 260.26 112.969C260.42 112.939 260.56 112.879 260.69 112.789C260.94 112.629 261.1 112.379 261.17 112.029C261.23 111.679 261.19 111.279 261.02 110.829C260.86 110.369 260.55 109.899 260.11 109.399C259.67 108.909 259.05 108.439 258.27 107.999V107.989ZM259.77 104.639H261.11V106.849H259.77V104.639ZM261.44 102.179H261.78L262.02 102.109L263.04 102.779C262.87 103.039 262.68 103.319 262.46 103.619C262.24 103.919 262.01 104.199 261.77 104.469C261.53 104.739 261.3 104.979 261.08 105.179C260.95 105.069 260.78 104.939 260.56 104.799C260.34 104.659 260.16 104.549 260 104.459C260.19 104.269 260.38 104.059 260.57 103.819C260.76 103.579 260.93 103.339 261.09 103.089C261.24 102.839 261.36 102.619 261.45 102.449V102.169L261.44 102.179ZM264.69 107.629L265.91 108.549C265.49 108.769 265.05 108.989 264.58 109.199C264.11 109.409 263.65 109.609 263.19 109.789C262.73 109.979 262.3 110.139 261.9 110.269L260.95 109.429C261.34 109.289 261.77 109.119 262.22 108.909C262.68 108.699 263.12 108.489 263.56 108.259C263.99 108.029 264.37 107.819 264.7 107.619L264.69 107.629ZM263.69 108.799C263.85 109.239 264.08 109.699 264.38 110.169C264.68 110.649 265.05 111.089 265.49 111.509C265.93 111.929 266.44 112.259 267.02 112.509C266.92 112.599 266.8 112.719 266.67 112.869C266.54 113.019 266.42 113.179 266.3 113.339C266.18 113.499 266.09 113.649 266.03 113.799C265.43 113.479 264.9 113.069 264.44 112.569C263.98 112.069 263.59 111.539 263.28 110.969C262.97 110.409 262.72 109.869 262.53 109.369L263.69 108.799Z" fill="white"/>
<path d="M218.89 95.5899C215.5 95.8899 213.83 99.9699 216.03 102.58C218.06 104.99 221.96 104.41 223.2 101.53C224.44 98.6499 222.12 95.2999 218.89 95.5899Z" fill="#E86174"/>
<path d="M218.16 105.11H220.52C223.51 105.11 225.93 107.53 225.93 110.52V117.78H212.76V110.52C212.76 107.53 215.18 105.11 218.17 105.11H218.16Z" fill="#E86174"/>
<path d="M211.67 127.74H409.24" stroke="#003E7E" stroke-miterlimit="10"/>
<path d="M219.54 138.899L222.97 139.559C222.3 140.719 221.54 141.879 220.68 143.019C219.83 144.159 218.87 145.269 217.81 146.349C216.75 147.419 215.58 148.439 214.3 149.389C214.14 149.139 213.93 148.869 213.68 148.569C213.42 148.269 213.15 147.979 212.86 147.699C212.57 147.419 212.3 147.199 212.05 147.039C213.23 146.249 214.3 145.389 215.25 144.459C216.2 143.539 217.04 142.589 217.76 141.629C218.48 140.669 219.07 139.759 219.53 138.899H219.54ZM223.24 147.509H226.6C226.48 148.919 226.3 150.279 226.07 151.609C225.84 152.929 225.48 154.189 225 155.389C224.51 156.589 223.84 157.699 222.97 158.729C222.1 159.759 220.96 160.689 219.55 161.519C218.14 162.349 216.4 163.049 214.32 163.629C214.16 163.219 213.91 162.759 213.57 162.239C213.23 161.719 212.88 161.289 212.53 160.959C214.47 160.479 216.07 159.899 217.34 159.199C218.61 158.499 219.62 157.729 220.37 156.859C221.12 155.989 221.68 155.069 222.06 154.069C222.44 153.069 222.71 152.019 222.88 150.909C223.05 149.799 223.17 148.659 223.26 147.499L223.24 147.509ZM215.13 145.639H234.95V154.649H215.13V145.639ZM218.33 148.439V151.849H231.57V148.439H218.33ZM219.91 140.749H227.78V143.339H218.35L219.91 140.749ZM226.83 140.749H227.54L228.04 140.619L230.26 142.049C229.91 142.629 229.49 143.269 229.02 143.949C228.54 144.639 228.05 145.299 227.53 145.949C227.01 146.589 226.5 147.159 226.01 147.649C225.69 147.399 225.31 147.129 224.85 146.829C224.39 146.529 223.98 146.279 223.61 146.089C224.03 145.649 224.46 145.139 224.88 144.569C225.3 143.999 225.69 143.419 226.04 142.849C226.39 142.279 226.66 141.779 226.83 141.359V140.749ZM225.72 153.459H229.02V159.539C229.02 159.979 229.09 160.249 229.22 160.359C229.35 160.469 229.67 160.519 230.18 160.519H232.98C233.3 160.519 233.53 160.439 233.69 160.279C233.85 160.119 233.96 159.799 234.03 159.319C234.1 158.839 234.15 158.109 234.19 157.139C234.4 157.299 234.68 157.459 235.02 157.619C235.36 157.779 235.72 157.919 236.08 158.039C236.44 158.159 236.77 158.269 237.07 158.359C236.96 159.659 236.78 160.679 236.51 161.399C236.24 162.119 235.86 162.629 235.35 162.919C234.84 163.209 234.14 163.359 233.26 163.359H229.67C228.61 163.359 227.8 163.249 227.23 163.019C226.66 162.789 226.26 162.399 226.04 161.839C225.82 161.289 225.71 160.529 225.71 159.579V153.479L225.72 153.459Z" fill="#E86174"/>
<path d="M252.04 138.999H254.92V144.469C254.92 145.399 254.8 146.28 254.58 147.1C254.35 147.92 253.92 148.659 253.29 149.329C252.66 149.999 251.74 150.58 250.54 151.07C249.34 151.56 247.77 151.959 245.81 152.259C245.72 152.029 245.59 151.759 245.41 151.449C245.23 151.139 245.05 150.839 244.85 150.539C244.65 150.239 244.47 149.989 244.3 149.799C245.99 149.589 247.35 149.309 248.37 148.949C249.39 148.599 250.17 148.189 250.69 147.729C251.22 147.269 251.58 146.77 251.76 146.21C251.94 145.65 252.04 145.049 252.04 144.399V138.979V138.999ZM252.09 159.399L254.92 160.689C254.2 161.109 253.36 161.529 252.41 161.929C251.46 162.339 250.48 162.699 249.49 163.039C248.49 163.369 247.54 163.659 246.62 163.889C246.46 163.679 246.24 163.429 245.96 163.139C245.68 162.849 245.4 162.559 245.11 162.279C244.83 161.999 244.56 161.769 244.32 161.589C245.27 161.449 246.23 161.259 247.19 161.039C248.15 160.809 249.05 160.56 249.9 160.27C250.75 159.99 251.48 159.699 252.09 159.399ZM247.89 143.1H263.64V142.039H245.99V140.189H266.49V144.949H247.89V143.1ZM246.99 143.1H249.76C249.65 143.93 249.53 144.78 249.39 145.66C249.25 146.54 249.11 147.31 248.97 147.96H246.2C246.36 147.29 246.51 146.509 246.65 145.619C246.79 144.729 246.91 143.89 246.99 143.1ZM247.39 146.089H266.26V147.969H246.84L247.39 146.089ZM247.76 149.6H265.49V159.799H247.76V149.6ZM250.85 151.399V152.46H262.26V151.399H250.85ZM250.85 154.139V155.199H262.26V154.139H250.85ZM250.85 156.889V157.999H262.26V156.889H250.85ZM257.88 138.999H260.87V149.669H257.88V138.999ZM258.46 160.799L260.23 158.999C261.2 159.299 262.18 159.629 263.18 159.979C264.17 160.329 265.12 160.679 266.01 161.009C266.9 161.339 267.67 161.66 268.32 161.96L266.02 163.859C265.44 163.559 264.74 163.23 263.92 162.88C263.1 162.53 262.22 162.169 261.29 161.799C260.36 161.429 259.41 161.099 258.46 160.799ZM265.22 146.089H268.18C268.16 146.499 268.15 146.779 268.15 146.939C268.1 147.769 268.02 148.42 267.93 148.91C267.83 149.39 267.67 149.759 267.44 150.009C267.25 150.199 267.01 150.35 266.74 150.46C266.47 150.57 266.19 150.629 265.91 150.639C265.65 150.659 265.29 150.669 264.84 150.669C264.39 150.669 263.91 150.669 263.4 150.639C263.38 150.359 263.32 150.039 263.22 149.679C263.11 149.319 262.99 149.02 262.85 148.77C263.18 148.79 263.48 148.81 263.74 148.82C264 148.84 264.19 148.85 264.33 148.85C264.45 148.85 264.56 148.85 264.65 148.82C264.74 148.8 264.82 148.75 264.89 148.66C264.98 148.54 265.05 148.309 265.1 147.969C265.15 147.639 265.2 147.12 265.23 146.41V146.089H265.22Z" fill="#E86174"/>
<path d="M287.13 145.61L290.04 146.43C289.19 147.95 288.12 149.31 286.83 150.51C285.54 151.71 284.09 152.76 282.48 153.63C280.88 154.5 279.17 155.24 277.35 155.84C277.24 155.63 277.09 155.36 276.89 155.03C276.69 154.7 276.47 154.38 276.24 154.07C276.01 153.75 275.81 153.51 275.63 153.33C277.34 152.87 278.94 152.29 280.43 151.57C281.92 150.86 283.24 150 284.39 148.99C285.54 147.98 286.45 146.86 287.12 145.61H287.13ZM277.93 150.6C277.86 150.41 277.77 150.16 277.65 149.86C277.53 149.56 277.42 149.25 277.29 148.94C277.17 148.62 277.04 148.35 276.92 148.12C277.08 148.09 277.24 148.01 277.41 147.88C277.58 147.76 277.73 147.61 277.87 147.43C277.98 147.31 278.12 147.11 278.31 146.85C278.5 146.59 278.7 146.26 278.92 145.89C279.14 145.52 279.33 145.11 279.49 144.69L282.29 145.83C281.92 146.43 281.48 147.04 280.96 147.68C280.44 148.31 279.93 148.84 279.44 149.27V149.32C279.14 149.5 278.89 149.65 278.69 149.78C278.49 149.91 278.31 150.05 278.16 150.2C278.01 150.35 277.94 150.49 277.94 150.61L277.93 150.6ZM277.93 150.6L277.88 148.7L279.07 147.96L283.24 147.8C283.4 148.13 283.6 148.5 283.85 148.91C284.1 149.32 284.29 149.66 284.43 149.94C283.16 150.01 282.14 150.08 281.35 150.14C280.57 150.2 279.95 150.26 279.5 150.31C279.05 150.36 278.71 150.41 278.48 150.46C278.25 150.5 278.07 150.55 277.92 150.61L277.93 150.6ZM279.62 144.9C279.58 144.71 279.51 144.46 279.4 144.15C279.29 143.84 279.17 143.52 279.06 143.19C278.95 142.86 278.84 142.56 278.73 142.32C279.24 142.23 279.83 142.02 280.5 141.69C280.76 141.58 281.16 141.39 281.68 141.11C282.2 140.83 282.76 140.49 283.37 140.11C283.98 139.72 284.55 139.3 285.07 138.84L287.84 140.19C286.87 140.88 285.81 141.52 284.67 142.13C283.52 142.74 282.41 143.24 281.34 143.65V143.7C280.99 143.84 280.7 143.98 280.48 144.11C280.26 144.24 280.06 144.37 279.89 144.51C279.71 144.64 279.63 144.78 279.63 144.92L279.62 144.9ZM294.31 156.26L296.87 157.5C295.71 158.73 294.28 159.76 292.58 160.59C290.88 161.42 289 162.09 286.95 162.61C284.9 163.13 282.73 163.54 280.44 163.84C280.32 163.47 280.12 163.04 279.86 162.56C279.6 162.07 279.32 161.66 279.04 161.3C281.15 161.09 283.19 160.78 285.14 160.38C287.1 159.97 288.87 159.44 290.45 158.77C292.04 158.1 293.32 157.26 294.31 156.26ZM279.62 144.9L279.59 143.02L281.31 142.2L294.63 141.86C294.81 142.23 295.01 142.62 295.25 143.04C295.49 143.45 295.68 143.78 295.82 144.03C293.14 144.14 290.9 144.22 289.08 144.29C287.27 144.36 285.79 144.41 284.64 144.45C283.49 144.49 282.6 144.53 281.96 144.57C281.32 144.61 280.82 144.66 280.48 144.7C280.14 144.74 279.85 144.81 279.62 144.9ZM291.43 153.64L293.78 154.83C292.83 155.62 291.71 156.34 290.41 156.97C289.12 157.6 287.74 158.15 286.29 158.62C284.84 159.09 283.38 159.48 281.92 159.8C281.76 159.47 281.53 159.09 281.23 158.66C280.93 158.24 280.64 157.87 280.36 157.55C281.7 157.32 283.07 157.02 284.48 156.65C285.89 156.28 287.2 155.84 288.42 155.33C289.64 154.82 290.64 154.26 291.43 153.64ZM288.61 151.21L290.86 152.37C290.12 152.9 289.28 153.4 288.34 153.86C287.4 154.33 286.42 154.75 285.42 155.12C284.42 155.49 283.45 155.81 282.51 156.07C282.32 155.79 282.06 155.47 281.76 155.12C281.45 154.77 281.14 154.46 280.82 154.2C281.7 153.99 282.63 153.73 283.61 153.42C284.59 153.11 285.52 152.77 286.41 152.39C287.3 152.01 288.04 151.62 288.62 151.21H288.61ZM282.08 146.69L284.33 146.06C284.66 146.62 284.99 147.24 285.29 147.92C285.6 148.6 285.81 149.18 285.94 149.68L283.61 150.39C283.5 149.9 283.31 149.3 283.02 148.61C282.73 147.92 282.42 147.28 282.08 146.69ZM289.24 146.96C289.82 147.65 290.53 148.31 291.38 148.94C292.23 149.57 293.16 150.16 294.19 150.71C295.22 151.26 296.32 151.74 297.48 152.16C298.64 152.58 299.81 152.93 300.99 153.19C300.76 153.38 300.52 153.63 300.26 153.92C300 154.21 299.77 154.51 299.55 154.82C299.33 155.13 299.14 155.4 298.98 155.63C297.76 155.28 296.57 154.85 295.4 154.35C294.23 153.85 293.11 153.27 292.03 152.61C290.96 151.95 289.96 151.24 289.06 150.47C288.16 149.7 287.34 148.89 286.62 148.03L289.24 146.97V146.96ZM289.66 140.43L292.04 139.32C292.66 139.74 293.31 140.23 294 140.77C294.69 141.32 295.34 141.87 295.97 142.42C296.6 142.98 297.11 143.48 297.52 143.94L294.98 145.18C294.63 144.74 294.15 144.24 293.55 143.67C292.95 143.11 292.32 142.53 291.65 141.95C290.98 141.37 290.32 140.86 289.67 140.42L289.66 140.43ZM291.28 150.44C291.21 150.26 291.12 150.03 291.02 149.73C290.91 149.43 290.8 149.13 290.66 148.82C290.53 148.51 290.41 148.25 290.3 148.04C290.44 147.99 290.59 147.9 290.75 147.78C290.91 147.66 291.05 147.52 291.17 147.36C291.26 147.25 291.38 147.07 291.54 146.8C291.7 146.53 291.87 146.22 292.04 145.86C292.22 145.5 292.36 145.12 292.46 144.71L295.26 145.79C294.96 146.37 294.58 146.97 294.11 147.59C293.64 148.21 293.2 148.72 292.78 149.12V149.17C292.46 149.35 292.21 149.5 292.01 149.63C291.81 149.76 291.64 149.9 291.5 150.04C291.35 150.18 291.28 150.31 291.28 150.44ZM291.28 150.44L291.23 148.56L292.42 147.82L296.75 147.61C296.91 147.94 297.11 148.31 297.34 148.72C297.58 149.13 297.77 149.48 297.91 149.78C296.62 149.85 295.58 149.92 294.77 149.98C293.96 150.04 293.33 150.1 292.87 150.15C292.41 150.2 292.07 150.26 291.84 150.31C291.61 150.36 291.43 150.41 291.29 150.44H291.28ZM295.42 146.56L297.61 145.69C298.14 146.31 298.65 147 299.14 147.76C299.63 148.53 299.99 149.21 300.2 149.81L297.85 150.81C297.66 150.23 297.33 149.54 296.87 148.75C296.41 147.96 295.93 147.23 295.42 146.56Z" fill="#E86174"/>
<path d="M311.09 139.4H314.21C314.21 142.01 314.17 144.5 314.09 146.86C314.01 149.23 313.83 151.45 313.55 153.53C313.27 155.61 312.81 157.52 312.16 159.25C311.52 160.99 310.62 162.51 309.48 163.83C309.32 163.57 309.11 163.28 308.85 162.98C308.59 162.68 308.3 162.4 308 162.13C307.7 161.87 307.42 161.65 307.15 161.5C307.98 160.57 308.64 159.51 309.15 158.34C309.65 157.17 310.04 155.89 310.31 154.5C310.58 153.11 310.77 151.62 310.88 150.02C310.99 148.42 311.05 146.73 311.06 144.95C311.08 143.16 311.09 141.31 311.09 139.39V139.4ZM307.95 143.76H317.62V146.85H307.95V143.76ZM316.85 143.76H319.92V144.66C319.92 144.89 319.92 145.07 319.89 145.21C319.84 148.03 319.78 150.43 319.72 152.41C319.66 154.39 319.59 156.02 319.51 157.29C319.43 158.56 319.32 159.55 319.18 160.28C319.04 161 318.86 161.51 318.65 161.81C318.35 162.25 318.04 162.57 317.73 162.76C317.42 162.95 317.03 163.09 316.59 163.18C316.2 163.27 315.73 163.32 315.16 163.33C314.59 163.34 314.01 163.33 313.39 163.29C313.37 162.83 313.28 162.3 313.13 161.69C312.97 161.08 312.76 160.56 312.5 160.12C313.03 160.16 313.51 160.18 313.95 160.2C314.39 160.22 314.73 160.23 314.98 160.23C315.17 160.23 315.34 160.2 315.48 160.12C315.62 160.05 315.75 159.92 315.88 159.72C316.02 159.53 316.14 159.12 316.25 158.5C316.36 157.88 316.44 156.98 316.51 155.8C316.58 154.62 316.64 153.1 316.69 151.24C316.74 149.38 316.8 147.11 316.85 144.44V143.75V143.76ZM321.4 142.04H331.02V163.1H327.85V145.11H324.44V163.29H321.4V142.05V142.04ZM322.82 158.4H329.58V161.44H322.82V158.4Z" fill="#E86174"/>
</g>
<defs>
<clipPath id="clip0_249_350">
<rect width="409.24" height="163.89" fill="white"/>
</clipPath>
</defs>
</svg>
