<svg width="199" height="347" viewBox="0 0 199 347" fill="none" xmlns="http://www.w3.org/2000/svg">
<g clip-path="url(#clip0_249_251)">
<path d="M59.2499 0H14.9299C6.89414 0 0.379883 6.51202 0.379883 14.545C0.379883 22.578 6.89414 29.09 14.9299 29.09H59.2499C67.2856 29.09 73.7999 22.578 73.7999 14.545C73.7999 6.51202 67.2856 0 59.2499 0Z" fill="#003E7E"/>
<path d="M22.4598 22.39H12.5898V20.31L17.9398 14.01C18.9398 12.85 19.4198 11.88 19.4198 10.84C19.4198 9.53996 18.4698 8.88996 17.4298 8.88996C16.3898 8.88996 15.5298 9.55996 15.4398 10.84H12.5698C12.5698 8.07996 14.8398 6.20996 17.5998 6.20996C20.3598 6.20996 22.6498 8.19996 22.6498 10.84C22.6498 12.95 21.2598 14.59 20.2398 15.8L16.9498 19.67H22.4598V22.4V22.39Z" fill="white"/>
<path d="M36.1199 17.5004C36.1199 21.0904 33.6199 22.6004 30.7499 22.6004C27.8799 22.6004 25.3799 21.0904 25.3799 17.5004V11.2904C25.3799 7.54043 27.8799 6.19043 30.7499 6.19043C33.6199 6.19043 36.1199 7.53043 36.1199 11.2604V17.4904V17.5004ZM30.7499 8.93043C29.2899 8.93043 28.5999 9.86043 28.5999 11.5704V17.2204C28.5999 18.9304 29.2999 19.8604 30.7499 19.8604C32.1999 19.8604 32.8799 18.9304 32.8799 17.2204V11.5704C32.8799 9.86043 32.1899 8.93043 30.7499 8.93043Z" fill="white"/>
<path d="M48.6297 22.39H38.7597V20.31L44.1097 14.01C45.1097 12.85 45.5897 11.88 45.5897 10.84C45.5897 9.53996 44.6397 8.88996 43.5997 8.88996C42.5597 8.88996 41.6997 9.55996 41.6097 10.84H38.7397C38.7397 8.07996 41.0097 6.20996 43.7697 6.20996C46.5297 6.20996 48.8197 8.19996 48.8197 10.84C48.8197 12.95 47.4297 14.59 46.4097 15.8L43.1197 19.67H48.6297V22.4V22.39Z" fill="white"/>
<path d="M55.2796 15.3404H52.3596V6.40039H61.4596V9.34039H55.5296V12.0704C55.9696 11.6504 56.6896 11.2404 57.8896 11.2404C60.3496 11.2404 62.0596 13.1204 62.0596 16.9404C62.0596 20.7604 60.3496 22.5904 57.0596 22.5904C54.3696 22.5904 52.1296 21.0804 51.8696 18.2604H55.0696C55.3196 19.2804 55.9296 19.8604 56.9696 19.8604C58.1296 19.8604 58.8196 18.9804 58.8196 17.1004C58.8196 15.2204 58.2596 14.1604 56.9696 14.1604C56.1396 14.1604 55.6296 14.6204 55.2796 15.3404Z" fill="white"/>
<path d="M22.61 71.8104H3.26996V67.4504L13.27 55.6704C15.09 53.5404 15.8 51.8004 15.8 49.8904C15.8 47.7604 14.29 46.7304 12.55 46.7304C10.73 46.7304 9.47996 47.8404 9.30996 49.8904H2.95996C2.95996 44.5604 7.44996 40.6904 13.01 40.6904C18.57 40.6904 23.14 44.8204 23.14 49.8504C23.14 54.0704 20.47 57.3204 18.47 59.6304L13.22 65.6804H22.6V71.8104H22.61Z" fill="#003E7E"/>
<path d="M46.38 71.8104H27.05V67.4504L37.05 55.6704C38.87 53.5404 39.58 51.8004 39.58 49.8904C39.58 47.7604 38.07 46.7304 36.33 46.7304C34.51 46.7304 33.26 47.8404 33.09 49.8904H26.73C26.73 44.5604 31.22 40.6904 36.78 40.6904C42.34 40.6904 46.91 44.8204 46.91 49.8504C46.91 54.0704 44.24 57.3204 42.24 59.6304L37 65.6804H46.38V71.8104Z" fill="#003E7E"/>
<path d="M51.1802 56.04H62.6902V61.91H51.1802V56.04Z" fill="#003E7E"/>
<path d="M84.8302 71.8104H65.5002V67.4504L75.5002 55.6704C77.3202 53.5404 78.0302 51.8004 78.0302 49.8904C78.0302 47.7604 76.5202 46.7304 74.7802 46.7304C72.9602 46.7304 71.7102 47.8404 71.5402 49.8904H65.1802C65.1802 44.5604 69.6702 40.6904 75.2302 40.6904C80.7902 40.6904 85.3602 44.8204 85.3602 49.8504C85.3602 54.0704 82.6902 57.3204 80.6902 59.6304L75.4402 65.6804H84.8202V71.8104H84.8302Z" fill="#003E7E"/>
<path d="M95.4999 52.9204H97.8999C99.7699 52.9204 101.46 51.9404 101.46 49.7604C101.46 47.8504 100.08 46.7404 98.2199 46.7404C96.3599 46.7404 95.3299 47.8504 94.9799 49.4504H88.6199C88.9299 44.3804 93.0599 40.6904 98.6699 40.6904C104.28 40.6904 108.8 44.8204 108.8 49.3104C108.8 52.9104 106.49 54.9104 104.8 55.8904C107.29 57.2204 109.24 59.5804 109.24 63.1404C109.24 68.2104 105.77 72.2504 99.0199 72.2504C92.2699 72.2504 88.3999 68.4704 88.1699 63.3204H94.5299C94.7999 65.0104 96.1299 66.1204 98.4399 66.1204C100.75 66.1204 101.91 64.5604 101.91 62.6104C101.91 60.3404 100.62 59.0504 97.9099 59.0504H95.5099V52.9204H95.4999Z" fill="#003E7E"/>
<path d="M112.08 72.5806L123.57 40.8506H128.15L116.66 72.5806H112.08Z" fill="#003E7E"/>
<path d="M143.58 71.8109H136.2V48.6509L131.8 51.3609V44.5109L137.09 41.1309H143.58V71.8009V71.8109Z" fill="#003E7E"/>
<path d="M159.58 71.8109H152.2V48.6509L147.8 51.3609V44.5109L153.09 41.1309H159.58V71.8009V71.8109Z" fill="#003E7E"/>
<path d="M0.689941 110.73H172.2" stroke="#003E7E" stroke-miterlimit="10"/>
<path d="M0.689941 171.29H172.2" stroke="#003E7E" stroke-miterlimit="10"/>
<path d="M0.689941 265.8H198.26" stroke="#003E7E" stroke-miterlimit="10"/>
<path d="M63.2799 182.91H18.3599C19.2899 184.56 19.8199 188.68 18.7899 191.33C17.5299 194.6 14.1399 199.11 11.8799 202.82H63.2699V182.92L63.2799 182.91Z" fill="#5780A2"/>
<path d="M8.47984 224.861L10.6298 225.741C10.1398 226.441 9.57984 227.121 8.95984 227.761C8.33984 228.401 7.65984 229.011 6.93984 229.581C6.21984 230.151 5.46984 230.671 4.68984 231.141C3.90984 231.611 3.12984 232.011 2.33984 232.351C2.19984 232.141 2.02984 231.901 1.82984 231.631C1.62984 231.361 1.41984 231.101 1.19984 230.851C0.979844 230.601 0.769844 230.391 0.589844 230.221C1.35984 229.951 2.12984 229.631 2.87984 229.241C3.63984 228.851 4.36984 228.431 5.06984 227.961C5.76984 227.491 6.40984 226.991 6.99984 226.471C7.57984 225.941 8.07984 225.411 8.47984 224.861ZM1.19984 214.571H19.8898V216.931H1.19984V214.571ZM2.96984 218.131H18.2298V226.231H2.96984V218.131ZM5.42984 220.021V221.281H15.6398V220.021H5.42984ZM5.42984 223.051V224.331H15.6398V223.051H5.42984ZM9.13984 212.841H11.7698V232.601H9.13984V212.841ZM12.4798 224.951C12.8998 225.481 13.4098 226.011 14.0098 226.521C14.6098 227.031 15.2598 227.521 15.9698 227.991C16.6798 228.461 17.4198 228.881 18.1898 229.251C18.9598 229.621 19.7298 229.941 20.5098 230.211C20.3098 230.381 20.0998 230.591 19.8698 230.851C19.6398 231.111 19.4198 231.381 19.2198 231.651C19.0198 231.921 18.8398 232.171 18.6998 232.401C17.9098 232.081 17.1398 231.681 16.3598 231.211C15.5898 230.741 14.8398 230.221 14.1198 229.651C13.3998 229.081 12.7198 228.471 12.0998 227.831C11.4798 227.181 10.9198 226.521 10.4298 225.831L12.4898 224.951H12.4798Z" fill="#003E7E"/>
<path d="M23.5698 224.76H42.7698V226.93H23.5698V224.76ZM23.6998 214.04H32.7698V216.23H23.6998V214.04ZM24.0798 221.24H30.9798V223.37H24.0798V221.24ZM24.0998 217.92H42.1798V219.98H24.0998V217.92ZM24.7898 228H41.3798V230.06H24.7898V228ZM26.7098 220.36H29.0498V224.4H26.7098V220.36ZM28.1798 212.82H30.6398V217.43H28.1798V212.82ZM31.7998 218.71H34.2998V232.58H31.7998V218.71ZM33.4698 214.04H42.5398V216.23H33.4698V214.04ZM35.1498 221.14H42.0498V223.27H35.1498V221.14ZM35.4898 212.82H37.9498V217.43H35.4898V212.82ZM37.1898 220.36H39.5298V224.4H37.1898V220.36Z" fill="#003E7E"/>
<path d="M46.5601 228.751H64.9101V231.321H46.5601V228.751ZM47.7401 214.841H63.8001V217.431H47.7401V214.841ZM49.1901 221.621H62.1101V224.191H49.1901V221.621Z" fill="#003E7E"/>
<path d="M69.29 213.66H74.13V215.91H71.5V232.52H69.29V213.66ZM73.56 213.66H73.96L74.32 213.56L75.96 214.51C75.69 215.39 75.4 216.33 75.08 217.32C74.76 218.31 74.44 219.21 74.13 220.03C74.78 220.87 75.2 221.66 75.39 222.4C75.58 223.14 75.68 223.81 75.68 224.43C75.68 225.12 75.61 225.69 75.46 226.15C75.31 226.61 75.07 226.97 74.73 227.23C74.56 227.36 74.38 227.45 74.17 227.52C73.97 227.59 73.75 227.65 73.53 227.69C73.33 227.72 73.12 227.73 72.88 227.73H72.14C72.14 227.44 72.09 227.08 71.99 226.66C71.89 226.24 71.76 225.87 71.59 225.57C71.79 225.58 71.96 225.59 72.11 225.6C72.26 225.6 72.39 225.6 72.52 225.59C72.74 225.59 72.93 225.53 73.09 225.42C73.22 225.34 73.31 225.18 73.36 224.96C73.41 224.74 73.44 224.47 73.44 224.16C73.44 223.65 73.35 223.07 73.17 222.41C72.99 221.75 72.59 221.05 71.99 220.31C72.13 219.83 72.28 219.32 72.43 218.77C72.58 218.22 72.73 217.68 72.87 217.13C73.01 216.58 73.14 216.07 73.26 215.58C73.38 215.1 73.47 214.69 73.54 214.37V213.68L73.56 213.66ZM78.68 224.02H81.1C81.03 225.06 80.92 226.02 80.76 226.9C80.61 227.78 80.34 228.58 79.96 229.29C79.58 230 79.04 230.63 78.35 231.18C77.66 231.73 76.75 232.21 75.62 232.6C75.51 232.29 75.31 231.93 75.03 231.53C74.75 231.12 74.48 230.8 74.21 230.56C75.16 230.27 75.93 229.91 76.5 229.51C77.08 229.1 77.51 228.63 77.81 228.09C78.1 227.55 78.31 226.95 78.42 226.28C78.53 225.61 78.62 224.86 78.67 224.02H78.68ZM76.01 215.28H88.03V219.47H85.61V217.47H78.33V219.47H76.01V215.28ZM76.05 222.92H88.13V225.17H76.05V222.92ZM77.67 219.18H86.36V221.35H77.67V219.18ZM80.05 213.28L82.43 212.61C82.7 213.05 82.95 213.53 83.18 214.07C83.41 214.61 83.59 215.08 83.72 215.47L81.22 216.27C81.14 215.86 80.98 215.38 80.77 214.82C80.55 214.26 80.32 213.75 80.06 213.28H80.05ZM82.4 223.96H84.8V229.5C84.8 229.79 84.82 229.98 84.86 230.07C84.9 230.15 84.99 230.2 85.13 230.2H85.89C86 230.2 86.09 230.14 86.14 230.02C86.19 229.9 86.24 229.66 86.28 229.3C86.32 228.94 86.34 228.41 86.35 227.69C86.5 227.82 86.7 227.94 86.95 228.06C87.2 228.18 87.45 228.28 87.72 228.38C87.99 228.48 88.22 228.55 88.41 228.6C88.35 229.57 88.24 230.32 88.07 230.86C87.9 231.4 87.66 231.78 87.35 232C87.04 232.22 86.63 232.33 86.13 232.33H84.68C84.05 232.33 83.57 232.24 83.25 232.06C82.93 231.88 82.7 231.58 82.58 231.18C82.45 230.77 82.39 230.23 82.39 229.54V223.98L82.4 223.96Z" fill="#003E7E"/>
<path d="M98.9901 224.861L101.14 225.741C100.65 226.441 100.09 227.121 99.4701 227.761C98.8501 228.411 98.1701 229.011 97.4501 229.581C96.7301 230.151 95.9801 230.671 95.2001 231.141C94.4201 231.611 93.6401 232.011 92.8501 232.351C92.7101 232.141 92.5401 231.901 92.3401 231.631C92.1401 231.361 91.9301 231.101 91.7101 230.851C91.4901 230.601 91.2801 230.391 91.1001 230.221C91.8701 229.951 92.6401 229.631 93.3901 229.241C94.1501 228.851 94.8801 228.431 95.5801 227.961C96.2801 227.491 96.9201 226.991 97.5101 226.471C98.0901 225.941 98.5901 225.411 98.9901 224.861ZM91.7101 214.571H110.4V216.931H91.7101V214.571ZM93.4801 218.131H108.74V226.231H93.4801V218.131ZM95.9401 220.021V221.281H106.15V220.021H95.9401ZM95.9401 223.051V224.331H106.15V223.051H95.9401ZM99.6401 212.841H102.27V232.601H99.6401V212.841ZM102.99 224.951C103.41 225.481 103.92 226.011 104.52 226.521C105.12 227.031 105.77 227.521 106.48 227.991C107.19 228.461 107.93 228.881 108.7 229.251C109.47 229.621 110.24 229.941 111.02 230.211C110.82 230.381 110.61 230.591 110.38 230.851C110.15 231.111 109.93 231.381 109.73 231.651C109.53 231.921 109.35 232.171 109.21 232.401C108.42 232.081 107.65 231.681 106.87 231.211C106.1 230.741 105.35 230.221 104.63 229.651C103.91 229.081 103.23 228.471 102.61 227.831C101.99 227.181 101.43 226.521 100.94 225.831L103 224.951H102.99Z" fill="#003E7E"/>
<path d="M113.77 222.801L115.12 221.071C115.53 221.211 115.95 221.391 116.39 221.611C116.83 221.831 117.26 222.051 117.66 222.271C118.07 222.491 118.4 222.711 118.67 222.921L117.24 224.841C116.99 224.631 116.67 224.401 116.28 224.151C115.89 223.901 115.48 223.661 115.04 223.421C114.6 223.191 114.17 222.981 113.77 222.801ZM114.21 213.771H123.28V215.921H114.21V213.771ZM114.23 230.921C114.54 230.491 114.88 229.971 115.26 229.381C115.64 228.791 116.02 228.161 116.42 227.491C116.81 226.821 117.18 226.161 117.54 225.511L119.29 226.941C118.98 227.541 118.66 228.161 118.32 228.791C117.98 229.421 117.64 230.041 117.29 230.651C116.94 231.261 116.6 231.851 116.26 232.431L114.24 230.911L114.23 230.921ZM114.67 218.881L116.08 217.201C116.46 217.341 116.86 217.511 117.29 217.721C117.72 217.921 118.12 218.141 118.51 218.361C118.9 218.581 119.22 218.801 119.47 219.011L118.02 220.881C117.78 220.671 117.48 220.441 117.1 220.201C116.73 219.951 116.33 219.721 115.9 219.481C115.47 219.251 115.06 219.051 114.67 218.881ZM118.04 212.801H120.54V217.031H118.04V212.801ZM119.58 218.631H133.2V220.611H119.58V218.631ZM120.29 221.751H130.75V223.621H122.69V232.521H120.29V221.741V221.751ZM121.91 224.611H130.54V226.361H121.91V224.611ZM121.91 227.391H130.54V229.161H121.91V227.391ZM124.02 213.771H133.05V215.921H124.02V213.771ZM125.01 217.121H127.39V232.511H125.01V217.121ZM126.88 212.821H129.38V216.841H126.88V212.821ZM129.95 221.751H132.39V230.321C132.39 230.841 132.33 231.241 132.21 231.531C132.09 231.821 131.86 232.051 131.5 232.211C131.16 232.361 130.76 232.461 130.28 232.491C129.8 232.521 129.25 232.541 128.62 232.541C128.58 232.251 128.49 231.911 128.36 231.541C128.23 231.171 128.1 230.841 127.97 230.561C128.31 230.571 128.64 230.581 128.97 230.591C129.3 230.591 129.52 230.601 129.63 230.601C129.74 230.591 129.82 230.561 129.87 230.521C129.92 230.481 129.94 230.401 129.94 230.291V221.741L129.95 221.751ZM128.67 217.581L129.79 216.251C130.24 216.421 130.7 216.641 131.18 216.911C131.66 217.181 132.03 217.441 132.3 217.681L131.16 219.151C130.88 218.901 130.5 218.621 130.03 218.321C129.56 218.021 129.11 217.771 128.67 217.571V217.581Z" fill="#003E7E"/>
<path d="M5.18998 241.53H6.37998C6.37998 242.66 6.34998 243.77 6.30998 244.84C6.27998 245.92 6.17998 246.95 6.01998 247.95C5.85998 248.95 5.60998 249.88 5.24998 250.75C4.89998 251.62 4.39998 252.4 3.75998 253.11C3.11998 253.82 2.29998 254.43 1.29998 254.94C1.23998 254.85 1.15998 254.75 1.06998 254.64C0.97998 254.53 0.87998 254.42 0.77998 254.32C0.67998 254.22 0.57998 254.13 0.47998 254.06C1.43998 253.6 2.22998 253.04 2.82998 252.39C3.42998 251.74 3.88998 251.01 4.21998 250.2C4.54998 249.39 4.77998 248.53 4.90998 247.6C5.04998 246.67 5.12998 245.69 5.14998 244.67C5.16998 243.65 5.18998 242.6 5.18998 241.54V241.53ZM1.15998 245.15H10.29V246.27H1.15998V245.15ZM9.60998 245.15H10.76V253.03C10.76 253.29 10.79 253.45 10.85 253.53C10.91 253.61 11.06 253.65 11.29 253.65H12.79C12.94 253.65 13.05 253.59 13.11 253.48C13.17 253.37 13.23 253.16 13.26 252.85C13.29 252.54 13.31 252.09 13.33 251.49C13.42 251.56 13.52 251.63 13.65 251.7C13.78 251.77 13.9 251.83 14.03 251.88C14.16 251.93 14.28 251.97 14.38 252C14.34 252.69 14.27 253.23 14.18 253.63C14.09 254.03 13.94 254.31 13.74 254.48C13.54 254.65 13.25 254.73 12.88 254.73H11.12C10.74 254.73 10.43 254.68 10.21 254.58C9.98998 254.48 9.82998 254.31 9.73998 254.06C9.64998 253.81 9.59998 253.47 9.59998 253.01V245.15H9.60998Z" fill="#5780A2"/>
<path d="M16.46 245.651H23.26V246.611H16.46V245.651ZM16.73 242.661H23V243.621H16.73V242.661ZM17.27 247.481H22.09V248.321H18.31V254.941H17.26V247.471L17.27 247.481ZM17.7 243.951L18.6 243.741C18.72 244.021 18.83 244.331 18.95 244.671C19.06 245.011 19.14 245.311 19.18 245.561L18.24 245.811C18.21 245.551 18.14 245.251 18.04 244.911C17.94 244.571 17.83 244.251 17.71 243.951H17.7ZM17.71 249.371H22.03V250.151H17.71V249.371ZM17.71 251.231H22.03V252.011H17.71V251.231ZM19.1 241.551L20.04 241.301C20.17 241.571 20.29 241.861 20.4 242.171C20.51 242.481 20.59 242.751 20.63 242.971L19.63 243.251C19.6 243.021 19.53 242.751 19.43 242.421C19.33 242.101 19.22 241.811 19.1 241.551ZM21.49 247.481H22.58V253.651C22.58 253.921 22.55 254.131 22.48 254.281C22.41 254.441 22.28 254.561 22.1 254.651C21.9 254.741 21.65 254.791 21.35 254.811C21.05 254.831 20.69 254.841 20.28 254.841C20.25 254.681 20.2 254.511 20.13 254.321C20.06 254.131 19.98 253.971 19.92 253.831C20.23 253.831 20.51 253.841 20.76 253.841C21.01 253.841 21.17 253.841 21.26 253.831C21.35 253.831 21.41 253.801 21.44 253.771C21.47 253.741 21.49 253.691 21.49 253.611V247.471V247.481ZM21.18 243.751L22.18 243.991C22.01 244.371 21.84 244.761 21.67 245.141C21.5 245.521 21.33 245.861 21.18 246.141L20.34 245.891C20.44 245.681 20.54 245.451 20.65 245.201C20.76 244.951 20.86 244.701 20.95 244.441C21.04 244.181 21.12 243.951 21.18 243.751ZM24 241.371H25.08V245.211H24V241.371ZM24 244.661H29.25V247.741H24V246.871H28.18V245.541H24V244.651V244.661ZM24 247.361H25.08V253.341C25.08 253.591 25.13 253.751 25.23 253.821C25.33 253.891 25.56 253.931 25.92 253.931H28.46C28.64 253.931 28.77 253.901 28.86 253.831C28.95 253.771 29.01 253.651 29.05 253.481C29.09 253.311 29.12 253.051 29.14 252.721C29.26 252.801 29.41 252.871 29.6 252.951C29.79 253.031 29.96 253.081 30.11 253.121C30.07 253.561 30 253.911 29.9 254.171C29.8 254.431 29.64 254.611 29.43 254.711C29.22 254.811 28.92 254.861 28.54 254.861H25.81C25.35 254.861 24.99 254.821 24.73 254.731C24.47 254.641 24.29 254.501 24.18 254.281C24.07 254.061 24.02 253.751 24.02 253.341V247.361H24ZM24.4 251.981H29.31V252.701H24.4V251.981ZM24.44 242.541H29.83V243.471H24.44V242.541ZM24.44 248.661H29.24V249.401H24.44V248.661ZM24.49 250.301H29.17V251.041H24.49V250.301Z" fill="#5780A2"/>
<path d="M36.6398 252.511L37.6298 253.141C37.2298 253.381 36.7698 253.611 36.2498 253.841C35.7298 254.071 35.1998 254.281 34.6398 254.471C34.0798 254.661 33.5598 254.831 33.0698 254.961C32.9698 254.851 32.8498 254.721 32.6898 254.571C32.5298 254.421 32.3998 254.291 32.2798 254.191C32.7798 254.051 33.3098 253.891 33.8698 253.711C34.4298 253.531 34.9498 253.331 35.4298 253.111C35.9098 252.891 36.3198 252.691 36.6298 252.491L36.6398 252.511ZM32.4698 245.971H45.7298V246.931H32.4698V245.971ZM33.1898 242.491H45.0698V243.361H33.1898V242.491ZM34.1698 247.731H44.1398V252.551H34.1698V247.731ZM35.2398 248.561V249.761H43.0298V248.561H35.2398ZM35.2398 250.521V251.741H43.0298V250.521H35.2398ZM35.9498 241.341H37.0298V244.421H41.1898V241.341H42.3098V245.241H35.9498V241.341ZM38.4898 246.331H39.5798V252.161H38.4898V246.331ZM40.5798 253.201L41.3198 252.511C41.8698 252.681 42.4198 252.861 42.9798 253.061C43.5398 253.261 44.0598 253.461 44.5698 253.651C45.0698 253.841 45.4998 254.021 45.8698 254.191L44.9098 254.941C44.5798 254.761 44.1798 254.581 43.7198 254.381C43.2598 254.181 42.7598 253.981 42.2198 253.781C41.6798 253.571 41.1398 253.381 40.5898 253.201H40.5798Z" fill="#5780A2"/>
<path d="M54.36 241.391H55.56C55.56 242.031 55.54 242.741 55.51 243.521C55.48 244.301 55.4 245.111 55.28 245.951C55.16 246.791 54.97 247.641 54.7 248.491C54.43 249.341 54.06 250.161 53.58 250.951C53.1 251.741 52.5 252.481 51.76 253.161C51.02 253.841 50.12 254.421 49.05 254.921C48.96 254.771 48.84 254.611 48.67 254.441C48.51 254.271 48.35 254.121 48.21 254.001C49.25 253.551 50.13 253.011 50.84 252.381C51.55 251.751 52.14 251.061 52.59 250.311C53.04 249.561 53.39 248.791 53.64 247.991C53.89 247.191 54.06 246.401 54.16 245.611C54.26 244.821 54.32 244.061 54.34 243.351C54.36 242.631 54.38 241.981 54.38 241.391H54.36ZM48.48 245.611H61.46V246.751H48.48V245.611ZM55.66 246.061C55.99 247.251 56.43 248.361 56.98 249.391C57.53 250.421 58.19 251.321 58.99 252.081C59.78 252.851 60.68 253.451 61.7 253.881C61.61 253.961 61.52 254.061 61.41 254.181C61.31 254.301 61.21 254.431 61.11 254.561C61.01 254.691 60.93 254.811 60.87 254.911C59.81 254.401 58.87 253.721 58.06 252.891C57.25 252.051 56.56 251.081 55.99 249.971C55.42 248.861 54.95 247.641 54.57 246.331L55.66 246.061Z" fill="#5780A2"/>
<path d="M67.3299 241.4L68.3799 241.71C68.0699 242.55 67.7199 243.37 67.3199 244.18C66.9199 244.99 66.4799 245.75 65.9999 246.47C65.5199 247.19 65.0299 247.82 64.5199 248.38C64.4799 248.29 64.4199 248.18 64.3499 248.04C64.2799 247.9 64.1999 247.76 64.1099 247.63C64.0199 247.5 63.9499 247.38 63.8799 247.29C64.3399 246.81 64.7799 246.25 65.2099 245.62C65.6299 244.99 66.0299 244.31 66.3999 243.6C66.7699 242.89 67.0799 242.16 67.3399 241.41L67.3299 241.4ZM65.8599 245.25L66.9099 244.2V244.22L66.9199 254.93H65.8599V245.25ZM68.7499 244.79H69.8399V252.96H76.6099V254.01H68.7499V244.79ZM72.2499 241.61H73.3699V253.49H72.2499V241.61ZM75.8599 244.75H76.9699V254.92H75.8599V244.75Z" fill="#5780A2"/>
<path d="M82.8099 249.21L83.7699 249.48C83.3799 250.36 82.8899 251.18 82.2999 251.97C81.7199 252.75 81.1099 253.41 80.4899 253.95C80.4199 253.89 80.3399 253.82 80.2299 253.74C80.1299 253.66 80.0199 253.58 79.9199 253.5C79.8199 253.42 79.7199 253.36 79.6299 253.31C80.2799 252.82 80.8799 252.21 81.4399 251.5C81.9999 250.78 82.4499 250.02 82.7999 249.23L82.8099 249.21ZM79.9599 246.36H86.9799V247.29H79.9599V246.36ZM80.0399 248.76H86.9299V249.73H80.0399V248.76ZM80.2699 242.92H86.7899V243.85H80.2699V242.92ZM81.2299 244.15L82.1699 243.93C82.3199 244.26 82.4499 244.63 82.5699 245.01C82.6899 245.4 82.7599 245.73 82.7899 246.01L81.7999 246.28C81.7699 245.99 81.6999 245.65 81.5899 245.25C81.4799 244.85 81.3599 244.49 81.2199 244.15H81.2299ZM82.5399 241.5L83.6299 241.23C83.7999 241.54 83.9599 241.87 84.1199 242.25C84.2799 242.62 84.3999 242.94 84.4699 243.19L83.3199 243.51C83.2599 243.24 83.1599 242.92 82.9999 242.54C82.8499 242.16 82.6899 241.81 82.5399 241.49V241.5ZM83.0799 246.79H84.1299V254.89H83.0799V246.79ZM83.3399 249.84L84.0599 249.31C84.3899 249.62 84.7299 249.97 85.0599 250.34C85.3899 250.71 85.6999 251.08 85.9799 251.44C86.2599 251.8 86.4899 252.12 86.6599 252.41L85.9099 253.03C85.7399 252.74 85.5199 252.4 85.2399 252.03C84.9599 251.66 84.6499 251.28 84.3199 250.9C83.9899 250.52 83.6599 250.17 83.3399 249.84ZM84.9299 243.92L85.9599 244.14C85.7999 244.58 85.6399 245.03 85.4599 245.49C85.2799 245.95 85.1199 246.34 84.9599 246.66L84.0599 246.45C84.1599 246.21 84.2599 245.95 84.3699 245.65C84.4799 245.36 84.5799 245.05 84.6899 244.74C84.7899 244.43 84.8699 244.15 84.9299 243.91V243.92ZM87.5799 242.79H88.6099V247.95C88.6099 248.48 88.5899 249.05 88.5599 249.66C88.5299 250.27 88.4499 250.88 88.3499 251.5C88.2499 252.12 88.0799 252.72 87.8799 253.3C87.6699 253.88 87.3899 254.41 87.0399 254.89C86.9799 254.82 86.8999 254.75 86.7899 254.68C86.6799 254.61 86.5699 254.53 86.4599 254.47C86.3499 254.41 86.2499 254.35 86.1599 254.31C86.5999 253.71 86.9199 253.04 87.1199 252.3C87.3199 251.56 87.4399 250.82 87.4999 250.06C87.5599 249.31 87.5899 248.6 87.5899 247.94V242.78L87.5799 242.79ZM92.3599 241.62L93.2499 242.45C92.7699 242.63 92.2299 242.79 91.6299 242.94C91.0299 243.09 90.4099 243.22 89.7799 243.34C89.1499 243.46 88.5299 243.56 87.9299 243.63C87.9099 243.51 87.8699 243.37 87.7999 243.21C87.7299 243.05 87.6599 242.91 87.5899 242.79C88.1599 242.7 88.7399 242.6 89.3399 242.47C89.9299 242.35 90.4999 242.21 91.0299 242.06C91.5599 241.91 92.0099 241.77 92.3699 241.62H92.3599ZM87.9999 246.36H93.4599V247.39H87.9999V246.36ZM90.7199 246.79H91.7999V254.88H90.7199V246.79Z" fill="#5780A2"/>
<path d="M95.7202 247.95L96.3202 247.18C96.6202 247.28 96.9202 247.4 97.2402 247.55C97.5602 247.7 97.8602 247.85 98.1502 248.01C98.4402 248.17 98.6702 248.33 98.8602 248.49L98.2602 249.35C98.0702 249.2 97.8402 249.04 97.5502 248.87C97.2602 248.7 96.9702 248.53 96.6502 248.37C96.3402 248.21 96.0302 248.07 95.7202 247.95ZM96.0302 242.24H102.21V243.21H96.0302V242.24ZM96.1002 254.19C96.3302 253.87 96.5802 253.48 96.8502 253.04C97.1302 252.6 97.4002 252.13 97.6802 251.63C97.9602 251.13 98.2202 250.65 98.4702 250.18L99.2402 250.83C99.0202 251.26 98.7902 251.72 98.5302 252.19C98.2702 252.66 98.0202 253.13 97.7602 253.58C97.5002 254.04 97.2402 254.46 96.9902 254.86L96.1002 254.2V254.19ZM96.4102 245.13L97.0102 244.38C97.3002 244.48 97.5902 244.6 97.9002 244.76C98.2102 244.91 98.5002 245.07 98.7802 245.24C99.0502 245.41 99.2802 245.56 99.4602 245.71L98.8302 246.55C98.6602 246.4 98.4402 246.24 98.1702 246.07C97.9002 245.9 97.6102 245.73 97.3002 245.56C96.9902 245.39 96.6902 245.25 96.4102 245.13ZM99.0002 241.36H100.11V244.24H99.0002V241.36ZM99.7302 245.52H109.13V246.43H99.7302V245.52ZM100.29 247.57H107.81V248.44H101.35V254.92H100.29V247.57ZM100.97 249.57H107.74V250.4H100.97V249.57ZM100.97 251.57H107.74V252.4H100.97V251.57ZM102.82 242.24H109.09V243.21H102.82V242.24ZM103.75 244.26H104.8V254.87H103.75V244.26ZM104.99 241.37H106.1V244.11H104.99V241.37ZM107.44 247.57H108.5V253.83C108.5 254.1 108.47 254.3 108.4 254.44C108.33 254.58 108.2 254.69 108.02 254.77C107.83 254.85 107.59 254.9 107.29 254.91C106.99 254.92 106.62 254.93 106.18 254.93C106.15 254.8 106.11 254.65 106.05 254.49C105.99 254.32 105.93 254.17 105.86 254.03C106.16 254.03 106.45 254.04 106.7 254.04H107.22C107.31 254.04 107.37 254.01 107.4 253.98C107.43 253.95 107.45 253.9 107.45 253.82V247.56L107.44 247.57ZM106.02 244.41L106.54 243.78C106.86 243.92 107.21 244.09 107.57 244.3C107.93 244.51 108.22 244.69 108.43 244.86L107.9 245.55C107.69 245.37 107.41 245.17 107.05 244.95C106.69 244.73 106.35 244.55 106.02 244.41Z" fill="#5780A2"/>
<path d="M112.67 245.44H123.72V246.38H113.73V254.94H112.67V245.44ZM112.76 241.84H113.88V243.52H122.94V241.84H124.09V244.45H112.76V241.84ZM114.53 248.37H122.32V249.21H114.53V248.37ZM115.17 249.97H116.11V252.92H115.17V249.97ZM115.62 246.83L116.49 246.56C116.67 246.79 116.83 247.04 116.99 247.31C117.15 247.58 117.26 247.82 117.33 248.02L116.42 248.31C116.36 248.1 116.25 247.86 116.1 247.58C115.94 247.3 115.79 247.05 115.63 246.82L115.62 246.83ZM115.7 252.07H121.17V252.93H115.7V252.07ZM117.81 241.36H118.95V244.12H117.81V241.36ZM117.88 248.73H118.87V252.51H117.88V248.73ZM120.3 246.52L121.27 246.79C121.1 247.15 120.93 247.52 120.75 247.9C120.57 248.27 120.41 248.6 120.25 248.87L119.39 248.62C119.5 248.42 119.61 248.2 119.72 247.96C119.83 247.71 119.94 247.46 120.04 247.21C120.14 246.95 120.22 246.73 120.29 246.53L120.3 246.52ZM120.71 249.97H121.64V252.92H120.71V249.97ZM123.22 245.44H124.28V253.66C124.28 253.97 124.24 254.22 124.15 254.38C124.07 254.55 123.91 254.67 123.69 254.76C123.46 254.84 123.15 254.89 122.76 254.91C122.37 254.93 121.87 254.94 121.27 254.94C121.25 254.79 121.21 254.62 121.14 254.43C121.07 254.24 121 254.07 120.93 253.94C121.37 253.94 121.78 253.96 122.15 253.96C122.52 253.96 122.77 253.96 122.89 253.96C123.02 253.96 123.1 253.93 123.15 253.89C123.19 253.85 123.22 253.77 123.22 253.65V245.45V245.44Z" fill="#5780A2"/>
<path d="M127.59 247.24L140.77 245.12L140.95 246.26L127.79 248.35L127.6 247.24H127.59ZM131.87 241.62H133.05V252.2C133.05 252.51 133.08 252.74 133.14 252.9C133.2 253.06 133.32 253.17 133.5 253.23C133.68 253.29 133.95 253.32 134.3 253.32H138.09C138.42 253.32 138.67 253.25 138.84 253.1C139.01 252.95 139.12 252.68 139.19 252.29C139.26 251.9 139.32 251.34 139.36 250.61C139.47 250.68 139.59 250.75 139.72 250.82C139.85 250.89 139.99 250.95 140.13 251.01C140.27 251.07 140.39 251.11 140.49 251.14C140.43 251.95 140.33 252.59 140.2 253.07C140.07 253.55 139.83 253.9 139.51 254.11C139.19 254.32 138.72 254.43 138.12 254.43H134.25C133.64 254.43 133.16 254.37 132.81 254.24C132.46 254.11 132.21 253.88 132.07 253.55C131.93 253.22 131.86 252.76 131.86 252.17V241.62H131.87Z" fill="#5780A2"/>
<path d="M148.05 252.85L148.98 253.45C148.57 253.66 148.09 253.86 147.55 254.05C147.01 254.24 146.45 254.41 145.86 254.57C145.27 254.72 144.72 254.84 144.19 254.93C144.11 254.83 144.01 254.71 143.88 254.55C143.75 254.4 143.63 254.27 143.51 254.17C144.04 254.08 144.6 253.97 145.18 253.82C145.76 253.68 146.31 253.52 146.82 253.35C147.33 253.18 147.74 253.01 148.06 252.84L148.05 252.85ZM143.82 242.36H156.41V244.41H155.36V243.27H144.83V244.41H143.83V242.36H143.82ZM144.04 247.01C144.73 246.97 145.57 246.92 146.56 246.86C147.55 246.8 148.57 246.74 149.61 246.68V247.43C148.61 247.51 147.63 247.58 146.66 247.64C145.69 247.7 144.84 247.76 144.12 247.81L144.03 247L144.04 247.01ZM144.73 244.06H149.55V244.77H144.73V244.06ZM144.91 245.47H149.34V246.12H144.91V245.47ZM145.46 248.23H154.98V253H145.46V248.23ZM146.53 248.93V249.61H153.85V248.93H146.53ZM146.53 250.25V250.96H153.85V250.25H146.53ZM146.53 251.61V252.32H153.85V251.61H146.53ZM146.65 244.34H147.59V247.13L146.65 247.22V244.34ZM149.23 241.52L150.29 241.25C150.45 241.48 150.59 241.73 150.73 242C150.87 242.27 150.96 242.52 151.02 242.72L149.9 243.04C149.84 242.83 149.75 242.58 149.62 242.29C149.49 242 149.36 241.74 149.24 241.5L149.23 241.52ZM151.09 243.42L151.92 243.55C151.75 243.9 151.55 244.25 151.32 244.58C151.09 244.91 150.81 245.22 150.49 245.52C150.41 245.44 150.31 245.36 150.17 245.27C150.03 245.18 149.92 245.11 149.81 245.06C150.1 244.81 150.36 244.55 150.58 244.26C150.8 243.97 150.97 243.69 151.1 243.43L151.09 243.42ZM149.84 245.43H156.05V246.09H149.84V245.43ZM150.33 246.33H151.16V247.07H154.73V246.33H155.6V247.72H150.33V246.33ZM151.21 244.13H155.3V244.78H150.81L151.21 244.13ZM151.09 253.48L151.84 252.85C152.41 252.99 152.99 253.14 153.57 253.31C154.15 253.48 154.71 253.65 155.23 253.82C155.75 253.99 156.2 254.15 156.57 254.3L155.61 254.98C155.28 254.83 154.86 254.67 154.38 254.5C153.89 254.33 153.37 254.16 152.81 253.98C152.25 253.81 151.67 253.64 151.08 253.49L151.09 253.48ZM152.45 244.4H153.39V247.35H152.45V244.4Z" fill="#5780A2"/>
<path d="M162.12 244.34L163.11 244.68C162.82 245.29 162.49 245.89 162.09 246.49C161.69 247.09 161.28 247.64 160.84 248.16C160.4 248.68 159.95 249.14 159.5 249.55C159.46 249.47 159.4 249.37 159.32 249.25C159.24 249.13 159.16 249 159.07 248.88C158.98 248.76 158.9 248.66 158.83 248.59C159.47 248.07 160.08 247.43 160.67 246.69C161.26 245.94 161.74 245.16 162.12 244.34ZM161.67 241.37L162.69 241.74C162.45 242.14 162.17 242.55 161.83 242.97C161.5 243.39 161.14 243.78 160.77 244.16C160.4 244.53 160.02 244.87 159.64 245.16C159.6 245.09 159.54 245 159.47 244.9C159.4 244.8 159.32 244.69 159.24 244.59C159.16 244.49 159.09 244.4 159.03 244.33C159.36 244.07 159.7 243.78 160.04 243.45C160.38 243.12 160.69 242.77 160.98 242.41C161.27 242.05 161.49 241.7 161.66 241.36L161.67 241.37ZM160.8 247.26L161.69 246.36L161.82 246.4V254.96H160.8V247.26ZM162.54 252.85C163.06 252.79 163.66 252.72 164.33 252.65C165 252.58 165.71 252.49 166.45 252.4C167.2 252.31 167.94 252.22 168.69 252.13L168.72 253.1C167.64 253.24 166.56 253.38 165.5 253.51C164.43 253.65 163.49 253.77 162.67 253.88L162.54 252.85ZM162.87 246.17H168.43V247.16H162.87V246.17ZM162.96 249.28H168.33V250.25H162.96V249.28ZM163.16 243.23H168.16V244.19H163.16V243.23ZM165.11 247.46H166.17V252.88L165.11 253.09V247.47V247.46ZM165.13 241.37H166.18V246.74H165.13V241.37ZM170.27 246.61H171.36V253.59C171.36 253.91 171.32 254.17 171.25 254.34C171.18 254.52 171.03 254.65 170.8 254.74C170.58 254.83 170.29 254.89 169.93 254.91C169.57 254.93 169.12 254.95 168.59 254.95C168.57 254.79 168.53 254.61 168.46 254.4C168.39 254.19 168.32 254 168.25 253.85C168.66 253.85 169.03 253.87 169.35 253.87C169.67 253.87 169.88 253.87 169.99 253.87C170.11 253.87 170.18 253.84 170.22 253.8C170.25 253.76 170.27 253.7 170.27 253.61V246.63V246.61ZM168.7 246.2H172.76V247.2H168.7V246.2ZM168.83 242.24H172.55V243.23H168.83V242.24Z" fill="#5780A2"/>
<path d="M175.1 253.771V252.971C176.23 251.981 177.16 251.071 177.9 250.261C178.63 249.441 179.18 248.681 179.53 247.981C179.88 247.281 180.06 246.621 180.06 246.001C180.06 245.591 179.99 245.221 179.85 244.891C179.71 244.571 179.49 244.311 179.19 244.131C178.89 243.951 178.52 243.861 178.07 243.861C177.62 243.861 177.22 243.981 176.84 244.211C176.46 244.451 176.12 244.751 175.83 245.111L175.05 244.341C175.48 243.861 175.95 243.471 176.45 243.191C176.95 242.901 177.55 242.761 178.24 242.761C178.89 242.761 179.45 242.891 179.91 243.151C180.37 243.411 180.74 243.781 181 244.261C181.26 244.741 181.39 245.301 181.39 245.931C181.39 246.651 181.21 247.381 180.85 248.111C180.49 248.851 179.99 249.601 179.36 250.361C178.73 251.121 177.99 251.901 177.14 252.701C177.43 252.681 177.72 252.661 178.03 252.631C178.34 252.611 178.63 252.591 178.91 252.591H181.91V253.761H175.11L175.1 253.771Z" fill="#5780A2"/>
<path d="M184.34 247.08H189.68V248.05H184.34V247.08ZM185.04 242.01H189.32V245.92H185.04V242.01ZM185.74 247.48H186.7C186.6 247.98 186.5 248.51 186.38 249.06C186.27 249.61 186.16 250.08 186.05 250.46H185.06C185.18 250.05 185.3 249.57 185.42 249.01C185.54 248.46 185.65 247.95 185.74 247.48ZM185.84 249.55H188.5V250.46H185.61L185.85 249.55H185.84ZM188.11 249.55H189.08C189.07 249.78 189.06 249.93 189.05 250.01C188.98 250.96 188.91 251.74 188.84 252.33C188.77 252.92 188.68 253.38 188.59 253.7C188.5 254.02 188.38 254.25 188.24 254.4C188.13 254.53 188.01 254.62 187.88 254.67C187.75 254.72 187.58 254.76 187.39 254.78C187.24 254.78 187.04 254.79 186.77 254.78C186.5 254.78 186.22 254.77 185.93 254.76C185.93 254.61 185.89 254.45 185.85 254.27C185.81 254.09 185.74 253.94 185.67 253.81C185.96 253.84 186.22 253.86 186.47 253.86C186.72 253.86 186.89 253.86 187 253.86C187.11 253.86 187.2 253.86 187.27 253.85C187.34 253.83 187.41 253.79 187.47 253.72C187.57 253.63 187.65 253.44 187.73 253.15C187.8 252.86 187.87 252.44 187.94 251.88C188.01 251.32 188.07 250.59 188.12 249.69V249.53L188.11 249.55ZM185.9 242.85V245.08H188.44V242.85H185.9ZM190.31 244.29H191.3V248.05C191.3 248.56 191.28 249.12 191.25 249.72C191.22 250.32 191.14 250.93 191.04 251.55C190.93 252.17 190.78 252.77 190.58 253.35C190.38 253.93 190.12 254.47 189.8 254.96C189.74 254.9 189.66 254.83 189.56 254.75C189.46 254.67 189.36 254.6 189.26 254.53C189.16 254.46 189.06 254.41 188.97 254.37C189.38 253.76 189.68 253.08 189.87 252.34C190.06 251.6 190.18 250.86 190.23 250.11C190.28 249.37 190.31 248.68 190.31 248.05V244.29ZM192.48 249.91H193.42C193.39 250.7 193.31 251.41 193.19 252.04C193.07 252.67 192.86 253.23 192.57 253.71C192.28 254.19 191.87 254.59 191.34 254.93C191.27 254.81 191.18 254.68 191.06 254.53C190.94 254.38 190.83 254.27 190.72 254.19C191.18 253.92 191.53 253.59 191.77 253.18C192.01 252.77 192.18 252.29 192.28 251.75C192.38 251.2 192.44 250.59 192.47 249.91H192.48ZM190.81 244.29H197.27V245.2H190.81V244.29ZM191.61 246.67L196.04 246.23L196.13 247.03L191.72 247.49L191.62 246.68L191.61 246.67ZM193.16 245.3H194.13V247.79C194.13 247.98 194.15 248.11 194.18 248.19C194.21 248.27 194.31 248.31 194.47 248.31H196.06C196.19 248.31 196.34 248.31 196.52 248.3C196.7 248.3 196.85 248.27 196.96 248.24C196.96 248.38 196.98 248.52 197 248.66C197.02 248.8 197.03 248.94 197.05 249.07C196.95 249.1 196.81 249.12 196.64 249.13C196.46 249.13 196.29 249.14 196.11 249.14H194.31C194.01 249.14 193.77 249.09 193.6 249C193.43 248.91 193.32 248.76 193.25 248.56C193.19 248.36 193.15 248.1 193.15 247.79V245.31L193.16 245.3ZM193.23 241.37H194.28V244.76H193.23V241.37ZM193.73 242.39H197.27V243.3H193.73V242.39ZM194.68 249.91H195.62V253.33C195.62 253.33 195.62 253.43 195.63 253.47C195.63 253.51 195.67 253.55 195.72 253.57C195.78 253.62 195.89 253.64 196.04 253.64H196.54C196.62 253.64 196.7 253.64 196.77 253.63C196.84 253.62 196.89 253.6 196.92 253.57C197.03 253.51 197.09 253.4 197.11 253.25C197.13 253.13 197.14 252.94 197.15 252.67C197.16 252.4 197.17 252.1 197.17 251.77C197.26 251.86 197.38 251.94 197.55 252.03C197.72 252.12 197.86 252.18 198 252.23C197.99 252.57 197.97 252.91 197.95 253.23C197.93 253.55 197.89 253.78 197.84 253.91C197.79 254.05 197.73 254.16 197.66 254.25C197.59 254.34 197.5 254.42 197.39 254.49C197.3 254.53 197.18 254.56 197.04 254.59C196.89 254.61 196.75 254.63 196.63 254.63H195.82C195.66 254.63 195.51 254.61 195.35 254.59C195.19 254.56 195.06 254.5 194.95 254.4C194.84 254.3 194.77 254.18 194.73 254.04C194.69 253.9 194.67 253.66 194.67 253.32V249.93L194.68 249.91ZM196.99 244.29H197.14L197.32 244.25L198 244.43C197.9 244.86 197.8 245.32 197.69 245.79C197.58 246.26 197.47 246.66 197.37 246.98L196.53 246.79C196.62 246.49 196.71 246.11 196.8 245.68C196.89 245.24 196.96 244.83 197.01 244.45V244.3L196.99 244.29Z" fill="#5780A2"/>
<path d="M23.6299 195.64C24.0099 195.5 24.4499 195.33 24.9499 195.14C25.4399 194.94 25.9699 194.73 26.5299 194.5C27.0899 194.27 27.6399 194.03 28.1999 193.8L28.5399 195.13C27.7999 195.48 27.0599 195.84 26.3099 196.2C25.5599 196.56 24.8699 196.88 24.2299 197.16L23.6399 195.65L23.6299 195.64ZM23.9299 189.62H28.2599V191.03H23.9299V189.62ZM25.4799 186.51H26.8799V195.74H25.4799V186.51ZM27.7599 192L35.0999 188.89L35.6599 190.18L28.3199 193.33L27.7599 192ZM29.1899 187.67H30.6199V196.83C30.6199 197.09 30.6399 197.29 30.6899 197.42C30.7399 197.56 30.8299 197.65 30.9799 197.69C31.1299 197.74 31.3499 197.76 31.6399 197.76H34.5499C34.8099 197.76 35.0099 197.71 35.1399 197.61C35.2699 197.51 35.3699 197.33 35.4299 197.07C35.4899 196.81 35.5399 196.43 35.5699 195.94C35.7399 196.06 35.9499 196.17 36.2099 196.28C36.4699 196.38 36.6999 196.45 36.8999 196.49C36.8299 197.15 36.7299 197.67 36.5799 198.05C36.4299 198.43 36.2099 198.7 35.9099 198.86C35.6099 199.02 35.1999 199.1 34.6599 199.1H31.5199C30.9199 199.1 30.4499 199.03 30.1099 198.9C29.7599 198.77 29.5199 198.54 29.3899 198.21C29.2499 197.88 29.1899 197.41 29.1899 196.8V187.66V187.67ZM31.9899 186.33H33.3999V196.17H31.9899V186.33ZM34.7399 189.27H34.5899L35.1099 188.89L36.2399 189.25L36.1799 189.47C36.1499 190.12 36.1099 190.82 36.0499 191.57C35.9899 192.32 35.9199 193.05 35.8399 193.77C35.7599 194.49 35.6599 195.12 35.5399 195.67L34.3199 195.32C34.3799 194.95 34.4299 194.51 34.4699 194.03C34.5199 193.54 34.5599 193.02 34.5899 192.47C34.6199 191.92 34.6499 191.37 34.6699 190.82C34.6899 190.27 34.7099 189.75 34.7299 189.27H34.7399Z" fill="white"/>
<path d="M43.7899 196.21L44.7999 196.57C44.7199 197 44.5999 197.46 44.4599 197.96C44.3199 198.45 44.1499 198.87 43.9399 199.21L42.8999 198.78C43.0399 198.56 43.1699 198.3 43.2799 198.01C43.3899 197.72 43.4899 197.42 43.5799 197.1C43.6699 196.78 43.7399 196.49 43.7799 196.22L43.7899 196.21ZM43.2199 194.66H49.5299V195.79H43.2199V194.66ZM43.4899 192.68H49.3399V193.83H43.4899V192.68ZM43.4999 186.77H49.3399V191.98H43.4999V186.77ZM44.6299 187.79V190.95H48.1599V187.79H44.6299ZM44.6799 188.43L45.3199 188.25C45.4299 188.58 45.5299 188.93 45.6099 189.31C45.6899 189.69 45.7499 190.02 45.7599 190.29L45.0699 190.5C45.0699 190.22 45.0199 189.89 44.9399 189.5C44.8599 189.11 44.7699 188.76 44.6599 188.43H44.6799ZM45.1199 196.57L46.0599 196.47C46.1299 196.85 46.1899 197.27 46.2199 197.73C46.2499 198.19 46.2599 198.58 46.2599 198.92L45.2799 199.03C45.2999 198.69 45.2899 198.3 45.2699 197.84C45.2499 197.38 45.1999 196.96 45.1299 196.57H45.1199ZM45.9099 187.29H46.8299V191.5H47.0299V195.14H45.7099V191.5H45.9099V187.29ZM46.5499 196.56L47.4499 196.39C47.5899 196.75 47.7199 197.15 47.8299 197.57C47.9399 197.99 48.0199 198.37 48.0599 198.68L47.1099 198.88C47.0799 198.56 47.0099 198.19 46.9099 197.75C46.7999 197.32 46.6799 196.92 46.5499 196.55V196.56ZM47.4499 188.22L48.2199 188.5C48.0899 188.85 47.9599 189.21 47.8299 189.58C47.6999 189.96 47.5699 190.28 47.4499 190.54L46.8799 190.33C46.9499 190.13 47.0199 189.91 47.0899 189.66C47.1599 189.41 47.2399 189.16 47.2999 188.9C47.3699 188.64 47.4199 188.41 47.4499 188.21V188.22ZM47.9699 196.53L48.8799 196.21C49.0899 196.55 49.2799 196.92 49.4699 197.33C49.6599 197.74 49.7899 198.1 49.8599 198.42L48.8899 198.78C48.8199 198.47 48.6999 198.11 48.5299 197.68C48.3499 197.26 48.1699 196.87 47.9699 196.53ZM49.8999 192.96H55.5699V199.33H54.1399V194.32H51.2699V199.39H49.8999V192.96ZM50.6099 197.44H54.8099V198.81H50.6099V197.44ZM51.8199 186.35H53.2799V193.34H51.8199V186.35ZM52.6799 189.28H56.0699V190.67H52.6799V189.28Z" fill="white"/>
<path d="M8.06002 204.48H8.01002L2.36002 194.87C0.770018 191.72 -0.849982 188.77 0.500018 185.18C2.88002 178.86 11.56 177.88 15.33 183.49C17.6 186.86 16.81 189.88 15.03 193.2L8.06002 204.48Z" fill="#E86174"/>
<path d="M7.94989 184.09C4.89989 184.36 3.38989 188.03 5.36989 190.38C7.19989 192.55 10.7099 192.03 11.8299 189.43C12.9499 186.83 10.8499 183.82 7.94989 184.08V184.09Z" fill="white"/>
<path d="M63.2796 277.271H15.0096C14.9996 279.371 14.6496 282.791 12.5796 283.491C12.5796 283.491 16.7096 283.711 17.0396 289.431C17.1996 292.231 17.2696 294.461 17.3596 297.171H63.2796V277.271Z" fill="#5780A2"/>
<path d="M88.0498 278.11L89.8998 279.39C89.3798 280.12 88.7598 280.85 88.0398 281.58C87.3198 282.31 86.5398 283.02 85.6998 283.7C84.8698 284.38 84.0098 285.01 83.1398 285.59C82.2698 286.17 81.4098 286.67 80.5698 287.07C80.3898 286.76 80.1498 286.41 79.8598 286.02C79.5698 285.63 79.2898 285.3 79.0098 285.03C79.8398 284.69 80.6898 284.27 81.5598 283.76C82.4298 283.25 83.2698 282.68 84.0898 282.06C84.9098 281.44 85.6498 280.79 86.3198 280.11C86.9898 279.43 87.5698 278.77 88.0498 278.11ZM80.1598 294.49H98.1598V296.74H80.1598V294.49ZM82.2398 289.73H95.8798V291.92H82.2398V289.73ZM83.1698 278.11H90.2198V280.45H83.1698V278.11ZM83.2498 285.08H94.8498V287.31H83.2498V285.08ZM87.6498 278.11H90.4298C90.8798 278.78 91.4198 279.44 92.0498 280.09C92.6798 280.74 93.3798 281.35 94.1498 281.94C94.9198 282.53 95.7398 283.07 96.5898 283.55C97.4498 284.03 98.3198 284.44 99.2198 284.76C99.0498 284.94 98.8598 285.17 98.6398 285.44C98.4198 285.71 98.2098 285.99 98.0098 286.28C97.8098 286.57 97.6398 286.83 97.5198 287.07C96.2998 286.49 95.1198 285.8 93.9698 284.98C92.8298 284.16 91.7698 283.27 90.8098 282.33C89.8498 281.38 89.0098 280.44 88.2898 279.5H87.6398V278.11H87.6498ZM87.6898 286.07H90.3398V295.73H87.6898V286.07Z" fill="#003E7E"/>
<path d="M101.75 285.12L103.12 283.2C103.54 283.35 103.98 283.54 104.45 283.75C104.91 283.96 105.35 284.19 105.77 284.43C106.18 284.68 106.52 284.91 106.79 285.14L105.34 287.24C105.09 287 104.76 286.75 104.36 286.49C103.96 286.23 103.53 285.98 103.08 285.74C102.62 285.5 102.19 285.29 101.76 285.11L101.75 285.12ZM102.28 295.5C102.6 294.95 102.96 294.31 103.35 293.57C103.74 292.83 104.14 292.05 104.55 291.21C104.96 290.38 105.33 289.54 105.67 288.72L107.67 290.24C107.36 291 107.03 291.77 106.68 292.54C106.33 293.32 105.97 294.08 105.62 294.83C105.27 295.58 104.9 296.3 104.54 296.99L102.29 295.5H102.28ZM102.85 279.44L104.26 277.55C104.67 277.7 105.11 277.9 105.58 278.13C106.05 278.36 106.49 278.6 106.91 278.86C107.32 279.11 107.66 279.36 107.93 279.6L106.46 281.68C106.22 281.43 105.9 281.17 105.49 280.9C105.08 280.63 104.65 280.37 104.18 280.1C103.72 279.83 103.28 279.62 102.85 279.45V279.44ZM110.59 284.97L112.76 285.69C112.42 286.48 112.02 287.25 111.55 288.01C111.08 288.77 110.56 289.47 110 290.1C109.44 290.74 108.85 291.28 108.23 291.73C108.1 291.53 107.94 291.32 107.74 291.08C107.54 290.84 107.33 290.61 107.12 290.39C106.91 290.17 106.71 289.98 106.51 289.84C107.07 289.49 107.61 289.05 108.13 288.53C108.65 288.01 109.12 287.44 109.55 286.83C109.98 286.21 110.33 285.6 110.59 284.98V284.97ZM106.99 283.5H121.62V285.77H106.99V283.5ZM107.82 279.65H121V281.9H107.82V279.65ZM110.13 287.44H112.44V294.01C112.44 294.4 112.52 294.66 112.69 294.77C112.86 294.88 113.24 294.94 113.85 294.94H117.51C117.85 294.94 118.1 294.89 118.26 294.78C118.42 294.67 118.54 294.47 118.61 294.16C118.68 293.85 118.74 293.39 118.78 292.77C119.05 292.95 119.39 293.13 119.81 293.3C120.23 293.47 120.6 293.59 120.93 293.66C120.83 294.56 120.67 295.26 120.46 295.75C120.24 296.25 119.92 296.6 119.48 296.8C119.04 297 118.46 297.11 117.71 297.11H113.63C112.73 297.11 112.03 297.02 111.51 296.85C111 296.67 110.64 296.36 110.44 295.91C110.24 295.46 110.13 294.84 110.13 294.04V287.45V287.44ZM110.43 277.48H112.87V285.1H110.43V277.48ZM111.23 287.44H118.09V292.58H111.23V290.69H115.84V289.32H111.23V287.45V287.44ZM115.79 277.48H118.27V285.12H115.79V277.48ZM118.02 284.91C118.29 285.49 118.63 286.06 119.04 286.65C119.45 287.23 119.92 287.77 120.44 288.25C120.96 288.73 121.49 289.14 122.02 289.46C121.84 289.6 121.63 289.79 121.4 290.02C121.17 290.25 120.95 290.5 120.75 290.76C120.55 291.02 120.38 291.25 120.26 291.44C119.66 291.02 119.08 290.5 118.54 289.88C118 289.26 117.5 288.59 117.06 287.86C116.61 287.13 116.23 286.39 115.9 285.63L118.03 284.91H118.02Z" fill="#003E7E"/>
<path d="M124.72 280.32H144.04V282.8H124.72V280.32ZM126.51 285.14H140.38V287.62H129.06V295.05H126.51V285.14ZM132.13 278.01L134.63 277.23C134.91 277.73 135.21 278.29 135.52 278.9C135.84 279.51 136.07 280.03 136.23 280.45L133.58 281.33C133.5 281.05 133.37 280.72 133.21 280.33C133.05 279.94 132.87 279.54 132.68 279.13C132.49 278.72 132.3 278.34 132.12 278L132.13 278.01ZM132.95 282.05H135.58V297.12H132.95V282.05ZM139.79 285.14H142.42V292.3C142.42 292.92 142.34 293.41 142.18 293.77C142.02 294.14 141.72 294.42 141.29 294.63C140.84 294.81 140.31 294.93 139.7 294.98C139.09 295.03 138.37 295.05 137.54 295.05C137.48 294.67 137.37 294.25 137.2 293.78C137.03 293.31 136.86 292.91 136.7 292.57C137.05 292.58 137.41 292.59 137.76 292.6C138.12 292.6 138.44 292.61 138.73 292.61H139.33C139.5 292.61 139.62 292.58 139.69 292.53C139.76 292.47 139.79 292.38 139.79 292.26V285.15V285.14Z" fill="#003E7E"/>
<path d="M148.78 297.351C148.72 297.131 148.63 296.871 148.51 296.591C148.38 296.311 148.24 296.041 148.09 295.771C147.94 295.501 147.79 295.291 147.65 295.121C147.9 294.971 148.15 294.741 148.4 294.451C148.65 294.161 148.77 293.771 148.77 293.291V278.431H151.4V295.041C151.05 295.241 150.75 295.421 150.5 295.581C150.25 295.741 149.99 295.921 149.72 296.131C149.45 296.331 149.23 296.541 149.06 296.751C148.88 296.961 148.8 297.161 148.8 297.361L148.78 297.351ZM148.78 297.351L148.59 295.181L149.75 294.361L156.65 292.781C156.66 293.001 156.68 293.271 156.7 293.571C156.72 293.871 156.75 294.171 156.79 294.451C156.83 294.731 156.87 294.981 156.92 295.181C155.63 295.491 154.54 295.751 153.66 295.971C152.78 296.191 152.05 296.371 151.47 296.521C150.89 296.671 150.43 296.791 150.09 296.891C149.75 296.991 149.48 297.071 149.28 297.141C149.08 297.211 148.92 297.281 148.78 297.351ZM150.1 278.431H164.16V285.311H150.1V282.971H161.59V280.761H150.1V278.421V278.431ZM150.14 287.691H165.65V290.051H150.14V287.691ZM156 284.911H158.61C158.68 286.171 158.87 287.381 159.17 288.531C159.47 289.681 159.84 290.711 160.27 291.601C160.7 292.491 161.17 293.201 161.66 293.721C162.15 294.231 162.62 294.491 163.07 294.491C163.34 294.491 163.53 294.261 163.66 293.781C163.79 293.311 163.88 292.541 163.93 291.471C164.21 291.721 164.56 291.961 164.97 292.201C165.38 292.431 165.77 292.601 166.12 292.691C165.99 293.861 165.8 294.751 165.54 295.371C165.28 295.991 164.94 296.421 164.52 296.641C164.1 296.861 163.57 296.981 162.94 296.981C162.01 296.981 161.15 296.661 160.35 296.011C159.55 295.361 158.85 294.481 158.23 293.361C157.62 292.241 157.12 290.951 156.74 289.501C156.35 288.051 156.1 286.511 155.99 284.901L156 284.911Z" fill="#003E7E"/>
<path d="M23.8296 291.81C24.4296 291.75 25.1096 291.67 25.8896 291.6C26.6596 291.53 27.4796 291.44 28.3396 291.34C29.1996 291.24 30.0496 291.15 30.8996 291.05L30.9296 292.35C30.1196 292.45 29.2996 292.56 28.4696 292.66C27.6396 292.76 26.8496 292.86 26.0896 292.95C25.3296 293.04 24.6496 293.12 24.0296 293.2L23.8296 291.81ZM23.8696 283.69H30.8996V284.94H23.8696V283.69ZM23.9396 281.76L24.8496 281.16C25.0896 281.41 25.3296 281.69 25.5696 282C25.8096 282.31 25.9796 282.58 26.0896 282.83L25.1196 283.5C25.0196 283.26 24.8496 282.97 24.6296 282.65C24.4096 282.33 24.1696 282.03 23.9296 281.77L23.9396 281.76ZM24.2896 286.77H30.5096V288H24.2896V286.77ZM24.5896 289.07H30.2896V290.29H24.5896V289.07ZM24.9496 285.33L25.9896 284.77C26.1996 284.99 26.3996 285.25 26.6096 285.53C26.8196 285.81 26.9596 286.07 27.0596 286.29L25.9496 286.91C25.8796 286.69 25.7396 286.43 25.5396 286.13C25.3396 285.84 25.1496 285.57 24.9496 285.32V285.33ZM25.8296 280.7H27.0196V284.1H25.8296V280.7ZM26.7096 287.15H28.1096V292.22H26.7096V287.15ZM28.6696 284.84L29.9696 285.29C29.7696 285.65 29.5796 286.02 29.3796 286.39C29.1796 286.76 28.9996 287.07 28.8196 287.33L27.7296 286.92C27.8296 286.72 27.9396 286.5 28.0696 286.26C28.1896 286.02 28.3096 285.77 28.4096 285.52C28.5196 285.27 28.5996 285.04 28.6696 284.83V284.84ZM27.7796 280.7H28.9796V284.1H27.7796V280.7ZM29.9096 281.2L31.0896 281.86C30.8096 282.16 30.5296 282.46 30.2596 282.76C29.9896 283.06 29.7296 283.32 29.4996 283.54L28.5996 282.98C28.7396 282.82 28.8896 282.64 29.0596 282.43C29.2296 282.22 29.3796 282.01 29.5396 281.79C29.6996 281.57 29.8196 281.37 29.9296 281.2H29.9096ZM30.9096 284.29H36.6396V285.69H30.9096V284.29ZM31.1396 287L32.3896 286.58C32.5796 286.92 32.7496 287.27 32.9096 287.64C33.0696 288.01 33.2096 288.38 33.3196 288.74C33.4296 289.1 33.5096 289.42 33.5496 289.71L32.2196 290.19C32.1796 289.9 32.1096 289.57 31.9996 289.21C31.8896 288.85 31.7696 288.47 31.6196 288.08C31.4696 287.69 31.3096 287.33 31.1396 287ZM34.0396 280.71H35.4996V292.02C35.4996 292.42 35.4496 292.73 35.3596 292.95C35.2696 293.17 35.0896 293.33 34.8396 293.45C34.6096 293.57 34.2996 293.65 33.9296 293.69C33.5596 293.73 33.0896 293.75 32.5296 293.75C32.5096 293.62 32.4696 293.47 32.4196 293.29C32.3596 293.12 32.2996 292.94 32.2296 292.77C32.1596 292.6 32.0896 292.45 32.0096 292.31C32.3896 292.31 32.7496 292.33 33.0696 292.33C33.3896 292.33 33.6096 292.33 33.7196 292.33C33.8396 292.33 33.9296 292.31 33.9696 292.27C34.0196 292.23 34.0396 292.15 34.0396 292.02V280.71Z" fill="white"/>
<path d="M47.0597 280.63L48.6297 280.95C48.0897 281.71 47.4597 282.44 46.7297 283.15C46.0097 283.86 45.1497 284.52 44.1497 285.12C44.0797 285 43.9897 284.87 43.8797 284.73C43.7597 284.59 43.6397 284.47 43.5197 284.35C43.3897 284.23 43.2697 284.13 43.1597 284.06C43.7697 283.73 44.3197 283.38 44.8197 282.99C45.3197 282.6 45.7597 282.21 46.1397 281.8C46.5197 281.39 46.8297 281 47.0697 280.63H47.0597ZM49.7397 289.24L50.7897 289.8C50.3897 290.15 49.9197 290.5 49.3897 290.82C48.8597 291.15 48.2897 291.45 47.6997 291.73C47.0997 292.01 46.4897 292.26 45.8697 292.49C45.2497 292.71 44.6497 292.91 44.0697 293.06C43.9797 292.89 43.8497 292.7 43.6797 292.48C43.5197 292.26 43.3697 292.09 43.2297 291.96C43.8097 291.84 44.3997 291.68 45.0097 291.49C45.6197 291.3 46.2197 291.08 46.8197 290.85C47.4097 290.61 47.9597 290.36 48.4597 290.08C48.9597 289.81 49.3897 289.53 49.7397 289.25V289.24ZM49.0297 287.85L50.0397 288.37C49.6897 288.64 49.2897 288.9 48.8297 289.15C48.3697 289.4 47.8797 289.64 47.3697 289.85C46.8597 290.06 46.3297 290.26 45.7997 290.43C45.2697 290.6 44.7497 290.74 44.2597 290.86C44.1697 290.7 44.0397 290.52 43.8897 290.32C43.7397 290.12 43.5897 289.95 43.4497 289.81C43.9397 289.73 44.4597 289.62 44.9797 289.48C45.4997 289.34 46.0197 289.19 46.5297 289.02C47.0297 288.85 47.4997 288.66 47.9297 288.46C48.3597 288.26 48.7297 288.06 49.0397 287.85H49.0297ZM48.8497 286.25L49.7897 286.78C49.4597 287 49.0897 287.22 48.6597 287.42C48.2297 287.63 47.7797 287.82 47.2897 288.01C46.8097 288.2 46.3297 288.37 45.8497 288.52C45.3697 288.67 44.9097 288.79 44.4797 288.88C44.3897 288.74 44.2697 288.57 44.1197 288.37C43.9697 288.17 43.8297 288 43.6997 287.87C44.2797 287.77 44.8897 287.63 45.5397 287.46C46.1897 287.29 46.8097 287.1 47.3897 286.89C47.9697 286.68 48.4597 286.46 48.8497 286.23V286.25ZM44.7197 283.57H54.5197V286.94H44.7197V283.57ZM46.1297 284.66V285.84H53.0297V284.66H46.1297ZM46.9297 281.58H51.0497V282.71H46.9297V281.58ZM47.2897 287.39L48.2797 286.65C49.0497 287.07 49.6797 287.53 50.1697 288.04C50.6597 288.54 51.0297 289.06 51.2697 289.59C51.5097 290.12 51.6397 290.62 51.6597 291.1C51.6797 291.58 51.6097 292.02 51.4297 292.4C51.2497 292.78 50.9897 293.08 50.6497 293.29C50.3897 293.47 50.1397 293.59 49.8897 293.65C49.6497 293.71 49.3497 293.74 49.0097 293.74C48.8397 293.74 48.6497 293.74 48.4397 293.74C48.2297 293.74 48.0097 293.73 47.7897 293.72C47.7897 293.51 47.7397 293.29 47.6697 293.03C47.5997 292.77 47.4997 292.55 47.3697 292.36C47.6297 292.39 47.8797 292.4 48.1297 292.41C48.3697 292.41 48.5797 292.41 48.7597 292.41C48.9497 292.41 49.1197 292.4 49.2797 292.37C49.4397 292.34 49.5797 292.28 49.7097 292.19C49.9597 292.03 50.1197 291.78 50.1897 291.43C50.2497 291.08 50.2097 290.68 50.0397 290.23C49.8797 289.77 49.5697 289.3 49.1297 288.8C48.6897 288.31 48.0697 287.84 47.2897 287.4V287.39ZM48.7897 284.04H50.1297V286.25H48.7897V284.04ZM50.4597 281.58H50.7997L51.0397 281.51L52.0597 282.18C51.8897 282.44 51.6997 282.72 51.4797 283.02C51.2597 283.32 51.0297 283.6 50.7897 283.87C50.5497 284.14 50.3197 284.38 50.0997 284.58C49.9697 284.47 49.7997 284.34 49.5797 284.2C49.3597 284.06 49.1797 283.95 49.0197 283.86C49.2097 283.67 49.3997 283.46 49.5897 283.22C49.7797 282.98 49.9497 282.74 50.1097 282.49C50.2597 282.24 50.3797 282.02 50.4697 281.85V281.57L50.4597 281.58ZM53.7097 287.02L54.9297 287.94C54.5097 288.16 54.0697 288.38 53.5997 288.59C53.1297 288.8 52.6697 289 52.2097 289.18C51.7497 289.37 51.3197 289.53 50.9197 289.66L49.9697 288.82C50.3597 288.68 50.7897 288.51 51.2397 288.3C51.6997 288.09 52.1397 287.88 52.5797 287.65C53.0097 287.42 53.3897 287.21 53.7197 287.01L53.7097 287.02ZM52.7097 288.2C52.8697 288.64 53.0997 289.1 53.3997 289.57C53.6997 290.05 54.0697 290.49 54.5097 290.91C54.9497 291.33 55.4597 291.66 56.0397 291.91C55.9397 292 55.8197 292.12 55.6897 292.27C55.5597 292.42 55.4397 292.58 55.3197 292.74C55.1997 292.9 55.1097 293.05 55.0497 293.2C54.4497 292.88 53.9197 292.47 53.4597 291.97C52.9997 291.47 52.6097 290.94 52.2997 290.37C51.9897 289.81 51.7397 289.27 51.5497 288.77L52.7097 288.2Z" fill="white"/>
<path d="M7.91001 274.99C4.52001 275.29 2.85001 279.37 5.05001 281.98C7.08001 284.39 10.98 283.81 12.22 280.93C13.46 278.05 11.14 274.7 7.91001 274.99Z" fill="#E86174"/>
<path d="M7.17978 284.511H9.53979C12.5298 284.511 14.9498 286.931 14.9498 289.921V297.181H1.77979V289.921C1.77979 286.931 4.19978 284.511 7.18979 284.511H7.17978Z" fill="#E86174"/>
<path d="M0.689941 307.14H198.26" stroke="#003E7E" stroke-miterlimit="10"/>
<path d="M4.38018 162.39C3.69018 161.27 3.15018 160.09 2.76018 158.86C2.37018 157.62 2.18018 156.27 2.18018 154.79C2.18018 153.31 2.38018 151.97 2.76018 150.73C3.15018 149.49 3.69018 148.31 4.38018 147.19L5.22018 147.58C4.58018 148.65 4.10018 149.8 3.79018 151.04C3.48018 152.28 3.32018 153.53 3.32018 154.8C3.32018 156.07 3.48018 157.34 3.79018 158.57C4.10018 159.8 4.58018 160.96 5.22018 162.03L4.38018 162.41V162.39Z" fill="#567C9C"/>
<path d="M11.8503 147.29L13.0503 147.62C12.7203 148.44 12.3303 149.23 11.8703 150C11.4103 150.77 10.9303 151.47 10.4103 152.12C9.89025 152.77 9.35025 153.35 8.79025 153.85C8.72025 153.77 8.62025 153.68 8.50025 153.58C8.38025 153.48 8.25025 153.38 8.11025 153.28C7.97025 153.18 7.86025 153.1 7.76025 153.04C8.33025 152.59 8.87025 152.06 9.38025 151.46C9.89025 150.86 10.3603 150.2 10.7803 149.49C11.2003 148.78 11.5603 148.05 11.8503 147.3V147.29ZM9.41025 159.66C9.39025 159.58 9.35025 159.47 9.31025 159.32C9.26025 159.17 9.21025 159.02 9.15025 158.86C9.10025 158.7 9.04025 158.57 8.98025 158.47C9.18025 158.42 9.39025 158.28 9.60025 158.07C9.81025 157.85 10.0603 157.57 10.3403 157.22C10.4803 157.05 10.6903 156.77 10.9803 156.39C11.2703 156.01 11.5803 155.54 11.9303 155.01C12.2803 154.47 12.6303 153.9 12.9903 153.28C13.3403 152.66 13.6703 152.05 13.9703 151.43L15.2003 151.95C14.7203 152.82 14.2103 153.68 13.6803 154.53C13.1403 155.38 12.5903 156.18 12.0303 156.94C11.4603 157.7 10.8903 158.37 10.3103 158.97V159.01C10.1303 159.09 9.98025 159.16 9.87025 159.23C9.75025 159.29 9.65025 159.36 9.56025 159.44C9.46025 159.51 9.42025 159.59 9.42025 159.66H9.41025ZM9.41025 159.66L9.39025 158.72L10.1803 158.27L18.6003 157.79C18.6303 157.95 18.6703 158.14 18.7203 158.35C18.7703 158.56 18.8103 158.73 18.8403 158.86C17.5003 158.95 16.3503 159.03 15.3803 159.1C14.4103 159.17 13.6003 159.23 12.9403 159.27C12.2803 159.31 11.7403 159.35 11.3203 159.39C10.9003 159.43 10.5703 159.46 10.3203 159.49C10.0703 159.52 9.88025 159.55 9.75025 159.58C9.62025 159.61 9.50025 159.64 9.41025 159.67V159.66ZM16.9703 147.17C17.2203 147.69 17.5203 148.22 17.8703 148.76C18.2203 149.3 18.6003 149.82 19.0003 150.33C19.4103 150.84 19.8203 151.31 20.2403 151.75C20.6603 152.19 21.0603 152.56 21.4503 152.88C21.3503 152.95 21.2403 153.04 21.1303 153.16C21.0203 153.28 20.9003 153.39 20.7903 153.51C20.6803 153.62 20.5803 153.74 20.5103 153.85C20.1203 153.48 19.7103 153.06 19.2903 152.58C18.8603 152.1 18.4503 151.59 18.0403 151.04C17.6303 150.49 17.2403 149.93 16.8703 149.35C16.5003 148.77 16.1703 148.19 15.8803 147.62L16.9803 147.17H16.9703ZM16.1603 155.34L17.2103 154.86C17.6603 155.39 18.1103 155.96 18.5703 156.58C19.0303 157.2 19.4503 157.79 19.8503 158.38C20.2503 158.96 20.5803 159.49 20.8303 159.95L19.7203 160.55C19.4803 160.09 19.1603 159.56 18.7703 158.95C18.3803 158.34 17.9503 157.73 17.5003 157.1C17.0403 156.47 16.6003 155.89 16.1703 155.35L16.1603 155.34Z" fill="#567C9C"/>
<path d="M26.7803 154.35H27.8903C27.7803 154.82 27.6403 155.31 27.4703 155.83C27.3003 156.35 27.0703 156.85 26.7903 157.35C26.5103 157.85 26.1603 158.32 25.7503 158.76C25.3403 159.2 24.8303 159.58 24.2403 159.9C24.1903 159.82 24.1203 159.73 24.0503 159.62C23.9703 159.52 23.8903 159.41 23.8003 159.31C23.7203 159.21 23.6303 159.13 23.5503 159.07C24.0803 158.81 24.5303 158.49 24.9103 158.09C25.2903 157.69 25.6003 157.29 25.8403 156.85C26.0803 156.41 26.2803 155.98 26.4303 155.54C26.5803 155.1 26.7003 154.7 26.7803 154.34V154.35ZM36.0003 152.1L36.8303 152.91C36.0603 153.05 35.1903 153.17 34.2103 153.28C33.2403 153.38 32.2203 153.47 31.1503 153.54C30.0803 153.61 29.0303 153.67 27.9803 153.71C26.9303 153.75 25.9603 153.78 25.0503 153.8C25.0103 153.71 24.9503 153.6 24.8703 153.46C24.7903 153.33 24.7103 153.19 24.6203 153.06C24.5403 152.93 24.4603 152.83 24.3903 152.75C25.3403 152.76 26.3503 152.75 27.4103 152.73C28.4703 152.71 29.5203 152.67 30.5703 152.61C31.6203 152.55 32.6103 152.47 33.5503 152.38C34.4903 152.29 35.3103 152.19 36.0103 152.09L36.0003 152.1ZM24.6803 147.42H36.5603V151.39H24.6803V147.42ZM25.7603 148.43V150.41H28.2203V148.43H25.7603ZM26.6003 156.74L27.2003 156.03C27.4903 156.23 27.7903 156.46 28.0903 156.7C28.3903 156.95 28.6803 157.2 28.9403 157.45C29.2003 157.7 29.4203 157.93 29.5903 158.13L28.9603 158.92C28.8003 158.71 28.5903 158.48 28.3203 158.22C28.0503 157.97 27.7703 157.71 27.4703 157.44C27.1703 157.17 26.8703 156.94 26.5803 156.73L26.6003 156.74ZM29.2503 148.43V150.41H31.8003V148.43H29.2503ZM30.0603 153.57L30.7203 152.89L31.1703 153.03V160.84H30.0603V153.57ZM34.1603 154.08H35.2703C35.1803 154.57 35.0603 155.08 34.9003 155.62C34.7403 156.16 34.5403 156.69 34.2803 157.2C34.0303 157.72 33.7003 158.2 33.3203 158.66C32.9303 159.12 32.4603 159.51 31.8903 159.85C31.8203 159.71 31.7103 159.56 31.5703 159.39C31.4203 159.22 31.2903 159.09 31.1603 159C31.6803 158.72 32.1103 158.38 32.4703 157.99C32.8203 157.59 33.1003 157.17 33.3203 156.72C33.5403 156.26 33.7103 155.81 33.8403 155.35C33.9703 154.89 34.0703 154.47 34.1503 154.08H34.1603ZM32.8403 148.43V150.41H35.4303V148.43H32.8403ZM34.6703 155.79C34.8303 156.11 35.0603 156.47 35.3503 156.86C35.6403 157.25 35.9703 157.63 36.3303 157.99C36.6903 158.35 37.0803 158.66 37.4803 158.91C37.4003 158.97 37.3103 159.05 37.2303 159.14C37.1403 159.24 37.0503 159.34 36.9703 159.45C36.8903 159.56 36.8103 159.66 36.7503 159.74C36.3503 159.46 35.9603 159.12 35.5903 158.7C35.2203 158.28 34.8903 157.87 34.5903 157.45C34.3003 157.03 34.0703 156.65 33.9103 156.32L34.6703 155.79Z" fill="#567C9C"/>
<path d="M40.3804 147.83H41.4304V158.93H40.3804V147.83ZM40.9204 147.83H44.6704V157.7H40.9204V156.68H43.6104V148.87H40.9204V147.83ZM40.9704 152.19H44.1004V153.21H40.9704V152.19ZM44.9304 151.55H53.7004V152.57H44.9304V151.55ZM45.0004 154.26H53.5504V155.26H45.0004V154.26ZM45.5604 148.64H53.0804V149.64H45.5604V148.64ZM45.9204 156.32L46.8204 155.79C47.0704 156.04 47.3204 156.32 47.5804 156.63C47.8404 156.94 48.0804 157.24 48.2904 157.55C48.5004 157.85 48.6704 158.12 48.7804 158.37L47.8204 158.95C47.7104 158.7 47.5504 158.42 47.3504 158.12C47.1404 157.82 46.9204 157.51 46.6704 157.19C46.4204 156.87 46.1704 156.58 45.9204 156.31V156.32ZM50.6904 152.4H51.8004V159.32C51.8004 159.64 51.7504 159.89 51.6604 160.06C51.5704 160.23 51.4104 160.36 51.1804 160.44C50.9404 160.53 50.6204 160.58 50.2404 160.6C49.8504 160.62 49.3504 160.63 48.7404 160.63C48.7204 160.48 48.6704 160.3 48.6004 160.1C48.5304 159.9 48.4504 159.72 48.3704 159.57C48.8304 159.57 49.2504 159.59 49.6304 159.59C50.0104 159.59 50.2604 159.59 50.3804 159.59C50.5004 159.59 50.5804 159.57 50.6304 159.53C50.6704 159.49 50.7004 159.41 50.7004 159.3V152.4H50.6904ZM48.7104 146.84H49.8204V152.18H48.7104V146.84Z" fill="#567C9C"/>
<path d="M55.8604 157.1C56.3604 157.04 56.9304 156.96 57.5804 156.87C58.2304 156.78 58.9104 156.67 59.6404 156.56C60.3704 156.45 61.1004 156.34 61.8304 156.23L61.8904 157.21C60.8504 157.39 59.8104 157.56 58.7904 157.73C57.7704 157.9 56.8504 158.05 56.0604 158.19L55.8703 157.11L55.8604 157.1ZM57.1404 148.19L58.2404 148.57V160.45H57.1404V148.19ZM61.1104 146.76L62.0404 147.61C61.6204 147.79 61.1604 147.97 60.6404 148.14C60.1304 148.32 59.6104 148.48 59.0804 148.63C58.5504 148.78 58.0303 148.92 57.5303 149.05C57.5003 148.93 57.4504 148.79 57.3604 148.61C57.2804 148.44 57.2104 148.3 57.1504 148.17C57.6204 148.04 58.1004 147.9 58.5904 147.74C59.0804 147.58 59.5404 147.42 59.9804 147.24C60.4204 147.07 60.7904 146.9 61.0904 146.74L61.1104 146.76ZM57.5704 150.51H61.6104V151.51H57.5704V150.51ZM57.5704 153.57H61.5904V154.59H57.5704V153.57ZM67.5504 153.66H67.7703L67.9704 153.62L68.6804 153.87C68.3604 155.19 67.8704 156.3 67.2204 157.2C66.5704 158.1 65.7804 158.83 64.8704 159.39C63.9604 159.95 62.9603 160.39 61.8703 160.71C61.8303 160.61 61.7804 160.5 61.7104 160.38C61.6504 160.26 61.5804 160.14 61.5004 160.03C61.4304 159.91 61.3504 159.82 61.2704 159.75C62.2904 159.5 63.2304 159.13 64.0804 158.63C64.9304 158.13 65.6604 157.49 66.2604 156.7C66.8604 155.91 67.3003 154.96 67.5603 153.84V153.66H67.5504ZM63.4403 147.41H64.4903V149.25C64.4903 149.69 64.4404 150.16 64.3304 150.66C64.2204 151.16 64.0304 151.64 63.7504 152.11C63.4704 152.57 63.0603 152.99 62.5103 153.36C62.4603 153.29 62.3904 153.21 62.2904 153.11C62.1904 153.01 62.1004 152.92 61.9904 152.84C61.8804 152.76 61.7904 152.69 61.7104 152.64C62.2104 152.3 62.5804 151.94 62.8304 151.55C63.0804 151.17 63.2404 150.77 63.3204 150.36C63.4004 149.96 63.4403 149.57 63.4403 149.21V147.4V147.41ZM62.3703 153.66H67.7904V154.64H62.3703V153.66ZM63.7803 154.55C64.1103 155.39 64.5604 156.15 65.1204 156.83C65.6804 157.51 66.3604 158.09 67.1504 158.58C67.9304 159.06 68.8103 159.42 69.7803 159.65C69.7003 159.73 69.6103 159.83 69.5203 159.94C69.4203 160.06 69.3403 160.17 69.2703 160.29C69.1903 160.41 69.1304 160.52 69.0704 160.6C67.5704 160.17 66.3004 159.45 65.2604 158.45C64.2204 157.45 63.4304 156.23 62.8904 154.79L63.7904 154.54L63.7803 154.55ZM64.1003 147.41H66.9203V148.39H64.1003V147.41ZM66.5903 147.41H67.6204V151.22C67.6204 151.42 67.6403 151.55 67.6703 151.62C67.7003 151.69 67.7704 151.72 67.8704 151.72H68.8904C68.9904 151.72 69.1104 151.72 69.2504 151.7C69.3904 151.7 69.5003 151.68 69.5903 151.66C69.5903 151.79 69.6104 151.94 69.6204 152.11C69.6204 152.28 69.6404 152.42 69.6604 152.53C69.5804 152.56 69.4704 152.58 69.3304 152.59C69.1904 152.6 69.0404 152.61 68.8904 152.61H67.7703C67.4403 152.61 67.1904 152.56 67.0104 152.47C66.8304 152.37 66.7204 152.22 66.6604 152.02C66.6004 151.82 66.5704 151.54 66.5704 151.2V147.41H66.5903Z" fill="#567C9C"/>
<path d="M77.7602 156.63L77.4302 155.83C78.0402 155.57 78.5102 155.25 78.8302 154.86C79.1602 154.48 79.3202 154 79.3202 153.43L79.0502 152.17L79.8602 153.31C79.7502 153.44 79.6202 153.53 79.4802 153.57C79.3402 153.61 79.2002 153.64 79.0602 153.64C78.7502 153.64 78.4802 153.55 78.2602 153.37C78.0402 153.19 77.9302 152.93 77.9302 152.58C77.9302 152.23 78.0402 151.95 78.2702 151.77C78.5002 151.59 78.7602 151.5 79.0702 151.5C79.4902 151.5 79.8102 151.66 80.0202 151.97C80.2302 152.28 80.3402 152.7 80.3402 153.22C80.3402 154.03 80.1002 154.73 79.6302 155.32C79.1602 155.91 78.5302 156.35 77.7402 156.63H77.7602Z" fill="#567C9C"/>
<path d="M88.5903 154.11H101.68V155.03H88.5903V154.11ZM88.7603 149.46H101.51V152.7H100.39V150.35H89.8503V152.7H88.7703V149.46H88.7603ZM89.4203 147.48H100.81V148.35H89.4203V147.48ZM89.7603 156.09H100.03V157.02H90.8203V160.62H89.7603V156.09ZM90.0903 152.91C90.5703 152.86 91.1203 152.79 91.7403 152.7C92.3603 152.61 93.0103 152.51 93.6803 152.41L93.7203 153.13C93.1403 153.24 92.5703 153.35 92.0103 153.47C91.4503 153.59 90.9303 153.69 90.4303 153.79L90.0903 152.9V152.91ZM90.4803 151.22L90.8103 150.6C91.1403 150.66 91.4903 150.73 91.8503 150.82C92.2103 150.91 92.5603 151 92.8903 151.1C93.2203 151.2 93.5003 151.3 93.7203 151.4L93.3903 152.09C93.1703 151.99 92.8903 151.89 92.5703 151.78C92.2403 151.67 91.8903 151.57 91.5303 151.47C91.1603 151.37 90.8203 151.29 90.4903 151.23L90.4803 151.22ZM93.0503 156.69H94.0803V160.53H93.0503V156.69ZM94.5503 154.44L95.7603 154.5C95.6303 154.9 95.4903 155.29 95.3403 155.68C95.1903 156.07 95.0503 156.4 94.9203 156.68L93.9303 156.58C94.0503 156.28 94.1703 155.93 94.2803 155.52C94.3903 155.12 94.4803 154.76 94.5403 154.45L94.5503 154.44ZM94.5203 147.78H95.6203V153.64H94.5203V147.78ZM96.2403 153.02L96.5103 152.33C96.9003 152.37 97.3103 152.43 97.7503 152.51C98.1903 152.59 98.6003 152.68 99.0003 152.78C99.4003 152.88 99.7403 152.97 100.02 153.06L99.7703 153.84C99.5003 153.74 99.1603 153.64 98.7603 153.53C98.3503 153.43 97.9303 153.33 97.4903 153.24C97.0503 153.15 96.6403 153.07 96.2403 153.01V153.02ZM96.3803 156.69H97.4203V160.53H96.3803V156.69ZM99.2903 150.53L99.7903 151.18C99.5103 151.3 99.1903 151.41 98.8503 151.52C98.5003 151.62 98.1503 151.72 97.8003 151.81C97.4503 151.9 97.1303 151.98 96.8403 152.04L96.4403 151.47C96.7303 151.4 97.0503 151.31 97.4003 151.2C97.7503 151.09 98.0903 150.97 98.4303 150.86C98.7703 150.74 99.0603 150.63 99.3003 150.55L99.2903 150.53ZM99.7503 156.09H100.85V159.53C100.85 159.79 100.82 159.99 100.76 160.14C100.7 160.28 100.57 160.4 100.38 160.48C100.19 160.57 99.9503 160.62 99.6703 160.64C99.3803 160.65 99.0403 160.66 98.6303 160.66C98.6103 160.52 98.5603 160.36 98.4903 160.19C98.4103 160.01 98.3403 159.86 98.2703 159.72C98.5703 159.72 98.8403 159.74 99.0703 159.74C99.3003 159.74 99.4603 159.74 99.5403 159.72C99.6303 159.72 99.6903 159.71 99.7103 159.68C99.7303 159.65 99.7503 159.6 99.7503 159.53V156.11V156.09Z" fill="#567C9C"/>
<path d="M104.31 152.34H110.04V153.36H104.31V152.34ZM104.63 147.57H109.51V148.57H104.63V147.57ZM106.79 152.84H107.87V159.34C107.87 159.64 107.83 159.88 107.75 160.05C107.67 160.22 107.52 160.35 107.31 160.44C107.1 160.53 106.82 160.58 106.48 160.61C106.14 160.63 105.7 160.64 105.18 160.64C105.16 160.49 105.12 160.31 105.05 160.11C104.98 159.9 104.9 159.72 104.82 159.56C105.21 159.56 105.56 159.58 105.88 159.58H106.5C106.61 159.57 106.69 159.55 106.73 159.52C106.77 159.49 106.79 159.43 106.79 159.33V152.86V152.84ZM105.06 150.2L105.66 149.46C106.08 149.67 106.51 149.92 106.96 150.2C107.41 150.48 107.82 150.77 108.21 151.06C108.6 151.35 108.91 151.63 109.15 151.88L108.5 152.72C108.27 152.46 107.96 152.18 107.58 151.87C107.19 151.57 106.78 151.27 106.34 150.97C105.9 150.67 105.47 150.42 105.05 150.2H105.06ZM109.16 147.57H109.4L109.63 147.51L110.34 148.01C110.11 148.39 109.84 148.78 109.53 149.18C109.22 149.58 108.9 149.96 108.57 150.31C108.24 150.66 107.92 150.98 107.59 151.25C107.52 151.14 107.42 151.02 107.28 150.9C107.14 150.78 107.03 150.67 106.93 150.58C107.21 150.34 107.49 150.06 107.77 149.74C108.05 149.42 108.31 149.09 108.56 148.75C108.81 148.41 109.01 148.1 109.16 147.81V147.58V147.57ZM109.73 152.34H109.88L110.05 152.3L110.76 152.49C110.57 153.06 110.36 153.65 110.14 154.25C109.92 154.85 109.7 155.36 109.5 155.77L108.65 155.54C108.77 155.29 108.89 154.99 109.03 154.65C109.16 154.3 109.29 153.94 109.41 153.57C109.53 153.2 109.65 152.84 109.75 152.5V152.33L109.73 152.34ZM112.52 158.06L113.5 158.64C113.23 158.9 112.9 159.16 112.52 159.42C112.14 159.68 111.74 159.92 111.31 160.14C110.89 160.36 110.47 160.55 110.07 160.7C109.98 160.6 109.86 160.47 109.71 160.32C109.56 160.17 109.42 160.04 109.3 159.94C109.7 159.79 110.1 159.61 110.51 159.41C110.92 159.21 111.3 158.99 111.65 158.75C112 158.51 112.28 158.28 112.5 158.05L112.52 158.06ZM110.43 147.56H118.05V148.54H110.43V147.56ZM111.02 149.96H117.54V157.79H111.02V149.96ZM112.07 150.84V152.28H116.47V150.84H112.07ZM112.07 153.12V154.59H116.47V153.12H112.07ZM112.07 155.43V156.91H116.47V155.43H112.07ZM113.66 148.02L114.93 148.19C114.81 148.62 114.68 149.06 114.55 149.5C114.42 149.94 114.3 150.32 114.17 150.64L113.17 150.44C113.23 150.21 113.29 149.95 113.36 149.67C113.42 149.39 113.48 149.1 113.53 148.81C113.58 148.52 113.62 148.26 113.65 148.03L113.66 148.02ZM114.84 158.72L115.68 158.14C115.99 158.31 116.31 158.51 116.65 158.74C116.98 158.97 117.3 159.2 117.61 159.43C117.91 159.66 118.17 159.87 118.37 160.06L117.47 160.71C117.29 160.52 117.05 160.31 116.76 160.08C116.46 159.85 116.15 159.61 115.81 159.37C115.47 159.13 115.15 158.91 114.85 158.72H114.84Z" fill="#567C9C"/>
<path d="M124.73 154.141H125.9C125.83 154.901 125.71 155.621 125.55 156.291C125.38 156.961 125.14 157.571 124.81 158.131C124.48 158.691 124.03 159.181 123.47 159.621C122.91 160.061 122.18 160.431 121.3 160.731C121.26 160.631 121.2 160.521 121.11 160.411C121.03 160.291 120.94 160.181 120.85 160.061C120.76 159.941 120.67 159.851 120.58 159.781C121.4 159.521 122.07 159.201 122.59 158.831C123.11 158.461 123.51 158.031 123.81 157.551C124.1 157.071 124.31 156.541 124.45 155.971C124.59 155.401 124.68 154.791 124.74 154.141H124.73ZM120.78 153.301H133.97V154.391H120.78V153.301ZM123.56 147.201L124.7 147.441C124.54 148.011 124.35 148.611 124.12 149.231C123.89 149.851 123.64 150.451 123.34 151.041C123.04 151.621 122.72 152.141 122.37 152.581C122.29 152.521 122.19 152.461 122.07 152.391C121.95 152.321 121.83 152.261 121.72 152.191C121.6 152.131 121.5 152.081 121.4 152.051C121.75 151.621 122.06 151.131 122.34 150.571C122.61 150.021 122.86 149.451 123.07 148.861C123.28 148.271 123.45 147.721 123.57 147.201H123.56ZM123.26 149.191H132.89V150.271H123.26V149.191ZM126.8 146.851H127.94V153.661H126.8V146.851ZM128.73 154.101H129.85V158.811C129.85 159.031 129.89 159.171 129.98 159.241C130.06 159.301 130.25 159.341 130.53 159.341H132.43C132.62 159.341 132.76 159.291 132.86 159.181C132.95 159.081 133.02 158.861 133.05 158.541C133.09 158.221 133.11 157.741 133.13 157.081C133.21 157.141 133.31 157.201 133.44 157.271C133.56 157.341 133.69 157.391 133.82 157.441C133.95 157.491 134.07 157.521 134.17 157.551C134.13 158.311 134.06 158.901 133.95 159.311C133.85 159.731 133.68 160.011 133.46 160.171C133.23 160.331 132.92 160.411 132.52 160.411H130.4C129.95 160.411 129.61 160.361 129.36 160.271C129.12 160.171 128.95 160.011 128.86 159.771C128.77 159.531 128.72 159.211 128.72 158.801V154.091L128.73 154.101Z" fill="#567C9C"/>
<path d="M136.7 150.87H143.22V151.85H136.7V150.87ZM136.7 156.6H143.25V157.58H136.7V156.6ZM137.03 153.98H142.95V154.96H137.03V153.98ZM137.15 148.4H142.85V149.36H137.15V148.4ZM137.72 152.16L138.54 151.91C138.72 152.19 138.88 152.5 139.03 152.85C139.17 153.19 139.27 153.49 139.32 153.73L138.43 154.03C138.38 153.78 138.29 153.48 138.15 153.12C138.02 152.77 137.87 152.45 137.71 152.17L137.72 152.16ZM139.52 146.87H140.57V151.22H139.52V146.87ZM139.52 154.37H140.57V160.6H139.52V154.37ZM141.48 151.85L142.45 152.12C142.24 152.54 142.02 152.97 141.78 153.39C141.55 153.82 141.32 154.2 141.1 154.51L140.26 154.26C140.41 154.04 140.56 153.79 140.71 153.51C140.86 153.23 141 152.94 141.14 152.65C141.28 152.36 141.39 152.09 141.48 151.85ZM143.79 147.54H149.13V148.56H144.84V160.62H143.79V147.54ZM144.33 152.64H149.25V153.57H144.33V152.64ZM148.91 152.64H149.1L149.3 152.6L150 152.85C149.8 153.93 149.49 154.97 149.08 155.95C148.66 156.94 148.14 157.84 147.52 158.64C146.9 159.45 146.17 160.12 145.34 160.67C145.25 160.54 145.13 160.4 144.99 160.26C144.84 160.11 144.71 160 144.58 159.91C145.37 159.42 146.06 158.8 146.65 158.06C147.24 157.32 147.72 156.5 148.11 155.6C148.49 154.71 148.76 153.8 148.92 152.89V152.64H148.91ZM145.8 153.17C146.07 154.1 146.43 154.99 146.89 155.84C147.35 156.69 147.88 157.45 148.5 158.11C149.12 158.77 149.81 159.28 150.56 159.64C150.43 159.75 150.29 159.89 150.14 160.08C149.99 160.26 149.87 160.42 149.78 160.57C149.01 160.13 148.31 159.55 147.69 158.82C147.07 158.1 146.52 157.27 146.06 156.35C145.59 155.43 145.22 154.44 144.93 153.4L145.82 153.17H145.8ZM148.59 147.54H149.64V150.44C149.64 150.72 149.6 150.94 149.53 151.1C149.45 151.26 149.3 151.39 149.07 151.48C148.84 151.56 148.53 151.61 148.15 151.62C147.76 151.64 147.28 151.64 146.69 151.64C146.67 151.49 146.63 151.32 146.56 151.14C146.49 150.96 146.42 150.79 146.34 150.65C146.66 150.66 146.95 150.67 147.22 150.67C147.48 150.67 147.71 150.67 147.9 150.67C148.09 150.67 148.22 150.67 148.29 150.65C148.42 150.65 148.5 150.62 148.54 150.59C148.58 150.56 148.59 150.51 148.59 150.42V147.52V147.54Z" fill="#567C9C"/>
<path d="M162.2 148.351H162.43L162.62 148.291L163.37 148.711C162.92 149.841 162.33 150.881 161.62 151.821C160.9 152.761 160.09 153.601 159.18 154.341C158.27 155.081 157.32 155.721 156.31 156.271C155.3 156.821 154.29 157.251 153.26 157.581C153.22 157.481 153.16 157.371 153.09 157.231C153.02 157.101 152.94 156.981 152.85 156.851C152.77 156.731 152.69 156.641 152.62 156.571C153.59 156.291 154.56 155.901 155.53 155.401C156.5 154.901 157.42 154.301 158.28 153.611C159.14 152.921 159.92 152.151 160.6 151.301C161.29 150.451 161.82 149.541 162.2 148.551V148.341V148.351ZM157.74 146.811L159.01 147.051C158.63 147.701 158.18 148.351 157.65 149.011C157.12 149.661 156.51 150.301 155.82 150.911C155.13 151.521 154.35 152.081 153.48 152.591C153.43 152.501 153.36 152.401 153.26 152.291C153.16 152.181 153.07 152.071 152.97 151.971C152.87 151.871 152.78 151.781 152.68 151.721C153.5 151.271 154.24 150.771 154.89 150.211C155.54 149.651 156.11 149.091 156.58 148.501C157.05 147.921 157.44 147.351 157.73 146.811H157.74ZM155.21 151.021L156.04 150.321C156.44 150.581 156.85 150.881 157.28 151.221C157.71 151.561 158.1 151.901 158.47 152.241C158.84 152.581 159.14 152.891 159.37 153.181L158.45 153.971C158.24 153.681 157.95 153.361 157.6 153.011C157.25 152.661 156.85 152.311 156.43 151.961C156.01 151.611 155.6 151.291 155.21 151.011V151.021ZM158.1 154.261H164.85V155.301H158.1V160.651H156.98V155.161L157.88 154.261H158.11H158.1ZM157.07 148.351H162.57V149.371H157.07V148.351ZM157.59 159.021H164.82V160.061H157.59V159.021ZM164.28 154.261H165.43V160.681H164.28V154.261Z" fill="#567C9C"/>
<path d="M169.73 162.39L168.88 162.01C169.53 160.94 170.01 159.79 170.34 158.55C170.66 157.32 170.82 156.06 170.82 154.78C170.82 153.5 170.66 152.26 170.34 151.02C170.02 149.79 169.53 148.63 168.88 147.56L169.73 147.17C170.43 148.29 170.97 149.47 171.36 150.71C171.75 151.95 171.94 153.31 171.94 154.77C171.94 156.23 171.75 157.61 171.36 158.84C170.98 160.07 170.43 161.25 169.73 162.37V162.39Z" fill="#567C9C"/>
<path d="M9.39008 318.31L13.2001 319.04C12.4601 320.33 11.6101 321.61 10.6601 322.88C9.71008 324.15 8.65008 325.38 7.48008 326.58C6.31008 327.77 5.00008 328.9 3.58008 329.95C3.40008 329.68 3.17008 329.37 2.89008 329.04C2.61008 328.71 2.30008 328.38 1.98008 328.07C1.66008 327.76 1.36008 327.51 1.08008 327.34C2.39008 326.46 3.57008 325.51 4.63008 324.48C5.69008 323.45 6.61008 322.41 7.42008 321.34C8.22008 320.27 8.88008 319.26 9.39008 318.3V318.31ZM13.4901 327.87H17.2201C17.0801 329.44 16.8901 330.95 16.6301 332.42C16.3801 333.89 15.9801 335.29 15.4401 336.62C14.9001 337.95 14.1501 339.19 13.1801 340.33C12.2101 341.47 10.9501 342.51 9.38008 343.43C7.81008 344.35 5.88008 345.13 3.57008 345.78C3.39008 345.33 3.12008 344.82 2.73008 344.24C2.35008 343.66 1.96008 343.19 1.57008 342.82C3.72008 342.29 5.50008 341.64 6.91008 340.87C8.32008 340.1 9.44008 339.23 10.2701 338.27C11.1001 337.31 11.7301 336.28 12.1501 335.17C12.5701 334.06 12.8701 332.9 13.0601 331.66C13.2501 330.43 13.3901 329.17 13.4901 327.88V327.87ZM4.49008 325.79H26.5001V335.8H4.49008V325.79ZM8.04008 328.9V332.69H22.7401V328.9H8.04008ZM9.80008 320.36H18.5401V323.24H8.06008L9.79008 320.36H9.80008ZM17.4801 320.36H18.2701L18.8301 320.21L21.2901 321.79C20.9001 322.44 20.4401 323.14 19.9101 323.9C19.3801 324.66 18.8301 325.4 18.2501 326.12C17.6701 326.83 17.1101 327.47 16.5601 328.01C16.2101 327.74 15.7801 327.43 15.2701 327.1C14.7601 326.77 14.3001 326.49 13.8901 326.28C14.3601 325.79 14.8301 325.23 15.3001 324.59C15.7701 323.95 16.2001 323.32 16.5901 322.68C16.9801 322.04 17.2701 321.49 17.4701 321.02V320.35L17.4801 320.36ZM16.2501 334.47H19.9201V341.22C19.9201 341.71 19.9901 342.01 20.1401 342.13C20.2901 342.25 20.6401 342.31 21.2101 342.31H24.3201C24.6701 342.31 24.9401 342.22 25.1101 342.05C25.2801 341.88 25.4101 341.52 25.4901 340.98C25.5701 340.44 25.6301 339.64 25.6701 338.56C25.9001 338.74 26.2101 338.91 26.5901 339.09C26.9701 339.27 27.3601 339.42 27.7601 339.56C28.1601 339.7 28.5301 339.81 28.8601 339.91C28.7401 341.36 28.5401 342.48 28.2401 343.28C27.9401 344.08 27.5201 344.64 26.9501 344.97C26.3801 345.3 25.6101 345.45 24.6301 345.45H20.6401C19.4701 345.45 18.5601 345.32 17.9301 345.07C17.2901 344.82 16.8501 344.38 16.6101 343.76C16.3601 343.14 16.2401 342.31 16.2401 341.25V334.47H16.2501Z" fill="#E86174"/>
<path d="M45.4799 318.42H48.6799V324.49C48.6799 325.53 48.5499 326.5 48.2999 327.41C48.0499 328.32 47.5699 329.15 46.8599 329.89C46.1599 330.63 45.1399 331.28 43.8099 331.83C42.4799 332.38 40.7299 332.82 38.5599 333.15C38.4599 332.9 38.3199 332.6 38.1199 332.26C37.9199 331.92 37.7199 331.58 37.4999 331.25C37.2799 330.92 37.0799 330.64 36.8799 330.43C38.7599 330.19 40.2599 329.88 41.3999 329.49C42.5299 329.1 43.3899 328.65 43.9799 328.14C44.5699 327.63 44.9599 327.07 45.1699 326.45C45.3799 325.83 45.4799 325.16 45.4799 324.44V318.42ZM45.5299 341.07L48.6699 342.51C47.8699 342.98 46.9399 343.44 45.8799 343.89C44.8199 344.34 43.7399 344.75 42.6399 345.12C41.5299 345.49 40.4699 345.8 39.4599 346.06C39.2799 345.83 39.0399 345.55 38.7299 345.22C38.4199 344.9 38.0999 344.58 37.7899 344.27C37.4799 343.96 37.1799 343.7 36.9099 343.51C37.9699 343.35 39.0299 343.15 40.0899 342.89C41.1599 342.64 42.1599 342.35 43.0999 342.04C44.0399 341.73 44.8499 341.4 45.5299 341.07ZM40.8699 322.97H58.3599V321.8H38.7599V319.75H61.5299V325.03H40.8699V322.98V322.97ZM39.8699 322.97H42.9499C42.8299 323.89 42.6999 324.84 42.5399 325.82C42.3799 326.8 42.2299 327.65 42.0699 328.37H38.9899C39.1699 327.63 39.3299 326.76 39.4899 325.77C39.6499 324.78 39.7699 323.85 39.8699 322.97ZM40.3099 326.29H61.2599V328.37H39.6899L40.3099 326.29ZM40.7199 330.19H60.4099V341.52H40.7199V330.19ZM44.1599 332.18V333.35H56.8399V332.18H44.1599ZM44.1599 335.24V336.41H56.8399V335.24H44.1599ZM44.1599 338.29V339.52H56.8399V338.29H44.1599ZM51.9599 318.42H55.2799V330.27H51.9599V318.42ZM52.6099 342.63L54.5799 340.63C55.6599 340.96 56.7499 341.32 57.8499 341.72C58.9499 342.11 59.9999 342.49 60.9899 342.86C61.9799 343.23 62.8299 343.58 63.5599 343.92L61.0099 346.03C60.3599 345.7 59.5899 345.34 58.6799 344.94C57.7699 344.55 56.7999 344.15 55.7599 343.74C54.7199 343.33 53.6799 342.96 52.6199 342.63H52.6099ZM60.1199 326.29H63.4099C63.3899 326.74 63.3799 327.05 63.3799 327.23C63.3199 328.15 63.2399 328.88 63.1299 329.42C63.0199 329.96 62.8399 330.36 62.5899 330.64C62.3699 330.86 62.1199 331.02 61.8099 331.14C61.4999 331.26 61.1999 331.33 60.8899 331.35C60.5999 331.37 60.1999 331.38 59.6999 331.38C59.1999 331.38 58.6699 331.38 58.0999 331.35C58.0799 331.04 58.0099 330.68 57.8899 330.28C57.7699 329.88 57.6399 329.54 57.4799 329.27C57.8499 329.29 58.1799 329.31 58.4599 329.33C58.7399 329.35 58.9599 329.36 59.1199 329.36C59.2599 329.36 59.3699 329.35 59.4699 329.33C59.5699 329.31 59.6599 329.25 59.7299 329.15C59.8299 329.01 59.9099 328.76 59.9599 328.39C60.0199 328.02 60.0699 327.44 60.1099 326.66V326.31L60.1199 326.29Z" fill="#E86174"/>
<path d="M84.4399 325.76L87.6699 326.67C86.7299 328.35 85.5399 329.86 84.1099 331.2C82.6799 332.54 81.0599 333.69 79.2799 334.66C77.4999 335.63 75.5999 336.45 73.5899 337.11C73.4699 336.88 73.2999 336.58 73.0799 336.21C72.8599 335.85 72.6199 335.49 72.3599 335.14C72.1099 334.79 71.8799 334.51 71.6899 334.32C73.5899 333.81 75.3599 333.16 77.0199 332.37C78.6699 331.58 80.1399 330.62 81.4199 329.51C82.6999 328.4 83.7099 327.14 84.4599 325.75L84.4399 325.76ZM74.2299 331.3C74.1499 331.08 74.0499 330.81 73.9199 330.48C73.7899 330.15 73.6599 329.8 73.5199 329.45C73.3799 329.1 73.2499 328.79 73.1099 328.54C73.2899 328.5 73.4699 328.41 73.6499 328.28C73.8399 328.14 74.0099 327.98 74.1599 327.78C74.2799 327.64 74.4399 327.43 74.6399 327.13C74.8499 326.84 75.0699 326.48 75.3199 326.06C75.5699 325.64 75.7699 325.19 75.9499 324.72L79.0599 325.98C78.6499 326.65 78.1599 327.33 77.5799 328.03C76.9999 328.73 76.4399 329.32 75.8899 329.79V329.85C75.5599 330.05 75.2799 330.22 75.0499 330.36C74.8199 330.51 74.6299 330.66 74.4599 330.83C74.2899 331 74.2099 331.15 74.2099 331.28L74.2299 331.3ZM74.2299 331.3L74.1699 329.19L75.4899 328.37L80.1299 328.19C80.3099 328.56 80.5299 328.97 80.8099 329.42C81.0799 329.87 81.2999 330.25 81.4599 330.56C80.0499 330.64 78.9099 330.71 78.0399 330.78C77.1699 330.85 76.4799 330.91 75.9899 330.97C75.4899 331.03 75.1099 331.08 74.8599 331.13C74.6099 331.18 74.3999 331.23 74.2399 331.29L74.2299 331.3ZM76.1099 324.97C76.0699 324.75 75.9899 324.48 75.8599 324.13C75.7299 323.79 75.6099 323.43 75.4799 323.06C75.3499 322.69 75.2299 322.37 75.1099 322.09C75.6799 321.99 76.3299 321.76 77.0799 321.39C77.3699 321.27 77.8099 321.06 78.3899 320.74C78.9699 320.43 79.5899 320.06 80.2699 319.62C80.9499 319.19 81.5799 318.72 82.1599 318.21L85.2399 319.71C84.1599 320.47 82.9899 321.19 81.7199 321.87C80.4499 322.54 79.2199 323.11 78.0199 323.56V323.62C77.6299 323.78 77.3099 323.93 77.0699 324.07C76.8299 324.21 76.6099 324.36 76.4099 324.51C76.2099 324.66 76.1199 324.81 76.1199 324.96L76.1099 324.97ZM92.4199 337.58L95.2699 338.96C93.9799 340.33 92.3899 341.47 90.4999 342.39C88.6099 343.31 86.5299 344.06 84.2499 344.64C81.9699 345.22 79.5599 345.67 77.0199 346C76.8799 345.59 76.6699 345.11 76.3699 344.58C76.0799 344.04 75.7699 343.58 75.4599 343.19C77.8099 342.96 80.0699 342.61 82.2399 342.16C84.4099 341.71 86.3799 341.11 88.1399 340.37C89.8999 339.63 91.3299 338.7 92.4199 337.58ZM76.1099 324.97L76.0799 322.89L77.9899 321.98L92.7799 321.6C92.9799 322.01 93.2099 322.45 93.4699 322.91C93.7299 323.37 93.9399 323.74 94.0999 324.01C91.1299 324.13 88.6299 324.23 86.6199 324.3C84.5999 324.38 82.9599 324.44 81.6899 324.48C80.4199 324.52 79.4299 324.56 78.7099 324.61C77.9899 324.66 77.4499 324.71 77.0699 324.76C76.6899 324.81 76.3699 324.88 76.1199 324.98L76.1099 324.97ZM89.2199 334.68L91.8299 336C90.7699 336.88 89.5299 337.67 88.0899 338.38C86.6499 339.08 85.1299 339.7 83.5099 340.21C81.8999 340.73 80.2799 341.16 78.6499 341.52C78.4699 341.15 78.2199 340.73 77.8899 340.26C77.5599 339.79 77.2299 339.38 76.9199 339.03C78.4099 338.78 79.9299 338.44 81.4999 338.03C83.0599 337.62 84.5199 337.13 85.8699 336.56C87.2199 335.99 88.3299 335.37 89.2099 334.68H89.2199ZM86.0899 331.98L88.5799 333.27C87.7599 333.86 86.8199 334.41 85.7799 334.93C84.7299 335.45 83.6499 335.91 82.5399 336.32C81.4199 336.73 80.3499 337.08 79.3099 337.38C79.0899 337.07 78.8199 336.72 78.4699 336.32C78.1299 335.93 77.7799 335.59 77.4299 335.29C78.4099 335.06 79.4399 334.77 80.5299 334.42C81.6199 334.08 82.6499 333.7 83.6399 333.28C84.6299 332.86 85.4499 332.42 86.0899 331.97V331.98ZM78.8399 326.96L81.3299 326.26C81.6999 326.89 82.0599 327.58 82.3999 328.33C82.7399 329.08 82.9799 329.73 83.1199 330.28L80.5399 331.07C80.4199 330.52 80.1999 329.86 79.8799 329.09C79.5599 328.32 79.2099 327.61 78.8399 326.96ZM86.7899 327.25C87.4399 328.01 88.2299 328.75 89.1699 329.45C90.1099 330.15 91.1499 330.81 92.2899 331.42C93.4299 332.03 94.6499 332.56 95.9399 333.03C97.2299 333.5 98.5299 333.88 99.8399 334.17C99.5899 334.39 99.3199 334.65 99.0299 334.98C98.7499 335.3 98.4799 335.64 98.2399 335.98C97.9999 336.32 97.7899 336.62 97.6099 336.88C96.2599 336.49 94.9299 336.01 93.6299 335.46C92.3299 334.9 91.0799 334.26 89.8899 333.52C88.6999 332.79 87.5999 331.99 86.5899 331.14C85.5799 330.29 84.6799 329.38 83.8799 328.43L86.7799 327.26L86.7899 327.25ZM87.2599 320.01L89.8999 318.78C90.5799 319.25 91.3099 319.79 92.0699 320.39C92.8299 321 93.5599 321.61 94.2599 322.22C94.9499 322.84 95.5299 323.4 95.9799 323.91L93.1599 325.29C92.7699 324.8 92.2399 324.24 91.5799 323.62C90.9099 322.99 90.2099 322.36 89.4699 321.71C88.7299 321.06 87.9899 320.5 87.2699 320.01H87.2599ZM89.0499 331.13C88.9699 330.93 88.8699 330.67 88.7599 330.34C88.6399 330.01 88.5099 329.67 88.3599 329.33C88.2099 328.99 88.0799 328.7 87.9599 328.46C88.1199 328.4 88.2799 328.3 88.4599 328.17C88.6399 328.03 88.7899 327.88 88.9299 327.7C89.0299 327.58 89.1599 327.38 89.3399 327.08C89.5199 326.78 89.6999 326.44 89.8999 326.04C90.0999 325.64 90.2499 325.21 90.3699 324.76L93.4799 325.96C93.1499 326.61 92.7199 327.27 92.1999 327.95C91.6799 328.63 91.1899 329.2 90.7199 329.65V329.71C90.3699 329.91 90.0799 330.08 89.8699 330.22C89.6599 330.36 89.4599 330.52 89.2999 330.68C89.1299 330.84 89.0499 330.98 89.0499 331.12V331.13ZM89.0499 331.13L88.9899 329.05L90.3099 328.23L95.1199 328C95.2999 328.37 95.5199 328.78 95.7799 329.23C96.0399 329.68 96.2499 330.07 96.4099 330.4C94.9799 330.48 93.8199 330.55 92.9199 330.62C92.0199 330.69 91.3199 330.75 90.8099 330.81C90.2999 330.87 89.9199 330.93 89.6699 330.99C89.4199 331.05 89.2099 331.1 89.0499 331.14V331.13ZM93.6599 326.81L96.0999 325.84C96.6899 326.53 97.2499 327.29 97.7999 328.14C98.3499 328.99 98.7399 329.75 98.9699 330.41L96.3599 331.52C96.1399 330.87 95.7799 330.11 95.2699 329.23C94.7599 328.35 94.2199 327.54 93.6599 326.79V326.81Z" fill="#E86174"/>
<path d="M111.05 318.86H114.51C114.51 321.75 114.47 324.52 114.38 327.15C114.29 329.78 114.09 332.25 113.78 334.56C113.47 336.87 112.95 338.99 112.24 340.91C111.53 342.84 110.53 344.53 109.26 346C109.08 345.71 108.85 345.39 108.56 345.06C108.27 344.73 107.95 344.41 107.62 344.12C107.29 343.83 106.97 343.59 106.68 343.42C107.6 342.38 108.34 341.22 108.9 339.91C109.46 338.61 109.89 337.19 110.19 335.64C110.49 334.09 110.7 332.44 110.82 330.67C110.94 328.9 111.01 327.02 111.03 325.04C111.05 323.06 111.06 321 111.06 318.86H111.05ZM107.56 323.7H118.3V327.13H107.56V323.7ZM117.45 323.7H120.85V324.7C120.85 324.95 120.84 325.16 120.82 325.32C120.76 328.45 120.7 331.12 120.63 333.32C120.56 335.52 120.48 337.33 120.39 338.73C120.3 340.13 120.18 341.24 120.02 342.05C119.86 342.85 119.67 343.42 119.43 343.75C119.1 344.24 118.75 344.59 118.4 344.81C118.05 345.03 117.63 345.18 117.14 345.28C116.71 345.38 116.18 345.43 115.56 345.44C114.94 345.45 114.28 345.44 113.59 345.4C113.57 344.89 113.47 344.3 113.3 343.62C113.12 342.95 112.89 342.36 112.6 341.87C113.19 341.91 113.72 341.94 114.21 341.96C114.7 341.98 115.08 341.99 115.35 341.99C115.57 341.99 115.75 341.95 115.91 341.87C116.07 341.79 116.21 341.65 116.35 341.43C116.51 341.21 116.64 340.76 116.76 340.08C116.88 339.4 116.98 338.4 117.05 337.09C117.12 335.78 117.2 334.09 117.26 332.03C117.32 329.97 117.38 327.45 117.44 324.47V323.71L117.45 323.7ZM122.5 321.8H133.18V345.18H129.66V325.2H125.88V345.39H122.51V321.8H122.5ZM124.08 339.96H131.59V343.33H124.08V339.96Z" fill="#E86174"/>
<path d="M7.3001 89.9597L9.4701 90.5897C9.2001 91.1997 8.8701 91.7897 8.4901 92.3697C8.1101 92.9497 7.7001 93.4997 7.2601 93.9997C6.8301 94.5097 6.4001 94.9497 5.9801 95.3197C5.8301 95.1797 5.6501 95.0297 5.4201 94.8597C5.2001 94.6897 4.9701 94.5197 4.7301 94.3497C4.5001 94.1797 4.2801 94.0497 4.1001 93.9497C4.7401 93.4697 5.3501 92.8697 5.9301 92.1597C6.5101 91.4497 6.9601 90.7197 7.2901 89.9597H7.3001ZM4.5301 97.6097H20.9601V99.5197H4.5301V97.6097ZM6.3301 83.2197H19.0601V90.1397H6.3301V83.2197ZM6.8301 94.5997H18.9301V96.3497H6.8301V94.5997ZM7.3201 91.6097H19.7801V93.4697H7.3201V91.6097ZM8.5201 84.9097V85.8797H16.7601V84.9097H8.5201ZM8.5201 87.4597V88.4597H16.7601V87.4597H8.5201ZM11.6401 90.4797H13.9401V98.9297H11.6401V90.4797Z" fill="#003E7E"/>
<path d="M28.5699 95.7003L30.6899 96.3103C30.3399 96.9903 29.9199 97.6703 29.4099 98.3403C28.8999 99.0103 28.3999 99.5803 27.9099 100.04C27.7899 99.9003 27.6199 99.7503 27.3999 99.5903C27.1799 99.4303 26.9599 99.2703 26.7299 99.1103C26.4999 98.9503 26.2999 98.8203 26.1299 98.7203C26.6299 98.3503 27.0899 97.8903 27.5299 97.3503C27.9699 96.8103 28.3199 96.2503 28.5799 95.7003H28.5699ZM26.2699 93.6203H35.4599V95.5703H26.2699V93.6203ZM26.4899 84.7503H35.5899V86.7003H26.4899V84.7503ZM27.9399 82.7803H29.9399V94.3303H27.9399V82.7803ZM28.8999 87.7903H33.3399V89.4803H28.8999V87.7903ZM28.8999 90.6703H33.3399V92.3803H28.8999V90.6703ZM31.3399 96.5303L33.0299 95.6003C33.2799 95.8603 33.5299 96.1503 33.7999 96.4803C34.0699 96.8103 34.3199 97.1303 34.5599 97.4503C34.7999 97.7703 34.9999 98.0503 35.1399 98.3103L33.3399 99.3503C33.2199 99.1003 33.0399 98.8103 32.8099 98.4903C32.5799 98.1703 32.3399 97.8203 32.0799 97.4803C31.8199 97.1303 31.5699 96.8203 31.3399 96.5303ZM32.2699 82.7803H34.3099V94.3303H32.2699V82.7803ZM36.1999 83.3903H38.2999V90.2203C38.2999 90.9503 38.2799 91.7503 38.2399 92.6103C38.1999 93.4703 38.1099 94.3503 37.9799 95.2403C37.8499 96.1303 37.6699 96.9803 37.4299 97.8103C37.1899 98.6403 36.8699 99.3803 36.4599 100.04C36.3499 99.9003 36.1799 99.7503 35.9599 99.5803C35.7399 99.4103 35.5099 99.2603 35.2899 99.1103C35.0699 98.9603 34.8699 98.8503 34.6999 98.7803C35.1699 97.9803 35.5099 97.0803 35.7199 96.0903C35.9299 95.1003 36.0599 94.0903 36.1199 93.0703C36.1799 92.0503 36.1999 91.1003 36.1999 90.2203V83.3903ZM37.1099 91.8403H41.9399V93.8303H37.1099V91.8403ZM37.1299 83.3903H41.9199V85.4103H37.1299V83.3903ZM37.1299 87.5903H41.9199V89.5603H37.1299V87.5903ZM40.9699 83.3903H43.0999V97.5403C43.0999 98.0803 43.0399 98.5103 42.9099 98.8303C42.7899 99.1503 42.5599 99.4003 42.2399 99.5803C41.9199 99.7503 41.5099 99.8603 41.0199 99.9103C40.5299 99.9603 39.9399 99.9803 39.2499 99.9703C39.2099 99.6703 39.1299 99.3203 39.0099 98.9003C38.8899 98.4803 38.7599 98.1403 38.6199 97.8503C39.0199 97.8803 39.4099 97.8903 39.7999 97.8903H40.5899C40.7299 97.8903 40.8199 97.8603 40.8799 97.8103C40.9399 97.7503 40.9599 97.6603 40.9599 97.5203V83.3903H40.9699Z" fill="#003E7E"/>
<path d="M53.3701 91.1498L55.8801 91.9498C55.4301 92.8898 54.9201 93.8498 54.3501 94.8198C53.7701 95.7898 53.1901 96.7098 52.6001 97.5798C52.0101 98.4498 51.4301 99.2098 50.8701 99.8598C50.7001 99.7098 50.4701 99.5398 50.2001 99.3498C49.9301 99.1598 49.6501 98.9698 49.3601 98.7798C49.0801 98.5898 48.8301 98.4498 48.6201 98.3298C49.1901 97.7498 49.7601 97.0598 50.3501 96.2698C50.9301 95.4798 51.4801 94.6398 52.0001 93.7598C52.5201 92.8798 52.9801 92.0098 53.3701 91.1398V91.1498ZM48.8601 87.2299H65.7301V89.5499H48.8601V87.2299ZM55.1401 83.3699L57.4801 82.5898C57.6901 82.9698 57.9101 83.3898 58.1401 83.8398C58.3701 84.2898 58.5901 84.7398 58.8101 85.1798C59.0301 85.6198 59.2001 86.0098 59.3401 86.3398L56.8301 87.2698C56.7201 86.9398 56.5701 86.5498 56.3801 86.0998C56.1901 85.6498 55.9901 85.1898 55.7801 84.7198C55.5601 84.2398 55.3501 83.7899 55.1401 83.3699ZM58.6101 92.0598L60.7601 91.0198C61.1401 91.5998 61.5601 92.2198 62.0201 92.8798C62.4801 93.5398 62.9301 94.1999 63.3801 94.8699C63.8301 95.5399 64.2601 96.1798 64.6601 96.7898C65.0601 97.3998 65.4001 97.9598 65.6701 98.4498L63.2901 99.7498C63.0501 99.2498 62.7501 98.6898 62.3901 98.0698C62.0201 97.4498 61.6201 96.7798 61.1801 96.0798C60.7401 95.3798 60.3001 94.6898 59.8501 93.9998C59.4001 93.3098 58.9801 92.6698 58.5901 92.0598H58.6101Z" fill="#003E7E"/>
<path d="M83.8701 94.3794C83.5001 93.9194 83.0801 93.4494 82.6301 92.9594C82.1701 92.4694 81.7101 91.9894 81.2401 91.5294C80.7701 91.0694 80.3201 90.6494 79.8901 90.2994L81.8201 88.6094C82.2701 88.9694 82.7401 89.3894 83.2401 89.8794C83.7401 90.3694 84.2301 90.8594 84.7001 91.3594C85.1701 91.8594 85.5601 92.2894 85.8701 92.6794L83.8801 94.3894L83.8701 94.3794Z" fill="#003E7E"/>
<path d="M101.97 83.6895H114.93V99.7495H112.54V85.9395H104.26V99.7895H101.98V83.6895H101.97ZM103.53 89.9194H113.52V92.1095H103.53V89.9194ZM103.53 96.3094H113.54V98.5594H103.53V96.3094Z" fill="#003E7E"/>
<path d="M10.27 138.089H6.20002V125.319L3.77002 126.819V123.049L6.69002 121.189H10.27V138.099V138.089Z" fill="#003E7E"/>
<path d="M23.1098 138.33C19.8298 138.33 17.0298 136.81 17.0298 132.69V126.56C17.0298 122.2 19.8198 120.92 23.1098 120.92C26.3998 120.92 29.1898 122.19 29.1898 126.53V132.68C29.1898 136.8 26.3998 138.32 23.1098 138.32V138.33ZM21.0798 132.23C21.0798 134.04 21.5698 134.95 23.1098 134.95C24.6498 134.95 25.1198 134.04 25.1198 132.23V127.03C25.1198 125.22 24.6298 124.31 23.1098 124.31C21.5898 124.31 21.0798 125.22 21.0798 127.03V132.23Z" fill="#003E7E"/>
<path d="M37.0998 127.16H33.2798V123.34H37.0998V127.16ZM37.0998 135.59H33.2798V131.77H37.0998V135.59Z" fill="#003E7E"/>
<path d="M46.8998 138.33C43.6198 138.33 40.8198 136.81 40.8198 132.69V126.56C40.8198 122.2 43.6098 120.92 46.8998 120.92C50.1898 120.92 52.9798 122.19 52.9798 126.53V132.68C52.9798 136.8 50.1898 138.32 46.8998 138.32V138.33ZM44.8698 132.23C44.8698 134.04 45.3598 134.95 46.8998 134.95C48.4398 134.95 48.9098 134.04 48.9098 132.23V127.03C48.9098 125.22 48.4198 124.31 46.8998 124.31C45.3798 124.31 44.8698 125.22 44.8698 127.03V132.23Z" fill="#003E7E"/>
<path d="M62.4599 138.33C59.1799 138.33 56.3799 136.81 56.3799 132.69V126.56C56.3799 122.2 59.1699 120.92 62.4599 120.92C65.7499 120.92 68.5399 122.19 68.5399 126.53V132.68C68.5399 136.8 65.7499 138.32 62.4599 138.32V138.33ZM60.4199 132.23C60.4199 134.04 60.9099 134.95 62.4499 134.95C63.9899 134.95 64.4599 134.04 64.4599 132.23V127.03C64.4599 125.22 63.9699 124.31 62.4499 124.31C60.9299 124.31 60.4199 125.22 60.4199 127.03V132.23Z" fill="#003E7E"/>
<path d="M80.5898 129.189H90.1199V132.819H80.5898V129.189Z" fill="#003E7E"/>
<path d="M110.97 138.089H106.9V125.319L104.47 126.819V123.049L107.39 121.189H110.97V138.099V138.089Z" fill="#003E7E"/>
<path d="M121.79 127.67H123.11C124.14 127.67 125.07 127.13 125.07 125.93C125.07 124.88 124.31 124.26 123.28 124.26C122.25 124.26 121.69 124.87 121.49 125.76H117.99C118.16 122.97 120.44 120.93 123.53 120.93C126.62 120.93 129.12 123.21 129.12 125.68C129.12 127.66 127.85 128.77 126.91 129.31C128.28 130.04 129.36 131.34 129.36 133.3C129.36 136.09 127.45 138.32 123.72 138.32C119.99 138.32 117.86 136.24 117.74 133.39H121.24C121.39 134.32 122.12 134.93 123.4 134.93C124.68 134.93 125.31 134.07 125.31 132.99C125.31 131.74 124.6 131.03 123.1 131.03H121.78V127.65L121.79 127.67Z" fill="#003E7E"/>
<path d="M137.79 127.16H133.97V123.34H137.79V127.16ZM137.79 135.59H133.97V131.77H137.79V135.59Z" fill="#003E7E"/>
<path d="M147.59 138.33C144.31 138.33 141.51 136.81 141.51 132.69V126.56C141.51 122.2 144.3 120.92 147.59 120.92C150.88 120.92 153.67 122.19 153.67 126.53V132.68C153.67 136.8 150.88 138.32 147.59 138.32V138.33ZM145.56 132.23C145.56 134.04 146.05 134.95 147.59 134.95C149.13 134.95 149.6 134.04 149.6 132.23V127.03C149.6 125.22 149.11 124.31 147.59 124.31C146.07 124.31 145.56 125.22 145.56 127.03V132.23Z" fill="#003E7E"/>
<path d="M163.15 138.33C159.87 138.33 157.07 136.81 157.07 132.69V126.56C157.07 122.2 159.86 120.92 163.15 120.92C166.44 120.92 169.23 122.19 169.23 126.53V132.68C169.23 136.8 166.44 138.32 163.15 138.32V138.33ZM161.12 132.23C161.12 134.04 161.61 134.95 163.15 134.95C164.69 134.95 165.16 134.04 165.16 132.23V127.03C165.16 125.22 164.67 124.31 163.15 124.31C161.63 124.31 161.12 125.22 161.12 127.03V132.23Z" fill="#003E7E"/>
</g>
<defs>
<clipPath id="clip0_249_251">
<rect width="198.26" height="346.06" fill="white"/>
</clipPath>
</defs>
</svg>
