<svg width="475" height="208" viewBox="0 0 475 208" fill="none" xmlns="http://www.w3.org/2000/svg">
<path d="M115.123 36.5755H132.475V41.4245H110.621V34.2278L116.522 19.1983H125.919V5.15612H112.086V0.548523H130.552V23.5207H119.625L115.123 35.0177V36.5755Z" fill="#EB6B8D" stroke="#EC6C8E" stroke-width="0.5" stroke-miterlimit="10"/>
<path d="M158.392 0.548523H179.94V41.3367H158.392V0.548523ZM175.503 37.0143V4.87089H162.719V29.7958L162.435 31.0464L170.455 10.7949H174.826L164.315 37.1241L175.503 37.0143Z" fill="#EB6B8D" stroke="#EC6C8E" stroke-width="0.5" stroke-miterlimit="10"/>
<path d="M211.146 36.5755H228.432V41.4245H206.578V34.2278L212.544 19.1983H221.963V5.15612H208.021V0.548523H226.443V23.5207H215.516L211.146 35.0177V36.5755Z" fill="#EB6B8D" stroke="#EC6C8E" stroke-width="0.5" stroke-miterlimit="10"/>
<path d="M252.667 0.548523H264.555V41.3367H259.966V5.22194H252.667V0.548523Z" fill="#EB6B8D" stroke="#EC6C8E" stroke-width="0.5" stroke-miterlimit="10"/>
<path d="M290.538 35.303H295.739V41.3367H290.538V35.303Z" fill="#EB6B8D" stroke="#EC6C8E" stroke-width="0.5" stroke-miterlimit="10"/>
<path d="M341.084 18.7814H344.581V41.3367H322.728V36.5755H339.86V23.411H325.088V18.7814H336.014L338.986 11.3654V5.26582H326.53V0.548523H343.641V12.1992L341.084 18.7814Z" fill="#EB6B8D" stroke="#EC6C8E" stroke-width="0.5" stroke-miterlimit="10"/>
<path d="M369.45 35.303H374.672V41.3367H369.45V35.303Z" fill="#EB6B8D" stroke="#EC6C8E" stroke-width="0.5" stroke-miterlimit="10"/>
<path d="M406.272 36.5755H423.558V41.4245H401.705V34.2278L407.649 19.1983H417.067V5.15612H403.234V0.548523H421.7V23.5207H410.774L406.228 35.0177L406.272 36.5755Z" fill="#EB6B8D" stroke="#EC6C8E" stroke-width="0.5" stroke-miterlimit="10"/>
<path d="M448.973 0.548523H470.826V7.1308L457.233 41.2489H452.251L466.106 6.36287V5.26582H448.929L448.973 0.548523Z" fill="#EB6B8D" stroke="#EC6C8E" stroke-width="0.5" stroke-miterlimit="10"/>
<path d="M279.896 185.116V187.573H274.214V196.613H272.334V174.014H278.89V176.581H274.214V185.116H279.896Z" fill="#1D70B7" stroke="#1D70B7" stroke-width="0.36364" stroke-miterlimit="10"/>
<path d="M288.418 180.157L291.106 189.438V196.613H283.108V188.187H288.812L287.194 182.614H283.108V180.157H288.418ZM284.922 194.133H289.292V190.689H284.922V194.133Z" fill="#1D70B7" stroke="#1D70B7" stroke-width="0.36364" stroke-miterlimit="10"/>
<path d="M296.613 194.068H302.754V196.613H294.778V180.157H300.306V182.746H296.613V194.068Z" fill="#1D70B7" stroke="#1D70B7" stroke-width="0.36364" stroke-miterlimit="10"/>
<path d="M307.736 190.689V194.133H314.445V196.613H305.966V180.157H311.08L314.118 190.689H307.736ZM309.922 182.614H307.736V188.187H311.495L309.922 182.614Z" fill="#1D70B7" stroke="#1D70B7" stroke-width="0.36364" stroke-miterlimit="10"/>
<path d="M325.853 189.57V196.744H317.876V173.004H319.69V180.157H323.143L325.853 189.57ZM319.69 194.089H324.061V189.57L322.116 182.746H319.69V194.089Z" fill="#1D70B7" stroke="#1D70B7" stroke-width="0.36364" stroke-miterlimit="10"/>
<path d="M336.779 180.157L337.894 184.062V196.613H329.524V180.157H336.779ZM336.102 194.133V184.194L335.643 182.614H331.272V194.133H336.102Z" fill="#1D70B7" stroke="#1D70B7" stroke-width="0.36364" stroke-miterlimit="10"/>
<path d="M348.82 180.157L349.935 184.062V196.613H341.565V180.157H348.82ZM348.143 194.133V184.194L347.684 182.614H343.313V194.133H348.143Z" fill="#1D70B7" stroke="#1D70B7" stroke-width="0.36364" stroke-miterlimit="10"/>
<path d="M361.932 196.613H360.009L358.02 189.701L356.01 196.613H353.584V173.86H355.376V192.905L359.397 179.192H361.32L359.135 186.783L361.932 196.613Z" fill="#1D70B7" stroke="#1D70B7" stroke-width="0.36364" stroke-miterlimit="10"/>
<path d="M398.929 173.86L394.34 189.789V196.613H392.526V189.657L387.959 173.86H389.926L393.466 186.147L397.006 173.86H398.929Z" fill="#1D70B7" stroke="#1D70B7" stroke-width="0.36364" stroke-miterlimit="10"/>
<path d="M409.157 180.157L410.293 184.062V196.613H401.923V180.157H409.157ZM408.479 194.133V184.194L408.042 182.614H403.671V194.133H408.479Z" fill="#1D70B7" stroke="#1D70B7" stroke-width="0.36364" stroke-miterlimit="10"/>
<path d="M419.93 179.981H421.744V196.613H415.079L413.942 192.751V179.981H415.734V192.356L416.259 194.177H419.93V179.981Z" fill="#1D70B7" stroke="#1D70B7" stroke-width="0.36364" stroke-miterlimit="10"/>
<path d="M434.047 174.014V176.668H430.31V196.613H428.431V176.668H424.694V174.014H434.047Z" fill="#1D70B7" stroke="#1D70B7" stroke-width="0.36364" stroke-miterlimit="10"/>
<path d="M443.073 179.981H444.974V196.613H438.418L437.303 192.751V179.981H439.073V192.356L439.598 194.177H443.291L443.073 179.981Z" fill="#1D70B7" stroke="#1D70B7" stroke-width="0.36364" stroke-miterlimit="10"/>
<path d="M456.49 189.57V196.656H448.492V173.004H450.306V180.157H453.715L456.49 189.57ZM450.35 194.089H454.72V189.57L452.754 182.746H450.415L450.35 194.089Z" fill="#1D70B7" stroke="#1D70B7" stroke-width="0.36364" stroke-miterlimit="10"/>
<path d="M461.932 190.689V194.133H468.641V196.613H460.271V180.157H465.385L468.422 190.689H461.932ZM464.117 182.614H461.932V188.187H465.712L464.117 182.614Z" fill="#1D70B7" stroke="#1D70B7" stroke-width="0.36364" stroke-miterlimit="10"/>
<path d="M268.27 155.298L256.731 207.825" stroke="#1D70B7" stroke-width="0.755324" stroke-miterlimit="10"/>
<path d="M380.682 155.298L369.144 207.825" stroke="#1D70B7" stroke-width="0.755324" stroke-miterlimit="10"/>
<path d="M104.896 159.708H116.347V154.508H121.002V159.708H132.868V175.067H121.002V186.037H116.347V175.067H104.896V159.708ZM116.347 171.073V163.679H109.42V171.073H116.347ZM128.344 171.073V163.679H121.002V171.073H128.344Z" fill="#1D70B7"/>
<path d="M141.216 156.483H150.547V160.125H148.209V166.027H150.394V164.557H172.247V167.738H150.591V169.932H148.209V175.659C149.017 175.33 149.826 174.979 150.591 174.606V178.533C147.869 179.943 145.023 181.096 142.09 181.978L141.26 177.59C142.308 177.392 143.314 177.151 144.319 176.866V169.867H141.522V166.027H144.319V160.125H141.216V156.483ZM151.727 169.033H170.936V176.23H168.991L170.936 177.963C170.073 178.835 169.086 179.575 168.008 180.157C169.532 181.109 171.179 181.847 172.903 182.351L170.717 186.059C168.263 185.05 166.033 183.558 164.162 181.671C162.667 180.021 161.436 178.148 160.512 176.12H159.966C159.746 176.415 159.505 176.694 159.245 176.954V181.627C160.556 181.43 161.823 181.21 163.069 180.969V184.392C160.187 185.092 157.269 185.634 154.328 186.015L153.694 182.307L155.661 182.11V180.223C153.8 181.717 151.681 182.855 149.411 183.58L147.772 180.245C150.714 179.57 153.45 178.193 155.748 176.23H151.771L151.727 169.033ZM151.312 155.583H171.395V163.284H151.356L151.312 155.583ZM157.169 160.761V158.084H155.202V160.761H157.169ZM166.871 173.443V171.841H155.748V173.443H166.871ZM162.304 160.761V158.084H160.447V160.761H162.304ZM164.118 176.23C164.542 176.861 165.01 177.462 165.516 178.029C166.347 177.566 167.087 176.956 167.702 176.23H164.118ZM167.614 160.761V158.084H165.429V160.761H167.614Z" fill="#1D70B7"/>
<path d="M180.311 162.78H191.871V154.618H197.05V162.78H209.266V167.168H197.4C197.945 169.829 199.105 172.324 200.787 174.452C203.376 177.551 206.655 179.994 210.359 181.583L207.431 186.125C204.528 184.404 201.868 182.301 199.52 179.872C197.298 177.374 195.563 174.478 194.406 171.337C193.658 174.104 192.34 176.682 190.538 178.906C188.118 181.663 185.279 184.018 182.125 185.883L179.109 181.978C182.716 180.18 185.847 177.548 188.244 174.299C189.778 172.166 190.877 169.75 191.478 167.19H180.311V162.78Z" fill="#1D70B7"/>
<path d="M224.607 154.508H225.809C227.425 155.917 228.937 157.442 230.333 159.072V157.689H236.605C236.466 156.744 236.276 155.806 236.036 154.881L241.128 154.508C241.281 155.561 241.434 156.702 241.565 157.689H247.619V164.754H246.111V172.807H235.905V175.001H246.701V185.971H242.592V184.413H235.905V185.971H231.797V164.754H230.333V161.485L228.606 163.679C227.45 161.748 226.11 159.933 224.607 158.26C224.023 159.164 223.381 160.029 222.684 160.849L225.569 160.629C225.984 161.77 226.377 162.824 226.705 164.118H229.918V176.493H222.64V180.683C223.777 180.464 224.935 180.223 226.137 179.916C225.853 179.17 225.525 178.445 225.175 177.721L228.235 176.954C229.578 179.114 230.608 181.456 231.294 183.909L227.667 184.94C227.55 184.326 227.419 183.711 227.273 183.097C224.279 184.062 221.264 184.852 218.248 185.51L217.418 181.122C217.862 181.146 218.307 181.146 218.751 181.122V164.886C218.461 165.182 218.155 165.46 217.833 165.72L217.068 161.463C219.411 159.483 221.419 157.134 223.012 154.508H224.607ZM219.625 164.118H223.209C222.952 163.178 222.638 162.255 222.269 161.354C221.439 162.319 220.543 163.24 219.625 164.118ZM226.443 167.19H222.64V168.901H226.443V167.19ZM226.443 171.578H222.64V173.553H226.443V171.578ZM234.55 163.657H243.619V161.178H234.441L234.55 163.657ZM236.015 169.537H242.155V166.927H235.905L236.015 169.537ZM236.015 181.188H242.702V178.27H235.905L236.015 181.188Z" fill="#1D70B7"/>
<path d="M111.823 190.798V192.356H108.873V203.765H107.365V192.356H104.415V190.842L111.823 190.798Z" fill="#1D70B7" stroke="#1D70B7" stroke-width="0.39367" stroke-miterlimit="10"/>
<path d="M118.379 194.309L120.565 199.619V203.721H114.184V198.938H118.685L117.396 195.713H114.184V194.309H118.379ZM115.604 202.295H119.079V200.321H115.604V202.295Z" fill="#1D70B7" stroke="#1D70B7" stroke-width="0.39367" stroke-miterlimit="10"/>
<path d="M123.996 190.732H125.569L124.607 193.124H123.034L123.996 190.732ZM124.979 203.721H123.537V194.133H124.979V203.721Z" fill="#1D70B7" stroke="#1D70B7" stroke-width="0.39367" stroke-miterlimit="10"/>
<path d="M143.226 203.722L141.041 198.039L139.031 203.173V203.722H137.545V190.711H139.031V199.772L142.636 190.711H144.21L142.024 196.284L144.953 203.722H143.226Z" fill="#1D70B7" stroke="#1D70B7" stroke-width="0.39367" stroke-miterlimit="10"/>
<path d="M156.863 194.199H158.218V197.885L155.901 203.722H154.328L152.689 199.619L151.072 203.722H149.542L147.269 197.841V194.199H148.646V197.446L150.416 201.835L152.142 197.666V194.199H153.541V197.468L155.267 201.857L156.95 197.688L156.863 194.199Z" fill="#1D70B7" stroke="#1D70B7" stroke-width="0.39367" stroke-miterlimit="10"/>
<path d="M165.757 194.199H167.177V203.722H161.933L161.037 201.527V194.199H162.435V201.264L162.85 202.295H165.757V194.199Z" fill="#1D70B7" stroke="#1D70B7" stroke-width="0.39367" stroke-miterlimit="10"/>
<path d="M174.433 194.309L176.618 199.684V203.743H175.197V199.772L173.602 195.779H171.548V203.743H170.127V193.958H171.548V194.309H174.433Z" fill="#1D70B7" stroke="#1D70B7" stroke-width="0.39367" stroke-miterlimit="10"/>
<path d="M178.934 203.721V201.813H180.551V203.721L179.918 205.257H179.022L179.634 203.721H178.934Z" fill="#1D70B7" stroke="#1D70B7" stroke-width="0.39367" stroke-miterlimit="10"/>
<path d="M194.428 202.251H199.738V203.722H192.986V190.798H197.772V192.356H194.428V202.251Z" fill="#1D70B7" stroke="#1D70B7" stroke-width="0.39367" stroke-miterlimit="10"/>
<path d="M203.672 200.321V202.295H208.96V203.721H202.273V194.309H206.316L208.698 200.321H203.672ZM205.355 195.713H203.672V198.938H206.622L205.355 195.713Z" fill="#1D70B7" stroke="#1D70B7" stroke-width="0.39367" stroke-miterlimit="10"/>
<path d="M216.019 194.309L218.204 199.684V203.743H216.784V199.772L215.189 195.779H213.134V203.743H211.714V193.958H213.134V194.309H216.019Z" fill="#1D70B7" stroke="#1D70B7" stroke-width="0.39367" stroke-miterlimit="10"/>
<path d="M226.246 194.199V195.647H223.864V203.722H222.444V195.647H220.521V194.199H222.444V191.215H223.864V194.199H226.246Z" fill="#1D70B7" stroke="#1D70B7" stroke-width="0.39367" stroke-miterlimit="10"/>
<path d="M229.306 194.309H234.135V195.735H230.202L230.049 196.152V203.721H228.628V196.064L229.306 194.309Z" fill="#1D70B7" stroke="#1D70B7" stroke-width="0.39367" stroke-miterlimit="10"/>
<path d="M240.691 194.309L242.876 199.619V203.721H236.495V198.938H240.997L239.708 195.757H236.495V194.353L240.691 194.309ZM237.916 202.295H241.39V200.321H237.916V202.295Z" fill="#1D70B7" stroke="#1D70B7" stroke-width="0.39367" stroke-miterlimit="10"/>
<path d="M247.334 200.957H248.449L247.356 203.722H245.695V190.711H247.116V201.462L247.334 200.957Z" fill="#1D70B7" stroke="#1D70B7" stroke-width="0.39367" stroke-miterlimit="10"/>
<path d="M248.624 74.7308L254.131 74.3798C254.192 75.1213 254.448 75.8332 254.874 76.4422C255.178 76.8242 255.569 77.1273 256.014 77.3259C256.459 77.5244 256.945 77.6127 257.431 77.5832C258.118 77.6224 258.798 77.4208 259.354 77.0127C259.555 76.8472 259.717 76.6399 259.831 76.405C259.944 76.1701 260.005 75.9133 260.009 75.6524C260.007 75.3995 259.949 75.1504 259.839 74.9228C259.73 74.6951 259.571 74.4947 259.376 74.3359C258.472 73.7667 257.459 73.393 256.403 73.2388C254.445 72.9407 252.582 72.1895 250.962 71.0448C250.419 70.5887 249.989 70.0126 249.704 69.3618C249.42 68.7109 249.29 68.0028 249.323 67.2929C249.326 66.3134 249.623 65.3576 250.175 64.5502C250.79 63.6509 251.657 62.9557 252.667 62.5536C254.137 61.992 255.706 61.7381 257.278 61.8076C259.2 61.6774 261.115 62.1447 262.763 63.146C263.425 63.6723 263.963 64.3381 264.341 65.0963C264.719 65.8546 264.926 66.6868 264.948 67.5342L259.485 67.8633C259.404 67.1534 259.08 66.4939 258.567 65.9983C258.009 65.5935 257.331 65.3922 256.644 65.4279C256.101 65.3856 255.561 65.5329 255.114 65.8448C254.955 65.9697 254.827 66.1297 254.74 66.3123C254.653 66.495 254.609 66.6954 254.612 66.8979C254.614 67.0562 254.653 67.2117 254.725 67.3525C254.797 67.4932 254.9 67.6155 255.027 67.7097C255.619 68.0783 256.281 68.3175 256.972 68.4118C258.846 68.7464 260.673 69.3063 262.413 70.0794C263.414 70.5537 264.252 71.3178 264.817 72.2735C265.319 73.1143 265.577 74.0796 265.56 75.06C265.569 76.1913 265.258 77.3019 264.664 78.2633C263.959 79.2473 262.988 80.0085 261.867 80.4574C260.428 81.0276 258.889 81.2964 257.343 81.2473C255.005 81.4773 252.666 80.8198 250.787 79.4043C249.523 78.1632 248.754 76.5013 248.624 74.7308Z" fill="#2A76BB"/>
<path d="M286.714 71.681L281.731 71.1544C281.868 70.4215 282.142 69.7215 282.54 69.092C282.954 68.5438 283.484 68.0943 284.091 67.7755C284.709 67.4644 285.374 67.2569 286.058 67.1612C286.953 67.0057 287.86 66.9322 288.768 66.9418C290.026 66.9192 291.284 67.0073 292.527 67.205C293.405 67.3476 294.228 67.7268 294.909 68.3021C295.385 68.7578 295.745 69.3223 295.958 69.9477C296.191 70.5955 296.316 71.2775 296.329 71.9662V78C296.317 78.5079 296.361 79.0157 296.46 79.5139C296.587 79.9917 296.762 80.455 296.985 80.8962H292.002C291.849 80.6479 291.724 80.3829 291.631 80.1063C291.543 79.8205 291.484 79.5264 291.456 79.2287C290.86 79.8218 290.165 80.3046 289.402 80.6548C288.377 81.0509 287.287 81.2446 286.189 81.2253C284.861 81.3114 283.547 80.9055 282.496 80.0844C282.098 79.7401 281.779 79.3119 281.564 78.8304C281.349 78.3488 281.242 77.8256 281.25 77.2979C281.21 76.3584 281.531 75.4394 282.146 74.7308C283.094 73.9069 284.267 73.3872 285.512 73.2388C287.457 72.8439 288.724 72.5806 289.314 72.405C289.938 72.2367 290.551 72.0316 291.15 71.7907C291.176 71.5525 291.155 71.3115 291.088 71.0816C291.02 70.8518 290.908 70.6378 290.757 70.4523C290.357 70.1483 289.857 70.0072 289.358 70.0574C288.691 70.0111 288.024 70.1557 287.435 70.4742C287.069 70.7861 286.816 71.2102 286.714 71.681ZM291.237 74.4236C290.521 74.6873 289.791 74.9143 289.052 75.1038C288.338 75.2386 287.661 75.5227 287.063 75.9375C286.926 76.0574 286.815 76.2057 286.74 76.3723C286.665 76.539 286.626 76.7199 286.626 76.9029C286.618 77.0914 286.651 77.2793 286.723 77.4537C286.794 77.628 286.903 77.7845 287.042 77.9122C287.4 78.198 287.852 78.3388 288.309 78.3072C288.875 78.3127 289.433 78.1689 289.926 77.8903C290.372 77.6533 290.743 77.2961 290.997 76.8591C291.216 76.3546 291.321 75.8074 291.303 75.2574L291.237 74.4236Z" fill="#2A76BB"/>
<path d="M319.034 62.1367V67.2928H321.897V71.1325H319.034V76.0692C319.005 76.4651 319.064 76.8626 319.209 77.2321C319.304 77.3805 319.438 77.4998 319.596 77.5772C319.754 77.6545 319.93 77.687 320.105 77.6709C320.657 77.6372 321.201 77.5264 321.722 77.3418L322.094 80.9401C320.911 81.2162 319.702 81.3633 318.488 81.3789C317.508 81.4356 316.528 81.2629 315.625 80.8743C315.012 80.5265 314.529 79.9872 314.249 79.3384C313.921 78.2816 313.788 77.1739 313.855 76.0692V71.1544H311.888V67.2928H313.855V64.8135L319.034 62.1367Z" fill="#2A76BB"/>
<path d="M352.47 80.962H347.596V78.7679C347.011 79.5583 346.266 80.2161 345.411 80.6987C344.571 81.1196 343.64 81.3232 342.701 81.2911C342.078 81.3228 341.455 81.224 340.872 81.0012C340.289 80.7783 339.759 80.4362 339.314 79.9966C338.416 78.8698 337.978 77.4421 338.09 76.0033V67.2928H343.335V74.7966C343.273 75.4487 343.443 76.1019 343.816 76.6396C343.987 76.8192 344.194 76.9594 344.425 77.0503C344.655 77.1413 344.902 77.1808 345.149 77.1662C345.442 77.1722 345.733 77.11 345.998 76.9843C346.264 76.8587 346.497 76.6732 346.679 76.4421C347.15 75.6742 347.357 74.7725 347.269 73.8751V67.2928H352.492L352.47 80.962Z" fill="#2A76BB"/>
<path d="M369.406 67.2928H374.301V69.4869C374.617 68.7161 375.112 68.0318 375.743 67.4903C376.286 67.1075 376.938 66.9147 377.601 66.9418C378.484 66.9754 379.347 67.2238 380.114 67.6658L378.497 71.3958C378.045 71.1738 377.556 71.0398 377.054 71.0009C376.737 70.9886 376.422 71.0614 376.141 71.2118C375.861 71.3622 375.626 71.5847 375.459 71.8566C374.805 73.2207 374.526 74.7358 374.651 76.2447V80.8084H369.406V67.2928Z" fill="#2A76BB"/>
<path d="M409.703 62.1367V80.962H404.83V78.9435C404.331 79.645 403.7 80.2414 402.972 80.6987C402.195 81.0974 401.332 81.3007 400.459 81.2911C399.624 81.323 398.795 81.1377 398.052 80.7533C397.309 80.3689 396.678 79.7984 396.22 79.097C395.2 77.5763 394.68 75.7733 394.734 73.9409C394.607 72.062 395.192 70.2044 396.372 68.7409C396.886 68.1596 397.52 67.6976 398.229 67.3869C398.939 67.0762 399.707 66.9243 400.481 66.9418C401.23 66.9307 401.973 67.0725 402.666 67.3586C403.337 67.6363 403.941 68.0553 404.436 68.5873V62.0051L409.703 62.1367ZM404.48 74.1165C404.55 73.2564 404.309 72.3999 403.803 71.703C403.595 71.4524 403.334 71.2515 403.039 71.1149C402.744 70.9782 402.423 70.9093 402.098 70.9131C401.801 70.9139 401.509 70.9837 401.243 71.1169C400.978 71.2501 400.747 71.4432 400.568 71.681C400.09 72.4382 399.875 73.3332 399.956 74.2262C399.887 75.0866 400.111 75.9451 400.59 76.6616C400.771 76.9094 401.008 77.1104 401.282 77.2478C401.555 77.3851 401.858 77.455 402.164 77.4515C402.481 77.4488 402.794 77.3767 403.081 77.2403C403.368 77.1039 403.621 76.9065 403.824 76.6616C404.328 75.914 404.559 75.0153 404.48 74.1165Z" fill="#2A76BB"/>
<path d="M431.381 71.681L426.399 71.1544C426.535 70.4215 426.809 69.7215 427.207 69.092C427.613 68.5443 428.136 68.0945 428.737 67.7755C429.357 67.471 430.021 67.2638 430.704 67.1612C431.606 67.0061 432.52 66.9327 433.435 66.9418C434.694 66.9192 435.951 67.0073 437.194 67.205C438.065 67.3514 438.88 67.7304 439.554 68.3021C440.045 68.7459 440.407 69.3144 440.603 69.9477C440.854 70.5914 440.987 71.2751 440.997 71.9662V78C440.985 78.5079 441.029 79.0157 441.128 79.5139C441.234 79.9979 441.411 80.4636 441.652 80.8962H436.757C436.608 80.6423 436.477 80.3784 436.364 80.1063C436.364 79.9088 436.254 79.6236 436.189 79.2287C435.605 79.8259 434.916 80.3095 434.157 80.6548C433.132 81.0509 432.042 81.2446 430.944 81.2253C429.615 81.3135 428.301 80.9073 427.251 80.0844C426.846 79.7442 426.522 79.3174 426.303 78.8352C426.084 78.3531 425.974 77.8278 425.983 77.2979C425.951 76.3558 426.28 75.4372 426.901 74.7308C427.843 73.9109 429.007 73.3914 430.245 73.2388C432.212 72.8439 433.479 72.5806 434.047 72.405C434.679 72.2403 435.299 72.035 435.905 71.7907C435.931 71.5525 435.91 71.3115 435.843 71.0816C435.775 70.8518 435.662 70.6378 435.511 70.4523C435.111 70.1502 434.612 70.0094 434.113 70.0574C433.445 70.0087 432.778 70.1533 432.19 70.4742C431.791 70.7725 431.506 71.1981 431.381 71.681ZM435.905 74.4236C435.188 74.6873 434.459 74.9143 433.719 75.1038C433.001 75.2447 432.317 75.5282 431.709 75.9375C431.575 76.0609 431.468 76.2099 431.393 76.3757C431.318 76.5415 431.277 76.7208 431.272 76.9029C431.268 77.0929 431.305 77.2814 431.38 77.4556C431.456 77.6298 431.568 77.7856 431.709 77.9122C432.066 78.2019 432.519 78.3432 432.976 78.3071C433.543 78.3127 434.1 78.1689 434.594 77.8903C435.038 77.6601 435.404 77.3008 435.643 76.859C435.88 76.3599 435.992 75.8101 435.97 75.2574L435.905 74.4236Z" fill="#2A76BB"/>
<path d="M456.359 67.2928H461.866L464.642 76.3983L467.264 67.2928H472.399L467.002 81.8835C466.634 83.1362 465.991 84.2905 465.122 85.2624C463.944 86.1703 462.473 86.608 460.992 86.4911C459.829 86.4524 458.669 86.3499 457.518 86.1839L457.102 82.6514C457.919 82.8861 458.765 83.0043 459.615 83.0025C460.143 83.0312 460.665 82.8847 461.101 82.5856C461.561 82.1758 461.894 81.643 462.063 81.0497L456.359 67.2928Z" fill="#2A76BB"/>
<path d="M105.093 99.7435H116.5V138.864H112.129V104.219H105.093V99.7435Z" fill="#EB6B8D" stroke="#EB6B8D" stroke-width="0.28926" stroke-miterlimit="10"/>
<path d="M132.475 99.7435H143.882V138.864H139.511V104.219H132.475V99.7435Z" fill="#EB6B8D" stroke="#EB6B8D" stroke-width="0.28926" stroke-miterlimit="10"/>
<path d="M161.255 112.338H166.303V118.13H161.255V112.338ZM161.255 131.141H166.303V136.977H161.255V131.141Z" fill="#EB6B8D" stroke="#EB6B8D" stroke-width="0.28926" stroke-miterlimit="10"/>
<path d="M182.737 99.7435H203.388V138.864H182.737V99.7435ZM199.127 134.717V103.89H186.867V127.784L186.583 128.969L194.275 109.551H198.471L188.418 134.717H199.127Z" fill="#EB6B8D" stroke="#EB6B8D" stroke-width="0.28926" stroke-miterlimit="10"/>
<path d="M219.887 99.7435H240.429V138.864H219.887V99.7435ZM236.299 134.717V103.89H223.908V127.784L223.646 128.969L231.338 109.551H235.534L225.481 134.717H236.299Z" fill="#EB6B8D" stroke="#EB6B8D" stroke-width="0.28926" stroke-miterlimit="10"/>
<path d="M326.967 99.7435H338.374V138.864H334.004V104.219H326.967V99.7435Z" fill="#EB6B8D" stroke="#EB6B8D" stroke-width="0.28926" stroke-miterlimit="10"/>
<path d="M379.633 125.107V138.864H355.857V117.757H358.873L358.02 115.563V99.4583H375.044V117.757H376.77L379.633 125.107ZM359.965 134.717H375.262V125.392L373.82 121.772H359.878L359.965 134.717ZM370.673 103.715H362.063V115.409L363.134 118.02H370.673V103.715Z" fill="#EB6B8D" stroke="#EB6B8D" stroke-width="0.28926" stroke-miterlimit="10"/>
<path d="M395.498 112.338H400.568V118.13H395.498V112.338ZM395.498 131.141H400.568V136.977H395.498V131.141Z" fill="#EB6B8D" stroke="#EB6B8D" stroke-width="0.28926" stroke-miterlimit="10"/>
<path d="M416.958 99.7435H437.609V138.864H416.958V99.7435ZM433.37 134.717V103.89H421.11V127.784L420.848 128.969L428.54 109.551H432.736L422.662 134.717H433.37Z" fill="#EB6B8D" stroke="#EB6B8D" stroke-width="0.28926" stroke-miterlimit="10"/>
<path d="M454.021 99.7435H474.672V138.864H454.021V99.7435ZM470.433 134.717V103.89H458.086V127.784L457.802 128.969L465.494 109.551H469.69L459.637 134.717H470.433Z" fill="#EB6B8D" stroke="#EB6B8D" stroke-width="0.28926" stroke-miterlimit="10"/>
<path d="M295.411 116.594H271.57V121.443H295.411V116.594Z" fill="#EB6B8D" stroke="#EB6B8D" stroke-width="0.71368" stroke-miterlimit="10"/>
<path d="M295.761 121.794H271.176V116.221H295.761V121.794ZM271.919 121.048H295.018V116.945H271.919V121.048Z" fill="#EB6B8D" stroke="#EB6B8D" stroke-width="0.71368" stroke-miterlimit="10"/>
<path d="M107.961 60.7793H126.547V70.9609H119.514V72.7891H127.664V75.3281H119.514V76.8262H127.029V79.2891H119.514V80.8125H128.959V83.5293H105.727V80.8125H116.061V79.2891H109.078V76.8262H116.061V75.3281H110.271C109.459 76.3099 108.613 77.1816 107.732 77.9434L104.711 75.8105C106.844 74.6087 108.426 73.0514 109.459 71.1387L112.912 71.5449C112.658 71.985 112.404 72.3997 112.15 72.7891H116.061V70.9609H107.961V60.7793ZM123.297 68.2949V66.9746H111.211V68.2949H123.297ZM111.211 64.7402H123.297V63.4453H111.211V64.7402ZM145.696 62.6074H147.144V60.4746H150.165V62.6074H153.745V60.4746H156.792V62.6074H158.316V65.1719H156.792V74.4902H158.214V77.1562H145.316V74.4902H147.144V65.1719H145.696V62.6074ZM150.165 74.4902H153.745V72.9922H150.165V74.4902ZM150.165 70.6562H153.745V69.0059H150.165V70.6562ZM150.165 66.6953H153.745V65.1719H150.165V66.6953ZM148.642 77.5625L151.282 78.5781C150.622 80.5586 149.649 82.3529 148.362 83.9609L145.595 82.0059C147.034 80.4993 148.049 79.0182 148.642 77.5625ZM155.066 77.5625C155.946 78.5612 156.64 79.526 157.148 80.457C158.248 78.3242 158.798 75.7259 158.798 72.6621V61.1094H168.142V81.0918C168.142 82.7168 167.27 83.5293 165.527 83.5293H163.064L162.581 80.4062C163.682 80.474 164.325 80.5078 164.511 80.5078C164.833 80.5078 164.993 80.2962 164.993 79.873V75.5059H161.718C161.43 78.722 160.635 81.5742 159.331 84.0625L156.462 81.625C156.614 81.3711 156.767 81.1257 156.919 80.8887L154.431 82.1074C153.889 80.7025 153.254 79.4583 152.527 78.375L155.066 77.5625ZM161.845 72.7891H164.993V69.8438H161.845V72.6621C161.845 72.7298 161.845 72.7721 161.845 72.7891ZM161.845 67.0762H164.993V63.9277H161.845V67.0762ZM186.911 66.6953H196.127C195.84 64.9857 195.273 63.1576 194.426 61.2109L197.981 60.1953C199.081 62.2266 199.826 64.1139 200.215 65.8574L197.219 66.6953H208.543V70.123H186.911V66.6953ZM192.598 71.5449L195.848 72.7891C194.392 76.4961 192.26 79.8477 189.45 82.8438L186.098 80.4062C189.179 77.4271 191.345 74.4733 192.598 71.5449ZM202.78 71.3418C205.488 74.6595 207.587 77.7826 209.077 80.7109L205.293 82.6406C203.651 78.8151 201.696 75.4212 199.428 72.459L202.78 71.3418Z" fill="#2A76BB"/>
<path d="M31.4879 141.902H19.0371L20.8869 143.841L17.5023 145.658L11.5259 139.456V146.561L4.94983 139.669V137.183H4.11641V143.841H1.25018V137.183H0V133.386H1.25018V128.586H0V124.789H1.25018V117.806H7.82624V124.789H8.65969V114.568L14.4023 120.577V120.07H31.4879V141.902ZM4.11641 121.734V124.779H4.94983V121.734H4.11641ZM4.11641 133.386H4.94983V128.586H4.11641V133.386ZM8.65969 128.586H7.82624V133.386H8.65969V128.586ZM7.82624 137.781L8.65969 138.614V137.183H7.82624V137.781ZM11.5259 128.586V134.127L14.4023 137.172V120.932L12.5931 124.343L11.5259 123.236V124.81H14.3108V128.606L11.5259 128.586ZM19.0777 123.906H17.5023V138.116H19.0777V123.906ZM21.9948 138.116H23.621V123.906H21.9948V138.116ZM28.4285 138.116V123.906H26.4872V138.116H28.4285ZM32.1384 126.951V120.902L34.0797 118.872L37.881 120.902L32.1384 126.951ZM34.3643 143.049L32.1384 140.735V134.686L38.1554 140.979L34.3643 143.049Z" fill="#EC6B8E"/>
<path d="M33.7138 60.9662L37.698 63.0875L18.8744 75.1559L37.82 87.275L33.9272 89.3557L14.4023 76.922H4.44164V84.636H0.650513V72.9432H14.9613L33.7138 60.9662Z" fill="#EC6B8E"/>
<path d="M33.663 182.137V172.434H37.4643V186.167H21.9236V187.273L38.6839 197.26L34.7098 199.392L21.9236 191.759V197.768H10.3875L12.8472 199.209L8.7105 201.422L0.243958 196.347V180.848L6.67771 184.685V175.154H21.9236V182.137H33.663ZM3.62853 193.749L6.67771 195.555V189.354L3.62853 187.547V193.749ZM18.3154 179.001H10.2961V184.867H18.3154V179.001ZM10.2961 194.023H18.3154V188.572H10.2961V194.023Z" fill="#EC6B8E"/>
<path d="M0.650513 7.91215H13.2944V22.2947H0.650513V7.91215ZM29.3128 27.3799L28.8961 25.5732L31.7217 24.0507L33.7545 32.9725L30.1971 34.8706L29.3128 31.1252H12.0341V34.5052H8.5682V31.1252H0.650513V27.3799H8.5682V24.0101H12.0341V27.3799H29.3128ZM3.69969 11.4748V18.8741H5.36656V11.4748H3.69969ZM10.1843 18.8741V11.4748H8.42592V18.8741H10.1843ZM17.4616 5.09045V17.9505L19.0777 18.9655V5.7705H31.0712L37.5049 9.8305V13.9514L30.2377 9.41435H22.2184V9.55646L37.7387 19.1787L34.1203 20.9955L22.1675 13.5962V15.0375L32.8194 21.6959L29.3535 23.4924L22.1675 19.0568V20.8636L27.7781 24.3247L24.1597 26.2228L17.4515 22.0613V25.0251H14.2499V5.09045H17.4616Z" fill="#EC6B8E"/>
<path d="M49.783 194.611V200.823H52.5476V194.855H55.2715V200.823H61.1462V203.797H47.0997V194.662L49.783 194.611Z" fill="#2A76BB"/>
<path d="M54.0315 182.198C53.7151 182.83 53.5384 183.522 53.5131 184.228C53.5131 184.999 53.94 185.375 54.8141 185.375H61.1665V188.288H54.0518C53.1173 188.315 52.1864 188.414 51.2669 188.582V185.537H51.6633C51.4589 185.36 51.2936 185.142 51.1781 184.897C51.0627 184.653 50.9994 184.387 50.9925 184.116C50.9631 183.415 51.1098 182.717 51.4193 182.086L54.0315 182.198Z" fill="#2A76BB"/>
<path d="M56.9485 167.024V173.844C57.2064 173.844 57.4614 173.79 57.697 173.685C57.9326 173.581 58.1435 173.428 58.316 173.236C58.4885 173.045 58.6188 172.819 58.6984 172.574C58.778 172.329 58.8051 172.07 58.7781 171.814C58.8167 171.457 58.7385 171.097 58.5554 170.788C58.3722 170.479 58.0938 170.237 57.7617 170.099V167.054C58.8643 167.23 59.8581 167.819 60.54 168.702C61.222 169.585 61.5406 170.695 61.4308 171.804C61.4694 172.527 61.3441 173.249 61.0643 173.917C60.7845 174.585 60.3574 175.181 59.8148 175.661C58.8006 176.491 57.5168 176.921 56.2066 176.869C54.9255 176.895 53.674 176.483 52.6594 175.702C52.1015 175.258 51.6555 174.69 51.3572 174.043C51.0589 173.396 50.9166 172.688 50.9417 171.977C50.894 171.219 51.043 170.463 51.3742 169.78C51.7054 169.097 52.2076 168.511 52.8322 168.079C54.0646 167.317 55.5008 166.948 56.9485 167.024V167.024ZM55.0581 170.2C54.123 170.309 53.6554 170.897 53.6554 171.967C53.6285 172.377 53.7583 172.782 54.0186 173.1C54.2789 173.418 54.6503 173.626 55.0581 173.682V170.2Z" fill="#2A76BB"/>
<path d="M56.9485 151.596V158.427C57.2055 158.423 57.459 158.367 57.6931 158.261C57.9272 158.156 58.1368 158.003 58.3086 157.812C58.4805 157.621 58.611 157.397 58.6918 157.153C58.7726 156.91 58.802 156.652 58.7781 156.397C58.8167 156.039 58.7385 155.679 58.5554 155.37C58.3722 155.061 58.0938 154.819 57.7617 154.681V151.636C58.8621 151.816 59.853 152.407 60.5341 153.289C61.2152 154.171 61.5357 155.278 61.4308 156.386C61.4701 157.109 61.3452 157.832 61.0653 158.5C60.7855 159.168 60.358 159.764 59.8148 160.243C58.8016 161.076 57.518 161.51 56.2066 161.461C54.9244 161.484 53.673 161.068 52.6594 160.284C52.1015 159.84 51.6555 159.272 51.3572 158.625C51.0589 157.978 50.9166 157.271 50.9417 156.559C50.894 155.802 51.043 155.045 51.3742 154.362C51.7054 153.679 52.2076 153.093 52.8322 152.661C54.0634 151.895 55.4997 151.523 56.9485 151.596ZM55.0581 154.793C54.123 154.905 53.6554 155.483 53.6554 156.549C53.6285 156.959 53.7583 157.364 54.0186 157.682C54.2789 158.001 54.6503 158.209 55.0581 158.264V154.793Z" fill="#2A76BB"/>
<path d="M61.1665 120.283V123.47L57.7921 124.972V130.21L61.1665 131.702V134.899L47.0793 128.809V126.444L61.1665 120.283ZM55.0682 126.129L51.5515 127.591L55.0682 129.063V126.129Z" fill="#2A76BB"/>
<path d="M61.1869 105.129V108.103H60.5466C61.0867 108.772 61.4093 109.59 61.4715 110.447C61.5102 111.145 61.3722 111.84 61.0701 112.47C60.7681 113.1 60.3118 113.644 59.7436 114.051C58.7233 114.751 57.5051 115.107 56.2676 115.066C55.0169 115.111 53.7846 114.755 52.7508 114.051C52.1742 113.644 51.7097 113.099 51.4005 112.466C51.0913 111.832 50.9475 111.131 50.9823 110.427C51.0014 109.658 51.2569 108.914 51.7141 108.296H47.0895V105.362H58.3816C59.3202 105.334 60.2566 105.256 61.1869 105.129V105.129ZM56.1049 108.255C54.4685 108.255 53.6452 108.874 53.6452 110.133C53.6442 110.416 53.7179 110.695 53.8588 110.941C53.9997 111.186 54.203 111.391 54.4482 111.533C54.9863 111.909 55.6315 112.101 56.2879 112.082C56.9222 112.101 57.5436 111.9 58.0462 111.513C58.2715 111.361 58.4547 111.155 58.5791 110.914C58.7035 110.673 58.7649 110.404 58.7577 110.133C58.7577 108.894 57.8735 108.255 56.1151 108.255H56.1049Z" fill="#2A76BB"/>
<path d="M61.1666 83.6514V86.5442H55.3934C54.2348 86.5442 53.6554 87.0821 53.6554 88.158C53.6438 88.389 53.6832 88.6198 53.7711 88.8338C53.8589 89.0479 53.993 89.2399 54.1636 89.3963C54.5225 89.7078 54.9902 89.8647 55.4646 89.8328H61.1666V92.7052H55.3731C54.2348 92.7052 53.6554 93.233 53.6554 94.2886C53.6554 95.3442 54.2551 95.9634 55.4646 95.9634H61.1666V98.8561H54.0518C53.7672 98.8561 52.8423 98.9373 51.2872 99.1099V96.1156H51.9784C51.6663 95.8108 51.4198 95.4457 51.2538 95.0426C51.0878 94.6395 51.0058 94.2068 51.0128 93.771C51.0064 93.2348 51.1264 92.7047 51.363 92.2234C51.5996 91.742 51.9461 91.323 52.3748 91C51.9176 90.6048 51.5544 90.1127 51.3118 89.5596C51.0692 89.0065 50.9531 88.4063 50.9721 87.8028C50.9287 87.2117 51.0153 86.6182 51.226 86.0641C51.4367 85.51 51.7664 85.0087 52.1918 84.5954C52.9929 83.9013 54.0288 83.5383 55.0885 83.5804L61.1666 83.6514Z" fill="#2A76BB"/>
<path d="M49.9252 73.4609V76.3942H47.0793V73.4609H49.9252ZM61.1665 73.4609V76.3536H51.1652V73.4609H61.1665Z" fill="#2A76BB"/>
<path d="M57.9954 57.6776C58.5408 57.651 59.083 57.7741 59.5632 58.0335C60.0434 58.293 60.4433 58.6789 60.7194 59.1493C61.255 60.1272 61.5116 61.2331 61.4613 62.3466C61.5171 63.4131 61.2128 64.4674 60.5974 65.3408C60.261 65.7541 59.8364 66.0871 59.3545 66.3154C58.8727 66.5437 58.3458 66.6616 57.8125 66.6603V63.7574C58.5341 63.6864 58.9 63.1281 58.9 62.103C58.9 61.0778 58.6662 60.6515 58.2089 60.6515C57.9243 60.6515 57.6092 61.2707 57.2433 62.4988C57.0341 63.3714 56.7308 64.2188 56.3387 65.0262C56.1387 65.4192 55.8332 65.7489 55.4562 65.9784C55.0792 66.2078 54.6457 66.328 54.2043 66.3254C53.7046 66.3489 53.2077 66.239 52.7647 66.0071C52.3217 65.7752 51.9485 65.4296 51.6836 65.0059C51.1859 64.1507 50.9393 63.1728 50.9721 62.1842C50.9223 61.0786 51.2844 59.9938 51.9885 59.1392C52.6268 58.4477 53.5082 58.0294 54.4482 57.9719V60.8444C54.172 60.9612 53.9387 61.1604 53.7804 61.4148C53.6221 61.6692 53.5465 61.9663 53.5639 62.2654C53.5639 62.9759 53.7367 63.2804 54.062 63.2804C54.3872 63.2804 54.4888 62.9556 54.6921 62.2654C54.9805 61.2609 55.3198 60.2717 55.7085 59.3016C55.8934 58.8402 56.2073 58.4417 56.6128 58.1538C57.0184 57.8658 57.4983 57.7005 57.9954 57.6776Z" fill="#2A76BB"/>
<path d="M57.9954 43.5793C58.5399 43.5505 59.0819 43.6716 59.5622 43.9294C60.0426 44.1871 60.4428 44.5716 60.7194 45.0409C61.2514 46.0128 61.5079 47.1112 61.4613 48.2178C61.5139 49.284 61.21 50.3374 60.5974 51.2121C60.2596 51.6238 59.8346 51.9556 59.3531 52.1838C58.8716 52.4119 58.3454 52.5307 57.8125 52.5316V49.6185C58.5341 49.5475 58.9 48.9994 58.9 47.9641C58.9 46.9288 58.6662 46.5228 58.2089 46.5228C57.9243 46.5228 57.6092 47.1318 57.2433 48.3599C57.0335 49.2356 56.7302 50.0863 56.3387 50.8974C56.1378 51.2897 55.832 51.6188 55.4553 51.8481C55.0785 52.0775 54.6455 52.1981 54.2043 52.1966C53.705 52.218 53.2088 52.1072 52.7662 51.8755C52.3235 51.6438 51.9501 51.2994 51.6836 50.8771C51.1871 50.0177 50.9407 49.037 50.9721 48.0453C50.9223 46.9397 51.2844 45.8549 51.9885 45.0003C52.6318 44.32 53.5126 43.913 54.4482 43.8635V46.7359C54.1729 46.8539 53.9405 47.0535 53.7823 47.3076C53.6242 47.5617 53.548 47.8582 53.5639 48.1569C53.5639 48.8674 53.7367 49.2328 54.062 49.2328C54.3872 49.2328 54.4888 48.8979 54.6921 48.2178C55.2308 46.5228 55.5662 45.5382 55.7085 45.2439C55.886 44.7742 56.197 44.3665 56.6032 44.0708C57.0095 43.7751 57.4933 43.6043 57.9954 43.5793Z" fill="#2A76BB"/>
<path d="M49.9252 33.8251V36.7585H47.0793V33.8251H49.9252ZM61.1665 33.8251V36.7179H51.1652V33.8251H61.1665Z" fill="#2A76BB"/>
<path d="M56.2371 16.4889C57.5521 16.446 58.8344 16.9031 59.8249 17.7678C60.3677 18.2532 60.7959 18.8527 61.0788 19.5231C61.3618 20.1935 61.4924 20.9182 61.4613 21.6451C61.4914 22.3674 61.3602 23.0873 61.0772 23.7527C60.7942 24.418 60.3664 25.0122 59.8249 25.492C58.8328 26.354 57.5516 26.8107 56.2371 26.7709C54.9175 26.804 53.6322 26.3485 52.6288 25.492C52.0799 25.0083 51.6463 24.4082 51.3596 23.7356C51.073 23.063 50.9406 22.3348 50.9721 21.6045C50.9415 20.8788 51.0745 20.1554 51.3613 19.4879C51.648 18.8203 52.0812 18.2256 52.6288 17.7475C53.6352 16.8983 54.9201 16.4501 56.2371 16.4889V16.4889ZM56.2371 19.5339C55.5809 19.5155 54.9384 19.7234 54.4177 20.1226C54.1739 20.3082 53.979 20.5503 53.8497 20.8279C53.7205 21.1055 53.6607 21.4104 53.6757 21.7162C53.6624 22.0188 53.7229 22.3202 53.8522 22.5943C53.9814 22.8684 54.1755 23.1069 54.4177 23.2894C54.9439 23.6748 55.585 23.8715 56.2371 23.8477C56.8773 23.8763 57.5071 23.6787 58.0158 23.2894C58.263 23.101 58.4612 22.8561 58.5939 22.5753C58.7265 22.2944 58.7897 21.9859 58.778 21.6756C58.7909 21.3709 58.728 21.0677 58.595 20.7932C58.462 20.5187 58.263 20.2813 58.0158 20.1023C57.5155 19.6913 56.8848 19.4718 56.2371 19.4832V19.5339Z" fill="#2A76BB"/>
<path d="M61.1665 1.58875V4.4815H55.3121C54.2246 4.4815 53.6757 4.95855 53.6757 5.9025C53.6757 6.84645 54.2856 7.51635 55.5053 7.51635H61.1665V10.4294H54.0518C53.1258 10.4679 52.2028 10.5594 51.2872 10.7034V7.7295H51.8564C51.306 7.09632 51.0059 6.28422 51.0128 5.44575C50.9716 4.87886 51.0684 4.31045 51.295 3.78904C51.5215 3.26763 51.8711 2.80873 52.3138 2.4515C53.1677 1.86157 54.194 1.57231 55.2308 1.62935L61.1665 1.58875Z" fill="#2A76BB"/>
</svg>
