<svg width="100" height="100" viewBox="0 0 100 100" fill="none" xmlns="http://www.w3.org/2000/svg">
<path d="M50 41.4836V26.6664H41.25V20.8328L50 17.9164V15H35.4164V26.6664H26.6664V41.4801C19.6996 45.5165 15 53.0363 15 61.6664V85H61.6664V61.6664C61.6664 53.0363 56.9667 45.5191 50 41.4836ZM32.5 32.5H44.1664V39.0992C42.2974 38.618 40.3514 38.3328 38.3328 38.3328C36.315 38.3328 34.3681 38.618 32.4991 39.0992V32.5H32.5ZM55.8336 79.1664H20.8336V61.6664C20.8336 52.0169 28.6841 44.1664 38.3336 44.1664C47.984 44.1664 55.8336 52.016 55.8336 61.6664V79.1664Z" fill="#ED6B8F"/>
<path d="M32.9445 65.267C32.6592 65.9556 32.5 66.7116 32.5 67.5C32.5 70.7244 35.1092 73.3336 38.3336 73.3336C41.558 73.3336 44.1672 70.7244 44.1672 67.5C44.1672 66.7116 44.0071 65.9556 43.7228 65.267C43.728 65.2696 38.3397 52.9164 38.3397 52.9164C38.3397 52.9164 32.9445 65.2696 32.9445 65.267Z" fill="#FFACC3"/>
<path d="M70.4164 35.4164C70.4164 33.8038 71.721 32.5 73.3336 32.5H76.25V29.5836H73.3336C71.721 29.5836 70.4164 28.279 70.4164 26.6672V23.75H67.5V26.6664C67.5 28.2755 66.1928 29.5828 64.5836 29.5828H61.6664V32.5C61.6664 32.5 64.5836 32.5 64.5836 32.4974C66.1928 32.5 67.4974 33.8046 67.5 35.4164V38.3328H70.4164V35.4164Z" fill="#FFACC3"/>
<path d="M85 19.375C85 21.79 83.0435 23.75 80.625 23.75C78.2153 23.75 76.25 21.79 76.25 19.375C76.25 16.96 78.2153 15 80.625 15C83.0435 15 85 16.96 85 19.375Z" fill="#FFACC3"/>
<path d="M82.0836 44.1664C82.0836 45.7729 80.7729 47.0827 79.1664 47.0827C77.5599 47.0827 76.25 45.7729 76.25 44.1664C76.25 42.5599 77.5599 41.25 79.1664 41.25C80.7729 41.25 82.0836 42.5607 82.0836 44.1664Z" fill="#FFACC3"/>
<path d="M71.875 52.9164C71.875 54.5229 70.5651 55.8336 68.9586 55.8336C67.3521 55.8336 66.0414 54.5229 66.0414 52.9164C66.0414 51.3099 67.3521 50 68.9586 50C70.5651 50 71.875 51.3099 71.875 52.9164Z" fill="#FFACC3"/>
<path d="M61.6664 20.8336C61.6664 22.4392 60.3565 23.75 58.75 23.75C57.1435 23.75 55.8336 22.4392 55.8336 20.8336C55.8336 19.228 57.1435 17.9172 58.75 17.9172C60.3565 17.9172 61.6664 19.2271 61.6664 20.8336Z" fill="#FFACC3"/>
</svg>
