<svg width="100" height="100" viewBox="0 0 100 100" fill="none" xmlns="http://www.w3.org/2000/svg">
<g clip-path="url(#clip0)">
<path d="M49.4581 77.6395H22V14H70.2968V49.688C70.2968 51.0607 69.1936 52.1837 67.8452 52.1837C66.4968 52.1837 65.3936 51.0607 65.3936 49.688V18.9913H26.9032V72.5234H49.4581C50.8065 72.5234 51.9097 73.6464 51.9097 75.0191C51.9097 76.3917 50.8065 77.6395 49.4581 77.6395Z" fill="#ED6B8F"/>
<path d="M58.0387 40.4541H34.258C32.9096 40.4541 31.8064 39.3311 31.8064 37.9584C31.8064 36.5858 32.9096 35.4628 34.258 35.4628H58.1612C59.5096 35.4628 60.6128 36.5858 60.6128 37.9584C60.6128 39.3311 59.387 40.4541 58.0387 40.4541Z" fill="#ED6B8F"/>
<path d="M58.0387 29.9723H34.258C32.9096 29.9723 31.8064 28.8492 31.8064 27.4766C31.8064 26.104 32.9096 24.981 34.258 24.981H58.1612C59.5096 24.981 60.6128 26.104 60.6128 27.4766C60.6128 28.8492 59.387 29.9723 58.0387 29.9723Z" fill="#ED6B8F"/>
<path d="M52.6451 50.9359H41.7354C40.387 50.9359 39.2838 49.8129 39.2838 48.4402C39.2838 47.0676 40.387 45.9446 41.7354 45.9446H52.6451C53.9935 45.9446 55.0967 47.0676 55.0967 48.4402C55.0967 49.8129 53.9935 50.9359 52.6451 50.9359Z" fill="#FFACC3"/>
<path d="M34.258 50.9359C35.612 50.9359 36.7096 49.8186 36.7096 48.4402C36.7096 47.0619 35.612 45.9446 34.258 45.9446C32.904 45.9446 31.8064 47.0619 31.8064 48.4402C31.8064 49.8186 32.904 50.9359 34.258 50.9359Z" fill="#FFACC3"/>
<path d="M47.7419 61.4177H41.7354C40.387 61.4177 39.2838 60.2947 39.2838 58.9221C39.2838 57.5494 40.387 56.4264 41.7354 56.4264H47.7419C49.0903 56.4264 50.1935 57.5494 50.1935 58.9221C50.1935 60.2947 49.0903 61.4177 47.7419 61.4177Z" fill="#FFACC3"/>
<path d="M34.258 61.4177C35.612 61.4177 36.7096 60.3004 36.7096 58.9221C36.7096 57.5437 35.612 56.4264 34.258 56.4264C32.904 56.4264 31.8064 57.5437 31.8064 58.9221C31.8064 60.3004 32.904 61.4177 34.258 61.4177Z" fill="#FFACC3"/>
<path d="M57.4258 75.3934L67.8452 86L78.2645 75.3934C79.2452 74.3951 79.2452 72.8977 78.2645 71.8995C77.2839 70.9012 75.8129 70.9012 74.8322 71.8995L70.2968 76.5165V60.2946C70.2968 58.922 69.1935 57.799 67.8452 57.799C66.4968 57.799 65.3935 58.922 65.3935 60.2946V76.3917L60.8581 71.7747C60.3677 71.2756 59.7548 71.026 59.1419 71.026C58.529 71.026 57.9161 71.2756 57.4258 71.7747C56.4451 72.773 56.4451 74.3951 57.4258 75.3934Z" fill="#FFACC3"/>
</g>
<defs>
<clipPath id="clip0">
<rect width="57" height="72" fill="white" transform="translate(22 14)"/>
</clipPath>
</defs>
</svg>
