<svg width="100" height="100" viewBox="0 0 100 100" fill="none" xmlns="http://www.w3.org/2000/svg">
<path d="M61.7615 48.1862L37.2646 54.7501C36.6149 54.9242 36.0582 55.3389 35.717 55.903C35.3758 56.4672 35.278 57.1345 35.4451 57.7582C35.6122 58.3819 36.0306 58.9109 36.6082 59.2288C37.1857 59.5468 37.8752 59.6276 38.5249 59.4535L63.0218 52.8896C63.6715 52.7155 64.2282 52.3008 64.5694 51.7366C64.9107 51.1725 65.0085 50.5052 64.8413 49.8815C64.6742 49.2578 64.2559 48.7288 63.6783 48.4108C63.1007 48.0929 62.4112 48.0121 61.7615 48.1862Z" fill="#FFACC3"/>
<path d="M59.9847 39.7989L35.4878 46.3628C34.8381 46.5369 34.2814 46.9516 33.9401 47.5157C33.5989 48.0798 33.5011 48.7472 33.6682 49.3709C33.8353 49.9946 34.2537 50.5236 34.8313 50.8415C35.4089 51.1595 36.0984 51.2403 36.748 51.0662L61.2449 44.5023C61.8946 44.3282 62.4513 43.9134 62.7926 43.3493C63.1338 42.7852 63.2316 42.1179 63.0645 41.4942C62.8974 40.8704 62.479 40.3414 61.9014 40.0235C61.3238 39.7056 60.6344 39.6248 59.9847 39.7989Z" fill="#FFACC3"/>
<path d="M88.4315 39.1496C87.656 36.2827 85.8972 33.7805 83.4655 32.0847C81.0338 30.3888 78.0854 29.6081 75.1404 29.8804C74.2803 28.5353 73.0179 27.4978 71.5347 26.917C70.0516 26.3363 68.4242 26.2423 66.8866 26.6486L23.2332 38.3455C21.6984 38.7625 20.3361 39.6575 19.342 40.902C18.3479 42.1465 17.7734 43.6762 17.7011 45.2712C15.0098 46.5023 12.8424 48.6518 11.5836 51.338C10.3248 54.0243 10.0561 57.0735 10.8253 59.9441C11.5945 62.8148 13.3518 65.3211 15.785 67.0181C18.2183 68.7151 21.1701 69.4929 24.1164 69.2134C24.9765 70.5585 26.2389 71.596 27.722 72.1768C29.2052 72.7575 30.8326 72.8515 32.3701 72.4452L76.0236 60.7483C77.5583 60.3313 78.9207 59.4362 79.9148 58.1917C80.9088 56.9472 81.4833 55.4175 81.5557 53.8225C84.2423 52.5858 86.4053 50.4356 87.6633 47.751C88.9213 45.0665 89.1934 42.0202 88.4315 39.1496V39.1496ZM15.6757 58.6445C15.2767 57.137 15.3521 55.5436 15.8915 54.0829C16.431 52.6223 17.408 51.366 18.6884 50.4866L22.3637 64.2029C20.8151 64.0816 19.3409 63.4821 18.1434 62.4869C16.9459 61.4916 16.0839 60.1494 15.6757 58.6445V58.6445ZM76.4909 52.7914C76.6633 53.4373 76.5735 54.125 76.2411 54.7035C75.9088 55.2819 75.3612 55.7039 74.7183 55.8769L31.0649 67.5738C30.4217 67.7454 29.7364 67.6538 29.1593 67.319C28.5823 66.9842 28.1607 66.4335 27.987 65.7879L22.7659 46.3024C22.5935 45.6564 22.6833 44.9688 23.0156 44.3903C23.3479 43.8118 23.8956 43.3898 24.5384 43.2169L68.1919 31.52C68.8351 31.3483 69.5204 31.44 70.0974 31.7748C70.6745 32.1096 71.0961 32.6602 71.2698 33.3058L76.4909 52.7914ZM80.5684 48.6072L76.893 34.8907C78.4431 35.0074 79.9197 35.6051 81.1181 36.6011C82.3164 37.5971 83.1772 38.942 83.5811 40.4493C83.985 41.9566 83.912 43.5517 83.3721 45.0134C82.8323 46.4751 81.8524 47.7311 80.5684 48.6072V48.6072Z" fill="#da6b77"/>
</svg>
