<svg width="100" height="100" viewBox="0 0 100 100" fill="none" xmlns="http://www.w3.org/2000/svg">
<path d="M52.871 86.6497C53.3121 86.9522 53.8459 87.064 54.3678 86.9647C54.893 86.8667 55.3479 86.5695 55.6496 86.1289C55.9514 85.6883 56.0638 85.1563 55.9652 84.6315C55.8672 84.1061 55.5701 83.651 55.1297 83.3492C54.7852 83.1131 54.3921 83 54.003 83C53.3647 83 52.7369 83.3045 52.3504 83.87C52.0486 84.3106 51.9362 84.8426 52.0348 85.3674C52.1334 85.8928 52.4299 86.3479 52.871 86.6497Z" fill="#FFACC3"/>
<path d="M58.7542 16.874C58.7537 16.874 58.7526 16.874 58.752 16.8734L58.752 14.4274C58.752 13.6389 58.1417 13 57.3885 13C56.6352 13 56.0249 13.6389 56.0249 14.4274L56.0249 16.9431C54.2697 17.5432 53 19.2726 53 21.3098L53 21.601C53 23.1883 53.8018 24.6899 55.0944 25.5178L58.476 27.6875C58.9669 28.0015 59.2723 28.5668 59.2723 29.172C59.2723 29.3376 59.2505 29.5032 59.2014 29.6573C59.2009 29.659 59.2004 29.6602 59.1998 29.6613C59.9345 30.3305 60.5639 31.1196 61.0657 32C61.0679 31.9971 61.0706 31.9949 61.0728 31.992C61.6564 31.2155 62 30.2334 62 29.1714C62 27.5842 61.1928 26.0825 59.9001 25.2546L56.5185 23.085C56.0331 22.7709 55.7277 22.2 55.7277 21.6004L55.7277 21.3093C55.7277 20.3523 56.4711 19.5724 57.3846 19.5684C57.3863 19.5684 57.3874 19.5689 57.389 19.5689C57.3928 19.5689 57.3966 19.5678 57.4005 19.5678L57.6094 19.5678C58.5257 19.5678 59.2729 20.35 59.2729 21.3093L59.2729 21.4006C59.2729 22.1885 59.8838 22.828 60.6364 22.828C61.3891 22.828 62 22.1885 62 21.4006L62 21.3093C61.9995 19.1921 60.6195 17.3993 58.7542 16.874Z" fill="#FFACC3"/>
<path d="M27.0087 78.2466L27.0076 78.2466C25.9029 78.2466 25.0069 79.1359 25.0063 80.2344L25 89.9895C24.9994 90.5169 25.2099 91.0226 25.585 91.3959C25.9601 91.7693 26.469 91.979 27.0002 91.9795L59.4418 92L59.443 92C60.5477 92 61.4437 91.1107 61.4443 90.0123L61.4505 80.2571C61.4505 79.7298 61.2401 79.224 60.8656 78.8507C60.4905 78.4773 59.9816 78.2677 59.4504 78.2671L55.342 78.2648L55.342 73.962C55.342 72.8306 55.6656 71.7282 56.2792 70.7747L59.7889 65.315C60.8141 63.721 61.3562 61.8788 61.3562 59.9859L61.3562 37.2559C61.3562 32.7787 57.691 29.1368 53.1863 29.1368C49.99 29.1368 47.2968 31.2961 46.4917 34.222C46.4911 34.2209 46.49 34.2203 46.4894 34.2192C46.3293 34.0317 46.1863 33.8441 46.0434 33.6509C44.3108 31.2927 43.2816 28.3833 43.2816 25.2465C43.2816 24.0702 43.4246 22.9281 43.699 21.8313C45.2429 15.609 50.9094 10.9778 57.6395 10.9778C65.5532 10.9778 71.9974 17.3819 71.9974 25.2465C71.9974 31.3154 68.1663 36.5092 62.7857 38.5663L62.7857 42.76C70.4135 40.5438 76 33.5316 76 25.2465C76 15.1885 67.7604 7 57.6395 7C48.9539 7 41.652 13.0291 39.7593 21.0983C39.5883 21.8234 39.4574 22.5712 39.3831 23.3304L27.6938 40.812C25.3505 44.3158 24.5443 48.6783 25.4809 52.7811L29.9003 72.1448L29.9003 78.2483L27.0087 78.2466ZM44.8295 38.3026L44.8306 38.3038C45.276 38.7351 45.7495 39.1488 46.2407 39.5346L46.2407 49.2176C46.2407 50.004 45.8507 50.7394 45.1971 51.1837C44.7934 51.4588 44.3183 51.5991 43.8402 51.5991C43.4983 51.5991 43.1558 51.5269 42.8367 51.3809L42.6154 51.2786C41.7698 50.8905 41.2225 50.041 41.2225 49.1147L41.2225 45.1228C41.2225 44.4125 41.4232 43.7186 41.8012 43.1168L44.8295 38.3026ZM29.3834 51.8997C28.6881 48.8539 29.2874 45.6143 31.0268 43.0129L39.7828 29.9175C40.2699 31.7604 41.0476 33.5163 42.1003 35.1369L38.407 41.0092C37.6311 42.2451 37.2205 43.6675 37.2205 45.1233L37.2205 49.1153C37.2205 51.5872 38.6797 53.8539 40.9372 54.8899L41.1585 54.9921C43.1953 55.9269 45.6094 55.7257 47.4597 54.4654C49.2032 53.2789 50.2438 51.3173 50.2438 49.2176L50.2438 36.0376C50.2438 34.4255 51.5641 33.1134 53.1863 33.1134C55.4844 33.1134 57.3536 34.9715 57.3536 37.2548L57.3536 59.9848C57.3536 61.1167 57.03 62.2191 56.4164 63.1715L52.9061 68.6318C51.8809 70.2264 51.3394 72.0686 51.3394 73.9609L51.3394 78.2466L33.9018 78.2466L33.9018 71.9203C33.9018 71.7726 33.8852 71.6248 33.852 71.4805L29.3834 51.8997ZM57.4428 82.2255L57.4428 82.2431L57.4468 82.2431L57.4428 88.0205L29.0077 88.0205L29.0077 88.0029L29.0037 88.0029L29.0077 82.2255L57.4428 82.2255Z" fill="#ED6B8F"/>
</svg>
