<svg width="100" height="100" viewBox="0 0 100 100" fill="none" xmlns="http://www.w3.org/2000/svg">
<path d="M76 29.6059C76 25.1707 72.4059 21.5624 67.9881 21.5624H59.175V14.6087C59.175 13.7204 58.4576 13 57.5726 13H42.4274C41.5424 13 40.825 13.7204 40.825 14.6087V21.5624H32.0119C27.5941 21.5624 24 25.1707 24 29.6059V78.9565C24 83.3917 27.5941 87 32.0119 87H67.9881C72.4059 87 76 83.3917 76 78.9565V29.6059ZM44.0299 16.2174H55.9704V23.1711C55.9704 26.476 53.2922 29.1648 50.0002 29.1648C46.7083 29.1648 44.0301 26.476 44.0301 23.1711L44.0299 16.2174ZM72.7952 78.9565C72.7952 81.6176 70.6388 83.7826 67.9881 83.7826H32.0121C29.3614 83.7826 27.2049 81.6176 27.2049 78.9565V29.6059C27.2049 26.9448 29.3614 24.7798 32.0121 24.7798H40.9681C41.7286 29.094 45.4878 32.3822 50.0001 32.3822C54.5124 32.3822 58.2716 29.0942 59.0321 24.7798H67.9881C70.6388 24.7798 72.7952 26.9448 72.7952 29.6059V78.9565Z" fill="#da6b77"/>
<path d="M59.1134 34.6844H40.27C39.3335 34.6844 38.5743 35.4438 38.5743 36.3801V58.7846C38.5743 59.7209 39.3335 60.4802 40.27 60.4802H59.1136C60.0501 60.4802 60.8092 59.7209 60.8092 58.7846V36.3801C60.8091 35.4436 60.0499 34.6844 59.1134 34.6844ZM57.4178 57.0889H41.9655V38.0757H57.4178V57.0889Z" fill="#FFACC3"/>
<path d="M58.6622 75.3528H40.7212C39.7847 75.3528 39.0255 76.1121 39.0255 77.0484C39.0255 77.9848 39.7847 78.7441 40.7212 78.7441H58.6623C59.5988 78.7441 60.358 77.9848 60.358 77.0484C60.358 76.1121 59.5987 75.3528 58.6622 75.3528Z" fill="#FFACC3"/>
<path d="M54.4231 69.6094C55.3596 69.6094 56.1187 68.8501 56.1187 67.9138C56.1187 66.9775 55.3596 66.2181 54.4231 66.2181H44.9602C44.0237 66.2181 43.2645 66.9775 43.2645 67.9138C43.2645 68.8501 44.0237 69.6094 44.9602 69.6094H54.4231Z" fill="#FFACC3"/>
</svg>
