<svg width="100" height="100" viewBox="0 0 100 100" fill="none" xmlns="http://www.w3.org/2000/svg">
<path d="M68.8717 3H31.1283C29.2384 3.00194 27.4264 3.76622 26.09 5.12512C24.7535 6.48401 24.0019 8.32651 24 10.2483V89.7517C24.0019 91.6735 24.7535 93.516 26.09 94.8749C27.4264 96.2338 29.2384 96.9981 31.1283 97H68.8717C70.7616 96.9981 72.5736 96.2338 73.91 94.8749C75.2465 93.516 75.9981 91.6735 76 89.7517V10.2483C75.9981 8.32651 75.2465 6.48401 73.91 5.12512C72.5736 3.76622 70.7616 3.00194 68.8717 3V3ZM38.4444 5.9375H61.5556V8.14062C61.5616 8.33516 61.5283 8.52888 61.4579 8.70985C61.3874 8.89081 61.2812 9.05517 61.1459 9.1928C61.0105 9.33042 60.8489 9.43839 60.6709 9.51003C60.4929 9.58168 60.3024 9.61549 60.1111 9.60938H39.8889C39.6976 9.61549 39.5071 9.58168 39.3291 9.51003C39.1511 9.43839 38.9895 9.33042 38.8541 9.1928C38.7188 9.05517 38.6126 8.89081 38.5421 8.70985C38.4717 8.52888 38.4384 8.33516 38.4444 8.14062V5.9375ZM73.1111 89.7517C73.1092 90.8944 72.6619 91.9897 71.8673 92.7978C71.0727 93.6058 69.9954 94.0606 68.8717 94.0625H31.1283C30.0045 94.0606 28.9273 93.6058 28.1327 92.7978C27.3381 91.9897 26.8908 90.8944 26.8889 89.7517V10.2483C26.8908 9.10559 27.3381 8.01025 28.1327 7.20224C28.9273 6.39424 30.0045 5.93944 31.1283 5.9375H35.5556V8.14062C35.5498 8.7209 35.6579 9.29652 35.8736 9.83377C36.0893 10.371 36.4083 10.8591 36.8118 11.2694C37.2154 11.6798 37.6954 12.0041 38.2238 12.2235C38.7521 12.4428 39.3182 12.5528 39.8889 12.5469H60.1111C60.6818 12.5528 61.2479 12.4428 61.7762 12.2235C62.3046 12.0041 62.7846 11.6798 63.1882 11.2694C63.5917 10.8591 63.9107 10.371 64.1264 9.83377C64.3421 9.29652 64.4502 8.7209 64.4444 8.14062V5.9375H68.8717C69.9954 5.93944 71.0727 6.39424 71.8673 7.20224C72.6619 8.01025 73.1092 9.10559 73.1111 10.2483V89.7517Z" fill="#FFACC3"/>
<path d="M31.2222 42.4433C31.6053 42.4433 31.9727 42.2885 32.2436 42.0131C32.5145 41.7376 32.6667 41.3641 32.6667 40.9745V32.375H41.1239C41.507 32.375 41.8744 32.2203 42.1453 31.9448C42.4161 31.6694 42.5683 31.2958 42.5683 30.9062C42.5683 30.5167 42.4161 30.1431 42.1453 29.8677C41.8744 29.5922 41.507 29.4375 41.1239 29.4375H31.2222C30.8391 29.4375 30.4717 29.5922 30.2008 29.8677C29.93 30.1431 29.7778 30.5167 29.7778 30.9062V40.9745C29.7778 41.3641 29.93 41.7376 30.2008 42.0131C30.4717 42.2885 30.8391 42.4433 31.2222 42.4433Z" fill="#ED6B8F"/>
<path d="M68.7778 57.5568C68.3947 57.5568 68.0273 57.7115 67.7564 57.9869C67.4855 58.2624 67.3334 58.636 67.3334 59.0255V67.625H58.8761C58.4931 67.625 58.1257 67.7798 57.8548 68.0552C57.5839 68.3307 57.4317 68.7043 57.4317 69.0938C57.4317 69.4833 57.5839 69.8569 57.8548 70.1324C58.1257 70.4078 58.4931 70.5625 58.8761 70.5625H68.7778C69.1609 70.5625 69.5283 70.4078 69.7992 70.1324C70.0701 69.8569 70.2223 69.4833 70.2223 69.0938V59.0255C70.2223 58.636 70.0701 58.2624 69.7992 57.9869C69.5283 57.7115 69.1609 57.5568 68.7778 57.5568Z" fill="#ED6B8F"/>
<path d="M68.7778 29.4375H58.8761C58.4931 29.4375 58.1257 29.5922 57.8548 29.8677C57.5839 30.1431 57.4317 30.5167 57.4317 30.9062C57.4317 31.2958 57.5839 31.6694 57.8548 31.9448C58.1257 32.2203 58.4931 32.375 58.8761 32.375H67.3334V40.9745C67.3334 41.3641 67.4855 41.7376 67.7564 42.0131C68.0273 42.2885 68.3947 42.4433 68.7778 42.4433C69.1609 42.4433 69.5283 42.2885 69.7992 42.0131C70.0701 41.7376 70.2223 41.3641 70.2223 40.9745V30.9062C70.2223 30.5167 70.0701 30.1431 69.7992 29.8677C69.5283 29.5922 69.1609 29.4375 68.7778 29.4375Z" fill="#ED6B8F"/>
<path d="M41.1239 67.625H32.6667V59.0255C32.6667 58.636 32.5145 58.2624 32.2436 57.9869C31.9727 57.7115 31.6053 57.5568 31.2222 57.5568C30.8391 57.5568 30.4717 57.7115 30.2008 57.9869C29.93 58.2624 29.7778 58.636 29.7778 59.0255V69.0938C29.7778 69.4833 29.93 69.8569 30.2008 70.1324C30.4717 70.4078 30.8391 70.5625 31.2222 70.5625H41.1239C41.507 70.5625 41.8744 70.4078 42.1453 70.1324C42.4161 69.8569 42.5683 69.4833 42.5683 69.0938C42.5683 68.7043 42.4161 68.3307 42.1453 68.0552C41.8744 67.7798 41.507 67.625 41.1239 67.625Z" fill="#ED6B8F"/>
<path d="M50 54.4062C50.3831 54.4062 50.7505 54.2515 51.0214 53.9761C51.2923 53.7006 51.4444 53.327 51.4444 52.9375V50C51.4444 49.6105 51.2923 49.2369 51.0214 48.9614C50.7505 48.686 50.3831 48.5312 50 48.5312H37C36.6169 48.5312 36.2495 48.686 35.9786 48.9614C35.7077 49.2369 35.5555 49.6105 35.5555 50C35.5555 50.3895 35.7077 50.7631 35.9786 51.0386C36.2495 51.314 36.6169 51.4688 37 51.4688H48.5555V52.9375C48.5555 53.327 48.7077 53.7006 48.9786 53.9761C49.2495 54.2515 49.6169 54.4062 50 54.4062Z" fill="#ED6B8F"/>
<path d="M52.1667 61.75H51.4444V59.5469C51.4444 59.1573 51.2922 58.7838 51.0214 58.5083C50.7505 58.2329 50.3831 58.0781 50 58.0781C49.6169 58.0781 49.2495 58.2329 48.9786 58.5083C48.7077 58.7838 48.5555 59.1573 48.5555 59.5469V63.2188C48.5555 63.6083 48.7077 63.9819 48.9786 64.2573C49.2495 64.5328 49.6169 64.6875 50 64.6875H52.1667C52.5497 64.6875 52.9171 64.5328 53.188 64.2573C53.4589 63.9819 53.6111 63.6083 53.6111 63.2188C53.6111 62.8292 53.4589 62.4556 53.188 62.1802C52.9171 61.9047 52.5497 61.75 52.1667 61.75Z" fill="#ED6B8F"/>
<path d="M63 61.75H59.3889C59.0058 61.75 58.6384 61.9047 58.3675 62.1802C58.0966 62.4556 57.9445 62.8292 57.9445 63.2188C57.9445 63.6083 58.0966 63.9819 58.3675 64.2573C58.6384 64.5328 59.0058 64.6875 59.3889 64.6875H63C63.3831 64.6875 63.7505 64.5328 64.0214 64.2573C64.2923 63.9819 64.4445 63.6083 64.4445 63.2188C64.4445 62.8292 64.2923 62.4556 64.0214 62.1802C63.7505 61.9047 63.3831 61.75 63 61.75Z" fill="#ED6B8F"/>
<path d="M58.6667 52.9375V51.4688H61.5556V55.875C61.5556 56.2645 61.7077 56.6381 61.9786 56.9136C62.2495 57.189 62.6169 57.3438 63 57.3438C63.3831 57.3438 63.7505 57.189 64.0214 56.9136C64.2923 56.6381 64.4444 56.2645 64.4444 55.875V50C64.4444 49.6105 64.2923 49.2369 64.0214 48.9614C63.7505 48.686 63.3831 48.5312 63 48.5312H57.2222C56.8391 48.5312 56.4717 48.686 56.2008 48.9614C55.93 49.2369 55.7778 49.6105 55.7778 50V52.9375C55.7778 53.327 55.93 53.7006 56.2008 53.9761C56.4717 54.2515 56.8391 54.4062 57.2222 54.4062C57.6053 54.4062 57.9727 54.2515 58.2436 53.9761C58.5145 53.7006 58.6667 53.327 58.6667 52.9375Z" fill="#ED6B8F"/>
<path d="M35.5555 36.7812V42.6562C35.5555 43.0458 35.7077 43.4194 35.9786 43.6948C36.2495 43.9703 36.6169 44.125 37 44.125H42.7778C43.1609 44.125 43.5283 43.9703 43.7991 43.6948C44.07 43.4194 44.2222 43.0458 44.2222 42.6562V36.7812C44.2222 36.3917 44.07 36.0181 43.7991 35.7427C43.5283 35.4672 43.1609 35.3125 42.7778 35.3125H37C36.6169 35.3125 36.2495 35.4672 35.9786 35.7427C35.7077 36.0181 35.5555 36.3917 35.5555 36.7812ZM38.4444 38.25H41.3333V41.1875H38.4444V38.25Z" fill="#ED6B8F"/>
<path d="M57.2222 44.125H63C63.3831 44.125 63.7505 43.9703 64.0214 43.6948C64.2923 43.4194 64.4444 43.0458 64.4444 42.6562V36.7812C64.4444 36.3917 64.2923 36.0181 64.0214 35.7427C63.7505 35.4672 63.3831 35.3125 63 35.3125H57.2222C56.8391 35.3125 56.4717 35.4672 56.2008 35.7427C55.93 36.0181 55.7778 36.3917 55.7778 36.7812V42.6562C55.7778 43.0458 55.93 43.4194 56.2008 43.6948C56.4717 43.9703 56.8391 44.125 57.2222 44.125ZM58.6667 38.25H61.5556V41.1875H58.6667V38.25Z" fill="#ED6B8F"/>
<path d="M42.7778 55.875H37C36.6169 55.875 36.2495 56.0297 35.9786 56.3052C35.7077 56.5806 35.5555 56.9542 35.5555 57.3438V63.2188C35.5555 63.6083 35.7077 63.9819 35.9786 64.2573C36.2495 64.5328 36.6169 64.6875 37 64.6875H42.7778C43.1609 64.6875 43.5283 64.5328 43.7991 64.2573C44.07 63.9819 44.2222 63.6083 44.2222 63.2188V57.3438C44.2222 56.9542 44.07 56.5806 43.7991 56.3052C43.5283 56.0297 43.1609 55.875 42.7778 55.875ZM41.3333 61.75H38.4444V58.8125H41.3333V61.75Z" fill="#ED6B8F"/>
<path d="M50 44.125C50.3831 44.125 50.7505 43.9703 51.0214 43.6948C51.2923 43.4194 51.4444 43.0458 51.4444 42.6562V36.7812C51.4444 36.3917 51.2923 36.0181 51.0214 35.7427C50.7505 35.4672 50.3831 35.3125 50 35.3125C49.6169 35.3125 49.2495 35.4672 48.9786 35.7427C48.7077 36.0181 48.5555 36.3917 48.5555 36.7812V42.6562C48.5555 43.0458 48.7077 43.4194 48.9786 43.6948C49.2495 43.9703 49.6169 44.125 50 44.125Z" fill="#ED6B8F"/>
</svg>
