<svg width="100" height="100" viewBox="0 0 100 100" fill="none" xmlns="http://www.w3.org/2000/svg">
<path d="M12.9728 65.9752C11.1473 65.9752 9.73157 63.866 9.73157 62.0518C9.73157 61.6216 9.8154 61.1955 9.97828 60.798C10.1412 60.4004 10.3799 60.0392 10.6809 59.735C10.9818 59.4307 11.3391 59.1893 11.7323 59.0247C12.1256 58.86 12.547 58.7753 12.9726 58.7753C13.3983 58.7753 13.8197 58.86 14.2129 59.0247C14.6062 59.1893 14.9635 59.4307 15.2644 59.735C15.5654 60.0392 15.8041 60.4004 15.967 60.798C16.1299 61.1955 16.2137 61.6216 16.2137 62.0518C16.2137 63.866 14.798 65.9752 12.9728 65.9752Z" fill="#da6b77"/>
<path d="M13.6117 81.9985H12.3339C12.0382 81.9983 11.7538 81.884 11.5387 81.679C11.3235 81.474 11.1939 81.1937 11.1762 80.8954L10.8701 75.7038H10.4359C10.1343 75.705 9.8442 75.5868 9.62761 75.3746C9.41101 75.1625 9.28511 74.873 9.27682 74.5682L9.11735 68.6318C9.10601 68.2382 9.23006 67.8528 9.46835 67.5414C9.70664 67.23 10.0444 67.0117 10.4241 66.9239C12.1019 66.5406 13.8432 66.5405 15.5212 66.9235C15.901 67.0116 16.239 67.2301 16.4773 67.5419C16.7157 67.8536 16.8397 68.2393 16.8282 68.6331L16.6688 74.5664C16.6609 74.8716 16.5351 75.1615 16.3184 75.374C16.1017 75.5866 15.8113 75.705 15.5093 75.7037H15.0751L14.7694 80.8957C14.7515 81.1939 14.6217 81.474 14.4066 81.6789C14.1915 81.8838 13.9073 81.9981 13.6117 81.9985V81.9985Z" fill="#da6b77"/>
<path d="M31.5376 24.2057C29.7121 24.2057 28.2964 22.0965 28.2964 20.2823C28.2964 19.852 28.3802 19.4259 28.5431 19.0284C28.706 18.6309 28.9447 18.2697 29.2457 17.9654C29.5466 17.6612 29.9039 17.4198 30.2972 17.2552C30.6904 17.0905 31.1118 17.0057 31.5375 17.0057C31.9631 17.0057 32.3845 17.0905 32.7778 17.2552C33.171 17.4198 33.5283 17.6612 33.8292 17.9654C34.1302 18.2697 34.3689 18.6309 34.5318 19.0284C34.6947 19.4259 34.7785 19.852 34.7785 20.2823C34.7785 22.0965 33.3628 24.2057 31.5376 24.2057Z" fill="#da6b77"/>
<path d="M32.1765 40.2291H30.8987C30.603 40.2289 30.3186 40.1146 30.1035 39.9096C29.8883 39.7046 29.7587 39.4243 29.741 39.126L29.4349 33.9343H29.0007C28.6991 33.9355 28.409 33.8174 28.1924 33.6052C27.9758 33.393 27.8499 33.1036 27.8416 32.7988L27.6822 26.8623C27.6708 26.4688 27.7949 26.0834 28.0332 25.772C28.2715 25.4605 28.6092 25.2423 28.9889 25.1545C30.6668 24.7712 32.4081 24.7711 34.086 25.1541C34.4659 25.2422 34.8038 25.4607 35.0421 25.7725C35.2805 26.0842 35.4045 26.4699 35.393 26.8638L35.2336 32.7971C35.2257 33.1022 35.0999 33.3921 34.8832 33.6047C34.6665 33.8173 34.3761 33.9356 34.0741 33.9344H33.6399L33.3342 39.1263C33.3163 39.4246 33.1865 39.7047 32.9714 39.9095C32.7563 40.1144 32.4721 40.2287 32.1765 40.2291Z" fill="#da6b77"/>
<path d="M50.1025 65.9753C48.2769 65.9753 46.8612 63.8661 46.8612 62.0519C46.8605 61.6211 46.9437 61.1945 47.1063 60.7962C47.2688 60.398 47.5074 60.0361 47.8085 59.7313C48.1095 59.4264 48.467 59.1845 48.8606 59.0195C49.2543 58.8545 49.6762 58.7695 50.1023 58.7695C50.5284 58.7695 50.9503 58.8545 51.3439 59.0195C51.7375 59.1845 52.0951 59.4264 52.3961 59.7313C52.6971 60.0361 52.9358 60.398 53.0983 60.7962C53.2608 61.1945 53.3441 61.6211 53.3434 62.0519C53.3434 63.8661 51.9276 65.9753 50.1025 65.9753Z" fill="#da6b77"/>
<path d="M50.7414 81.9985H49.4635C49.1679 81.9983 48.8835 81.884 48.6683 81.679C48.4532 81.474 48.3235 81.1937 48.3058 80.8954L47.9997 75.7038H47.5656C47.264 75.705 46.9738 75.5868 46.7572 75.3747C46.5407 75.1625 46.4148 74.873 46.4065 74.5682L46.247 68.6318C46.2357 68.2382 46.3597 67.8528 46.598 67.5414C46.8363 67.2299 47.1741 67.0117 47.5537 66.9239C49.2316 66.5406 50.9729 66.5405 52.6508 66.9235C53.0307 67.0116 53.3686 67.2301 53.607 67.5419C53.8453 67.8536 53.9693 68.2393 53.9579 68.6331L53.7984 74.5664C53.7905 74.8716 53.6648 75.1615 53.448 75.3741C53.2313 75.5867 52.9409 75.705 52.6389 75.7038H52.2048L51.8991 80.8957C51.8811 81.194 51.7514 81.474 51.5363 81.6789C51.3212 81.8838 51.0369 81.9981 50.7414 81.9985V81.9985Z" fill="#da6b77"/>
<path d="M87.2321 65.9753C85.4066 65.9753 83.9908 63.8661 83.9908 62.0519C83.9901 61.6211 84.0734 61.1945 84.2359 60.7962C84.3985 60.398 84.6371 60.0361 84.9381 59.7313C85.2391 59.4264 85.5967 59.1845 85.9903 59.0195C86.3839 58.8545 86.8058 58.7695 87.2319 58.7695C87.658 58.7695 88.08 58.8545 88.4736 59.0195C88.8672 59.1845 89.2247 59.4264 89.5257 59.7313C89.8268 60.0361 90.0654 60.398 90.2279 60.7962C90.3905 61.1945 90.4738 61.6211 90.473 62.0519C90.473 63.8661 89.0573 65.9753 87.2321 65.9753Z" fill="#da6b77"/>
<path d="M87.871 81.9985H86.5932C86.2975 81.9983 86.0131 81.884 85.7979 81.679C85.5828 81.474 85.4531 81.1937 85.4354 80.8954L85.1294 75.7038H84.6952C84.3936 75.705 84.1035 75.5869 83.8869 75.3747C83.6703 75.1625 83.5444 74.873 83.5361 74.5682L83.3766 68.6318C83.3653 68.2382 83.4893 67.8529 83.7276 67.5414C83.9659 67.23 84.3037 67.0117 84.6834 66.9239C86.3612 66.5406 88.1025 66.5405 89.7804 66.9235C90.1603 67.0116 90.4982 67.2301 90.7366 67.5419C90.9749 67.8536 91.099 68.2393 91.0875 68.6331L90.928 74.5664C90.9201 74.8716 90.7944 75.1615 90.5777 75.374C90.361 75.5866 90.0705 75.705 89.7686 75.7037H89.3344L89.0287 80.8957C89.0108 81.1939 88.881 81.474 88.6659 81.6789C88.4508 81.8838 88.1665 81.9981 87.871 81.9985V81.9985Z" fill="#da6b77"/>
<path d="M40.9506 71.1798L38.097 68.2947L36.8716 69.5335L38.2459 70.9231H24.8296L26.204 69.5335L24.9786 68.2947L22.1247 71.1798C22.0442 71.2611 21.9804 71.3577 21.9368 71.4639C21.8933 71.5702 21.8708 71.6841 21.8708 71.7992C21.8708 71.9142 21.8933 72.0281 21.9368 72.1344C21.9804 72.2407 22.0442 72.3373 22.1247 72.4186L24.9786 75.3035L26.204 74.0647L24.8296 72.6753H38.2458L36.8716 74.0647L38.097 75.3035L40.9506 72.4186C41.1131 72.2543 41.2044 72.0315 41.2044 71.7992C41.2044 71.5669 41.1131 71.3441 40.9506 71.1798V71.1798Z" fill="#FFACC3"/>
<path d="M78.0803 71.1798L75.2266 68.2947L74.0012 69.5335L75.3756 70.9231H61.9591L63.3336 69.5335L62.1082 68.2947L59.2544 71.1798C59.1739 71.2611 59.11 71.3577 59.0665 71.4639C59.0229 71.5702 59.0005 71.6841 59.0005 71.7992C59.0005 71.9142 59.0229 72.0281 59.0665 72.1344C59.11 72.2407 59.1739 72.3373 59.2544 72.4186L62.1082 75.3035L63.3336 74.0647L61.9593 72.6753H75.3755L74.0012 74.0647L75.2266 75.3035L78.0802 72.4186C78.2427 72.2543 78.334 72.0315 78.334 71.7992C78.334 71.5669 78.2427 71.3441 78.0803 71.1798Z" fill="#FFACC3"/>
<path d="M59.0981 29.3157L56.2445 26.4305L55.0191 27.6694L56.3934 29.059H42.977L44.3515 27.6694L43.1261 26.4305L40.2722 29.3156C40.1918 29.397 40.1279 29.4935 40.0844 29.5998C40.0408 29.7061 40.0184 29.82 40.0184 29.935C40.0184 30.0501 40.0408 30.164 40.0844 30.2703C40.1279 30.3766 40.1918 30.4731 40.2722 30.5545L43.1261 33.4394L44.3515 32.2005L42.9771 30.8111H56.3933L55.0191 32.2005L56.2445 33.4394L59.0981 30.5545C59.1786 30.4731 59.2424 30.3766 59.2859 30.2703C59.3295 30.164 59.3519 30.0501 59.3519 29.9351C59.3519 29.82 59.3295 29.7061 59.286 29.5998C59.2424 29.4936 59.1786 29.397 59.0981 29.3157Z" fill="#FFACC3"/>
<path d="M32.1502 62.324L35.004 59.4391L33.7786 58.2003L32.4041 59.5897V46.0264L33.7786 47.4159L35.004 46.177L32.1502 43.2919C32.0698 43.2106 31.9743 43.146 31.8691 43.102C31.764 43.0579 31.6513 43.0353 31.5375 43.0353C31.4237 43.0353 31.311 43.0579 31.2059 43.102C31.1008 43.146 31.0053 43.2106 30.9248 43.2919L28.0712 46.177L29.2966 47.4159L30.6709 46.0265V59.5896L29.2966 58.2003L28.0712 59.4391L30.9248 62.324C31.0053 62.4054 31.1008 62.4699 31.2059 62.5139C31.311 62.558 31.4237 62.5806 31.5375 62.5806C31.6513 62.5806 31.764 62.558 31.8691 62.5139C31.9742 62.4699 32.0697 62.4054 32.1502 62.324Z" fill="#FFACC3"/>
<path d="M67.8327 24.2057C66.0072 24.2057 64.5914 22.0966 64.5914 20.2824C64.5907 19.8516 64.674 19.4249 64.8365 19.0267C64.999 18.6285 65.2376 18.2666 65.5387 17.9617C65.8397 17.6569 66.1973 17.415 66.5909 17.25C66.9845 17.0849 67.4064 17 67.8325 17C68.2586 17 68.6805 17.0849 69.0741 17.25C69.4677 17.415 69.8253 17.6569 70.1263 17.9617C70.4274 18.2666 70.666 18.6285 70.8285 19.0267C70.9911 19.4249 71.0743 19.8516 71.0736 20.2824C71.0736 22.0966 69.6579 24.2057 67.8327 24.2057Z" fill="#da6b77"/>
<path d="M68.4716 40.2291H67.1937C66.8981 40.2289 66.6137 40.1146 66.3985 39.9096C66.1834 39.7046 66.0537 39.4243 66.036 39.126L65.73 33.9343H65.2958C64.9942 33.9355 64.7041 33.8174 64.4875 33.6052C64.2709 33.393 64.145 33.1036 64.1367 32.7988L63.9772 26.8623C63.9659 26.4688 64.0899 26.0834 64.3282 25.772C64.5665 25.4605 64.9043 25.2423 65.284 25.1545C66.9618 24.7712 68.7031 24.7711 70.381 25.1541C70.7609 25.2422 71.0989 25.4607 71.3372 25.7725C71.5756 26.0842 71.6996 26.4699 71.6881 26.8638L71.5286 32.7971C71.5207 33.1022 71.395 33.3921 71.1783 33.6047C70.9616 33.8172 70.6712 33.9356 70.3692 33.9343H69.935L69.6293 39.1263C69.6113 39.4246 69.4816 39.7047 69.2665 39.9095C69.0514 40.1144 68.7671 40.2287 68.4716 40.2291Z" fill="#da6b77"/>
<path d="M68.4452 62.324L71.299 59.4391L70.0736 58.2003L68.6991 59.5897V46.0264L70.0736 47.4159L71.299 46.177L68.4452 43.2919C68.3648 43.2106 68.2692 43.146 68.1641 43.102C68.059 43.0579 67.9463 43.0353 67.8325 43.0353C67.7187 43.0353 67.606 43.0579 67.5009 43.102C67.3958 43.146 67.3003 43.2106 67.2198 43.2919L64.3662 46.177L65.5916 47.4159L66.966 46.0265V59.5896L65.5916 58.2003L64.3662 59.4391L67.2198 62.324C67.3003 62.4054 67.3958 62.4699 67.5009 62.5139C67.606 62.558 67.7187 62.5806 67.8325 62.5806C67.9463 62.5806 68.0589 62.558 68.1641 62.5139C68.2692 62.4699 68.3647 62.4054 68.4452 62.324V62.324Z" fill="#FFACC3"/>
</svg>
