<?xml version="1.0" encoding="UTF-8"?>
<svg id="Layer_2" data-name="Layer 2" xmlns="http://www.w3.org/2000/svg" xmlns:xlink="http://www.w3.org/1999/xlink" viewBox="0 0 563.94 239.36">
  <defs>
    <style>
      .cls-1 {
        fill: url(#linear-gradient);
      }

      .cls-1, .cls-2, .cls-3, .cls-4, .cls-5, .cls-6, .cls-7 {
        stroke-width: 0px;
      }

      .cls-2 {
        fill: url(#linear-gradient-2);
      }

      .cls-3 {
        fill: url(#linear-gradient-3);
      }

      .cls-4 {
        fill: #ffcb05;
      }

      .cls-5 {
        fill: #fff;
      }

      .cls-6 {
        fill: #e96275;
      }

      .cls-7 {
        fill: #003e7e;
      }
    </style>
    <linearGradient id="linear-gradient" x1="87.7" y1="157.94" x2="250.84" y2="72.14" gradientTransform="translate(-22.03 -57.71) rotate(.92)" gradientUnits="userSpaceOnUse">
      <stop offset="0" stop-color="#0072bc"/>
      <stop offset=".12" stop-color="#0099da"/>
      <stop offset=".2" stop-color="#00a1d1"/>
      <stop offset=".28" stop-color="#00ac6c"/>
      <stop offset=".38" stop-color="#50b848"/>
      <stop offset=".45" stop-color="#8dc63f"/>
      <stop offset=".54" stop-color="#ffd400"/>
      <stop offset=".62" stop-color="#ffcb05"/>
      <stop offset=".69" stop-color="#f99d33"/>
      <stop offset=".76" stop-color="#f37239"/>
      <stop offset=".83" stop-color="#f04f3a"/>
      <stop offset=".92" stop-color="#ed1a3b"/>
      <stop offset="1" stop-color="#df2270"/>
    </linearGradient>
    <linearGradient id="linear-gradient-2" x1="93.22" y1="168.45" x2="256.37" y2="82.65" xlink:href="#linear-gradient"/>
    <linearGradient id="linear-gradient-3" x1="103.84" y1="188.63" x2="266.98" y2="102.83" xlink:href="#linear-gradient"/>
  </defs>
  <g id="logotype">
    <g>
      <g>
        <g>
          <polygon class="cls-6" points="276.16 79.72 310.51 75.91 310.47 70.79 298.27 72.15 297.44 64.64 307.7 63.5 307.68 58.61 296.9 59.81 296.23 53.71 285.08 54.95 285.75 61.05 275.2 62.22 276.1 67.01 286.29 65.88 287.12 73.39 275.23 74.71 276.16 79.72"/>
          <path class="cls-6" d="M325.53,99.51l-5.58-53.03c-.13-1.19-.67-2.16-1.6-2.91-.94-.75-2.02-1.05-3.26-.92l-54.86,6.09c3.86,30.73,4.03,52.79.5,66.17l7.61,1.41c6.03-14.82,7.77-35.96,5.22-63.42l35.54-3.95,5.57,53.1-8.43-.17.54,10.31,9.29-1.03c7.09-.79,10.24-4.67,9.47-11.66Z"/>
          <path class="cls-6" d="M308.73,84.93c-.22-2.01-.88-3.39-1.96-4.12-1.13-.73-2.89-.96-5.27-.7l-23.94,2.66,2.07,18.63,30.55-3.39-1.45-13.08ZM298.91,91.5c-1.67,1.03-2.85,2.43-3.32,3.98l-.67,2.16-.15.47-.09.24-.15-.22-.25-.43-1.13-1.95c-.81-1.4-2.27-2.51-4.13-3.14l-3.13-1.07,2.79-1.86c1.47-.98,2.51-2.26,2.98-3.66l1.21-3.59.02.02v-.02s1.99,3.22,1.99,3.22c.77,1.25,2.08,2.27,3.72,2.9l3.13,1.19-2.82,1.74Z"/>
        </g>
        <path class="cls-6" d="M418.09,55.64l-2.18-6.54-25.63,12.4-8.08-16.69,19.41-9.39-2.3-6.38-20.04,9.7-6.22-12.86,22.2-10.74-5.4-15.15-39.9,27.63,1.14-6.98-17.6,4.57c3.66,8.25,2.49,30.76,1,39.63l4.27,1.29,3.55-7.84,10.35,21.4-13.02,6.3,3.45,5.92,37.45-18.12,9.16,18.93,12.7-6.14-9.16-18.93,24.84-12.02ZM342.93,56.33c1.85-6.22,3.48-12.29,4.88-18.23l12.54-6.07,6.22,12.86-23.64,11.44ZM370.7,62.38c-1.43,1.93-2.13,4.14-1.96,6.25l.22,2.95.05.65v.34s-.27-.21-.27-.21l-.48-.44-2.18-2c-1.56-1.44-3.73-2.25-6.13-2.33l-4.05-.12,2.32-3.4c1.22-1.79,1.82-3.79,1.72-5.72l-.26-4.95.03.02v-.03s3.72,3.26,3.72,3.26c1.45,1.27,3.4,2.03,5.56,2.18l4.11.28-2.41,3.26ZM356.66,59.55l-1,1.36c-.59.8-.88,1.72-.82,2.6l.09,1.23.02.27v.14s-.11-.09-.11-.09l-.2-.18-.91-.83c-.65-.6-1.55-.94-2.55-.97l-1.69-.05.97-1.42c.51-.75.76-1.58.72-2.38l-.11-2.06h.01s0,0,0,0l1.55,1.36c.6.53,1.41.85,2.31.91l1.71.12ZM363.11,71.04l-.57.78c-.34.46-.51.99-.47,1.49l.05.7v.15s.01.08.01.08l-.06-.05-.11-.1-.52-.48c-.37-.34-.89-.54-1.46-.55l-.97-.03.55-.81c.29-.43.43-.91.41-1.36l-.06-1.18h0s0,0,0,0l.89.78c.35.3.81.49,1.33.52l.98.07Z"/>
        <g>
          <path class="cls-7" d="M227.8,146.06c-.34-1.66-1.02-2.77-2.04-3.32-1.02-.58-2.55-.67-4.58-.25l-25.18,5.15,3.71,18.13,30.83-6.31-2.74-13.41ZM222.04,151.93l-3.22,1.99c-1.91,1.17-3.22,2.64-3.7,4.14l-.68,2.1-.15.46-.1.24-.19-.18-.32-.37-1.43-1.67c-1.02-1.2-2.8-2.04-5.01-2.38l-3.74-.59,3.19-2.1c1.67-1.1,2.84-2.43,3.32-3.79l1.24-3.5h.02s0,0,0,0l2.5,2.74c.97,1.07,2.56,1.84,4.53,2.21l3.75.7Z"/>
          <path class="cls-7" d="M222.75,193.92l-12.63,2.58-15.44,3.16-3.19-15.6-1.18-5.77-2.71-13.26-1.18-5.77-2.58-12.63,14.66-3,12.63-2.58,22.54-4.61-.56-6.3-63.08,12.9,10.53,51.47c1.82,8.89,7.46,12.37,16.92,10.43l49.44-10.25-.52-5.74-23.63,4.97Z"/>
          <g>
            <path class="cls-7" d="M212.75,168.98c-.99-.59-2.55-.67-4.68-.23l-15.58,3.19,4.69,22.9,21.28-4.35-3.66-17.91c-.38-1.85-1.06-3.04-2.04-3.6ZM211.64,182.47c-1.83,1.47-3.04,3.39-3.41,5.42l-.52,2.85-.12.63-.08.32-.2-.27-.34-.53-1.57-2.44c-1.12-1.75-2.96-3.06-5.22-3.72l-3.8-1.12,3.04-2.64c1.6-1.39,2.67-3.13,3.05-4.98l.99-4.74.02.02v-.03s2.72,4.01,2.72,4.01c1.06,1.56,2.71,2.77,4.71,3.45l3.82,1.29-3.09,2.48Z"/>
            <path class="cls-7" d="M240.67,167.23c-.38-1.85-1.08-3.08-2.11-3.7-1.02-.58-2.62-.65-4.79-.21l-17.21,3.52,4.7,22.96,23.07-4.72-3.65-17.86ZM236.61,177.25c-1.83,1.47-3.04,3.39-3.41,5.42l-.52,2.85-.12.63-.08.32-.2-.27-.34-.54-1.57-2.44c-1.12-1.75-2.96-3.06-5.22-3.72l-3.8-1.12,3.04-2.64c1.6-1.39,2.67-3.13,3.05-4.98l.99-4.74.02.02v-.03s2.72,4.01,2.72,4.01c1.06,1.56,2.71,2.77,4.71,3.45l3.82,1.29-3.09,2.48Z"/>
          </g>
        </g>
        <g>
          <g>
            <path class="cls-7" d="M377.3,119.94l-.54.07c.85-3.03,1.56-5.85,2.14-8.46l-13.14.67c.18,3.49.27,6.56.27,9.2l-5.16.68,5.95,45.4,26.22-3.44-4.83-36.85c-.42-3.23-1.36-5.36-2.81-6.39-1.58-1.08-4.29-1.37-8.11-.87ZM382.32,158.12l-6.75.88-1.67-12.78,6.75-.88,1.67,12.78ZM379.74,138.41l-6.75.88-1.49-11.35,6.75-.88,1.49,11.35Z"/>
            <path class="cls-7" d="M409.23,155.2c-.34.11-.76-.74-.65-.96l3.96-8.16,1.3-2.89,9.37-19.55-13.79,1.81-3.73,7.5c-.19.17-1.79-.57-1.66-.72l8.16-19.18-12.66,1.66-7.7,18.7c-.68,1.76-.48,3.27.59,4.53.98,1.06,2.31,1.65,4,1.78,1.05,0,2.15-.07,3.32-.23,1.17-.15,2.23-.29,3.19-.42l-6.8,14.4c-1.02,2.37-.87,4.3.45,5.8.67.82,1.55,1.46,2.66,1.9,1.11.45,2.32.66,3.64.62,2.36-.1,4.14-.65,6.36-2.13,3.11-2.07,3.97-6.35,3.97-6.35-1.48.96-1.99,1.49-3.97,1.88Z"/>
            <path class="cls-7" d="M425.95,151.01l-1.37,2.74c-.82,1.62-1.04,3.47-.64,5.24l.56,2.47.12.54.05.29-.23-.18-.42-.37-1.91-1.67c-1.36-1.2-3.1-1.87-4.91-1.92l-3.06-.09,1.29-2.85c.68-1.5.86-3.18.53-4.79l-.86-4.14h.02s0,0,0,0l3.24,2.72c1.26,1.06,2.82,1.69,4.47,1.81l3.12.22Z"/>
            <path class="cls-7" d="M347.47,163.34c-.34.11-.76-.74-.65-.96l3.96-8.16,1.3-2.89,9.37-19.55-13.79,1.81-3.73,7.5c-.19.17-1.79-.57-1.66-.72l8.16-19.18-12.66,1.66-7.7,18.7c-.68,1.76-.48,3.27.59,4.53.98,1.06,2.31,1.65,4,1.78,1.05,0,2.15-.07,3.32-.23,1.17-.15,2.23-.29,3.19-.42l-6.8,14.4c-1.02,2.37-.87,4.3.45,5.8.67.82,1.55,1.46,2.66,1.9,1.11.45,2.32.66,3.64.62,2.36-.1,4.14-.65,6.36-2.13,3.11-2.07,3.97-6.35,3.97-6.35-1.48.96-1.99,1.49-3.97,1.88Z"/>
            <path class="cls-7" d="M364.18,159.16l-1.37,2.74c-.82,1.62-1.04,3.47-.64,5.24l.56,2.47.12.54.05.29-.23-.18-.42-.37-1.91-1.67c-1.36-1.2-3.1-1.87-4.91-1.92l-3.06-.09,1.29-2.85c.68-1.5.86-3.18.53-4.79l-.86-4.14h.02s0,0,0,0l3.24,2.72c1.26,1.06,2.82,1.69,4.47,1.81l3.12.22Z"/>
          </g>
          <path class="cls-7" d="M545.29,132.93c-37.06,45.96-83.31,57.4-113.49,55.26-14.74-1.05-27.07-4.91-37.09-10.35l28.65-3.7-.03-7.57-35.48,4.59-.6-4.62-15.41,1.99.6,4.62-35.48,4.59,1.48,7.38,26.48-3.42c-7,9.32-16.28,17.21-27.86,23.69l3.18,11.58c13.87-7.12,25.27-17.16,34.43-27.18l2.29,18.35,15.41-1.99-2.41-19.28c11.33,8.49,31.83,15.55,44,17.39,83.18,12.56,129.99-37.31,129.99-37.31l-18.66-34Z"/>
        </g>
        <g>
          <path class="cls-7" d="M101.89,187.17c4.3-4.9,8.32-9.75,12.08-14.55,1.57-1.96,2.09-3.76,1.55-5.42-.54-1.66-1.98-2.58-4.31-2.77l-35.68-2.9.23,8.29,17.34,1.41c-4.63,30.27-47.57,20.75-62.46,2.64l-8.78,24.15c35.14,14.59,61.41.65,64.17-1.88l-3.18,40.33,14.93,1.21,2.94-36.18.58-7.12.59-7.22Z"/>
          <polygon class="cls-7" points="114.85 156.85 115.46 149.33 85.4 146.89 85.69 154.48 114.85 156.85"/>
          <polygon class="cls-7" points="144.46 229.67 147.25 186.61 165.81 187.82 167.17 179.47 147.8 178.21 149.89 145.92 133.29 144.84 131.19 177.13 113.15 175.96 113.22 184.41 130.64 185.54 127.85 228.59 103.35 227 103.43 235.34 165.34 239.36 166.7 231.11 144.46 229.67"/>
          <path class="cls-7" d="M122.97,204.57l-4.21,2.22c-2.49,1.31-4.45,3.45-5.53,6.05l-1.52,3.63-.33.8-.19.41-.14-.43-.2-.84-.91-3.83c-.65-2.74-2.23-5.17-4.48-6.86l-3.79-2.87,4.21-2.45c2.21-1.29,3.96-3.25,4.99-5.58l2.65-6.01v.04s.03-.03.03-.03l1.64,6.36c.64,2.47,2.05,4.69,4.02,6.32l3.76,3.09Z"/>
        </g>
        <g>
          <path class="cls-7" d="M301.77,195.52l1.08-18.37c.14-2.29-.29-3.94-1.28-4.95-1.04-1.01-2.85-1.59-5.44-1.75l-23.15-1.37-1.45,24.64,30.24,1.79ZM297.42,183.11l-3.98,1.5c-2.36.88-4.16,2.31-5.1,4.05l-1.31,2.43-.29.53-.17.27-.15-.29-.23-.56-1.05-2.55c-.75-1.82-2.4-3.43-4.66-4.55l-3.81-1.9,3.97-1.65c2.09-.87,3.7-2.18,4.59-3.74l2.3-4.01.02.02v-.02s1.89,4.23,1.89,4.23c.73,1.64,2.2,3.11,4.19,4.19l3.78,2.04Z"/>
          <path class="cls-7" d="M317.18,199.88l2.94-49.8c.08-1.29-.33-2.44-1.22-3.44-.84-.95-1.91-1.46-3.21-1.54l-7.24-.43v.07s-49.06-2.97-49.06-2.97l-3.89,65.93,11.13.66,3.54-59.96,37.93,2.24-2.54,50.78-8.96-3.18-.76,11.62,9.11.54c7.72.46,11.79-3.05,12.24-10.52Z"/>
          <polygon class="cls-7" points="305.39 164.14 271.52 162.06 271.49 156.57 306.25 158.71 305.39 164.14"/>
        </g>
        <g>
          <path class="cls-1" d="M84.32,132.23l-10.43-66.41-18.1,2.84-.8-6.18c11.05-2.3,22.87-10.86,26.04-17.9l8.82-1.38,13.51,86.04-19.04,2.99Z"/>
          <path class="cls-4" d="M221.16,81.2l-2.65,2.34c-1.57,1.38-2.62,3.27-2.94,5.34l-.46,2.89-.1.64-.07.33-.17-.29-.29-.57-1.33-2.61c-.95-1.87-2.52-3.35-4.44-4.18l-3.24-1.42,2.62-2.5c1.37-1.32,2.3-3.04,2.63-4.91l.87-4.81.02.02v-.03s2.3,4.31,2.3,4.31c.9,1.68,2.3,3.03,4.01,3.87l3.26,1.58Z"/>
          <path class="cls-4" d="M148.04,92.88l-2.65,2.34c-1.57,1.38-2.62,3.27-2.94,5.34l-.46,2.89-.1.64-.07.33-.17-.29-.29-.57-1.33-2.61c-.95-1.87-2.52-3.35-4.44-4.18l-3.24-1.42,2.62-2.5c1.37-1.32,2.3-3.04,2.63-4.91l.87-4.81.02.02v-.03s2.3,4.31,2.3,4.31c.9,1.68,2.3,3.03,4.01,3.87l3.26,1.58Z"/>
          <path class="cls-2" d="M173.98,92.88c.14,3.43-.19,6.59-.98,9.49-.79,2.89-1.96,5.55-3.51,7.96-3.9,5.83-9.5,9.8-16.8,11.91-3.45,1.02-6.99,1.76-10.61,2.21-3.62.45-7.22.27-10.8-.53-2.66-.55-5.19-1.49-7.61-2.84-2.42-1.35-4.65-3.14-6.69-5.39-1.75-1.97-3.15-4.22-4.19-6.75-1.04-2.53-1.81-5.15-2.32-7.88l5.92-.46c2.88,6.96,6.29,8.87,8.78,9.84,2.22.86,4.74,1.41,7.54,1.65,2.81.24,5.57.07,8.29-.52,6.31-1.23,9.33-3.89,11.6-8.34,1.58-3.22,2.07-7.27,1.46-12.15-.27-1.72-.64-3.45-1.12-5.18-.47-1.73-1.15-3.33-2.02-4.8-.98-1.61-2.21-2.94-3.7-4-1.49-1.05-3.32-1.6-5.5-1.67-1.38-.1-2.84.05-4.39.45-1.54.4-2.85,1.05-3.91,1.94-1.14.9-2.03,2.03-2.66,3.37-.63,1.34-.92,2.69-.87,4.05l-19.63,3.08-5.67-47.64,57.59-9.04,2.55,16.22-39.14,6.14,2.33,18.66c.92-1.27,2.01-2.52,3.26-3.76,1.25-1.24,2.61-2.29,4.08-3.17,2.35-1.41,4.96-2.3,7.83-2.67,2.87-.37,5.67-.33,8.39.13,6.34,1.01,11.44,3.82,15.29,8.44,1.17,1.34,2.18,2.89,3.02,4.64.84,1.76,1.56,3.57,2.18,5.44.61,1.87,1.07,3.77,1.37,5.69s.51,3.76.62,5.5Z"/>
          <path class="cls-3" d="M247.01,81.5c.14,3.43-.19,6.59-.98,9.49-.79,2.89-1.96,5.55-3.51,7.96-3.9,5.83-9.5,9.8-16.8,11.91-3.45,1.02-6.99,1.76-10.61,2.21-3.62.45-7.22.27-10.8-.53-2.66-.55-5.19-1.49-7.61-2.84-2.42-1.35-4.65-3.14-6.69-5.39-1.75-1.97-3.15-4.22-4.19-6.75-1.04-2.53-1.81-5.15-2.32-7.88l5.92-.46c2.88,6.96,6.29,8.87,8.78,9.84,2.22.86,4.74,1.41,7.54,1.65,2.81.24,5.57.07,8.29-.52,6.31-1.23,9.33-3.89,11.6-8.34,1.58-3.22,2.07-7.27,1.46-12.15-.27-1.72-.64-3.45-1.12-5.18-.47-1.73-1.15-3.33-2.02-4.8-.98-1.61-2.21-2.94-3.7-4-1.49-1.05-3.32-1.6-5.5-1.67-1.38-.1-2.84.05-4.39.45-1.54.4-2.85,1.05-3.91,1.94-1.14.9-2.03,2.03-2.66,3.37-.63,1.34-.92,2.69-.87,4.05l-19.63,3.08-5.67-47.64,57.59-9.04,2.55,16.22-39.14,6.14,2.33,18.66c.92-1.27,2.01-2.52,3.26-3.76,1.25-1.24,2.61-2.29,4.08-3.17,2.35-1.41,4.96-2.3,7.83-2.67,2.87-.37,5.67-.33,8.39.13,6.34,1.01,11.44,3.82,15.29,8.44,1.17,1.34,2.18,2.89,3.02,4.64.84,1.76,1.56,3.57,2.18,5.44.61,1.87,1.07,3.77,1.37,5.69s.51,3.76.62,5.5Z"/>
        </g>
        <path class="cls-7" d="M476.37,71.69c4.99-2.16,8.92-2.83,11.8-2.01,2.73.82,4.91,3.13,6.56,6.93l27.34,63.05-67.91,29.45-32.05-73.9,54.25-23.53ZM441.15,96.07l10.71,24.69,36.48-15.82-10.71-24.69-36.48,15.82ZM502.99,138.71l-11.48-26.47-36.48,15.82,11.48,26.47,36.48-15.82Z"/>
      </g>
      <g>
        <rect class="cls-6" x="9.29" y="23.89" width="35.62" height="124.7" transform="translate(-12.82 5.13) rotate(-8.76)"/>
        <g>
          <path class="cls-5" d="M10.02,39.5l19.45-3,.34,2.22-19.45,3-.34-2.22ZM19.43,49l2.13.53c-.4.8-.89,1.59-1.45,2.36-.56.78-1.18,1.52-1.85,2.22-.67.7-1.38,1.36-2.13,1.97-.75.61-1.5,1.15-2.27,1.63-.15-.17-.33-.37-.56-.59-.23-.22-.46-.44-.71-.65-.24-.21-.46-.38-.66-.5.76-.4,1.52-.87,2.26-1.41.74-.53,1.45-1.11,2.11-1.72.66-.61,1.27-1.25,1.8-1.9.54-.65.98-1.31,1.33-1.96ZM12.45,42.87l15.82-2.44,1.29,8.34-15.82,2.44-1.29-8.34ZM15.03,44.29l.24,1.54,11.11-1.71-.24-1.54-11.11,1.71ZM15.53,47.51l.24,1.56,11.11-1.71-.24-1.56-11.11,1.71ZM18.11,36.34l2.46-.38,3.16,20.53-2.46.38-3.16-20.53ZM23.23,48.48c.54.5,1.17.98,1.89,1.43.71.45,1.49.87,2.32,1.25.83.38,1.69.71,2.56.98.88.27,1.74.48,2.59.64-.15.19-.31.42-.49.7s-.34.55-.49.83c-.15.28-.28.54-.38.78-.87-.21-1.75-.5-2.64-.85-.89-.36-1.76-.78-2.63-1.25-.86-.47-1.68-1-2.45-1.57-.77-.57-1.47-1.16-2.09-1.77l1.8-1.16Z"/>
          <path class="cls-5" d="M13.87,65.4l9.42-1.45.32,2.07-9.42,1.45-.32-2.07ZM14.9,69.32l18.83-2.9.3,1.96-18.83,2.9-.3-1.96ZM15.42,72.84l7.26-1.12.31,2-7.26,1.12-.31-2ZM15.44,76.58l20-3.08.32,2.05-20,3.08-.32-2.05ZM17.19,79.75l17.36-2.68.3,1.96-17.36,2.68-.3-1.96ZM18.11,71.28l2.2-.34.67,4.36-2.2.34-.67-4.36ZM18.44,63.32l2.31-.36.74,4.8-2.31.36-.74-4.8ZM23.16,68.83l2.35-.36,2.23,14.46-2.35.36-2.23-14.46ZM24.06,63.83l9.42-1.45.32,2.07-9.42,1.45-.32-2.07ZM26.07,62.14l2.31-.36.74,4.8-2.31.36-.74-4.8ZM26.87,70.96l7.26-1.12.31,2-7.26,1.12-.31-2ZM29.02,69.59l2.2-.34.67,4.36-2.2.34-.67-4.36Z"/>
          <path class="cls-5" d="M19.51,92.37l16.74-2.58.37,2.42-16.74,2.58-.37-2.42ZM20.51,107.19l19.17-2.95.37,2.4-19.16,2.95-.37-2.4ZM22.11,99.27l13.49-2.08.37,2.38-13.49,2.08-.37-2.38Z"/>
          <path class="cls-5" d="M22.32,117.73l5.08-.78.33,2.11-2.99.46,2.7,17.49-2.09.32-3.02-19.6ZM26.85,117.03l.4-.06.32-.14,1.68.64c-.15.96-.32,1.98-.51,3.06-.19,1.09-.38,2.09-.58,3.01.84.77,1.42,1.53,1.76,2.27.33.74.55,1.45.66,2.13.1.68.12,1.26.04,1.75-.08.49-.26.9-.56,1.21-.16.14-.33.27-.53.37-.19.1-.4.2-.63.28-.2.05-.43.09-.68.14-.25.05-.5.09-.77.13-.04-.28-.14-.61-.29-.99s-.33-.71-.53-.98c.21-.02.4-.04.58-.05.18-.02.33-.05.46-.08.26-.05.46-.14.59-.27.13-.12.21-.32.24-.58.03-.26.02-.55-.03-.87-.08-.54-.29-1.15-.61-1.83-.32-.68-.89-1.37-1.7-2.07.1-.52.19-1.08.27-1.67.08-.59.16-1.18.23-1.77.07-.59.13-1.14.18-1.66.05-.52.09-.95.13-1.3l-.1-.66ZM29.52,118.4l12.52-1.93.65,4.22-2.24.35-.34-2.18-8.1,1.25.34,2.18-2.18.34-.65-4.22ZM33.83,126.92l2.27-.35c.1,1.11.13,2.14.1,3.08s-.18,1.82-.46,2.63c-.28.81-.74,1.55-1.38,2.23-.64.68-1.5,1.31-2.58,1.9-.16-.28-.4-.58-.73-.91-.32-.33-.63-.6-.91-.79.96-.46,1.72-.96,2.26-1.49.54-.53.93-1.1,1.15-1.73.23-.63.35-1.32.37-2.07.02-.75-.01-1.58-.09-2.49ZM30.81,126.35l12.59-1.94.33,2.11-12.58,1.94-.33-2.11ZM31.88,122.16l9.04-1.39.32,2.05-9.04,1.39-.32-2.05ZM33.47,115.56l2.12-1c.33.41.67.88,1.01,1.39.34.51.6.95.78,1.33l-2.19,1.13c-.17-.39-.41-.86-.73-1.41-.32-.54-.65-1.02-.99-1.44ZM37.71,126.28l2.22-.34.93,6.01c.05.29.1.48.16.55.06.07.18.1.36.07.04,0,.13-.02.28-.04.14-.02.28-.04.43-.07.15-.02.25-.04.31-.05.12-.02.2-.09.26-.22.06-.13.07-.39.04-.77-.03-.39-.1-.97-.2-1.75.18.11.39.2.64.27.24.08.5.14.76.19.26.05.49.09.69.12.11.99.12,1.78.05,2.36-.08.58-.25,1-.53,1.26-.27.26-.66.43-1.16.5-.09.01-.21.03-.36.06-.15.02-.32.05-.48.07-.17.03-.32.05-.46.07-.14.02-.25.04-.34.05-.62.09-1.1.09-1.45-.03-.35-.11-.61-.36-.79-.73-.18-.38-.32-.9-.42-1.58l-.93-6.01Z"/>
        </g>
      </g>
    </g>
  </g>
</svg>