<svg width="100" height="100" viewBox="0 0 100 100" fill="none" xmlns="http://www.w3.org/2000/svg">
<path d="M61.8892 84.3138C62.8589 83.3442 63.8285 82.3745 64.8058 81.3972C67.033 79.17 69.2527 76.9504 71.4799 74.7232C73.9268 72.2762 76.3737 69.8293 78.8206 67.3824C80.4569 65.7461 82.0933 64.1098 83.7296 62.4735C84.2977 61.9053 84.8659 61.3599 85.2674 60.6402C86.5553 58.3296 86.1007 55.4888 84.2523 53.6328C83.1917 52.5722 82.1311 51.5116 81.0705 50.451C78.9418 48.3223 76.8131 46.1936 74.6843 44.0648C72.192 41.5725 69.692 39.0725 67.1997 36.5802C65.0103 34.3908 62.8286 32.209 60.6392 30.0197C59.465 28.8455 58.2908 27.6713 57.1166 26.4971C57.0636 26.444 57.0105 26.391 56.9575 26.338C56.0787 25.4592 54.6318 25.4819 53.7455 26.338C53.7227 26.3607 53.5864 26.4592 53.5864 26.4895C53.5864 26.4365 54.0939 26.1334 53.7455 26.3607C53.6091 26.444 53.4727 26.5198 53.3288 26.5804C53.5106 26.5046 53.6924 26.4289 53.8742 26.3531C53.6167 26.4592 53.3515 26.5274 53.0788 26.5652C53.2834 26.5349 53.4803 26.5122 53.6849 26.4819C53.4424 26.5046 53.2076 26.5046 52.9652 26.4819C53.1697 26.5122 53.3667 26.5349 53.5712 26.5652C53.2909 26.5274 53.0258 26.4592 52.7682 26.3531C52.95 26.4289 53.1318 26.5046 53.3137 26.5804C53.1697 26.5198 53.0258 26.444 52.8894 26.3683C52.5637 26.1713 52.9652 26.4819 53.0409 26.5122C52.9728 26.4895 52.8894 26.3834 52.8364 26.3304C52.7834 26.2774 52.7303 26.2168 52.6773 26.1713C52.4879 25.9895 52.9879 26.6334 52.7909 26.3228C52.6925 26.1713 52.6091 26.0122 52.5334 25.8456C52.6091 26.0274 52.6849 26.2092 52.7606 26.391C52.6697 26.1562 52.6091 25.9289 52.5712 25.6789C52.6015 25.8834 52.6243 26.0804 52.6546 26.2849C52.6243 26.0425 52.6243 25.8001 52.6546 25.5577C52.6243 25.7622 52.6015 25.9592 52.5712 26.1637C52.6091 25.9137 52.6697 25.6865 52.7606 25.4516C52.6849 25.6334 52.6091 25.8153 52.5334 25.9971C52.6016 25.8304 52.6925 25.6713 52.7834 25.5122C52.9349 25.2471 52.6697 25.6941 52.6243 25.7016C52.6546 25.6941 52.8288 25.4744 52.8515 25.4516C53.7 24.5653 53.7303 23.1184 52.8515 22.2396C51.4576 20.8457 50.0637 19.4518 48.6698 18.0579C47.7986 17.2018 46.9577 16.3609 46.1244 15.5201C45.1775 14.5731 44.1775 13.7019 42.8139 13.3989C40.8064 12.9444 38.7534 13.5277 37.2913 14.9822C37.0186 15.2549 36.7459 15.5276 36.4656 15.8079C35.1626 17.1109 33.8596 18.4139 32.5566 19.7169C30.6703 21.6032 28.7915 23.482 26.9052 25.3683C24.9507 27.3228 22.9886 29.2849 21.0341 31.2394C19.5342 32.7393 18.0342 34.2393 16.5418 35.7317C15.6858 36.5877 14.6555 37.4513 14.0267 38.4968C12.6783 40.7619 13.1101 43.7012 14.9434 45.5572C15.4964 46.1178 16.0494 46.6632 16.61 47.2238C18.3448 48.9586 20.072 50.6859 21.8068 52.4207C21.9281 52.5419 22.0493 52.6631 22.1629 52.7767C23.0492 53.6631 24.4886 53.6252 25.3749 52.7767C25.3977 52.754 25.5416 52.6479 25.5416 52.6252C25.5416 52.6782 25.034 52.9813 25.3901 52.754C25.5265 52.6707 25.6628 52.5949 25.8143 52.5267C25.6325 52.6025 25.4507 52.6782 25.2689 52.754C25.5265 52.6479 25.7916 52.5798 26.0719 52.5343C25.8674 52.5646 25.6704 52.5873 25.4658 52.6176C25.7083 52.5949 25.9431 52.5949 26.1855 52.6176C25.981 52.5873 25.784 52.5646 25.5795 52.5343C25.8598 52.5722 26.1249 52.6479 26.3825 52.754C26.2007 52.6782 26.0189 52.6025 25.8371 52.5267C25.981 52.5949 26.1249 52.6707 26.2537 52.754C26.3219 52.7995 26.5492 52.9661 26.2386 52.7388C25.9128 52.4889 26.2007 52.7237 26.2537 52.7767C26.2764 52.7995 26.3825 52.9434 26.4052 52.9358C26.3673 52.9358 26.087 52.4661 26.2461 52.7313C26.337 52.8828 26.4279 53.0343 26.5037 53.1934C26.4279 53.0116 26.3522 52.8298 26.2764 52.6479C26.3825 52.9055 26.4582 53.1707 26.4961 53.451C26.4658 53.2464 26.4431 53.0494 26.4128 52.8449C26.4431 53.0873 26.4431 53.3222 26.4128 53.5646C26.4431 53.36 26.4658 53.1631 26.4961 52.9585C26.4582 53.2388 26.3825 53.504 26.2764 53.7616C26.3522 53.5797 26.4279 53.3979 26.5037 53.2161C26.4355 53.36 26.3673 53.504 26.2764 53.6403C26.231 53.7161 26.0643 53.9358 26.2992 53.6328C26.5492 53.307 26.3143 53.5949 26.2613 53.6479C25.4128 54.5343 25.3749 55.9736 26.2613 56.86C27.3067 57.9054 28.3446 58.9432 29.39 59.9887C31.8369 62.4356 34.2838 64.8825 36.7307 67.3294C39.5564 70.1551 42.3821 72.9808 45.2078 75.8065C47.4047 78.0034 49.6016 80.2003 51.7985 82.3972C52.344 82.9427 52.897 83.4957 53.4424 84.0411C53.5258 84.1244 53.6015 84.2002 53.6849 84.2835C55.1469 85.7077 57.2151 86.2759 59.1999 85.7986C60.2226 85.5865 61.1544 85.0259 61.8892 84.3138C62.7452 83.4881 62.7831 81.92 61.8892 81.1018C60.9726 80.2609 59.5862 80.2154 58.6772 81.1018C58.6014 81.1775 58.5105 81.2457 58.4347 81.3291C58.8665 80.9048 58.7302 81.1094 58.5408 81.2306C58.359 81.3442 58.1696 81.4427 57.9726 81.526C58.1544 81.4503 58.3363 81.3745 58.5181 81.2988C58.2529 81.3972 57.9878 81.473 57.7151 81.5184C57.9196 81.4881 58.1166 81.4654 58.3211 81.4351C57.9726 81.4806 57.6317 81.4806 57.2908 81.4351C57.4954 81.4654 57.6923 81.4881 57.8969 81.5184C57.6166 81.473 57.3514 81.4048 57.0939 81.2988C57.2757 81.3745 57.4575 81.4503 57.6393 81.526C57.4726 81.4578 57.3211 81.3821 57.162 81.2912C57.1014 81.2533 57.0408 81.2154 56.9802 81.1775C56.6393 80.9579 57.3439 81.4957 57.1393 81.2988C57.0711 81.2306 56.9954 81.17 56.9272 81.1018C56.8969 81.0715 56.8666 81.0412 56.8439 81.0185C56.6924 80.8669 56.5484 80.723 56.3969 80.5715C55.7681 79.9427 55.1469 79.3215 54.5182 78.6928C52.3516 76.5261 50.1774 74.352 48.0107 72.1853C45.3366 69.5112 42.6624 66.837 39.9882 64.1628C37.6549 61.8295 35.3217 59.4963 32.9884 57.163C31.8521 56.0266 30.7384 54.8449 29.5642 53.7388C29.5491 53.7237 29.5339 53.7085 29.5112 53.6858C29.5112 54.754 29.5112 55.8297 29.5112 56.8978C31.443 54.8676 31.5187 51.5949 29.4961 49.5798C27.4734 47.5647 24.2159 47.6253 22.1781 49.5647C23.2462 49.5647 24.3219 49.5647 25.3901 49.5647C23.1705 47.345 20.9432 45.1178 18.7236 42.8982C18.5569 42.7315 18.3827 42.5573 18.216 42.3906C18.1933 42.3679 18.1706 42.3452 18.1403 42.3149C18.0872 42.2618 18.0418 42.2088 17.9888 42.1558C17.7312 41.8755 18.3221 42.6633 18.0191 42.1785C17.9054 41.9967 17.8069 41.8073 17.7236 41.6103C17.7994 41.7921 17.8751 41.974 17.9509 42.1558C17.8524 41.8906 17.7766 41.6255 17.7312 41.3528C17.7615 41.5573 17.7842 41.7543 17.8145 41.9588C17.7691 41.6103 17.7691 41.2694 17.8145 40.9285C17.7842 41.1331 17.7615 41.33 17.7312 41.5346C17.7766 41.2543 17.8448 40.9891 17.9509 40.7316C17.8751 40.9134 17.7994 41.0952 17.7236 41.277C17.7766 41.1482 17.8372 41.0194 17.9054 40.8982C17.9585 40.8073 18.1251 40.6331 18.1403 40.5346C18.1403 40.5649 17.7539 40.9816 17.9888 40.7391C18.0266 40.7013 18.0645 40.6558 18.1024 40.6179C18.1175 40.6028 18.1327 40.5876 18.1403 40.5725C18.163 40.5498 18.1857 40.527 18.2009 40.5119C18.3221 40.3907 18.4433 40.2695 18.5721 40.1407C19.0872 39.6255 19.6099 39.1028 20.1251 38.5877C21.9432 36.7695 23.7689 34.9438 25.5871 33.1257C27.8294 30.8833 30.0718 28.641 32.3066 26.4062C34.2156 24.4971 36.1323 22.5805 38.0413 20.6714C38.8746 19.8381 39.7079 18.9897 40.5488 18.1639C40.6018 18.1109 40.6549 18.0655 40.7079 18.0124C40.8518 17.8836 40.9579 17.9215 40.5034 18.1639C40.7609 18.0276 40.9806 17.8609 41.2458 17.7473C41.064 17.823 40.8821 17.8988 40.7003 17.9745C40.9655 17.8761 41.2306 17.8003 41.5033 17.7549C41.2988 17.7852 41.1018 17.8079 40.8973 17.8382C41.2458 17.7927 41.5867 17.7927 41.9276 17.8382C41.723 17.8079 41.5261 17.7852 41.3215 17.7549C41.6018 17.8003 41.867 17.8685 42.1245 17.9745C41.9427 17.8988 41.7609 17.823 41.5791 17.7473C41.7458 17.8155 41.8973 17.8912 42.0564 17.9821C42.1473 18.0352 42.2306 18.1109 42.3291 18.1564C41.8518 17.8988 42.0033 17.8912 42.1624 18.0427C42.223 18.0958 42.276 18.1488 42.3291 18.2018C42.4579 18.3306 42.5866 18.4594 42.723 18.5957C43.2836 19.1563 43.8442 19.7169 44.4048 20.2775C45.7911 21.6638 47.185 23.0578 48.5713 24.4441C48.9122 24.785 49.2456 25.1183 49.5865 25.4592C49.5865 24.3911 49.5865 23.3153 49.5865 22.2472C48.6319 23.2396 48.0411 24.5501 48.0411 25.9365C48.0411 27.2925 48.6168 28.6713 49.6092 29.5955C51.6698 31.5045 54.8742 31.5348 56.912 29.5727C55.8439 29.5727 54.7682 29.5727 53.7 29.5727C54.6318 30.5045 55.5636 31.4363 56.4954 32.3681C58.7226 34.5953 60.9574 36.8301 63.1846 39.0574C65.8588 41.7315 68.5406 44.4133 71.2147 47.0875C73.4874 49.3601 75.7525 51.6252 78.0252 53.8979C79.0327 54.9055 80.063 55.9054 81.063 56.9357C81.1312 57.0039 81.1918 57.0797 81.2599 57.1478C81.4569 57.3524 80.9266 56.6478 81.1387 56.9887C81.1766 57.0493 81.2145 57.11 81.2524 57.1706C81.3433 57.3221 81.419 57.4812 81.4872 57.6478C81.4114 57.466 81.3357 57.2842 81.2599 57.1024C81.3584 57.3675 81.4342 57.6327 81.4796 57.9054C81.4493 57.7009 81.4266 57.5039 81.3963 57.2993C81.4418 57.6478 81.4418 57.9887 81.3963 58.3296C81.4266 58.1251 81.4493 57.9281 81.4796 57.7236C81.4342 58.0039 81.366 58.269 81.2599 58.5266C81.3357 58.3448 81.4114 58.163 81.4872 57.9811C81.3811 58.2311 81.2524 58.4508 81.1084 58.6781C80.9645 58.9054 81.4493 58.2766 81.2599 58.4736C81.2069 58.5266 81.1615 58.5872 81.1084 58.6402C81.0933 58.6554 81.0781 58.6705 81.0705 58.6857C81.0478 58.7084 81.0327 58.7236 81.0099 58.7463C80.8963 58.8599 80.7751 58.9811 80.6615 59.0947C80.1615 59.5947 79.6615 60.0947 79.1615 60.5947C77.3964 62.3598 75.6313 64.1249 73.8738 65.8825C71.6693 68.087 69.4648 70.2914 67.2603 72.4959C65.3437 74.4126 63.4195 76.3368 61.5028 78.2534C60.5635 79.1927 59.609 80.117 58.6847 81.0715C58.6696 81.0866 58.6544 81.1018 58.6469 81.1094C57.806 81.9503 57.7454 83.4957 58.6469 84.3214C59.5787 85.1471 60.9877 85.2153 61.8892 84.3138Z" fill="#ED6B8F"/>
<path d="M40.9047 52.4814C42.9198 54.4965 44.9425 56.5191 46.9576 58.5342C50.1697 61.7463 53.3893 64.9659 56.6013 68.1779C57.3362 68.9128 58.071 69.6476 58.8058 70.3824C59.6467 71.2233 61.1921 71.2839 62.0179 70.3824C62.8512 69.4734 62.9194 68.0643 62.0179 67.1704C60.0028 65.1553 57.9801 63.1326 55.965 61.1175C52.7529 57.9055 49.5333 54.6858 46.3213 51.4738C45.5864 50.739 44.8516 50.0041 44.1168 49.2693C43.2759 48.4284 41.7305 48.3678 40.9047 49.2693C40.0714 50.1784 40.0108 51.5874 40.9047 52.4814Z" fill="#FFACC3"/>
<path d="M64.0179 52.4434C62.7224 51.148 61.4194 49.845 60.124 48.5495C58.0559 46.4814 55.9878 44.4133 53.9121 42.3376C53.4348 41.8603 52.9575 41.383 52.4878 40.9134C51.647 40.0725 50.1015 40.0119 49.2758 40.9134C48.4425 41.8224 48.3743 43.2315 49.2758 44.1254C50.5712 45.4208 51.8742 46.7238 53.1696 48.0192C55.2378 50.0874 57.3059 52.1555 59.3816 54.2312C59.8589 54.7085 60.3361 55.1857 60.8058 55.6554C61.6467 56.4963 63.1921 56.5569 64.0179 55.6554C64.8512 54.7464 64.9118 53.3373 64.0179 52.4434Z" fill="#FFACC3"/>
<path d="M34.5793 47.701C36.0641 46.2162 37.5489 44.7314 39.0337 43.2466C41.3821 40.8982 43.7305 38.5497 46.0714 36.2089C46.6168 35.6634 47.1547 35.1256 47.7001 34.5801C48.541 33.7392 48.6016 32.1938 47.7001 31.3681C46.7911 30.5348 45.382 30.4666 44.4881 31.3681C43.0033 32.8529 41.5185 34.3377 40.0337 35.8225C37.6852 38.171 35.3368 40.5194 32.996 42.8602C32.4505 43.4057 31.9127 43.9435 31.3672 44.489C30.5263 45.3299 30.4657 46.8753 31.3672 47.701C32.2687 48.5343 33.6778 48.5949 34.5793 47.701Z" fill="#FFACC3"/>
</svg>
