<svg width="100" height="100" viewBox="0 0 100 100" fill="none" xmlns="http://www.w3.org/2000/svg">
<path d="M80 23H20C19.4696 23 18.9609 23.2107 18.5858 23.5858C18.2107 23.9609 18 24.4696 18 25V74.5C18 75.0304 18.2107 75.5391 18.5858 75.9142C18.9609 76.2893 19.4696 76.5 20 76.5H80C80.5304 76.5 81.0391 76.2893 81.4142 75.9142C81.7893 75.5391 82 75.0304 82 74.5V25C82 24.4696 81.7893 23.9609 81.4142 23.5858C81.0391 23.2107 80.5304 23 80 23V23ZM78 72.5H22V39H78V72.5ZM78 35H22V27H78V35Z" fill="#ED6B8F"/>
<path d="M62 33C63.1046 33 64 32.1046 64 31C64 29.8954 63.1046 29 62 29C60.8954 29 60 29.8954 60 31C60 32.1046 60.8954 33 62 33Z" fill="#FFACC3"/>
<path d="M68 33C69.1046 33 70 32.1046 70 31C70 29.8954 69.1046 29 68 29C66.8954 29 66 29.8954 66 31C66 32.1046 66.8954 33 68 33Z" fill="#FFACC3"/>
<path d="M74 33C75.1046 33 76 32.1046 76 31C76 29.8954 75.1046 29 74 29C72.8954 29 72 29.8954 72 31C72 32.1046 72.8954 33 74 33Z" fill="#FFACC3"/>
<path d="M26 33H40C40.5304 33 41.0391 32.7893 41.4142 32.4142C41.7893 32.0391 42 31.5304 42 31C42 30.4696 41.7893 29.9609 41.4142 29.5858C41.0391 29.2107 40.5304 29 40 29H26C25.4696 29 24.9609 29.2107 24.5858 29.5858C24.2107 29.9609 24 30.4696 24 31C24 31.5304 24.2107 32.0391 24.5858 32.4142C24.9609 32.7893 25.4696 33 26 33V33Z" fill="#FFACC3"/>
<path d="M48.58 67.24C48.7669 67.4254 48.9885 67.572 49.2322 67.6716C49.4759 67.7711 49.7368 67.8216 50 67.82C50.5282 67.8204 51.035 67.612 51.41 67.24L61.89 56.75C62.6535 55.9883 63.2592 55.0835 63.6725 54.0874C64.0858 53.0913 64.2985 52.0235 64.2985 50.945C64.2985 49.8666 64.0858 48.7987 63.6725 47.8026C63.2592 46.8065 62.6535 45.9017 61.89 45.14C60.3508 43.6036 58.2648 42.7407 56.09 42.7407C53.9152 42.7407 51.8293 43.6036 50.29 45.14L50 45.43L49.71 45.14C48.9567 44.3387 48.0501 43.6969 47.044 43.2527C46.0379 42.8086 44.9529 42.571 43.8532 42.5543C42.7535 42.5376 41.6617 42.7419 40.6426 43.1553C39.6234 43.5686 38.6977 44.1825 37.9203 44.9605C37.143 45.7385 36.5299 46.6648 36.1174 47.6843C35.705 48.7038 35.5016 49.7958 35.5193 50.8954C35.5369 51.9951 35.7754 53.08 36.2204 54.0857C36.6655 55.0914 37.3081 55.9974 38.11 56.75L48.58 67.24ZM40.94 47.98C41.33 47.59 41.7931 47.2806 42.3027 47.0695C42.8123 46.8584 43.3584 46.7497 43.91 46.7497C44.4616 46.7497 45.0078 46.8584 45.5174 47.0695C46.027 47.2806 46.49 47.59 46.88 47.98L48.58 49.68C48.7658 49.866 48.9864 50.0135 49.2291 50.1141C49.4719 50.2148 49.7322 50.2666 49.995 50.2666C50.2579 50.2666 50.5181 50.2148 50.7609 50.1141C51.0037 50.0135 51.2243 49.866 51.41 49.68L53.12 47.98C53.7106 47.3922 54.4622 46.9929 55.2799 46.8325C56.0975 46.6722 56.9443 46.758 57.7131 47.0793C58.4819 47.4005 59.1381 47.9426 59.5986 48.637C60.0591 49.3314 60.3032 50.1468 60.3 50.98C60.3055 51.5377 60.1986 52.0908 59.9855 52.6063C59.7725 53.1217 59.4577 53.589 59.06 53.98L50 62.99L40.93 53.93C40.5385 53.5398 40.2278 53.0762 40.0158 52.5657C39.8038 52.0552 39.6947 51.5078 39.6947 50.955C39.6947 50.4023 39.8038 49.8549 40.0158 49.3444C40.2278 48.8339 40.5385 48.3702 40.93 47.98H40.94Z" fill="#ED6B8F"/>
</svg>
